<svg enable-background="new 0 0 200 56.192" viewBox="0 0 200 56.192" xmlns="http://www.w3.org/2000/svg"><path d="m0 0h200v56.192h-200z" fill="none"/><g transform="matrix(.5791394 0 0 -.5791394 -.000045 200)"><path d="m29.336 326.353v-1.141c0-.822-.672-1.494-1.494-1.494-.821 0-1.494.672-1.494 1.494v1.141c0 .822.673 1.494 1.494 1.494.822 0 1.494-.672 1.494-1.494" fill="#8a1001"/><path d="m22.297 298.514c.287 2.785-.642 5.523.552 8.346.645 1.525.115 3.546.115 5.82 1.404-2.5 3.034-4.048 5.557-3.644 2.205.352 3.736 1.882 4.052 4.086.356 2.481-1.058 4.205-3.712 5.462 11.504 0 22.462-.001 33.42.002.724 0 1.396.049 1.392-1.026-.023-6.249-.011-12.499-.011-19.364-1.663 1.694-2.946 2.938-4.151 4.253-.711.776-1.474 1.081-2.549 1.076-9.077-.044-18.154.004-27.231-.045-2.433-.013-4.377-1.236-5.769-3.168-.482-.669-1.054-1.193-1.665-1.798" fill="#1a5bc0"/><path d="m59.521 308.279v-3.267c0-.6-.492-1.092-1.092-1.092h-18.365c-.601 0-1.092.492-1.092 1.092v3.267c0 .601.491 1.092 1.092 1.092h18.365c.6 0 1.092-.491 1.092-1.092"/><path d="m27.84 317.28c1.943 0 3.519-1.575 3.519-3.519 0-1.943-1.576-3.519-3.519-3.519s-3.519 1.576-3.519 3.519c0 1.944 1.576 3.519 3.519 3.519" fill="#164489"/><path d="m226.455 301.833v-.748c0-.197-.161-.357-.357-.357h-2.657c-.196 0-.357.16-.357.357v.748c0 .196.161.357.357.357h2.657c.196 0 .357-.161.357-.357" fill="#a6724f"/><path d="m242.675 317.445c-.495 0-.899.405-.899.899v8.551c0 .495.404.899.899.899s.899-.404.899-.899v-8.551c0-.494-.404-.899-.899-.899" fill="#901909"/><path d="m257.75 306.569v-35.092c0-.835-.683-1.518-1.518-1.518h-8.456c-.835 0-1.518.683-1.518 1.518v35.092c0 .835.683 1.518 1.518 1.518h8.456c.835 0 1.518-.683 1.518-1.518" fill="#625b65"/><path d="m269.672 307.837v-40.074c0-.806-.659-1.465-1.465-1.465h-6.562c-.806 0-1.465.659-1.465 1.465v40.074c0 .806.659 1.465 1.465 1.465h6.562c.806 0 1.465-.659 1.465-1.465m-25.611.511v-40.003c0-.825-.675-1.5-1.5-1.5h-6.955c-.825 0-1.5.675-1.5 1.5v40.003c0 .825.675 1.5 1.5 1.5h6.955c.825 0 1.5-.675 1.5-1.5" fill="#8a828d"/><path d="m258.634 311.906c0-.869-.711-1.581-1.581-1.581h-9.35c-.869 0-1.581.712-1.581 1.581s.712 1.581 1.581 1.581h9.35c.87 0 1.581-.712 1.581-1.581" fill="#901909"/><path d="m273.23 308.221v-28.071c0-.305-.249-.554-.554-.554s-.554.249-.554.554v28.071c0 .305.249.554.554.554s.554-.249.554-.554m10.642-9.338c0-.74-.605-1.345-1.345-1.345h-3.782c-.739 0-1.345.605-1.345 1.345s.606 1.345 1.345 1.345h3.782c.74 0 1.345-.606 1.345-1.345" fill="#850f01"/><path d="m289.059 291.059v-1.29c0-.299-.245-.544-.544-.544h-3.732c-.299 0-.544.245-.544.544v1.29c0 .299.245.544.544.544h3.732c.299 0 .544-.245.544-.544m30.002.023v-1.29c0-.299-.245-.544-.544-.544h-3.732c-.299 0-.544.245-.544.544v1.29c0 .299.245.544.544.544h3.732c.299 0 .544-.245.544-.544" fill="#a6724f"/><path d="m114.962 292.589c.777-4.589 1.859-5.652 5.36-5.429 2.083.133 3.579 1.662 3.692 3.774.168 3.174-.991 4.63-4.233 5.169 1.491 1.658 3.393 2.676 5.037 4.006.593.479 1.176.512 1.713-.316 1.392-2.143 2.874-4.23 4.353-6.316.748-1.056.652-1.791-.491-2.546-1.841-1.216-3.56-2.615-5.374-3.875-1.301-.903-1.117-2.169-.895-3.392 1.406-7.763 3.505-15.321 6.554-22.619 1.238-2.964 3.922-4.172 6.361-5.627 1.211-.722 2.203.497 2.934 1.427 1.578 2.008 3.076 4.079 4.626 6.11.244.32.588.799.881.796.525-.005.598-.617.741-1.059.106-.328.243-.645.355-.971 1.479-4.3.67-6.521-2.792-9.563-2.677-2.353-5.678-3.106-9.104-3.177-2.964-.061-5.921-.66-8.883-.667-2.718-.006-5.242 1.221-7.637 2.374-1.01.487-.909 2.232-1.11 3.429-.082.484.488 1.137 1.332.849.652-.223 1.357-.309 1.989-.572 3.868-1.611 3.922-.645 6.513 1.959 1.872 1.881 1.787 3.803 1.128 6.223-1.311 4.814-2.572 9.587-5.268 13.88-.838 1.332-1.664 2.169-3.293 1.906-.272-.044-.566.038-.835-.013-2.294-.431-3.438.61-4.382 2.703-2.142 4.751-2.669 4.809-5.989.973-2.258-2.61-5.029-3.683-8.381-3.676-10.611.019-21.223.056-31.833-.038-1.898-.017-2.418.566-2.299 2.37.146 2.224.078 4.467.017 6.699-.029 1.071.107 1.512 1.424 1.501 10.052-.081 20.122-.391 30.149.113 4.301.216 8.625.49 12.941.736 1.876.107 2.913 1.989 4.699 2.859" fill="#0d418d"/><path d="m100.549 310.163c0 5.582.04 11.164-.029 16.745-.017 1.362.373 1.886 1.756 1.757 1.106-.104 2.231-.021 3.347-.021 5.825.001 5.735-.068 9.276-4.775 1.99-2.645 4.611-4.834 6.455-7.561 2.225-3.289 3.184-6.741 2.279-11.144-1.022-4.966-5.071-6.138-8.003-8.751-1.631-1.453-3.543-2.591-5.322-3.879-.689-.499-1.413-.799-2.298-.78-1.952.043-3.911.093-5.859-.014-1.332-.073-1.64.43-1.627 1.677.058 5.582.025 11.164.025 16.746" fill="#1a5bc0"/><path d="m44.661 321.52c-5.516 0-11.032-.038-16.547.019-2.222.022-4.163-.756-6.059-1.743-.699-.365-1.121-.958-1.201-1.825-.158-1.715-1.239-1.988-2.806-1.938-3.836.121-7.68.079-11.519.016-1.171-.019-1.576.32-1.551 1.526.071 3.419.073 6.842-.001 10.262-.027 1.236.258 1.847 1.607 1.654 1.606-.229 1.818.748 1.802 2.052-.009.687-.476 1.772.453 2.011.937.242 2.34.64 2.955-.282 2.173-3.252 5.404-2.515 8.456-2.524 1.463-.004 2.74-.025 3.949-1.278 1.327-1.376.903-2.859.87-4.3-.034-1.506.305-2.272 1.941-1.98.271.048.563.044.836 0 2.076-.335 3.149.331 2.727 2.619-.268 1.452.178 2.055 1.859 2.04 9.773-.088 19.549-.082 29.323-.004 1.596.012 1.979-.448 1.954-1.99-.069-4.334.003-4.335-4.386-4.335z" fill="#1761cf"/><path d="m95.042 310.233c.019-5.499.013-10.999.078-16.498.013-1.151-.312-1.578-1.522-1.571-7.519.046-15.039.046-22.558 0-1.21-.007-1.535.42-1.521 1.571.064 5.499.058 10.999.078 16.498.662.901 1.648.952 2.625.961 6.732.064 13.463.064 20.194 0 .977-.009 1.964-.06 2.626-.961" fill="#417099"/><path d="m43.338 301.404c4.254 0 8.509-.03 12.763.02 1.061.013 1.775-.392 2.577-1.05 3.736-3.069 5.727-6.713 5.065-11.769-.395-3.017-.064-6.128-.083-9.196-.003-.586.214-1.4-.695-1.491-.835-.084-.839.686-1.008 1.261-.815 2.778-1.709 5.534-2.457 8.329-1.412 5.275-4.794 8.683-10.611 8.506-7.665-.233-15.342-.061-23.014-.049-.534.001-1.264-.26-1.559.227-.362.595.214 1.205.536 1.695 1.541 2.341 3.616 3.633 6.561 3.546 3.972-.117 7.95-.029 11.925-.029" fill="#0d418d"/><path d="m35.821 279.615c-3.486-.001-6.974.052-10.458-.026-1.398-.032-1.998.325-1.952 1.849.1 3.274.062 6.554.015 9.83-.017 1.162.209 1.787 1.586 1.777 7.182-.052 14.364-.051 21.546 0 1.338.009 1.644-.538 1.624-1.741-.054-3.346-.065-6.694.004-10.04.027-1.291-.441-1.692-1.697-1.67-3.555.062-7.112.022-10.668.021" fill="#0d418d"/><path d="m143.684 268.307c.044-.664-.222-1.194-.621-1.719-1.263-1.662-2.477-3.361-3.722-5.037-1.847-2.487-4.308-2.342-5.449.616-2 5.182-4.358 10.266-5.251 15.823-.077.479-.187.955-.301 1.428-1.224 5.081-1.199 5.045 2.97 8.132 1.261.933 2.099.723 2.959-.447 1.415-1.928 2.223-4.171 3.328-6.259 1.823-3.449 3.629-6.907 5.436-10.364.355-.68.714-1.365.651-2.173" fill="#471308"/><path d="m69.599 317.3c-.02 2.925-.011 5.85-.075 8.774-.022.981.292 1.333 1.302 1.329 7.662-.032 15.325-.032 22.988 0 1.009.004 1.323-.348 1.301-1.329-.064-2.924-.055-5.849-.075-8.774-.663-.9-1.649-.95-2.626-.959-6.73-.064-13.459-.064-20.189 0-.977.009-1.963.059-2.626.959" fill="#578ea5"/><path d="m69.599 317.3h25.441c.001-2.356.002-4.711.002-7.067h-25.445c.001 2.356.001 4.711.002 7.067" fill="#abe2f7"/><path d="m19.245 298.707c.001-1.809.016-3.619-.01-5.428-.007-.519.139-1.105-.543-1.43-1.783-.846-5.942.214-7.024 1.852-1.329 2.013-2.641 4.038-3.94 6.071-1.104 1.726-.545 3.647-.566 5.49-.009.777.703.737 1.251.739 3.132.011 6.263-.023 9.394.024 1.09.016 1.48-.405 1.452-1.473-.051-1.947-.015-3.896-.014-5.845" fill="#0d418d"/><path d="m51.102 292.643c3.39-.964 4.562-3.595 5.379-6.307 1.308-4.345 2.259-8.799 4.037-13 .415-.981.485-1.734-.995-1.699-2.435.056-4.872.034-7.308.005-.766-.009-1.129.201-1.126 1.048.023 6.591.013 13.181.013 19.953" fill="#a19c96"/><path d="m113.457 331.15c5.096-.034 9.564.761 13.558 3.371 1.318.862 2.674-.047 3.981-.116 1.31-.069 2.684-.25 4.592-.447-2.205-1.245-3.914-2.315-5.716-3.193-1.573-.767-2.547-1.757-2.538-3.625.004-.868-.248-1.772-.547-2.601-.893-2.473-4.116-3.195-5.919-1.316-2.395 2.496-4.728 5.051-7.411 7.927" fill="#1761cf"/><path d="m125.153 260.308c-.018-1.788-2.142-3.32-3.857-2.782-3.144.985-3.138.985-3.148 4.32-.012 3.958.226 7.93-.772 11.831-.133.518-.47 1.332.366 1.633.673.241 1.35.106 1.899-.486 1.757-1.896 5.54-11.807 5.512-14.516" fill="#471308"/><path d="m44.258 269.778c.197.606.372 1.197.58 1.776 1.087 3.03 1.09 3.03-2.24 3.031-4.883 0-9.766.01-14.648-.006-2.199-.007-2.39-.319-1.493-2.266.174-.378.421-.729.553-1.12.16-.474.836-1.025.248-1.439-.563-.396-1.488-.415-1.87.284-.917 1.681-2.158 3.257-1.958 5.381.081.862.372 1.257 1.256 1.256 7.394-.011 14.788-.004 22.181-.009.414 0 1.026.031 1.108-.389.294-1.504.55-3.097-.392-4.445-.764-1.092-1.235-2.877-3.325-2.054" fill="#8a1001"/><path d="m12.537 308.948c-1.955 0-3.912.06-5.863-.022-1.219-.051-1.707.246-1.709 1.602-.003 3.448-.079 3.448 3.4 3.448 3.351 0 6.702-.044 10.051.023 1.218.024 1.878-.244 1.683-1.604-.069-.479-.069-.984 0-1.463.214-1.503-.262-2.151-1.911-2.019-1.872.15-3.766.035-5.651.035" fill="#1a5bc0"/><path d="m100.518 330.795h-32.776c-.062 1.127.603 1.223 1.45 1.211 2.298-.031 4.601.08 6.893-.039 1.71-.089 2.512.452 2.262 2.232-.058.41-.035.837.001 1.252.033.376-.191.932.367 1.029.248.043.729-.237.823-.48.852-2.189 3.191-2.382 4.772-3.577.978-.738 2.41-.85 3.311-.082 1.772 1.509 3.52.656 5.272.321 2.534-.484 5.043-1.101 7.563-1.661.02-.069.041-.137.062-.206" fill="#1761cf"/><path d="m35.778 269.559c-1.673 0-3.347-.018-5.02.011-.519.009-1.154-.193-1.46.494-.444.997-1.561 1.967-1.156 2.975.281.702 1.64.266 2.512.274 3.556.034 7.113.071 10.666-.032.734-.021 2.279.83 2.159-.748-.098-1.279-.387-3.024-2.472-2.981-1.741.036-3.485.007-5.229.007" fill="#0d418d"/><path d="m38.749 330.74c.426 1.325 1.277 1.261 2.121 1.26 7.316-.006 14.632.009 21.949-.027.568-.003 1.623.482 1.599-.66-.021-.938-.972-.552-1.504-.554-8.01-.028-16.019-.019-24.165-.019" fill="#1761cf"/><path d="m68.222 310.233v-17.621c-1.287.784-1.676 1.778-1.648 3.169.099 4.816.07 9.635.089 14.452.52.457 1.039.457 1.559 0" fill="#417099"/><path d="m88.026 335.825c-.128-1.548-.764-2.208-2.034-2.144-1.424.072-2.245 1.137-1.703 2.206 1.252 2.468.518 5 .751 7.488.079.85-.248 2.04 1.147 1.962 1.198-.068.882-1.163.955-1.951.245-2.625-.768-5.384.884-7.561" fill="#1761cf"/><path d="m97.556 310.233c.019-5.563.045-11.126.043-16.69 0-.487.248-1.277-.613-1.277-.861.001-.613.79-.613 1.277-.002 5.564.024 11.127.043 16.69.38.312.76.312 1.14 0" fill="#417099"/><path d="m66.665 317.3c-.02 2.921-.049 5.842-.051 8.763-.001.577-.201 1.314.828 1.314s.829-.737.829-1.314c-.002-2.921-.032-5.842-.052-8.763-.518-.457-1.036-.457-1.554 0" fill="#578ea5"/><path d="m2.03 320.423c0-.901.019-1.803-.006-2.704-.018-.629-.462-.778-1.002-.779-.538 0-.995.144-1.003.775-.024 1.802-.021 3.606-.016 5.409.003.746.485.893 1.119.88.596-.013.907-.287.915-.876.011-.902.003-1.803.003-2.705z" fill="#334877"/><path d="m96.419 317.3c-.02 2.922-.054 5.843-.045 8.764.001.482-.274 1.267.613 1.267.886-.001.611-.785.613-1.267.008-2.921-.026-5.843-.046-8.764-.378-.31-.757-.31-1.135 0" fill="#578ea5"/><path d="m66.665 317.3h1.554c.001-2.356.002-4.711.003-7.067h-1.559c.001 2.356.001 4.711.002 7.067m29.754 0h1.135c.001-2.356.002-4.711.002-7.067h-1.139c.001 2.356.001 4.711.002 7.067" fill="#abe2f7"/><path d="m324.333 323.445c.664-.671.372-1.521.374-2.287.023-8.996.036-17.992-.019-26.987-.005-.882.694-2.327-.946-2.519-1.132-.132-2.668-.672-2.9 1.419-.082.742-.871.833-1.546.831-1.767-.004-3.534-.001-5.301-.004-.577 0-1.344-.042-1.427-.637-.309-2.198-1.925-1.67-3.263-1.675-5.462-.019-10.924.001-16.386-.014-1.073-.003-2.086-.103-2.27 1.408-.091.739-.803.92-1.498.918-1.686-.003-3.373-.001-5.06-.004-.594-.001-1.283-.133-1.367-.744-.294-2.111-1.87-1.455-3.116-1.577-1.434-.14-2.2.194-2.173 1.919.025 1.618.765 1.873 2.078 1.81 1.122-.055 2.258-.092 3.371.025 2.038.215 3.182 1.406 3.285 3.472.1 1.994-1.245 3.548-3.233 3.792-.475.058-.963.02-1.444.022-4.005.021-4.005.02-4.005 4.14 0 4.98.018 9.96-.012 14.94-.007 1.16.058 2.013 1.602 2.008 14.938-.053 29.876-.062 44.815-.091.149-.001.297-.109.446-.167-.809-.538-1.716-.256-2.571-.258-12.831-.021-25.662-.015-38.493-.015 12.83 0 25.66-.006 38.49.016.854.001 1.761-.284 2.569.259" fill="#c01d08"/><path d="m162.725 260.681c1.243 4.736 4.563 8.149 7.463 11.85 6.231 7.952 13.239 15.198 20.189 22.5.329.345.61.74.895 1.125 2.368 3.203 4.295 3.16 6.393-.35 2.119-3.547 3.267-7.433 3.518-11.587.059-.963-.591-1.109-1.12-1.269-4.116-1.248-6.278-4.176-7.094-8.22-.299-1.484-1.103-2.595-2.068-3.666-4.343-4.824-4.916-11.094-6.463-16.982-.561-2.131-1.664-3.589-3.93-3.963-4.503.287-9.006.421-13.505-.069-3.797 1.425-5.682 4.856-4.539 8.262.791.712.456 1.548.261 2.369" fill="#1a5bc0"/><path d="m239.415 323.868c0-.643.011-1.286-.002-1.929-.027-1.363.327-2.908-.2-4.043-.68-1.463-2.466-.362-3.712-.722-.154-.044-.359-.03-.457-.127-3.147-3.135-6.848-1.928-10.374-1.169-7.614 1.638-15.282 3.216-22.566 5.974-5.05 1.913-8.015 6.414-10.743 10.873-1.307 2.137-1.975 4.522-2.335 7.016-.298 2.066.458 2.065 2.104 1.497 4.741-1.635 9.485-3.293 14.316-4.626 7.317-2.018 14.936-2.389 22.381-3.737 2.902-.525 5.827-.925 8.734-1.432 1.913-.333 3.261-1.11 2.891-3.482-.208-1.334-.037-2.727-.037-4.093" fill="#c01d08"/><path d="m278.919 276.609c.679.662 1.529.338 2.291.339 13.584.023 27.169.011 40.753.026 1.391.001 2.725.014 3.73-1.201.64-.772 1.593-.65 2.473-.654 2.17-.009 4.342-.064 6.51.009 1.476.049 2.011-.591 1.984-2-.045-2.411-.038-4.823-.003-7.234.019-1.323-.53-1.833-1.875-1.831-16.157.029-32.314.026-48.47.008-1.115-.002-1.774.448-2.243 1.437-1.683 3.554-3.415 7.085-5.128 10.625.831.46 1.734.228 2.6.229 13.102.017 26.204.008 39.306.021.787.001 1.597-.165 2.474.178.21.031-.287.254-.124-.023.043-.072-.026-.122-.207-.123-14.465-.086-28.931-.032-43.397-.032-.26 0-.457.129-.674.226" fill="#8a1001"/><path d="m208.934 280.842c-2.872.905-3.548 3.131-3.892 5.845-.936 7.384-3.71 13.618-10.964 17.074-9.337 4.447-18.588 9.074-27.86 13.657-.744.367-1.594.565-2.027 1.537-1.288 2.887-.433 4.422 2.702 4.26 3.264-.169 6.514-.606 9.774-.882.927-.079 1.377-.762 1.941-1.305 2.293-2.203 4.951-3.434 8.197-3.363 3.133.069 6.284-.176 9.401.062 4.061.31 7.694-1.001 11.356-2.374 2.019-.232 2.201-1.515 2.186-3.267-.082-9.55-.032-19.102-.051-28.653-.002-.914.334-1.978-.763-2.591" fill="#c01d08"/><path d="m300.888 279.158c-6.993 0-13.987.053-20.978-.036-1.895-.024-2.608.582-2.452 2.485.137 1.677-.039 3.377.055 5.06.052.916-.57 2.431 1.048 2.462 1.339.025 3.135 1.07 3.98-.999.377-.922 1.099-1.081 1.942-1.084 1.447-.005 2.894-.027 4.34.014.465.013 1.238.073 1.339.326 1.146 2.841 3.593 1.779 5.559 1.826 4.659.112 9.323.041 13.985.032 1.168-.003 2.439.274 2.825-1.441.158-.705.982-.743 1.634-.749 1.687-.013 3.375-.01 5.063.003.761.006 1.481.167 1.698 1.033.418 1.664 1.731 1.137 2.754 1.073 1.339-.084 1.003-1.237 1.025-2.05.049-1.767-.075-3.543.042-5.303.132-1.985-.643-2.705-2.639-2.683-7.073.08-14.147.031-21.22.031" fill="#971a09"/><path d="m223.257 273.24c2.008 0 4.022-.087 6.024.026 1.734.098 2.554-.439 2.392-2.295-.118-1.355.051-2.733-.034-4.094-.113-1.814.723-2.429 2.445-2.35 1.844.084 3.698-.05 5.542.033 1.516.067 2.2-.434 2.146-2.049-.089-2.648-.072-5.302-.005-7.952.036-1.435-.497-2.022-1.959-2.002-4.016.054-8.034.029-12.05.012-.922-.003-1.776.194-2.475.777-3.196 2.663-6.369 5.354-9.552 8.033-.424.357-.957.635-.957 1.297-.004 3.132-.02 6.264.006 9.396.009 1.159.913 1.151 1.729 1.156 2.249.013 4.499.004 6.748.004zm20.95-9.17c.942.613 2.261.842 2.11 2.467-.083.894.608 1.233 1.433 1.235 2.807.007 5.614-.006 8.421.014 1.103.008 1.607-.49 1.597-1.594-.008-.922.416-1.597 1.404-1.597 4.005.002 8.01.042 12.015.101.286.005.567.279.85.428 1.209.066.824-.862.857-1.453.118-2.103-.161-4.217.167-6.315-1.255-1.333-2.517-2.66-3.764-4.001-.527-.567-1.167-.78-1.927-.778-7.346.011-14.693.006-22.039.033-.362.001-.723.255-1.085.392.292 3.69.381 7.38-.039 11.068" fill="#8a1001"/><path d="m272.183 314.725c-3.261 4.402-7.859 2.847-12.132 2.71-.625-.021-1.245-.181-1.866-.277-3.294-.041-6.589.043-9.88-.041-1.444-.037-2.057.412-1.955 1.922.106 1.563.024 3.138.024 4.331-.207-1.833.336-4.073-.252-6.269-.653 3.485-.161 7.002-.278 10.502-.056 1.639 1.091 1.304 1.986 1.025 2.348-.733 4.667-1.562 6.998-2.353 5.2-.487 10.414-.182 15.618-.155 2.007.01 2.656-.543 2.501-2.539-.173-2.235-.025-4.494-.047-6.742-.008-.768.239-1.654-.717-2.114" fill="#c01d08"/><path d="m214.344 278.06c-.029 6.803-.038 13.605-.104 20.407-.013 1.342.506 1.989 1.829 1.791 1.735-.26 3.772.882 5.101-1.409.571-.986 6.802-.595 7.489.315.389.515.565 1.231 1.38.992.976-.286.576-1.175.655-1.832.038-.312-.039-.637-.063-.955-.227-.249-.459-.49-.749-.667-2.507-1.28-5.117-2.352-7.587-3.707-.64-.351-1.652-.529-1.004-1.674.177-.272.336-.549.414-.864-.044-1.234-.476-2.526.552-3.6.03-1.058-.782-1.499-1.489-2.012-.626-.454-1.517-.682-1.421-1.725.021-.423.091-.835.275-1.218.718-1.112 1.551-.435 2.284-.091 1.863.873 3.683 1.832 5.48 2.841 1.008.566 2.153 1.371 3.294.125-.203-2.407.596-4.875-.446-7.23-3.148.609-6.328.105-9.488.277-2.133.117-4.284-.274-6.402.236" fill="#971a09"/><path d="m214.25 308.582c.19 1.453-.782 3.737.454 4.797 1.15.986 3.153-.429 4.796-.695 3.298-.534 6.565-1.26 9.86-1.816.848-.143 1.348-.352 1.34-1.285-.016-1.927.006-3.855-.012-5.782-.005-.465.005-1.012-.656-1.095-.51-.064-.816.166-1.18.582-1.545 1.765-6.521 1.566-8.302-.024-1.582-1.412-3.671-.689-5.475-.493-1.437.155-.688 1.705-.8 2.639-.114.95-.025 1.924-.025 3.172" fill="#aa1804"/><path d="m182.204 297.483c-.641 0-1.286.049-1.922-.008-4.466-.397-5.361 2.457-4.962 6.198.188 1.765 2.957 3.206 4.723 2.414 2.919-1.308 5.745-2.823 8.619-4.233.95-.466.894-.885.405-1.84-1.558-3.049-4.252-2.586-6.863-2.531" fill="#891001"/><path d="m278.311 271.573c1.027-2.046 2.063-4.087 3.074-6.142.319-.648.368-1.209-.583-1.401-1.137-.229-1.858-1.177-3.063-1.96v9.348c.19.052.381.103.572.155" fill="#860f01"/><path d="m278.919 276.609h44.108c.001-.159.001-.318.002-.476h-44.088c-.007.158-.015.317-.022.476" fill="#8e1001"/><path d="m208.934 280.842c.423.978.532 2.007.531 3.06-.003 9.31-.03 18.62.029 27.93.01 1.631-.477 2.791-1.932 3.521 1.732.261 2.558-.176 2.537-2.235-.104-10.151-.028-20.305-.096-30.457-.004-.603.906-2.198-1.069-1.819" fill="#c51e08"/><path d="m246.123 317.101v9.859l.498.016c0-2.226.064-4.455-.019-6.678-.074-1.981.8-2.66 2.733-2.711 2.95-.077 5.943.526 8.85-.429-4.017-.705-8.039-.577-12.062-.057" fill="#c41e08"/><path d="m273.061 257.356c-.661 1.625-.319 3.331-.389 5.001-.041.969-.047 1.93-.636 2.767v11.945c1.397-1.614 1.8-14.682 1.025-19.713" fill="#8f1101"/><path d="m272.183 314.725c.907 3.137.436 6.339.382 9.512-.026 1.534-1.33 1.573-2.482 1.576-4.07.012-8.14.008-12.21.013-1.036.001-2.082-.055-3.045.449 5.603.032 11.206.041 16.808.113 1.242.016 1.709-.442 1.69-1.676-.046-3.122.006-6.245-.026-9.368-.007-.705.204-2.138-1.117-.619" fill="#c51e08"/><path d="m204.161 274.263c-2.11.285-3.059 1.629-3.778 3.254-.471 1.064.391 1.206 1.026 1.413.558.183 1.669.345 1.471-.378-.473-1.729 1.006-2.706 1.281-4.289" fill="#850f01"/><path d="m214.344 278.06c4.292.001 8.584.002 12.876.001 1.033 0 2.075.042 3.014-.514-4.82-.038-9.64-.082-14.46-.104-.539-.002-1.159-.061-1.43.617" fill="#9c1b09"/><path d="m167.003 250.05c4.497.881 9 .741 13.505.069-4.5-.406-9.002-.271-13.505-.069" fill="#1b5ec7"/><path d="m244.207 264.07c.78-3.687.727-7.376.039-11.068-.293 3.688-.225 7.378-.039 11.068" fill="#8f1101"/><path d="m162.725 260.681c.46-.85.437-1.647-.261-2.369.048.794-.18 1.618.261 2.369" fill="#1b5ec8"/><path d="m324.333 323.445c-.799-.455-1.676-.513-2.567-.513-13.896.002-27.791.001-41.687.007-.305 0-.611.064-.907.504h45.166z" fill="#c61e08"/><path d="m172.319 260.446c1.109-.369 2.244-.238 3.376-.183m12.548 26.956c.962.573 1.926.57 2.892.012-.962-.387-1.926-.37-2.892-.012" fill="#1b5ec7"/><path d="m322.548 279.596h-43.324c-.001.079-.001.158-.002.236h43.332c-.002-.078-.004-.157-.006-.236" fill="#9b1b09"/><path d="m243.244 309.412c.948-4.584.268-9.214.389-13.822" fill="#8e8691"/><path d="m345.34 301.329v-4.893c0-1.629-1.333-2.963-2.963-2.963s-2.963 1.334-2.963 2.963v4.893c0 1.63 1.333 2.963 2.963 2.963s2.963-1.333 2.963-2.963" fill="#aa1907"/><path d="m336.661 322.541v-43.099c0-1-.818-1.818-1.818-1.818h-6.067c-1 0-1.818.818-1.818 1.818v43.099c0 1 .818 1.818 1.818 1.818h6.067c1 0 1.818-.818 1.818-1.818" fill="#aa1804"/><path d="m329.794 332.139v-3.847c0-.241-.197-.438-.439-.438h-1.958c-.242 0-.439.197-.439.438v3.847c0 .241.197.439.439.439h1.958c.242 0 .439-.198.439-.439m-49.456 2.03v-5.788c0-.29-.238-.528-.528-.528h-1.78c-.29 0-.528.238-.528.528v5.788c0 .29.238.528.528.528h1.78c.29 0 .528-.238.528-.528" fill="#bd1d08"/><path d="m269.118 312.378h-29.05c-.305 0-.555.249-.555.554s.25.554.555.554h29.05c.305 0 .554-.249.554-.554s-.249-.554-.554-.554" fill="#901909"/><path d="m269.672 294.898v-7.098h-9.492v7.098zm-25.625 0v-7.098h-9.927v7.098z" fill="#e7e7b2"/><path d="m230.7 297.188v-18.776c0-.551-.45-1.001-1-1.001h-14.356c-.55 0-1 .45-1 1.001v18.776c0 .55.45 1 1 1h14.356c.55 0 1-.45 1-1" fill="#971a09"/><path d="m229.491 283.178c.153-.363-.018-.786-.382-.939l-7.636-3.224c-.363-.153-.785.019-.939.382-.153.363.019.786.382.939l7.636 3.224c.363.153.786-.019.939-.382m0 2.328c.153-.363-.018-.786-.382-.939l-10.109-4.268c-.363-.153-.786.019-.939.382s.018.786.382.939l10.109 4.268c.363.153.786-.019.939-.382m0 2.402c.153-.363-.018-.786-.382-.939l-10.856-4.583c-.363-.153-.786.018-.939.382-.153.363.018.786.382.939l10.856 4.583c.363.153.786-.019.939-.382"/><path d="m175.647 265.687c1.782 0 3.227-1.445 3.227-3.227s-1.445-3.227-3.227-3.227-3.227 1.445-3.227 3.227 1.445 3.227 3.227 3.227" fill="#0f1522"/><path d="m175.695 264.7c1.237 0 2.24-1.003 2.24-2.24s-1.003-2.24-2.24-2.24-2.24 1.003-2.24 2.24 1.003 2.24 2.24 2.24" fill="#ab7551"/><path d="m189.42 286.321c1.782 0 3.227-1.445 3.227-3.227s-1.445-3.227-3.227-3.227-3.227 1.445-3.227 3.227 1.445 3.227 3.227 3.227" fill="#0f1522"/><path d="m189.469 285.334c1.237 0 2.24-1.003 2.24-2.24s-1.003-2.24-2.24-2.24-2.24 1.003-2.24 2.24 1.003 2.24 2.24 2.24" fill="#ab7551"/><path d="m30.229 312.194c-.173-.239-.51-.294-.749-.121l-3.476 2.506c-.24.172-.294.509-.122.748.173.24.51.294.749.122l3.477-2.506c.239-.173.294-.51.121-.749"/><path d="m56.565 306.605c0-.317-.26-.577-.577-.577h-12.464c-.317 0-.577.26-.577.577s.26.577.577.577h12.464c.317 0 .577-.26.577-.577" fill="#2f4678"/><path d="m101.725 283.625c0-1.908-1.561-3.469-3.469-3.469h-7.324c-1.908 0-3.469 1.561-3.469 3.469s1.561 3.469 3.469 3.469h7.324c1.908 0 3.469-1.561 3.469-3.469"/><path d="m93.438 285.231c0-.459-.376-.835-.835-.835h-1.863c-.459 0-.835.376-.835.835s.376.835.835.835h1.863c.459 0 .835-.376.835-.835" fill="#0d418d"/><path d="m28.967 289.502c1.759 0 3.186-1.426 3.186-3.186 0-1.759-1.427-3.186-3.186-3.186s-3.186 1.427-3.186 3.186c0 1.76 1.427 3.186 3.186 3.186" fill="#060a11"/><path d="m28.468 288.542c.699.439 1.754.02 2.355-.936.601-.957.521-2.089-.178-2.528" fill="#2c4e7e"/><path d="m41.923 289.502c1.759 0 3.186-1.426 3.186-3.186 0-1.759-1.427-3.186-3.186-3.186s-3.186 1.427-3.186 3.186c0 1.76 1.427 3.186 3.186 3.186" fill="#060a11"/><path d="m44.096 284.65c-.173-.239-.509-.294-.749-.121l-3.476 2.506c-.24.172-.294.509-.122.748.173.24.51.294.749.122l3.477-2.506c.239-.173.294-.51.121-.749" fill="#2c4e7e"/></g></svg>