<?xml version="1.0" encoding="utf-8"?>
<!-- Generator: Adobe Illustrator 23.0.3, SVG Export Plug-In . SVG Version: 6.00 Build 0)  -->
<svg version="1.1" id="Layer_1" xmlns="http://www.w3.org/2000/svg" xmlns:xlink="http://www.w3.org/1999/xlink" x="0px" y="0px"
	 viewBox="0 0 241.4 149.6" style="enable-background:new 0 0 241.4 149.6;" xml:space="preserve">
<style type="text/css">
	.st0{fill:url(#SVGID_1_);}
	.st1{fill:url(#SVGID_2_);}
	.st2{fill:url(#SVGID_3_);}
	.st3{fill:url(#SVGID_4_);}
	.st4{fill:url(#SVGID_5_);}
	.st5{fill:url(#SVGID_6_);}
	.st6{fill:url(#SVGID_7_);}
	.st7{fill:url(#SVGID_8_);}
	.st8{fill:url(#SVGID_9_);}
	.st9{fill:url(#SVGID_10_);}
	.st10{fill:#232323;}
	.st11{fill:url(#SVGID_11_);}
	.st12{fill:url(#SVGID_12_);}
	.st13{fill:url(#SVGID_13_);}
	.st14{fill:url(#SVGID_14_);}
	.st15{fill:url(#SVGID_15_);}
	.st16{fill:url(#SVGID_16_);}
	.st17{fill:url(#SVGID_17_);}
	.st18{fill:url(#SVGID_18_);}
	.st19{fill:url(#SVGID_19_);}
	.st20{fill:url(#SVGID_20_);}
	.st21{fill:url(#SVGID_21_);}
	.st22{fill:url(#SVGID_22_);}
	.st23{fill:url(#SVGID_23_);}
	.st24{fill:url(#SVGID_24_);}
	.st25{fill:url(#SVGID_25_);}
	.st26{fill:#1A1A1A;}
	.st27{fill:url(#SVGID_26_);}
	.st28{fill:url(#SVGID_27_);}
	.st29{fill:url(#SVGID_28_);}
	.st30{fill:url(#SVGID_29_);}
	.st31{fill:url(#SVGID_30_);}
	.st32{fill:url(#SVGID_31_);}
	.st33{fill:url(#SVGID_32_);}
	.st34{fill:url(#SVGID_33_);}
	.st35{fill:url(#SVGID_34_);}
	.st36{fill:#B3B3B3;}
	.st37{fill:url(#SVGID_35_);}
	.st38{fill:url(#SVGID_36_);}
	.st39{fill:url(#SVGID_37_);}
	.st40{fill:url(#SVGID_38_);}
	.st41{fill:url(#SVGID_39_);}
	.st42{fill:url(#SVGID_40_);}
	.st43{fill:url(#SVGID_41_);}
	.st44{fill:url(#SVGID_42_);}
	.st45{fill:url(#SVGID_43_);}
	.st46{fill:url(#SVGID_44_);}
	.st47{fill:#E295DD;}
	.st48{fill:#3DD3C8;}
	.st49{fill:#F36070;}
	.st50{fill:url(#SVGID_45_);}
	.st51{fill:url(#SVGID_46_);}
	.st52{fill:url(#SVGID_47_);}
	.st53{fill:url(#SVGID_48_);}
	.st54{fill:#2E90D7;}
	.st55{fill:#94B8F2;}
	.st56{fill:url(#SVGID_49_);}
	.st57{fill:#1B1B1C;}
	.st58{fill:url(#SVGID_50_);}
	.st59{fill:url(#SVGID_51_);}
</style>
<linearGradient id="SVGID_1_" gradientUnits="userSpaceOnUse" x1="-233.423" y1="279.6262" x2="-232.423" y2="279.6262" gradientTransform="matrix(-3.532800e-09 78.6875 78.6875 3.532800e-09 -21882.416 18390.7324)">
	<stop  offset="0" style="stop-color:#1A1A1A"/>
	<stop  offset="0.541" style="stop-color:#25272C"/>
	<stop  offset="1" style="stop-color:#30353E"/>
</linearGradient>
<path class="st0" d="M132.1,98h-23.5c-0.3,1.3-0.8,2.7-1.4,3.9h26.2C132.9,100.7,132.4,99.4,132.1,98 M171.9,23.3h-43.1
	c-0.3,0.5-0.8,0.8-1.3,0.8h-14.3c-0.6,0-1-0.3-1.3-0.8H69.5c2.7,1.8,5.3,3.9,7.5,6.3h87.5C166.6,27.1,169.1,25,171.9,23.3"/>
<linearGradient id="SVGID_2_" gradientUnits="userSpaceOnUse" x1="-233.8585" y1="280.1448" x2="-232.8585" y2="280.1448" gradientTransform="matrix(-3.074712e-09 68.4843 68.4843 3.074712e-09 -19064.8535 16045.1865)">
	<stop  offset="0" style="stop-color:#282828"/>
	<stop  offset="0" style="stop-color:#282828"/>
	<stop  offset="0" style="stop-color:#282828"/>
	<stop  offset="4.000000e-03" style="stop-color:#404649"/>
	<stop  offset="7.000001e-03" style="stop-color:#525B61"/>
	<stop  offset="1.000000e-02" style="stop-color:#5C686F"/>
	<stop  offset="1.300000e-02" style="stop-color:#606C74"/>
	<stop  offset="2.100000e-02" style="stop-color:#505A63"/>
	<stop  offset="3.200000e-02" style="stop-color:#424952"/>
	<stop  offset="4.500000e-02" style="stop-color:#383E47"/>
	<stop  offset="6.400000e-02" style="stop-color:#323740"/>
	<stop  offset="0.117" style="stop-color:#30353E"/>
	<stop  offset="0.884" style="stop-color:#1A1A1A"/>
	<stop  offset="0.937" style="stop-color:#1B1C1C"/>
	<stop  offset="0.956" style="stop-color:#212223"/>
	<stop  offset="0.97" style="stop-color:#2A2D2E"/>
	<stop  offset="0.981" style="stop-color:#373C3F"/>
	<stop  offset="0.991" style="stop-color:#485055"/>
	<stop  offset="0.999" style="stop-color:#5D6870"/>
	<stop  offset="1" style="stop-color:#606C74"/>
</linearGradient>
<path class="st1" d="M113.9,76.7l0-0.2c0-4.3,3.5-7.7,7.8-7.6c4.2,0,7.6,3.4,7.6,7.6l0,0.2l0,0.2c0,4.3-3.4,7.7-7.7,7.7
	c-4.3,0-7.7-3.4-7.7-7.7L113.9,76.7 M164.4,29.6H76.9c6.2,6.7,10,15.7,10,25.6c0,4.5-0.8,8.8-2.2,12.8c0.2,0,0.4,0,0.7,0
	c13.3,0,24.1,10.8,24.1,24.1c0,2-0.3,4-0.8,6h23.5c-0.5-2-0.8-4-0.8-6c0-13.3,10.8-24.1,24.1-24.1c0.4,0,0.9,0,1.3,0
	c-1.5-4.1-2.2-8.5-2.2-12.8C154.5,45.3,158.2,36.3,164.4,29.6"/>
<radialGradient id="SVGID_3_" cx="-237.9994" cy="281.2604" r="1" gradientTransform="matrix(-20.8473 39.0436 22.9967 12.2791 -11394.7715 5936.4326)" gradientUnits="userSpaceOnUse">
	<stop  offset="0" style="stop-color:#30353E"/>
	<stop  offset="1" style="stop-color:#1A1A1A"/>
</radialGradient>
<path class="st2" d="M12.1,45.7C6.6,75.8,3,108,0.3,122.1c-2.8,14.5,12.2,27.5,26.8,27.5c7.6,0,15.2-3.6,20-12.4
	C53.3,126,59.9,113,64.4,104c-2.1-3.6-3.2-7.8-3.2-12c0-0.3,0-0.7,0-1c-4,1.4-8.1,2-12.3,2c-20.9,0-37.9-17-37.9-37.9
	c0-3.2,0.4-6.3,1.2-9.3L12.1,45.7"/>
<linearGradient id="SVGID_4_" gradientUnits="userSpaceOnUse" x1="-255.6356" y1="306.0883" x2="-254.6356" y2="306.0883" gradientTransform="matrix(-4.108218e-10 9.1504 9.1504 4.108218e-10 -2609.5815 2339.168)">
	<stop  offset="0" style="stop-color:#23262A"/>
	<stop  offset="1" style="stop-color:#606C74"/>
</linearGradient>
<path class="st3" d="M174.7,9.1h33.2l-2.6-4.3c-1.7-2.8-6.1-4.9-14-4.9c-7.8,0-12.3,2.1-14,4.9L174.7,9.1z"/>
<linearGradient id="SVGID_5_" gradientUnits="userSpaceOnUse" x1="-255.6356" y1="306.0882" x2="-254.6356" y2="306.0882" gradientTransform="matrix(-4.108218e-10 9.1504 9.1504 4.108218e-10 -2751.9336 2339.168)">
	<stop  offset="0" style="stop-color:#23262A"/>
	<stop  offset="1" style="stop-color:#606C74"/>
</linearGradient>
<path class="st4" d="M32.3,9.1h33.2l-2.6-4.3C61.2,2.1,56.7,0,48.9,0s-12.3,2.1-14,4.9L32.3,9.1z"/>
<radialGradient id="SVGID_6_" cx="-214.8427" cy="289.2867" r="1" gradientTransform="matrix(17.4997 0 0 -17.4997 3808.5793 5078.1167)" gradientUnits="userSpaceOnUse">
	<stop  offset="0" style="stop-color:#30353E"/>
	<stop  offset="0.459" style="stop-color:#25272C"/>
	<stop  offset="1" style="stop-color:#1A1A1A"/>
</radialGradient>
<path class="st5" d="M69.7,29C68,18,67.3,12.5,66.5,8.5c-0.8-4.1-7.7-6.1-17.6-6.1c-9.9,0-16.8,2.1-17.6,6.1
	C30.5,12.5,29.7,18,28,29"/>
<radialGradient id="SVGID_7_" cx="-214.8427" cy="289.2867" r="1" gradientTransform="matrix(17.4997 0 0 -17.4997 3950.9321 5078.1157)" gradientUnits="userSpaceOnUse">
	<stop  offset="0" style="stop-color:#30353E"/>
	<stop  offset="0.459" style="stop-color:#25272C"/>
	<stop  offset="1" style="stop-color:#1A1A1A"/>
</radialGradient>
<path class="st6" d="M212.1,29c-1.7-11-2.5-16.5-3.3-20.5c-0.8-4.1-7.7-6.1-17.6-6.1s-16.8,2.1-17.6,6.1c-0.8,4.1-1.6,9.5-3.3,20.5"
	/>
<radialGradient id="SVGID_8_" cx="-229.4154" cy="285.3349" r="1" gradientTransform="matrix(36.9664 32.5903 25.453 -28.8708 1278.2653 15781.2344)" gradientUnits="userSpaceOnUse">
	<stop  offset="0" style="stop-color:#444D56"/>
	<stop  offset="0.294" style="stop-color:#30353E"/>
	<stop  offset="0.601" style="stop-color:#23262A"/>
	<stop  offset="1" style="stop-color:#1A1A1A"/>
</radialGradient>
<path class="st7" d="M85.3,110.6c-10.3,0-18.6-8.3-18.6-18.6c0-10.3,8.3-18.6,18.6-18.6s18.6,8.3,18.6,18.6
	C103.9,102.3,95.6,110.6,85.3,110.6 M49,17.3c-17.7,0-32.6,12.2-36.8,28.6c-0.8,3-1.2,6.2-1.2,9.3c0,20.9,17,37.9,37.9,37.9
	c4.3,0,8.4-0.7,12.3-2c0,0.3,0,0.7,0,1c0,4.2,1.1,8.3,3.2,12c4.2,7.2,11.9,12.1,20.9,12.1c9.7,0,18.1-5.8,21.9-14.1
	c1.4-3.1,2.1-6.5,2.1-9.9c0-13.3-10.8-24.1-24.1-24.1c-0.2,0-0.4,0-0.7,0c1.5-4.1,2.2-8.4,2.2-12.8c0-9.9-3.8-18.9-10-25.6
	c-2.2-2.4-4.7-4.5-7.5-6.3C63.3,19.3,56.2,17.2,49,17.3"/>
<radialGradient id="SVGID_9_" cx="-232.1676" cy="289.5708" r="1" gradientTransform="matrix(20.8485 39.0457 22.9979 -12.2798 -1612.7383 12718.7207)" gradientUnits="userSpaceOnUse">
	<stop  offset="0" style="stop-color:#30353E"/>
	<stop  offset="1" style="stop-color:#1A1A1A"/>
</radialGradient>
<path class="st8" d="M229.2,45.7l-0.1,0.1c0.8,3,1.2,6.2,1.2,9.3c0,20.9-17,37.9-37.9,37.9c-4.6,0-8.9-0.8-13-2.3c0,0.4,0,0.8,0,1.2
	c0,4-1,7.9-2.8,11.4c4.5,9,11.3,22.4,17.6,33.9c4.8,8.8,12.4,12.4,20,12.4c14.6,0,29.6-13,26.8-27.5
	C238.3,108.5,234.7,75.8,229.2,45.7"/>
<linearGradient id="SVGID_10_" gradientUnits="userSpaceOnUse" x1="-265.001" y1="317.245" x2="-264.001" y2="317.245" gradientTransform="matrix(-2.993031e-10 6.6665 6.6665 2.993031e-10 -2016.4756 1822.3169)">
	<stop  offset="0" style="stop-color:#444D56"/>
	<stop  offset="0.155" style="stop-color:#565E66"/>
	<stop  offset="0.464" style="stop-color:#84898E"/>
	<stop  offset="0.896" style="stop-color:#CDCECF"/>
	<stop  offset="1" style="stop-color:#E0E0E0"/>
</linearGradient>
<path class="st9" d="M94.2,55.7h8.5c0.9,0,1.6,0.7,1.6,1.6v3.5c0,0.9-0.7,1.6-1.6,1.6l0,0h-8.5c-0.9,0-1.6-0.7-1.6-1.6v-3.5
	C92.6,56.4,93.3,55.7,94.2,55.7z"/>
<path class="st10" d="M94.2,55.7v0.3h8.5c0.7,0,1.3,0.6,1.3,1.3v3.5c0,0.7-0.6,1.3-1.3,1.3h-8.5c-0.7,0-1.3-0.6-1.3-1.3v-3.5
	c0-0.7,0.6-1.3,1.3-1.3v-0.5c-1,0-1.8,0.8-1.8,1.8c0,0,0,0,0,0v3.5c0,1,0.8,1.8,1.8,1.8c0,0,0,0,0,0h8.5c1,0,1.8-0.8,1.8-1.8v-3.5
	c0-1-0.8-1.8-1.8-1.8l0,0h-8.5V55.7z"/>
<linearGradient id="SVGID_11_" gradientUnits="userSpaceOnUse" x1="-264.3966" y1="316.5259" x2="-263.3967" y2="316.5259" gradientTransform="matrix(-3.046368e-10 6.7853 6.7853 3.046368e-10 -2006.4088 1849.6399)">
	<stop  offset="0" style="stop-color:#444D56"/>
	<stop  offset="0.155" style="stop-color:#565E66"/>
	<stop  offset="0.464" style="stop-color:#84898E"/>
	<stop  offset="0.896" style="stop-color:#CDCECF"/>
	<stop  offset="1" style="stop-color:#E0E0E0"/>
</linearGradient>
<path class="st11" d="M146.3,59l-8.5,3.3c-0.8,0.3-1.6-0.7-1.6-1.6v-3.5c0-0.9,0.8-1.9,1.6-1.6L146.3,59z"/>
<path class="st10" d="M146.3,59l-0.1-0.2l-8.5,3.3l-0.2,0c-0.2,0-0.5-0.2-0.7-0.4c-0.2-0.3-0.3-0.6-0.3-0.9v-3.5
	c0-0.3,0.1-0.7,0.3-0.9c0.2-0.3,0.5-0.4,0.7-0.4l0.2,0l8.5,3.3L146.3,59l-0.1-0.2L146.3,59l0.1-0.2l-8.5-3.3
	c-0.1-0.1-0.3-0.1-0.4-0.1c-0.5,0-0.8,0.3-1.1,0.6c-0.3,0.4-0.4,0.8-0.4,1.2v3.5c0,0.4,0.2,0.9,0.4,1.2c0.3,0.4,0.6,0.6,1.1,0.6
	c0.1,0,0.3,0,0.4-0.1L147,59l-0.6-0.2L146.3,59L146.3,59z"/>
<linearGradient id="SVGID_12_" gradientUnits="userSpaceOnUse" x1="-225.6072" y1="280.2512" x2="-224.6072" y2="280.2512" gradientTransform="matrix(56 0 0 -56 12654.7842 15748.7422)">
	<stop  offset="0" style="stop-color:#23262A"/>
	<stop  offset="0.478" style="stop-color:#1A1A1A"/>
	<stop  offset="0.738" style="stop-color:#1B1C1C"/>
	<stop  offset="0.832" style="stop-color:#202123"/>
	<stop  offset="0.899" style="stop-color:#282B2E"/>
	<stop  offset="0.952" style="stop-color:#343A3F"/>
	<stop  offset="0.998" style="stop-color:#434C55"/>
	<stop  offset="1" style="stop-color:#444D56"/>
</linearGradient>
<path class="st12" d="M41,26.7c-1.5,0-2.8,1.2-2.8,2.8v14.7H23.5c-1.5,0-2.8,1.2-2.8,2.8v15.6c0,1.5,1.2,2.8,2.8,2.8h14.7v14.7
	c0,1.5,1.2,2.8,2.8,2.8c0,0,0,0,0,0h15.6c1.5,0,2.8-1.2,2.8-2.8V65.3H74c1.5,0,2.8-1.2,2.8-2.8V46.9c0-1.5-1.2-2.8-2.8-2.8H59.3
	V29.4c0-1.5-1.2-2.8-2.8-2.8L41,26.7L41,26.7z"/>
<radialGradient id="SVGID_13_" cx="-237.7209" cy="276.7277" r="1" gradientTransform="matrix(-35.8679 34.0373 25.6982 27.0802 -15457.1621 664.2343)" gradientUnits="userSpaceOnUse">
	<stop  offset="0" style="stop-color:#444D56"/>
	<stop  offset="0.294" style="stop-color:#30353E"/>
	<stop  offset="0.601" style="stop-color:#23262A"/>
	<stop  offset="1" style="stop-color:#1A1A1A"/>
</radialGradient>
<path class="st13" d="M155.4,110.6c-10.3,0-18.6-8.3-18.6-18.6c0-10.3,8.3-18.6,18.6-18.6c10.3,0,18.6,8.3,18.6,18.6
	C173.9,102.3,165.6,110.6,155.4,110.6 M192.4,17.3c-7.3,0-14.4,2.1-20.5,6c-2.7,1.8-5.3,3.9-7.5,6.3c-6.2,6.7-10,15.7-10,25.6
	c0,4.5,0.8,8.8,2.2,12.8c-0.4,0-0.9,0-1.3,0c-13.3,0-24.1,10.8-24.1,24.1c0,3.4,0.7,6.8,2.1,9.9c3.8,8.3,12.2,14.1,21.9,14.1
	c9.2,0,17.2-5.1,21.2-12.7c1.9-3.5,2.9-7.4,2.8-11.4c0-0.4,0-0.8,0-1.2c4.2,1.5,8.6,2.3,13,2.3c20.9,0,37.9-17,37.9-37.9
	c0-3.2-0.4-6.3-1.2-9.3C225,29.4,210.1,17.3,192.4,17.3"/>
<linearGradient id="SVGID_14_" gradientUnits="userSpaceOnUse" x1="-166.5" y1="199.9044" x2="-165.5002" y2="199.9044" gradientTransform="matrix(1.613494e-10 -3.5938 -3.5938 -1.613494e-10 767.1988 -565.1608)">
	<stop  offset="0" style="stop-color:#1A1A1A"/>
	<stop  offset="0.541" style="stop-color:#25272C"/>
	<stop  offset="1" style="stop-color:#30353E"/>
</linearGradient>
<path class="st14" d="M48.8,29.6L45,33.2h7.6L48.8,29.6z"/>
<linearGradient id="SVGID_15_" gradientUnits="userSpaceOnUse" x1="-166.5" y1="199.9044" x2="-165.5" y2="199.9044" gradientTransform="matrix(1.613494e-10 -3.5938 -3.5938 -1.613494e-10 767.1988 -518.6248)">
	<stop  offset="0" style="stop-color:#1A1A1A"/>
	<stop  offset="0.541" style="stop-color:#25272C"/>
	<stop  offset="1" style="stop-color:#30353E"/>
</linearGradient>
<path class="st15" d="M48.8,79.7L45,76.1h7.6L48.8,79.7z"/>
<linearGradient id="SVGID_16_" gradientUnits="userSpaceOnUse" x1="-200.1064" y1="239.9365" x2="-199.1064" y2="239.9365" gradientTransform="matrix(3.397505e-10 -7.5674 -7.5674 -3.397505e-10 1887.7456 -1455.823)">
	<stop  offset="0" style="stop-color:#1A1A1A"/>
	<stop  offset="0.541" style="stop-color:#25272C"/>
	<stop  offset="1" style="stop-color:#30353E"/>
</linearGradient>
<path class="st16" d="M73.8,54.7l-3.6-3.8v7.6L73.8,54.7z"/>
<linearGradient id="SVGID_17_" gradientUnits="userSpaceOnUse" x1="-200.1064" y1="239.9365" x2="-199.1064" y2="239.9365" gradientTransform="matrix(3.397505e-10 -7.5674 -7.5674 -3.397505e-10 1841.2096 -1455.823)">
	<stop  offset="0" style="stop-color:#1A1A1A"/>
	<stop  offset="0.541" style="stop-color:#25272C"/>
	<stop  offset="1" style="stop-color:#30353E"/>
</linearGradient>
<path class="st17" d="M23.7,54.7l3.6-3.8v7.6L23.7,54.7z"/>
<linearGradient id="SVGID_18_" gradientUnits="userSpaceOnUse" x1="-250.8316" y1="300.3646" x2="-249.8315" y2="300.3646" gradientTransform="matrix(-5.078927e-10 11.3125 11.3125 5.078927e-10 -3337.3633 2886.6011)">
	<stop  offset="0" style="stop-color:#23262A"/>
	<stop  offset="1" style="stop-color:#606C74"/>
</linearGradient>
<path class="st18" d="M58.1,49.1c-0.3,0-0.6,0.2-0.8,0.5L53.8,54c-0.3,0.4-0.3,1,0,1.4l3.5,4.5c0.2,0.3,0.6,0.5,0.9,0.5l8.1,0
	c0.7,0,1.2-0.5,1.2-1.2c0,0,0,0,0,0v-8.8c0-0.6-0.5-1.2-1.2-1.2l-8.1-0.2L58.1,49.1L58.1,49.1z"/>
<linearGradient id="SVGID_19_" gradientUnits="userSpaceOnUse" x1="-250.8316" y1="300.3645" x2="-249.8314" y2="300.3645" gradientTransform="matrix(-5.078927e-10 11.3125 11.3125 5.078927e-10 -3360.8193 2886.511)">
	<stop  offset="0" style="stop-color:#23262A"/>
	<stop  offset="1" style="stop-color:#606C74"/>
</linearGradient>
<path class="st19" d="M39.5,49c0.3,0,0.6,0.2,0.8,0.5l3.5,4.4c0.3,0.4,0.3,1,0,1.4l-3.5,4.5c-0.2,0.3-0.6,0.5-0.9,0.5l-8.1,0
	c-0.7,0-1.2-0.5-1.2-1.2c0,0,0,0,0,0v-8.8c0-0.6,0.5-1.2,1.2-1.2l8.1-0.2L39.5,49L39.5,49z"/>
<linearGradient id="SVGID_20_" gradientUnits="userSpaceOnUse" x1="-246.9348" y1="295.7234" x2="-245.9348" y2="295.7234" gradientTransform="matrix(-6.283143e-10 13.9947 13.9947 6.283143e-10 -4089.8232 3515.1875)">
	<stop  offset="0" style="stop-color:#23262A"/>
	<stop  offset="1" style="stop-color:#606C74"/>
</linearGradient>
<path class="st20" d="M54.4,64c0-0.3-0.2-0.6-0.5-0.8l-4.4-3.5c-0.4-0.3-1-0.3-1.4,0l-4.5,3.5c-0.3,0.2-0.5,0.6-0.5,0.9l0,8.1
	c0,0.7,0.5,1.2,1.2,1.2c0,0,0,0,0,0H53c0.6,0,1.2-0.5,1.2-1.2l0.2-8.1L54.4,64L54.4,64z"/>
<linearGradient id="SVGID_21_" gradientUnits="userSpaceOnUse" x1="-246.9347" y1="295.7232" x2="-245.9347" y2="295.7232" gradientTransform="matrix(-6.283143e-10 13.9947 13.9947 6.283143e-10 -4089.7332 3491.7295)">
	<stop  offset="0" style="stop-color:#23262A"/>
	<stop  offset="1" style="stop-color:#606C74"/>
</linearGradient>
<path class="st21" d="M54.5,45.4c0,0.3-0.2,0.6-0.5,0.8l-4.4,3.5c-0.4,0.3-1,0.3-1.4,0l-4.5-3.5c-0.3-0.2-0.5-0.6-0.5-0.9l0-8.1
	c0-0.7,0.5-1.2,1.2-1.2c0,0,0,0,0,0h8.8c0.6,0,1.2,0.5,1.2,1.2l0.2,8.1L54.5,45.4L54.5,45.4z"/>
<linearGradient id="SVGID_22_" gradientUnits="userSpaceOnUse" x1="-260.4794" y1="311.8593" x2="-259.4794" y2="311.8593" gradientTransform="matrix(-3.444422e-10 7.6719 7.6719 3.444422e-10 -2343.5435 2005.2098)">
	<stop  offset="0" style="stop-color:#30353E"/>
	<stop  offset="0.378" style="stop-color:#3F474F"/>
	<stop  offset="1" style="stop-color:#606C74"/>
</linearGradient>
<path class="st22" d="M46.6,6.8h1v6.8h3.7v0.9h-4.8V6.8"/>
<linearGradient id="SVGID_23_" gradientUnits="userSpaceOnUse" x1="-260.4794" y1="311.8594" x2="-259.4794" y2="311.8594" gradientTransform="matrix(-3.444422e-10 7.6719 7.6719 3.444422e-10 -2200.0254 2005.2098)">
	<stop  offset="0" style="stop-color:#30353E"/>
	<stop  offset="0.378" style="stop-color:#3F474F"/>
	<stop  offset="1" style="stop-color:#606C74"/>
</linearGradient>
<path class="st23" d="M193.2,10.9c0.2,0.1,0.4,0.2,0.6,0.5c0.2,0.2,0.4,0.6,0.6,1l1.1,2.1h-1.1l-1-2c-0.3-0.5-0.5-0.9-0.7-1
	c-0.2-0.2-0.6-0.3-1-0.3h-1.1v3.2h-1V6.8h2.3c0.9,0,1.5,0.2,2,0.6s0.6,0.9,0.6,1.7c0,0.5-0.1,0.9-0.3,1.2
	C193.9,10.6,193.6,10.8,193.2,10.9 M190.6,7.7v2.7h1.3c0.5,0,0.9-0.1,1.1-0.3c0.3-0.2,0.4-0.6,0.4-1s-0.1-0.8-0.4-1
	c-0.3-0.2-0.6-0.3-1.1-0.3L190.6,7.7"/>
<linearGradient id="SVGID_24_" gradientUnits="userSpaceOnUse" x1="-297.107" y1="355.4917" x2="-296.107" y2="355.4917" gradientTransform="matrix(-1.550324e-10 3.4531 3.4531 1.550324e-10 -1128.4509 1075.7433)">
	<stop  offset="0" style="stop-color:#9BA2A6"/>
	<stop  offset="0.311" style="stop-color:#ADB2B5"/>
	<stop  offset="0.93" style="stop-color:#DADBDB"/>
	<stop  offset="1" style="stop-color:#E0E0E0"/>
</linearGradient>
<path class="st24" d="M92.8,50v0.4c-0.2-0.1-0.3-0.1-0.5-0.2c-0.2,0-0.3-0.1-0.4-0.1c-0.2,0-0.4,0-0.6,0.1c-0.1,0.1-0.2,0.2-0.2,0.4
	c0,0.1,0,0.3,0.1,0.3c0.1,0.1,0.3,0.1,0.5,0.2l0.3,0.1c0.3,0.1,0.6,0.2,0.7,0.3c0.2,0.2,0.2,0.4,0.2,0.6c0,0.3-0.1,0.6-0.3,0.7
	c-0.2,0.2-0.5,0.3-0.9,0.3c-0.2,0-0.3,0-0.5-0.1c-0.2,0-0.4-0.1-0.6-0.2v-0.5c0.2,0.1,0.4,0.2,0.5,0.2c0.2,0.1,0.3,0.1,0.5,0.1
	c0.3,0,0.5-0.1,0.6-0.2c0.1-0.1,0.2-0.3,0.2-0.4c0-0.1,0-0.3-0.2-0.4c-0.1-0.1-0.3-0.2-0.5-0.2l-0.3-0.1c-0.3-0.1-0.6-0.2-0.7-0.3
	c-0.2-0.1-0.2-0.3-0.2-0.6c0-0.3,0.1-0.5,0.3-0.7c0.2-0.2,0.5-0.3,0.9-0.3c0.2,0,0.3,0,0.5,0S92.6,49.9,92.8,50 M93.7,49.9h2.1v0.4
	h-1.7v1h1.6v0.4h-1.6v1.2h1.7v0.4h-2.1L93.7,49.9 M96.6,49.9H97v2.9h1.6v0.4h-2.1V49.9 M99.1,49.9h2.1v0.4h-1.7v1h1.6v0.4h-1.6v1.2
	h1.7v0.4h-2.1L99.1,49.9 M104.5,50.1v0.5c-0.1-0.1-0.3-0.2-0.5-0.3c-0.2-0.1-0.4-0.1-0.5-0.1c-0.4,0-0.7,0.1-0.9,0.3
	c-0.2,0.2-0.3,0.6-0.3,1c0,0.4,0.1,0.8,0.3,1c0.2,0.2,0.5,0.3,0.9,0.3c0.2,0,0.4,0,0.5-0.1c0.2-0.1,0.3-0.2,0.5-0.3v0.5
	c-0.3,0.2-0.7,0.3-1.1,0.3c-0.5,0-0.9-0.2-1.2-0.5c-0.3-0.3-0.4-0.7-0.4-1.3c0-0.5,0.1-1,0.4-1.3c0.3-0.3,0.7-0.5,1.2-0.5
	C103.8,49.8,104.2,49.9,104.5,50.1 M104.7,49.9h2.8v0.4h-1.2v2.9h-0.5v-2.9h-1.2L104.7,49.9"/>
<linearGradient id="SVGID_25_" gradientUnits="userSpaceOnUse" x1="-297.1067" y1="355.4921" x2="-296.1071" y2="355.4921" gradientTransform="matrix(-1.550324e-10 3.4531 3.4531 1.550324e-10 -1087.1249 1075.7433)">
	<stop  offset="0" style="stop-color:#9BA2A6"/>
	<stop  offset="0.311" style="stop-color:#ADB2B5"/>
	<stop  offset="0.93" style="stop-color:#DADBDB"/>
	<stop  offset="1" style="stop-color:#E0E0E0"/>
</linearGradient>
<path class="st25" d="M135.7,50v0.4c-0.2-0.1-0.3-0.1-0.5-0.2s-0.3-0.1-0.4-0.1c-0.2,0-0.4,0-0.6,0.1c-0.1,0.1-0.2,0.2-0.2,0.4
	c0,0.1,0,0.3,0.1,0.3c0.1,0.1,0.3,0.1,0.5,0.2l0.3,0.1c0.3,0.1,0.6,0.2,0.7,0.3c0.2,0.2,0.2,0.4,0.2,0.6c0,0.3-0.1,0.6-0.3,0.7
	c-0.2,0.2-0.5,0.3-0.9,0.3c-0.2,0-0.3,0-0.5-0.1c-0.2,0-0.4-0.1-0.6-0.2v-0.5c0.2,0.1,0.4,0.2,0.5,0.2c0.2,0.1,0.3,0.1,0.5,0.1
	c0.3,0,0.5-0.1,0.6-0.2c0.1-0.1,0.2-0.3,0.2-0.4c0-0.2-0.1-0.3-0.2-0.4c-0.1-0.1-0.3-0.2-0.5-0.2l-0.3-0.1c-0.3-0.1-0.6-0.2-0.7-0.3
	c-0.1-0.1-0.2-0.3-0.2-0.6c0-0.3,0.1-0.5,0.3-0.7c0.2-0.2,0.5-0.3,0.9-0.3c0.2,0,0.3,0,0.5,0C135.3,49.9,135.5,49.9,135.7,50
	 M136.1,49.9h2.8v0.4h-1.2v2.9h-0.5v-2.9h-1.2L136.1,49.9 M140.1,50.3l-0.6,1.7h1.2L140.1,50.3 M139.9,49.9h0.5l1.3,3.3h-0.5
	l-0.3-0.9h-1.5l-0.3,0.9h-0.5L139.9,49.9 M143.7,51.6c0.1,0,0.2,0.1,0.3,0.2c0.1,0.1,0.2,0.3,0.3,0.4l0.5,0.9h-0.5l-0.4-0.9
	c-0.1-0.2-0.2-0.4-0.3-0.4c-0.1-0.1-0.2-0.1-0.4-0.1h-0.5v1.4h-0.4v-3.3h1c0.4,0,0.7,0.1,0.9,0.2c0.2,0.2,0.3,0.4,0.3,0.7
	c0,0.2,0,0.4-0.1,0.5C144,51.5,143.9,51.6,143.7,51.6 M142.6,50.2v1.2h0.6c0.2,0,0.4-0.1,0.5-0.1c0.1-0.1,0.2-0.2,0.2-0.4
	s-0.1-0.3-0.2-0.4c-0.1-0.1-0.3-0.1-0.5-0.1L142.6,50.2 M144.5,49.9h2.8v0.4h-1.2v2.9h-0.5v-2.9h-1.2L144.5,49.9"/>
<path class="st26" d="M82.6,26.4v-2.7h2.1v2.7H82.6z M89.2,26.4v-2.7h2.1v2.7H89.2z M95,26.4v-2.7h2.1v2.7H95z"/>
<linearGradient id="SVGID_26_" gradientUnits="userSpaceOnUse" x1="-265.4705" y1="317.8041" x2="-264.4705" y2="317.8041" gradientTransform="matrix(-2.952804e-10 6.5769 6.5769 2.952804e-10 -1968.5244 1823.8367)">
	<stop  offset="0" style="stop-color:#23262A"/>
	<stop  offset="0.132" style="stop-color:#35373B"/>
	<stop  offset="0.394" style="stop-color:#636567"/>
	<stop  offset="0.76" style="stop-color:#ACADAE"/>
	<stop  offset="1" style="stop-color:#E0E0E0"/>
</linearGradient>
<path class="st27" d="M129.3,76.7c-0.1,4.2-3.7,7.6-8,7.4c-4-0.1-7.3-3.4-7.4-7.4l0,0.2c0,4.3,3.4,7.7,7.6,7.8s7.7-3.4,7.8-7.6
	c0-0.1,0-0.1,0-0.2L129.3,76.7"/>
<path class="st26" d="M129.3,76.5c0.1,4.2-3.3,7.8-7.6,7.8c-4.2,0.1-7.8-3.3-7.8-7.6c0-0.1,0-0.2,0-0.3c0.1-4.2,3.6-7.6,7.8-7.6
	C125.9,69,129.3,72.3,129.3,76.5"/>
<linearGradient id="SVGID_27_" gradientUnits="userSpaceOnUse" x1="-192.6083" y1="231.0035" x2="-191.6083" y2="231.0035" gradientTransform="matrix(2.725223e-10 -6.07 -6.07 -2.725223e-10 1523.8325 -1093.1359)">
	<stop  offset="0" style="stop-color:#23262A"/>
	<stop  offset="0.132" style="stop-color:#35373B"/>
	<stop  offset="0.394" style="stop-color:#636567"/>
	<stop  offset="0.76" style="stop-color:#ACADAE"/>
	<stop  offset="1" style="stop-color:#E0E0E0"/>
</linearGradient>
<path class="st28" d="M121.6,69.7c-3.5,0-6.4,2.9-6.4,6.4l0,0.2c0.1-3.5,3.1-6.3,6.6-6.2c3.4,0.1,6.1,2.8,6.2,6.2l0-0.2
	C128,72.6,125.2,69.7,121.6,69.7"/>
<linearGradient id="SVGID_28_" gradientUnits="userSpaceOnUse" x1="-249.749" y1="299.0753" x2="-248.749" y2="299.0753" gradientTransform="matrix(-5.364424e-10 11.9484 11.9484 5.364424e-10 -3451.8281 3054.4648)">
	<stop  offset="0" style="stop-color:#30353E"/>
	<stop  offset="0.521" style="stop-color:#1A1A1A"/>
	<stop  offset="0.741" style="stop-color:#1B1C1C"/>
	<stop  offset="0.821" style="stop-color:#212223"/>
	<stop  offset="0.877" style="stop-color:#2A2D2E"/>
	<stop  offset="0.922" style="stop-color:#373C3F"/>
	<stop  offset="0.961" style="stop-color:#485055"/>
	<stop  offset="0.995" style="stop-color:#5D6870"/>
	<stop  offset="1" style="stop-color:#606C74"/>
</linearGradient>
<path class="st29" d="M121.7,82.9L121.7,82.9L121.7,82.9 M122.1,73.7l-0.2,0.1c-0.1,0.1-0.1,0.2-0.1,0.3v0.8c0.2,0,0.4,0,0.6,0v-0.6
	C122.4,74,122.3,73.8,122.1,73.7 M121.6,70.1c-3.5,0-6.3,2.8-6.4,6.2l0,0.2c0,1.2,0.3,2.4,1,3.4c-0.1-0.3-0.2-0.7-0.2-1.1
	c0-1.9,1.8-3.4,4.2-3.9v-2.5c0.6,0.1,1.3,0.3,2.1,0.6c0.7,0.2,1.1,0.5,1.3,0.8c0.3,0.3,0.4,0.7,0.4,1.3c1.9,0.7,3.1,2,3.1,3.6
	c0,0.4-0.1,0.7-0.2,1.1c0.7-1,1-2.2,1-3.4l0-0.2C127.9,72.8,125.1,70.1,121.6,70.1"/>
<linearGradient id="SVGID_29_" gradientUnits="userSpaceOnUse" x1="-260.7687" y1="312.2028" x2="-259.7687" y2="312.2028" gradientTransform="matrix(-3.411467e-10 7.5985 7.5985 3.411467e-10 -2250.6309 2056.3804)">
	<stop  offset="0" style="stop-color:#30353E"/>
	<stop  offset="0.521" style="stop-color:#1A1A1A"/>
	<stop  offset="0.741" style="stop-color:#1B1C1C"/>
	<stop  offset="0.821" style="stop-color:#212223"/>
	<stop  offset="0.877" style="stop-color:#2A2D2E"/>
	<stop  offset="0.922" style="stop-color:#373C3F"/>
	<stop  offset="0.961" style="stop-color:#485055"/>
	<stop  offset="0.995" style="stop-color:#5D6870"/>
	<stop  offset="1" style="stop-color:#606C74"/>
</linearGradient>
<path class="st30" d="M121.9,77.4L121.9,77.4c0.7-0.3,1.3-0.4,1.9-0.4l0.2,0c0.5,0,0.9,0.1,1.4,0.2c0.5,0.2,0.8,0.4,0.8,0.6l0,0
	c0,0.2-0.2,0.4-0.7,0.6l-0.3,0.1l-2.1,0.8l-1.3,0.4v-0.9l2.3-0.8l0.5-0.2c0.2-0.1,0.3-0.1,0.3-0.2l0,0c0-0.1-0.1-0.1-0.2-0.1l-0.5,0
	l-0.3,0.1l-0.5,0.2l-1.4,0.5L121.9,77.4 M116.6,78.1c0-0.2,0.2-0.4,0.7-0.6l0.3-0.1l1.8-0.6l0.7-0.2v0.9l-1.5,0.5l-0.3,0.1
	c-0.1,0-0.2,0.1-0.3,0.1l0,0.1l0.1,0.1l0.5,0.1l0.5-0.1l0.3-0.1l0.7-0.2v0.8c-0.4,0.1-0.8,0.1-1.2,0.1c-0.5,0-0.9-0.1-1.4-0.2
	C117,78.6,116.7,78.4,116.6,78.1L116.6,78.1 M121.8,74.8v4.9l-1.5-0.5V75c-2.4,0.4-4.2,2-4.2,3.9c0,0.4,0.1,0.7,0.2,1.1
	c0.6,1.7,2.8,3,5.4,3h0c2.6,0,4.7-1.3,5.4-3c0.1-0.3,0.2-0.7,0.2-1.1c0-1.6-1.3-3-3.1-3.6l0,0.1c0,0.6-0.2,1-0.5,1.2
	c-0.2,0.1-0.3,0.2-0.5,0.2c-0.2,0-0.4-0.1-0.7-0.2v-1.7C122.2,74.9,122,74.8,121.8,74.8"/>
<linearGradient id="SVGID_30_" gradientUnits="userSpaceOnUse" x1="-249.749" y1="299.0752" x2="-248.749" y2="299.0752" gradientTransform="matrix(-5.364424e-10 11.9484 11.9484 5.364424e-10 -3451.2961 3054.4648)">
	<stop  offset="0" style="stop-color:#C0D4F8"/>
	<stop  offset="0.521" style="stop-color:#686868"/>
	<stop  offset="0.65" style="stop-color:#6B6B6B"/>
	<stop  offset="0.727" style="stop-color:#737373"/>
	<stop  offset="0.791" style="stop-color:#818181"/>
	<stop  offset="0.847" style="stop-color:#959595"/>
	<stop  offset="0.898" style="stop-color:#B0B0B0"/>
	<stop  offset="0.946" style="stop-color:#D0D0D0"/>
	<stop  offset="0.99" style="stop-color:#F5F5F5"/>
	<stop  offset="1" style="stop-color:#FFFFFF"/>
</linearGradient>
<path class="st31" d="M120.2,72.5V75c0.4-0.1,0.9-0.1,1.4-0.1l0.2,0v-0.8c0-0.2,0-0.3,0.1-0.3l0.2-0.1c0.2,0.1,0.3,0.3,0.3,0.6v0.6
	c0.6,0.1,1.2,0.2,1.7,0.4c0-0.6-0.1-1-0.4-1.3c-0.3-0.3-0.7-0.6-1.3-0.8C121.5,72.8,120.8,72.6,120.2,72.5"/>
<linearGradient id="SVGID_31_" gradientUnits="userSpaceOnUse" x1="-260.7687" y1="312.2029" x2="-259.7687" y2="312.2029" gradientTransform="matrix(-3.411467e-10 7.5985 7.5985 3.411467e-10 -2250.0989 2056.3804)">
	<stop  offset="0" style="stop-color:#C0D4F8"/>
	<stop  offset="0.521" style="stop-color:#686868"/>
	<stop  offset="0.65" style="stop-color:#6B6B6B"/>
	<stop  offset="0.727" style="stop-color:#737373"/>
	<stop  offset="0.791" style="stop-color:#818181"/>
	<stop  offset="0.847" style="stop-color:#959595"/>
	<stop  offset="0.898" style="stop-color:#B0B0B0"/>
	<stop  offset="0.946" style="stop-color:#D0D0D0"/>
	<stop  offset="0.99" style="stop-color:#F5F5F5"/>
	<stop  offset="1" style="stop-color:#FFFFFF"/>
</linearGradient>
<path class="st32" d="M122.4,74.9v1.7c0.2,0.1,0.5,0.2,0.7,0.2c0.2,0,0.4-0.1,0.5-0.2c0.3-0.2,0.5-0.6,0.5-1.2l0-0.1
	C123.6,75.1,123,74.9,122.4,74.9 M121.6,74.8c-0.5,0-0.9,0-1.4,0.1v4.3l1.5,0.5v-4.9L121.6,74.8"/>
<linearGradient id="SVGID_32_" gradientUnits="userSpaceOnUse" x1="-260.7687" y1="312.2029" x2="-259.7687" y2="312.2029" gradientTransform="matrix(-3.411467e-10 7.5985 7.5985 3.411467e-10 -2253.8889 2056.3804)">
	<stop  offset="0" style="stop-color:#C0D4F8"/>
	<stop  offset="0.521" style="stop-color:#686868"/>
	<stop  offset="0.65" style="stop-color:#6B6B6B"/>
	<stop  offset="0.727" style="stop-color:#737373"/>
	<stop  offset="0.791" style="stop-color:#818181"/>
	<stop  offset="0.847" style="stop-color:#959595"/>
	<stop  offset="0.898" style="stop-color:#B0B0B0"/>
	<stop  offset="0.946" style="stop-color:#D0D0D0"/>
	<stop  offset="0.99" style="stop-color:#F5F5F5"/>
	<stop  offset="1" style="stop-color:#FFFFFF"/>
</linearGradient>
<path class="st33" d="M120.1,76.5l-0.7,0.2l-1.8,0.6l-0.3,0.1c-0.5,0.2-0.7,0.4-0.7,0.6v0c0,0.3,0.3,0.5,0.9,0.6
	c0.5,0.1,0.9,0.2,1.4,0.2c0.4,0,0.8,0,1.2-0.1v-0.8l-0.7,0.2l-0.3,0.1l-0.5,0.1l-0.5-0.1l-0.1-0.1l0-0.1c0.1,0,0.2-0.1,0.3-0.1
	l0.3-0.1l1.5-0.5L120.1,76.5"/>
<linearGradient id="SVGID_33_" gradientUnits="userSpaceOnUse" x1="-260.7687" y1="312.2028" x2="-259.7687" y2="312.2028" gradientTransform="matrix(-3.411467e-10 7.5985 7.5985 3.411467e-10 -2248.207 2056.3804)">
	<stop  offset="0" style="stop-color:#C0D4F8"/>
	<stop  offset="0.521" style="stop-color:#686868"/>
	<stop  offset="0.65" style="stop-color:#6B6B6B"/>
	<stop  offset="0.727" style="stop-color:#737373"/>
	<stop  offset="0.791" style="stop-color:#818181"/>
	<stop  offset="0.847" style="stop-color:#959595"/>
	<stop  offset="0.898" style="stop-color:#B0B0B0"/>
	<stop  offset="0.946" style="stop-color:#D0D0D0"/>
	<stop  offset="0.99" style="stop-color:#F5F5F5"/>
	<stop  offset="1" style="stop-color:#FFFFFF"/>
</linearGradient>
<path class="st34" d="M124,77l-0.2,0c-0.6,0-1.3,0.2-1.9,0.4l0,0v0.9l1.4-0.5l0.5-0.2l0.3-0.1l0.5,0c0.1,0,0.2,0.1,0.2,0.1l0,0
	c0,0.1-0.1,0.1-0.3,0.2l-0.5,0.2l-2.3,0.8v0.9l1.3-0.4l2.1-0.8l0.3-0.1c0.5-0.2,0.7-0.4,0.7-0.6l0,0c0-0.2-0.3-0.4-0.8-0.6
	C125,77.1,124.5,77,124,77"/>
<linearGradient id="SVGID_34_" gradientUnits="userSpaceOnUse" x1="-267.0227" y1="319.655" x2="-266.0226" y2="319.655" gradientTransform="matrix(-2.827318e-10 6.2974 6.2974 2.827318e-10 -1892.3074 1704.8376)">
	<stop  offset="0" style="stop-color:#1A1A1A"/>
	<stop  offset="0.541" style="stop-color:#25272C"/>
	<stop  offset="1" style="stop-color:#30353E"/>
</linearGradient>
<path class="st35" d="M69.5,23.3l42.3,0c0.3,0.4,0.7,0.8,1.3,0.8h14.3c0.6,0,1.1-0.3,1.3-0.8h43.1c-2.8,1.8-5.3,3.9-7.5,6.3H76.9v0
	C74.7,27.2,72.2,25.1,69.5,23.3z"/>
<path class="st36" d="M100.8,27.2h0.4v1.1c0.1,0,0.2-0.1,0.4-0.1c0.2,0,0.3-0.1,0.5-0.1v0.2c-0.2,0-0.4,0.1-0.6,0.2
	c-0.1,0-0.3,0.1-0.4,0.2h-0.3L100.8,27.2L100.8,27.2z M93.9,27.3v-0.2h2.4l-0.1,0.1c-0.1,0.1-0.2,0.1-0.3,0.2
	c-0.2,0.1-0.4,0.1-0.6,0.2c-0.4,0.1-0.7,0.2-0.8,0.3c-0.1,0.1-0.2,0.1-0.2,0.2c0,0.1,0.1,0.1,0.2,0.2c0.2,0.1,0.3,0.1,0.5,0.1
	c0.2,0,0.4,0,0.5-0.1c0.1,0,0.2-0.1,0.2-0.2l0.5,0c0,0.1-0.1,0.2-0.3,0.3c-0.2,0.1-0.5,0.1-0.8,0.1c-0.3,0-0.6,0-0.8-0.1
	s-0.3-0.2-0.3-0.3L94,28c0.1-0.1,0.2-0.1,0.3-0.2c0.2-0.1,0.4-0.2,0.7-0.2c0.3-0.1,0.4-0.1,0.5-0.2l0.2-0.1L93.9,27.3L93.9,27.3z
	 M90.5,27.6l-0.4,0c-0.1-0.1-0.1-0.2-0.3-0.2c-0.1,0-0.3-0.1-0.4-0.1c-0.2,0-0.4,0-0.5,0.1s-0.2,0.1-0.2,0.2c0,0.1,0.1,0.1,0.2,0.2
	c0.1,0,0.3,0.1,0.5,0.1c0.1,0,0.2,0,0.3,0l0,0.1l-0.1,0c-0.2,0-0.3,0-0.5,0.1c-0.1,0-0.2,0.1-0.2,0.2c0,0.1,0.1,0.1,0.2,0.2
	s0.3,0.1,0.4,0.1c0.2,0,0.3,0,0.4-0.1s0.2-0.1,0.2-0.2l0.4,0c-0.1,0.1-0.2,0.2-0.4,0.3c-0.2,0.1-0.5,0.1-0.7,0.1c-0.2,0-0.4,0-0.5,0
	c-0.2,0-0.3-0.1-0.4-0.1l-0.1-0.2l0.1-0.2c0.1,0,0.2-0.1,0.4-0.1c-0.2,0-0.4-0.1-0.5-0.1s-0.2-0.1-0.2-0.2c0-0.1,0.1-0.2,0.3-0.3
	c0.2-0.1,0.5-0.1,0.9-0.1c0.3,0,0.6,0,0.8,0.1S90.5,27.5,90.5,27.6L90.5,27.6z M83.5,27.2v0.3H85v0.2l-1.6,0.9H83v-0.9h-0.5v-0.2H83
	v-0.3H83.5z M83.5,27.7v0.6l1.1-0.6H83.5z"/>
<linearGradient id="SVGID_35_" gradientUnits="userSpaceOnUse" x1="-659.6841" y1="787.4227" x2="-658.6841" y2="787.4227" gradientTransform="matrix(-2.406008e-11 0.5359 0.5359 2.406008e-11 -329.7639 378.7716)">
	<stop  offset="0" style="stop-color:#23262A"/>
	<stop  offset="0.132" style="stop-color:#35373B"/>
	<stop  offset="0.394" style="stop-color:#636567"/>
	<stop  offset="0.76" style="stop-color:#ACADAE"/>
	<stop  offset="1" style="stop-color:#E0E0E0"/>
</linearGradient>
<path class="st37" d="M82.9,25.8v-0.5h18.7v0.5H82.9z"/>
<linearGradient id="SVGID_36_" gradientUnits="userSpaceOnUse" x1="-392.2777" y1="468.8688" x2="-391.2777" y2="468.8688" gradientTransform="matrix(-6.382948e-11 1.4217 1.4217 6.382948e-11 -583.1869 582.5343)">
	<stop  offset="0" style="stop-color:#23262A"/>
	<stop  offset="0.132" style="stop-color:#35373B"/>
	<stop  offset="0.394" style="stop-color:#636567"/>
	<stop  offset="0.76" style="stop-color:#ACADAE"/>
	<stop  offset="1" style="stop-color:#E0E0E0"/>
</linearGradient>
<path class="st38" d="M82.9,26.4v-1.8h1.1v1.8H82.9z"/>
<linearGradient id="SVGID_37_" gradientUnits="userSpaceOnUse" x1="-392.2777" y1="468.8674" x2="-391.2777" y2="468.8674" gradientTransform="matrix(-6.382948e-11 1.4217 1.4217 6.382948e-11 -577.3109 582.5343)">
	<stop  offset="0" style="stop-color:#23262A"/>
	<stop  offset="0.132" style="stop-color:#35373B"/>
	<stop  offset="0.394" style="stop-color:#636567"/>
	<stop  offset="0.76" style="stop-color:#ACADAE"/>
	<stop  offset="1" style="stop-color:#E0E0E0"/>
</linearGradient>
<path class="st39" d="M88.7,26.4v-1.8h1.1v1.8H88.7z"/>
<linearGradient id="SVGID_38_" gradientUnits="userSpaceOnUse" x1="-392.2777" y1="468.8688" x2="-391.2777" y2="468.8688" gradientTransform="matrix(-6.382948e-11 1.4217 1.4217 6.382948e-11 -571.4389 582.5343)">
	<stop  offset="0" style="stop-color:#23262A"/>
	<stop  offset="0.132" style="stop-color:#35373B"/>
	<stop  offset="0.394" style="stop-color:#636567"/>
	<stop  offset="0.76" style="stop-color:#ACADAE"/>
	<stop  offset="1" style="stop-color:#E0E0E0"/>
</linearGradient>
<path class="st40" d="M94.6,26.4v-1.8h1.1v1.8H94.6z"/>
<linearGradient id="SVGID_39_" gradientUnits="userSpaceOnUse" x1="-392.2777" y1="468.8681" x2="-391.2777" y2="468.8681" gradientTransform="matrix(-6.382948e-11 1.4217 1.4217 6.382948e-11 -565.5629 582.5343)">
	<stop  offset="0" style="stop-color:#CA2228"/>
	<stop  offset="0.131" style="stop-color:#CC3439"/>
	<stop  offset="0.393" style="stop-color:#D16266"/>
	<stop  offset="0.757" style="stop-color:#DAABAD"/>
	<stop  offset="1" style="stop-color:#E0E0E0"/>
</linearGradient>
<path class="st41" d="M100.5,26.4v-1.8h1.1v1.8H100.5z"/>
<linearGradient id="SVGID_40_" gradientUnits="userSpaceOnUse" x1="-234.6048" y1="281.0343" x2="-233.6049" y2="281.0343" gradientTransform="matrix(-2.515614e-09 56.0313 56.0313 2.515614e-09 -15554.3457 13172.3594)">
	<stop  offset="0" style="stop-color:#23262A"/>
	<stop  offset="0.478" style="stop-color:#1A1A1A"/>
	<stop  offset="0.738" style="stop-color:#1B1C1C"/>
	<stop  offset="0.832" style="stop-color:#202123"/>
	<stop  offset="0.899" style="stop-color:#282B2E"/>
	<stop  offset="0.952" style="stop-color:#343A3F"/>
	<stop  offset="0.998" style="stop-color:#434C55"/>
	<stop  offset="1" style="stop-color:#444D56"/>
</linearGradient>
<path class="st42" d="M184.6,27.1c-1.5,0-2.8,1.2-2.8,2.8c0,0,0,0,0,0v14.7h-14.7c-1.5,0-2.8,1.2-2.8,2.8V63c0,1.5,1.2,2.8,2.8,2.8
	h14.7v14.7c0,1.5,1.2,2.8,2.8,2.8h15.6c1.5,0,2.8-1.2,2.8-2.8V65.7h14.7c1.5,0,2.8-1.2,2.8-2.8V47.4c0-1.5-1.2-2.8-2.8-2.8h-14.7
	V29.9c0-1.5-1.2-2.8-2.8-2.8L184.6,27.1L184.6,27.1z"/>
<linearGradient id="SVGID_41_" gradientUnits="userSpaceOnUse" x1="-244.4501" y1="292.7631" x2="-243.4501" y2="292.7631" gradientTransform="matrix(-7.402011e-10 16.4868 16.4868 7.402011e-10 -4634.354 4059.478)">
	<stop  offset="0" style="stop-color:#23262A"/>
	<stop  offset="1" style="stop-color:#606C74"/>
</linearGradient>
<path class="st43" d="M200.6,37.5c0,4.5-3.7,8.2-8.2,8.2s-8.2-3.7-8.2-8.2v0c0-4.5,3.8-8.2,8.3-8.2C196.9,29.4,200.6,33,200.6,37.5
	C200.6,37.5,200.6,37.5,200.6,37.5z"/>
<linearGradient id="SVGID_42_" gradientUnits="userSpaceOnUse" x1="-244.4506" y1="292.7635" x2="-243.4506" y2="292.7635" gradientTransform="matrix(-7.401786e-10 16.4863 16.4863 7.401786e-10 -4634.2144 4094.79)">
	<stop  offset="0" style="stop-color:#23262A"/>
	<stop  offset="1" style="stop-color:#606C74"/>
</linearGradient>
<path class="st44" d="M200.6,72.9c0,4.5-3.7,8.2-8.2,8.2c0,0,0,0,0,0c-4.5,0-8.2-3.7-8.2-8.2c0,0,0,0,0,0v0c0-4.5,3.8-8.2,8.3-8.2
	C196.9,64.8,200.6,68.4,200.6,72.9L200.6,72.9z"/>
<linearGradient id="SVGID_43_" gradientUnits="userSpaceOnUse" x1="-244.4507" y1="292.7631" x2="-243.4507" y2="292.7631" gradientTransform="matrix(-7.402011e-10 16.4868 16.4868 7.402011e-10 -4616.6421 4077.1921)">
	<stop  offset="0" style="stop-color:#23262A"/>
	<stop  offset="1" style="stop-color:#606C74"/>
</linearGradient>
<path class="st45" d="M201.8,55.2c0-4.5,3.7-8.2,8.2-8.2c0,0,0,0,0,0c4.5,0,8.2,3.7,8.2,8.2l0,0v0c0,4.5-3.8,8.2-8.3,8.2
	C205.5,63.3,201.9,59.7,201.8,55.2C201.8,55.2,201.8,55.2,201.8,55.2z"/>
<linearGradient id="SVGID_44_" gradientUnits="userSpaceOnUse" x1="-244.4501" y1="292.7631" x2="-243.4501" y2="292.7631" gradientTransform="matrix(-7.402011e-10 16.4868 16.4868 7.402011e-10 -4652.0664 4077.1921)">
	<stop  offset="0" style="stop-color:#23262A"/>
	<stop  offset="1" style="stop-color:#606C74"/>
</linearGradient>
<path class="st46" d="M166.4,55.2c0-4.5,3.8-8.2,8.3-8.2c4.5,0,8.1,3.7,8.2,8.1v0c0.1,4.5-3.6,8.3-8.1,8.3s-8.3-3.6-8.3-8.1
	C166.4,55.4,166.4,55.3,166.4,55.2L166.4,55.2L166.4,55.2z"/>
<path class="st47" d="M169.9,50.5V51h8.9v8.4h-8.4v-8.9H169.9V51V50.5h-0.5v9.9h10.4V50h-10.4v0.5H169.9z"/>
<path class="st48" d="M197.6,40.8v-0.5H188l4.4-7.6l4.8,8.3L197.6,40.8v-0.5V40.8l0.4-0.3l-5.7-9.8l-6.1,10.6h12.2l-0.4-0.8
	L197.6,40.8z"/>
<path class="st49" d="M204.4,55.2l0.5,0v0c0-2.8,2.3-5.1,5.1-5.1h0c2.8,0,5.1,2.3,5.1,5.1v0c0,2.8-2.3,5.1-5.1,5.1h0
	c-2.8,0-5.1-2.3-5.1-5.1v0L204.4,55.2h-0.5v0c0,3.4,2.8,6.1,6.1,6.1h0c3.4,0,6.1-2.8,6.1-6.1v0c0-3.4-2.8-6.1-6.1-6.1h0h0
	c-3.4,0-6.1,2.8-6.1,6.1v0v0L204.4,55.2L204.4,55.2z"/>
<linearGradient id="SVGID_45_" gradientUnits="userSpaceOnUse" x1="-263.9638" y1="316.0104" x2="-262.9638" y2="316.0104" gradientTransform="matrix(-3.085787e-10 6.8731 6.8731 3.085787e-10 -2067.4641 1849.8367)">
	<stop  offset="0" style="stop-color:#9BA2A6"/>
	<stop  offset="0.311" style="stop-color:#ADB2B5"/>
	<stop  offset="0.93" style="stop-color:#DADBDB"/>
	<stop  offset="1" style="stop-color:#E0E0E0"/>
</linearGradient>
<path class="st50" d="M107.5,35.9h0.8V38h-0.8c-0.4-1.3-2.3-1.5-3.5-1.5c-1.1,0-1.9,0.3-1.9,0.8c0,0.6,1.5,0.6,2.7,0.8
	c1.6,0.2,3.8,0.2,3.8,2.2c0,1.6-2.1,2.1-3.5,2.1c-2.4,0-3.1-0.7-3.7-0.7c-0.2,0-0.2,0.1-0.2,0.4h-0.8v-2.3h0.8
	c0.3,1.4,2.4,1.7,3.3,1.7c0.6,0,2.3-0.1,2.3-0.9c0-0.7-1.1-0.7-2.3-0.9c-1.4-0.2-4.2-0.2-4.2-2.1c0-1.4,1.6-2.1,3.4-2.1
	c2.1,0,3.2,0.7,3.5,0.7C107.4,36.3,107.5,36.1,107.5,35.9L107.5,35.9z"/>
<linearGradient id="SVGID_46_" gradientUnits="userSpaceOnUse" x1="-268.1353" y1="320.9781" x2="-267.1354" y2="320.9781" gradientTransform="matrix(-2.743765e-10 6.1113 6.1113 2.743765e-10 -1836.2117 1674.6245)">
	<stop  offset="0" style="stop-color:#9BA2A6"/>
	<stop  offset="0.311" style="stop-color:#ADB2B5"/>
	<stop  offset="0.93" style="stop-color:#DADBDB"/>
	<stop  offset="1" style="stop-color:#E0E0E0"/>
</linearGradient>
<path class="st51" d="M129.2,42.1h-1.3l-5-4.3V41c0,0.2,0.1,0.3,0.3,0.3h0.9v0.8h-3.8v-0.8h0.9c0.2,0,0.3-0.1,0.3-0.3v-3.9
	c0-0.2-0.1-0.3-0.3-0.3h-0.9V36h3.1l4.4,3.7v-2.6c0-0.2-0.1-0.3-0.3-0.3h-0.9V36h3.8v0.8h-0.9c-0.2,0-0.3,0.1-0.3,0.3
	C129.2,37.1,129.2,42.1,129.2,42.1z"/>
<linearGradient id="SVGID_47_" gradientUnits="userSpaceOnUse" x1="-268.1353" y1="320.978" x2="-267.1354" y2="320.978" gradientTransform="matrix(-2.743765e-10 6.1113 6.1113 2.743765e-10 -1825.5796 1674.6245)">
	<stop  offset="0" style="stop-color:#9BA2A6"/>
	<stop  offset="0.311" style="stop-color:#ADB2B5"/>
	<stop  offset="0.93" style="stop-color:#DADBDB"/>
	<stop  offset="1" style="stop-color:#E0E0E0"/>
</linearGradient>
<path class="st52" d="M137.3,36h3.7v0.8h-0.7c-0.3,0-0.6,0.1-0.8,0.3l-2.5,2.6V41c0,0.2,0.1,0.3,0.3,0.3h0.9v0.8h-4.4v-0.8h0.9
	c0.2,0,0.3-0.1,0.3-0.3v-1.2l-2.5-2.7c-0.2-0.2-0.5-0.3-0.8-0.3H131V36h4.5v0.8h-0.4c-0.1,0-0.2,0-0.2,0.1l0,0.2l1.5,1.6l1.5-1.6
	l0-0.2c0-0.1-0.1-0.1-0.2-0.1h-0.4L137.3,36L137.3,36z"/>
<linearGradient id="SVGID_48_" gradientUnits="userSpaceOnUse" x1="-263.9645" y1="316.0089" x2="-262.9644" y2="316.0089" gradientTransform="matrix(-3.085743e-10 6.873 6.873 3.085743e-10 -2057.103 1849.8163)">
	<stop  offset="0" style="stop-color:#9BA2A6"/>
	<stop  offset="0.311" style="stop-color:#ADB2B5"/>
	<stop  offset="0.93" style="stop-color:#DADBDB"/>
	<stop  offset="1" style="stop-color:#E0E0E0"/>
</linearGradient>
<path class="st53" d="M114.8,35.6c-2.9,0-4.8,1.5-4.8,3.4s1.9,3.4,4.8,3.4s4.8-1.5,4.8-3.4S117.7,35.6,114.8,35.6z M114.8,36.5
	c1.6,0,2.7,1.1,2.7,2.5s-1.1,2.5-2.7,2.5s-2.7-1.1-2.7-2.5S113.2,36.5,114.8,36.5z"/>
<path class="st54" d="M164.6,25.2h-1.4c-0.3,0-0.5,0-0.7,0.1c-0.2,0-0.3,0.1-0.5,0.2c-0.1,0.1-0.2,0.1-0.3,0.2s-0.1,0.2-0.1,0.3
	c0,0.1,0,0.2,0.1,0.3c0.1,0.1,0.1,0.2,0.2,0.2c0.1,0.1,0.3,0.1,0.4,0.2c0.2,0,0.4,0.1,0.7,0.1h1.6L164.6,25.2L164.6,25.2z
	 M163.6,26.4h-0.3c-0.2,0-0.3,0-0.4,0c-0.1,0-0.2-0.1-0.2-0.1l-0.1-0.1l0-0.1l0-0.1l0.1-0.1c0,0,0.1-0.1,0.2-0.1c0.1,0,0.2,0,0.4,0
	h0.4L163.6,26.4L163.6,26.4z M158.3,26.7h1v-0.8l0-0.1l0.1-0.1l0.1-0.1c0.1,0,0.2,0,0.3,0c0.1,0,0.2,0,0.3,0l0.1,0.1l0.1,0.1l0,0.1
	v0.8h1v-0.9c0-0.2-0.1-0.4-0.4-0.5c-0.2-0.1-0.6-0.2-1.1-0.2s-0.9,0.1-1.1,0.2c-0.2,0.1-0.4,0.3-0.4,0.5L158.3,26.7L158.3,26.7z
	 M156.8,25.8l-0.3,0.5h0l-0.3-0.5H156.8z M158.1,25.2h-1l-0.1,0.2h-1l-0.1-0.2h-1l1.2,1.5h1L158.1,25.2L158.1,25.2z M154.6,25.2
	h-2.4v0.4h1.4v1.1h1V25.2z M152,25.7l-0.1-0.2l-0.2-0.1c-0.1,0-0.2-0.1-0.3-0.1c-0.2,0-0.4-0.1-0.6-0.1c-0.3,0-0.5,0-0.8,0
	c-0.2,0-0.3,0-0.5,0.1s-0.3,0.1-0.3,0.2c-0.1,0.1-0.1,0.1-0.1,0.2l0.1,0.2l0.2,0.1c0.1,0,0.2,0.1,0.3,0.1c0.2,0,0.4,0.1,0.7,0.1
	c0.1,0,0.2,0,0.3,0l0.2,0l0.1,0.1l0,0.1l-0.1,0l-0.1,0l-0.1,0l-0.2,0l-0.1,0l-0.1,0l0-0.1h-0.9c0,0.1,0,0.2,0.1,0.2
	c0.1,0.1,0.2,0.1,0.3,0.2s0.3,0.1,0.4,0.1c0.3,0,0.6,0,1,0c0.2,0,0.3,0,0.4-0.1c0.1,0,0.2-0.1,0.3-0.2l0.1-0.2l-0.1-0.2
	c-0.1,0-0.1-0.1-0.3-0.1s-0.2-0.1-0.3-0.1c-0.2,0-0.5-0.1-0.7-0.1l-0.2,0l-0.1,0l0-0.1l0-0.1l0.1,0l0.1,0l0.1,0c0.1,0,0.2,0,0.3,0
	c0.1,0,0.2,0,0.2,0.1l0,0.1L152,25.7L152,25.7z M148.7,25.2h-1v0.6h-0.9v-0.6h-1v1.5h1v-0.5h0.9v0.5h1V25.2z M145.4,26
	c0-0.1,0-0.2-0.1-0.3c-0.1-0.1-0.2-0.2-0.3-0.2c-0.1-0.1-0.3-0.1-0.5-0.2c-0.2,0-0.4-0.1-0.7-0.1s-0.5,0-0.7,0.1s-0.4,0.1-0.5,0.2
	c-0.1,0.1-0.2,0.1-0.3,0.2c-0.2,0.2-0.2,0.5,0,0.6c0.1,0.1,0.2,0.2,0.3,0.2c0.1,0.1,0.3,0.1,0.5,0.2c0.2,0,0.4,0.1,0.7,0.1
	s0.5,0,0.7-0.1c0.2,0,0.4-0.1,0.5-0.2c0.1-0.1,0.3-0.2,0.3-0.2C145.4,26.2,145.4,26.1,145.4,26z M144.4,26l-0.1,0.2l-0.2,0.1
	l-0.2,0.1l-0.2,0l-0.2,0l-0.2-0.1l-0.2-0.1l-0.1-0.2l0.1-0.2l0.2-0.1l0.2-0.1l0.2,0l0.2,0l0.2,0.1l0.2,0.1L144.4,26z M138.8,26.2
	c0,0.2,0.2,0.3,0.4,0.4c0.2,0.1,0.6,0.2,1,0.2c0.2,0,0.5,0,0.7-0.1c0.2,0,0.4-0.1,0.5-0.2c0.1-0.1,0.2-0.2,0.3-0.2
	c0.1-0.2,0.2-0.4,0-0.6c-0.1-0.1-0.2-0.2-0.3-0.3c-0.2-0.1-0.3-0.1-0.5-0.2c-0.2,0-0.4-0.1-0.7-0.1c-0.2,0-0.4,0-0.6,0.1
	s-0.3,0.1-0.5,0.1c-0.1,0-0.2,0.1-0.3,0.2l-0.1,0.2h1l0.1-0.1l0.1-0.1l0.1-0.1l0.2,0c0.1,0,0.2,0,0.3,0l0.2,0.1l0.1,0.1l0,0.2l0,0.2
	l-0.1,0.1l-0.2,0.1c-0.1,0-0.2,0-0.3,0c-0.1,0-0.2,0-0.2,0l-0.2-0.1l-0.1-0.1l0-0.1L138.8,26.2L138.8,26.2z M138.4,25.2h-1v0.4
	l-0.3,0.1l-0.8-0.6h-1.2l1.3,0.9l-1.2,0.6h1.2l0.9-0.5h0v0.5h1L138.4,25.2z M132.2,26.6l0,0.1l-0.1,0.1l-0.2,0l-0.2,0l-0.2,0l-0.2,0
	l-0.1-0.1l-0.1-0.1l0.1-0.1l0.1-0.1l0.2,0l0.2,0l0.2,0l0.2,0v-0.4l-0.1,0c-0.1,0-0.1,0-0.2,0l-0.2,0l-0.2,0l-0.1-0.1l-0.1-0.1
	c0-0.1,0.1-0.1,0.2-0.2c0.1,0,0.2-0.1,0.4-0.1c0.1,0,0.2,0,0.3,0l0.2,0.1c0.1,0.1,0.2,0.1,0.2,0.2h1.2l0-0.1l-0.1-0.2l-0.2-0.2
	c-0.1-0.1-0.2-0.1-0.3-0.2c-0.1-0.1-0.3-0.1-0.6-0.1c-0.2,0-0.5,0-0.8,0c-0.4,0-0.6,0-0.9,0.1c-0.2,0-0.4,0.1-0.6,0.2
	c-0.1,0-0.2,0.1-0.3,0.2l-0.1,0.2l0.1,0.2l0.1,0.1l0.2,0.1l0.2,0l0.1,0l0.1,0v0l-0.1,0l-0.2,0.1l-0.2,0.1c-0.1,0.1-0.1,0.1-0.1,0.3
	L130,27c0.1,0.1,0.2,0.1,0.3,0.2c0.2,0.1,0.3,0.1,0.5,0.1c0.3,0,0.5,0.1,0.8,0.1c0.2,0,0.5,0,0.7,0c0.2,0,0.4-0.1,0.6-0.1
	c0.2-0.1,0.3-0.1,0.4-0.2c0.1-0.1,0.1-0.2,0.1-0.3L132.2,26.6L132.2,26.6z M134.7,25.4v0.3h-0.3l-0.1,0l0-0.1l0.1-0.1l0,0l0,0l0,0
	l0,0l0,0l0,0v0h0.1l0,0l0,0v0l0,0l0.1,0h0.1v-0.1L134.7,25.4L134.7,25.4z M134.6,25.5h-0.1l-0.1,0l0,0l0,0l0.1,0L134.6,25.5
	C134.6,25.6,134.6,25.5,134.6,25.5z"/>
<path class="st54" d="M134,25.5L134,25.5l0.2-0.1c0.1,0,0.2-0.1,0.3-0.1s0.3,0,0.3,0.1l0.1,0.1l-0.1,0.1c-0.1,0-0.2,0.1-0.3,0.1
	s-0.3,0-0.3-0.1L134,25.5L134,25.5c0,0.2,0.2,0.3,0.5,0.3c0.3,0,0.5-0.1,0.5-0.3c0-0.2-0.2-0.3-0.5-0.3
	C134.2,25.2,133.9,25.3,134,25.5L134,25.5L134,25.5z"/>
<path class="st55" d="M188.5,77.7l8.5-8.5l-0.7-0.7l-8.5,8.5L188.5,77.7z M197.1,77l-8.5-8.5l-0.7,0.7l8.5,8.5L197.1,77z"/>
<linearGradient id="SVGID_49_" gradientUnits="userSpaceOnUse" x1="-295.8321" y1="353.9734" x2="-294.8319" y2="353.9734" gradientTransform="matrix(-1.580585e-10 3.5205 3.5205 1.580585e-10 -1125.5826 1066.4298)">
	<stop  offset="0" style="stop-color:#23262A"/>
	<stop  offset="0.132" style="stop-color:#35373B"/>
	<stop  offset="0.394" style="stop-color:#636567"/>
	<stop  offset="0.76" style="stop-color:#ACADAE"/>
	<stop  offset="1" style="stop-color:#E0E0E0"/>
</linearGradient>
<path class="st56" d="M120.5,25.6c-0.3,0-0.5-0.2-0.5-0.3c0-0.2,0.3-0.4,0.8-0.4s0.8,0.2,0.8,0.4c0,0.2-0.2,0.3-0.5,0.3v0.8
	c0,0,0.6,0.3,0.7,0.3c0.3,0.2,0.4,0.2,0.5,0.4l0,0l0,0h0.2l0.2,0v0.5l-0.6,0h-0.6v-0.5h0.4l0,0c0-0.2-0.1-0.2-0.8-0.5l-0.1,0
	c0,0,0,0.3,0,0.6v0.6h0.2c0.1,0,0.2,0,0.2,0s-0.2,0.1-0.3,0.3l-0.3,0.3l0,0l-0.3-0.3l-0.4-0.3c0.1,0,0.2,0,0.2,0h0.2v-1
	c0-0.5,0-1,0-1c0,0-0.2,0.1-0.4,0.1c-0.1,0.1-0.3,0.1-0.4,0.2c-0.1,0.1-0.2,0.1-0.2,0.2c0,0,0,0.1,0,0.2v0.1l0.1,0
	c0.2,0,0.3,0.1,0.4,0.2l0.1,0.1l-0.1,0.1c-0.2,0.2-0.8,0.2-1.1,0.1c-0.1-0.1-0.2-0.1-0.2-0.2c0-0.1,0.2-0.2,0.4-0.3l0.1,0l0-0.1
	c0-0.1,0-0.2,0.1-0.3c0.1-0.2,0.4-0.3,1.1-0.6l0.1-0.1C120.5,25.8,120.5,25.6,120.5,25.6z"/>
<path class="st57" d="M85.3,73.5c10.3,0,18.6,8.3,18.6,18.6c0,10.3-8.3,18.6-18.6,18.6S66.7,102.3,66.7,92
	C66.7,81.8,75,73.5,85.3,73.5z M155.4,73.5c10.3,0,18.6,8.3,18.6,18.6c0,10.3-8.3,18.6-18.6,18.6c-10.3,0-18.6-8.3-18.6-18.6
	C136.8,81.8,145.1,73.5,155.4,73.5z"/>
<radialGradient id="SVGID_50_" cx="-213.5959" cy="290.3336" r="1" gradientTransform="matrix(16.2091 0 0 -16.2091 3547.4998 4798.0688)" gradientUnits="userSpaceOnUse">
	<stop  offset="0" style="stop-color:#23262A"/>
	<stop  offset="0.405" style="stop-color:#25292D"/>
	<stop  offset="0.754" style="stop-color:#2C3038"/>
	<stop  offset="0.883" style="stop-color:#30353E"/>
	<stop  offset="0.926" style="stop-color:#444D56"/>
	<stop  offset="0.929" style="stop-color:#414952"/>
	<stop  offset="0.94" style="stop-color:#373E47"/>
	<stop  offset="0.956" style="stop-color:#323740"/>
	<stop  offset="1" style="stop-color:#30353E"/>
</radialGradient>
<path class="st58" d="M101.5,92c0,9-7.3,16.2-16.2,16.2S69.1,101,69.1,92s7.3-16.2,16.2-16.2S101.5,83.1,101.5,92z"/>
<radialGradient id="SVGID_51_" cx="-213.5961" cy="290.3331" r="1" gradientTransform="matrix(16.2092 0 0 -16.2092 3617.5891 4798.0903)" gradientUnits="userSpaceOnUse">
	<stop  offset="0" style="stop-color:#23262A"/>
	<stop  offset="0.405" style="stop-color:#25292D"/>
	<stop  offset="0.754" style="stop-color:#2C3038"/>
	<stop  offset="0.883" style="stop-color:#30353E"/>
	<stop  offset="0.926" style="stop-color:#444D56"/>
	<stop  offset="0.929" style="stop-color:#414952"/>
	<stop  offset="0.94" style="stop-color:#373E47"/>
	<stop  offset="0.956" style="stop-color:#323740"/>
	<stop  offset="1" style="stop-color:#30353E"/>
</radialGradient>
<path class="st59" d="M171.6,92c0,9-7.3,16.2-16.2,16.2c-9,0-16.2-7.3-16.2-16.2s7.3-16.2,16.2-16.2C164.3,75.8,171.6,83.1,171.6,92
	z"/>
</svg>
