<svg viewBox="0 0 307.9 133.9" xmlns="http://www.w3.org/2000/svg"><path d="m209.6.8c-.8 0-1.7.1-2.5.4s-1.4 1.1-1.4 2.1h.5c0 .2 0 .5.3.5h35.5c12.7.4 23.8 4.1 33.4 10 .4.2.6-.2.6-.4 0-.6-.1-1.1-.1-1.7h.1c0-.7.1-1.2 0-1.7s-.4-1-.9-1.3c-9.6-5.4-20.6-7.9-32.3-7.9zm-111.1 0c.8 0 1.7.1 2.5.4s1.4 1.1 1.4 2.1h-.5c0 .2 0 .5-.3.5h-35.5c-12.7.4-23.8 4.1-33.4 10-.4.2-.6-.2-.6-.4 0-.7.1-1.2.1-1.7h-.1c0-.7-.1-1.2 0-1.7s.3-1 .9-1.3c9.6-5.4 20.6-7.9 32.3-7.9z" fill="#bdbdbd"/><path d="m64.8 3.3h84.4v1.2h9.6v-1.2h84.3c35.8 0 64.8 29 64.8 64.8s-29 64.8-64.8 64.8c-13.6 0-26.8-4.2-37.8-12.2l-1.3-1c-2.4-1.9-5.5-3-8.6-3h-82.8c-3.2 0-6.2 1.1-8.6 3l-1.3 1c-10.7 7.7-23.8 12.3-37.9 12.3-35.8 0-64.8-29.1-64.8-64.9s29-64.8 64.8-64.8z" fill="#ccc"/><path d="m0 133.9v-133.9h307.9v133.9z" fill="none"/><path d="m116.4 98.4c0-.3-.1-.5-.3-.6l-.4-.3c-.6-.4-.9-.9-.9-1.5 0-.3.1-.6.2-.8s.3-.4.6-.5c.2-.1.5-.2.8-.2.4 0 .7.2 1 .5.2.3.4.7.4 1.2h-.9c0-.2 0-.3-.1-.5-.1-.1-.2-.2-.3-.2-.2 0-.3.1-.4.2s-.2.3-.2.4c0 .2.1.4.4.6.2.1.5.2.7.4.4.3.6.8.6 1.4 0 .3-.1.6-.2.8s-.3.4-.6.5c-.2.1-.5.2-.8.2-.2 0-.4 0-.6-.1s-.3-.2-.5-.4c-.3-.3-.4-.8-.4-1.3h.9c0 .3 0 .5.1.6s.2.2.4.2c.1 0 .3 0 .4-.1 0-.2 0-.4.1-.5zm19.5-2.9h-1.2l-.6 4.3h-.9l.6-4.3h-1.1l.1-1h3.2zm-4.3 2.5c0 .3-.1.7-.3 1-.1.3-.4.5-.6.7-.3.2-.5.2-.8.2-.4 0-.7-.2-1-.5-.2-.3-.4-.8-.4-1.4 0-.4 0-.8.1-1.3.1-.4.2-.8.4-1.2.2-.3.4-.6.6-.8s.5-.2.8-.2c.4 0 .8.2 1 .5s.4.8.4 1.4h-.8c0-.3 0-.6-.1-.7s-.2-.2-.4-.2c-.5 0-.8.5-.9 1.5 0 .5-.1.8-.1 1 0 .6.2.9.5.9.2 0 .4-.1.5-.2.1-.2.2-.4.3-.6zm-4.1-.4h-1.5l-.2 1.3h1.7l-.1 1h-2.7l.7-5.3h2.7l-.1 1h-1.7l-.1 1.1h1.5c0-.1-.2.9-.2.9zm-5 1.3h1.6l-.1 1h-2.6l.7-5.3h.9c.1-.1-.5 4.3-.5 4.3zm-1.8-1.3h-1.5l-.2 1.3h1.7l-.1 1h-2.6l.7-5.3h2.7l-.1 1h-1.7l-.1 1.1h1.5zm30.6.8c0-.3-.1-.5-.3-.6l-.4-.3c-.6-.4-.9-.9-.9-1.5 0-.3.1-.6.2-.8s.3-.4.6-.5c.2-.1.5-.2.8-.2.4 0 .7.2 1 .5.2.3.4.7.4 1.2h-.9c0-.2 0-.3-.1-.5-.1-.1-.2-.2-.3-.2-.2 0-.3.1-.4.2s-.2.3-.2.4c0 .2.1.4.4.6.2.1.5.2.7.4.4.3.6.8.6 1.4 0 .3-.1.6-.2.8s-.3.4-.6.5c-.2.1-.5.2-.8.2-.2 0-.4 0-.6-.1s-.3-.2-.5-.4c-.3-.3-.4-.8-.4-1.3h.9c0 .3 0 .5.1.6s.2.2.4.2.3 0 .4-.1c0-.2.1-.4.1-.5zm16.8-2.9h-1.1l-.6 4.3h-.9l.6-4.3h-1.1l.1-1h3.2zm-6.2 1.5h.5c.1 0 .3 0 .4-.1s.2-.2.2-.4.1-.3 0-.5c0-.3-.2-.4-.4-.4h-.6c.1-.1-.1 1.4-.1 1.4zm-.2 1-.2 1.9h-.9l.7-5.3h1.4c.4 0 .8.1 1 .4s.3.7.3 1.1-.1.7-.2.9c-.1.3-.4.5-.6.6l.5 2.1v.1h-1l-.4-1.9h-.6zm-3.9.8-.4 1h-1l2.1-5.3h.9l.7 5.3h-1l-.1-1zm.4-.9h.8l-.2-1.8zm-1.7-2.4h-1.1l-.6 4.3h-.9l.6-4.3h-1.1l.1-1h3.2z" fill="#4c4c4c"/><path d="m102 67.4c0 20.3-16.5 36.8-36.7 36.8s-36.8-16.5-36.8-36.8 16.4-36.8 36.7-36.8 36.8 16.5 36.8 36.8" fill="#999"/><path d="m102 67.4c0 20.3-16.5 36.8-36.7 36.8s-36.8-16.5-36.8-36.8 16.4-36.8 36.7-36.8 36.8 16.5 36.8 36.8" fill="none" stroke="#999" stroke-width=".8"/><path d="m100.8 67.4c0 19.7-15.9 35.6-35.6 35.6s-35.6-15.9-35.6-35.6 15.9-35.6 35.6-35.6 35.6 15.9 35.6 35.6" fill="#ccc"/><path d="m301.7 67.5c0 32.3-26.2 58.4-58.4 58.4-32.3 0-58.4-26.2-58.4-58.4-.1-32.3 26.1-58.5 58.4-58.5 32.2 0 58.4 26.2 58.4 58.5" fill="#666"/><path d="m90.8 58.2h-16.3v-16.4c0-.7-.6-1.3-1.3-1.3h-15.9c-.7 0-1.3.6-1.3 1.3v16.4h-16.3c-.7 0-1.3.6-1.3 1.3v15.9c0 .7.6 1.3 1.3 1.3h16.3v16.3c0 .7.6 1.3 1.3 1.3h15.9c.7 0 1.3-.6 1.3-1.3v-16.4h16.4c.7 0 1.3-.6 1.3-1.3v-15.8c-.1-.7-.7-1.3-1.4-1.3" fill="#4c4c4c"/><path d="m42.2 65.7c-1.6.9-1.6 2.4 0 3.3l6.3 3.6c1.6.9 2.9.5 2.9-.9v-8.5c0-1.4-1.3-1.9-2.9-.9l-6.3 3.4c-1.6.9-1.6 2.4 0 3.3l6.3 3.6c1.6.9 2.9.5 2.9-.9v-8.5c0-1.4-1.3-1.9-2.9-.9zm46 0c1.6.9 1.6 2.4 0 3.3l-6.3 3.6c-1.6.9-2.9.5-2.9-.9v-8.5c0-1.4 1.3-1.9 2.9-.9l6.3 3.4c1.6.9 1.6 2.4 0 3.3l-6.3 3.6c-1.6.9-2.9.5-2.9-.9v-8.5c0-1.4 1.3-1.9 2.9-.9zm-21.3-21.2c-.9-1.6-2.4-1.6-3.3 0l-3.6 6.2c-.9 1.6-.5 2.9 1 2.9h8.5c1.4 0 1.9-1.3 1-2.9l-3.6-6.2c-.9-1.6-2.4-1.6-3.3 0l-3.6 6.2c-.9 1.6-.5 2.9 1 2.9h8.5c1.4 0 1.9-1.3 1-2.9zm0 45.9c-.9 1.6-2.4 1.6-3.3 0l-3.6-6.2c-.9-1.6-.5-2.9 1-2.9h8.5c1.4 0 1.9 1.3 1 2.9l-3.6 6.2c-.9 1.6-2.4 1.6-3.3 0l-3.6-6.2c-.9-1.6-.5-2.9 1-2.9h8.5c1.4 0 1.9 1.3 1 2.9zm68-15.2-13.2 10.3c-4.5 3.6-10.2-2.9-5.3-6.8l13.2-10.3c4.7-3.6 10.1 3.2 5.3 6.8m33.1 0-13.2 10.3c-4.5 3.6-10.2-2.9-5.3-6.8l13.2-10.3c4.7-3.6 10.1 3.2 5.3 6.8" fill="#666"/><path d="m263.3 25.2h-2.1l2.7 3.2-2.9 3.6h2l1.9-2.3 1.9 2.3h2l-2.9-3.5 2.7-3.2h-2.1l-1.6 1.9zm26.5 23.9h1 1l3 6.6h-1.6l-.8-1.7h-3.3l-.8 1.7h-1.6zm2 3.6-1-2.3-1 2.2zm-96.9 28.8h-1.8l3 3.7v3.1h1.6v-3.1l3-3.7h-1.8l-2 2.5z" fill="#d8d8d8"/><path d="m220.1 104.8h4.4c2.8.2 2.9 3.1.2 3.3 3.4.1 3.1 3.5-.2 3.6h-.1-4.3zm4.4 5.6c1.1-.2 1.1-1.4 0-1.6h-2.7v1.6zm0-2.9c1.1-.4.7-1.4 0-1.5h-2.7v1.5z" fill="#ccc"/><path d="m213.9 56c-6.7 0-12.1 5.4-12.1 12.1s5.4 12.1 12.1 12.1 12.1-5.5 12.1-12.1-5.4-12.1-12.1-12.1zm0 1c6.1 0 11.1 4.9 11.1 11s-4.9 11.1-11.1 11.1c-6.1 0-11.1-4.9-11.1-11.1 0-6 5-11 11.1-11zm29.3-23.9c-6.7 0-12.1 5.4-12.1 12.1s5.4 12.1 12.1 12.1 12.1-5.4 12.1-12.1-5.4-12.1-12.1-12.1zm0 1c6.1 0 11.1 4.9 11.1 11.1 0 6.1-4.9 11.1-11.1 11.1s-11-4.9-11-11.1c0-6.1 4.9-11.1 11-11.1zm1 44.2c-6.7 0-12.1 5.4-12.1 12.1s5.4 12.1 12.1 12.1 12.1-5.4 12.1-12.1-5.4-12.1-12.1-12.1zm0 1c6.1 0 11 4.9 11 11.1s-4.9 11-11 11-11.1-4.9-11.1-11 5-11.1 11.1-11.1zm29.3-23.9c-6.7 0-12.1 5.4-12.1 12.1s5.4 12.1 12.1 12.1 12.1-5.4 12.1-12.1c0-6.6-5.4-12.1-12.1-12.1zm0 1.1c6.1 0 11.1 4.9 11.1 11.1 0 6.1-4.9 11.1-11.1 11.1s-11.1-4.9-11.1-11.1c.1-6.2 5-11.1 11.1-11.1z" fill="#f4f4f4"/><path d="m284.7 58.7c4.8 6.2 3.7 15.1-2.5 20l-29.3 22.9c-6.2 4.8-15.1 3.7-20-2.5-4.8-6.2-3.7-15.1 2.5-20l29.4-22.8c2.2-1.7 4.9-2.8 7.8-3 4.6-.3 9.2 1.7 12.1 5.4z" fill="#d8d8d8"/><path d="m273.5 55.4c6.7 0 12.1 5.4 12.1 12.1s-5.4 12.1-12.1 12.1-12.1-5.4-12.1-12.1c.1-6.6 5.5-12.1 12.1-12.1z" fill="#ba2318"/><path d="m254.5 36.5c4.8 6.2 3.7 15.1-2.5 20l-29.3 22.9c-6.2 4.8-15.1 3.7-20-2.5-4.8-6.2-3.7-15.1 2.5-20l29.3-22.9c2.2-1.7 4.9-2.8 7.8-3 4.7-.3 9.3 1.8 12.2 5.5z" fill="#d8d8d8"/><path d="m243.2 33.1c6.7 0 12.1 5.4 12.1 12.1s-5.4 12.1-12.1 12.1-12.1-5.4-12.1-12.1c.1-6.7 5.5-12.1 12.1-12.1z" fill="#0a2a8d"/><path d="m244.2 78.3c6.7 0 12.1 5.4 12.1 12.1s-5.4 12.1-12.1 12.1-12.1-5.4-12.1-12.1 5.4-12.1 12.1-12.1z" fill="#fed01b"/><path d="m213.9 56c6.7 0 12.1 5.4 12.1 12.1s-5.4 12.1-12.1 12.1-12.1-5.4-12.1-12.1 5.4-12.1 12.1-12.1z" fill="#007544"/><circle cx="65.2" cy="67.4" fill="#595959" r="7.3"/><g fill="#666"><ellipse cx="89.2" cy="24.4" rx="4.7" ry="2.1"/><path d="m102.3 27.9c0 1.2-2.1 2.1-4.7 2.1s-4.7-.9-4.7-2.1 2.1-2.1 4.7-2.1 4.7.9 4.7 2.1zm.5-1.4c-.6-2.3-2.6-4.9-5.2-3.8 2.1-4.9 6.2-4.2 7.6-2.5 1.1 1.4 1 5.9-2.4 6.3zm-8.2-3.8c-.6-2.3-2.6-4.9-5.2-3.8 2.1-4.9 6.2-4.2 7.6-2.5 1 1.4 1 5.9-2.4 6.3zm17.6-9.1c-.7 0-1.4.6-1.5 1.3v.1.1.1.1.1.1.1.1.2.1.1.1.1.1.1.1.1.1.1.1c0 .3 0 .7.1.8.1.7 2.4 3.9 2.3 4.4s-.3 1.9-.3 1.9c-.1.5-.4.9-.9.9s-.8-.4-.7-.9l.4-2.4h-1.7l-.6 3.3c-.1.7.3 1.2 1 1.2h2.4c.7 0 1.3-.5 1.4-1.2 0 0 .6-3.1.6-3.3s-.1-.2-.1-.2c0-.2-2-3.6-2.2-3.7-.1-.1-.2-.4-.2-.6s.3-1.5.3-1.5c.1-.5.5-.9 1-.9s.7.4.6.9l-.4 2.1h1.7l.6-3.2c.1-.7-.3-1.3-1-1.3zm4.7 0-2 11.8c-.1.7.3 1.2 1 1.2h2.4c.7 0 1.3-.5 1.4-1.2l2.2-11.8h-1.5l-2.1 11.4c0 .2-.2.3-.4.3h-1.2c-.2 0-.3-.1-.3-.3l2-11.4zm5.8 0-2.4 13h1.6l1.1-5.9h2.1c.7 0 1.3-.5 1.4-1.2l.9-4.6c.1-.7-.3-1.3-1-1.3zm5.8 0-2.5 13h3.6l.3-1.6h-1.9l.7-4.4h1.8l.3-1.4h-1.8l.8-4h1.8l.3-1.6zm4.3 0-2.4 13h1.6l1.1-5.9h1.2c.2.1.2.4.2.5 0 .2.1.4 0 .6 0 .2-.9 4.7-.9 4.7h1.6s.9-4.9.9-5 0-.3-.1-.5c-.1-.1-.2-.3-.3-.4-.2-.1-.5-.2-.5-.2h-.1c.5-.2 1.3-.5 1.4-1l.9-4.6c.1-.7-.3-1.3-1-1.3h-3.6zm8.7 0-2.4 13h1.9l1.5-7.5.6 7.5h1.6l2.4-13h-1.9l-1.3 6.8-.8-6.8zm6.4 0-2.4 13h1.6l2.4-13zm2.5 0-2.4 13h1.9l1.5-7.5.6 7.5h1.6l2.4-13h-1.9l-1.3 6.8-.8-6.8zm6.2 0-.3 1.6h1l-2 11.4h1.8l2-11.4h1l.3-1.6zm4.5 0-2.5 13h3.6l.3-1.6h-1.8l.7-4.4h1.8l.3-1.4h-1.8l.8-4h1.8l.3-1.6zm4.1 0-2.4 13h1.9l1.5-7.5.6 7.5h1.6l2.4-13h-1.9l-1.3 6.8-.8-6.8zm6.4 0-2.4 13h3.7c.7 0 1.3-.5 1.4-1.2l2-10.5c.1-.7-.3-1.3-1-1.3zm7 0c-.7 0-1.4.6-1.5 1.3l-1.8 10.5c-.1.7.3 1.2 1 1.2h2.7c.7 0 1.3-.5 1.4-1.2l2-10.5c.1-.7-.3-1.3-1-1.3zm-5.6 1.5h.7c.5 0 .8.4.7.9l-1.6 8.5c-.1.5-.5.9-1 .9h-.7c0-.1 1.9-10.3 1.9-10.3zm6.5 0c.5 0 .8.4.8.9l-1.5 8.5c-.1.5-.5.9-1 .9s-.7-.4-.6-.9l1.5-8.5v-.1-.1h.1zm-55.3.1h.8c.2 0 .5.4.5.6l-.7 3.2c0 .2-.3.5-.4.5h-1-.1v-.1l.8-3.9c0-.3 0-.3.1-.3zm10.1 0h.8c.2 0 .5.4.5.6l-.7 3.2c0 .2-.4.6-.6.6h-.7c-.1 0-.2-.1-.3-.2v-.1l.7-3.9zm-25.7 12.5v4.3h72.2v-4.2c0-.1-72.2-.1-72.2-.1zm53.1.5h.6c.1 0 .3.1.2.3l-.1.7h-.3l.1-.5c0-.1 0-.2-.2-.2-.1 0-.2.1-.2.2l-.1.3v.1s.5.8.5.8v.1c0 .1-.1.7-.1.7 0 .2-.2.3-.3.3h-.5c-.1 0-.2-.1-.2-.3l.1-.7h.4l-.1.5c0 .1 0 .2.2.2.1 0 .2-.1.2-.2l.1-.4c-.1-.2-.5-.8-.5-1 0 0 0-.1 0-.2s.1-.5.1-.5zm2.9 0h.5l.1 1.1.6-1.1h.5l-.9 1.7-.4 1.1h-.4l.2-1.3s-.2-1.5-.2-1.5zm4.1 0h.6c.1 0 .3.1.2.3l-.1.7h-.3l.1-.5c0-.1 0-.2-.2-.2-.1 0-.2.1-.2.2l-.1.3v.1s.5.8.5.8v.1l-.1.7c0 .2-.2.3-.3.3h-.5c-.1 0-.2-.1-.2-.3l.1-.7h.4l-.1.5c0 .1 0 .2.2.2.1 0 .2-.1.2-.2l.1-.4c-.1-.2-.5-.8-.5-1 0 0 0-.1 0-.2s.1-.5.1-.5zm3 0h.8l-.1.3h-.2l-.4 2.5h-.4l.4-2.5h-.2zm3.3 0h.8l-.1.3h-.4l-.2.9h.4l-.1.3h-.4l-.2 1h.4l-.1.4h-.8zm3.1 0h.5l.1 1.7.7-1.6h.5l-.5 2.9h-.4l.2-1.5-.6 1.5h-.3l-.1-1.6-.2 1.4h-.4zm-67.9.1h.7l-.1.4h-.4l-.2.9h.4l-.1.3h-.4l-.2 1h.4l-.1.4h-.8c.2-.2.8-3 .8-3zm3.5 0h.4l.2 1.5.3-1.5h.4l-.5 2.9h-.5l-.1-1.7-.3 1.7h-.4zm3.8 0h.8l-.1.4h-.2l-.5 2.5h-.4l.4-2.5h-.2zm3.6 0h.8l-.1.4h-.4l-.2.9h.4l-.1.3h-.4l-.2 1h.4l-.1.4h-.8c.2-.2.7-3 .7-3zm3.6 0h.8c.2 0 .2.1.2.3l-.2 1c0 .1-.2.2-.3.2h.1.1v.1s-.2 1.1-.2 1.1h-.4s.2-1 .2-1v-.1-.1h-.3l-.2 1.3h-.4c.1 0 .6-2.8.6-2.8zm3.6 0h.8l-.1.4h-.2l-.5 2.5h-.4l.4-2.5h-.2zm4.2 0h.5l-.2 2.9h-.5l.1-.7h-.3l-.2.7h-.4zm3.4 0h.4l-.5 2.9h-.4zm3.3 0h.4l.2 1.5.3-1.5h.4l-.5 2.9h-.4l-.1-1.7-.3 1.7h-.4zm4.2 0h.5l.1 1.7.7-1.7h.5l-.5 2.9h-.4l.2-1.5-.6 1.5h-.3l-.1-1.6-.3 1.6h-.4zm4.6 0h.7l-.1.4h-.4l-.2.9h.4l-.1.3h-.3l-.2 1h.4l-.1.4h-.8zm3.6 0h.4l.2 1.5.3-1.5h.4l-.5 2.9h-.4l-.1-1.7-.3 1.7h-.4zm3.8 0h.8l-.1.4h-.2l-.4 2.5h-.4l.4-2.5h-.2zm-30.3.3c-.1 0-.1 0 0 0l-.2.9s0 .1.1.1h.2s.1-.1.1-.1l.1-.7s-.1-.1-.1-.1zm7.4.9-.3.7h.2z"/></g></svg>