<svg enable-background="new 0 0 200.4 89.1" viewBox="0 0 200.4 89.1" xmlns="http://www.w3.org/2000/svg"><g transform="matrix(.27337343 0 0 .27337343 .013669 -.013669)"><path d="m455.3 246.9-1.9-1.6-.8 2.3-2.1-1.3-.5 2.4-2.2-1.1-.3 2.4-2.3-.8.1 2.5-2.4-.6.3 2.5-2.4-.3.7 2.4-2.5.1 1 2.3-2.4.4 1.2 2.1-2.4.7 1.5 1.9-2.2 1 1.7 1.8-2.1 1.2 1.9 1.6-1.9 1.5 2.1 1.2-1.7 1.8 2.2 1-1.5 1.9 2.4.7-1.2 2.2 2.4.4-1 2.2 2.5.1-.7 2.4 2.4-.2-.3 2.4 2.4-.5-.1 2.4 2.3-.8.3 2.5 2.2-1.1.5 2.3 2.1-1.3.8 2.3 1.9-1.6 1.1 2.2 1.6-1.9 1.4 2 1.4-2 1.7 1.9 1.1-2.2 1.8 1.6.9-2.3 2 1.3.6-2.3 2.2 1.1.2-2.5 2.4.8-.1-2.4 2.4.5-.4-2.4 2.5.2-.7-2.4 2.5-.1-1-2.2 2.4-.4-1.2-2.2 2.3-.7-1.5-1.9 2.3-1-1.7-1.8 2.1-1.2-2-1.5 2-1.6-2.1-1.2 1.7-1.8-2.3-1 1.5-1.9-2.3-.7 1.2-2.1-2.4-.4 1-2.3-2.5-.1.7-2.4-2.5.3.4-2.5-2.4.6.1-2.5-2.4.8-.2-2.4-2.2 1.1-.6-2.4-2 1.3-.9-2.3-1.8 1.6-1.1-2.1-1.7 1.8-1.4-2-1.4 2-1.6-1.8z" fill="#211915"/><path d="m503.4 15 .5-5.7c.6-2.9 3.5-4.8 6.4-4.1l116.9 24.9c2.9.6 4.3 3.4 4.1 6.4l.1 7.6" fill="#41403e"/><path d="m229.4 15-.5-5.7c-.6-2.9-3.5-4.8-6.4-4.1l-116.9 25c-2.9.6-4.3 3.4-4.1 6.4l-.1 7.6" fill="#41403e"/><path d="m353.7 272.9h24v7.7h-24z" fill="#050403"/><path d="m359.7 7.4c-67.1 0-129.4 5.8-180.8 15.7s-91.9 23.8-115.5 40.3l-.5.3c-37.3 25.4-62 69.2-62 118.9 0 78.5 61.4 142.2 137.1 142.2 21.1 0 41.1-4.9 59-13.8l.1-.1.1-.1h.1c45.6-23 100.8-37.5 167.4-37.5h3.5c66.6 0 121.8 14.5 167.4 37.5l.1.1h.1v.1c17.9 8.8 37.9 13.8 59 13.8 75.7 0 137.2-63.7 137.2-142.2 0-49.7-24.6-93.5-62-118.9l-.5-.3c-23.7-16.5-64.1-30.4-115.5-40.3s-113.7-15.7-180.8-15.7z" fill="#35383b"/><path d="m539.1 312.7c-48-22.1-81.4-72.1-81.4-130.1 0-78.5 61.4-142.2 137.2-142.2 25.8 0 50 7.4 70.6 20.2 1.4.9 2.8 1.8 4.1 2.7l.5.3c37.3 25.4 62 69.2 62 118.9-.1 78.8-61.5 142.5-137.3 142.5-19.8 0-38.7-4.4-55.7-12.3z" fill="#333638"/><path d="m61.3 64.9c21.2-12.7 46.2-20 72.7-20 78 0 141.2 62.9 141.2 140.5 0 57.3-34.4 106.6-83.9 128.5-16.4 7.2-34.4 11.1-53.3 11.1-75.7 0-137.1-63.7-137.1-142.3 0-49 23.9-92.3 60.4-117.8z" fill="#333638"/><path d="m159.7 75.2c-46.7 0-84.7 37.6-84.7 83.9s37.9 83.9 84.7 83.9c46.7 0 84.7-37.5 84.7-83.9 0-46.3-38-83.9-84.7-83.9z" fill="#211915"/><path d="m159.7 77.6c45.4 0 82.3 36.5 82.3 81.5s-36.8 81.5-82.3 81.5c-45.4 0-82.3-36.4-82.3-81.5 0-45 36.9-81.5 82.3-81.5z" fill="#242c32"/><path d="m523 173.7c-17.1 0-31.1 14.4-31.1 32.2 0 17.7 13.9 32.2 31.1 32.2 17.1 0 31-14.4 31-32.2.1-17.8-13.8-32.2-31-32.2z" fill="#211915"/><path d="m523 176.1c15.8 0 28.6 13.3 28.6 29.7s-12.8 29.7-28.6 29.7-28.7-13.3-28.7-29.7c.1-16.4 12.9-29.7 28.7-29.7z" fill="#9f9288"/><path d="m646.4 90.1c-17.1 0-31 14.4-31 32.2 0 17.7 13.9 32.2 31 32.2s31-14.4 31-32.2-13.9-32.2-31-32.2z" fill="#211915"/><path d="m646.4 92.6c15.8 0 28.6 13.3 28.6 29.7s-12.8 29.7-28.6 29.7-28.6-13.3-28.6-29.7 12.8-29.7 28.6-29.7z" fill="#9f9288"/><path d="m346.6 262.3c0 .5-.1 1-.3 1.5s-.4.8-.8 1.2-.8.6-1.3.8-1.1.3-1.8.3h-1v3.1h-1.9v-10.2h3c.7 0 1.2.1 1.8.2s.9.4 1.3.6.6.6.8 1 .2.9.2 1.5zm-2.1.1c0-.3 0-.5-.1-.7s-.2-.4-.4-.6-.4-.3-.7-.4-.6-.1-.9-.1h-1v3.7h1.1c.3 0 .6 0 .9-.1s.5-.2.6-.4.3-.4.4-.6.1-.5.1-.8z" fill="#1f2627"/><path d="m353.3 269.2v-4.4h-3.5v4.4h-1.9v-10.2h1.9v4.1h3.5v-4.1h1.9v10.2z" fill="#1f2627"/><path d="m364.5 264.1c0 .9-.1 1.7-.3 2.4s-.5 1.2-.9 1.7-.8.8-1.3 1-1.1.3-1.6.3c-1.3 0-2.4-.4-3-1.3s-1-2.2-1-3.9c0-.9.1-1.7.3-2.4s.5-1.2.9-1.7.8-.8 1.3-1 1.1-.3 1.6-.3c1.3 0 2.4.4 3 1.3s1 2.2 1 3.9zm-2 .1c0-1.2-.2-2.1-.5-2.7s-.9-.9-1.6-.9c-.4 0-.7.1-.9.2s-.5.4-.6.7-.3.7-.4 1.1-.1.9-.1 1.5c0 1.2.2 2.1.5 2.7s.9.9 1.6.9c.4 0 .7-.1.9-.2s.5-.4.6-.7.3-.7.4-1.1.1-1 .1-1.5z" fill="#1f2627"/><path d="m370.6 269.2-2.7-6.1-.6-1.3v4.2 3.2h-1.8v-10.2h2.4l2.8 6.1.5 1.2v-4.5-2.8h1.8v10.2z" fill="#1f2627"/><path d="m375 269.2v-10.2h6.1v1.6h-4.2v2.6h4v1.6h-4v2.8h4.2v1.6z" fill="#1f2627"/><path d="m390.4 266.1c0 .6-.1 1-.3 1.5s-.5.8-.9 1-.8.5-1.3.6-1.1.2-1.7.2c-.5 0-1.1 0-1.6-.1s-1-.2-1.5-.3v-1.9c.2.1.5.2.8.2s.5.1.8.2.5.1.8.1.5 0 .8 0c.4 0 .7 0 .9-.1s.5-.1.6-.3.3-.2.4-.4.1-.3.1-.5c0-.3-.1-.5-.2-.6s-.3-.3-.6-.4-.5-.2-.8-.4-.6-.2-.9-.3-.6-.3-.9-.4-.6-.3-.8-.6-.4-.5-.6-.8-.2-.7-.2-1.1.1-.8.2-1.1.4-.7.7-.9.7-.5 1.2-.6 1.1-.2 1.8-.2h.6s.4 0 .7.1.4.1.6.1.4.1.6.1v1.8c-.2-.1-.3-.1-.5-.2s-.4-.1-.6-.1-.4-.1-.6-.1-.4 0-.6 0c-.3 0-.6 0-.9.1s-.4.1-.6.2-.3.2-.3.4-.1.3-.1.5.1.4.2.6.3.3.6.4.5.2.8.3.6.2.9.3.6.3.9.4.6.3.8.6.4.5.6.8.1.5.1.9z" fill="#1f2627"/><path d="m416.6 269.2h-2.5l-3.1-10.2h2.2l1.7 6.1.6 2 .6-2.1 1.7-6h2z" fill="#1f2627"/><path d="m428.2 264.1c0 .9-.1 1.7-.3 2.4s-.5 1.2-.9 1.7-.8.8-1.3 1-1.1.3-1.6.3c-1.3 0-2.4-.4-3-1.3s-1-2.2-1-3.9c0-.9.1-1.7.3-2.4s.5-1.2.9-1.7.8-.8 1.3-1 1.1-.3 1.6-.3c1.3 0 2.4.4 3 1.3s1 2.2 1 3.9zm-2 .1c0-1.2-.2-2.1-.5-2.7s-.9-.9-1.6-.9c-.4 0-.7.1-.9.2s-.5.4-.6.7-.3.7-.4 1.1-.1.9-.1 1.5c0 1.2.2 2.1.5 2.7s.9.9 1.6.9c.4 0 .7-.1.9-.2s.5-.4.6-.7.3-.7.4-1.1.1-1 .1-1.5z" fill="#1f2627"/><path d="m430 269.2v-10.2h2v8.6h4.3v1.6z" fill="#1f2627"/><path d="m438.7 267.9v1.3h24v-10.2z" fill="#1f2627"/><path d="m494.8 165.6 12.2 9.4-3 2.1-2.5-2-3.9 2.7 1 3-2.5 1.7-4.6-14.7zm1.9 9.5 2.5-1.8-4.2-3.3z" fill="#90979a"/><path d="m545.2 121.3 5.6-3.9c1-.7 1.8-1.1 2.5-1.2s1.3 0 2 .2 1.2.7 1.7 1.3c.9 1.3.8 2.7-.3 4.2 1-.4 1.9-.5 2.7-.2s1.4.7 1.9 1.4c.6.9.8 1.9.6 3s-1.1 2.2-2.6 3.3l-5.6 3.9zm4.3.2 1.8 2.6 2.1-1.5c.8-.5 1.2-1 1.2-1.5s-.1-.8-.3-1.1-.5-.5-.8-.6-.6-.1-.8 0-.7.3-1.2.7zm3.3 4.7 2 2.9 2.2-1.5c.7-.5 1.2-1 1.3-1.5s0-.9-.3-1.4c-.3-.4-.7-.6-1.1-.7-.5-.1-1.1.1-1.8.6z" fill="#90979a"/><path d="m624 80.6-2.8 2.2c-1.2-1.7-2.5-2.1-3.8-1.2-1.5 1-1.3 2.8.5 5.5 1.1 1.5 2 2.4 2.7 2.6.8.3 1.5.1 2.2-.4 1.2-.8 1.3-2.1.5-3.8l2.8-1.7c.8 1.6 1.1 3 .7 4.4s-1.2 2.5-2.5 3.4c-1.6 1.1-3.3 1.5-5 1.1-1.8-.4-3.3-1.6-4.7-3.5-1.3-1.8-1.8-3.6-1.7-5.5.2-1.8 1.1-3.3 2.7-4.5 3.1-1.8 5.8-1.4 8.4 1.4z" fill="#90979a"/><path d="m315.5 180.2-2.9 5 3.3 5.7h-2.9l-2.1-3.9-2.1 3.9h-2.4l3.3-5.7-2.9-5h2.9l1.7 3.2 1.8-3.2z" fill="#1f2627"/><path d="m418.9 186.9v4h-2.5v-10.7h4.2c.9 0 1.7.1 2.2.3s.9.6 1.3 1.1.6 1.1.6 1.9c0 .5-.1 1-.3 1.5s-.5.9-.9 1.2-.7.5-1.1.6-.9.1-1.7.1zm-.1-2h1.6c.6 0 1.1-.1 1.3-.4s.4-.6.4-1-.1-.8-.4-1-.7-.4-1.3-.4h-1.6z" fill="#1f2627"/><path d="m408.8 149.1c-6 0-10.9 5.1-10.9 11.3s4.9 11.3 10.9 11.3h23.8c6 0 10.9-5.1 10.9-11.3s-4.9-11.3-10.9-11.3z" fill="#211915"/><path d="m408.8 151.5h23.8c4.8 0 8.7 4 8.7 9s-3.9 9-8.7 9h-23.8c-4.8 0-8.7-4-8.7-9 .1-5 3.9-9 8.7-9z" fill="#9f9288"/><path d="m299.8 149.1c-6 0-10.9 5.1-10.9 11.3s4.9 11.3 10.9 11.3h23.8c6 0 10.9-5.1 10.9-11.3s-4.9-11.3-10.9-11.3z" fill="#211915"/><path d="m299.8 151.5h23.8c4.8 0 8.7 4 8.7 9s-3.9 9-8.7 9h-23.8c-4.8 0-8.7-4-8.7-9 .1-5 3.9-9 8.7-9z" fill="#9f9288"/><g fill="#90979a"><path d="m325.6 73.8c0-3.8-.4-6.9-7.6-6.9-6 0-8 2.3-7.9 6h5.4c.1-1.4 1.4-2 2.2-2 .6 0 2 .2 2 1.3 0 3.5-10.4.3-10.4 7.7 0 3.3 3.3 4.7 5 4.6 2.3-.1 4-.5 5.7-2.2l.7 1.7h5.3c-.4-.4-.4-10.2-.4-10.2zm-8.8 7.2c-1.2 0-1.7-.9-1.7-1.7 0-1.4 2.7-1.3 4.6-2.3.2 2.2-.8 4-2.9 4z"/><path d="m431.7 77.5c-.2 1.3-.8 2.8-2.3 2.8-1.9 0-2.9-1.9-2.9-4.4 0-1.9.7-4.4 2.9-4.4.7 0 1.2.2 1.6.6s.6.9.6 1.7h5.8c-.4-4.7-3.9-6.6-8-6.6-5 0-8.7 3.1-8.7 8.6 0 5.4 3.8 8.7 8.7 8.7 4.2 0 7.6-2.2 8.1-7.1z"/><path d="m414.2 67.7v16.5h5.8v-16.5z"/><path d="m414.2 61v4.2h5.8v-4.2z"/><path d="m386.9 67c-5.1 0-8.6 3.2-8.6 8.8 0 5.5 3.8 8.7 8.7 8.7s8.7-3.2 8.7-9c-.1-5-3.4-8.5-8.8-8.5zm0 13.3c-1.5 0-2.7-1.7-2.7-4.8 0-1.8.7-4 2.8-4 1.6-.1 2.7 1.8 2.7 4.2 0 3-1.1 4.6-2.8 4.6z"/><path d="m367.8 71.7c0-.8.8-1.2 1.9-1.2.5 0 1.1.1 1.4.4.2.1.5.6.6 1.2h5.5c-.1-4.3-4.1-5.2-7.7-5.2-3.2 0-7.2 1.3-7.2 5.4 0 6.7 9.7 4.3 9.7 6.8 0 1.1-.8 1.6-2.2 1.6-.6 0-1.2-.4-1.6-.7s-.6-.7-.6-1.5h-5.4c.1 4.5 4 6.2 7.4 6.2 6.4 0 8.3-3 8.3-6.3 0-6.4-10.2-4.4-10.1-6.7z"/><path d="m361.2 73.8c0-3.8-.4-6.9-7.6-6.9-6 0-8 2.3-7.9 6h5.4c.1-1.4 1.4-2 2.2-2 .6 0 2 .2 2 1.3 0 3.5-10.4.3-10.4 7.7 0 3.3 3.3 4.7 5 4.6 2.3-.1 4-.5 5.7-2.2l.7 1.7h5.3c-.4-.4-.4-10.2-.4-10.2zm-8.8 7.2c-1.2 0-1.7-.9-1.7-1.7 0-1.4 2.7-1.3 4.6-2.3.2 2.2-.8 4-2.9 4z"/><path d="m300.5 60.4h-10.3v23.8h6.7v-7.4h3.9c6 0 8.9-3.4 8.9-8.1-.1-4.6-3.2-8.3-9.2-8.3zm-.3 11.2h-3.3v-5.4h2.4c1.4 0 3.6.4 3.6 2.5 0 1.9-1.1 2.9-2.7 2.9z"/><path d="m407.3 67c-2.3 0-3.2.4-5.4 2.5v-1.8h-5.5v16.5h5.5v-8.7c0-2 1-3.3 2.8-3.3 1.7 0 2.1.9 2.1 2.5v9.5h6v-10.1c.1-4.4-1.5-7.1-5.5-7.1z"/><path d="m338.2 67c-2.3 0-3.2.4-5.4 2.5v-1.8h-5.5v16.5h5.8v-8.7c0-2 .8-3.5 2.6-3.5 1.7 0 2 1.2 2 2.8v9.4h6v-10.1c.1-4.4-1.5-7.1-5.5-7.1z"/><path d="m350 236h29.1v12h-29.1z"/><path d="m359.3 228.2c0-.5 2.3-.9 5.2-.9s5.2.4 5.2.9-2.3.9-5.2.9-5.2-.4-5.2-.9z"/></g><path d="m354.8 241.5c.9 0 1.5.2 1.9.5s.6.7.6 1.2-.2 1-.7 1.3-1.1.5-1.9.5c-.7 0-1.2-.1-1.6-.4s-.6-.6-.6-.9c0-.2.1-.4.3-.6.2-.1.4-.2.6-.2s.4.1.6.2.2.3.2.5c0 .3-.2.5-.5.7-.1 0-.1.1-.1.1 0 .1.1.2.3.2.2.1.4.1.6.1.7 0 1-.5 1-1.5s-.4-1.5-1.3-1.5h-.7c-.1 0-.2-.1-.2-.2s.1-.2.2-.2h.5c.5 0 .9-.1 1-.3.2-.2.3-.6.3-1s-.1-.8-.2-1-.4-.3-.7-.3c-.2 0-.3 0-.5.1s-.2.1-.2.2.1.1.2.2c.3.2.4.4.4.6s-.1.3-.2.5c-.1.1-.3.2-.5.2s-.4-.1-.6-.2-.3-.3-.3-.5c0-.3.2-.6.6-.9.4-.2.9-.4 1.4-.4.7 0 1.2.1 1.6.4s.7.6.7 1.1c.2.8-.6 1.3-2.2 1.5z" fill="#35383b"/><path d="m362.7 238.7v5.8h.6c.9 0 1.4-.2 1.6-.7s.3-1.2.3-2.4c0-.9-.1-1.5-.2-1.9s-.3-.6-.5-.7-.5-.2-.9-.2zm-1.7 5.9v-5.8h-.9v-.3h3.7c1.1 0 1.9.3 2.5.9s.9 1.4.9 2.3c0 .5-.1.9-.3 1.3s-.5.8-.9 1.1-.8.6-1.2.7-.9.1-1.5.1h-3.2v-.3z" fill="#35383b"/><path d="m374.2 241.7c0-1 0-1.6-.1-2 0-.3-.1-.6-.3-.8s-.5-.3-.8-.3-.6.1-.8.2c-.2.2-.3.4-.4.8 0 .3-.1 1-.1 2s0 1.6.1 2c0 .3.2.6.3.8.2.2.5.3.8.3s.6-.1.8-.2c.2-.2.3-.4.4-.7.1-.5.1-1.1.1-2.1zm-4.4-.1c0-1 .3-1.8 1-2.4.6-.6 1.4-.9 2.3-.9.8 0 1.6.3 2.2.9.7.6 1 1.4 1 2.5 0 1-.3 1.8-.9 2.4s-1.4.9-2.3.9c-1 0-1.8-.3-2.4-1-.6-.6-.9-1.4-.9-2.4z" fill="#35383b"/><path d="m360.1 219.6c0-2.4 2-4.4 4.4-4.4s4.4 2 4.4 4.4-2 4.4-4.4 4.4c-2.4.1-4.4-1.9-4.4-4.4z" fill="#90979a"/><path d="m360.4 208.1c-.6.4-.8 2.9-.8 2.9s.2 2.5.8 2.9 4.1.7 4.1.7 3.5-.3 4.1-.7.8-2.9.8-2.9-.2-2.5-.8-2.9-4.1-.7-4.1-.7-3.4.3-4.1.7z" fill="#90979a"/><path d="m359.3 201.9 5.2-5.1 5.2 5.1-5.2 5.2z" fill="#90979a"/><path d="m349.9 189h29.1v59h-29.1z" fill="none" stroke="#90979a" stroke-miterlimit="10"/><path d="m173.5 223.1v11.7l-11.7-5.8z" fill="#373f43"/><path d="m161.8 223.1v11.7l-11.7-5.8z" fill="#373f43"/><path d="m148 83.4v11.7l11.7-5.9z" fill="#373f43"/><path d="m159.7 83.4v11.7l11.7-5.9z" fill="#373f43"/><path d="m98.3 154.8v7.8l-7.8-3.9z" fill="#373f43"/><path d="m90.5 154.8v7.8l-7.8-3.9z" fill="#373f43"/><path d="m80.5 154.8h2.2v7.8h-2.2z" fill="#373f43"/><path d="m222.2 154.8v7.8l7.8-3.9z" fill="#373f43"/><path d="m230 154.8v7.8l7.9-3.9z" fill="#373f43"/><path d="m237.8 154.8h2.2v7.8h-2.2z" fill="#373f43"/><path d="m303.3 132.1h11.3v11.3h-11.3z" fill="#90979a"/><path d="m413 131.8h4.6v11.4h-4.6z" fill="#90979a"/><path d="m419.7 131.8h4.6v11.4h-4.6z" fill="#90979a"/><path d="m388 143.2v-11.3l13.3 5.6z" fill="#90979a"/><path d="m400 136.4h13v1.8h-13z" fill="#90979a" transform="matrix(.5319 -.8468 .8468 .5319 74.0218 408.5212)"/><ellipse cx="160.2" cy="158.6" fill="#211915" rx="15.9" ry="15.9" transform="matrix(.1602 -.9871 .9871 .1602 -22.0359 291.387)"/><circle cx="160.3" cy="158.7" fill="#97897f" r="57.3"/><path d="m146.5 102.7v37.3c0 1.5-.4 2.8-1.4 3.7-1 .9-2.4 1.2-4.1 1.2h-37.3" fill="none" stroke="#211915" stroke-miterlimit="10" stroke-width=".25"/><path d="m104.2 172.3h37.3c1.5 0 2.8.4 3.7 1.4.9 1 1.2 2.4 1.2 4.1v37.3" fill="none" stroke="#211915" stroke-miterlimit="10" stroke-width=".25"/><path d="m174.1 214.8v-37.3c0-1.5.4-2.8 1.4-3.7 1-.9 2.4-1.2 4.1-1.2h37.3" fill="none" stroke="#211915" stroke-miterlimit="10" stroke-width=".25"/><path d="m216.6 145.1h-37.3c-1.5 0-2.8-.4-3.7-1.4-.9-1-1.2-2.4-1.2-4.1v-37.3" fill="none" stroke="#211915" stroke-miterlimit="10" stroke-width=".25"/><path d="m160.3 145.9c-7.1 0-13 5.8-13 12.8 0 7.1 5.8 12.8 13 12.8s13-5.7 13-12.8c-.1-7-5.9-12.8-13-12.8z" fill="#8e837b"/><path d="m451.7 10.1-107.9-2.7v-5.3c0-1.1.9-2 2-2l104.5 3.5c.8 0 1.4.7 1.4 1.6z" fill="#41403e"/><path d="m359.7 7.4c-67.1 0-129.4 5.8-180.8 15.7s-91.9 23.9-115.5 40.4l-.5.3c-37.3 25.4-62 69.2-62 118.9 0 78.6 61.4 142.3 137.1 142.3 21.1 0 41.1-4.9 59-13.8l.1-.1.1-.1h.1c45.6-23 100.8-37.5 167.4-37.5h3.5c66.6 0 121.8 14.5 167.4 37.5l.1.1h.1v.1c17.9 8.8 37.9 13.8 59 13.8 75.7 0 137.2-63.7 137.2-142.2 0-49.7-24.6-93.5-62-118.9l-.5-.3c-23.7-16.5-64.1-30.4-115.5-40.3s-113.7-15.7-180.8-15.7h-13.5z" fill="none" stroke="#211915" stroke-miterlimit="10" stroke-width=".5"/><path d="m665.5 60.7c-20.6-12.9-44.8-20.3-70.6-20.3-75.7 0-137.2 63.7-137.2 142.2 0 58 33.5 107.8 81.5 129.9" fill="none" stroke="#211915" stroke-miterlimit="10" stroke-width=".5"/><path d="m191.3 313.6c49.4-21.9 83.9-71.1 83.9-128.4 0-77.6-63.2-140.5-141.2-140.5-26.6 0-51.5 7.3-72.7 20" fill="none" stroke="#211915" stroke-miterlimit="10" stroke-width=".5"/><ellipse cx="579.9" cy="158.7" fill="#211915" rx="31" ry="32.2"/><ellipse cx="579.9" cy="158.7" fill="#9f9288" rx="28.6" ry="29.7"/><circle cx="579.9" cy="158.7" fill="#8e837b" r="7.1"/></g></svg>