<svg enable-background="new 0 0 400 157.8" viewBox="0 0 400 157.8" xmlns="http://www.w3.org/2000/svg"><path d="m149.5 73.1v10.9h-90.5c-33.3 0-48.1 16.8-48.1 54.7h-10.9c0-43.4 19.9-65.5 59-65.5z" fill="#60605d"/><path d="m139.4 61.2v15.6h-2.9v-14.4l-3.6 1.3v13h-2.9v-11.7l-4.3 1.6v10.1h-2.9v-8.9l-4.3 1.6v18.1l4.3 1.6v-9.6h2.9v10.7l4.3 1.6v-12.2h2.9v13.2l3.6 1.4v-14.6h2.9v15.7l6.5 2.4v-39.1" fill="#868580"/><path d="m143.7 144.8v-131.8c0-7.2 5.8-13 13-13h230.3c7.2 0 13 5.8 13 13v131.8c0 7.2-5.8 13-13 13h-230.3c-7.2 0-13-5.8-13-13z" fill="#c9c9c9"/><path d="m190.8 123.8v-91.2c0-2.4 2-4.3 4.3-4.3h127.4c2.4 0 4.3 2 4.3 4.3v91.2c0 2.4-2 4.3-4.3 4.3h-127.4c-2.5 0-4.3-1.9-4.3-4.3z" fill="#dcdbdb"/><path d="m165.6 123.8v-29c0-2.4 2-4.3 4.3-4.3h57.9c2.4 0 4.3 2 4.3 4.3v29c0 2.4-2 4.3-4.3 4.3h-57.8c-2.4 0-4.4-1.9-4.4-4.3z" fill="#60605d"/><path d="m161.8 123.8v-29c0-2.4 2-4.3 4.3-4.3h57.9c2.4 0 4.3 2 4.3 4.3v29c0 2.4-2 4.3-4.3 4.3h-57.9c-2.5 0-4.3-1.9-4.3-4.3z" fill="#868580"/><path d="m165.6 61.5v-29c0-2.4 2-4.3 4.3-4.3h57.9c2.4 0 4.3 2 4.3 4.3v29c0 2.4-2 4.3-4.3 4.3h-57.8c-2.4.1-4.4-1.9-4.4-4.3z" fill="#60605d"/><path d="m161.8 61.5v-29c0-2.4 2-4.3 4.3-4.3h57.9c2.4 0 4.3 2 4.3 4.3v29c0 2.4-2 4.3-4.3 4.3h-57.9c-2.5.1-4.3-1.9-4.3-4.3z" fill="#868580"/></svg>