<svg viewBox="0 0 281.2 117.4" xmlns="http://www.w3.org/2000/svg"><path d="m-40.5 139.4v-103.5" fill="#1d1f20"/><path d="m70.8 99.6v-3.9" fill="none" stroke="#45444c" stroke-miterlimit="10" stroke-width=".25"/><path d="m125 98.4h152.4v-60.2h-152.3s-1.7-.8-1.7-1.5v-32.5h-105.1v109.2c0 .1.1.1.1.1l105.6-.2v-13.2c0-.9.1-1.7 1-1.7z" fill="#1b1b1d"/><path d="m120.7 111.6h-100c-.3 0-.5-.2-.5-.5v-105.4c0-.2.2-.4.4-.4h100.3c.2 0 .4.2.4.4v30.9c0 1.8 1.5 3.3 3.3 3.3h149.2c.9 0 1.6.7 1.6 1.6v54.7c0 .9-.7 1.6-1.6 1.6h-149.1c-1.8 0-3.3 1.5-3.3 3.3v9.9c-.1.4-.4.6-.7.6zm-100.1-106c-.1 0-.1.1-.1.1v105.5c0 .1.1.2.2.2h100c.2 0 .4-.2.4-.4v-9.9c0-2 1.6-3.6 3.6-3.6h149.2c.7 0 1.3-.6 1.3-1.3v-54.7c0-.7-.6-1.3-1.3-1.3h-149.2c-2 0-3.6-1.6-3.6-3.6v-30.8c0-.1-.1-.2-.2-.2z"/><path d="m174.3 52.2h43v43h-43z" fill="#595763"/><circle cx="195.8" cy="73.8" fill="#060606" r="17.8"/><circle cx="195.8" cy="73.8" fill="#1a1d1f" r="17.5"/><circle cx="195.8" cy="73.8" fill="#060606" r="13.4"/><circle cx="195.8" cy="73.8" fill="#151618" r="13"/><path d="m174.4 43.1h43v7.2h-43z" fill="#841116"/><path d="m194.7 47.2v-1.1c0-.3.1-.4.3-.4h3.4v.7h-3v.7h2.6c.2 0 .4.2.4.5v1.1c0 .3-.1.4-.3.4h-3.4v-.7h3v-.7h-2.7c-.2 0-.3-.2-.3-.5zm3.9-.9v-.7h3.7v.7h-1.5v2.7h-.7v-2.7zm3.5 2.7 1.7-3.4h.8l1.3 3.4h-.8l-.3-.7h-1.6l.3-.7h1l-.4-1.1-1.2 2.5zm4.3-3.3h3.4c.2 0 .3.1.3.4v1.1c0 .3-.1.5-.3.5h-1l1.2 1.3h-.8l-1.2-1.3h-.9v-.7h2.3v-.7h-2.3v2.7h-.7zm3.9.6v-.7h3.7v.7h-1.5v2.7h-.7v-2.7z" fill="#fff"/><path d="m187.1 49h-.6v-3.5h-1.1v-.5c.5-.1.8-.1.9-.2s.3-.4.4-.7h.4z" fill="#fff"/><path d="m221.3 52.2h43v43h-43z" fill="#595763"/><circle cx="242.8" cy="73.8" fill="#060606" r="17.8"/><circle cx="242.8" cy="73.8" fill="#1a1d1f" r="17.5"/><circle cx="242.8" cy="73.8" fill="#060606" r="13.4"/><circle cx="242.8" cy="73.8" fill="#151618" r="13"/><path d="m221.4 43.1h43v7.2h-43z" fill="#841116"/><path d="m233.7 45.6c0 .3-.1.6-.3.9-.2.2-.3.4-.6.5l-.9.5c-.5.3-.8.6-.9 1h2.6v.6h-3.3c0-.9.3-1.5.9-1.8l1.2-.7c.4-.3.6-.6.6-.9s-.1-.5-.3-.7-.4-.3-.7-.3c-.6 0-1 .4-1 1.2h-.6c0-1.1.6-1.7 1.7-1.7.4 0 .7.1 1 .4.5.1.6.5.6 1z" fill="#fff"/><path d="m170.7 52.2h.7v43h-.7zm-3.4 0h.7v43h-.7zm-3.3-.1h.7v43h-.7zm-3.3.1h.7v43h-.7zm-3.4-.1h.7v43h-.7zm-3.3.1h.7v43h-.7zm-3.4-.1h.7v43h-.7zm-3.3.1h.7v43h-.7zm-3.4 0h.7v43h-.7zm-3.3 0h.7v43h-.7zm-3.4 0h.7v43h-.7zm-3.3 0h.7v43h-.7zm-3.4 0h.7v43h-.7zm-3.3-.1h.7v43h-.7zm-3.3.1h.7v43h-.7zm-3.4-.1h.7v43h-.7z" fill="#595763"/><g fill="#fff"><path d="m125.1 78.5h5.5c2.3 0 4.1-1.8 4.1-4.1s-1.8-4.1-4.1-4.1h-1.4c-.1 0-.2-.1-.2-.2s.1-.2.2-.2h5.5v-1.7h-5.5c-1.1 0-1.9.9-1.9 1.9 0 1.1.9 1.9 1.9 1.9h1.4c1.3 0 2.3 1 2.3 2.3s-1 2.3-2.3 2.3h-5.5z"/><path d="m125.1 76.3h5.5c1.1 0 1.9-.9 1.9-1.9 0-1.1-.9-1.9-1.9-1.9h-1.4c-1.3 0-2.3-1-2.3-2.3s1-2.3 2.3-2.3h5.5v-1.7h-5.5c-2.3 0-4.1 1.8-4.1 4.1s1.8 4.1 4.1 4.1h1.4c.1 0 .2.1.2.2s-.1.2-.2.2h-5.5zm13.8.4c-1 0-1.7-.8-1.7-1.7v-5.5c0-.9.8-1.7 1.7-1.7h5.9v-1.7h-5.9c-1.9 0-3.5 1.6-3.5 3.5v5.5c0 1.9 1.5 3.5 3.5 3.5h5.9v-1.7z"/><path d="m137.6 69.5c0-.7.6-1.3 1.3-1.3h5.9v1.7h-5.1c-.4 0-.4.4-.4.4h4.2v1.7h-5.9zm1.3 6.8c-.7 0-1.3-.6-1.3-1.3v-2.5h5.9v1.7h-4.2c0 .4.4.4.4.4h5v1.7zm10 .4c-1 0-1.7-.8-1.7-1.7v-5.5c0-1 .8-1.7 1.7-1.7h5.7v-1.7h-5.7c-1.9 0-3.5 1.6-3.5 3.5v5.5c0 1.9 1.6 3.5 3.5 3.5h5.7v-8.2h-4.9v1.7h3.2v4.7z"/><path d="m147.6 75c0 .7.6 1.3 1.3 1.3h3.6v-3.9h-2.8v1.7h1v.4h-1c-.2 0-.4-.2-.4-.4v-3.9s0-.4.4-.4h4.9v-1.7h-5.7c-.7 0-1.3.6-1.3 1.3zm12.4-6.8c.1-.2.3-.4.5-.4s.5.2.5.4l2.8 8.2h-4v-1.9h1.4l-.6-1.8-2 5.9h-2z"/><path d="m164.4 76.7h-4.6v1.7h7l-3.6-10.8c-.3-1.1-1.4-1.8-2.6-1.8s-2.3.8-2.6 1.8l-3.7 10.8h1.8l3.6-10.5c.1-.3.5-.6.9-.6s.7.2.9.6z"/></g><path d="m70.8 57.1 39.9-39.7h-79.8zm0 2.9-39.9 39.6h79.8zm-1.4-1.5-39.7-39.9v79.8zm2.9 0 39.7 39.9v-79.8z" fill="#45444c"/><path d="m70.8 95.7h1.6l-.8 1.7-.8 1.8-.7-1.8-.8-1.7zm37.2-37.2v-1.5l1.7.7 1.8.8-1.8.8-1.7.8zm-37.2-37.2h-1.5l.8-1.8.7-1.7.8 1.7.8 1.8zm-37.1 37.2v1.6l-1.8-.8-1.7-.8 1.7-.8 1.8-.7z" fill="#fff"/><path d="m53.9 94.2c-10.3 0-18.7-8.4-18.7-18.7v-33.8c0-10.3 8.4-18.7 18.7-18.7h33.8c10.3 0 18.7 8.4 18.7 18.7v33.8c0 10.3-8.4 18.7-18.7 18.7z" fill="#1d1e20"/><path d="m53.9 89.2c-7.6 0-13.7-6.1-13.7-13.7v-33.8c0-7.6 6.1-13.7 13.7-13.7h33.8c7.6 0 13.7 6.1 13.7 13.7v33.8c0 7.6-6.1 13.7-13.7 13.7z"/><path d="m87.7 87.7h-33.8c-6.7 0-12.2-5.5-12.2-12.2v-33.8c0-6.7 5.5-12.2 12.2-12.2h33.8c6.7 0 12.2 5.5 12.2 12.2v33.8c0 6.7-5.5 12.2-12.2 12.2z" fill="#1e2021"/><path d="m56.1 74.2 1.4 1.4-2.3.9-2.2.8.9-2.2.8-2.3z" fill="#202122" stroke="#000" stroke-miterlimit="10" stroke-width=".1"/><path d="m84.9 74.2 1.4-1.4.8 2.3.9 2.2-2.3-.8-2.2-.9zm0-30.2-1.4-1.4 2.2-.8 2.3-.9-.9 2.2-.8 2.3zm-28.8 0-1.4 1.4-.9-2.3-.8-2.2 2.2.9 2.3.8z" fill="#252526" stroke="#000" stroke-miterlimit="10" stroke-width=".1"/><path d="m70.8 44.4c-.8 0-1.5-.7-1.5-1.5v-8c0-.8.7-1.5 1.5-1.5s1.5.7 1.5 1.5v8c0 .8-.6 1.5-1.5 1.5zm0 40.4c-.8 0-1.5-.7-1.5-1.5v-8c0-.8.7-1.5 1.5-1.5s1.5.7 1.5 1.5v8c0 .8-.6 1.5-1.5 1.5zm-14.3-26.3c0 .8-.7 1.5-1.5 1.5h-8c-.8 0-1.5-.7-1.5-1.5s.7-1.5 1.5-1.5h8c.8 0 1.5.7 1.5 1.5zm39 .1c0 .8-.7 1.5-1.5 1.5h-8c-.8 0-1.5-.7-1.5-1.5s.7-1.5 1.5-1.5h8c.8 0 1.5.6 1.5 1.5z" fill="#252526" stroke="#000" stroke-miterlimit="10" stroke-width=".25"/><circle cx="70.8" cy="58.5" fill="#1a1c1d" r="10.8"/><path d="m111.2 103.2h-80.9c-2.2 0-4-1.8-4-4v-83.7c0-2.2 1.8-4.1 4-4.1h6.5v1.5h-6.5c-1.4 0-2.5 1.1-2.5 2.6v83.7c0 1.4 1.1 2.5 2.5 2.5h80.9c1.4 0 2.6-1.1 2.6-2.5v-83.7c0-1.4-1.1-2.6-2.6-2.6h-6.4v-1.5h6.4c2.2 0 4.1 1.8 4.1 4.1v83.7c-.1 2.2-1.9 4-4.1 4z" fill="#931416"/><path d="m45.7 14.7v.5l-.6.1.2-1.3h.5v1.3c-.6.3-1.2.4-1.8.4-1.8 0-3-1.3-3-3.2 0-1.8 1.3-3.2 3-3.2.5 0 1.1.1 1.7.4v1.3h-.5l-.2-1.3.6.1v.5c-.5-.5-1-.6-1.4-.6-1.2 0-2.2.9-2.2 2.7s.9 2.7 2.1 2.7c.5.2 1.1 0 1.6-.4zm6.5-2.1c0 2-1.4 3.2-2.7 3.2s-2.8-1.1-2.8-3.2c0-2 1.4-3.2 2.8-3.2s2.7 1.1 2.7 3.2zm-2.7 2.7c1.3 0 1.8-1.4 1.8-2.7 0-1.4-.5-2.7-1.8-2.7s-1.8 1.4-1.8 2.7.5 2.7 1.8 2.7zm3.3-.1.9-.1h.3l1 .1v.4h-2.2zm.6-5.4.6.2-1.1-.1v-.4h1.4l3.7 5.1v1h-.3s-4.3-5.8-4.3-5.8zm.2-.2.5.4v5.7h-.5zm3 0h2.2v.4l-.9.1h-.2l-1.1-.1zm.9 0h.5v6.1l-.5-.5zm2.2.4.4-.5-.3 1.6h-.5l.1-1.6h4.9l.1 1.6h-.5l-.3-1.6.4.5zm2.2 5.1 1.3.1v.4h-2.7v-.4l1.3-.1zm-.5-2.8v-2.8h.9v6h-.9zm3.5-2.4v-.4h1.3v.5h-.1s-1.2-.1-1.2-.1zm1.4 5.2 1.2.1v.4h-2.5v-.4l1.2-.1zm-.5-2.8v-2.8h.9v6.1h-.9zm.4.1h1.1c1 0 1.4-.5 1.4-1.3s-.4-1.2-1.3-1.2h-1.2v-.4h1.2c1.4 0 2.2.6 2.2 1.6 0 .8-.6 1.5-1.8 1.6v-.1c.6.1 1 .4 1.3 1.2l.4 1.5-.3-.2.9.1v.4c-.2.1-.4.1-.6.1-.6 0-.8-.1-.9-.6l-.4-1.5c-.2-.7-.5-.9-1.3-.9h-.9v-.3zm9.9.2c0 2-1.4 3.2-2.7 3.2s-2.8-1.1-2.8-3.2c0-2 1.4-3.2 2.8-3.2s2.7 1.1 2.7 3.2zm-2.7 2.7c1.3 0 1.8-1.4 1.8-2.7 0-1.4-.5-2.7-1.8-2.7s-1.8 1.4-1.8 2.7c-.1 1.3.5 2.7 1.8 2.7zm3.3-5.4v-.4h2.5v.4l-1.2.1h-.2s-1.1-.1-1.1-.1zm1.3 5.2v.5h-1.3v-.4zm-.5-5.5h.9v6h-.9v-3.2c.1-1 .1-1.9 0-2.8zm3.8 4.3-.1 1.7h-3.2v-.5h2.9l-.5.5.4-1.7zm2.9-4v-.4h1.3v.5h-.1s-1.2-.1-1.2-.1zm1.3 5.2 1.2.1v.4h-2.5v-.4l1.2-.1zm-.5-2.8v-2.8h.9v6h-.9zm1.3.9h-.9v-.4h1c1.1 0 1.5-.6 1.5-1.4 0-.9-.5-1.4-1.6-1.4h-1v-.4h1.2c1.5 0 2.3.7 2.3 1.8.1 1-.6 1.8-2.5 1.8zm2.3 2 .9-.1h.2l1 .1v.4h-2.1zm2.7-5.7h.5l2.1 6.1h-.9l-1.8-5.4h.2l-1.8 5.4h-.4s2.1-6.1 2.1-6.1zm-1.1 3.7h2.4l.1.4h-2.7zm1.8 2 1.1-.1h.2l1.1.1v.4h-2.4zm2.8-5.3v-.4h1.3v.5h-.1zm1.3 5.2v.5h-1.3v-.4zm-.4-2.8v-2.8h.9v6h-.9zm.4 2.9h1.2c1.4 0 2.2-1 2.2-2.6 0-1.7-.8-2.6-2.1-2.6h-1.2v-.4h1.4c1.7 0 2.9 1.1 2.9 3s-1.3 3-3.1 3h-1.2v-.4z" fill="#fff"/><path d="m13.8 117.4h-6.9c-3.8 0-6.9-3.1-6.9-6.9v-103.5c0-3.8 3.1-6.9 6.9-6.9h6.9z" fill="#1d1f20"/><path d="m13.8 0h5.1v117.3h-5.1z" fill="#191919"/><path d="m125.1 38.2c-1.2 0-1.7-.6-1.7-1.5v-34.9c0-.9.8-1.7 1.7-1.7h6.9l-2.5 33.3c-1.6 1.8-3.1 3.4-4.4 4.8z" fill="#212121"/><path d="m281.2 33.4h-151.7c-.4 0-.7-.3-.7-.7v-29.5c0-1.7 1.4-3.2 3.2-3.2h142.8c3.5 0 6.3 2.8 6.3 6.2v27.2z" fill="#2b2b2d"/><path d="m125.1 38.2h156.1v-4.8h-151.7z" fill="#161616"/><path d="m279.2 100.6c1.1 0 1.9-.9 1.9-1.9v-60.4c0-1-.9-1.9-1.9-1.9s-1.9.9-1.9 1.9v60.5c0 1 .9 1.8 1.9 1.8z" fill="#131315"/><path d="m126.1 98.4h155.1v4.9l-153.1.1z" fill="#3c3c3c"/><path d="m124.9 98.4h1.2l7.7 19h-10.4v-17.4c0-.9.7-1.6 1.5-1.6z" fill="#161616"/><path d="m274.8 117.4h-143.7c-1.8 0-3.2-1.5-3.2-3.2v-10.2c0-.4.3-.7.7-.7h152.6v7.7c0 3.5-2.9 6.4-6.4 6.4z" fill="#1d1f21"/><path d="m16.9 115.3c.3 0 .5-.2.5-.5v-1.5h107.9v1.4c0 .3.2.5.5.5h.5v2.2h-109.9v-2.1zm0-113.1c.3 0 .5.2.5.5v1.5h107.9v-1.5c0-.3.2-.5.5-.5h.5v-2.1h-109.9v2.1z" fill="#242628"/></svg>