<svg viewBox="0 0 200 83.4" xmlns="http://www.w3.org/2000/svg"><path d="m200 80.4c0 1.3-1.1 2.4-2.4 2.4h-125.1c-1.3 0-2.4-1.1-2.4-2.4v-77.4c0-1.3 1.1-2.4 2.4-2.4h125.1c1.3 0 2.4 1.1 2.4 2.4z" fill="#0b0b0b"/><path d="m199.5 3v77.4c0 1-.8 1.8-1.8 1.8h-125.2c-1 0-1.8-.8-1.8-1.8v-77.4c0-1 .8-1.8 1.8-1.8h125.1c1 0 1.9.8 1.9 1.8z" fill="#282828"/><path d="m48.3 83.4v-2.2h20.7v2.2z" fill="#989d9b"/><path d="m47.5 79.1v-74.7h25.2v74.6h-25.2z" fill="#0b0b0b"/><path d="m47.9 78.7v-73.9h24.4v73.8h-24.4z" fill="#282828"/><path d="m48.3 78.2v-73h23.6v73z" fill="#0e0e0e"/><path d="m46.2 82.8h-42.7c-1.2 0-2.2-1-2.2-2.2v-77.8c0-1.2 1-2.2 2.2-2.2h42.7c1.2 0 2.2 1 2.2 2.2v77.9c-.1 1.1-1.1 2.1-2.2 2.1z" fill="#0b0b0b"/><path d="m48.3 2.8v77.9c0 1-.9 1.9-1.9 1.9h-43c-1 0-1.9-.9-1.9-1.9v-77.9c0-1 .9-1.9 1.9-1.9h43c1.1 0 1.9.9 1.9 1.9z" fill="#282828"/><path d="m48.3 3.7v76.2c0 1-.9 1.9-1.9 1.9h-42.1c-1 0-1.9-.9-1.9-1.9v-76.2c0-1 .9-1.9 1.9-1.9h42.2c1 0 1.8.8 1.8 1.9z" fill="#0e0e0e"/><path d="m42.6 41.7c0 10.6-8.6 19.2-19.2 19.2s-19.2-8.6-19.2-19.2 8.6-19.2 19.2-19.2 19.2 8.6 19.2 19.2z" fill="#121212"/><path d="m41.8 41.7c0 10.1-8.2 18.4-18.4 18.4s-18.3-8.2-18.3-18.4 8.2-18.4 18.4-18.4 18.3 8.3 18.3 18.4z" fill="#0a0a0a"/><path d="m38.3 42.5v-1.5h4.3v1.5z" fill="#121212"/><path d="m36.7 41.7c0 10.1-8.2 18.4-18.4 18.4s-18.3-8.2-18.3-18.4 8.2-18.4 18.4-18.4 18.3 8.3 18.3 18.4z" fill="#101010"/><path d="m36.2 41.7c0 9.8-8 17.8-17.8 17.8s-17.8-8-17.8-17.8 8-17.8 17.8-17.8 17.8 8 17.8 17.8z" fill="#282829"/><circle cx="18.4" cy="41.7" fill="#d8d9d8" r="14.5"/><path d="m48.3 81.2v-2.2h20.7v2.2z" fill="#8e8f8e"/><path d="m48.3 2.2v-2.2h20.7v2.2z" fill="#989d9b"/><path d="m48.3 4.4v-2.2h20.7v2.2z" fill="#8e8f8e"/><path d="m199.5 3.5v76.5c0 1-.8 1.8-1.8 1.8h-124.4c-1 0-1.8-.8-1.8-1.8v-76.5c0-1 .8-1.8 1.8-1.8h124.4c.9 0 1.8.8 1.8 1.8z" fill="#0e0e0e"/><path d="m70 76.3h-19.7c-.7 0-1.3-.6-1.3-1.3v-66.5c0-.7.6-1.3 1.3-1.3h19.7l4-5.2h120.7c.8 0 1.5.7 1.5 1.5v76.5c0 .8-.7 1.5-1.5 1.5h-120.7z" fill="#181818"/><path d="m118 58.2v13.2c0 1.8-1.5 3.3-3.3 3.3h-14.5c-1.8 0-3.3-1.5-3.3-3.3v-13.2c0-1.8 1.5-3.3 3.3-3.3h14.5c1.9 0 3.3 1.5 3.3 3.3z" fill="#282627"/><path d="m118 58.7v12.3c0 1.8-1.5 3.3-3.3 3.3h-12.7c-1.8 0-3.3-1.5-3.3-3.3v-12.3c0-1.8 1.5-3.3 3.3-3.3h12.7c1.9 0 3.3 1.5 3.3 3.3z" fill="#939393"/><path d="m118 58.6v12.4c0 1.8-1.5 3.3-3.3 3.3h-10.9c-1.8 0-3.3-1.5-3.3-3.3v-12.4c0-1.8 1.5-3.3 3.3-3.3h10.9c1.9 0 3.3 1.5 3.3 3.3z" fill="#b3b3b3"/><path d="m106 64.4.8 1.6-.9.2-1-2v-1h8.9v1.2z"/><path d="m118 35.1v13.2c0 1.8-1.5 3.3-3.3 3.3h-14.5c-1.8 0-3.3-1.5-3.3-3.3v-13.2c0-1.8 1.5-3.3 3.3-3.3h14.5c1.9 0 3.3 1.5 3.3 3.3z" fill="#282627"/><path d="m118 35.6v12.4c0 1.8-1.5 3.3-3.3 3.3h-12.7c-1.8 0-3.3-1.5-3.3-3.3v-12.4c0-1.8 1.5-3.3 3.3-3.3h12.7c1.9 0 3.3 1.5 3.3 3.3z" fill="#939393"/><path d="m118 35.6v12.4c0 1.8-1.5 3.3-3.3 3.3h-10.9c-1.8 0-3.3-1.5-3.3-3.3v-12.4c0-1.8 1.5-3.3 3.3-3.3h10.9c1.9 0 3.3 1.5 3.3 3.3z" fill="#b3b3b3"/><text font-family="'MyriadHebrew-Regular'" font-size="14.8311" transform="matrix(0 -1 1 0 111.3048 45.5366)">1</text><path d="m118 35.2v13.2c0 1.8-1.5 3.3-3.3 3.3h-14.5c-1.8 0-3.3-1.5-3.3-3.3v-13.2c0-1.8 1.5-3.3 3.3-3.3h14.5c1.9 0 3.3 1.5 3.3 3.3z" fill="#282627"/><path d="m118 35.7v12.3c0 1.8-1.5 3.3-3.3 3.3h-12.7c-1.8 0-3.3-1.5-3.3-3.3v-12.3c0-1.8 1.5-3.3 3.3-3.3h12.7c1.9 0 3.3 1.5 3.3 3.3z" fill="#939393"/><path d="m118 35.6v12.4c0 1.8-1.5 3.3-3.3 3.3h-10.9c-1.8 0-3.3-1.5-3.3-3.3v-12.4c0-1.8 1.5-3.3 3.3-3.3h10.9c1.9 0 3.3 1.5 3.3 3.3z" fill="#b3b3b3"/><path d="m113.8 44.6h-.7l-.9-1c-2.2-2.3-3.4-3.3-4.7-3.3-.9 0-1.8.4-1.8 1.8 0 .8.4 1.5.8 1.9l-.9.4c-.5-.6-.9-1.5-.9-2.5 0-1.9 1.3-2.7 2.6-2.7 1.6 0 3 1.2 4.8 3.1l.7.7v-4h1z"/><path d="m118 12.2v13.2c0 1.8-1.5 3.3-3.3 3.3h-14.5c-1.8 0-3.3-1.5-3.3-3.3v-13.2c0-1.8 1.5-3.3 3.3-3.3h14.5c1.9.1 3.3 1.5 3.3 3.3z" fill="#282627"/><path d="m118 12.7v12.4c0 1.8-1.5 3.3-3.3 3.3h-12.7c-1.8 0-3.3-1.5-3.3-3.3v-12.4c0-1.8 1.5-3.3 3.3-3.3h12.7c1.9 0 3.3 1.5 3.3 3.3z" fill="#939393"/><path d="m118 12.6v12.4c0 1.8-1.5 3.3-3.3 3.3h-10.9c-1.8 0-3.3-1.5-3.3-3.3v-12.4c0-1.8 1.5-3.3 3.3-3.3h10.9c1.9 0 3.3 1.5 3.3 3.3z" fill="#b3b3b3"/><path d="m112.4 21.2c.2-.4.6-1.1.6-2 0-1.6-1-2-1.7-2-1.2 0-1.8 1.2-1.8 2.3v.7h-.9v-.7c0-.9-.5-2-1.5-2-.7 0-1.3.5-1.3 1.6 0 .7.3 1.4.6 1.8l-.9.3c-.4-.5-.7-1.4-.7-2.3 0-1.8 1-2.6 2.1-2.6.9 0 1.7.5 2.1 1.6.2-1.1 1-2 2.3-2 1.4 0 2.7 1.1 2.7 3.3 0 1-.3 1.9-.6 2.3z"/><path d="m141.7 58.1v13.2c0 1.8-1.5 3.3-3.3 3.3h-14.5c-1.8 0-3.3-1.5-3.3-3.3v-13.2c0-1.8 1.5-3.3 3.3-3.3h14.5c1.9 0 3.3 1.5 3.3 3.3z" fill="#282627"/><path d="m141.7 58.6v12.4c0 1.8-1.5 3.3-3.3 3.3h-12.7c-1.8 0-3.3-1.5-3.3-3.3v-12.4c0-1.8 1.5-3.3 3.3-3.3h12.7c1.9 0 3.3 1.5 3.3 3.3z" fill="#939393"/><path d="m141.7 58.7v12.4c0 1.8-1.5 3.3-3.3 3.3h-10.9c-1.8 0-3.3-1.5-3.3-3.3v-12.4c0-1.8 1.5-3.3 3.3-3.3h10.9c1.9 0 3.3 1.5 3.3 3.3z" fill="#b3b3b3"/><path d="m137.5 64h-2.5v4.1h-.8l-5.7-4v-1.3h5.6v-1.3h.9v1.3h2.4zm-3.4 0h-3c-.5 0-.9 0-1.4-.1v.1c.5.3.9.5 1.3.7l3 2.2z"/><path d="m141.7 35.2v13.2c0 1.8-1.5 3.3-3.3 3.3h-14.5c-1.8 0-3.3-1.5-3.3-3.3v-13.2c0-1.8 1.5-3.3 3.3-3.3h14.5c1.9 0 3.3 1.4 3.3 3.3z" fill="#282627"/><path d="m141.7 35.6v12.4c0 1.8-1.5 3.3-3.3 3.3h-12.7c-1.8 0-3.3-1.5-3.3-3.3v-12.4c0-1.8 1.5-3.3 3.3-3.3h12.7c1.9 0 3.3 1.5 3.3 3.3z" fill="#939393"/><path d="m141.7 35.6v12.4c0 1.8-1.5 3.3-3.3 3.3h-10.9c-1.8 0-3.3-1.5-3.3-3.3v-12.4c0-1.8 1.5-3.3 3.3-3.3h10.9c1.9 0 3.3 1.5 3.3 3.3z" fill="#b3b3b3"/><path d="m129.5 39.1v3.4l2.3.4c0-.2-.1-.4-.1-.7 0-.7.2-1.4.5-1.9.4-.7 1.2-1.3 2.3-1.3 1.8 0 3 1.4 3 3.3 0 1-.3 1.8-.5 2.2l-.9-.3c.2-.4.5-1.1.5-1.9 0-1.1-.7-2.1-2-2.1-1.2 0-2 .8-2 2.6 0 .5.1.9.1 1.2l-4.3-.6v-4.3z"/><path d="m141.7 12.2v13.2c0 1.8-1.5 3.3-3.3 3.3h-14.5c-1.8 0-3.3-1.5-3.3-3.3v-13.2c0-1.8 1.5-3.3 3.3-3.3h14.5c1.9 0 3.3 1.5 3.3 3.3z" fill="#282627"/><path d="m141.7 12.7v12.3c0 1.8-1.5 3.3-3.3 3.3h-12.7c-1.8 0-3.3-1.5-3.3-3.3v-12.3c0-1.8 1.5-3.3 3.3-3.3h12.7c1.9 0 3.3 1.4 3.3 3.3z" fill="#939393"/><path d="m141.7 12.6v12.4c0 1.8-1.5 3.3-3.3 3.3h-10.9c-1.8 0-3.3-1.5-3.3-3.3v-12.4c0-1.8 1.5-3.3 3.3-3.3h10.9c1.9 0 3.3 1.5 3.3 3.3z" fill="#b3b3b3"/><path d="m129.4 16.6c0 .2 0 .5.1.9.3 1.9 1.7 2.9 3.2 3.1-.6-.4-1.1-1.2-1.1-2.2 0-1.6 1.2-2.7 2.9-2.7 1.6 0 3.2 1.1 3.2 3s-1.5 3.2-3.8 3.2c-1.8 0-3.2-.6-4-1.5-.7-.7-1.2-1.7-1.3-2.9-.1-.4-.1-.6-.1-.9zm5.2.3c-1.3 0-2.1.7-2.1 1.8 0 .7.4 1.4 1.1 1.8.1.1.3.1.5.1 1.5 0 2.6-.7 2.6-2 0-1-.9-1.7-2.1-1.7z"/><path d="m165.5 58.1v13.2c0 1.8-1.5 3.3-3.3 3.3h-14.5c-1.8 0-3.3-1.5-3.3-3.3v-13.2c0-1.8 1.5-3.3 3.3-3.3h14.5c1.8 0 3.3 1.5 3.3 3.3z" fill="#282627"/><path d="m165.5 58.6v12.4c0 1.8-1.5 3.3-3.3 3.3h-12.7c-1.8 0-3.3-1.5-3.3-3.3v-12.4c0-1.8 1.5-3.3 3.3-3.3h12.7c1.8 0 3.3 1.5 3.3 3.3z" fill="#939393"/><path d="m165.5 58.6v12.4c0 1.8-1.5 3.3-3.3 3.3h-10.9c-1.8 0-3.3-1.5-3.3-3.3v-12.4c0-1.8 1.5-3.3 3.3-3.3h10.9c1.8 0 3.3 1.5 3.3 3.3z" fill="#b3b3b3"/><path d="m152.3 61.9h.8l8.1 3.9v1.2l-7.9-3.9v4.4h-1z"/><path d="m165.5 35.2v13.2c0 1.8-1.5 3.3-3.3 3.3h-14.5c-1.8 0-3.3-1.5-3.3-3.3v-13.2c0-1.8 1.5-3.3 3.3-3.3h14.5c1.8 0 3.3 1.4 3.3 3.3z" fill="#282627"/><path d="m165.5 35.6v12.4c0 1.8-1.5 3.3-3.3 3.3h-12.7c-1.8 0-3.3-1.5-3.3-3.3v-12.4c0-1.8 1.5-3.3 3.3-3.3h12.7c1.8 0 3.3 1.5 3.3 3.3z" fill="#939393"/><path d="m165.5 35.6v12.4c0 1.8-1.5 3.3-3.3 3.3h-10.9c-1.8 0-3.3-1.5-3.3-3.3v-12.4c0-1.8 1.5-3.3 3.3-3.3h10.9c1.8 0 3.3 1.5 3.3 3.3z" fill="#b3b3b3"/><path d="m158.9 44.8c-1.1 0-1.9-.7-2.4-1.8h-.1c-.5 1-1.2 1.4-2 1.4-1.4 0-2.4-1.2-2.4-2.8 0-1.7 1.1-2.6 2.2-2.6.8 0 1.6.4 2.1 1.5.4-1.1 1.2-1.8 2.3-1.8 1.6 0 2.6 1.3 2.6 3 .1 2-1 3.1-2.3 3.1zm0-4.8c-1.1 0-1.6.8-2 2 .3 1 1 1.6 1.8 1.6.9.1 1.7-.6 1.7-1.8.1-1.1-.6-1.8-1.5-1.8zm-4.5 3.3c.9 0 1.4-.7 1.6-1.7-.3-.8-.8-1.3-1.6-1.3-.7 0-1.5.4-1.5 1.5.1 1 .7 1.5 1.5 1.5z"/><path d="m165.5 12.2v13.2c0 1.8-1.5 3.3-3.3 3.3h-14.5c-1.8 0-3.3-1.5-3.3-3.3v-13.2c0-1.8 1.5-3.3 3.3-3.3h14.5c1.8 0 3.3 1.5 3.3 3.3z" fill="#282627"/><path d="m165.5 12.7v12.3c0 1.8-1.5 3.3-3.3 3.3h-12.7c-1.8 0-3.3-1.5-3.3-3.3v-12.3c0-1.8 1.5-3.3 3.3-3.3h12.7c1.8 0 3.3 1.4 3.3 3.3z" fill="#939393"/><path d="m165.5 12.7v12.4c0 1.8-1.5 3.3-3.3 3.3h-10.9c-1.8 0-3.3-1.5-3.3-3.3v-12.4c0-1.8 1.5-3.3 3.3-3.3h10.9c1.8 0 3.3 1.5 3.3 3.3z" fill="#b3b3b3"/><path d="m160.3 21.2c0-.2 0-.5 0-1-.1-.7-.4-1.4-.9-1.9-.5-.6-1.3-1-2.4-1.2v.1c.6.5 1 1.2 1 2.1 0 1.6-1.2 2.6-2.7 2.6-1.7 0-3.2-1.2-3.2-3s1.5-3 3.8-3c2 0 3.4.7 4.2 1.5.7.7 1.1 1.6 1.2 2.6.1.4.1.8.1 1.1zm-5.1-.5c1.1 0 1.9-.7 1.9-1.7 0-.8-.4-1.4-1-1.7-.1-.1-.2-.1-.4-.1-1.5 0-2.7.6-2.7 1.8 0 1 .9 1.7 2.2 1.7z"/><path d="m190.8 58.1v13.2c0 1.8-1.5 3.3-3.3 3.3h-14.5c-1.8 0-3.3-1.5-3.3-3.3v-13.2c0-1.8 1.5-3.3 3.3-3.3h14.5c1.8 0 3.3 1.5 3.3 3.3z" fill="#282627"/><path d="m190.8 58.6v12.4c0 1.8-1.5 3.3-3.3 3.3h-12.7c-1.8 0-3.3-1.5-3.3-3.3v-12.4c0-1.8 1.5-3.3 3.3-3.3h12.7c1.8 0 3.3 1.5 3.3 3.3z" fill="#2f3133"/><path d="m190.8 58.6v12.4c0 1.8-1.5 3.3-3.3 3.3h-10.9c-1.8 0-3.3-1.5-3.3-3.3v-12.4c0-1.8 1.5-3.3 3.3-3.3h10.9c1.8 0 3.3 1.5 3.3 3.3z" fill="#36393b"/><path d="m178.2 64 3.3.4h.1l-2-2.6 1.3-.7 1.3 3 1.2-3 1.3.8-1.9 2.6 3.3-.3-.1 1.5-3.3-.4 1.9 2.5-1.3.7-1.2-2.9h-.1l-1.3 3-1.3-.7 1.9-2.6-3.2.4z" fill="#f4f4f4"/><path d="m190.8 35.2v13.2c0 1.8-1.5 3.3-3.3 3.3h-14.5c-1.8 0-3.3-1.5-3.3-3.3v-13.2c0-1.8 1.5-3.3 3.3-3.3h14.5c1.8 0 3.3 1.4 3.3 3.3z" fill="#282627"/><path d="m190.8 35.6v12.4c0 1.8-1.5 3.3-3.3 3.3h-12.7c-1.8 0-3.3-1.5-3.3-3.3v-12.4c0-1.8 1.5-3.3 3.3-3.3h12.7c1.8 0 3.3 1.5 3.3 3.3z" fill="#939393"/><path d="m190.8 35.6v12.4c0 1.8-1.5 3.3-3.3 3.3h-10.9c-1.8 0-3.3-1.5-3.3-3.3v-12.4c0-1.8 1.5-3.3 3.3-3.3h10.9c1.8 0 3.3 1.5 3.3 3.3z" fill="#b3b3b3"/><path d="m182 38.7c3 0 4.7 1.1 4.7 3.1 0 1.8-1.6 2.9-4.6 3-3 0-4.6-1.3-4.6-3.1 0-1.9 1.6-3 4.5-3zm.1 4.9c2.3 0 3.7-.7 3.7-1.8 0-1.2-1.5-1.8-3.7-1.8s-3.6.5-3.6 1.8c-.1 1 1.2 1.8 3.6 1.8z"/><path d="m190.8 12.5v13.2c0 1.8-1.5 3.3-3.3 3.3h-14.5c-1.8 0-3.3-1.5-3.3-3.3v-13.2c0-1.8 1.5-3.3 3.3-3.3h14.5c1.8 0 3.3 1.5 3.3 3.3z" fill="#282627"/><path d="m190.8 12.9v12.4c0 1.8-1.5 3.3-3.3 3.3h-12.7c-1.8 0-3.3-1.5-3.3-3.3v-12.4c0-1.8 1.5-3.3 3.3-3.3h12.7c1.8 0 3.3 1.5 3.3 3.3z" fill="#2f3133"/><path d="m190.8 12.9v12.4c0 1.8-1.5 3.3-3.3 3.3h-10.9c-1.8 0-3.3-1.5-3.3-3.3v-12.4c0-1.8 1.5-3.3 3.3-3.3h10.9c1.8 0 3.3 1.5 3.3 3.3z" fill="#36393b"/><path d="m186.5 21.3-2.7-.4v1.1h-.8v-1.2l-2-.3v1.2h-.8v-1.3l-2.6-.4v-.8l2.6.4v-1.4l-2.6-.4v-.8l2.6.4v-1.1h.8v1.2l2 .2v-1.2h.8v1.3l2.7.4v.8l-2.7-.4v1.4l2.7.4zm-3.5-2.8-2-.3v1.5l2 .3z" fill="#f4f4f4"/><path d="m70.7 79.1v-.4h.8v.4zm0-74.3v-.4h.8v.4z" fill="#282828"/><path d="m63.5 25.5v32.4c0 1.8-1.5 3.3-3.3 3.3h-1.6c-1.8 0-3.3-1.5-3.3-3.3v-32.3c0-1.8 1.5-3.3 3.3-3.3h1.6c1.8-.1 3.3 1.4 3.3 3.2z" fill="#1c1c1c"/><path d="m62 46.7h-5.2v-1.6h3.7v-3.1h1.5" fill="#232323"/><path d="m60.6 45.2v-3.1h1.2v4.5h-4.9v-1.4" fill="#0e0e0e"/><path d="m62 41.8h-5.2v-5.1h1.4v3.5h.5v-3.2h1.3v3.2h.6v-3.5h1.4" fill="#232323"/><path d="m56.9 41.6v-4.9h1.1v3.5h.8v-3.2h1v3.2h.9v-3.5h1.1v4.9" fill="#0e0e0e"/><path d="m61.9 51.7c0 .8-.7 1.5-1.6 1.5h-1.9c-.9 0-1.6-.7-1.6-1.5v-3.4c0-.8.7-1.5 1.6-1.5h1.9c.9 0 1.6.7 1.6 1.5zm-3.7-.6c0 .4.3.7.7.7h.9c.4 0 .7-.3.7-.7v-2c0-.4-.3-.7-.7-.7h-.9c-.4 0-.7.3-.7.7z" fill="#232323"/><path d="m56.9 48.3v3.4c0 .8.7 1.4 1.5 1.4h1.9c.8 0 1.5-.6 1.5-1.4v-3.4c0-.8-.7-1.4-1.5-1.4h-1.9c-.8.1-1.5.7-1.5 1.4zm2.9-.1c.5 0 .9.4.9.8v2c0 .4-.4.8-.9.8h-.9c-.5 0-.9-.4-.9-.8v-2c0-.4.4-.8.9-.8z" fill="#0e0e0e"/><path d="m61.9 57.9c0 .8-.7 1.5-1.6 1.5h-1.9c-.9 0-1.6-.7-1.6-1.5v-3.2c0-.8.7-1.5 1.6-1.5h.4v1.5h-.1c-.3.1-.5.3-.5.6v1.9c0 .3.3.6.7.6h.9c.4 0 .7-.3.7-.6v-1.9c0-.3-.2-.5-.5-.6h-.1v-1.5h.4c.9 0 1.6.7 1.6 1.5z" fill="#232323"/><path d="m60 54.7c.4.1.7.4.7.7v1.9c0 .4-.4.7-.9.7h-.9c-.5 0-.9-.3-.9-.7v-1.9c0-.4.3-.6.7-.7v-1.2h-.3c-.8 0-1.5.6-1.5 1.3v3.2c0 .7.7 1.3 1.5 1.3h1.9c.8 0 1.5-.6 1.5-1.3v-3.2c0-.7-.7-1.3-1.5-1.3h-.3c0-.1 0 1.2 0 1.2z" fill="#0e0e0e"/><path d="m61.9 28.9c0 .8-.7 1.5-1.6 1.5h-1.9c-.9 0-1.6-.7-1.6-1.5v-3.4c0-.8.7-1.5 1.6-1.5h1.9c.9 0 1.6.7 1.6 1.5zm-3.7-.6c0 .4.3.7.7.7h.9c.4 0 .7-.3.7-.7v-2c0-.4-.3-.7-.7-.7h-.9c-.4 0-.7.3-.7.7z" fill="#232323"/><path d="m56.9 25.6v3.4c0 .8.7 1.4 1.5 1.4h1.9c.8 0 1.5-.6 1.5-1.4v-3.4c0-.8-.7-1.4-1.5-1.4h-1.9c-.8 0-1.5.6-1.5 1.4zm2.9-.1c.5 0 .9.4.9.8v2c0 .4-.4.8-.9.8h-.9c-.5 0-.9-.4-.9-.8v-2c0-.4.4-.8.9-.8z" fill="#0e0e0e"/><path d="m61.9 35.2c0 .8-.7 1.5-1.6 1.5h-1.9c-.9 0-1.6-.7-1.6-1.5v-3.2c0-.8.7-1.5 1.6-1.5h.4v1.5h-.1c-.3.1-.5.3-.5.6v1.9c0 .3.3.6.7.6h.9c.4 0 .7-.3.7-.6v-1.9c0-.3-.2-.5-.5-.6h-.1v-1.5h.4c.9 0 1.6.7 1.6 1.5z" fill="#232323"/><path d="m60 31.9c.4.1.7.4.7.7v1.9c0 .4-.4.7-.9.7h-.9c-.5 0-.9-.3-.9-.7v-1.9c0-.4.3-.6.7-.7v-1.2h-.3c-.8 0-1.5.6-1.5 1.3v3.2c0 .7.7 1.3 1.5 1.3h1.9c.8 0 1.5-.6 1.5-1.3v-3.2c0-.7-.7-1.3-1.5-1.3h-.3z" fill="#0e0e0e"/></svg>