<svg viewBox="0 0 261.9 149.6" xmlns="http://www.w3.org/2000/svg"><path d="m42.2 13.1c14.5-17.9 45.2-13.6 50.4-11.6-8-2.2-15.6-1.4-19.6-1.3-12.6.4-22.8 6.3-30.8 12.9" fill="#004690"/><path d="m92.6 1.5c-8-2.2-15.6-1.4-19.6-1.3-12.6.4-22.9 6.3-30.8 12.9-6.7 5.6-11.7 11.6-15 15.3-29.6 33.2-27.7 78.4-26.8 90 2.4 17.7 17.4 28.2 27.5 30.5 29 6.6 44-38.8 103-38.8s74.1 45.5 103 38.8c10.2-2.3 25.2-12.8 27.6-30.6.8-11.6 2.7-56.7-26.9-89.9-7.2-8.1-22.6-27.5-45.8-28.2-4-.1-11.7-1-19.8 1.4-21.6 6.2-38.1 5.8-38.1 5.8s-16.5.5-38.1-5.8c0 0-.1 0-.2-.1z" fill="#535354"/><path d="m65.1 134.2c-20.4-3.1-41.6-7.7-53.5-26.4-16.4-25.9.8-55.9 1.6-57.2 15.1-27.8 45-38.6 117.7-38.6 72.8 0 102.7 10.8 117.7 38.6.8 1.3 18 31.3 1.6 57.2-11.9 18.8-33.1 23.3-53.5 26.4-15.3-11.1-34.2-24.1-65.8-24.1h-.1c-31.4 0-50.5 13-65.7 24.1" fill="#595959"/><path d="m158.2 38.2-1.9-8.3c-.8-4-3-7-6.7-7h-18.6.1-18.6c-3.7 0-6 3-6.7 7l-1.9 8.3 1.9-7.9c.8-3.9 3-6.7 6.7-6.7h18.6-.1 18.6c3.7 0 6 2.9 6.7 6.7z" fill="#454545"/><ellipse cx="203.5" cy="73.7" fill="#5e5e5e" rx="40" ry="44.6" transform="matrix(.8499 -.527 .527 .8499 -8.3164 118.3011)"/><path d="m133.7 37.7c-.9 0-1.6-.7-1.6-1.6v-5.1c0-.9.7-1.6 1.6-1.6h5.3v-1.6h-5.3c-1.8 0-3.2 1.4-3.2 3.2v5.1c0 1.8 1.4 3.2 3.2 3.2h5.3v-7.5h-4.5v1.6h2.9v4.3zm-22 1.7h5.1c2.1 0 3.8-1.7 3.8-3.8s-1.7-3.8-3.8-3.8h-1.3l-.2-.2.2-.2h5.1v-1.6h-5.1c-1 0-1.8.8-1.8 1.8s.8 1.8 1.8 1.8h1.3c1.2 0 2.2 1 2.2 2.2s-1 2.2-2.2 2.2h-5.1z" fill="#44474f"/><path d="m111.7 37.4h5.1c1 0 1.8-.8 1.8-1.8s-.8-1.8-1.8-1.8h-1.3c-1.2 0-2.2-1-2.2-2.2s1-2.2 2.2-2.2h5.1v-1.6h-5.1c-2.1 0-3.8 1.7-3.8 3.8s1.7 3.8 3.8 3.8h1.3l.2.2-.2.2h-5.1zm12.8.3c-.9 0-1.6-.7-1.6-1.6v-5.1c0-.9.7-1.6 1.6-1.6h5.4v-1.6h-5.4c-1.8 0-3.2 1.4-3.2 3.2v5.1c0 1.8 1.4 3.2 3.2 3.2h5.4v-1.6z" fill="#44474f"/><path d="m123.3 31.1c0-.7.5-1.2 1.2-1.2h5.4v1.6h-4.7l-.4.4h3.9v1.6h-5.5zm1.2 6.3c-.7 0-1.2-.5-1.2-1.2v-2.4h5.5v1.6h-3.9l.4.4h4.7v1.6zm8-1.3c0 .7.5 1.2 1.2 1.2h3.3v-3.6h-2.5v1.6h.9v.4h-.9l-.4-.4v-3.6l.4-.4h4.5v-1.6h-5.3c-.7 0-1.2.5-1.2 1.2zm11.4-6.3.5-.3.5.3 2.6 7.6h-3.8v-1.8h1.3l-.6-1.7-1.8 5.4h-1.9z" fill="#44474f"/><path d="m148 37.7h-4.2v1.6h6.5l-3.4-10c-.3-1-1.3-1.7-2.4-1.7s-2.1.7-2.4 1.7l-3.4 10h1.7l3.3-9.7.8-.5.8.5z" fill="#44474f"/><circle cx="170" cy="65.3" fill="#3d6295" r="10"/><path d="m173.8 64.3-1.6.3c-.7.1-1.1.2-1.5.3-.1.4-.2.7-.5 1.4l-.5 1.5-1.3 1.1 1.5-3.7-3.7.8 1.3-1.1 1.7-.3c.5-.1.8-.2 1.2-.2.1-.4.2-.7.4-1.1l.7-1.7 1.3-1.1-1.5 3.6 3.9-.9z" fill="#344868"/><path d="m124.4 78.6h-2.7v.9h2c.3 0 .5.1.6.2s.2.3.2.6v.4c0 .3-.1.5-.2.6s-.3.2-.6.2h-1.8-.6v-.4h2.7v-.9h-2c-.3 0-.5-.1-.6-.2s-.2-.3-.2-.6v-.3c0-.3.1-.5.2-.6s.3-.2.6-.2h2.4zm2.8 0v2.7h-.5v-2.7h-1.4v-.4h3.4v.4zm1.2 2.7 1.7-3.1h.6l1.7 3.1h-.6l-.4-.8h-2.1l-.4.8zm1.1-1.2h1.7l-.8-1.6zm3.9 1.2v-3.1h2.5c.2 0 .4 0 .5.1s.2.2.2.5v.7c0 .2-.1.4-.2.5s-.3.1-.5.1h-.5l1.4 1.2h-.8l-1.3-1.2h-.9v1.2zm2.3-2.7h-1.8v1h1.8c.1 0 .2 0 .3-.1 0 0 .1-.1.1-.2v-.5c0-.1 0-.2-.1-.2zm3.5 0v2.7h-.5v-2.7h-1.4v-.4h3.4v.4z" fill="#767677"/><circle cx="180" cy="97.7" fill="#1f1f23" r="12.1"/><path d="m186.6 95.1-1.4 1.1-2.1-.1-5.3 4-.4 1.9-1.5 1.1 1.6-6.7 2.1-1.6zm-4.4.8-2.8-.1-.9.7-.5 2.6z"/><circle cx="194.2" cy="49.4" fill="#3d6295" r="9"/><path d="m195.1 51-.7-1.4-4.2-.1 1.5-.8 1.9.1c.5 0 .9.1 1.4.1.2-.4.4-.8.7-1.2l1-1.7 1.5-.8-2.4 3.7.7 1.4s-1.4.7-1.4.7z" fill="#344868"/><circle cx="219.9" cy="39.9" fill="#3d6295" r="9.3"/><path d="m216.9 42.7 5-5-5.5 2-.1-.4 7.3-2.7.1.3-4.9 5 6-2.2.1.4-7.9 2.9z" fill="#344868"/><circle cx="208.2" cy="78.4" fill="#1f1f23" r="12.3"/><circle cx="238.7" cy="67.7" fill="#1f1f23" r="12.4"/><path d="m212.3 75.6c.5-.4.7-.7.6-1.1l-.1-.3c-.3-.6-1.2-.4-2.8.5l-7.2 4.2.3.6 1.1 2.3.3.6 7.2-4.2c1.6-.9 2.3-1.7 2-2.2l-.2-.3c-.2-.3-.6-.3-1.2-.1zm-.8 1.9-.9.5-5 2.9-.4-.8 5.1-2.9.9-.5c.6-.4 1-.4 1.1-.1 0 .2-.2.6-.8.9zm-.7-1.4-6 3.5-.4-.8 6-3.5c.6-.4 1-.4 1.1-.1.1.2-.1.5-.7.9zm30.8-11.7-4.5 1.6c-3 1.1-2.6 1.4-2.3 2.4s.2 1.5 3.2.4l8-2.8.2.7-8 2.8c-4.2 1.5-4.8.9-5.3-.5s-.4-2.2 3.8-3.7l8.1-2.8.2.7s-3.4 1.2-3.4 1.2z"/><g fill="#454545"><path d="m195.4 5.9v3.7l2.7-1.9zm2.7 0v3.7l2.8-1.9z"/><path d="m200.9 6h1.5v3.6h-1.5z"/><path d="m66.5 5.9v3.7l-2.7-1.9zm-2.7 0v3.7l-2.8-1.9z"/><path d="m61 9.6h-1.5v-3.6h1.5z"/><path d="m181 29.3 2.9-1.5 1.5 2.9-2.9 1.5z"/><path d="m211.5 25.9.9 3.5 2.2-2.4zm2.6-.7.7-.2.9 3.5-.7.2zm.9-.2.7-.2.9 3.5-.7.2z"/><path d="m158.5 51.1-.3-.4v1.4l1.1.2-.3-.4c.3-.2.6-.3.9-.3.9 0 1.7.8 1.7 1.7 0 .3-.1.7-.3.9l.7.5c.3-.4.4-.9.4-1.4 0-1.4-1.1-2.5-2.5-2.5-.5-.2-1 0-1.4.3z"/><path d="m161.3 55.3.3.4v-1.4l-1.1-.2.3.4c-.3.2-.6.3-.9.3-.9 0-1.7-.8-1.7-1.7 0-.3.1-.7.3-.9l-.7-.5c-.3.4-.4.9-.4 1.4 0 1.4 1.1 2.5 2.5 2.5.5.1 1-.1 1.4-.3z"/></g><ellipse cx="59.1" cy="70.9" fill="#5d5f60" rx="39.8" ry="34.4" transform="matrix(.2808 -.9598 .9598 .2808 -25.5242 107.6616)"/><circle cx="59.7" cy="72.1" fill="#4d5054" r="28.1"/><path d="m87.6 72.1c0 3.6-2.9 6.5-6.5 6.5h-6.3c-4.7 0-8.6.1-8.6 4.8v10c0 3.6-2.9 6.5-6.5 6.5s-6.5-2.9-6.5-6.5v-10c0-5.2-4.2-4.8-9.4-4.8h-5.4c-3.6 0-6.5-2.9-6.5-6.5s2.9-6.5 6.5-6.5h5.4c5.2 0 9.4.4 9.4-4.8v-10c0-3.6 2.9-6.5 6.5-6.5s6.5 2.9 6.5 6.5v10c0 4.7 3.8 4.8 8.6 4.8h6.3c3.6 0 6.5 3 6.5 6.5z" fill="#404347"/><circle cx="59.7" cy="72.1" fill="#595b5f" r="4.4"/><path d="m44.5 58.6 1.7-1.7-3.6-1.8zm1.7 28.8-1.7-1.7-1.9 3.6zm28.7-1.7-1.7 1.7 3.6 1.8zm-1.7-28.8 1.7 1.7 1.9-3.6z" fill="#333335"/><path d="m124.1 101.4c0 1 3.1 2.4 6.8 2.4 3.8 0 6.8-1.4 6.8-2.4 6.4-1.1 10.8-3.7 10.8-6.7 0-4-7.9-7.3-17.6-7.3s-17.6 3.3-17.6 7.3c0 3 4.5 5.6 10.8 6.7z" fill="#4d5054"/><ellipse cx="130.9" cy="94.3" fill="#0051bf" rx="11.5" ry="4.5"/><path d="m219.6 13.1c-14.5-17.9-45.2-13.6-50.4-11.6 8-2.2 15.6-1.4 19.6-1.3 12.6.4 22.9 6.3 30.8 12.9" fill="#004690"/></svg>