<svg viewBox="0 0 200 96.8" xmlns="http://www.w3.org/2000/svg"><path d="m100.1 96.8h-95.4c-2.6 0-4.7-2.1-4.7-4.7v-76.8c0-2.6 2.6-4.9 5.2-4.9l94.9-8.3h-.2l94.9 8.3c2.6 0 5.2 2.4 5.2 4.9v76.8c0 2.6-2.1 4.7-4.7 4.7h-95.4" fill="#282828"/><path d="m68.9 29c0 15.9 13.9 28.7 31 28.7s31-12.8 31-28.7v-26c0-1.5-1.2-2.7-2.7-2.7h-56.6c-1.5 0-2.7 1.2-2.7 2.7z" fill="#313130"/><circle cx="99.9" cy="29" fill="#353535" r="23.3"/><circle cx="99.9" cy="29" fill="#383838" r="21.3"/><circle cx="99.9" cy="29" fill="#373737" r="19.4"/><circle cx="99.9" cy="29" fill="#3b3b3b" r="17.4"/><circle cx="99.9" cy="29" fill="#3e3e3e" r="15.5"/><circle cx="99.9" cy="29" fill="#404040" r="13.6"/><circle cx="99.9" cy="29" fill="#434343" r="11.6"/><circle cx="99.9" cy="29" fill="#484848" r="9.7"/><path d="m76.8 25.8h2.1v.7h-.7v7.5h-.7v-7.6h-.7zm42.1 1.2c1-.2 2 .1 2.8.7.6.4 1 1 1.2 1.7.3.8.3 1.6 0 2.4-.2.7-.7 1.3-1.2 1.7-.6.5-1.4.7-2.2.7-1.2 0-2.4-.6-3-1.6-.7-1-.8-2.3-.3-3.5.4-1 1.5-1.9 2.7-2.1zm-1.9 2.1v.4h.4v2.3h-.4v.4h1.2v-.4h-.4v-2.7zm1.6.2v2.6c.1.1.2.2.3.3h2.7c.1-.1.3-.2.3-.4v-1.1c0-.1-.2-.2-.2-.2h-2.7v-1h2.5v.4h.4v-.5l-.2-.2h-2.8c-.2 0-.2.1-.3.1zm-38.2-2.1h.7v6.2h.8v-6.2h.7v5.9.4c-.1.3-.3.5-.7.5h-.9c-.4 0-.7-.3-.7-.7.1-2 .1-4.1.1-6.1zm4 0h1.5c.3 0 .7.3.7.6v2.2c0 .3-.2.7-.5.7l.7 3.3h-.7c-.2-1.1-.5-2.1-.7-3.2h-.2v3.2h-.7c-.1-2.2-.1-4.5-.1-6.8zm.7.7v2.2h.8v-2.2zm3.4-.7h1.6c.3 0 .6.3.7.6v2.2c0 .2-.2.3-.3.5.2.1.3.3.3.5v.9 1.4c0 .2 0 .4-.1.6s-.3.3-.6.3h-1.6zm.7.7v2.2h.8v-2.2zm0 2.9v2.6h.8v-2.6zm3.8-3.6c.2-.1.4 0 .7 0 .2 0 .5 0 .7.1s.4.3.4.6v5.3.5c-.1.2-.3.4-.6.5h-.7c-.2 0-.3 0-.4 0-.3-.1-.5-.4-.5-.7v-5.3c0-.2 0-.3 0-.4 0-.4.2-.5.4-.6zm.2.7v5.5h.8v-5.5z" fill="#4e4e4e"/><path d="m119 30.9h2.4v.9h-2.4zm-22.3-4.3c0-.3.3-.7.6-.7h.9c.4 0 .8.3.8.7v1.2h-.7v-1.2h-.8v6.8h.9v-3.4h-.3v-.7h.9v4.7h-1.5c-.3 0-.6-.2-.7-.5 0-.2 0-.3 0-.5-.1-2.1-.1-4.3-.1-6.4zm4.1.6h1.4c.3 0 .6.2.7.4v.3 2.2c0 .3-.2.6-.5.7l.7 3.3h-.7c-.2-1.1-.5-2.1-.7-3.2h-.2v3.1h-.7c0-2.2 0-4.5 0-6.8zm.7.6v2.2h.8v-2.2zm3.4 0c0-.3.3-.6.6-.6h.9c.2 0 .3 0 .5.2.2.1.2.3.2.5v6.2h-.7v-3.3h-.8v3.3h-.7c0-2.2 0-4.2 0-6.3zm.7.1v2.2h.8v-2.2zm3.1-.1c0-.3.3-.6.6-.6h1.2v.6h-1v2.3h.9v.7h-.9v3.2h-.7c-.1-2.1-.1-4.1-.1-6.2zm3.5-.6h.7v1.9c.1.2.3.4.4.6.1-.2.3-.4.4-.6v-1.9h.7v1.4.6c-.2.4-.4.8-.6 1.2.3.4.6.9.7 1.4v2.2h-.7v-2.3c-.1-.2-.3-.4-.4-.7-.2.2-.3.4-.4.6v2.4h-.7v-2.1c0-.2.1-.4.2-.5.2-.3.3-.7.6-1-.3-.4-.6-.9-.7-1.4-.2-.6-.2-1.2-.2-1.8z" fill="#4e4e4e"/><path d="m130.9 10.5h63.8l-63.8-5.6" fill="#1d1d1d"/><path d="m197.6 11.4h-66.7v-.9h63.8c1 0 2 .4 2.9.9" fill="#202020"/><path d="m198.2 11.9h-67.3v-.5h66.7z" fill="#282828"/><path d="m198.2 11.9h-67.3v.5h67.7z" fill="#303030"/><path d="m199 12.8h-68.1v-.5h67.7c.2.2.3.3.4.5" fill="#323232"/><path d="m199.3 13.2h-68.4v-.5h68.1c.1.2.2.4.3.5" fill="#373737"/><path d="m199.6 13.7h-68.7v-.5h68.4z" fill="#393939"/><path d="m199.8 14.2h-68.9v-.5h68.7c.1.1.1.3.2.5" fill="#343434"/><path d="m199.8 14.2h-68.9v.5h69z" fill="#2f2f2f"/><path d="m199.9 14.6h-69v.5h69c0-.2 0-.3 0-.5" fill="#2c2c2c"/><path d="m69 10.5h-63.8l63.8-5.6" fill="#1d1d1d"/><path d="m2.4 11.4h66.7v-.9h-63.9c-1 0-2 .4-2.8.9" fill="#202020"/><path d="m1.8 11.9h67.2v-.5h-66.6z" fill="#282828"/><path d="m1.8 11.9h67.2v.5h-67.7z" fill="#303030"/><path d="m.9 12.8h68.1v-.5h-67.7c-.1.2-.3.3-.4.5" fill="#323232"/><path d="m.6 13.2h68.4v-.5h-68.1c-.1.2-.2.4-.3.5" fill="#373737"/><path d="m.4 13.7h68.6v-.5h-68.4z" fill="#393939"/><path d="m.2 14.2h68.8v-.5h-68.6c-.1.1-.1.3-.2.5" fill="#343434"/><path d="m.2 14.2h68.8v.5h-69z" fill="#2f2f2f"/><path d="m.1 14.6h69v.5h-69.1c0-.2 0-.3.1-.5" fill="#2c2c2c"/><path d="m28.1 83.9c-9.8 0-17.9-8-17.9-17.9s8-17.9 17.9-17.9c9.8 0 17.9 8 17.9 17.9s-8.1 17.9-17.9 17.9zm0-35.1c-9.4 0-17.1 7.7-17.1 17.1s7.7 17.1 17.1 17.1 17.1-7.7 17.1-17.1-7.7-17.1-17.1-17.1z" fill="#1a1a1a"/><circle cx="28.1" cy="65.9" fill="#404040" r="17.5"/><path d="m43.5 60.4h-9.8v-9.9c0-.4-.3-.8-.8-.8h-9.6c-.4 0-.8.3-.8.8v9.9h-9.8c-.4 0-.8.3-.8.8v9.6c0 .4.3.8.8.8h9.9v9.9c0 .4.3.8.8.8h9.6c.4 0 .8-.3.8-.8v-9.9h9.9c.4 0 .8-.3.8-.8v-9.6c-.2-.5-.6-.8-1-.8" fill="#4c4c4c"/><circle cx="28.1" cy="66" fill="#595959" r="4.1"/><path d="m99.9 58.2c-17.3 0-31.4-13-31.4-29.1v-26c0-1.7 1.4-3.1 3.1-3.1h56.6c1.7 0 3.1 1.4 3.1 3.1v26c0 16-14.1 29.1-31.4 29.1zm-28.3-57.4c-1.3 0-2.3 1-2.3 2.3v26c0 15.6 13.8 28.3 30.6 28.3 16.9 0 30.6-12.7 30.6-28.3v-26c0-1.3-1-2.3-2.3-2.3 0 0-56.6 0-56.6 0z" fill="#1a1a1a"/><path d="m99.9 65.2c21 0 38.1-17.1 38.1-38.1 0-2.6 1.8-4.7 4.1-4.7h37.6c2.2 0 4.1 2.1 4.1 4.7v37.4c2.1 2.6 3.4 5.9 3.4 9.6 0 8.3-6.6 15-14.7 15h-72.6.2-60.1c-.2-.1-1.4-.2-1.7-1.6-.3-1.6-1.7-2.1 1.1-4.7 5.5-3.7 9.1-10 9-17.1-.2-11.1-9.4-20.1-20.5-20-3.8 0-7.4 1.1-10.4 3-.5.3-1.2-.1-1.2-.7v-20.7c0-2.6 1.8-4.7 4.1-4.7h37.6c2.2 0 4.1 2.1 4.1 4.7 0 21 17.1 38.1 38.1 38.1" fill="#434342"/><path d="m171.8 60.7v-7.7h.8v7.7zm-22.1 0v-7.7h.8v7.7zm-2.3 0v-7.7h.8v7.7z" fill="#ecf332"/><g fill="#fd5a17"><circle cx="157.1" cy="32.5" r="1.3"/><circle cx="160.6" cy="32.5" r="1.3"/><circle cx="164.1" cy="32.5" r="1.3"/><circle cx="157.1" cy="37.5" r=".8"/><circle cx="160.6" cy="37.5" r=".8"/><circle cx="164.1" cy="37.5" r=".8"/><circle cx="157.1" cy="41.8" r=".4"/><circle cx="160.6" cy="41.8" r=".4"/><circle cx="164.1" cy="41.8" r=".4"/></g><path d="m148.9 83.5c-5 0-9.1-4.1-9.1-9.2s4.1-9.2 9.1-9.2 9.2 4.1 9.2 9.2-4.1 9.2-9.2 9.2zm0-17.6c-4.6 0-8.4 3.8-8.4 8.4 0 4.7 3.8 8.4 8.4 8.4s8.4-3.8 8.4-8.4-3.7-8.4-8.4-8.4z" fill="#1a1a1a"/><circle cx="148.9" cy="74.4" fill="#2c2c2e" r="8.8"/><path d="m148.9 82.2c-4.3 0-7.9-3.5-7.9-7.9s3.5-7.9 7.9-7.9c4.3 0 7.9 3.5 7.9 7.9s-3.5 7.9-7.9 7.9zm0-14.9c-3.9 0-7.1 3.2-7.1 7.1s3.2 7.1 7.1 7.1 7.1-3.2 7.1-7.1-3.1-7.1-7.1-7.1z" fill="#1a1a1a"/><circle cx="148.9" cy="74.4" fill="#41413b" r="7.5"/><path d="m172.2 83.5c-5 0-9.1-4.1-9.1-9.2s4.1-9.2 9.1-9.2 9.1 4.2 9.1 9.2-4 9.2-9.1 9.2zm0-17.6c-4.6 0-8.4 3.8-8.4 8.4 0 4.7 3.7 8.4 8.4 8.4 4.6 0 8.4-3.8 8.4-8.4s-3.7-8.4-8.4-8.4z" fill="#1a1a1a"/><circle cx="172.2" cy="74.4" fill="#2c2c2e" r="8.8"/><path d="m172.2 82.2c-4.3 0-7.9-3.5-7.9-7.9s3.5-7.9 7.9-7.9c4.3 0 7.9 3.5 7.9 7.9s-3.6 7.9-7.9 7.9zm0-14.9c-3.9 0-7.1 3.2-7.1 7.1s3.2 7.1 7.1 7.1 7.1-3.2 7.1-7.1-3.2-7.1-7.1-7.1z" fill="#1a1a1a"/><circle cx="172.2" cy="74.4" fill="#41413b" r="7.5"/><path d="m116 79.8h-9.4c-2.5 0-4.6-2.1-4.6-4.6s2.1-4.5 4.6-4.5h9.4c2.5 0 4.6 2.1 4.6 4.6s-2.1 4.5-4.6 4.5zm-9.4-8.3c-2.1 0-3.8 1.7-3.8 3.8s1.7 3.8 3.8 3.8h9.4c2.1 0 3.8-1.7 3.8-3.8s-1.7-3.8-3.8-3.8z" fill="#1a1a1a"/><path d="m116 79.4h-9.4c-2.3 0-4.2-1.9-4.2-4.1 0-2.3 1.9-4.1 4.2-4.1h9.4c2.3 0 4.2 1.9 4.2 4.1-.1 2.3-1.9 4.1-4.2 4.1z" fill="#2c2c2e"/><path d="m116 78.6h-9.3c-1.9 0-3.3-1.5-3.3-3.3s1.5-3.3 3.3-3.3h9.3c1.9 0 3.3 1.5 3.3 3.3s-1.5 3.3-3.3 3.3zm-9.4-5.9c-1.4 0-2.6 1.2-2.6 2.6s1.2 2.6 2.6 2.6h9.3c1.4 0 2.6-1.2 2.6-2.6s-1.2-2.6-2.6-2.6z" fill="#1a1a1a"/><path d="m116 78.2h-9.3c-1.6 0-2.9-1.3-2.9-2.9s1.3-2.9 2.9-2.9h9.3c1.6 0 2.9 1.3 2.9 2.9s-1.3 2.9-2.9 2.9z" fill="#33322d"/><path d="m93.2 79.8h-9.4c-2.5 0-4.6-2.1-4.6-4.6s2.1-4.5 4.6-4.5h9.4c2.5 0 4.6 2.1 4.6 4.6s-2.1 4.5-4.6 4.5zm-9.4-8.3c-2.1 0-3.8 1.7-3.8 3.8s1.7 3.8 3.8 3.8h9.4c2.1 0 3.8-1.7 3.8-3.8s-1.7-3.8-3.8-3.8z" fill="#1a1a1a"/><path d="m93.2 79.4h-9.4c-2.3 0-4.1-1.9-4.1-4.1 0-2.3 1.9-4.1 4.1-4.1h9.4c2.3 0 4.1 1.9 4.1 4.1.1 2.3-1.8 4.1-4.1 4.1z" fill="#2c2c2e"/><path d="m93.2 78.6h-9.3c-1.9 0-3.3-1.5-3.3-3.3s1.4-3.3 3.2-3.3h9.3c1.9 0 3.3 1.5 3.3 3.3s-1.4 3.3-3.2 3.3zm-9.4-5.9c-1.4 0-2.6 1.2-2.6 2.6s1.2 2.6 2.6 2.6h9.3c1.4 0 2.6-1.2 2.6-2.6s-1.2-2.6-2.6-2.6z" fill="#1a1a1a"/><path d="m93.2 78.2h-9.3c-1.6 0-2.9-1.3-2.9-2.9s1.3-2.9 2.9-2.9h9.3c1.6 0 2.9 1.3 2.9 2.9s-1.3 2.9-2.9 2.9z" fill="#33322d"/><path d="m84.2 82.8v-1h-.6v1.7h.4.4c.1 0 .2 0 .2.1.1 0 .1.1.1.2v.3 1.7c0 .2-.1.4-.2.5s-.4.2-.7.2-.5 0-.7-.2c-.1-.1-.1-.3-.1-.5v-1.1h.6v1.3h.6v-2.1h-.5c-.2 0-.3 0-.4 0s-.2 0-.2-.1c-.1 0-.1-.1-.1-.2s0-.2 0-.3v-1.3c0-.2.1-.4.2-.5s.4-.2.7-.2h.4c.1 0 .2.1.3.1s.1.1.2.2v.3.8zm2.8 2.9v.2c0 .2-.1.3-.2.4s-.3.1-.7.1c-.3 0-.5 0-.7-.1s-.2-.2-.2-.5v-2.4c0-.2.1-.3.2-.4s.3-.1.7-.1c.3 0 .5 0 .7.1s.2.2.2.5v1.2h-1.1v1.3h.6v-.8h.5zm-1.1-1.4h.6v-1h-.6zm2.2-2.9v4.9h-.6v-4.9zm2.2 4.3v.2c0 .2-.1.3-.2.4s-.3.1-.7.1c-.3 0-.5 0-.7-.1s-.2-.2-.2-.5v-2.4c0-.2.1-.3.2-.4s.3-.1.7-.1c.3 0 .5 0 .7.1s.2.2.2.5v1.2h-1.1v1.3h.6v-.8h.6zm-1.1-1.4h.6v-1h-.6zm2.8-.4v-.6h-.6v2.7h.6v-.8h.6v.7c0 .2-.1.3-.2.4s-.3.1-.7.1c-.3 0-.5 0-.7-.1s-.2-.2-.2-.5v-2.4c0-.1 0-.2 0-.3s.1-.1.2-.2c.2-.1.4-.1.7-.1s.5 0 .7.1.2.2.2.4v.5h-.6zm1.7-.6v2.6h.5v.4h-.4c-.3 0-.5 0-.5-.2-.1-.1-.2-.3-.2-.5v-2.4h-.5v-.4h.5v-.8h.6v.9h.5v.4zm15.2-1.9h.3.2.2s.1 0 .1.1c0 0 .1.1.1.1s0 .1.1.1v.2 1.3c0 .1 0 .2-.1.3 0 .1-.2.1-.3.2.2 0 .2.1.3.2 0 .1.1.2.1.3v2.2h-.6v-2.4h-.6v2.4h-.6v-4.9zm-.1 2.1h.6v-1.7h-.6zm2.8 2.7c-.2.1-.4.2-.6.2-.3 0-.5-.2-.5-.4v-3h.6v3h.6v-3.1h.6v3.4h-.6zm1.7-3.1c.2-.1.4-.2.6-.2.3 0 .5.2.5.4v3h-.6v-3.1h-.6v3.1h-.5v-3.4h.6z" fill="#ecf332"/><path d="m153.4 32v9.4c0 2.5-2.1 4.6-4.6 4.6s-4.6-2.1-4.6-4.6v-9.4c0-2.5 2.1-4.6 4.6-4.6s4.6 2.1 4.6 4.6zm-8.3 9.4c0 2.1 1.7 3.8 3.8 3.8s3.8-1.7 3.8-3.8v-9.4c0-2.1-1.7-3.8-3.8-3.8s-3.8 1.7-3.8 3.8z" fill="#1a1a1a"/><path d="m153 32v9.4c0 2.3-1.9 4.1-4.2 4.1s-4.1-1.9-4.1-4.1v-9.4c0-2.3 1.9-4.1 4.1-4.1 2.4-.1 4.2 1.8 4.2 4.1z" fill="#2c2c2e"/><path d="m152.2 32.1v9.3c0 1.9-1.5 3.3-3.3 3.3s-3.3-1.5-3.3-3.3v-9.3c0-1.9 1.5-3.3 3.3-3.3s3.3 1.4 3.3 3.3zm-5.9 9.3c0 1.4 1.2 2.6 2.6 2.6s2.6-1.2 2.6-2.6v-9.3c0-1.4-1.2-2.6-2.6-2.6s-2.6 1.2-2.6 2.6z" fill="#1a1a1a"/><path d="m151.8 32.1v9.3c0 1.6-1.3 2.9-2.9 2.9s-2.9-1.3-2.9-2.9v-9.3c0-1.6 1.3-2.9 2.9-2.9 1.6-.1 2.9 1.2 2.9 2.9z" fill="#30302b"/><path d="m148.9 44c-1.4 0-2.6-1.2-2.6-2.6s1.2-2.6 2.6-2.6 2.6 1.2 2.6 2.6-1.2 2.6-2.6 2.6zm0-4.5c-1 0-1.9.8-1.9 1.9s.8 1.9 1.9 1.9 1.9-.8 1.9-1.9c-.1-1-.9-1.9-1.9-1.9z" fill="#242420"/><circle cx="148.9" cy="41.4" fill="#444440" r="2.2"/><path d="m176.9 32.8v9.4c0 2.5-2.1 4.6-4.6 4.6s-4.6-2.1-4.6-4.6v-9.4c0-2.5 2.1-4.6 4.6-4.6s4.6 2.1 4.6 4.6zm-8.4 9.4c0 2.1 1.7 3.8 3.8 3.8s3.8-1.7 3.8-3.8v-9.4c0-2.1-1.7-3.8-3.8-3.8s-3.8 1.7-3.8 3.8z" fill="#1a1a1a"/><path d="m176.5 32.8v9.4c0 2.3-1.9 4.1-4.1 4.1-2.3 0-4.2-1.9-4.2-4.1v-9.4c0-2.3 1.9-4.1 4.2-4.1 2.2-.1 4.1 1.8 4.1 4.1z" fill="#2c2c2e"/><path d="m175.7 32.8v9.3c0 1.9-1.5 3.3-3.3 3.3s-3.4-1.4-3.4-3.2v-9.3c0-1.9 1.5-3.3 3.3-3.3s3.4 1.4 3.4 3.2zm-6 9.4c0 1.4 1.2 2.6 2.6 2.6s2.6-1.2 2.6-2.6v-9.3c0-1.4-1.2-2.6-2.6-2.6s-2.6 1.2-2.6 2.6z" fill="#1a1a1a"/><path d="m175.3 32.8v9.3c0 1.6-1.3 2.9-2.9 2.9s-2.9-1.3-2.9-2.9v-9.3c0-1.6 1.3-2.9 2.9-2.9 1.5 0 2.9 1.3 2.9 2.9z" fill="#30302b"/><path d="m172.3 40.1c-1.4 0-2.6-1.2-2.6-2.6s1.2-2.6 2.6-2.6 2.6 1.2 2.6 2.6-1.2 2.6-2.6 2.6zm0-4.4c-1 0-1.9.8-1.9 1.9s.8 1.9 1.9 1.9 1.9-.8 1.9-1.9-.9-1.9-1.9-1.9z" fill="#242420"/><circle cx="172.3" cy="37.5" fill="#444440" r="2.2"/><path d="m20.9 27.4h-1.1v9.5h-1.1v-9.5h-1.1v-.8h3.4c-.1 0-.1.8-.1.8zm3.4 8.4v.2c0 .3-.1.6-.4.7-.2.2-.7.2-1.3.2s-1-.1-1.3-.2c-.2-.2-.4-.4-.4-.7v-6.6h1.1v7h1.1v-7h1.1c.1 0 .1 6.4.1 6.4zm2.3-6.4h.7.5c.1 0 .2 0 .3.1l.2.1c.1 0 .2.1.2.2.1 0 .1.1.1.2s0 .2.1.3v2.1c0 .2-.1.3-.2.4s-.3.2-.5.2c.3.1.5.2.5.2.1.1.2.2.2.4v3.4h-1.1v-3.8h-1.1v3.8h-1.1v-7.5h1.3zm-.2 3.1h1.1v-2.6h-1.1zm4.6-3.1h.7.5c.1 0 .2 0 .3.1l.2.1c.1 0 .2.1.2.2.1 0 .1.1.1.2s0 .2.1.3v2.1c0 .2-.1.3-.2.4s-.3.2-.5.2c.3.1.5.2.5.2.1.1.2.2.2.4v2.6c0 .1 0 .2-.1.3 0 .1-.1.1-.2.2s-.2.1-.3.2c-.1 0-.2.1-.2.1-.1 0-.2 0-.3 0s-.3 0-.4 0h-1.9v-7.5h1.3zm-.1 3.1h1.1v-2.6h-1.1zm0 3.8h1.1v-3.2h-1.1zm6.5-.5v.2c0 .3-.1.6-.3.7s-.7.2-1.3.2-1-.1-1.3-.2c-.2-.2-.4-.4-.4-.7v-5.5c0-.3 0-.4 0-.6 0-.1.1-.2.2-.3.2-.1.3-.2.5-.2s.5-.1.9-.1c.6 0 1 .1 1.3.2.3.2.4.4.4.7zm-2.2-5.9v6.4h1.1v-6.4z" fill="#fd5a17"/><path d="m39.7 26.6h.7.5c.1 0 .2 0 .3.1.1 0 .2.1.2.2.1.1.2.1.2.2.1.1.1.2.1.2 0 .1 0 .2.1.3v3c0 .2 0 .3-.1.3 0 .1-.1.2-.2.2-.1.1-.2.1-.3.2l-.2.3c-.1 0-.2 0-.3.1-.1 0-.3 0-.4 0h-.8v5.2h-1.1v-10.4zm-.2 4.3h1.1v-3.5h-1.1zm5.4 6v-3.9h-1.1v3.9h-1.1v-6.9c0-.3.1-.6.4-.8.2-.2.7-.2 1.4-.2.6 0 1 .1 1.3.2.3.2.4.4.4.7v6.9zm0-7.3h-1.1v2.7h1.1zm3.4-.6h.7.5s.2 0 .3.1l.2.1c.1 0 .2.1.2.2.1 0 .1.1.1.2s0 .2.1.3v6.2c0 .1 0 .2-.1.3 0 .1-.1.2-.2.2s-.2.1-.3.2l-.2.1c-.1 0-.2 0-.3.1-.1 0-.3 0-.4 0h-1.9v-7.8zm-.1 7.2h1.1v-6.6h-1.1z" fill="#ecf332"/></svg>