<svg viewBox="0 0 335.1 168.2" xmlns="http://www.w3.org/2000/svg"><ellipse cx="167.5" cy="83.2" fill="#231f20" rx="83.2" ry="83.2" transform="matrix(.7071 -.7071 .7071 .7071 -9.7709 142.8116)"/><path d="m244.6 83.2-16.3-16.9v8.3h-18.7v17.2h18.7v8.3zm-22.6-54.5-23.5-.4 5.9 5.8-13.2 13.2 12.2 12.2 13.2-13.2 5.8 5.9zm-54.5-22.6-16.9 16.3h8.3v18.7h17.2v-18.7h8.3zm-54.5 22.6-.4 23.5 5.8-5.9 13.2 13.2 12.2-12.2-13.2-13.2 5.9-5.8zm-22.6 54.5 16.3 16.9v-8.3h18.7v-17.2h-18.7v-8.3zm22.6 54.5 23.5.4-5.9-5.8 13.2-13.2-12.2-12.2-13.2 13.2-5.8-5.9zm54.5 22.6 16.9-16.3h-8.3v-18.7h-17.2v18.7h-8.3zm54.5-22.6.4-23.5-5.8 5.9-13.2-13.2-12.2 12.2 13.2 13.2-5.9 5.8z" fill="#38383a"/><path d="m250.7 84.1c-.5 45.5-37.6 82.3-83.2 82.3s-82.7-36.8-83.2-82.3v.9c0 46 37.3 83.2 83.2 83.2 46 0 83.2-37.3 83.2-83.2z" fill="#6d6e70"/><ellipse cx="167.5" cy="83.3" fill="#9e9e9b" rx="28.2" ry="28.2" transform="matrix(.2302 -.9731 .9731 .2302 47.9399 227.1524)"/><circle cx="167.5" cy="83.3" fill="#565656" r="22.4"/><path d="m167.6 55.3c-15.5 0-28 12.6-28 28 0 15.5 12.6 28 28 28 15.5 0 28-12.6 28-28 0-15.5-12.5-28-28-28zm-.4 54.6c-14.8 0-26.9-12-26.9-26.9 0-14.8 12-26.9 26.9-26.9 14.8 0 26.9 12 26.9 26.9 0 14.8-12 26.9-26.9 26.9z" fill="#c9c9c7"/><path d="m167.6 111.4c15.5 0 28-12.6 28-28 0-15.5-12.6-28-28-28-15.5 0-28 12.6-28 28-.1 15.4 12.5 28 28 28zm.3-54.6c14.8 0 26.9 12 26.9 26.9 0 14.8-12 26.9-26.9 26.9-14.8 0-26.9-12-26.9-26.9s12.1-26.9 26.9-26.9z" fill="#9a9a9b"/><circle cx="167.9" cy="62" fill="#7f1322" r="38.4"/><circle cx="301.9" cy="84.1" fill="#7f1322" r="33.2"/><circle cx="301.9" cy="84.1" fill="#68101f" r="26.5"/><circle cx="33.2" cy="84.1" fill="#7f1322" r="33.2"/><circle cx="33.2" cy="84.1" fill="#68101f" r="26.5"/></svg>