<svg id="Capa_1" xmlns="http://www.w3.org/2000/svg" viewBox="0 0 85 85"><style>.st0{fill:#a0a0a0}.st1{fill:#7e7e7e}</style><path class="st0" d="M74.7 33.9c-1.5-.6-3.2-.1-4.3 1.1L57.9 49.6 45.4 35c-.7-.9-1.8-1.3-2.9-1.3s-2.2.5-2.9 1.3L27.1 49.6 14.6 35c-1.1-1.2-2.8-1.7-4.3-1.1-1.5.6-2.5 2-2.5 3.6v43.7c0 2.1 1.7 3.9 3.9 3.9h61.8c2.1 0 3.9-1.7 3.9-3.9V37.5c-.2-1.6-1.2-3.1-2.7-3.6z"/><path class="st1" d="M74.7 33.9c-1.5-.6-3.2-.1-4.3 1.1L57.9 49.6 45.4 35c-.7-.9-1.8-1.3-2.9-1.3v51.4h30.9c2.1 0 3.9-1.7 3.9-3.9V37.5c-.1-1.6-1.1-3.1-2.6-3.6z"/><path class="st0" d="M78.5 85.1h-72c-2.1 0-3.9-1.7-3.9-3.9 0-2.1 1.7-3.9 3.9-3.9h72c2.1 0 3.9 1.7 3.9 3.9s-1.8 3.9-3.9 3.9zM42.5 18.1c-6.4 0-11.6 5.2-11.6 11.6s5.2 11.6 11.6 11.6c6.4 0 11.6-5.2 11.6-11.6s-5.2-11.6-11.6-11.6z"/><path class="st1" d="M42.5 41.4c6.4 0 11.6-5.2 11.6-11.6s-5.2-11.6-11.6-11.6v23.2zM78.5 77.4h-36v7.7h36c2.1 0 3.9-1.7 3.9-3.9 0-2.1-1.8-3.8-3.9-3.8z"/><path class="st0" d="M11.6 18.1C5.2 18.1 0 23.3 0 29.7s5.2 11.6 11.6 11.6c6.4 0 11.6-5.2 11.6-11.6s-5.1-11.6-11.6-11.6z"/><path class="st1" d="M73.4 18.1c-6.4 0-11.6 5.2-11.6 11.6S67 41.3 73.4 41.3c6.4 0 11.6-5.2 11.6-11.6s-5.2-11.6-11.6-11.6z"/></svg>