<svg id="Capa_1" xmlns="http://www.w3.org/2000/svg" viewBox="0 0 85 85"><style>.st0{fill:#e49429}.st1{fill:#b77220}</style><path class="st0" d="M74.699 33.874a3.857 3.857 0 0 0-4.267 1.108L57.93 49.566 45.429 34.981a3.858 3.858 0 0 0-5.858 0l-12.5 14.585-12.502-14.585a3.859 3.859 0 0 0-6.786 2.51V81.21a3.858 3.858 0 0 0 3.858 3.858H73.36a3.858 3.858 0 0 0 3.858-3.858V37.491a3.858 3.858 0 0 0-2.519-3.617z"/><path class="st1" d="M74.699 33.874a3.857 3.857 0 0 0-4.267 1.108L57.93 49.566 45.429 34.981a3.858 3.858 0 0 0-2.929-1.347v51.433h30.86a3.858 3.858 0 0 0 3.858-3.858V37.491a3.858 3.858 0 0 0-2.519-3.617z"/><path class="st0" d="M78.504 85.067H6.497a3.858 3.858 0 0 1 0-7.716h72.006a3.858 3.858 0 0 1 .001 7.716zM42.5 18.069c-6.419 0-11.641 5.222-11.641 11.64s5.222 11.64 11.641 11.64c6.418 0 11.64-5.222 11.64-11.64s-5.221-11.64-11.64-11.64z"/><path class="st1" d="M42.5 41.416c6.418 0 11.64-5.222 11.64-11.64s-5.222-11.64-11.64-11.64v23.28zM78.504 77.352H42.5v7.715h36.004a3.858 3.858 0 0 0 0-7.715z"/><path class="st0" d="M11.641 18.069C5.222 18.069 0 23.291 0 29.709s5.222 11.64 11.641 11.64c6.418 0 11.64-5.222 11.64-11.64s-5.222-11.64-11.64-11.64z"/><path class="st1" d="M73.36 18.069c-6.419 0-11.641 5.222-11.641 11.64s5.222 11.64 11.641 11.64c6.418 0 11.64-5.222 11.64-11.64s-5.222-11.64-11.64-11.64z"/></svg>