<?xml version="1.0" encoding="utf-8"?>
<!-- Generator: Adobe Illustrator 23.0.3, SVG Export Plug-In . SVG Version: 6.00 Build 0)  -->
<svg version="1.1" id="Layer_1" xmlns="http://www.w3.org/2000/svg" xmlns:xlink="http://www.w3.org/1999/xlink" x="0px" y="0px"
	 viewBox="0 0 354.3 119.7" style="enable-background:new 0 0 354.3 119.7;" xml:space="preserve">
<style type="text/css">
	.st0{fill:#2B2B2D;}
	.st1{fill:#232323;}
	.st2{fill:#1B1C1E;}
	.st3{fill:url(#SVGID_1_);}
	.st4{fill:#06090E;}
	.st5{fill:#1B1C1B;}
	.st6{fill:#1C1C1E;}
	.st7{fill:#121212;}
	.st8{fill:#26272B;}
	.st9{fill:#313133;}
	.st10{fill:url(#SVGID_2_);}
	.st11{fill:#F4F1F0;}
	.st12{fill:none;stroke:#F4F1F0;stroke-width:0.75;stroke-miterlimit:10;}
	.st13{fill:#151106;}
	.st14{fill:#C7BCAE;}
	.st15{fill:#F62717;}
	.st16{fill:#232227;}
	.st17{fill:#F0F2F1;}
</style>
<path class="st0" d="M143.4,8.5V1c0-0.5-0.4-1-1-1L10.1,0C4.6,0,0,4.6,0,10.1l0,87.8c0.8,8.2,6,12.6,13.2,14
	c32.9,5.1,114.1,8,164,7.8c49.9,0.2,131.1-2.7,164-7.8c7.2-1.4,12.4-5.8,13.2-14V10.1c0-5.6-4.6-10.1-10.1-10.1L211.9,0
	c-0.5,0-1,0.4-1,1v7.8c0,0.4-0.3,0.7-0.8,0.8h-66c-0.4,0-0.8-0.3-0.8-0.8V8.5z"/>
<g>
	<path class="st1" d="M71.5,7.2v109.7c-23.9-1.3-45.1-3-58.4-5.1C6,110.5,0.8,106.1,0,97.9L0,17c0-5.4,4.2-9.9,9.3-9.9H71.5z
		 M282.8,7.2v109.7c23.9-1.3,45.1-3,58.4-5.1c7.2-1.4,12.4-5.8,13.2-14V17c0-5.4-4.2-9.9-9.3-9.9L282.8,7.2z"/>
</g>
<g>
	<path class="st2" d="M71.5,116.9V7.2c0.2-0.3,2.6-2.1,3.5-2.4v112.3L71.5,116.9z M282.8,116.9V7.2c-0.2-0.3-2.6-2.1-3.5-2.4v112.3
		L282.8,116.9z"/>
</g>
<radialGradient id="SVGID_1_" cx="10.0934" cy="511.6194" r="10.8828" gradientTransform="matrix(1 0 0 -1 27.0006 584.3494)" gradientUnits="userSpaceOnUse">
	<stop  offset="0" style="stop-color:#1B1C1B"/>
	<stop  offset="1" style="stop-color:#232323"/>
</radialGradient>
<path class="st3" d="M37.1,70.6l-8.5-8.5c-0.4-0.4-1.2-0.2-1.8,0.4c-0.6,0.6-0.8,1.4-0.4,1.8l8.5,8.5l-8.5,8.5
	c-0.4,0.4-0.2,1.2,0.4,1.8c0.6,0.6,1.4,0.8,1.8,0.4l8.5-8.5l8.5,8.5c0.4,0.4,1.2,0.2,1.8-0.4c0.6-0.6,0.8-1.4,0.4-1.8l-8.5-8.5
	l8.5-8.5c0.4-0.4,0.2-1.2-0.4-1.8c-0.6-0.6-1.4-0.8-1.8-0.4L37.1,70.6z"/>
<path class="st4" d="M45.1,62.1v-8.4c0-1.3-1-2.3-2.3-2.3H31.4c-1.3,0-2.3,1-2.3,2.3v8.4c0,0.3,0.1,0.7,0.4,0.9l7.6,7.6l7.6-7.6
	C45,62.7,45.1,62.4,45.1,62.1z M26.4,64.7H18c-1.3,0-2.3,1-2.3,2.3v11.4c0,1.3,1,2.3,2.3,2.3h8.4c0.3,0,0.7-0.1,0.9-0.4l7.6-7.6
	l-7.6-7.6C27.1,64.9,26.8,64.7,26.4,64.7z M29.1,83.4v8.4c0,1.3,1,2.3,2.3,2.3h11.4c1.3,0,2.3-1,2.3-2.3v-8.4c0-0.3-0.1-0.7-0.4-0.9
	l-7.6-7.6l-7.6,7.6C29.2,82.7,29.1,83.1,29.1,83.4z M47.8,64.7h8.4c1.3,0,2.3,1,2.3,2.3v11.4c0,1.3-1,2.3-2.3,2.3h-8.4
	c-0.3,0-0.7-0.1-0.9-0.4l-7.6-7.6l7.6-7.6C47.1,64.9,47.4,64.7,47.8,64.7z"/>
<g>
	<path class="st5" d="M30.1,62.4c-0.1-0.1-0.1-0.2-0.1-0.3v-8.4c0-0.8,0.7-1.5,1.5-1.5h11.4c0.8,0,1.5,0.7,1.5,1.5v8.4
		c0,0.1,0,0.2-0.1,0.3l-7,7C37.1,69.4,30.1,62.4,30.1,62.4z M26.7,79.8c-0.1,0.1-0.2,0.1-0.3,0.1H18c-0.8,0-1.5-0.7-1.5-1.5V67
		c0-0.8,0.7-1.5,1.5-1.5h8.4c0.1,0,0.2,0,0.3,0.1l7,7C33.7,72.7,26.7,79.8,26.7,79.8z M44.1,83.1c0.1,0.1,0.1,0.2,0.1,0.3v8.4
		c0,0.8-0.7,1.5-1.5,1.5H31.4c-0.8,0-1.5-0.7-1.5-1.5v-8.4c0-0.1,0-0.2,0.1-0.3l7-7L44.1,83.1z M47.5,79.8c0.1,0.1,0.2,0.1,0.3,0.1
		h8.4c0.8,0,1.5-0.7,1.5-1.5V67c0-0.8-0.7-1.5-1.5-1.5h-8.4c-0.1,0-0.2,0-0.3,0.1l-7,7C40.4,72.7,47.5,79.8,47.5,79.8z"/>
</g>
<g>
	<path class="st6" d="M71.4,20.7H1.7c-0.4,0-0.7-0.3-0.7-0.7v-0.7c0-0.4,0.3-0.7,0.7-0.7h69.7c0.4,0,0.7,0.3,0.7,0.7v0.7
		C72.1,20.3,71.8,20.7,71.4,20.7z M71.4,25.8H1.7c-0.4,0-0.7-0.3-0.7-0.7v-0.7c0-0.4,0.3-0.7,0.7-0.7h69.7c0.4,0,0.7,0.3,0.7,0.7
		v0.7C72.1,25.5,71.8,25.8,71.4,25.8z M71.4,31H1.7C1.3,31,1,30.7,1,30.3v-0.7c0-0.4,0.3-0.7,0.7-0.7h69.7c0.4,0,0.7,0.3,0.7,0.7
		v0.7C72.1,30.7,71.8,31,71.4,31z M71.4,36.2H1.7c-0.4,0-0.7-0.3-0.7-0.7v-0.7C1,34.3,1.3,34,1.7,34h69.7c0.4,0,0.7,0.3,0.7,0.7v0.7
		C72.1,35.8,71.8,36.2,71.4,36.2z"/>
</g>
<g>
	<path class="st7" d="M36.5,54.5l-3.1,6.1c-0.2,0.3,0,0.7,0.3,0.9c0.1,0,0.2,0.1,0.3,0.1h6.1c0.5,0,0.8-0.5,0.6-0.9l-3.1-6.1
		c-0.2-0.3-0.6-0.5-0.9-0.3C36.7,54.3,36.6,54.4,36.5,54.5z M18.8,73.3l6.1,3.1c0.3,0.2,0.7,0,0.9-0.3c0-0.1,0.1-0.2,0.1-0.3v-6.1
		c0-0.5-0.5-0.8-0.9-0.6l-6.1,3.1c-0.3,0.2-0.5,0.6-0.3,0.9C18.6,73.1,18.7,73.2,18.8,73.3z M37.7,91l3.1-6.1c0.2-0.3,0-0.7-0.3-0.9
		c-0.1,0-0.2-0.1-0.3-0.1H34c-0.5,0-0.8,0.5-0.6,0.9l3.1,6.1c0.2,0.3,0.6,0.5,0.9,0.3C37.5,91.2,37.6,91.1,37.7,91z M55.3,73.3
		l-6.1,3.1c-0.3,0.2-0.7,0-0.9-0.3c0-0.1-0.1-0.2-0.1-0.3v-6.1c0-0.5,0.5-0.8,0.9-0.6l6.1,3.1c0.3,0.2,0.5,0.6,0.3,0.9
		C55.6,73.1,55.5,73.2,55.3,73.3z"/>
</g>
<path class="st8" d="M75,4.8h204.3v112.3c-34.3,1.8-73.4,2.7-102.2,2.6c-28.7,0.1-67.9-0.8-102.2-2.6V4.8z"/>
<path class="st9" d="M76.7,104.4c0,0.4,0.3,0.7,0.6,0.7c30.8,3.6,64.5,5.6,99.9,5.6s69.1-1.9,99.9-5.6c0.4,0,0.6-0.3,0.6-0.7V19.2
	c0-0.4-0.3-0.7-0.7-0.7c0,0,0,0,0,0H77.4c-0.4,0-0.7,0.3-0.7,0.7c0,0,0,0,0,0V104.4z"/>
<path d="M143.4,1.4h67.5v8h-67.5V1.4z"/>
<linearGradient id="SVGID_2_" gradientUnits="userSpaceOnUse" x1="150.1664" y1="575.4734" x2="150.1664" y2="584.3494" gradientTransform="matrix(1 0 0 -1 27.0006 584.3494)">
	<stop  offset="0" style="stop-color:#2C232D"/>
	<stop  offset="0.5" style="stop-color:#312C39"/>
	<stop  offset="1" style="stop-color:#2C232D"/>
</linearGradient>
<path class="st10" d="M144.1,8c0,0.5,0.4,0.9,1,0.9h64.2c0.5,0,1-0.4,1-0.9v-7c0-0.5-0.4-0.9-1-0.9l-64.2,0c-0.5,0-1,0.4-1,0.9V8z"
	/>
<g>
	<path class="st11" d="M89.5,30.1c-0.4,0.2-0.8,0.3-1.3,0.4c-1.3,0-2.4-1.1-2.4-2.4c0-1.3,1.1-2.4,2.4-2.4c0.4,0,0.9,0.1,1.3,0.4
		v-2.6c-0.4-0.1-0.8-0.2-1.3-0.2c-2.7,0-4.9,2.2-4.9,4.9c0,2.7,2.2,4.9,4.9,4.9c0.4,0,0.9-0.1,1.3-0.2V30.1z"/>
	<path class="st11" d="M89.5,27.8h2.1l1.8-1.8h-3.9V27.8z M93.4,30l-1.8-1.8h-2.1V30H93.4z M104,27.7c-0.3,0-0.6,0.1-0.7,0.4
		c-0.2,0.2-0.3,0.6-0.3,1c0,0.4,0.1,0.7,0.3,0.9c0.2,0.2,0.4,0.4,0.7,0.4c0.3,0,0.6-0.1,0.7-0.4c0.2-0.2,0.3-0.6,0.3-1
		s-0.1-0.7-0.3-1C104.6,27.8,104.3,27.7,104,27.7z M149.5,30.4c0.1,0,0.3,0,0.4,0c0.2,0,0.5,0,0.7-0.1c0.3-0.1,0.5-0.2,0.8-0.3v1.1
		c-0.3,0.1-0.5,0.2-0.8,0.2c-0.3,0-0.6,0.1-0.9,0.1c-0.1,0-0.2,0-0.2,0c-0.7,0-1.3-0.3-1.7-0.7c-0.5-0.4-0.7-1.1-0.7-1.8
		c0-0.7,0.2-1.3,0.7-1.7c0.4-0.4,1-0.6,1.8-0.6h0c0.7,0,1.3,0.2,1.7,0.7c0.4,0.4,0.6,1.1,0.6,1.8v0.4h-3.2c0,0.3,0.2,0.5,0.4,0.7
		C149.2,30.2,149.3,30.3,149.5,30.4z M149.5,28.5h0.9c0-0.3-0.1-0.6-0.3-0.7c-0.2-0.2-0.4-0.3-0.6-0.3h0c-0.2,0-0.5,0.1-0.6,0.3
		c-0.2,0.2-0.3,0.4-0.3,0.7H149.5L149.5,28.5z M139.9,30.3c0.3,0,0.6-0.1,0.7-0.4c0.2-0.2,0.3-0.6,0.3-1s-0.1-0.7-0.3-1
		c-0.2-0.2-0.4-0.4-0.7-0.4c-0.3,0-0.6,0.1-0.7,0.4c-0.2,0.2-0.3,0.6-0.3,1c0,0.4,0.1,0.7,0.3,0.9C139.3,30.2,139.6,30.3,139.9,30.3
		z M139.9,26.6c0.8,0,1.5,0.2,1.9,0.6c0.5,0.4,0.7,1,0.7,1.8c0,0.8-0.2,1.3-0.7,1.8c-0.5,0.4-1.1,0.6-1.9,0.6
		c-0.8,0-1.5-0.2-1.9-0.6c-0.5-0.4-0.7-1-0.7-1.8c0-0.8,0.2-1.4,0.7-1.8C138.4,26.8,139,26.6,139.9,26.6z M146.7,26.6l-0.1,1.4
		c-0.2-0.1-0.3-0.1-0.5-0.1c-0.4,0-0.7,0.1-0.8,0.4s-0.3,0.6-0.3,1.1v2h-1.6v-4.6h1.4v0.9c0.2-0.3,0.4-0.6,0.6-0.8
		c0.2-0.2,0.5-0.2,0.8-0.2C146.3,26.6,146.5,26.6,146.7,26.6L146.7,26.6z M133.8,30.2c0.3,0,0.5-0.1,0.7-0.3
		c0.2-0.2,0.3-0.5,0.3-0.9c0-0.4-0.1-0.7-0.3-0.9c-0.2-0.2-0.4-0.3-0.7-0.3h0c-0.3,0-0.5,0.1-0.7,0.3c-0.2,0.2-0.3,0.5-0.3,0.9
		c0,0.4,0.1,0.7,0.3,0.9C133.2,30.1,133.5,30.2,133.8,30.2L133.8,30.2z M133.8,26.6c0.1,0,0.2,0.1,0.3,0.1c0.3,0.1,0.5,0.3,0.7,0.6
		v-2.7h1.6v6.7h-1.4v-0.9c-0.2,0.4-0.6,0.8-1.1,0.9c-0.2,0-0.4,0.1-0.5,0.1c-0.6,0-1.1-0.2-1.5-0.7c-0.4-0.4-0.6-1-0.6-1.8
		c0-0.7,0.2-1.3,0.5-1.7s0.9-0.6,1.5-0.6C133.4,26.6,133.6,26.6,133.8,26.6L133.8,26.6z M127.8,30.3c0.3,0,0.5-0.1,0.7-0.4
		c0.2-0.2,0.3-0.6,0.3-1s-0.1-0.7-0.3-1c-0.2-0.2-0.4-0.4-0.7-0.4c-0.3,0-0.6,0.1-0.7,0.4c-0.2,0.2-0.3,0.6-0.3,1
		c0,0.4,0.1,0.7,0.3,0.9C127.3,30.2,127.5,30.3,127.8,30.3z M127.8,26.6c0.8,0,1.5,0.2,1.9,0.6c0.5,0.4,0.7,1,0.7,1.8
		c0,0.8-0.2,1.3-0.7,1.8c-0.5,0.4-1.1,0.6-1.9,0.6c-0.8,0-1.5-0.2-1.9-0.6c-0.5-0.4-0.7-1-0.7-1.8c0-0.8,0.2-1.4,0.7-1.8
		C126.3,26.8,127,26.6,127.8,26.6z M104,31.4c-0.8,0-1.5-0.2-1.9-0.6c-0.5-0.4-0.7-1-0.7-1.8c0-0.8,0.2-1.4,0.7-1.8
		c0.5-0.4,1.1-0.6,1.9-0.6s1.5,0.2,1.9,0.6c0.5,0.4,0.7,1,0.7,1.8c0,0.8-0.2,1.3-0.7,1.8C105.5,31.2,104.8,31.4,104,31.4z
		 M112.1,27.5c0.2-0.3,0.4-0.5,0.7-0.7c0.3-0.2,0.6-0.3,0.9-0.3c0.5,0,1,0.2,1.2,0.5c0.3,0.3,0.4,0.8,0.4,1.5v2.7h-1.6v-2.4
		c0-0.4-0.1-0.6-0.2-0.8c-0.1-0.2-0.3-0.3-0.5-0.3c-0.2,0-0.5,0.1-0.6,0.3c-0.1,0.2-0.2,0.5-0.2,0.9v2.2h-1.6v-2.4
		c0-0.4-0.1-0.6-0.2-0.8c-0.1-0.2-0.3-0.3-0.5-0.3c-0.2,0-0.5,0.1-0.6,0.3c-0.2,0.2-0.2,0.5-0.2,0.9v2.2h-1.6v-4.6h1.4v0.8
		c0.2-0.3,0.4-0.5,0.7-0.7c0.3-0.2,0.6-0.2,0.9-0.2c0.4,0,0.7,0.1,0.9,0.3C111.8,27,112,27.2,112.1,27.5L112.1,27.5z M121,27.5
		c0.2-0.3,0.4-0.5,0.7-0.7c0.3-0.2,0.6-0.3,0.9-0.3c0.5,0,1,0.2,1.2,0.5c0.3,0.3,0.4,0.8,0.4,1.5v2.7h-1.5v-2.4
		c0-0.4-0.1-0.6-0.2-0.8c-0.1-0.2-0.3-0.3-0.5-0.3c-0.3,0-0.5,0.1-0.6,0.3c-0.1,0.2-0.2,0.5-0.2,0.9v2.2h-1.6v-2.4
		c0-0.4-0.1-0.6-0.2-0.8c-0.1-0.2-0.3-0.3-0.6-0.3c-0.2,0-0.5,0.1-0.6,0.3c-0.2,0.2-0.2,0.5-0.2,0.9v2.2h-1.6v-4.6h1.4v0.8
		c0.2-0.3,0.4-0.5,0.7-0.7c0.3-0.2,0.6-0.2,0.9-0.2c0.3,0,0.7,0.1,0.9,0.3C120.7,27,120.9,27.2,121,27.5z M100.7,25.3l-0.1,1.3
		c-0.2-0.1-0.5-0.2-0.7-0.3c-0.3-0.1-0.5-0.1-0.8-0.1c-0.6,0-1.1,0.2-1.5,0.5c-0.4,0.4-0.6,0.8-0.6,1.5c0,0.6,0.2,1.1,0.6,1.5
		c0.4,0.4,0.9,0.5,1.5,0.5c0.2,0,0.5,0,0.7-0.1c0.3-0.1,0.5-0.2,0.8-0.3l0.1,1.4c-0.3,0.1-0.6,0.1-0.9,0.2c-0.3,0-0.6,0.1-0.9,0.1
		c-1.1,0-2-0.3-2.6-0.9c-0.6-0.6-0.9-1.4-0.9-2.4c0-1,0.3-1.8,0.9-2.3c0.6-0.6,1.5-0.9,2.5-0.9c0.4,0,0.7,0,1,0.1
		C100.1,25.1,100.4,25.1,100.7,25.3L100.7,25.3z"/>
</g>
<path class="st11" d="M255.9,29.9v-3.5c0-0.9,0.3-1.4,1.3-1.4h1c0.4,0,0.4,0,0.4-0.6v-1c0-0.5,0.1-0.6,0.5-0.6h0.8
	c0.6,0,0.6,0,0.6,0.8v7c0,0.6-0.1,0.6-0.8,0.6h-2.1C256.4,31.3,255.9,31.2,255.9,29.9z M260.2,23.3h-1.3v1.4c0,0.7,0,0.8-0.8,0.8
	h-0.8c-1.1,0-1.2,0.2-1.2,1.1v3.3c0,0.9,0.3,1.2,0.8,1.2l3.2,0L260.2,23.3L260.2,23.3z M257.5,29.4V27c0-0.6,0.2-1,0.7-1
	c0.6,0,0.7,0.5,0.7,1v2.4c0,0.5-0.1,1-0.7,1C257.7,30.4,257.5,30,257.5,29.4z M257.8,27v2.3c0,0.4,0.3,0.7,0.5,0.7
	c0.2,0,0.3-0.2,0.3-0.6V27c0-0.5-0.1-0.7-0.3-0.7C258,26.3,257.8,26.6,257.8,27L257.8,27z M268.6,29.9v-3.5c0-0.8,0.4-1.3,1.3-1.3
	h1.7c0.9,0,1.4,0.3,1.4,1.2v1c0,0.4-0.1,0.5-0.5,0.5h-0.8c-0.4,0-0.6-0.1-0.6-0.4v-0.4c0-0.3-0.1-0.5-0.3-0.5
	c-0.3,0-0.4,0.2-0.4,0.8v2.1c0,0.5,0.1,0.7,0.4,0.7c0.2,0,0.4-0.2,0.4-0.5v-0.6c0-0.3,0.1-0.4,0.4-0.4h1c0.3,0,0.4,0.2,0.4,0.5V30
	c0,0.8-0.5,1.3-1,1.3h-2.3C268.8,31.3,268.6,30.7,268.6,29.9L268.6,29.9z M271.5,26.8v0.6h1.2v-1.1c0-0.6-0.3-0.8-1.1-0.8h-1.7
	c-0.9,0-1,0.3-1,1.1v3.4c0,0.9,0.3,1,1.1,1h1.8c0.6,0,0.8-0.4,0.8-1.1v-1h-1.2v0.6c0,0.6-0.3,1-0.8,1c-0.4,0-0.6-0.3-0.6-0.9V27
	c0-0.6,0.3-0.9,0.7-0.9C271.2,26.1,271.5,26.4,271.5,26.8z M263.8,27.6v-1c0-1.1,0.3-1.5,1.4-1.5h2.1c0.6,0,0.7,0,0.7,0.5v0.7
	c0,0.6,0,0.6-0.7,0.6H266c-0.4,0-0.6,0-0.6,0.2c0,0.3,0.2,0.3,0.6,0.3h0.9c0.8,0,1.2,0.6,1.2,1.2v1.4c0,1.1-0.4,1.4-1.5,1.4h-2.1
	c-0.6,0-0.6,0-0.6-0.4v-0.8c0-0.3,0.1-0.5,0.4-0.5h1.6c0.4,0,0.6-0.1,0.6-0.3c0-0.3-0.2-0.3-0.6-0.3h-1
	C263.8,29,263.8,28.3,263.8,27.6z M266,29.9h-2v1h2.5c1.1,0,1.2-0.3,1.2-0.9v-1.9c0-0.3-0.5-0.5-0.8-0.5h-0.9c-0.7,0-1-0.1-1-0.6
	c0-0.3,0.2-0.6,0.7-0.6h1.8v-1h-2.4c-0.8,0-1.1,0.1-1.1,1v1.1c0,0.8,0.2,1.1,1,1.1h0.9c0.4,0,0.8,0.1,0.8,0.6
	C266.8,29.7,266.4,29.9,266,29.9L266,29.9z M264.7,22.9v1.7h0.4v-1.2l0.5,1.2h0.4l0.4-1.2v1.2h0.4v-1.7h-0.6l-0.3,1l-0.4-1
	C265.4,22.9,264.7,22.9,264.7,22.9z M261.2,30.4v-4.7c0-0.5,0.1-0.6,0.5-0.6h0.9c0.6,0,0.6,0,0.6,0.7v4.8c0,0.6-0.1,0.6-0.5,0.6
	h-0.9C261.2,31.3,261.2,31.3,261.2,30.4z M262.9,25.4h-1.3V31l1.3,0V25.4z M268.4,24.6l0.6-1.7h0.6l0.5,1.7h-0.4l-0.1-0.3H269
	l-0.1,0.3H268.4L268.4,24.6z M269.3,23.3l-0.2,0.6h0.4L269.3,23.3z M263.7,22.9c0.6,0,0.7,0.2,0.7,0.9c0,0.7-0.3,0.8-0.7,0.8
	c-0.6,0-0.8-0.2-0.8-0.8C262.9,23.1,263.1,22.9,263.7,22.9z M264,23.6c0-0.3-0.2-0.4-0.3-0.4c-0.3,0-0.4,0.1-0.4,0.5
	c0,0.4,0.1,0.5,0.4,0.5C263.9,24.2,264,24.2,264,23.6L264,23.6z M271.2,23.9c0,0.2,0,0.3-0.2,0.3c-0.3,0-0.4-0.2-0.4-0.5
	c0-0.4,0.2-0.5,0.4-0.5s0.3,0,0.3,0.2l0.3,0c0-0.4-0.2-0.6-0.7-0.6c-0.5,0-0.7,0.2-0.7,0.8c0,0.8,0.3,0.9,0.9,0.9
	c0.4,0,0.5-0.2,0.5-0.6C271.6,23.9,271.2,23.9,271.2,23.9z M267.1,22.9h0.6c0.5,0,0.8,0.1,0.8,0.6c0,0.6-0.2,0.7-1,0.7v0.4h-0.5
	V22.9z M268.1,23.5c0-0.3-0.1-0.3-0.5-0.3v0.6C268,23.8,268.1,23.7,268.1,23.5z M271.7,22.9v0.3h0.5v1.3h0.4v-1.3h0.4v-0.3
	C273,22.9,271.7,22.9,271.7,22.9z M262.2,23.9c0,0.2,0,0.3-0.2,0.3c-0.3,0-0.4-0.2-0.4-0.5c0-0.4,0.2-0.5,0.4-0.5
	c0.2,0,0.3,0,0.3,0.2l0.3,0c0-0.4-0.2-0.6-0.7-0.6c-0.5,0-0.7,0.2-0.7,0.8c0,0.8,0.3,0.9,0.9,0.9c0.4,0,0.5-0.2,0.5-0.6L262.2,23.9
	L262.2,23.9z"/>
<path class="st12" d="M83.4,35.7H273"/>
<g>
	<path class="st11" d="M159,28.7c-0.1-0.1-0.2-0.3-0.4-0.3c-0.1,0-0.2,0-0.3,0c-0.1,0-0.3,0-0.4,0.1c-0.1,0.1-0.2,0.2-0.3,0.3
		c-0.1,0.1-0.1,0.2-0.2,0.4c-0.1,0.3-0.1,0.6,0,0.9c0,0.1,0.1,0.3,0.2,0.4c0.1,0.1,0.2,0.2,0.3,0.3c0.1,0.1,0.3,0.1,0.4,0.1
		c0.2,0,0.4-0.1,0.5-0.2s0.2-0.3,0.2-0.6h0.7c0,0.2-0.1,0.4-0.1,0.6s-0.2,0.3-0.3,0.4s-0.3,0.2-0.5,0.3c-0.2,0.1-0.4,0.1-0.6,0.1
		c-0.3,0-0.5,0-0.7-0.1s-0.4-0.2-0.5-0.4c-0.1-0.2-0.3-0.4-0.3-0.6c-0.1-0.2-0.1-0.4-0.1-0.7c0-0.3,0-0.5,0.1-0.7
		c0.1-0.2,0.2-0.4,0.3-0.6c0.1-0.2,0.3-0.3,0.5-0.4s0.4-0.1,0.7-0.1c0.2,0,0.4,0,0.5,0.1s0.3,0.1,0.5,0.2s0.2,0.2,0.3,0.4
		s0.1,0.3,0.2,0.5h-0.7C159.1,28.8,159.1,28.8,159,28.7z M161.9,27.8c0.2,0,0.4,0,0.6,0.1c0.4,0.1,0.7,0.5,0.8,0.8
		c0.1,0.2,0.1,0.5,0.1,0.7c0,0.3,0,0.5-0.1,0.7c-0.1,0.2-0.2,0.4-0.3,0.5c-0.1,0.2-0.3,0.3-0.5,0.4c-0.2,0.1-0.4,0.1-0.7,0.1h-1.5
		v-3.4C160.4,27.8,161.9,27.8,161.9,27.8z M161.8,30.6c0.1,0,0.2,0,0.3-0.1c0.1,0,0.2-0.1,0.3-0.2c0.1-0.1,0.1-0.2,0.2-0.3
		s0.1-0.3,0.1-0.5c0-0.2,0-0.3-0.1-0.5c0-0.1-0.1-0.3-0.2-0.4c-0.1-0.1-0.2-0.2-0.3-0.2s-0.3-0.1-0.5-0.1h-0.5v2.2L161.8,30.6
		L161.8,30.6z M163.7,28.4v-0.6h2.8v0.6h-1v2.8h-0.8v-2.8H163.7z M167.6,31.2l-1.1-3.4h0.8l0.8,2.4h0l0.8-2.4h0.8l-1.1,3.4H167.6z
		 M173.1,27.8c0.2,0,0.3,0,0.4,0.1c0.1,0.1,0.2,0.1,0.3,0.2s0.2,0.2,0.2,0.3c0,0.1,0.1,0.2,0.1,0.4c0,0.2,0,0.4-0.1,0.5
		c-0.1,0.2-0.2,0.3-0.4,0.3v0c0.2,0,0.3,0.2,0.4,0.3c0,0.1,0.1,0.2,0.1,0.2s0,0.2,0,0.3l0,0.2c0,0.1,0,0.1,0,0.2s0,0.1,0,0.2
		s0,0.1,0.1,0.2h-0.8c0-0.1-0.1-0.2-0.1-0.4c0-0.1,0-0.3,0-0.4c0-0.2-0.1-0.3-0.2-0.4s-0.2-0.1-0.4-0.1H172v1.3h-0.8v-3.4
		L173.1,27.8L173.1,27.8z M172.8,29.3c0.2,0,0.3,0,0.4-0.1c0.1-0.1,0.1-0.2,0.1-0.4c0-0.2,0-0.3-0.1-0.4s-0.2-0.1-0.4-0.1H172v1
		H172.8z M177.3,27.8v0.6h-1.8v0.7h1.7v0.6h-1.7v0.8h1.8v0.6h-2.6v-3.4H177.3z M178.9,27.8l0.8,2.4h0l0.8-2.4h1.1v3.4h-0.7v-2.4h0
		l-0.8,2.4h-0.6l-0.8-2.4h0v2.4h-0.7v-3.4H178.9L178.9,27.8z M182.1,28.8c0.1-0.2,0.2-0.4,0.3-0.6c0.1-0.2,0.3-0.3,0.5-0.4
		s0.4-0.1,0.7-0.1c0.3,0,0.5,0,0.7,0.1s0.4,0.2,0.5,0.4c0.1,0.2,0.3,0.4,0.3,0.6c0.1,0.2,0.1,0.5,0.1,0.7c0,0.2,0,0.5-0.1,0.7
		c-0.1,0.2-0.2,0.4-0.3,0.6c-0.1,0.2-0.3,0.3-0.5,0.4s-0.4,0.1-0.7,0.1c-0.3,0-0.5,0-0.7-0.1s-0.4-0.2-0.5-0.4
		c-0.1-0.2-0.3-0.4-0.3-0.6c-0.1-0.2-0.1-0.4-0.1-0.7C182,29.2,182.1,29,182.1,28.8z M182.8,29.9c0,0.1,0.1,0.3,0.2,0.4
		c0.1,0.1,0.2,0.2,0.3,0.3c0.1,0.1,0.3,0.1,0.4,0.1s0.3,0,0.4-0.1c0.1-0.1,0.2-0.2,0.3-0.3c0.1-0.1,0.1-0.2,0.2-0.4
		c0-0.1,0.1-0.3,0.1-0.4c0-0.2,0-0.3-0.1-0.4c0-0.1-0.1-0.3-0.2-0.4c-0.1-0.1-0.2-0.2-0.3-0.3c-0.1-0.1-0.3-0.1-0.4-0.1
		s-0.3,0-0.4,0.1c-0.1,0.1-0.2,0.2-0.3,0.3c-0.1,0.1-0.1,0.2-0.2,0.4C182.8,29.3,182.8,29.6,182.8,29.9z M185.6,28.4v-0.6h2.8v0.6
		h-1v2.8h-0.8v-2.8H185.6z M191.4,27.8v0.6h-1.8v0.7h1.7v0.6h-1.7v0.8h1.8v0.6h-2.6v-3.4H191.4z M195.5,28.7
		c-0.1-0.1-0.2-0.3-0.4-0.3c-0.1,0-0.2,0-0.3,0c-0.1,0-0.3,0-0.4,0.1c-0.1,0.1-0.2,0.2-0.3,0.3c-0.1,0.1-0.1,0.2-0.2,0.4
		c-0.1,0.3-0.1,0.6,0,0.9c0,0.1,0.1,0.3,0.2,0.4c0.1,0.1,0.2,0.2,0.3,0.3c0.1,0.1,0.3,0.1,0.4,0.1c0.2,0,0.4-0.1,0.5-0.2
		s0.2-0.3,0.2-0.6h0.7c0,0.2-0.1,0.4-0.1,0.6s-0.2,0.3-0.3,0.4s-0.3,0.2-0.5,0.3c-0.2,0.1-0.4,0.1-0.6,0.1c-0.3,0-0.5,0-0.7-0.1
		s-0.4-0.2-0.5-0.4c-0.1-0.2-0.3-0.4-0.3-0.6c-0.1-0.2-0.1-0.4-0.1-0.7c0-0.3,0-0.5,0.1-0.7c0.1-0.2,0.2-0.4,0.3-0.6
		c0.1-0.2,0.3-0.3,0.5-0.4s0.4-0.1,0.7-0.1c0.2,0,0.4,0,0.5,0.1s0.3,0.1,0.5,0.2s0.2,0.2,0.3,0.4s0.1,0.3,0.2,0.5h-0.7
		C195.5,28.8,195.5,28.8,195.5,28.7z M196.8,28.8c0.1-0.2,0.2-0.4,0.3-0.6c0.1-0.2,0.3-0.3,0.5-0.4s0.4-0.1,0.7-0.1
		c0.3,0,0.5,0,0.7,0.1s0.4,0.2,0.5,0.4c0.1,0.2,0.3,0.4,0.3,0.6c0.1,0.2,0.1,0.5,0.1,0.7c0,0.2,0,0.5-0.1,0.7
		c-0.1,0.2-0.2,0.4-0.3,0.6c-0.1,0.2-0.3,0.3-0.5,0.4s-0.4,0.1-0.7,0.1c-0.3,0-0.5,0-0.7-0.1s-0.4-0.2-0.5-0.4
		c-0.1-0.2-0.3-0.4-0.3-0.6c-0.1-0.2-0.1-0.4-0.1-0.7C196.7,29.2,196.7,29,196.8,28.8z M197.5,29.9c0,0.1,0.1,0.3,0.2,0.4
		c0.1,0.1,0.2,0.2,0.3,0.3c0.1,0.1,0.3,0.1,0.4,0.1s0.3,0,0.4-0.1c0.1-0.1,0.2-0.2,0.3-0.3c0.1-0.1,0.1-0.2,0.2-0.4
		c0-0.1,0.1-0.3,0.1-0.4c0-0.2,0-0.3-0.1-0.4c0-0.1-0.1-0.3-0.2-0.4c-0.1-0.1-0.2-0.2-0.3-0.3c-0.1-0.1-0.3-0.1-0.4-0.1
		s-0.3,0-0.4,0.1c-0.1,0.1-0.2,0.2-0.3,0.3c-0.1,0.1-0.1,0.2-0.2,0.4C197.4,29.3,197.4,29.6,197.5,29.9z M201.3,27.8l1.4,2.3h0v-2.3
		h0.7v3.4h-0.8l-1.4-2.3h0v2.3h-0.7v-3.4H201.3L201.3,27.8z M203.9,28.4v-0.6h2.8v0.6h-1v2.8h-0.8v-2.8H203.9z M208.9,27.8
		c0.2,0,0.3,0,0.4,0.1c0.4,0.1,0.6,0.5,0.6,0.9c0,0.2,0,0.4-0.1,0.5c-0.1,0.2-0.2,0.3-0.4,0.3v0c0.1,0,0.2,0.1,0.2,0.1
		s0.1,0.1,0.1,0.2c0,0.1,0.1,0.2,0.1,0.2s0,0.2,0,0.3c0,0.1,0,0.1,0,0.2c0,0.1,0,0.2,0,0.2c0,0.1,0,0.1,0,0.2s0,0.1,0.1,0.2h-0.8
		c0-0.1-0.1-0.2-0.1-0.4c0-0.2,0-0.3,0-0.4c0-0.2-0.1-0.3-0.2-0.4s-0.2-0.1-0.4-0.1h-0.8v1.3h-0.8v-3.4L208.9,27.8L208.9,27.8z
		 M208.6,29.3c0.2,0,0.3,0,0.4-0.1c0.1-0.1,0.1-0.2,0.1-0.4c0-0.2,0-0.3-0.1-0.4c-0.1-0.1-0.2-0.1-0.4-0.1h-0.8v1H208.6z
		 M210.5,28.8c0.1-0.2,0.2-0.4,0.3-0.6c0.1-0.2,0.3-0.3,0.5-0.4s0.4-0.1,0.7-0.1c0.3,0,0.5,0,0.7,0.1s0.4,0.2,0.5,0.4
		c0.1,0.2,0.3,0.4,0.3,0.6c0.1,0.2,0.1,0.5,0.1,0.7c0,0.2,0,0.5-0.1,0.7c-0.1,0.2-0.2,0.4-0.3,0.6c-0.1,0.2-0.3,0.3-0.5,0.4
		s-0.4,0.1-0.7,0.1c-0.3,0-0.5,0-0.7-0.1s-0.4-0.2-0.5-0.4c-0.1-0.2-0.3-0.3-0.3-0.6c-0.1-0.2-0.1-0.4-0.1-0.7
		C210.4,29.2,210.4,29,210.5,28.8z M211.2,29.9c0,0.1,0.1,0.3,0.2,0.4c0.2,0.2,0.4,0.4,0.7,0.4c0.2,0,0.3,0,0.4-0.1
		c0.1-0.1,0.2-0.2,0.3-0.3c0.1-0.1,0.1-0.2,0.2-0.4c0-0.1,0.1-0.3,0.1-0.4c0-0.2,0-0.3-0.1-0.4c0-0.1-0.1-0.3-0.2-0.4
		c-0.1-0.1-0.2-0.2-0.3-0.3c-0.1-0.1-0.3-0.1-0.4-0.1s-0.3,0-0.4,0.1c-0.1,0.1-0.2,0.2-0.3,0.3c-0.1,0.1-0.1,0.2-0.2,0.4
		C211.1,29.3,211.1,29.6,211.2,29.9z M215,27.8v2.8h1.7v0.6h-2.4v-3.4H215z M217.9,27.8v2.8h1.7v0.6h-2.4v-3.4H217.9z M222.5,27.8
		v0.6h-1.8v0.7h1.7v0.6h-1.7v0.8h1.8v0.6H220v-3.4H222.5z M224.9,27.8c0.2,0,0.3,0,0.4,0.1c0.4,0.1,0.6,0.5,0.6,0.9
		c0,0.2,0,0.4-0.1,0.5c-0.1,0.2-0.2,0.3-0.4,0.3v0c0.1,0,0.2,0.1,0.2,0.1s0.1,0.1,0.1,0.2c0,0.1,0.1,0.2,0.1,0.2s0,0.2,0,0.3
		c0,0.1,0,0.1,0,0.2c0,0.1,0,0.2,0,0.2c0,0.1,0,0.1,0,0.2s0,0.1,0.1,0.2h-0.8c0-0.1-0.1-0.2-0.1-0.4c0-0.2,0-0.3,0-0.4
		c0-0.2-0.1-0.3-0.2-0.4s-0.2-0.1-0.4-0.1h-0.8v1.3h-0.8v-3.4L224.9,27.8L224.9,27.8z M224.6,29.3c0.2,0,0.3,0,0.4-0.1
		c0.1-0.1,0.1-0.2,0.1-0.4c0-0.2,0-0.3-0.1-0.4c-0.1-0.1-0.2-0.1-0.4-0.1h-0.8v1H224.6z"/>
</g>
<g>
	<path class="st11" d="M156,42.1v0.5h-1.5v0.6h1.4v0.5h-1.4v0.7h1.6V45h-2.2v-2.9H156z M157,44.3c0,0.1,0.1,0.1,0.1,0.2
		c0.1,0,0.1,0.1,0.2,0.1c0.1,0,0.2,0,0.2,0c0.1,0,0.1,0,0.2,0c0.1,0,0.1,0,0.2-0.1s0.1-0.1,0.1-0.1s0.1-0.1,0.1-0.2
		c0-0.1,0-0.1-0.1-0.2c-0.1-0.1-0.1-0.1-0.2-0.1c-0.1,0-0.2-0.1-0.3-0.1c-0.1,0-0.2-0.1-0.3-0.1c-0.1,0-0.2-0.1-0.3-0.1
		s-0.2-0.1-0.3-0.2c-0.1-0.1-0.2-0.1-0.2-0.2c-0.1-0.1-0.1-0.2-0.1-0.3c0-0.2,0-0.3,0.1-0.4c0.1-0.1,0.1-0.2,0.3-0.3
		c0.1-0.1,0.2-0.1,0.4-0.2s0.3-0.1,0.4-0.1c0.2,0,0.3,0,0.4,0.1c0.1,0,0.3,0.1,0.4,0.2s0.2,0.2,0.3,0.3c0.1,0.1,0.1,0.3,0.1,0.4
		h-0.6c0-0.1,0-0.1-0.1-0.2c0-0.1-0.1-0.1-0.1-0.1c-0.1,0-0.1-0.1-0.2-0.1c-0.1,0-0.1,0-0.2,0c-0.1,0-0.1,0-0.2,0s-0.1,0-0.1,0.1
		c0,0-0.1,0.1-0.1,0.1s0,0.1,0,0.2c0,0,0,0.1,0,0.1c0,0,0.1,0.1,0.1,0.1c0.1,0,0.2,0.1,0.3,0.1l0.4,0.1c0.1,0,0.1,0,0.2,0.1
		s0.2,0.1,0.3,0.1c0.1,0.1,0.2,0.2,0.2,0.3c0.1,0.1,0.1,0.3,0.1,0.4c0,0.1,0,0.3-0.1,0.4c-0.1,0.1-0.1,0.2-0.2,0.3s-0.2,0.1-0.4,0.2
		c-0.2,0-0.3,0.1-0.5,0.1c-0.2,0-0.3,0-0.5-0.1c-0.1,0-0.3-0.1-0.4-0.2c-0.1-0.1-0.2-0.2-0.3-0.3s-0.1-0.3-0.1-0.5h0.6
		C156.9,44.2,157,44.2,157,44.3L157,44.3z M161,42.9c-0.1-0.1-0.2-0.2-0.3-0.3c-0.1,0-0.2,0-0.2,0c-0.2,0-0.5,0.1-0.6,0.3
		c-0.1,0.1-0.1,0.2-0.1,0.3c-0.1,0.2-0.1,0.5,0,0.7c0,0.1,0.1,0.2,0.1,0.3c0.1,0.1,0.1,0.2,0.2,0.2c0.1,0.1,0.2,0.1,0.4,0.1
		c0.2,0,0.4-0.1,0.5-0.2s0.2-0.3,0.2-0.5h0.6c0,0.2-0.1,0.3-0.1,0.5s-0.2,0.3-0.3,0.4S161.1,45,161,45s-0.3,0.1-0.5,0.1
		c-0.2,0-0.4,0-0.6-0.1c-0.2-0.1-0.3-0.2-0.5-0.3s-0.2-0.3-0.3-0.5c-0.1-0.2-0.1-0.4-0.1-0.6c0-0.2,0-0.4,0.1-0.6
		c0.1-0.2,0.2-0.4,0.3-0.5s0.3-0.2,0.5-0.3s0.4-0.1,0.6-0.1c0.2,0,0.3,0,0.5,0.1c0.1,0,0.3,0.1,0.4,0.2s0.2,0.2,0.3,0.3
		c0.1,0.1,0.1,0.3,0.1,0.5h-0.6C161.1,43,161.1,43,161,42.9z M163.7,42.1l1.1,2.9h-0.7l-0.2-0.7h-1.1l-0.2,0.7h-0.6l1.1-2.9H163.7z
		 M163.7,43.9l-0.4-1.1h0l-0.4,1.1H163.7z M166.3,42.1c0.2,0,0.3,0,0.5,0.1c0.1,0.1,0.2,0.1,0.3,0.2s0.1,0.2,0.2,0.3
		c0.1,0.2,0.1,0.5,0,0.7c-0.1,0.2-0.3,0.4-0.5,0.5c-0.1,0.1-0.3,0.1-0.5,0.1h-0.7V45H165v-2.9C165,42.1,166.3,42.1,166.3,42.1z
		 M166.2,43.5c0.1,0,0.1,0,0.2,0c0.1,0,0.1,0,0.2-0.1c0.1,0,0.1-0.1,0.1-0.1c0-0.1,0.1-0.1,0-0.2c0-0.1,0-0.2,0-0.2
		c0-0.1-0.1-0.1-0.1-0.1s-0.1-0.1-0.2-0.1c-0.1,0-0.1,0-0.2,0h-0.5v0.9C165.7,43.5,166.2,43.5,166.2,43.5z M169.9,42.1v0.5h-1.5v0.6
		h1.4v0.5h-1.4v0.7h1.6V45h-2.2v-2.9H169.9z"/>
</g>
<g>
	<path class="st11" d="M177.6,45c-0.1,0.1-0.3,0.1-0.4,0.1c-0.2,0-0.4,0-0.6-0.1c-0.2-0.1-0.3-0.2-0.5-0.3s-0.2-0.3-0.3-0.5
		c-0.1-0.2-0.1-0.4-0.1-0.6c0-0.2,0-0.4,0.1-0.6c0.1-0.2,0.2-0.4,0.3-0.5s0.3-0.2,0.5-0.3s0.4-0.1,0.6-0.1c0.1,0,0.3,0,0.4,0.1
		c0.1,0,0.3,0.1,0.4,0.2c0.2,0.2,0.4,0.5,0.4,0.8h-0.6c0-0.2-0.1-0.3-0.2-0.4s-0.2-0.1-0.4-0.1c-0.2,0-0.5,0.1-0.6,0.3
		c-0.1,0.1-0.1,0.2-0.1,0.3c-0.1,0.2-0.1,0.5,0,0.7c0,0.1,0.1,0.2,0.1,0.3c0.1,0.1,0.1,0.2,0.2,0.2c0.1,0.1,0.2,0.1,0.4,0.1
		c0.2,0,0.4-0.1,0.5-0.2s0.2-0.3,0.2-0.5h-0.6v-0.5h1.2V45H178l-0.1-0.3C177.9,44.9,177.7,45,177.6,45L177.6,45z M181.1,42.1v0.5
		h-1.5v0.6h1.4v0.5h-1.4v0.7h1.6V45H179v-2.9H181.1z M182.3,42.1l1.2,2h0v-2h0.6V45h-0.6l-1.2-2h0v2h-0.6v-2.9H182.3L182.3,42.1z
		 M185.3,42.1v2.4h1.4V45h-2.1v-2.9H185.3z M187.1,43c0.1-0.2,0.2-0.4,0.3-0.5s0.3-0.2,0.5-0.3s0.4-0.1,0.6-0.1c0.2,0,0.4,0,0.6,0.1
		c0.2,0.1,0.3,0.2,0.5,0.3c0.1,0.1,0.2,0.3,0.3,0.5c0.1,0.2,0.1,0.4,0.1,0.6c0,0.2,0,0.4-0.1,0.6s-0.2,0.3-0.3,0.5s-0.3,0.2-0.5,0.3
		c-0.2,0.1-0.4,0.1-0.6,0.1c-0.2,0-0.4,0-0.6-0.1c-0.2-0.1-0.3-0.2-0.5-0.3s-0.2-0.3-0.3-0.5c-0.1-0.2-0.1-0.4-0.1-0.6
		C187,43.4,187,43.2,187.1,43z M187.6,44c0,0.1,0.1,0.2,0.1,0.3c0.1,0.1,0.1,0.2,0.2,0.2c0.1,0.1,0.2,0.1,0.4,0.1
		c0.1,0,0.3,0,0.4-0.1s0.2-0.1,0.2-0.2s0.1-0.2,0.1-0.3s0-0.2,0-0.4c0-0.1,0-0.3,0-0.4c0-0.1-0.1-0.2-0.1-0.3s-0.1-0.2-0.2-0.2
		c-0.1-0.1-0.2-0.1-0.4-0.1c-0.2,0-0.5,0.1-0.6,0.3c-0.1,0.1-0.1,0.2-0.1,0.3C187.6,43.5,187.6,43.7,187.6,44z M192.1,42.9
		c-0.1-0.1-0.2-0.2-0.3-0.3c-0.1,0-0.2,0-0.2,0c-0.2,0-0.5,0.1-0.6,0.3c-0.1,0.1-0.1,0.2-0.1,0.3c-0.1,0.2-0.1,0.5,0,0.7
		c0,0.1,0.1,0.2,0.1,0.3c0.1,0.1,0.1,0.2,0.2,0.2c0.1,0.1,0.2,0.1,0.4,0.1c0.2,0,0.4-0.1,0.5-0.2s0.2-0.3,0.2-0.5h0.6
		c0,0.2-0.1,0.3-0.1,0.5s-0.2,0.3-0.3,0.4s-0.2,0.2-0.4,0.2s-0.3,0.1-0.5,0.1c-0.2,0-0.4,0-0.6-0.1c-0.2-0.1-0.3-0.2-0.5-0.3
		s-0.2-0.3-0.3-0.5c-0.1-0.2-0.1-0.4-0.1-0.6c0-0.2,0-0.4,0.1-0.6c0.1-0.2,0.2-0.4,0.3-0.5s0.3-0.2,0.5-0.3s0.4-0.1,0.6-0.1
		c0.2,0,0.3,0,0.5,0.1c0.1,0,0.3,0.1,0.4,0.2s0.2,0.2,0.3,0.3c0.1,0.1,0.1,0.3,0.1,0.5h-0.6C192.2,43,192.2,43,192.1,42.9z
		 M194,42.1v1.2l1.1-1.2h0.8l-1.1,1.2L196,45h-0.8l-0.9-1.3l-0.4,0.4V45h-0.6v-2.9H194z"/>
</g>
<g>
	<path class="st11" d="M205.3,43.2c-0.1-0.2-0.3-0.3-0.6-0.3c-0.1,0-0.3,0-0.4,0.1c-0.1,0.1-0.2,0.1-0.2,0.2
		c-0.1,0.1-0.1,0.2-0.1,0.3c0,0.1,0,0.2,0,0.4c0,0.1,0,0.2,0,0.4s0.1,0.2,0.1,0.3c0.1,0.1,0.1,0.2,0.2,0.2c0.1,0.1,0.2,0.1,0.4,0.1
		c0.2,0,0.4-0.1,0.5-0.2c0.1-0.1,0.2-0.3,0.2-0.5h0.6c0,0.2-0.1,0.3-0.1,0.5s-0.2,0.3-0.3,0.4c-0.1,0.1-0.2,0.2-0.4,0.2
		s-0.3,0.1-0.5,0.1c-0.2,0-0.4,0-0.6-0.1c-0.2-0.1-0.3-0.2-0.5-0.3s-0.2-0.3-0.3-0.5c-0.1-0.2-0.1-0.4-0.1-0.6c0-0.2,0-0.4,0.1-0.6
		c0.1-0.2,0.2-0.4,0.3-0.5s0.3-0.2,0.5-0.3s0.4-0.1,0.6-0.1c0.2,0,0.3,0,0.5,0.1c0.1,0,0.3,0.1,0.4,0.2s0.2,0.2,0.3,0.3
		c0.1,0.1,0.1,0.3,0.1,0.5h-0.6C205.4,43.4,205.4,43.3,205.3,43.2L205.3,43.2z M207.8,42.5c0.2,0,0.4,0,0.5,0.1
		c0.3,0.1,0.6,0.4,0.7,0.7c0.1,0.2,0.1,0.4,0.1,0.6c0,0.2,0,0.4-0.1,0.6c0,0.2-0.1,0.3-0.2,0.5c-0.1,0.1-0.3,0.2-0.4,0.3
		c-0.2,0.1-0.4,0.1-0.6,0.1h-1.3v-2.9L207.8,42.5L207.8,42.5z M207.7,44.8c0.1,0,0.2,0,0.3,0s0.2-0.1,0.2-0.1s0.1-0.2,0.2-0.3
		c0-0.1,0.1-0.3,0.1-0.4c0-0.1,0-0.3,0-0.4c0-0.1-0.1-0.2-0.1-0.3c-0.1-0.1-0.2-0.2-0.3-0.2c-0.1,0-0.3-0.1-0.4-0.1h-0.5v1.8
		L207.7,44.8L207.7,44.8z M210.8,42.4l-1.1,3.1h-0.5l1.1-3.1H210.8z M210.8,43v-0.5h2.4V43h-0.9v2.4h-0.6V43H210.8L210.8,43z
		 M214.2,45.4l-0.9-2.9h0.7l0.7,2.1h0l0.7-2.1h0.7l-1,2.9H214.2L214.2,45.4z"/>
</g>
<g>
	<path class="st11" d="M223.1,44.4c0,0.2-0.2,0.5-0.4,0.6c-0.1,0.1-0.3,0.1-0.5,0.1c-0.1,0-0.2,0-0.4-0.1c-0.1,0-0.2-0.1-0.3-0.2
		s-0.2-0.2-0.2-0.3s-0.1-0.3-0.1-0.4v-0.3h0.6v0.1c0,0.1,0,0.1,0,0.2c0,0.1,0,0.1,0.1,0.2s0.1,0.1,0.1,0.1c0.1,0,0.1,0,0.2,0
		c0.1,0,0.1,0,0.2,0c0,0,0.1-0.1,0.1-0.1s0-0.1,0-0.2s0-0.1,0-0.2v-2h0.6v2C223.1,44.2,223.1,44.3,223.1,44.4z M223.7,43
		c0.1-0.2,0.2-0.4,0.3-0.5s0.3-0.2,0.5-0.3s0.4-0.1,0.6-0.1c0.2,0,0.4,0,0.6,0.1c0.2,0.1,0.3,0.2,0.5,0.3c0.1,0.1,0.2,0.3,0.3,0.5
		s0.1,0.4,0.1,0.6c0,0.2,0,0.4-0.1,0.6s-0.2,0.3-0.3,0.5s-0.3,0.2-0.5,0.3c-0.2,0.1-0.4,0.1-0.6,0.1c-0.2,0-0.4,0-0.6-0.1
		c-0.2-0.1-0.3-0.2-0.5-0.3s-0.2-0.3-0.3-0.5c-0.1-0.2-0.1-0.4-0.1-0.6C223.6,43.3,223.6,43.1,223.7,43z M224.3,43.9
		c0,0.1,0.1,0.2,0.1,0.3c0.1,0.1,0.1,0.2,0.2,0.2c0.1,0.1,0.2,0.1,0.4,0.1c0.1,0,0.3,0,0.4-0.1c0.1-0.1,0.2-0.1,0.2-0.2
		c0.1-0.1,0.1-0.2,0.1-0.3c0-0.1,0-0.2,0-0.4c0-0.1,0-0.3,0-0.4c0-0.1-0.1-0.2-0.1-0.3c-0.1-0.1-0.1-0.2-0.2-0.2
		c-0.1-0.1-0.2-0.1-0.4-0.1c-0.1,0-0.3,0-0.4,0.1c-0.1,0.1-0.2,0.1-0.2,0.2c-0.1,0.1-0.1,0.2-0.1,0.3c0,0.1,0,0.2,0,0.4
		C224.2,43.7,224.2,43.8,224.3,43.9z M226.6,42.1h0.7l0.7,1.2l0.7-1.2h0.7l-1.1,1.8V45h-0.6v-1.1L226.6,42.1z M230.9,42l-1.1,3.1
		h-0.5l1.1-3.1H230.9z M232,42.1l0.7,2h0l0.6-2h0.9V45h-0.6v-2.1h0L233,45h-0.5l-0.7-2.1h0V45h-0.6v-2.9H232z M234.8,43
		c0.1-0.2,0.2-0.4,0.3-0.5s0.3-0.2,0.5-0.3s0.4-0.1,0.6-0.1c0.2,0,0.4,0,0.6,0.1c0.2,0.1,0.3,0.2,0.5,0.3c0.1,0.1,0.2,0.3,0.3,0.5
		s0.1,0.4,0.1,0.6c0,0.2,0,0.4-0.1,0.6s-0.2,0.3-0.3,0.5s-0.3,0.2-0.5,0.3c-0.2,0.1-0.4,0.1-0.6,0.1c-0.2,0-0.4,0-0.6-0.1
		c-0.2-0.1-0.3-0.2-0.5-0.3s-0.2-0.3-0.3-0.5c-0.1-0.2-0.1-0.4-0.1-0.6C234.7,43.3,234.8,43.1,234.8,43z M235.4,43.9
		c0,0.1,0.1,0.2,0.1,0.3c0.1,0.1,0.1,0.2,0.2,0.2c0.1,0.1,0.2,0.1,0.4,0.1c0.1,0,0.3,0,0.4-0.1c0.1-0.1,0.2-0.1,0.2-0.2
		c0.1-0.1,0.1-0.2,0.1-0.3c0-0.1,0-0.2,0-0.4c0-0.1,0-0.3,0-0.4c0-0.1-0.1-0.2-0.1-0.3c-0.1-0.1-0.1-0.2-0.2-0.2
		c-0.1-0.1-0.2-0.1-0.4-0.1c-0.1,0-0.3,0-0.4,0.1c-0.1,0.1-0.2,0.1-0.2,0.2c-0.1,0.1-0.1,0.2-0.1,0.3c0,0.1,0,0.2,0,0.4
		C235.4,43.7,235.4,43.8,235.4,43.9z M240.2,44.8c-0.2,0.2-0.5,0.3-0.9,0.3c-0.4,0-0.7-0.1-0.9-0.3c-0.2-0.2-0.3-0.5-0.3-0.9v-1.8
		h0.6v1.8c0,0.1,0,0.2,0,0.2c0,0.1,0,0.1,0.1,0.2c0,0.1,0.1,0.1,0.2,0.1s0.2,0.1,0.3,0.1c0.2,0,0.4-0.1,0.5-0.2
		c0.1-0.1,0.1-0.3,0.1-0.5v-1.8h0.6v1.8C240.5,44.3,240.4,44.6,240.2,44.8L240.2,44.8z M241.6,44.3c0,0.1,0.1,0.1,0.1,0.2
		c0.1,0,0.1,0.1,0.2,0.1s0.2,0,0.2,0c0.1,0,0.1,0,0.2,0s0.1,0,0.2-0.1s0.1-0.1,0.1-0.1s0.1-0.1,0.1-0.2c0-0.1,0-0.1-0.1-0.2
		c-0.1-0.1-0.1-0.1-0.2-0.1c-0.1,0-0.2-0.1-0.3-0.1c-0.1,0-0.2-0.1-0.3-0.1c-0.1,0-0.2-0.1-0.3-0.1c-0.1,0-0.2-0.1-0.3-0.2
		c-0.1-0.1-0.1-0.1-0.2-0.2S241,43,241,42.9c0-0.2,0-0.3,0.1-0.4c0.1-0.1,0.1-0.2,0.3-0.3s0.2-0.1,0.4-0.2c0.1,0,0.3-0.1,0.4-0.1
		c0.2,0,0.3,0,0.4,0.1c0.1,0,0.3,0.1,0.4,0.2s0.2,0.2,0.3,0.3c0.1,0.1,0.1,0.3,0.1,0.4h-0.6c0-0.1,0-0.1-0.1-0.2
		c0-0.1-0.1-0.1-0.1-0.1s-0.1-0.1-0.2-0.1c-0.1,0-0.1,0-0.2,0c-0.1,0-0.1,0-0.2,0s-0.1,0-0.1,0.1c0,0-0.1,0.1-0.1,0.1s0,0.1,0,0.2
		c0,0.1,0,0.1,0,0.1s0.1,0.1,0.1,0.1c0.1,0,0.2,0.1,0.3,0.1l0.4,0.1c0.1,0,0.1,0,0.2,0.1c0.1,0,0.2,0.1,0.3,0.1
		c0.1,0.1,0.2,0.2,0.2,0.3c0.1,0.1,0.1,0.3,0.1,0.4c0,0.1,0,0.3-0.1,0.4s-0.1,0.2-0.2,0.3s-0.2,0.1-0.4,0.2c-0.2,0-0.3,0.1-0.5,0.1
		c-0.2,0-0.3,0-0.5-0.1s-0.3-0.1-0.4-0.2s-0.2-0.2-0.3-0.3s-0.1-0.3-0.1-0.5h0.6C241.5,44.1,241.5,44.2,241.6,44.3L241.6,44.3z
		 M245.9,42.1v0.5h-1.5v0.6h1.4v0.5h-1.4v0.7h1.6V45h-2.2v-2.9H245.9z"/>
</g>
<g>
	<path class="st11" d="M258.2,39.4c0.2,0,0.3,0,0.5,0.1c0.1,0,0.2,0.1,0.3,0.2c0.1,0.1,0.1,0.2,0.2,0.3c0.1,0.2,0.1,0.5,0,0.7
		c0,0.1-0.1,0.2-0.2,0.3c-0.1,0.1-0.2,0.2-0.3,0.2c-0.1,0.1-0.3,0.1-0.5,0.1h-0.7v1.1h-0.6v-2.9L258.2,39.4L258.2,39.4z M258.1,40.8
		c0.1,0,0.1,0,0.2,0c0.1,0,0.1,0,0.2-0.1c0.1,0,0.1-0.1,0.1-0.1c0-0.1,0.1-0.1,0-0.2c0-0.1,0-0.2,0-0.2c0-0.1-0.1-0.1-0.1-0.1
		s-0.1-0.1-0.2-0.1c-0.1,0-0.1,0-0.2,0h-0.5v0.9C257.6,40.8,258.1,40.8,258.1,40.8z M259.6,40.2c0.1-0.2,0.2-0.4,0.3-0.5
		c0.1-0.1,0.3-0.2,0.5-0.3c0.2-0.1,0.4-0.1,0.6-0.1c0.2,0,0.4,0,0.6,0.1c0.2,0.1,0.3,0.2,0.5,0.3c0.1,0.1,0.2,0.3,0.3,0.5
		s0.1,0.4,0.1,0.6c0,0.2,0,0.4-0.1,0.6s-0.2,0.3-0.3,0.5s-0.3,0.2-0.5,0.3c-0.2,0.1-0.4,0.1-0.6,0.1c-0.2,0-0.4,0-0.6-0.1
		c-0.2-0.1-0.3-0.2-0.5-0.3s-0.2-0.3-0.3-0.5c-0.1-0.2-0.1-0.4-0.1-0.6C259.5,40.6,259.6,40.4,259.6,40.2z M260.2,41.2
		c0,0.1,0.1,0.2,0.1,0.3c0.1,0.1,0.1,0.2,0.2,0.2c0.1,0.1,0.2,0.1,0.4,0.1c0.1,0,0.3,0,0.4-0.1c0.1-0.1,0.2-0.1,0.2-0.2
		c0.1-0.1,0.1-0.2,0.1-0.3c0-0.1,0-0.2,0-0.4c0-0.1,0-0.3,0-0.4c0-0.1-0.1-0.2-0.1-0.3c-0.1-0.1-0.1-0.2-0.2-0.2
		c-0.1-0.1-0.2-0.1-0.4-0.1c-0.1,0-0.3,0-0.4,0.1c-0.1,0.1-0.2,0.1-0.2,0.2c-0.1,0.1-0.1,0.2-0.1,0.3c0,0.1,0,0.2,0,0.4
		C260.2,41,260.2,41.1,260.2,41.2z M265,42.3l-0.5-2h0l-0.5,2h-0.7l-0.8-2.9h0.6l0.5,2h0l0.5-2h0.6l0.5,2h0l0.5-2h0.6l-0.8,2.9H265
		L265,42.3z M268.9,39.4v0.5h-1.5v0.6h1.4V41h-1.4v0.7h1.6v0.5h-2.2v-2.9L268.9,39.4L268.9,39.4z M270.9,39.4c0.1,0,0.3,0,0.4,0.1
		c0.1,0,0.2,0.1,0.3,0.2s0.1,0.2,0.2,0.3c0,0.1,0.1,0.2,0.1,0.3c0,0.2,0,0.3-0.1,0.4c-0.1,0.1-0.2,0.2-0.4,0.3v0
		c0.1,0,0.3,0.1,0.3,0.3c0,0.1,0.1,0.1,0.1,0.2c0,0.1,0,0.1,0,0.2c0,0.1,0,0.1,0,0.2c0,0.1,0,0.1,0,0.2c0,0.1,0,0.1,0,0.2
		c0,0.1,0,0.1,0.1,0.1h-0.6c0-0.1-0.1-0.2-0.1-0.3c0-0.1,0-0.3,0-0.4c0-0.2-0.1-0.3-0.1-0.3c-0.1-0.1-0.2-0.1-0.3-0.1H270v1.1h-0.6
		v-2.9L270.9,39.4L270.9,39.4z M270.7,40.7c0.1,0,0.3,0,0.3-0.1c0.1-0.1,0.1-0.2,0.1-0.3c0-0.1,0-0.2-0.1-0.3
		c-0.1-0.1-0.2-0.1-0.3-0.1H270v0.8L270.7,40.7L270.7,40.7z"/>
</g>
<g>
	<path class="st11" d="M182.7,62.7c0.1,0,0.3,0,0.4,0.1c0.1,0,0.2,0.1,0.3,0.2s0.1,0.2,0.2,0.3c0,0.1,0.1,0.2,0.1,0.3
		c0,0.2,0,0.3-0.1,0.4c-0.1,0.1-0.2,0.2-0.4,0.3v0c0.1,0,0.3,0.1,0.3,0.3c0,0.1,0.1,0.1,0.1,0.2c0,0.1,0,0.1,0,0.2l0,0.2
		c0,0.1,0,0.1,0,0.2c0,0.1,0,0.1,0,0.2c0,0.1,0,0.1,0.1,0.1H183c0-0.1-0.1-0.2-0.1-0.3c0-0.1,0-0.3,0-0.4c0-0.2-0.1-0.3-0.1-0.3
		c-0.1-0.1-0.2-0.1-0.3-0.1h-0.6v1.1h-0.6v-2.9L182.7,62.7L182.7,62.7z M182.4,64c0.1,0,0.3,0,0.3-0.1c0.1-0.1,0.1-0.2,0.1-0.3
		c0-0.1,0-0.2-0.1-0.3c-0.1-0.1-0.2-0.1-0.3-0.1h-0.7V64H182.4z M186.2,62.7v0.5h-1.5v0.6h1.4v0.5h-1.4v0.7h1.6v0.5H184v-2.9H186.2z
		 M188.9,65.6l-0.5-2h0l-0.5,2h-0.7l-0.8-2.9h0.6l0.5,2h0l0.5-2h0.6l0.5,2h0l0.5-2h0.6l-0.8,2.9H188.9L188.9,65.6z"/>
</g>
<g>
	<path class="st11" d="M201.7,62.7c0.2,0,0.3,0,0.5,0.1c0.1,0.1,0.2,0.1,0.3,0.2s0.1,0.2,0.2,0.3c0.1,0.2,0.1,0.5,0,0.7
		c-0.1,0.2-0.3,0.4-0.5,0.5c-0.1,0.1-0.3,0.1-0.5,0.1H201v1h-0.6v-2.9H201.7z M201.5,64.1c0.1,0,0.1,0,0.2,0c0.1,0,0.1,0,0.2-0.1
		c0.1,0,0.1-0.1,0.1-0.1c0-0.1,0.1-0.1,0-0.2c0-0.1,0-0.2,0-0.2c0-0.1-0.1-0.1-0.1-0.1s-0.1-0.1-0.2-0.1c-0.1,0-0.1,0-0.2,0H201v0.9
		C201,64.1,201.5,64.1,201.5,64.1z M203.7,62.7v2.4h1.4v0.5h-2.1v-2.9H203.7z M207,62.7l1.1,2.9h-0.7l-0.2-0.7h-1.1l-0.2,0.7h-0.6
		l1.1-2.9H207z M207,64.5l-0.4-1.1h0l-0.4,1.1H207z M207.7,62.7h0.7l0.7,1.2l0.7-1.2h0.7l-1.1,1.8v1.1h-0.6v-1.1
		C208.8,64.5,207.7,62.7,207.7,62.7z M212,62.6l-1.1,3.1h-0.5l1.1-3.1H212z M213.6,62.7c0.2,0,0.3,0,0.5,0.1c0.1,0,0.2,0.1,0.3,0.2
		c0.1,0.1,0.1,0.2,0.2,0.3c0.1,0.2,0.1,0.5,0,0.7c0,0.1-0.1,0.2-0.2,0.3c-0.1,0.1-0.2,0.2-0.3,0.2c-0.1,0.1-0.3,0.1-0.5,0.1h-0.7
		v1.1h-0.6v-2.9H213.6z M213.4,64.1c0.1,0,0.1,0,0.2,0c0.1,0,0.1,0,0.2-0.1c0.1,0,0.1-0.1,0.1-0.1c0-0.1,0.1-0.1,0-0.2
		c0-0.1,0-0.2,0-0.2c0-0.1-0.1-0.1-0.1-0.1s-0.1-0.1-0.2-0.1c-0.1,0-0.1,0-0.2,0h-0.5v0.9C212.9,64.1,213.4,64.1,213.4,64.1z
		 M216.2,62.7l1.1,2.9h-0.7l-0.2-0.7h-1.1l-0.2,0.7h-0.6l1.1-2.9H216.2z M216.2,64.5l-0.4-1.1h0l-0.4,1.1H216.2z M219.7,65.4
		c-0.2,0.2-0.5,0.3-0.9,0.3c-0.4,0-0.7-0.1-0.9-0.3c-0.2-0.2-0.3-0.5-0.3-0.9v-1.8h0.6v1.8c0,0.1,0,0.2,0,0.2c0,0.1,0,0.1,0.1,0.2
		c0,0.1,0.1,0.1,0.2,0.1c0.1,0,0.2,0.1,0.3,0.1c0.2,0,0.4-0.1,0.5-0.2c0.1-0.1,0.1-0.3,0.1-0.5v-1.8h0.6v1.8
		C220,64.9,219.9,65.2,219.7,65.4L219.7,65.4z M221,64.9c0,0.1,0.1,0.1,0.1,0.2c0.1,0,0.1,0.1,0.2,0.1c0.1,0,0.2,0,0.2,0
		c0.1,0,0.1,0,0.2,0c0.1,0,0.1,0,0.2-0.1c0.1,0,0.1-0.1,0.1-0.1c0,0,0.1-0.1,0.1-0.2c0-0.1,0-0.1-0.1-0.2c-0.1-0.1-0.1-0.1-0.2-0.1
		c-0.1,0-0.2-0.1-0.3-0.1c-0.1,0-0.2-0.1-0.3-0.1c-0.1,0-0.2-0.1-0.3-0.1c-0.1,0-0.2-0.1-0.3-0.2c-0.1-0.1-0.2-0.1-0.2-0.2
		c-0.1-0.1-0.1-0.2-0.1-0.3c0-0.2,0-0.3,0.1-0.4c0.1-0.1,0.1-0.2,0.3-0.3c0.1-0.1,0.2-0.1,0.4-0.2c0.1,0,0.3-0.1,0.4-0.1
		c0.2,0,0.3,0,0.4,0.1s0.3,0.1,0.4,0.2s0.2,0.2,0.3,0.3c0.1,0.1,0.1,0.3,0.1,0.4h-0.6c0-0.1,0-0.1-0.1-0.2c0-0.1-0.1-0.1-0.1-0.1
		c-0.1,0-0.1-0.1-0.2-0.1s-0.1,0-0.2,0c-0.1,0-0.1,0-0.2,0s-0.1,0-0.1,0.1c0,0-0.1,0.1-0.1,0.1s0,0.1,0,0.2c0,0,0,0.1,0,0.1
		c0,0,0.1,0.1,0.1,0.1c0.1,0,0.2,0.1,0.3,0.1l0.4,0.1c0.1,0,0.2,0,0.2,0.1c0.1,0,0.2,0.1,0.3,0.1c0.1,0.1,0.2,0.2,0.2,0.3
		c0.1,0.1,0.1,0.3,0.1,0.4c0,0.1,0,0.3-0.1,0.4c-0.1,0.1-0.1,0.2-0.2,0.3s-0.2,0.1-0.4,0.2c-0.2,0-0.3,0.1-0.5,0.1
		c-0.2,0-0.3,0-0.5-0.1c-0.1,0-0.3-0.1-0.4-0.2c-0.1-0.1-0.2-0.2-0.3-0.3c-0.1-0.1-0.1-0.3-0.1-0.5h0.6C221,64.8,221,64.8,221,64.9z
		 M225.4,62.7v0.5h-1.5v0.6h1.4v0.5h-1.4v0.7h1.6v0.5h-2.2v-2.9H225.4z"/>
</g>
<g>
	<path class="st11" d="M240.1,62.7v0.5h-1.4V64h1.2v0.5h-1.2v1.2H238v-2.9C238,62.7,240.1,62.7,240.1,62.7z M242.5,62.7v0.5h-1.4V64
		h1.2v0.5h-1.2v1.2h-0.6v-2.9L242.5,62.7L242.5,62.7z"/>
</g>
<g>
	<path class="st11" d="M263.7,65.7l-0.9-2.9h0.7l0.7,2.1h0l0.7-2.1h0.7l-1,2.9H263.7L263.7,65.7z M265.6,63.6
		c0.1-0.2,0.2-0.4,0.3-0.5c0.1-0.1,0.3-0.2,0.5-0.3c0.2-0.1,0.4-0.1,0.6-0.1c0.2,0,0.4,0,0.6,0.1c0.2,0.1,0.3,0.2,0.5,0.3
		c0.1,0.1,0.2,0.3,0.3,0.5s0.1,0.4,0.1,0.6c0,0.2,0,0.4-0.1,0.6c-0.1,0.2-0.2,0.3-0.3,0.5c-0.1,0.1-0.3,0.2-0.5,0.3
		c-0.2,0.1-0.4,0.1-0.6,0.1c-0.2,0-0.4,0-0.6-0.1c-0.2-0.1-0.3-0.2-0.5-0.3c-0.1-0.1-0.2-0.3-0.3-0.5c-0.1-0.2-0.1-0.4-0.1-0.6
		C265.5,64,265.6,63.8,265.6,63.6z M266.2,64.6c0,0.1,0.1,0.2,0.1,0.3c0.1,0.1,0.1,0.2,0.2,0.2c0.1,0.1,0.2,0.1,0.4,0.1
		c0.1,0,0.3,0,0.4-0.1c0.1-0.1,0.2-0.1,0.2-0.2c0.1-0.1,0.1-0.2,0.1-0.3c0-0.1,0-0.2,0-0.4c0-0.1,0-0.3,0-0.4c0-0.1-0.1-0.2-0.1-0.3
		c-0.1-0.1-0.1-0.2-0.2-0.2c-0.1-0.1-0.2-0.1-0.4-0.1c-0.1,0-0.3,0-0.4,0.1c-0.1,0.1-0.2,0.1-0.2,0.2c-0.1,0.1-0.1,0.2-0.1,0.3
		c0,0.1,0,0.2,0,0.4C266.2,64.4,266.2,64.5,266.2,64.6z M269.5,62.8v2.4h1.4v0.5h-2.1v-2.9H269.5z"/>
</g>
<g>
	<path class="st11" d="M208.3,84.9c0,0.1,0.1,0.1,0.1,0.2c0.1,0,0.1,0.1,0.2,0.1c0.1,0,0.2,0,0.2,0c0.1,0,0.1,0,0.2,0
		c0.1,0,0.1,0,0.2-0.1s0.1-0.1,0.1-0.1c0,0,0.1-0.1,0.1-0.2c0-0.1,0-0.1-0.1-0.2c-0.1-0.1-0.1-0.1-0.2-0.1c-0.1,0-0.2-0.1-0.3-0.1
		c-0.1,0-0.2-0.1-0.3-0.1c-0.1,0-0.2-0.1-0.3-0.1s-0.2-0.1-0.3-0.2c-0.1-0.1-0.2-0.1-0.2-0.2c-0.1-0.1-0.1-0.2-0.1-0.3
		c0-0.2,0-0.3,0.1-0.4c0.1-0.1,0.1-0.2,0.3-0.3c0.1-0.1,0.2-0.1,0.4-0.2s0.3-0.1,0.4-0.1c0.2,0,0.3,0,0.4,0.1c0.1,0,0.3,0.1,0.4,0.2
		c0.1,0.1,0.2,0.2,0.3,0.3c0.1,0.1,0.1,0.3,0.1,0.4h-0.6c0-0.1,0-0.1-0.1-0.2c0-0.1-0.1-0.1-0.1-0.1c-0.1,0-0.1-0.1-0.2-0.1
		c-0.1,0-0.1,0-0.2,0c-0.1,0-0.1,0-0.2,0c-0.1,0-0.1,0-0.1,0.1c0,0-0.1,0.1-0.1,0.1s0,0.1,0,0.2c0,0,0,0.1,0,0.1
		c0,0,0.1,0.1,0.1,0.1c0.1,0,0.2,0.1,0.3,0.1l0.4,0.1c0.1,0,0.1,0,0.2,0.1c0.1,0,0.2,0.1,0.3,0.1c0.1,0.1,0.2,0.2,0.2,0.3
		c0.1,0.1,0.1,0.3,0.1,0.4c0,0.1,0,0.3-0.1,0.4c-0.1,0.1-0.1,0.2-0.2,0.3s-0.2,0.1-0.4,0.2c-0.2,0-0.3,0.1-0.5,0.1
		c-0.2,0-0.3,0-0.5-0.1c-0.1,0-0.3-0.1-0.4-0.2c-0.1-0.1-0.2-0.2-0.3-0.3c-0.1-0.1-0.1-0.3-0.1-0.5h0.6
		C208.3,84.8,208.3,84.9,208.3,84.9L208.3,84.9z M210.3,83.3v-0.5h2.4v0.5h-0.9v2.4h-0.6v-2.4H210.3z M213,83.6
		c0.1-0.2,0.2-0.4,0.3-0.5s0.3-0.2,0.5-0.3c0.2-0.1,0.4-0.1,0.6-0.1c0.2,0,0.4,0,0.6,0.1c0.2,0.1,0.3,0.2,0.5,0.3
		c0.1,0.1,0.2,0.3,0.3,0.5c0.1,0.2,0.1,0.4,0.1,0.6c0,0.2,0,0.4-0.1,0.6c-0.1,0.2-0.2,0.3-0.3,0.5c-0.1,0.1-0.3,0.2-0.5,0.3
		c-0.2,0.1-0.4,0.1-0.6,0.1c-0.2,0-0.4,0-0.6-0.1c-0.2-0.1-0.3-0.2-0.5-0.3c-0.1-0.1-0.2-0.3-0.3-0.5c-0.1-0.2-0.1-0.4-0.1-0.6
		C212.9,84,212.9,83.8,213,83.6z M213.6,84.6c0,0.1,0.1,0.2,0.1,0.3c0.1,0.1,0.1,0.2,0.2,0.2c0.1,0.1,0.2,0.1,0.4,0.1
		c0.1,0,0.3,0,0.4-0.1s0.2-0.1,0.2-0.2c0.1-0.1,0.1-0.2,0.1-0.3s0-0.2,0-0.4c0-0.1,0-0.3,0-0.4c0-0.1-0.1-0.2-0.1-0.3
		c-0.1-0.1-0.1-0.2-0.2-0.2c-0.1-0.1-0.2-0.1-0.4-0.1c-0.2,0-0.5,0.1-0.6,0.3c-0.1,0.1-0.1,0.2-0.1,0.3
		C213.5,84.1,213.5,84.3,213.6,84.6z M217.5,82.7c0.2,0,0.3,0,0.5,0.1c0.1,0.1,0.2,0.1,0.3,0.2s0.1,0.2,0.2,0.3
		c0.1,0.2,0.1,0.5,0,0.7c-0.1,0.2-0.3,0.4-0.5,0.5c-0.1,0.1-0.3,0.1-0.5,0.1h-0.7v1h-0.6v-2.9H217.5z M217.3,84.1c0.1,0,0.1,0,0.2,0
		c0.1,0,0.1,0,0.2-0.1c0.1,0,0.1-0.1,0.1-0.1c0-0.1,0.1-0.1,0-0.2c0-0.1,0-0.2,0-0.2c0-0.1-0.1-0.1-0.1-0.1s-0.1-0.1-0.2-0.1
		c-0.1,0-0.1,0-0.2,0h-0.5v0.9C216.8,84.1,217.3,84.1,217.3,84.1z"/>
</g>
<g>
	<path class="st11" d="M157.2,82.8v0.5h-1.5V84h1.4v0.5h-1.4v0.7h1.6v0.5H155v-2.9H157.2z M158.3,82.8l1.2,2h0v-2h0.6v2.9h-0.6
		l-1.2-2h0v2h-0.6v-2.9H158.3L158.3,82.8z M160.5,83.3v-0.5h2.4v0.5H162v2.4h-0.6v-2.4H160.5z M165.4,82.8v0.5h-1.5V84h1.4v0.5h-1.4
		v0.7h1.6v0.5h-2.2v-2.9H165.4z M167.5,82.8c0.1,0,0.3,0,0.4,0.1c0.1,0,0.2,0.1,0.3,0.2s0.1,0.2,0.2,0.3c0,0.1,0.1,0.2,0.1,0.3
		c0,0.2,0,0.3-0.1,0.4c-0.1,0.1-0.2,0.2-0.4,0.3v0c0.1,0,0.3,0.1,0.3,0.3c0,0.1,0.1,0.1,0.1,0.2c0,0.1,0,0.1,0,0.2l0,0.2
		c0,0.1,0,0.1,0,0.2c0,0.1,0,0.1,0,0.2c0,0.1,0,0.1,0.1,0.1h-0.6c0-0.1-0.1-0.2-0.1-0.3c0-0.1,0-0.3,0-0.4c0-0.2-0.1-0.3-0.1-0.3
		c-0.1-0.1-0.2-0.1-0.3-0.1h-0.6v1.1h-0.6v-2.9L167.5,82.8L167.5,82.8z M167.2,84.1c0.1,0,0.3,0,0.3-0.1c0.1-0.1,0.1-0.2,0.1-0.3
		c0-0.1,0-0.2-0.1-0.3c-0.1-0.1-0.2-0.1-0.3-0.1h-0.7v0.8L167.2,84.1L167.2,84.1z"/>
</g>
<path class="st11" d="M90.4,45.1v-1.9h-0.7v-0.4c0.1,0,0.2,0,0.3,0c0.1,0,0.2,0,0.3-0.1s0.1-0.1,0.2-0.2c0.1-0.1,0.1-0.2,0.1-0.3H91
	v2.9L90.4,45.1L90.4,45.1z M113.1,42.9c0-0.1,0.1-0.3,0.2-0.4c0.1-0.1,0.2-0.2,0.3-0.2c0.1-0.1,0.3-0.1,0.5-0.1c0.1,0,0.3,0,0.4,0.1
	c0.1,0,0.2,0.1,0.3,0.2c0.1,0.1,0.2,0.2,0.2,0.3c0.1,0.1,0.1,0.2,0.1,0.4c0,0.2-0.1,0.5-0.3,0.6c-0.1,0.1-0.2,0.2-0.3,0.2l-0.3,0.2
	c-0.1,0.1-0.2,0.1-0.3,0.2c-0.1,0.1-0.2,0.2-0.2,0.3h1.4v0.5H113c0-0.2,0-0.3,0.1-0.4s0.1-0.2,0.2-0.3s0.2-0.2,0.3-0.3
	c0.2-0.1,0.4-0.3,0.6-0.4c0.1,0,0.1-0.1,0.2-0.2c0.1-0.1,0.1-0.1,0.1-0.2c0-0.1,0.1-0.1,0.1-0.2c0-0.1,0-0.2-0.1-0.3
	c-0.1-0.1-0.2-0.1-0.3-0.1c-0.1,0-0.2,0-0.2,0.1c-0.1,0-0.1,0.1-0.1,0.2s-0.1,0.1-0.1,0.2c0,0.1,0,0.2,0,0.2h-0.6
	C113.1,43.2,113.1,43.1,113.1,42.9z M138.1,43.4c0.1,0,0.1,0,0.2,0s0.1-0.1,0.2-0.1s0.1-0.1,0.1-0.2c0-0.1,0-0.2-0.1-0.3
	c-0.1-0.1-0.2-0.1-0.3-0.1c-0.1,0-0.3,0-0.3,0.1c-0.1,0.1-0.1,0.2-0.1,0.4h-0.6c0-0.1,0-0.3,0.1-0.4s0.1-0.2,0.2-0.3
	s0.2-0.2,0.3-0.2s0.3-0.1,0.4-0.1c0.1,0,0.2,0,0.3,0.1s0.2,0.1,0.3,0.2c0.1,0.1,0.2,0.2,0.2,0.3c0.1,0.1,0.1,0.2,0.1,0.3
	c0,0.1,0,0.3-0.1,0.4c-0.1,0.1-0.2,0.2-0.3,0.2v0c0.1,0,0.3,0.1,0.4,0.2c0.1,0.1,0.1,0.3,0.1,0.4c0,0.3-0.1,0.5-0.3,0.7
	c-0.1,0.1-0.2,0.1-0.3,0.2s-0.3,0.1-0.4,0.1c-0.2,0-0.3,0-0.4-0.1c-0.1,0-0.2-0.1-0.3-0.2s-0.2-0.2-0.2-0.3s-0.1-0.3-0.1-0.4h0.6
	c0,0.1,0,0.1,0,0.2c0,0.1,0.1,0.1,0.1,0.2c0,0.1,0.1,0.1,0.2,0.1c0.1,0,0.1,0,0.2,0c0.1,0,0.2,0,0.3-0.1c0.1-0.1,0.1-0.2,0.1-0.3
	c0-0.1,0-0.2-0.1-0.3c0-0.1-0.1-0.1-0.2-0.1s-0.1,0-0.2,0c-0.1,0-0.1,0-0.2,0v-0.4C138,43.4,138.1,43.4,138.1,43.4z M89,65v-0.5
	l1.2-1.7h0.5v1.7h0.4V65h-0.4v0.7h-0.6V65C90.2,65,89,65,89,65z M90.2,63.5l-0.7,1h0.8L90.2,63.5L90.2,63.5z M113.8,63.2l-0.1,0.7
	l0,0c0.1-0.2,0.4-0.2,0.6-0.2c0.4,0,0.7,0.2,0.8,0.6c0,0.1,0.1,0.3,0.1,0.4c0,0.1,0,0.3-0.1,0.4c-0.1,0.3-0.3,0.4-0.6,0.5
	c-0.1,0.1-0.3,0.1-0.4,0.1c-0.1,0-0.3,0-0.4-0.1c-0.1,0-0.2-0.1-0.3-0.2c-0.2-0.2-0.3-0.4-0.3-0.7h0.6c0,0.1,0.1,0.2,0.1,0.3
	c0.1,0.1,0.2,0.1,0.3,0.1c0.1,0,0.1,0,0.2,0c0.1-0.1,0.2-0.2,0.3-0.3c0-0.1,0-0.3,0-0.4c0-0.1-0.1-0.2-0.3-0.3c-0.1,0-0.1,0-0.2,0
	c-0.1,0-0.2,0-0.3,0.1c-0.1,0-0.1,0.1-0.2,0.2h-0.5l0.3-1.6h1.6v0.5L113.8,63.2L113.8,63.2z M138.5,63.2c-0.1-0.1-0.2-0.1-0.3-0.1
	c-0.1,0-0.2,0-0.3,0.1c-0.1,0.1-0.1,0.1-0.2,0.2s-0.1,0.2-0.1,0.3c0,0.1,0,0.2,0,0.3l0,0c0.1-0.1,0.2-0.2,0.3-0.2
	c0.1-0.1,0.2-0.1,0.4-0.1c0.3,0,0.5,0.1,0.7,0.3c0.1,0.1,0.1,0.2,0.2,0.3c0.1,0.2,0.1,0.5,0,0.8c-0.1,0.2-0.3,0.4-0.5,0.6
	c-0.1,0.1-0.3,0.1-0.4,0.1c-0.2,0-0.4,0-0.5-0.1c-0.1-0.1-0.3-0.2-0.3-0.3c-0.1-0.1-0.1-0.3-0.2-0.5c0-0.2,0-0.4,0-0.5
	c0-0.2,0-0.4,0.1-0.5c0-0.2,0.1-0.3,0.2-0.5c0.1-0.1,0.2-0.3,0.3-0.4s0.3-0.1,0.5-0.1c0.1,0,0.2,0,0.3,0.1c0.1,0,0.2,0.1,0.3,0.2
	s0.1,0.1,0.2,0.2c0.1,0.1,0.1,0.2,0.1,0.3h-0.6C138.6,63.4,138.5,63.3,138.5,63.2L138.5,63.2z M138,64.1c-0.1,0-0.1,0.1-0.1,0.1
	c0,0.1-0.1,0.1-0.1,0.2c0,0.1,0,0.3,0,0.4c0,0.1,0,0.1,0.1,0.2c0.1,0.1,0.2,0.2,0.3,0.2c0.1,0,0.1,0,0.2,0c0.1,0,0.1-0.1,0.1-0.1
	c0,0,0.1-0.1,0.1-0.2c0-0.1,0-0.1,0-0.2c0-0.1,0-0.1,0-0.2c0-0.1,0-0.1-0.1-0.2c0-0.1-0.1-0.1-0.1-0.1
	C138.2,64.1,138.1,64.1,138,64.1L138,64.1z M160.9,63.4c0.1-0.2,0.1-0.3,0.2-0.5s0.2-0.2,0.3-0.2s0.3-0.1,0.4-0.1
	c0.1,0,0.3,0,0.4,0.1c0.1,0,0.2,0.1,0.3,0.2s0.2,0.3,0.2,0.5s0.1,0.4,0.1,0.7c0,0.3,0,0.5-0.1,0.7c-0.1,0.2-0.1,0.3-0.2,0.5
	s-0.2,0.2-0.3,0.2c-0.1,0-0.3,0.1-0.4,0.1c-0.1,0-0.3,0-0.4-0.1s-0.2-0.1-0.3-0.2s-0.2-0.3-0.2-0.5c-0.1-0.2-0.1-0.4-0.1-0.7
	C160.8,63.9,160.8,63.6,160.9,63.4z M161.4,64.4c0,0.1,0,0.2,0.1,0.3c0,0.1,0.1,0.2,0.1,0.3c0.1,0.1,0.2,0.1,0.3,0.1
	c0.1,0,0.2,0,0.3-0.1c0.1-0.1,0.1-0.2,0.1-0.3s0-0.2,0.1-0.3s0-0.2,0-0.3l0-0.2c0-0.1,0-0.3-0.1-0.4c0-0.1,0-0.1-0.1-0.2
	c-0.1-0.1-0.2-0.2-0.3-0.2c-0.1,0-0.1,0-0.2,0.1c-0.1,0-0.1,0.1-0.1,0.1c0,0.1-0.1,0.1-0.1,0.2c0,0.1,0,0.1,0,0.2s0,0.1,0,0.2l0,0.2
	C161.4,64.2,161.4,64.3,161.4,64.4L161.4,64.4z M90.6,83.9c-0.1,0.2-0.2,0.4-0.3,0.6c-0.1,0.2-0.1,0.4-0.2,0.7
	c0,0.2-0.1,0.4-0.1,0.6h-0.6c0-0.4,0.1-0.8,0.3-1.2c0.2-0.4,0.4-0.8,0.7-1.1h-1.4v-0.5h2v0.5C90.9,83.6,90.8,83.7,90.6,83.9z
	 M113.2,83.2c0.1-0.1,0.1-0.2,0.2-0.2c0.1-0.1,0.2-0.1,0.3-0.1c0.1,0,0.2,0,0.3,0c0.2,0,0.3,0,0.5,0.1s0.2,0.1,0.3,0.2
	c0.1,0.1,0.2,0.3,0.2,0.5c0,0.1,0,0.3-0.1,0.4c-0.1,0.1-0.2,0.2-0.3,0.2v0c0.2,0,0.3,0.1,0.4,0.2c0.1,0.1,0.1,0.3,0.1,0.5
	c0,0.1,0,0.3-0.1,0.4c-0.1,0.1-0.1,0.2-0.2,0.3c-0.1,0.1-0.2,0.1-0.3,0.2c-0.1,0-0.3,0.1-0.4,0.1c-0.1,0-0.3,0-0.4-0.1
	c-0.1,0-0.2-0.1-0.3-0.2c-0.1-0.1-0.2-0.2-0.2-0.3c-0.1-0.1-0.1-0.3-0.1-0.4c0-0.2,0-0.3,0.1-0.5s0.2-0.2,0.4-0.2v0
	c-0.1,0-0.2-0.1-0.3-0.2c-0.1-0.1-0.1-0.2-0.1-0.4C113.1,83.4,113.1,83.3,113.2,83.2L113.2,83.2z M113.6,85c0.1,0.1,0.1,0.2,0.3,0.3
	c0.1,0,0.3,0,0.4,0c0.1,0,0.1-0.1,0.2-0.1s0.1-0.1,0.1-0.2c0-0.1,0-0.3,0-0.4c0-0.1-0.1-0.1-0.1-0.1c0,0-0.1-0.1-0.2-0.1
	c-0.1,0-0.1,0-0.2,0c-0.1,0-0.3,0-0.4,0.1c-0.1,0.1-0.2,0.2-0.1,0.3C113.6,84.9,113.6,84.9,113.6,85L113.6,85z M113.8,83.9
	c0.1,0.1,0.2,0.1,0.3,0.1c0.1,0,0.2,0,0.3-0.1c0.1-0.1,0.1-0.2,0.1-0.3c0,0,0-0.1,0-0.1c0-0.1-0.1-0.2-0.2-0.2c-0.1,0-0.1,0-0.2,0
	c-0.1,0-0.2,0-0.3,0.1c0,0-0.1,0.1-0.1,0.1c0,0.1,0,0.1,0,0.2C113.6,83.7,113.7,83.8,113.8,83.9z M137.6,85.2
	c0.1,0.1,0.2,0.1,0.3,0.1c0.1,0,0.2,0,0.3-0.1c0.1-0.1,0.1-0.1,0.2-0.2c0-0.1,0.1-0.2,0.1-0.3c0-0.1,0-0.2,0-0.3l0,0
	c-0.1,0.1-0.2,0.2-0.3,0.2c-0.1,0.1-0.2,0.1-0.4,0.1c-0.1,0-0.2,0-0.4-0.1c-0.2-0.1-0.4-0.3-0.5-0.5c-0.1-0.2-0.1-0.5,0-0.8
	c0-0.1,0.1-0.2,0.2-0.3s0.2-0.2,0.3-0.2s0.3-0.1,0.4-0.1c0.2,0,0.4,0,0.5,0.1c0.1,0.1,0.3,0.2,0.3,0.3c0.1,0.1,0.1,0.3,0.2,0.5
	c0,0.2,0,0.4,0,0.5c0,0.2,0,0.4-0.1,0.5s-0.1,0.3-0.2,0.5c-0.1,0.1-0.2,0.3-0.3,0.3c-0.2,0.1-0.3,0.1-0.5,0.1c-0.1,0-0.2,0-0.3-0.1
	c-0.2-0.1-0.4-0.2-0.5-0.4c-0.1-0.1-0.1-0.2-0.1-0.3h0.6C137.5,85.1,137.6,85.2,137.6,85.2z M138.1,84.3c0.1,0,0.1-0.1,0.1-0.1
	c0-0.1,0.1-0.1,0.1-0.2c0-0.1,0-0.1,0-0.2c0-0.1,0-0.3-0.1-0.4c-0.1-0.1-0.2-0.2-0.3-0.2c-0.1,0-0.1,0-0.2,0
	c-0.1,0.1-0.2,0.2-0.2,0.3c0,0.1,0,0.1,0,0.2c0,0.1,0,0.1,0,0.2c0,0.1,0,0.1,0.1,0.2c0.1,0.1,0.2,0.2,0.3,0.2
	C138,84.4,138.1,84.3,138.1,84.3z"/>
<path class="st13" d="M83.2,55.7c-0.2,0-0.3-0.1-0.3-0.3v-7.4c0-0.2,0.1-0.3,0.3-0.3h14.2c0.2,0,0.3,0.1,0.3,0.3v7.4
	c0,0.2-0.1,0.3-0.3,0.3L83.2,55.7L83.2,55.7z"/>
<path class="st14" d="M96.1,55.2H84.5c-0.6,0-1-0.5-1-1v-4.8c0-0.6,0.5-1,1-1h11.6c0.6,0,1,0.5,1,1v4.8
	C97.1,54.7,96.7,55.2,96.1,55.2z"/>
<path class="st13" d="M107,55.7c-0.2,0-0.3-0.1-0.3-0.3v-7.4c0-0.2,0.1-0.3,0.3-0.3h14.2c0.2,0,0.3,0.1,0.3,0.3v7.4
	c0,0.2-0.1,0.3-0.3,0.3L107,55.7L107,55.7z"/>
<path class="st14" d="M119.9,55.2h-11.6c-0.6,0-1-0.5-1-1v-4.8c0-0.6,0.5-1,1-1h11.6c0.6,0,1,0.5,1,1v4.8
	C120.9,54.7,120.4,55.2,119.9,55.2z"/>
<path class="st13" d="M130.7,55.7c-0.2,0-0.3-0.1-0.3-0.3v-7.4c0-0.2,0.1-0.3,0.3-0.3h14.2c0.2,0,0.3,0.1,0.3,0.3c0,0,0,0,0,0v7.4
	c0,0.2-0.1,0.3-0.3,0.3l0,0L130.7,55.7L130.7,55.7z"/>
<path class="st14" d="M143.6,55.2H132c-0.6,0-1-0.5-1-1v-4.8c0-0.6,0.5-1,1-1h11.6c0.6,0,1,0.5,1,1v4.8
	C144.7,54.7,144.2,55.2,143.6,55.2z"/>
<path class="st13" d="M154.5,55.7c-0.2,0-0.3-0.1-0.3-0.3v-7.4c0-0.2,0.1-0.3,0.3-0.3h14.2c0.2,0,0.3,0.1,0.3,0.3c0,0,0,0,0,0v7.4
	c0,0.2-0.1,0.3-0.3,0.3l0,0L154.5,55.7L154.5,55.7z"/>
<path class="st14" d="M167.4,55.2h-11.6c-0.6,0-1-0.5-1-1v-4.8c0-0.6,0.5-1,1-1h11.6c0.6,0,1,0.5,1,1v4.8
	C168.4,54.7,168,55.2,167.4,55.2z"/>
<path class="st13" d="M178.2,55.7c-0.2,0-0.3-0.1-0.3-0.3v-7.4c0-0.2,0.1-0.3,0.3-0.3h14.2c0.2,0,0.3,0.1,0.3,0.3c0,0,0,0,0,0v7.4
	c0,0.2-0.1,0.3-0.3,0.3l0,0L178.2,55.7L178.2,55.7z"/>
<path class="st14" d="M191.1,55.2h-11.6c-0.6,0-1-0.5-1-1v-4.8c0-0.6,0.5-1,1-1h11.6c0.6,0,1,0.5,1,1v4.8
	C192.2,54.7,191.7,55.2,191.1,55.2z"/>
<path class="st13" d="M202,55.7c-0.2,0-0.3-0.1-0.3-0.3v-7.4c0-0.2,0.1-0.3,0.3-0.3h14.2c0.2,0,0.3,0.1,0.3,0.3c0,0,0,0,0,0v7.4
	c0,0.2-0.1,0.3-0.3,0.3l0,0L202,55.7L202,55.7z"/>
<path class="st14" d="M214.9,55.2h-11.6c-0.6,0-1-0.5-1-1v-4.8c0-0.6,0.5-1,1-1h11.6c0.6,0,1,0.5,1,1v4.8
	C215.9,54.7,215.5,55.2,214.9,55.2z"/>
<path class="st13" d="M225.7,55.7c-0.2,0-0.3-0.1-0.3-0.3v-7.4c0-0.2,0.1-0.3,0.3-0.3h14.2c0.2,0,0.3,0.1,0.3,0.3c0,0,0,0,0,0v7.4
	c0,0.2-0.1,0.3-0.3,0.3l0,0L225.7,55.7L225.7,55.7z"/>
<path class="st14" d="M238.7,55.2H227c-0.6,0-1-0.5-1-1v-4.8c0-0.6,0.5-1,1-1h11.6c0.6,0,1,0.5,1,1v4.8
	C239.7,54.7,239.2,55.2,238.7,55.2z"/>
<path class="st13" d="M257.2,58.7V45.1c0-0.2,0.2-0.4,0.4-0.4h14c0.2,0,0.4,0.2,0.4,0.4v13.6c0,0.2-0.2,0.4-0.4,0.4h-14
	C257.4,59.1,257.2,58.9,257.2,58.7z"/>
<path class="st15" d="M270.4,55.2h-11.7c-0.6,0-1-0.5-1-1v-4.6c0-0.6,0.5-1,1-1h11.7c0.6,0,1,0.5,1,1v4.6
	C271.4,54.7,271,55.2,270.4,55.2z"/>
<path class="st13" d="M83.2,76.2c-0.2,0-0.3-0.1-0.3-0.3v-7.4c0-0.2,0.1-0.3,0.3-0.3h14.2c0.2,0,0.3,0.1,0.3,0.3v7.4
	c0,0.2-0.1,0.3-0.3,0.3L83.2,76.2L83.2,76.2z"/>
<path class="st14" d="M96.1,75.7H84.5c-0.6,0-1-0.5-1-1v-4.8c0-0.6,0.5-1,1-1h11.6c0.6,0,1,0.5,1,1v4.8
	C97.1,75.2,96.7,75.7,96.1,75.7z"/>
<path class="st13" d="M107,76.2c-0.2,0-0.3-0.1-0.3-0.3v-7.4c0-0.2,0.1-0.3,0.3-0.3h14.2c0.2,0,0.3,0.1,0.3,0.3v7.4
	c0,0.2-0.1,0.3-0.3,0.3L107,76.2L107,76.2z"/>
<path class="st14" d="M119.9,75.7h-11.6c-0.6,0-1-0.5-1-1v-4.8c0-0.6,0.5-1,1-1h11.6c0.6,0,1,0.5,1,1v4.8
	C120.9,75.2,120.4,75.7,119.9,75.7z"/>
<path class="st13" d="M130.7,76.2c-0.2,0-0.3-0.1-0.3-0.3v-7.4c0-0.2,0.1-0.3,0.3-0.3h14.2c0.2,0,0.3,0.1,0.3,0.3v0v7.4
	c0,0.2-0.1,0.3-0.3,0.3l0,0L130.7,76.2L130.7,76.2z"/>
<path class="st14" d="M143.6,75.7H132c-0.6,0-1-0.5-1-1v-4.8c0-0.6,0.5-1,1-1h11.6c0.6,0,1,0.5,1,1v4.8
	C144.7,75.2,144.2,75.7,143.6,75.7z"/>
<path class="st13" d="M154.5,76.2c-0.2,0-0.3-0.1-0.3-0.3v-7.4c0-0.2,0.1-0.3,0.3-0.3h14.2c0.2,0,0.3,0.1,0.3,0.3v0v7.4
	c0,0.2-0.1,0.3-0.3,0.3l0,0L154.5,76.2L154.5,76.2z"/>
<path class="st14" d="M167.4,75.7h-11.6c-0.6,0-1-0.5-1-1v-4.8c0-0.6,0.5-1,1-1h11.6c0.6,0,1,0.5,1,1v4.8
	C168.4,75.2,168,75.7,167.4,75.7z"/>
<path class="st13" d="M178.2,76.2c-0.2,0-0.3-0.1-0.3-0.3v-7.4c0-0.2,0.1-0.3,0.3-0.3h14.2c0.2,0,0.3,0.1,0.3,0.3v0v7.4
	c0,0.2-0.1,0.3-0.3,0.3l0,0L178.2,76.2L178.2,76.2z"/>
<path class="st14" d="M191.1,75.7h-11.6c-0.6,0-1-0.5-1-1v-4.8c0-0.6,0.5-1,1-1h11.6c0.6,0,1,0.5,1,1v4.8
	C192.2,75.2,191.7,75.7,191.1,75.7z"/>
<path class="st13" d="M201.7,75.9v-7.2c0-0.2,0.2-0.4,0.4-0.4h21.7c0.2,0,0.4,0.2,0.4,0.4v7.2c0,0.2-0.2,0.4-0.4,0.4h-21.7
	C201.9,76.2,201.7,76.1,201.7,75.9C201.7,75.9,201.7,75.9,201.7,75.9z"/>
<path class="st14" d="M222,75.7h-18.2c-0.7,0-1.3-0.6-1.3-1.3v-4.3c0-0.7,0.6-1.3,1.3-1.3H222c0.7,0,1.3,0.6,1.3,1.3v4.3
	C223.2,75.1,222.7,75.7,222,75.7z"/>
<path class="st13" d="M233.3,76.2c-0.2,0-0.3-0.1-0.3-0.3v-7.4c0-0.2,0.1-0.3,0.3-0.3h14.2c0.2,0,0.3,0.1,0.3,0.3v0v7.4
	c0,0.2-0.1,0.3-0.3,0.3l0,0L233.3,76.2L233.3,76.2z"/>
<path class="st14" d="M246.2,75.7h-11.6c-0.6,0-1-0.5-1-1v-4.8c0-0.6,0.5-1,1-1h11.6c0.6,0,1,0.5,1,1v4.8
	C247.2,75.2,246.8,75.7,246.2,75.7z"/>
<path class="st13" d="M257.5,76.2c-0.2,0-0.3-0.1-0.3-0.3v-7.4c0-0.2,0.1-0.3,0.3-0.3h14.2c0.2,0,0.3,0.1,0.3,0.3v0v7.4
	c0,0.2-0.1,0.3-0.3,0.3l0,0L257.5,76.2L257.5,76.2z"/>
<path class="st14" d="M270.4,75.7h-11.6c-0.6,0-1-0.5-1-1v-4.8c0-0.6,0.5-1,1-1h11.6c0.6,0,1,0.5,1,1v4.8
	C271.4,75.2,271,75.7,270.4,75.7z"/>
<path class="st13" d="M83.2,96.7c-0.2,0-0.3-0.1-0.3-0.3v-7.4c0-0.2,0.1-0.3,0.3-0.3h14.2c0.2,0,0.3,0.1,0.3,0.3v7.4
	c0,0.2-0.1,0.3-0.3,0.3L83.2,96.7L83.2,96.7z"/>
<path class="st14" d="M96.1,96.2H84.5c-0.6,0-1-0.5-1-1v-4.8c0-0.6,0.5-1,1-1h11.6c0.6,0,1,0.5,1,1v4.8
	C97.1,95.7,96.7,96.2,96.1,96.2z"/>
<path class="st13" d="M107,96.7c-0.2,0-0.3-0.1-0.3-0.3v-7.4c0-0.2,0.1-0.3,0.3-0.3h14.2c0.2,0,0.3,0.1,0.3,0.3v7.4
	c0,0.2-0.1,0.3-0.3,0.3L107,96.7L107,96.7z"/>
<path class="st14" d="M119.9,96.2h-11.6c-0.6,0-1-0.5-1-1v-4.8c0-0.6,0.5-1,1-1h11.6c0.6,0,1,0.5,1,1v4.8
	C120.9,95.7,120.4,96.2,119.9,96.2z"/>
<path class="st13" d="M130.7,96.7c-0.2,0-0.3-0.1-0.3-0.3v-7.4c0-0.2,0.1-0.3,0.3-0.3h14.2c0.2,0,0.3,0.1,0.3,0.3c0,0,0,0,0,0v7.4
	c0,0.2-0.1,0.3-0.3,0.3l0,0L130.7,96.7L130.7,96.7z"/>
<path class="st14" d="M143.6,96.2H132c-0.6,0-1-0.5-1-1v-4.8c0-0.6,0.5-1,1-1h11.6c0.6,0,1,0.5,1,1v4.8
	C144.7,95.7,144.2,96.2,143.6,96.2z"/>
<path class="st13" d="M154.5,96.7c-0.2,0-0.3-0.1-0.3-0.3v-7.4c0-0.2,0.1-0.3,0.3-0.3h14.2c0.2,0,0.3,0.1,0.3,0.3c0,0,0,0,0,0v7.4
	c0,0.2-0.1,0.3-0.3,0.3l0,0L154.5,96.7L154.5,96.7z"/>
<path class="st14" d="M167.4,96.2h-11.6c-0.6,0-1-0.5-1-1v-4.8c0-0.6,0.5-1,1-1h11.6c0.6,0,1,0.5,1,1v4.8
	C168.4,95.7,168,96.2,167.4,96.2z"/>
<path class="st13" d="M201.7,96.4v-7.2c0-0.2,0.2-0.4,0.4-0.4h21.7c0.2,0,0.4,0.2,0.4,0.4v7.2c0,0.2-0.2,0.4-0.4,0.4h-21.7
	C201.9,96.7,201.7,96.6,201.7,96.4C201.7,96.4,201.7,96.4,201.7,96.4z"/>
<path class="st14" d="M222,96.2h-18.2c-0.7,0-1.3-0.6-1.3-1.3v-4.3c0-0.7,0.6-1.3,1.3-1.3H222c0.7,0,1.3,0.6,1.3,1.3v4.3
	C223.2,95.6,222.7,96.2,222,96.2z"/>
<g>
	<path class="st13" d="M257.5,96.7c-0.2,0-0.3-0.1-0.3-0.3v-7.4c0-0.2,0.1-0.3,0.3-0.3h14.2c0.2,0,0.3,0.1,0.3,0.3c0,0,0,0,0,0v7.4
		c0,0.2-0.1,0.3-0.3,0.3l0,0L257.5,96.7L257.5,96.7z"/>
	<path class="st14" d="M270.4,96.2h-11.6c-0.6,0-1-0.5-1-1v-4.8c0-0.6,0.5-1,1-1h11.6c0.6,0,1,0.5,1,1v4.8
		C271.4,95.7,271,96.2,270.4,96.2z"/>
</g>
<path class="st8" d="M271.1,55.7H258c-0.2,0-0.3,0.1-0.3,0.3v2.1c0,0.2,0.1,0.3,0.3,0.3h13.1c0.2,0,0.3-0.1,0.3-0.3V56
	C271.4,55.9,271.3,55.7,271.1,55.7z M271.1,48H258c-0.2,0-0.3-0.1-0.3-0.3v-2.1c0-0.2,0.1-0.3,0.3-0.3h13.1c0.2,0,0.3,0.1,0.3,0.3
	v2.1C271.4,47.9,271.3,48,271.1,48z"/>
<path class="st12" d="M178.2,59.3h69.6 M192.7,72.3h8.8 M224.1,72.3h8.7 M201.7,92.8h-15.2c-0.5,0-0.9-0.4-0.9-0.9V76.2 M240.2,76.2
	v15.7c0,0.5-0.4,0.8-0.9,0.8l0,0h-15.3 M252.3,41.3v55.9 M256.5,60.5H272 M173.3,41.3v55.9"/>
<g>
	<path class="st11" d="M260.9,64.9l-0.2-0.1c0.1-0.2,0.2-0.5,0.2-0.8c0-0.9-0.7-1.6-1.5-1.6c-0.8,0-1.5,0.7-1.5,1.6
		c0,0.3,0.1,0.5,0.2,0.8l-0.2,0.1c-0.1-0.3-0.2-0.6-0.2-0.9c0-1.1,0.8-1.9,1.8-1.9h0c1,0,1.8,0.9,1.8,1.9
		C261.2,64.3,261.1,64.6,260.9,64.9L260.9,64.9z"/>
	<g>
		<path class="st11" d="M258.7,65.8c0-0.3-0.2-0.7-0.4-0.7c-0.2,0-0.4,0.3-0.4,0.6s0.3,0.7,0.5,0.7
			C258.6,66.4,258.7,66.2,258.7,65.8z M260.1,65.8c0-0.3,0.2-0.7,0.4-0.7s0.4,0.3,0.4,0.6s-0.3,0.7-0.5,0.7
			C260.2,66.4,260.1,66.2,260.1,65.8z"/>
	</g>
</g>
<g>
	<path class="st6" d="M282.9,20.7h69.7c0.4,0,0.7-0.3,0.7-0.7v-0.7c0-0.4-0.3-0.7-0.7-0.7h-69.7c-0.4,0-0.7,0.3-0.7,0.7v0.7
		C282.2,20.3,282.5,20.7,282.9,20.7z M282.9,25.8h69.7c0.4,0,0.7-0.3,0.7-0.7v-0.7c0-0.4-0.3-0.7-0.7-0.7h-69.7
		c-0.4,0-0.7,0.3-0.7,0.7v0.7C282.2,25.5,282.5,25.8,282.9,25.8z M282.9,31h69.7c0.4,0,0.7-0.3,0.7-0.7v-0.7c0-0.4-0.3-0.7-0.7-0.7
		h-69.7c-0.4,0-0.7,0.3-0.7,0.7v0.7C282.2,30.7,282.5,31,282.9,31z M282.9,36.2h69.7c0.4,0,0.7-0.3,0.7-0.7v-0.7
		c0-0.4-0.3-0.7-0.7-0.7h-69.7c-0.4,0-0.7,0.3-0.7,0.7v0.7C282.2,35.8,282.5,36.2,282.9,36.2z"/>
</g>
<g>
	<path class="st11" d="M301.5,62.5l1.3,3.6H302l-0.3-0.8h-1.3l-0.3,0.8h-0.8l1.4-3.6H301.5z M301.5,64.7l-0.4-1.3h0l-0.5,1.3H301.5z
		"/>
</g>
<g>
	<path class="st11" d="M333.8,62.5c0.2,0,0.3,0,0.5,0s0.3,0.1,0.4,0.1c0.1,0.1,0.2,0.2,0.2,0.3c0.1,0.1,0.1,0.3,0.1,0.4
		c0,0.2,0,0.3-0.1,0.5c-0.1,0.1-0.2,0.2-0.4,0.3c0.2,0.1,0.4,0.2,0.5,0.3c0.1,0.2,0.2,0.3,0.2,0.6c0,0.2,0,0.3-0.1,0.5
		c-0.1,0.1-0.2,0.2-0.3,0.3c-0.1,0.1-0.3,0.1-0.4,0.2c-0.2,0-0.3,0.1-0.5,0.1h-1.7v-3.6L333.8,62.5L333.8,62.5z M333.7,63.9
		c0.1,0,0.3,0,0.3-0.1c0.1-0.1,0.1-0.2,0.1-0.3c0-0.1,0-0.2,0-0.2s-0.1-0.1-0.1-0.1c-0.1,0-0.1-0.1-0.2-0.1c-0.1,0-0.1,0-0.2,0h-0.7
		v0.8L333.7,63.9L333.7,63.9z M333.8,65.4c0.1,0,0.1,0,0.2,0c0.1,0,0.1,0,0.2-0.1c0.1,0,0.1-0.1,0.1-0.1c0-0.1,0-0.2,0-0.2
		c0-0.2-0.1-0.3-0.2-0.4c-0.1-0.1-0.3-0.1-0.4-0.1h-0.9v1H333.8L333.8,65.4z"/>
</g>
<path class="st2" d="M301,95.5c-6.7,0-12.2-5.5-12.2-12.2s5.5-12.2,12.2-12.2c6.7,0,12.2,5.5,12.2,12.2
	C313.2,90,307.8,95.5,301,95.5z"/>
<circle class="st16" cx="301" cy="83.3" r="10.2"/>
<path class="st2" d="M333.6,95.5c-6.7,0-12.2-5.5-12.2-12.2s5.5-12.2,12.2-12.2c6.7,0,12.2,5.5,12.2,12.2
	C345.8,90,340.3,95.5,333.6,95.5z"/>
<circle class="st16" cx="333.6" cy="83.3" r="10.2"/>
<g>
	<g>
		<path class="st17" d="M185.7,72l3.4-0.7c0.1,0,0.2,0.1,0.3,0.2c0,0,0,0,0,0v1.3c0,0.1-0.1,0.2-0.2,0.2c0,0,0,0,0,0l-3.4-0.7
			C185.5,72.4,185.5,72.1,185.7,72z M181.5,72l3.4-0.7c0.1,0,0.2,0.1,0.3,0.2c0,0,0,0,0,0v1.3c0,0.1-0.1,0.2-0.2,0.2c0,0,0,0,0,0
			l-3.4-0.7C181.3,72.4,181.3,72.1,181.5,72z M217.5,73.9h-1.1c-0.2,0-0.3-0.1-0.3-0.3v-2.7c0-0.2,0.1-0.3,0.3-0.3h1.1
			c0.2,0,0.3,0.1,0.3,0.3v2.7C217.8,73.8,217.7,73.9,217.5,73.9z M220.1,73.9H219c-0.2,0-0.3-0.1-0.3-0.3v-2.7
			c0-0.2,0.1-0.3,0.3-0.3h1.1c0.2,0,0.3,0.1,0.3,0.3v2.7C220.4,73.8,220.3,73.9,220.1,73.9z M210.9,71.9l-5.1-1
			c-0.2,0-0.4,0.1-0.4,0.3c0,0,0,0,0,0.1v2c0,0.2,0.2,0.3,0.3,0.3c0,0,0,0,0.1,0l5.1-1C211.3,72.5,211.3,72,210.9,71.9z M214.6,94.5
			h-3.3c-0.2,0-0.4-0.2-0.4-0.4v-2.7c0-0.2,0.2-0.4,0.4-0.4h3.3c0.2,0,0.4,0.2,0.4,0.4v2.7C215,94.3,214.8,94.5,214.6,94.5
			C214.6,94.5,214.6,94.5,214.6,94.5z"/>
		<g>
			<path class="st17" d="M240,72l-3.4-0.7c-0.1,0-0.2,0.1-0.3,0.2c0,0,0,0,0,0v1.3c0,0.1,0.1,0.3,0.3,0.2l3.4-0.7
				C240.3,72.4,240.3,72.1,240,72z M244.2,72l-3.4-0.7c-0.1,0-0.2,0.1-0.3,0.2c0,0,0,0,0,0v1.3c0,0.1,0.1,0.3,0.3,0.2l3.4-0.7
				C244.5,72.4,244.5,72.1,244.2,72z"/>
		</g>
		<path class="st17" d="M264.4,71l-1.3,2.3c-0.1,0.1,0,0.3,0.1,0.3c0,0,0.1,0,0.1,0h2.7c0.1,0,0.3-0.1,0.3-0.2c0,0,0-0.1,0-0.1
			l-1.3-2.3C264.7,70.8,264.6,70.8,264.4,71C264.4,70.9,264.4,70.9,264.4,71L264.4,71z M264.4,94l-1.3-2.3c-0.1-0.1,0-0.3,0.1-0.3
			c0,0,0.1,0,0.1,0h2.7c0.1,0,0.3,0.1,0.3,0.2c0,0,0,0.1,0,0.1l-1.3,2.3C264.7,94.2,264.6,94.2,264.4,94
			C264.4,94.1,264.4,94.1,264.4,94L264.4,94z"/>
	</g>
</g>
</svg>
