<?xml version="1.0" encoding="utf-8"?>
<!-- Generator: Adobe Illustrator 21.1.0, SVG Export Plug-In . SVG Version: 6.00 Build 0)  -->
<svg version="1.1" id="Layer_1" xmlns="http://www.w3.org/2000/svg" xmlns:xlink="http://www.w3.org/1999/xlink" x="0px" y="0px"
	 viewBox="0 0 388 169.6" style="enable-background:new 0 0 388 169.6;" xml:space="preserve">
<style type="text/css">
	.st0{fill:#323333;}
	.st1{fill:url(#SVGID_1_);}
	.st2{fill:#444544;}
	.st3{fill:#1B1C1C;}
	.st4{fill:#636363;}
	.st5{fill:#3A3B3A;}
	.st6{fill:#232423;}
	.st7{fill:url(#SVGID_2_);}
	.st8{fill:#18C49B;}
	.st9{fill:#47DEBA;}
	.st10{fill:#E6A604;}
	.st11{fill:#FFDF46;}
	.st12{fill:url(#SVGID_3_);}
	.st13{fill:#005E9C;}
	.st14{fill:#4A9BE4;}
	.st15{fill:#DA2B27;}
	.st16{fill:#FF5853;}
	.st17{fill:#1C1C1C;}
	.st18{fill:#393B39;}
	.st19{fill:#4F4F4F;}
	.st20{fill:#333333;}
	.st21{fill:#4A4A4A;}
	.st22{fill:#232423;stroke:#131413;stroke-width:0.6;stroke-miterlimit:10;}
	.st23{fill:#4B4D4B;}
	.st24{fill:#1E1F1F;}
	.st25{fill:#393B3B;}
	.st26{fill:#585959;}
	.st27{fill:#2F3030;}
	.st28{fill:#404040;}
	.st29{fill:#282929;}
	.st30{fill:#E3E7E6;}
</style>
<path class="st0" d="M194,169.6c34.7,0,72.8-4.6,102.1-9.4c23.6-3.8,41.3-7.7,49.3-9.7c13.4-3.3,24.8-7.3,26.2-8.1
	c3.8-2.1,7.2-5.7,10.2-8.8c7.2-7.5,6.1-18.9,6.1-18.9s-1.5-13.5-4.8-34.8s-15.6-52.9-15.6-52.9s-1.8-7.1-8.1-13.1
	c-2.3-2.1-8.9-8.2-16.3-8.2h-28.9h-35.8c-5.7,0-9,6.1-10,7.9c-1.2,2-2.9,6.4-2.2,10.6c1.2,7.5,6.2,15.9,7.3,19.4
	c1.4,4.2,3.5,11.6,4.4,14.9c0.2,0.8-0.3,1.6-1.1,1.9c0,0-0.1,0-0.2,0c-8.1,1.4-44.4,7.2-82.6,7.2s-74.5-5.8-82.6-7.2
	c-0.8-0.1-1.4-0.9-1.2-1.7c0-0.1,0-0.1,0-0.2c0.9-3.3,3-10.8,4.4-14.9c1.2-3.5,6.1-11.9,7.3-19.4c0.7-4.1-1.1-8.5-2.2-10.6
	c-1-1.8-4.3-7.9-10-7.9H73.8H44.9c-7.4,0-14.1,6-16.3,8.2c-6.3,6-8.1,13.1-8.1,13.1S8.1,58.7,4.9,80s-4.8,34.8-4.8,34.8
	s-1,11.4,6.1,18.9c3,3.1,6.4,6.7,10.2,8.8c1.4,0.8,12.8,4.8,26.2,8.1c7.9,2,25.6,5.8,49.3,9.7C121.2,165,159.2,169.6,194,169.6z"/>
<linearGradient id="SVGID_1_" gradientUnits="userSpaceOnUse" x1="-13.0134" y1="510.6135" x2="362.9966" y2="510.6135" gradientTransform="matrix(1 0 0 -1 19.0005 592.6285)">
	<stop  offset="0" style="stop-color:#545454"/>
	<stop  offset="1" style="stop-color:#3B3B3B"/>
</linearGradient>
<path class="st1" d="M358.4,21c-5.5-8.3-16.9-10.9-17.3-11l-0.2-0.1l-24.5-1.4l-30.2-0.2l-0.1,0l-0.1,0c-0.3,0-7.3,0.5-10.8,5.9
	c-2.8,4.2-2.5,8.7-1.9,10.7l0,0.2c0,0.1,3.5,9.7,7.1,20.2c1.4,4,2.4,7.9,3.4,11.8c0.5,1.9,1,3.7,1.4,5.4c-5.7,1.4-23.2,3.7-46.4,5.5
	c-21.8,1.7-43.3,2.4-44.9,2.5c-1.6-0.1-23.1-0.8-44.9-2.5c-23.2-1.8-40.7-4.1-46.4-5.5c0.5-1.7,1-3.6,1.4-5.4c1-3.8,2-7.8,3.4-11.8
	c2.3-6.7,4.7-13.5,7.1-20.2l0.1-0.2c0.6-2,0.9-6.5-1.9-10.7c-3.5-5.3-10.5-5.8-10.8-5.9l-0.1,0L71.8,8.6L47.4,10l-0.2,0L47,10
	c-0.5,0.1-11.9,2.7-17.3,11C24.3,29.1,6,86.2,6,117.2c0,6.7,3.5,11.6,9.5,13.5c23.8,7.6,58.3,13.5,68.3,15.2c1,0.2,2,0.3,3,0.5
	l4.3,0.7c23.4,3.7,59.5,8.6,102.9,8.6s79.5-4.9,102.9-8.6l4.3-0.7c1-0.2,2-0.3,3-0.5c10-1.6,44.6-7.6,68.3-15.2
	c6-1.9,9.5-6.8,9.5-13.5C382,86.2,363.7,29.1,358.4,21L358.4,21z"/>
<path class="st2" d="M354.1,22.4c-4.8-7.5-15.3-9.9-15.3-9.9l-24-1.4l-29.7-0.2c0,0-5.7,0.4-8.4,4.6s-1.5,8.3-1.5,8.3
	s3.4,9.7,7.1,20.5c2.4,7,3.7,14.1,5.5,20c0.6,1.9-25,5.1-49.2,7C215.9,73.2,194,74,194,74s-21.9-0.7-44.6-2.5
	c-24.2-1.9-49.8-5.1-49.2-7c1.8-6,3.2-13,5.5-20c3.6-10.8,7.1-20.5,7.1-20.5s1.2-4.1-1.5-8.3c-2.7-4.2-8.4-4.6-8.4-4.6l-29.7,0.2
	l-24,1.4c0,0-10.5,2.3-15.3,9.9S11,86.9,11,118.3c0,3.1,0.9,8.7,7.3,10.8c20,6.5,49.2,12.3,67.2,15.3c1,0.2,1.9,0.3,2.9,0.5l4.2,0.7
	c24.7,4,59.6,8.7,101.3,8.7s76.6-4.7,101.3-8.7l4.2-0.7l2.9-0.5c17.9-3,47.1-8.8,67.2-15.3c6.4-2.1,7.3-7.7,7.3-10.8
	C376.9,86.9,358.8,29.9,354.1,22.4L354.1,22.4z M283.7,66.5l4-1.3 M294.7,120.5c-0.2-3.3-0.6-6.8-1-10.3 M94.3,110.2
	c-0.4,3.4-0.7,6.9-1,10.3"/>
<circle class="st3" cx="56.7" cy="67.9" r="28.8"/>
<circle class="st4" cx="56.1" cy="67.1" r="26.3"/>
<circle class="st5" cx="56.7" cy="68.3" r="26.3"/>
<path class="st6" d="M44.9,5.8V2.9c0-0.8,0.4-1.3,1.3-1.3l58.6-0.6c1,0.1,1.5,0.5,1.6,1.4v3.5L44.9,5.8L44.9,5.8z M343.1,5.8V2.9
	c0-0.8-0.4-1.3-1.3-1.3l-58.6-0.6c-1,0.1-1.5,0.5-1.6,1.4v3.5L343.1,5.8L343.1,5.8z"/>
<linearGradient id="SVGID_2_" gradientUnits="userSpaceOnUse" x1="310.9051" y1="526.7357" x2="301.9101" y2="550.7217" gradientTransform="matrix(1 0 0 -1 19.0005 592.6285)">
	<stop  offset="0" style="stop-color:#383838"/>
	<stop  offset="1" style="stop-color:#242424"/>
</linearGradient>
<path class="st7" d="M355.3,48c0-6.8-5.5-12.2-12.2-12.2c-1.6,0-3.2,0.3-4.7,1L307.1,46c-6.8,0-12.2,5.5-12.2,12.2
	s5.5,12.2,12.2,12.2c1.8,0,3.6-0.4,5.2-1.1l0,0l32.5-9.2l0,0C350.8,59.3,355.3,54.2,355.3,48L355.3,48z"/>
<circle class="st8" cx="307.1" cy="58.3" r="11.3"/>
<circle class="st9" cx="307.1" cy="58.3" r="10.2"/>
<circle class="st10" cx="343.1" cy="48" r="11"/>
<circle class="st11" cx="343.1" cy="48" r="9.9"/>
<linearGradient id="SVGID_3_" gradientUnits="userSpaceOnUse" x1="317.2773" y1="495.6404" x2="312.4803" y2="515.4284" gradientTransform="matrix(1 0 0 -1 19.0005 592.6285)">
	<stop  offset="0" style="stop-color:#383838"/>
	<stop  offset="1" style="stop-color:#242424"/>
</linearGradient>
<path class="st12" d="M366.1,83.5c0-6.8-5.5-12.2-12.2-12.2c-2,0-4,0.5-5.6,1.4l0,0l-25.5,6.8c-1.6-0.6-3.3-0.9-5-0.9
	c-8.4,0-15.2,6.8-15.2,15.2s6.8,15.2,15.2,15.2c4.8,0,9.1-2.2,11.9-5.7l26.1-7.8c1.2-0.2,2.3-0.5,3.3-1l0.1,0l0,0
	C363.2,92.6,366.1,88.4,366.1,83.5L366.1,83.5z"/>
<circle class="st13" cx="353.9" cy="83.5" r="11"/>
<circle class="st14" cx="353.9" cy="83.5" r="9.9"/>
<circle class="st15" cx="317.7" cy="93.9" r="14.1"/>
<circle class="st16" cx="317.7" cy="93.9" r="12.7"/>
<path class="st17" d="M189.8,68.8C189.8,68.8,189.8,68.8,189.8,68.8c0.1,0.6,8.4,0.6,8.4,0c0,0,0,0,0,0V36.4l0-0.5
	c-0.1-0.6-1.7-16.1,11.7-30.1L203.8,0c-15.4,16.1-14.3,34-14,36.6V68.8z"/>
<path class="st18" d="M189.2,68.6v-0.8c0-0.4,0.3-0.7,0.7-0.7c0,0.7,8.3,0.7,8.3,0c0.4,0,0.5,0.3,0.5,0.7v0.8
	C198.7,69.8,189.2,69.8,189.2,68.6z"/>
<path class="st19" d="M65.9,37.9c0,0.3-0.3,0.6-0.6,0.6c0,0-0.1,0-0.1,0l-3.4-0.8c-0.3-0.1-0.5-0.4-0.5-0.7c0-0.1,0.1-0.2,0.1-0.3
	l2.4-2.6c0.1-0.2,0.4-0.2,0.6-0.2s0.4,0.2,0.4,0.4l1.1,3.4C65.9,37.8,65.9,37.9,65.9,37.9L65.9,37.9z"/>
<path class="st20" d="M61.5,37.2c0-0.1,0-0.2,0.1-0.2l2.4-2.6c0.1-0.1,0.4-0.2,0.5,0c0,0,0.1,0.1,0.1,0.2l1.1,3.4
	c0.1,0.2,0,0.4-0.2,0.5c-0.1,0-0.1,0-0.2,0l-3.4-0.8C61.6,37.5,61.5,37.3,61.5,37.2 M61,37.2c0,0.4,0.3,0.7,0.7,0.8l3.4,0.8
	c0.2,0.1,0.5,0,0.7-0.2c0.3-0.2,0.4-0.6,0.3-0.9L65,34.3c-0.1-0.3-0.3-0.5-0.6-0.6c-0.3-0.1-0.6,0-0.8,0.3l-2.4,2.6
	C61.1,36.8,61,37,61,37.2L61,37.2z"/>
<path class="st21" d="M76.1,20c0,0.3-0.2,0.6-0.4,0.7c-0.2,0.1-0.6,0.1-0.8,0l-4.7-2.7c-0.3-0.1-0.4-0.4-0.4-0.7s0.2-0.6,0.4-0.7
	l4.7-2.7c0.2-0.1,0.6-0.1,0.8,0c0.3,0.1,0.4,0.4,0.4,0.7V20z"/>
<path class="st20" d="M70,17.2c0-0.2,0.1-0.4,0.3-0.5L75,14c0.3-0.2,0.6-0.1,0.8,0.2c0,0.1,0.1,0.2,0.1,0.3V20
	c0,0.3-0.3,0.6-0.6,0.6c-0.1,0-0.2,0-0.3-0.1l-4.7-2.7C70.1,17.6,70,17.4,70,17.2 M69.5,17.2c0,0.4,0.2,0.7,0.5,0.9l4.7,2.7
	c0.3,0.2,0.7,0.2,1,0c0.3-0.2,0.5-0.5,0.5-0.9v-5.5c0-0.4-0.2-0.7-0.5-0.9c-0.3-0.2-0.7-0.2-1,0L70,16.3
	C69.7,16.5,69.5,16.9,69.5,17.2L69.5,17.2z"/>
<path class="st21" d="M254.5,133.8c0,0.3-0.1,0.5-0.4,0.7l-4.5,3.1c-0.2,0.2-0.5,0.2-0.8,0.1c-0.3-0.1-0.4-0.4-0.4-0.7l-0.4-5.4
	c0-0.3,0.1-0.6,0.4-0.7c0.2-0.1,0.5-0.2,0.8,0l4.9,2.4C254.3,133.2,254.5,133.5,254.5,133.8z"/>
<path class="st20" d="M248.2,131.4c0-0.4,0.4-0.7,0.8-0.5l4.9,2.4c0.2,0.1,0.3,0.3,0.3,0.5c0,0.2-0.1,0.4-0.2,0.5l-4.5,3.1
	c-0.3,0.2-0.6,0.1-0.8-0.2c-0.1-0.1-0.1-0.2-0.1-0.3L248.2,131.4L248.2,131.4 M247.8,131.4L247.8,131.4L247.8,131.4l0.4,5.5
	c0,0.4,0.2,0.7,0.6,0.9c0.3,0.2,0.7,0.1,1-0.1l4.5-3.1c0.3-0.2,0.5-0.5,0.5-0.9c0-0.4-0.2-0.8-0.6-0.9l-4.9-2.4
	c-0.3-0.2-0.7-0.1-1,0.1C247.9,130.7,247.8,131,247.8,131.4L247.8,131.4z"/>
<path class="st21" d="M51.6,98.6c0,0.2-0.1,0.3-0.2,0.4l-2.4,2.6c-0.1,0.2-0.4,0.2-0.6,0.2c-0.2,0-0.4-0.2-0.4-0.4L46.9,98
	c-0.1-0.3,0.1-0.7,0.4-0.8c0.1,0,0.2,0,0.3,0l3.4,0.8C51.4,98,51.6,98.3,51.6,98.6z"/>
<path class="st20" d="M47.2,97.8c0-0.2,0.2-0.4,0.4-0.4l3.4,0.8c0.2,0,0.3,0.2,0.3,0.4c0,0.1,0,0.1-0.1,0.2l-2.4,2.6
	c-0.1,0.1-0.4,0.2-0.5,0c0,0-0.1-0.1-0.1-0.2l-1.1-3.4C47.2,97.9,47.2,97.8,47.2,97.8 M46.7,97.8c0,0.1,0,0.2,0,0.3l1.1,3.4
	c0.1,0.3,0.3,0.5,0.6,0.6c0.3,0.1,0.6,0,0.8-0.3l2.4-2.6c0.3-0.3,0.3-0.9,0-1.2c-0.1-0.1-0.2-0.2-0.4-0.2L47.7,97
	c-0.2-0.1-0.5,0-0.7,0.2C46.8,97.3,46.7,97.5,46.7,97.8z"/>
<path class="st21" d="M90.1,76c0,0.3-0.2,0.5-0.4,0.6l-3.4,1.1c-0.3,0.1-0.7-0.1-0.8-0.4c0-0.1,0-0.1,0-0.2l0-0.1l0.8-3.4
	c0-0.2,0.2-0.4,0.4-0.4c0.2-0.1,0.4,0,0.6,0.1l2.6,2.4C90,75.6,90.1,75.8,90.1,76z"/>
<path class="st20" d="M85.7,77C85.7,77,85.7,77,85.7,77l0.8-3.5c0-0.2,0.2-0.3,0.4-0.3c0.1,0,0.1,0,0.2,0.1l2.6,2.4
	c0.1,0.1,0.2,0.4,0,0.5c0,0-0.1,0.1-0.2,0.1l-3.4,1.1c-0.2,0.1-0.4,0-0.5-0.2C85.7,77.1,85.7,77.1,85.7,77 M85.3,77
	c0,0.5,0.4,0.8,0.8,0.8c0.1,0,0.2,0,0.3,0l3.4-1.1c0.3,0.3,0.9,0.3,1.2-0.1s0.3-0.9-0.1-1.2c-0.2-0.2-0.5-0.3-0.8-0.2L87.4,73
	c-0.2-0.2-0.5-0.3-0.8-0.2c-0.3,0.1-0.5,0.3-0.6,0.6l-0.8,3.4C85.3,76.9,85.3,77,85.3,77z"/>
<path class="st21" d="M27.3,59.4l-0.8,3.4c0,0.2-0.2,0.4-0.4,0.4c-0.2,0.1-0.4,0-0.6-0.1L23,60.8c-0.1-0.1-0.2-0.3-0.2-0.4
	c0-0.3,0.2-0.5,0.4-0.6l3.4-1.1c0.3-0.1,0.7,0.1,0.8,0.4c0,0.1,0,0.1,0,0.2C27.4,59.3,27.3,59.4,27.3,59.4z"/>
<path class="st20" d="M23,60.3c0-0.2,0.1-0.3,0.3-0.3l3.4-1.1c0.2-0.1,0.4,0,0.5,0.2c0,0.1,0,0.1,0,0.2l-0.8,3.4
	c0,0.2-0.2,0.3-0.4,0.3c-0.1,0-0.1,0-0.2-0.1l-2.6-2.4C23.1,60.5,23,60.4,23,60.3 M22.6,60.3c0,0.2,0.1,0.5,0.3,0.6l2.6,2.4
	c0.2,0.2,0.5,0.3,0.8,0.2c0.3-0.1,0.5-0.3,0.6-0.6l0.8-3.4c0.1-0.5-0.2-0.9-0.6-1c-0.1,0-0.3,0-0.4,0l-3.4,1.1
	C22.8,59.6,22.6,60,22.6,60.3z"/>
<path class="st21" d="M82.4,20c0,0.3-0.2,0.6-0.4,0.7c-0.2,0.1-0.6,0.1-0.8,0l-4.7-2.7c-0.3-0.1-0.4-0.4-0.4-0.7s0.2-0.6,0.4-0.7
	l4.7-2.7c0.2-0.1,0.6-0.1,0.8,0c0.3,0.1,0.4,0.4,0.4,0.7L82.4,20L82.4,20z"/>
<path class="st20" d="M76.3,17.2c0-0.2,0.1-0.4,0.3-0.5l4.7-2.7c0.3-0.2,0.6-0.1,0.8,0.2c0,0.1,0.1,0.2,0.1,0.3V20
	c0,0.3-0.3,0.6-0.6,0.6c-0.1,0-0.2,0-0.3-0.1l-4.7-2.7C76.4,17.6,76.3,17.4,76.3,17.2 M75.9,17.2c0,0.4,0.2,0.7,0.5,0.9l4.7,2.7
	c0.3,0.2,0.7,0.2,1,0c0.3-0.2,0.5-0.5,0.5-0.9v-5.5c0-0.4-0.2-0.7-0.5-0.9c-0.3-0.2-0.7-0.2-1,0l-4.7,2.7
	C76,16.5,75.8,16.9,75.9,17.2L75.9,17.2z"/>
<path class="st21" d="M323,16.6c0,0.3-0.2,0.6-0.4,0.7l-4.7,2.7c-0.2,0.1-0.6,0.1-0.8,0c-0.2-0.1-0.4-0.4-0.4-0.7v-5.5
	c0-0.3,0.1-0.6,0.4-0.7s0.6-0.1,0.8,0l4.7,2.7C322.9,16.1,323,16.4,323,16.6L323,16.6z"/>
<path class="st20" d="M316.9,13.9c0-0.4,0.5-0.7,0.8-0.5l4.7,2.7c0.2,0.1,0.3,0.3,0.3,0.5s-0.1,0.4-0.3,0.5l-4.7,2.7
	c-0.3,0.2-0.6,0.1-0.8-0.2c0-0.1-0.1-0.2-0.1-0.3L316.9,13.9 M316.5,13.9v5.5c0,0.4,0.2,0.7,0.5,0.9c0.3,0.2,0.7,0.2,1,0l4.7-2.7
	c0.3-0.2,0.5-0.5,0.5-0.9s-0.2-0.7-0.5-0.9L318,13c-0.3-0.2-0.7-0.2-1,0C316.7,13.2,316.5,13.5,316.5,13.9z"/>
<path class="st21" d="M316.7,16.6c0,0.3-0.2,0.6-0.4,0.7l-4.7,2.7c-0.3,0.1-0.6,0.1-0.8,0s-0.4-0.4-0.4-0.7v-5.5
	c0-0.3,0.1-0.6,0.4-0.7c0.2-0.1,0.6-0.1,0.8,0l4.7,2.7C316.5,16.1,316.7,16.4,316.7,16.6L316.7,16.6z"/>
<path class="st20" d="M310.6,13.9c0-0.4,0.5-0.7,0.8-0.5l4.7,2.7c0.2,0.1,0.3,0.3,0.3,0.5s-0.1,0.4-0.3,0.5l-4.7,2.7
	c-0.3,0.2-0.6,0.1-0.8-0.2c0-0.1-0.1-0.2-0.1-0.3V13.9 M310.1,13.9v5.5c0,0.4,0.2,0.7,0.5,0.9c0.3,0.2,0.7,0.2,1,0l4.7-2.7
	c0.3-0.2,0.5-0.5,0.5-0.9s-0.2-0.7-0.5-0.9l-4.7-2.7c-0.3-0.2-0.7-0.2-1,0C310.3,13.2,310.1,13.5,310.1,13.9z"/>
<path class="st21" d="M240.3,137.8c0,0.5-0.4,1-0.9,1l-0.8,0c-0.3,0-0.5-0.1-0.7-0.3c-0.2-0.2-0.3-0.4-0.3-0.7l-0.2-5.9
	c0-0.6,0.4-1,0.9-1l0.8,0c0.5,0,1,0.4,1,0.9c0,0,0,0,0,0L240.3,137.8L240.3,137.8z"/>
<path class="st20" d="M237.6,132c0-0.4,0.3-0.7,0.7-0.7l0.8,0c0.4,0,0.8,0.3,0.8,0.7l0.2,5.9v0c0,0.4-0.3,0.7-0.7,0.7l-0.8,0
	c-0.4,0-0.8-0.3-0.8-0.7L237.6,132L237.6,132 M237.1,132L237.1,132L237.1,132l0.2,5.9c0,0.3,0.1,0.6,0.4,0.9
	c0.2,0.2,0.6,0.3,0.9,0.3l0.8,0c0.7,0,1.2-0.6,1.2-1.2l-0.2-5.9c0-0.7-0.6-1.2-1.3-1.2l-0.8,0C237.6,130.8,237.1,131.3,237.1,132z"
	/>
<g>
	<path class="st21" d="M244.2,137.7c0,0.5-0.4,1-0.9,1l-0.8,0c-0.5,0-1-0.4-1-0.9l-0.2-5.9c0-0.6,0.4-1,0.9-1l0.8,0
		c0.5,0,1,0.4,1,0.9L244.2,137.7L244.2,137.7z"/>
	<path class="st20" d="M241.5,131.8c0-0.4,0.3-0.7,0.7-0.7l0.8,0c0.4,0,0.8,0.3,0.8,0.7l0.2,5.9v0c0,0.4-0.3,0.7-0.7,0.7l-0.8,0
		c-0.4,0-0.8-0.3-0.8-0.7L241.5,131.8L241.5,131.8 M241,131.8L241,131.8L241,131.8l0.2,5.9c0,0.3,0.1,0.6,0.4,0.9
		c0.2,0.2,0.6,0.3,0.9,0.3l0.8,0c0.7,0,1.2-0.6,1.2-1.2l-0.2-5.9c0-0.3-0.1-0.6-0.4-0.9c-0.2-0.2-0.6-0.3-0.9-0.3l-0.8,0
		C241.5,130.6,241,131.2,241,131.8z"/>
</g>
<g>
	<path class="st21" d="M326.7,115.6c0,0.3-0.2,0.5-0.5,0.6l-5,1.1c-0.3,0.1-0.6-0.1-0.7-0.5l-0.2-1l0-0.1c0-0.3,0.2-0.5,0.5-0.6
		l5-1.1c0.3-0.1,0.6,0.1,0.7,0.5c0,0,0,0,0,0l0.2,1C326.7,115.5,326.7,115.6,326.7,115.6z"/>
	<path class="st20" d="M320.5,115.7c0-0.2,0.1-0.3,0.3-0.4l5-1.1c0.2,0,0.4,0.1,0.4,0.3l0.2,1c0,0.2-0.1,0.4-0.3,0.4c0,0,0,0,0,0
		l-5,1.1c-0.2,0-0.4-0.1-0.4-0.3L320.5,115.7C320.5,115.8,320.5,115.7,320.5,115.7 M320,115.7c0,0.1,0,0.1,0,0.2l0.2,1
		c0.1,0.5,0.5,0.7,1,0.6c0,0,0,0,0,0l5-1.1c0.5-0.1,0.7-0.5,0.6-1l-0.2-1c-0.1-0.5-0.5-0.7-1-0.6c0,0,0,0,0,0l-5,1.1
		C320.3,115,320,115.3,320,115.7L320,115.7z"/>
</g>
<g>
	<path class="st21" d="M324.3,112.5l0,0.1l-0.7,1.6c-0.1,0.2-0.2,0.3-0.4,0.3c-0.2,0-0.4,0-0.5-0.1l-1.3-1.2c-0.2-0.2-0.2-0.4,0-0.6
		c0.1-0.1,0.1-0.1,0.2-0.1l0.2,0l-0.5-2.4v0c0-0.2,0.1-0.4,0.3-0.4l1.2-0.3l0.2,0.1c0.1,0.1,0.1,0.1,0.2,0.2l0.5,2.4l0.2,0
		c0.2,0,0.5,0.1,0.5,0.3C324.3,112.4,324.3,112.4,324.3,112.5L324.3,112.5L324.3,112.5z"/>
	<path class="st20" d="M321.5,112.9c0-0.1,0.1-0.2,0.1-0.2l0.3-0.1c0.1,0,0.1-0.1,0.1-0.1l-0.5-2.5c0-0.1,0-0.1,0.1-0.1c0,0,0,0,0,0
		l1.1-0.2c0.1,0,0.1,0,0.1,0.1l0.5,2.5c0,0.1,0.1,0.1,0.1,0.1l0.3-0.1c0.1,0,0.2,0,0.2,0.1c0,0,0,0.1,0,0.1l-0.7,1.6
		c-0.1,0.2-0.3,0.2-0.4,0.2c0,0-0.1,0-0.1-0.1l-1.3-1.2C321.5,113,321.5,113,321.5,112.9 M321,112.9c0,0.2,0.1,0.4,0.2,0.5l1.3,1.2
		c0.3,0.3,0.8,0.3,1.1-0.1c0.1-0.1,0.1-0.1,0.1-0.2l0.7-1.6c0.1-0.3,0-0.7-0.3-0.9c-0.1-0.1-0.2-0.1-0.4,0l-0.4-2.2
		c-0.1-0.3-0.4-0.5-0.7-0.5c0,0,0,0,0,0l-1.1,0.2c-0.3,0.1-0.5,0.3-0.5,0.6v0.1l0,0.1l0.4,2.2C321.2,112.4,321,112.6,321,112.9
		L321,112.9z"/>
</g>
<g>
	<path class="st21" d="M301.1,42.5c0,0.3-0.1,0.6-0.4,0.7c-0.3,0.2-0.7,0.3-1.8,0.5c-0.9,0.2-1.2,0.2-1.5,0
		c-0.3-0.2-0.4-0.4-0.5-0.9l0,0c0-0.2,0.1-0.4,0.3-0.4l1-0.2l0.1,0.2c0,0.2,0.1,0.2,0.1,0.2c0,0,0.4-0.1,0.7-0.2
		c0.2,0,0.6-0.1,0.7-0.2c0,0,0,0,0,0c0,0-0.1,0-0.5,0.1l-0.4,0.1c-0.2,0-0.4-0.1-0.4-0.3c0,0,0,0,0,0l-0.1-0.4v0
		c0-0.2,0.1-0.4,0.3-0.4l0.6-0.1c0.3-0.1,0.3-0.1,0.4-0.1c-0.1,0-0.4,0.1-0.6,0.1c-0.3,0.1-0.6,0.1-0.7,0.2c0,0,0,0,0,0.1l0.1,0.2
		l-0.2,0.1l-0.8,0.2c-0.2,0-0.4-0.1-0.4-0.3c0-0.2-0.1-0.4-0.1-0.5c0-0.7,0.7-0.9,2-1.2c0.9-0.2,1.3-0.2,1.6-0.1
		c0.4,0.2,0.5,0.5,0.6,0.8c0,0.1,0,0.2,0,0.3c0,0.1,0,0.2-0.1,0.3c0.3,0.1,0.3,0.4,0.4,0.7C301.1,42.3,301.1,42.4,301.1,42.5
		L301.1,42.5z"/>
	<path class="st20" d="M296.8,41.3c0-0.5,0.4-0.7,1.8-1c0.9-0.2,1.2-0.2,1.4-0.1c0.2,0.1,0.3,0.3,0.4,0.6c0,0.1,0,0.2,0,0.3
		c0,0.1,0,0.2-0.1,0.3c0,0,0,0.1,0,0.1c0,0.1,0,0.1,0.1,0.1c0.2,0.1,0.3,0.2,0.4,0.6c0,0.1,0,0.2,0,0.3c0,0.2-0.1,0.4-0.3,0.5
		c-0.2,0.1-0.7,0.3-1.7,0.5c-0.8,0.2-1.1,0.2-1.3,0c-0.2-0.1-0.3-0.3-0.4-0.7c0-0.1,0-0.1,0.1-0.2c0,0,0,0,0,0l0.8-0.2l0,0.1
		c0.1,0.2,0.1,0.3,0.2,0.3c0.5-0.1,1-0.2,1.5-0.3c0.1-0.1,0.2-0.1,0.2-0.2c0,0,0-0.1,0-0.1c0-0.1-0.1-0.2-0.2-0.2
		c-0.1,0-0.1,0-0.7,0.1l-0.4,0.1c-0.1,0-0.1,0-0.2-0.1l-0.1-0.4c0-0.1,0-0.1,0.1-0.2c0,0,0,0,0,0l0.6-0.1c0.4-0.1,0.5-0.1,0.5-0.3
		c0,0,0-0.1,0-0.1c-0.1-0.2-0.1-0.2-0.9-0.1c-0.7,0.2-0.9,0.2-0.9,0.4c0,0.1,0,0.1,0,0.2l0,0.1l-0.8,0.2c-0.1,0-0.1,0-0.2-0.1l0-0.1
		C296.8,41.5,296.8,41.4,296.8,41.3 M296.3,41.3c0,0.1,0,0.3,0.1,0.5l0,0.1c0.1,0.3,0.3,0.5,0.6,0.5c-0.2,0.1-0.3,0.3-0.3,0.5v0.1
		l0,0.1c0.1,0.5,0.2,0.8,0.6,1c0.4,0.2,0.9,0.2,1.7,0c1.1-0.2,1.5-0.4,1.8-0.5c0.4-0.2,0.6-0.5,0.6-1c0-0.1,0-0.3-0.1-0.4
		c0-0.2-0.1-0.5-0.3-0.7c0-0.1,0-0.2,0-0.3c0-0.1,0-0.2,0-0.4c-0.1-0.4-0.2-0.8-0.7-1c-0.4-0.1-0.8-0.1-1.7,0.1
		C297.3,40.1,296.3,40.3,296.3,41.3L296.3,41.3z"/>
</g>
<g>
	<path class="st21" d="M303.2,39.9c0,0.2-0.1,0.3-0.3,0.4l-0.7,0.1c-0.2,0-0.4-0.1-0.4-0.3l-0.4-1.8l-0.5,0.7
		c-0.1,0.2-0.4,0.2-0.5,0.1l-0.4-0.3c-0.1-0.1-0.1-0.2-0.1-0.3v-0.1l0.1-0.1l0.8-1.1l0.2-0.1l1.3-0.3c0.1,0,0.2,0,0.3,0.1
		c0.1,0.1,0.1,0.1,0.2,0.2L303.2,39.9L303.2,39.9L303.2,39.9z"/>
	<path class="st20" d="M300,38.5C300,38.4,300,38.4,300,38.5l0.8-1.1c0,0,0,0,0.1-0.1l1.3-0.3c0.1,0,0.1,0,0.2,0.1l0.6,2.8
		c0,0.1,0,0.1-0.1,0.2c0,0,0,0,0,0l-0.7,0.1c-0.1,0-0.1,0-0.2-0.1l-0.4-2c0-0.1-0.1-0.1-0.2-0.1c0,0,0,0,0,0l-0.1,0
		c0,0-0.1,0-0.1,0.1l-0.6,0.8c0,0.1-0.1,0.1-0.2,0l-0.4-0.3C300,38.6,300,38.5,300,38.5 M299.5,38.5c0,0.2,0.1,0.4,0.2,0.5l0.4,0.3
		c0.3,0.2,0.7,0.2,0.9-0.1l0.2-0.3l0.3,1.3c0,0.2,0.1,0.3,0.3,0.4c0.1,0.1,0.3,0.1,0.5,0.1l0.7-0.1c0.3-0.1,0.5-0.3,0.5-0.6v-0.1
		l0-0.1l-0.6-2.8c0-0.2-0.1-0.3-0.3-0.4c-0.1-0.1-0.3-0.1-0.5-0.1l-1.3,0.3c-0.1,0-0.3,0.1-0.4,0.2l-0.8,1.1
		C299.6,38.2,299.5,38.3,299.5,38.5L299.5,38.5z"/>
</g>
<g>
	<path class="st21" d="M308.8,41c0,0.2-0.1,0.3-0.3,0.4l-3.4,0.7c-0.2,0-0.4-0.1-0.4-0.3c0-0.1,0-0.1-0.1-0.2
		c-0.1-0.5-0.1-0.7-0.1-0.9l0-0.1c0-0.2,0.1-0.3,0.2-0.4c-0.1,0-0.2,0-0.3-0.1c-0.1-0.1-0.1-0.1-0.2-0.2c-0.1-0.2-0.1-0.4-0.1-0.5
		c0-0.7,0.6-0.9,1.8-1.2c1.3-0.3,1.5-0.3,1.8-0.2c0.4,0.1,0.5,0.4,0.6,0.9c0,0.2,0.1,0.3,0.1,0.5c0,0.1,0,0.2-0.1,0.3
		c-0.1,0.2-0.3,0.4-0.6,0.5l0.5-0.1c0.2,0,0.4,0.1,0.4,0.3c0,0,0,0,0,0L308.8,41L308.8,41L308.8,41z M306.6,39.4
		c0.1,0,0.3-0.1,0.4-0.1l-0.1-0.1c0,0-0.2,0.1-0.6,0.1c-0.2,0-0.7,0.2-0.8,0.2c0,0,0.1,0,0.1,0.1l0,0.1L306.6,39.4L306.6,39.4z"/>
	<path class="st20" d="M304.4,39.4c0-0.5,0.4-0.7,1.6-0.9c1.3-0.3,1.4-0.3,1.7-0.2c0.2,0.1,0.3,0.3,0.4,0.8c0,0.1,0.1,0.3,0.1,0.5
		c0,0.1,0,0.2,0,0.3c-0.1,0.2-0.4,0.4-0.9,0.5c-1.3,0.4-1.4,0.4-1.5,0.5c-0.1,0.1-0.1,0.1-0.1,0.2c0,0,0,0.1,0,0.1l0,0l2.7-0.6
		c0.1,0,0.1,0,0.2,0.1l0.1,0.4c0,0.1,0,0.1-0.1,0.2c0,0,0,0,0,0l-3.4,0.7c-0.1,0-0.1,0-0.2-0.1c0-0.1,0-0.1-0.1-0.2
		c-0.1-0.4-0.1-0.7-0.1-0.8c0,0,0-0.1,0-0.1c0-0.3,0.2-0.5,0.7-0.6c0,0,0.5-0.1,1.3-0.4c0.4-0.1,0.5-0.2,0.5-0.3c0,0,0-0.1,0-0.1
		c0-0.2-0.1-0.2-0.2-0.2c-0.1,0-0.2,0-0.7,0.1c-0.6,0.1-0.8,0.2-0.9,0.3c0,0-0.1,0.1-0.1,0.1c0,0.1,0,0.1,0,0.2l0,0.1l-0.8,0.2
		c-0.1,0-0.1,0-0.2-0.1C304.4,39.7,304.4,39.6,304.4,39.4 M303.9,39.4c0,0.2,0,0.3,0.1,0.6c0,0.2,0.2,0.3,0.3,0.4
		c0,0.1-0.1,0.2-0.1,0.4c0,0.2,0,0.4,0.1,0.9c0,0.1,0,0.2,0.1,0.2c0.1,0.3,0.4,0.5,0.7,0.4l3.4-0.7c0.3-0.1,0.5-0.3,0.5-0.6V41
		l0-0.1l-0.1-0.4c0-0.2-0.2-0.4-0.4-0.5c0.1-0.2,0.1-0.3,0.1-0.5c0-0.2,0-0.3-0.1-0.6c-0.1-0.5-0.2-0.9-0.7-1.1
		c-0.4-0.1-0.6-0.1-1.9,0.2C304.8,38.2,303.9,38.4,303.9,39.4L303.9,39.4z"/>
</g>
<g>
	<path class="st21" d="M342.4,29.3c0,0.6-0.4,1.2-1,1.4l-5.7,2c-0.4,0.1-0.8,0.1-1.2-0.1c-0.4-0.2-0.7-0.5-0.8-0.9l-1-3.2
		c-0.3-0.8,0.2-1.7,1-1.9l0.6-0.2l-0.1-0.3l0-0.1c0-0.2,0.2-0.4,0.4-0.4c0,0,0.1,0,0.1,0l2.8,0.6c0.2,0,0.3,0.2,0.3,0.4
		c0,0.1,0,0.2-0.1,0.3l-1.9,2.1c-0.1,0.2-0.4,0.2-0.6,0c-0.1,0-0.1-0.1-0.1-0.2l0,0l0,0l0.5,1.4l4.1-1.4l-0.5-1.3
		c0,0.1-0.2,0.1-0.3,0c-0.1-0.1-0.2-0.1-0.2-0.2l-0.6-1.7l0-0.1c0-0.2,0.1-0.3,0.3-0.4l1-0.3c0.4-0.1,0.8-0.1,1.2,0.1
		c0.4,0.2,0.6,0.5,0.8,0.9l0.9,3.1C342.4,29,342.4,29.1,342.4,29.3L342.4,29.3z"/>
	<path class="st20" d="M332.9,28.1c0-0.6,0.4-1.1,0.9-1.2l0.8-0.3l-0.2-0.5c0-0.1,0-0.2,0.1-0.2c0,0,0.1,0,0.1,0l2.8,0.6
		c0.1,0,0.1,0.1,0.1,0.2c0,0,0,0.1,0,0.1l-1.9,2.1c-0.1,0.1-0.2,0.1-0.2,0c0,0,0,0,0-0.1l-0.1-0.3l-0.2,0.1c-0.1,0-0.2,0.1-0.1,0.2
		l0.5,1.4c0,0.1,0.1,0.2,0.2,0.1c0,0,0,0,0,0l4.1-1.4c0.1,0,0.2-0.1,0.1-0.2l-0.4-1.4c0-0.1-0.1-0.2-0.2-0.1c0,0,0,0,0,0
		c-0.1,0-0.2,0-0.2-0.1c0,0,0,0,0,0l-0.6-1.6c0-0.1,0-0.2,0.1-0.2c0,0,0,0,0,0l1-0.3c0.7-0.2,1.4,0.1,1.6,0.8c0,0,0,0,0,0l0.9,3.1
		c0.2,0.7-0.2,1.4-0.8,1.6l-5.7,2c-0.7,0.2-1.4-0.1-1.6-0.8c0,0,0,0,0,0l-1-3.2C332.9,28.4,332.9,28.3,332.9,28.1 M332.4,28.1
		c0,0.2,0,0.4,0.1,0.5l1,3.2c0.1,0.5,0.5,0.8,0.9,1.1s0.9,0.2,1.4,0.1l5.7-2c0.9-0.3,1.4-1.3,1.1-2.2l-0.9-3.1
		c-0.1-0.5-0.5-0.8-0.9-1.1c-0.4-0.2-0.9-0.3-1.4-0.1l-1,0.3c-0.4,0.1-0.5,0.5-0.4,0.9l0.6,1.6c0.1,0.2,0.3,0.4,0.6,0.5l0.3,0.9
		l-3.6,1.2l-0.1-0.5c0.1,0,0.3-0.1,0.4-0.2l1.9-2.1c0.2-0.3,0.2-0.7,0-0.9c-0.1-0.1-0.2-0.1-0.3-0.2l-2.8-0.6c-0.2,0-0.4,0-0.5,0.1
		c-0.2,0.1-0.2,0.3-0.2,0.5v0.1l0,0.1l0,0l-0.4,0.1C332.9,26.7,332.4,27.4,332.4,28.1L332.4,28.1z"/>
</g>
<g>
	<path class="st21" d="M365.2,104.7c0,0.2-0.2,0.4-0.4,0.5l-5.7,1.7c-0.3,0.1-0.6-0.1-0.6-0.4l-1.8-6.1l0-0.1c0-0.2,0.2-0.4,0.4-0.5
		l5.7-1.7c0.3-0.1,0.6,0.1,0.6,0.4l1.8,6.1L365.2,104.7L365.2,104.7z"/>
	<path class="st20" d="M357,100.2c0-0.1,0.1-0.2,0.2-0.3l5.7-1.7c0.1,0,0.3,0,0.3,0.2l1.8,6.1c0,0.1,0,0.3-0.2,0.3c0,0,0,0,0,0
		l-5.7,1.7c-0.1,0-0.3,0-0.3-0.2L357,100.2C357,100.3,357,100.3,357,100.2 M356.5,100.2c0,0.1,0,0.1,0,0.2l1.8,6.1
		c0.1,0.4,0.5,0.6,0.9,0.5l5.7-1.7c0.4-0.1,0.6-0.5,0.5-0.9l-1.8-6.1c-0.1-0.4-0.5-0.6-0.9-0.5l-5.7,1.7
		C356.7,99.6,356.5,99.9,356.5,100.2z"/>
</g>
<g>
	<circle class="st22" cx="37.5" cy="62.9" r="4.5"/>
</g>
<g>
	<circle class="st22" cx="61.2" cy="48.7" r="4.5"/>
</g>
<g>
	<circle class="st22" cx="76.3" cy="72.9" r="4.5"/>
</g>
<g>
	<circle class="st22" cx="52" cy="88" r="4.5"/>
</g>
<path class="st0" d="M90.9,145.4c-0.2-3.4,0.2-12.4,0.6-20.7c0.2-4.4,0.4-8.6,0.5-11.8c0.3-8.8,7.1-44.6,8.8-47.9l1.6,0.4
	c-1.4,2.8-8.3,38.1-8.6,47.6c-0.1,3.2-0.3,7.4-0.5,11.8c-0.4,8.2-0.8,17.6-0.6,20.9C92.7,145.7,90.9,145.4,90.9,145.4z"/>
<path class="st23" d="M92.1,145.4c-0.2-3.4,0.2-12.4,0.6-20.7c0.2-4.4,0.4-8.6,0.5-11.8c0.3-8.8,7.1-44.6,8.8-47.9l1.6,0.4
	c-1.4,2.8-8.3,38.1-8.6,47.6c-0.1,3.2-0.3,7.4-0.5,11.8c-0.4,8.2-0.8,17.6-0.6,20.9C93.9,145.7,92.1,145.4,92.1,145.4z"/>
<path class="st2" d="M91.5,145.4c-0.2-3.4,0.2-12.4,0.6-20.7c0.2-4.4,0.4-8.6,0.5-11.8c0.3-8.8,7.1-44.6,8.8-47.9l1.6,0.4
	c-1.4,2.8-8.3,38.1-8.6,47.6c-0.1,3.2-0.3,7.4-0.5,11.8c-0.4,8.2-0.8,17.6-0.6,20.9C93.3,145.7,91.5,145.4,91.5,145.4z"/>
<path class="st24" d="M92.4,160.3c0-0.1-0.7-9.9-0.9-14.9l1.8,0.3c0.3,5,0.9,14.8,0.9,14.9L92.4,160.3z"/>
<path class="st25" d="M107.5,63c0,0-3.3-0.1-4.5,2.4l-1.6-0.4C103.1,61.7,107.5,63,107.5,63z"/>
<path class="st0" d="M297.1,145.4c0.2-3.4-0.2-12.4-0.6-20.7c-0.2-4.4-0.4-8.6-0.5-11.8c-0.3-8.8-7.1-44.6-8.8-47.9l-1.6,0.4
	c1.4,2.8,8.3,38.1,8.6,47.6c0.1,3.2,0.3,7.4,0.5,11.8c0.4,8.2,0.8,17.6,0.6,20.9C295.3,145.7,297.1,145.4,297.1,145.4z"/>
<path class="st23" d="M295.9,145.4c0.2-3.4-0.2-12.4-0.6-20.7c-0.2-4.4-0.4-8.6-0.5-11.8c-0.3-8.8-7.1-44.6-8.8-47.9l-1.6,0.4
	c1.4,2.8,8.3,38.1,8.6,47.6c0.1,3.2,0.3,7.4,0.5,11.8c0.4,8.2,0.8,17.6,0.6,20.9C294.1,145.7,295.9,145.4,295.9,145.4z"/>
<path class="st2" d="M296.5,145.4c0.2-3.4-0.2-12.4-0.6-20.7c-0.2-4.4-0.4-8.6-0.5-11.8c-0.3-8.8-7.1-44.6-8.8-47.9l-1.6,0.4
	c1.4,2.8,8.3,38.1,8.6,47.6c0.1,3.2,0.3,7.4,0.5,11.8c0.4,8.2,0.8,17.6,0.6,20.9C294.7,145.7,296.5,145.4,296.5,145.4z"/>
<path class="st24" d="M295.6,160.3c0-0.1,0.7-9.9,0.9-14.9l-1.8,0.3c-0.3,5-0.9,14.8-0.9,14.9L295.6,160.3z"/>
<path class="st25" d="M280.4,63c0,0,3.3-0.1,4.5,2.4l1.6-0.4C284.9,61.7,280.4,63,280.4,63z"/>
<path class="st26" d="M93.3,120.5c15.8,2.9,53.9,8.9,100.7,8.9s84.9-6,100.7-8.9l-0.2-1.2c-15.9,2.9-53.9,8.9-100.5,8.9
	c-46.6,0-84.6-6-100.5-8.9L93.3,120.5L93.3,120.5z"/>
<path class="st27" d="M293.7,110.2c-15.7,2.6-58,8.8-99.7,8.8s-84-6.2-99.7-8.8v1.2c15.7,2.6,58,8.8,99.7,8.8
	c41.7,0,84-6.2,99.7-8.8V110.2z"/>
<path class="st28" d="M293.7,111.4c-15.7,2.6-58,8.8-99.7,8.8s-84-6.2-99.7-8.8c-0.3,2.7-0.6,5.3-0.8,8c15.9,2.9,53.9,8.9,100.5,8.9
	s84.6-6,100.5-8.9C294.3,116.7,294,114,293.7,111.4z"/>
<g>
	<path class="st24" d="M263.2,115.9c1.7,0,3.2,1.1,3.4,2.7c0.1,0.5,0.1,0.9,0,1.4c-0.2,1.4-1.5,2.5-3,2.7c-13.3,1.6-26.6,2.7-40,3.4
		c-1.3,0.1-2.5-0.5-3.2-1.6c-0.6-0.9-0.7-2-0.3-2.9l0-0.1c0.5-1.1,1.7-1.9,3-2c12.6-0.7,25.9-1.9,39.6-3.4
		C262.9,115.9,263,115.9,263.2,115.9 M263.2,114.7c-0.2,0-0.4,0-0.6,0c-11.6,1.3-25.2,2.6-39.5,3.4c-2,0.1-3.8,1.3-4.6,3.1l0,0.1
		c-1.4,3.4,1.3,7,5,7c0.1,0,0.2,0,0.3,0c13.4-0.7,26.8-1.8,40.1-3.4c2.3-0.3,4.2-1.9,4.6-4.2c0.1-0.6,0.1-1.3,0-2
		C268,116.4,265.7,114.7,263.2,114.7z"/>
</g>
<path class="st29" d="M92.8,110.2h1.5l-1,10.3h-1C92.3,120.5,92,116.4,92.8,110.2z M295.1,110.2h-1.5l1,10.3h1
	C295.7,120.5,295.9,116.4,295.1,110.2L295.1,110.2z"/>
<g>
	<path class="st4" d="M62,37.4l2.4-2.6c0,0,0.1-0.1,0.1-0.1l-0.1-0.4c-0.1-0.2-0.3-0.3-0.5-0.2c-0.1,0-0.1,0.1-0.2,0.1l-2.4,2.6
		c-0.1,0.1-0.1,0.4,0,0.5c0,0,0.1,0.1,0.2,0.1L62,37.4C62,37.5,62,37.4,62,37.4z M70.7,17.2l4.7-2.7c0.1,0,0.2-0.1,0.2-0.1v0
		c0-0.4-0.5-0.7-0.8-0.5l-4.7,2.7c-0.3,0.2-0.4,0.5-0.2,0.8c0,0.1,0.1,0.2,0.2,0.2l0.3,0.2C70.4,17.6,70.5,17.3,70.7,17.2L70.7,17.2
		z M248.7,131.9c0-0.3,0.2-0.6,0.5-0.6c0.1,0,0.2,0,0.3,0.1l4.6,2.2c0-0.2-0.1-0.4-0.3-0.5l-4.9-2.4c-0.3-0.1-0.6,0-0.8,0.3
		c0,0.1-0.1,0.2-0.1,0.3l0.4,5.4c0,0.3,0.3,0.5,0.6,0.5L248.7,131.9L248.7,131.9z M47.6,98.4c-0.1-0.2,0-0.4,0.2-0.5
		c0.1,0,0.1,0,0.2,0l3.1,0.7c0.1-0.2,0-0.4-0.1-0.5c0,0-0.1,0-0.1,0l-3.4-0.8c-0.2,0-0.4,0.1-0.4,0.3c0,0.1,0,0.1,0,0.2l1.1,3.4
		c0.1,0.2,0.3,0.3,0.5,0.2c0,0,0,0,0,0L47.6,98.4z M86.9,74c0-0.2,0.2-0.3,0.4-0.3c0.1,0,0.1,0,0.2,0.1l2.1,1.9c0,0,0-0.1-0.1-0.1
		l-2.6-2.4c-0.1-0.1-0.4-0.1-0.5,0c0,0-0.1,0.1-0.1,0.2l-0.8,3.4c0,0.2,0.1,0.4,0.3,0.4c0.1,0,0.1,0,0.2,0l0.2-0.1
		C86.2,77.2,86.9,74,86.9,74z M23.7,60.5l3.2-1l0.1-0.2c0-0.2-0.1-0.4-0.3-0.4c-0.1,0-0.1,0-0.2,0l-3.4,1.1
		c-0.2,0.1-0.3,0.3-0.2,0.5c0,0.1,0.1,0.1,0.1,0.2l0.5,0.5C23.4,60.8,23.5,60.6,23.7,60.5C23.7,60.5,23.7,60.5,23.7,60.5z M77,17.2
		l4.7-2.7c0.1,0,0.2-0.1,0.2-0.1v0c0-0.4-0.5-0.7-0.8-0.5l-4.7,2.7c-0.3,0.2-0.4,0.5-0.2,0.8c0,0.1,0.1,0.2,0.2,0.2l0.3,0.2
		C76.7,17.6,76.8,17.3,77,17.2L77,17.2z M317.4,14.4c0-0.4,0.5-0.7,0.8-0.5l4.4,2.5c0-0.2-0.1-0.3-0.3-0.4l-4.7-2.7
		c-0.3-0.2-0.6-0.1-0.8,0.2c0,0.1-0.1,0.2-0.1,0.3v3c0.1,0.2,0.1,0.5,0,0.7v1.8c0,0.3,0.3,0.6,0.6,0.6c0,0,0,0,0,0L317.4,14.4
		L317.4,14.4z M311,14.4c0-0.4,0.5-0.7,0.8-0.5l4.4,2.5c0-0.2-0.1-0.3-0.3-0.4l-4.7-2.7c-0.3-0.2-0.6-0.1-0.8,0.2
		c0,0.1-0.1,0.2-0.1,0.3v5.5c0,0.3,0.3,0.6,0.6,0.6c0,0,0,0,0,0L311,14.4L311,14.4z M238.2,138.3l-0.2-5.9c0-0.4,0.3-0.8,0.7-0.8
		l0.8,0c0.1,0,0.1,0,0.1,0c-0.1-0.4-0.4-0.6-0.7-0.6l-0.8,0c-0.4,0-0.7,0.4-0.7,0.8c0,0,0,0,0,0l0.2,5.9
		C237.6,138.1,237.9,138.4,238.2,138.3C238.2,138.4,238.2,138.3,238.2,138.3z M242.1,138.2l-0.2-5.9c0-0.4,0.3-0.8,0.7-0.8l0.8,0
		c0.1,0,0.1,0,0.1,0c-0.1-0.4-0.4-0.6-0.7-0.6l-0.8,0c-0.4,0-0.7,0.4-0.7,0.8c0,0,0,0,0,0l0.2,5.9
		C241.5,137.9,241.8,138.2,242.1,138.2C242.1,138.2,242.1,138.2,242.1,138.2z M320.9,116.3c0-0.2,0.1-0.4,0.3-0.4l4.9-1.1l-0.1-0.3
		c0-0.2-0.2-0.3-0.4-0.3c0,0,0,0,0,0l-5,1.1c-0.2,0-0.3,0.2-0.3,0.4c0,0,0,0,0,0l0.2,1c0,0.2,0.2,0.3,0.4,0.3c0,0,0,0,0,0l0.1,0
		L320.9,116.3L320.9,116.3z M323.8,112.6l0.1-0.2c0-0.1,0-0.2-0.1-0.2c0,0-0.1,0-0.1,0L323.8,112.6L323.8,112.6z M322.1,113.2
		l0.3-0.1c0.1,0,0.1-0.1,0.1-0.1l-0.5-2.5c0-0.1,0-0.1,0.1-0.1l0.7-0.2l-0.1-0.6c0-0.1-0.1-0.1-0.1-0.1l-1.1,0.2
		c-0.1,0-0.1,0.1-0.1,0.1l0.5,2.5c0,0.1,0,0.1-0.1,0.1c0,0,0,0,0,0l-0.3,0.1c-0.1,0-0.2,0.1-0.1,0.2c0,0,0,0.1,0.1,0.1l0.5,0.5
		C321.9,113.3,322,113.2,322.1,113.2z M300,41.6c-0.1-0.2-0.1-0.2-0.9-0.1c-0.5,0.1-0.8,0.2-0.9,0.3l0.1,0.3c0,0.1,0.1,0.1,0.2,0.1
		l0.4-0.1c0.6-0.1,0.6-0.1,0.7-0.1c0,0,0,0,0,0C299.9,41.9,300,41.8,300,41.6L300,41.6z M297.6,41.2c0-0.1,0.2-0.2,0.8-0.3
		c0.2,0,0.4-0.1,0.6-0.1c0.6-0.1,1-0.2,1.2-0.2c-0.1-0.3-0.2-0.5-0.4-0.6c-0.2-0.1-0.5-0.1-1.4,0.1c-1.7,0.4-1.9,0.5-1.7,1.3l0,0.1
		c0,0.1,0.1,0.1,0.2,0.1c0,0,0,0,0,0l0.4-0.1C297.3,41.5,297.4,41.3,297.6,41.2L297.6,41.2z M297.6,43.3c0-0.1,0-0.1,0.1-0.2
		c0,0,0,0,0,0l0.8-0.2l0,0.1c0.1,0.2,0.1,0.3,0.2,0.3c0.4-0.1,0.8-0.1,1.2-0.2c0.2-0.1,0.3-0.1,0.4-0.1c0.1-0.1,0.1-0.1,0.1-0.2
		c0-0.1-0.1-0.2-0.2-0.2c-0.1,0-0.1,0-0.7,0.1l-0.4,0.1c-0.1,0-0.1,0-0.2-0.1c0,0,0,0,0,0l0,0c-0.3,0.1-0.5,0.1-0.8,0.2
		c-0.1,0-0.2-0.1-0.2-0.3l0-0.1l-0.8,0.2c-0.1,0-0.1,0.1-0.1,0.2c0,0,0,0,0,0c0.1,0.5,0.2,0.6,0.4,0.7c0.1,0,0.2,0.1,0.3,0.1
		C297.6,43.5,297.6,43.4,297.6,43.3L297.6,43.3z M302,38.6c0-0.1-0.1-0.1-0.2-0.1c0,0,0,0,0,0l-0.1,0c0,0-0.1,0-0.1,0.1l-0.1,0.2
		l0.3,1.3c0,0.1,0.1,0.1,0.2,0.1c0,0,0,0,0,0l0.3-0.1L302,38.6z M301.1,37.9C301.2,37.9,301.2,37.9,301.1,37.9l0.1-0.1
		c0,0,0,0,0.1-0.1l1-0.2l-0.1-0.6c0-0.1-0.1-0.1-0.2-0.1l-1.3,0.3c0,0-0.1,0-0.1,0.1l-0.8,1.1c0,0.1,0,0.1,0,0.2c0,0,0,0,0,0
		l0.4,0.3c0.1,0,0.1,0,0.2,0L301.1,37.9L301.1,37.9z"/>
	<g>
		<path class="st4" d="M305.2,39.3C305.2,39.3,305.2,39.2,305.2,39.3c0.1-0.1,0.4-0.2,1-0.3c0.4-0.1,0.6-0.1,0.7-0.1
			c0.6-0.1,0.9-0.2,1.1-0.2c-0.1-0.3-0.2-0.5-0.4-0.6c-0.2-0.1-0.4-0.1-1.7,0.2c-1.5,0.3-1.7,0.5-1.5,1.4c0,0.1,0.1,0.1,0.2,0.1
			c0,0,0,0,0,0l0.4-0.1C304.9,39.6,305,39.4,305.2,39.3L305.2,39.3z M306.2,41.2c-0.1,0.1-0.1,0.1-0.1,0.3l0,0l2.2-0.5
			c0.1,0,0.1-0.1,0.1-0.2l-0.1-0.4c-0.1,0.1-0.3,0.2-0.6,0.3C306.4,41.1,306.2,41.1,306.2,41.2L306.2,41.2z M305.2,41.1
			c0-0.3-0.3-0.7,0.3-0.5c0,0,0-0.1,0.1-0.1c0.1,0,0.2-0.1,1.5-0.5c0.2-0.1,0.4-0.1,0.6-0.2c0-0.1,0-0.1,0-0.2
			c0-0.2-0.1-0.2-0.2-0.2c-0.1,0-0.2,0-0.7,0.1c-0.6,0.1-0.8,0.2-0.9,0.3c-0.1,0-1,0.4-1,0.3c-0.2,0.1-0.3,0.3-0.3,0.4
			c0,0.2,0,0.4,0.1,0.9c0,0.1,0,0.1,0.1,0.2c0,0.1,0.1,0.1,0.2,0.1l0.3-0.1C305.2,41.4,305.2,41.3,305.2,41.1L305.2,41.1z"/>
	</g>
	<g>
		<path class="st4" d="M339.6,28.9l-3.9,1.3l0.2,0.5c0,0.1,0.1,0.2,0.2,0.1c0,0,0,0,0,0l4.1-1.4c0.1,0,0.1-0.1,0.1-0.2l-0.4-1.4
			c0-0.1-0.1-0.2-0.2-0.1c0,0,0,0,0,0c-0.1,0-0.2,0-0.2-0.1c0,0,0,0,0,0l0,0l0.3,1C339.7,28.8,339.7,28.9,339.6,28.9L339.6,28.9z
			 M334.4,32.2l-1-3.2c-0.2-0.7,0.2-1.4,0.8-1.6l0.8-0.3l-0.2-0.5c0-0.1,0-0.2,0.1-0.2c0,0,0.1,0,0.1,0l2.1,0.5l0.2-0.2
			c0.1-0.1,0.1-0.2,0-0.2c0,0,0,0-0.1,0l-2.8-0.6c-0.1,0-0.2,0-0.2,0.1c0,0,0,0.1,0,0.1l0.2,0.5l-0.8,0.3c-0.7,0.2-1,0.9-0.8,1.6
			l1,3.2c0.1,0.3,0.4,0.6,0.7,0.8C334.4,32.3,334.4,32.2,334.4,32.2z M339,27.2c0.1,0,0.2,0,0.2,0.1l-0.4-1.2c0-0.1,0-0.2,0.1-0.2
			c0,0,0,0,0,0l1-0.3c0.3-0.1,0.7-0.1,1,0.1c-0.3-0.6-0.9-0.9-1.6-0.7l-1,0.3c-0.1,0-0.2,0.1-0.1,0.2c0,0,0,0,0,0l0.6,1.6
			C338.8,27.2,338.9,27.2,339,27.2C339,27.2,339,27.2,339,27.2L339,27.2z"/>
	</g>
	<g>
		<path class="st4" d="M357.4,100.8c0-0.1,0-0.3,0.2-0.3l5.5-1.6l-0.1-0.4c0-0.1-0.2-0.2-0.3-0.2l-5.7,1.7c-0.1,0-0.2,0.2-0.2,0.3
			l1.8,6.1c0,0.1,0.2,0.2,0.3,0.2l0.1,0L357.4,100.8L357.4,100.8z"/>
	</g>
</g>
<g>
	<g>
		<path class="st15" d="M196.6,99.6c-1,0-2,0.6-2,1.6l-0.1,0.9h0l-0.1,1.3c2.5-0.1,5-0.2,7.5-0.3c0-0.5,0.1-0.9,0.1-1.4
			c-1.8,0.1-3.6,0.2-5.4,0.3c-0.7-0.2,0.1-0.8,0.5-0.8c1.1,0,2.2-0.1,3.3-0.2c1,0,1.8-0.9,1.8-1.9l0.1-0.9c0.1-1-0.7-1.8-1.6-1.7
			c-1.3,0.1-2.6,0.1-3.8,0.2c-1,0-2,0.7-2,1.6l-0.1,0.9c0.6,0,1.3,0,1.9-0.1l0-0.2c0-0.4,0.4-0.8,0.8-0.8c0.8,0,1.6-0.1,2.4-0.1
			c0.4,0,0.7,0.3,0.7,0.7c0,0.4-0.4,0.7-0.8,0.8C198.7,99.5,197.7,99.5,196.6,99.6C196.6,99.6,196.6,99.6,196.6,99.6z M192.3,100.1
			c0.7-0.1,1.3-0.3,1.3-1.1l0.1-0.9c0.1-1-0.7-1.3-1.7-1.3c-1.1,0-2.3,0.1-3.4,0.1c-1,0-2,0.6-2,1.6l-0.1,0.9l1.9,0l0-0.2
			c0-0.4,0.4-0.8,0.8-0.8c0.7,0,1.3,0,2-0.1c0.4,0,0.7,0.1,0.7,0.5c0,0.4-0.4,0.7-0.8,0.7c-0.5,0-1.1,0-1.6,0l-0.1,1.2
			c0.6,0,1.2,0,1.8-0.1c0.4,0,0.7,0.3,0.7,0.7c0,0.4-0.4,0.5-0.8,0.5c-0.7,0-1.5,0-2.2,0.1c-0.4,0-0.7-0.3-0.7-0.8l0-0.2l-1.9,0
			l-0.1,0.9c-0.1,1,0.9,1.5,1.9,1.5c1.2,0,2.4-0.1,3.6-0.1c1.1-0.1,1.8-0.6,1.8-1.6l0-0.7C193.8,100.3,193.2,100.1,192.3,100.1
			L192.3,100.1L192.3,100.1z"/>
		<g>
			<path class="st15" d="M115.3,104.3c0-0.1,0-0.2-0.1-0.3c-0.1-0.1-0.2-0.1-0.3-0.1c-0.4-0.1-0.6-0.3-0.7-0.6
				c-0.1-0.3-0.1-0.6-0.1-0.9l0-7.8c0-0.3,0-0.5,0-0.7c0-0.2-0.2-0.3-0.5-0.4c-0.3,0-0.5,0-0.6,0.2c-0.2,0.2-0.3,0.3-0.4,0.5
				c-1.8,2.1-3.5,4.2-5.3,6.2l-0.9,1c-0.2,0.2-0.4,0.4-0.6,0.6c-0.2,0.2-0.5,0.3-0.8,0.3c-0.2,0-0.3,0-0.5,0c-0.2,0-0.2,0.1-0.3,0.3
				c0,0.1,0,0.2,0.1,0.3c0.1,0.1,0.2,0.1,0.3,0.1c0.3,0,0.6,0.1,0.9,0.1c0.3,0,0.6,0.1,0.9,0.1c0.3,0,0.5,0.1,0.8,0.2
				c0.3,0.1,0.5,0.1,0.8,0.2c0.1,0,0.2,0,0.3,0c0.1,0,0.2-0.1,0.2-0.3c0-0.2-0.1-0.3-0.3-0.4c-0.2-0.1-0.4-0.1-0.6-0.2
				c-0.2-0.1-0.3-0.3-0.3-0.5c0.1-0.3,0.3-0.6,0.6-1.1c0.4-0.5,0.6-0.8,0.8-1c1,0.2,2.1,0.3,3.1,0.5l0,1c0,0.3,0,0.7,0,1
				c0,0.5-0.2,0.7-0.4,0.7c-0.2,0-0.4,0.1-0.7,0c-0.2,0-0.3,0.1-0.4,0.3c0,0.1,0,0.2,0.1,0.2c0.1,0.1,0.1,0.1,0.2,0.1
				c0.4,0.1,0.9,0.1,1.3,0.1c0.4,0,0.9,0.1,1.3,0.1c0.3,0,0.6,0.1,0.9,0.2c0.3,0.1,0.6,0.1,0.9,0.2c0.1,0,0.2,0,0.3,0
				C115.2,104.5,115.3,104.4,115.3,104.3L115.3,104.3z M111.7,99.8c-0.9-0.1-1.7-0.3-2.6-0.4c0.9-1.1,1.8-2.2,2.7-3.2L111.7,99.8z
				 M138.2,97c0-0.1,0-0.2-0.1-0.2c-0.1-0.1-0.1-0.1-0.2-0.1c-0.1,0-0.3,0-0.4,0s-0.3,0-0.4,0c-0.3,0-0.7,0-1,0
				c-0.4,0-0.7-0.1-1.1-0.1c-0.3,0-0.5-0.1-0.8-0.1s-0.5-0.1-0.8-0.1c-0.1,0-0.2,0-0.3,0.1c-0.1,0.1-0.2,0.2-0.2,0.3
				c0,0.2,0.2,0.4,0.5,0.4c0.3,0,0.5,0.2,0.5,0.5c0,0.1,0,0.2,0,0.2c0,0.1,0,0.2-0.1,0.2l-2.3,6.6c-0.1,0.3-0.2,0.5-0.3,0.8
				c-0.1,0.2-0.3,0.4-0.7,0.4c-0.2,0-0.4,0-0.5,0.1c-0.2,0-0.3,0.1-0.4,0.3c0,0.1,0,0.2,0.1,0.2c0.1,0.1,0.2,0.1,0.3,0.1
				c0.3,0,0.7,0,1,0s0.7,0,1,0c0.4,0,0.7,0.1,1.1,0.2c0.4,0.1,0.7,0.1,1.1,0.2c0.2,0,0.3,0,0.5,0c0.2,0,0.3-0.1,0.3-0.3
				c0-0.2-0.1-0.3-0.3-0.3s-0.4-0.1-0.6-0.1c-0.2-0.1-0.3-0.3-0.3-0.6c0-0.1,0-0.3,0.1-0.4c0-0.1,0.1-0.2,0.1-0.4l2.3-6.7
				c0.1-0.3,0.2-0.5,0.3-0.6c0.1-0.1,0.3-0.2,0.6-0.2c0.1,0,0.3,0,0.5-0.1C138.1,97.2,138.2,97.1,138.2,97L138.2,97z M148.4,97.8
				c0-0.2-0.2-0.3-0.5-0.4c-0.3-0.1-0.6-0.2-1-0.2c-0.4,0-0.6-0.1-0.7-0.1c-1.3-0.1-2.7,0.1-4.1,0.5c-1.4,0.4-2.7,1.1-3.7,2
				c-1.1,0.9-1.6,2.1-1.8,3.6c0,0.9,0.2,1.7,0.7,2.4c0.5,0.7,1.1,1.2,1.9,1.5c0.8,0.4,1.6,0.6,2.4,0.6c1,0.1,2,0,3-0.1
				c0.2,0,0.4-0.1,0.5-0.1c0.1-0.1,0.2-0.2,0.3-0.3c0.2-0.4,0.3-0.8,0.4-1.2c0.1-0.4,0.3-0.8,0.4-1.2c0.2-0.6,0.5-0.9,0.7-1
				c0.3-0.1,0.5-0.1,0.7-0.1c0.2,0,0.3-0.1,0.3-0.4c0-0.1,0-0.2-0.1-0.2c-0.1-0.1-0.2-0.1-0.3-0.1c-0.4,0-0.8,0-1.2,0
				c-0.4,0-0.8,0-1.2,0c-0.4,0-0.7-0.1-1.1-0.1c-0.4-0.1-0.7-0.1-1.1-0.1c-0.1,0-0.2,0-0.4,0c-0.1,0-0.2,0.1-0.2,0.3
				c0,0.2,0.1,0.3,0.3,0.3c0.2,0,0.4,0.1,0.6,0.2c0.2,0.1,0.3,0.2,0.3,0.5c0,0.3-0.1,0.7-0.3,1.2c-0.2,0.4-0.3,0.8-0.5,1.2
				c-0.1,0.2-0.2,0.4-0.3,0.5c-0.1,0.1-0.3,0.1-0.5,0.1c-0.9-0.1-1.6-0.4-2-1.1c-0.4-0.6-0.6-1.4-0.6-2.2c0.1-0.8,0.3-1.6,0.6-2.3
				c0.4-0.7,0.9-1.4,1.5-1.9c0.6-0.5,1.3-0.9,2.1-1.3c0.8-0.3,1.7-0.5,2.5-0.4c0.4,0,0.6,0.1,0.7,0.3c0.1,0.2,0.1,0.4,0.1,0.8
				c0,0.1,0,0.2,0,0.3c0,0.1,0,0.2,0,0.3c0,0.1,0,0.3,0.1,0.4c0,0.1,0.2,0.2,0.3,0.2c0.2,0,0.3-0.1,0.4-0.3c0.1-0.2,0.2-0.3,0.2-0.5
				c0-0.1,0.1-0.4,0.3-0.8C148.3,98.2,148.4,97.9,148.4,97.8L148.4,97.8z M156.7,108.2c0-0.1,0-0.2-0.1-0.3
				c-0.1-0.1-0.2-0.1-0.3-0.1c-0.4-0.1-0.6-0.3-0.7-0.5c-0.1-0.2-0.1-0.6-0.1-0.9l0-7.8c0-0.3,0-0.5,0-0.7c0-0.2-0.2-0.3-0.5-0.3
				c-0.3,0-0.5,0.1-0.6,0.2c-0.2,0.2-0.3,0.4-0.4,0.5c-1.8,2.3-3.6,4.5-5.3,6.7l-0.9,1.1c-0.2,0.2-0.4,0.5-0.6,0.7
				c-0.2,0.2-0.5,0.3-0.8,0.3c-0.2,0-0.3,0-0.5,0.1c-0.2,0-0.2,0.2-0.3,0.4c0,0.1,0,0.2,0.1,0.2c0.1,0,0.2,0.1,0.3,0.1
				c0.3,0,0.6,0,0.9,0c0.3,0,0.6,0,0.9,0c0.3,0,0.5,0.1,0.8,0.1s0.5,0.1,0.8,0.1c0.1,0,0.2,0,0.3-0.1c0.1,0,0.2-0.1,0.2-0.3
				c0-0.2-0.1-0.3-0.3-0.4s-0.4-0.1-0.6-0.2c-0.2-0.1-0.3-0.2-0.3-0.5c0.1-0.3,0.3-0.7,0.6-1.2c0.4-0.5,0.6-0.8,0.8-1
				c1,0.1,2.1,0.1,3.1,0.2l0,1c0,0.3,0,0.7,0,1c0,0.5-0.2,0.7-0.4,0.8c-0.2,0.1-0.4,0.1-0.7,0.1c-0.2,0-0.3,0.1-0.4,0.4
				c0,0.1,0,0.2,0.1,0.2c0.1,0,0.2,0.1,0.2,0.1c0.4,0,0.9,0,1.3,0s0.9,0,1.3,0c0.3,0,0.6,0,0.9,0.1c0.3,0,0.6,0.1,0.9,0.1
				c0.1,0,0.2,0,0.3,0C156.7,108.4,156.7,108.3,156.7,108.2L156.7,108.2z M153.1,104c-0.9,0-1.7-0.1-2.6-0.2
				c0.9-1.2,1.8-2.3,2.7-3.5L153.1,104L153.1,104z M131.7,96.4c0-0.1,0-0.2-0.1-0.2c-0.1-0.1-0.1-0.1-0.2-0.1c-0.3,0-0.7-0.1-1-0.1
				c-0.3,0-0.7-0.1-1-0.1c-0.2,0-0.4-0.1-0.8-0.1c-0.3-0.1-0.6,0-0.7,0c0,0,0,0.1-0.1,0.1s0,0.1-0.1,0.1c-1.5,2-3.1,4-4.6,6l0.2-6.4
				c0-0.1,0-0.2,0-0.3s-0.1-0.1-0.2-0.2c-0.4,0-0.7-0.1-1.1-0.1s-0.7-0.1-1.1-0.1c-0.2,0-0.4-0.1-0.6-0.1s-0.4-0.1-0.6-0.1
				c-0.1,0-0.3,0-0.4,0c-0.1,0-0.2,0.1-0.2,0.3c0,0.3,0.2,0.4,0.6,0.4c0.3,0,0.5,0.2,0.6,0.4c0,0.2-0.1,0.4-0.1,0.5
				c-0.1,0.2-0.1,0.3-0.2,0.5c-0.4,1-0.9,2-1.3,3c-0.4,1-0.9,2-1.3,3c-0.2,0.4-0.3,0.7-0.5,0.9c-0.2,0.2-0.5,0.2-0.9,0.3
				c-0.1,0-0.2,0-0.3,0.1c-0.1,0-0.2,0.1-0.2,0.3c0,0.1,0,0.2,0.1,0.3c0.1,0.1,0.2,0.1,0.3,0.1c0.3,0,0.5,0.1,0.8,0.1
				c0.3,0,0.5,0.1,0.8,0.1c0.3,0,0.5,0.1,0.8,0.1c0.2,0.1,0.5,0.1,0.7,0.1c0.1,0,0.2,0,0.3,0c0.1,0,0.2-0.1,0.2-0.3
				c0-0.2-0.1-0.4-0.3-0.4c-0.2,0-0.4-0.1-0.7-0.2s-0.3-0.3-0.3-0.6c0.1-0.5,0.3-1.2,0.6-2.1c0.4-0.9,0.8-1.8,1.2-2.7
				c0.4-0.9,0.7-1.4,0.8-1.7l-0.2,7.4c0,0.2,0,0.4,0,0.6c0,0.1,0.2,0.2,0.4,0.3c0.3,0,0.5,0,0.6-0.2c0.2-0.2,0.3-0.3,0.4-0.5
				c1.8-2.2,3.6-4.5,5.4-6.7l-2,6c-0.1,0.3-0.2,0.5-0.3,0.8c-0.1,0.3-0.3,0.4-0.6,0.4c-0.2,0-0.4,0-0.6,0c-0.2,0-0.3,0.1-0.4,0.3
				c0,0.1,0,0.2,0.1,0.3c0.1,0.1,0.2,0.1,0.3,0.1c0.4,0,0.7,0.1,1.1,0.1c0.4,0,0.7,0,1.1,0.1c0.4,0,0.7,0.1,1.1,0.2
				c0.4,0.1,0.7,0.1,1.1,0.2c0.1,0,0.3,0,0.4,0c0.1,0,0.2-0.1,0.2-0.3c0-0.2-0.1-0.3-0.3-0.4c-0.2,0-0.3-0.1-0.5-0.2
				c-0.2-0.1-0.3-0.2-0.3-0.5c0-0.2,0-0.4,0.1-0.6c0.1-0.2,0.1-0.4,0.2-0.5l1.9-6.2c0.1-0.3,0.2-0.5,0.3-0.6s0.3-0.2,0.6-0.2
				c0.2,0,0.3,0,0.5-0.1C131.6,96.7,131.6,96.6,131.7,96.4L131.7,96.4z"/>
		</g>
	</g>
	<g>
		<path class="st30" d="M160.4,100.7l-0.3,5.2c-0.1,1.4,1,2.6,2.4,2.7c1.8,0.1,3.7,0.1,5.5,0.1c1.4,0,2.6-1.1,2.7-2.6l0.1-1.3
			c-0.8,0-1.7,0-2.5,0l0,0.5c0,0.6-0.5,1.1-1.1,1.1c-1.1,0-2.3-0.1-3.4-0.1c-0.6,0-1.1-0.5-1-1.1l0.2-3.3c0-0.6,0.5-1.1,1.1-1.1
			c1.1,0,2.1,0.1,3.2,0.1c0.6,0,1.1,0.5,1,1.1l0,0.3c0.8,0,1.7,0,2.5,0l0.1-1.3c0.1-1.4-1-2.6-2.4-2.6c-1.8,0-3.5-0.1-5.3-0.1
			C161.7,98.2,160.5,99.3,160.4,100.7C160.4,100.7,160.4,100.7,160.4,100.7z M174.6,106.5l0.3-5.8c1.5,0,2.9,0,4.4,0
			c0.8,0,1.4,0.6,1.3,1.4l-0.2,2.9c0,0.8-0.7,1.5-1.5,1.5C177.5,106.5,176.1,106.5,174.6,106.5C174.6,106.5,174.6,106.5,174.6,106.5
			z M172,108.8c2.7,0,5.3,0,8,0c1.5,0,2.8-1.3,2.9-2.9l0.3-4.7c0.1-1.5-1.1-2.8-2.6-2.8c-2.7,0-5.3,0-8,0
			C172.4,101.9,172.2,105.3,172,108.8L172,108.8z"/>
	</g>
</g>
</svg>
