<svg enable-background="new 0 0 200 124" viewBox="0 0 200 124" xmlns="http://www.w3.org/2000/svg"><path d="m0 0h200v124h-200z" fill="none"/><g transform="matrix(.46661052 0 0 -.46661052 0 200)"><path d="m313.9 414.4c0 7.8 6.4 14.2 14.2 14.2h23.1c7.8 0 14.2-6.4 14.2-14.2m-304.4-.2c0 7.8 6.4 14.2 14.2 14.2h23.1c7.8 0 14.2-6.4 14.2-14.2" fill="#666"/><path d="m123.9 377.1c-3 19.5-4.4 29.2-5.8 36.4s-13.7 10.9-31.2 10.9-29.8-3.7-31.2-10.9-2.8-16.9-5.8-36.4" fill="#d1d2d4"/><path d="m106.2 383.4c-2.7 0-4.9-2.2-4.9-4.9v-126c0-2.7 2.2-4.9 4.9-4.9h216.3c2.7 0 4.9 2.2 4.9 4.9v126.1c0 2.7-2.2 4.9-4.9 4.9h-93.8c-.5-.8-1.4-1.3-2.4-1.3h-25.4c-1 0-1.8.5-2.3 1.3h-92.4z" fill="#b2b2b2"/><path d="m113.2 376.1h202.2c.4 0 .8-.3.8-.7v-120.1c0-.4-.3-.7-.8-.7h-202.2c-.4 0-.8.3-.8.7v120.1c.1.4.4.7.8.7" fill="#d1d2d4"/><path d="m21.5 347.4c-9.8-53.4-16.1-110.5-20.9-135.6-7.5-39.3 58.2-72.4 83.1-26.9 18.9 34.5 40.4 78.5 40.4 78.5z" fill="#d1d2d4"/><path d="m108 267.5c0-.8-.1-1.6-.1-2.4 0-24.3 19.7-43.9 43.9-43.9s43.9 19.7 43.9 43.9-19.7 43.9-43.9 43.9c-.8 0-1.5 0-2.3-.1" fill="#999"/><path d="m150.9 307.4c2.7 7.3 4.1 15.2 4.1 23.5 0 37.8-30.7 68.5-68.5 68.5s-68.5-30.7-68.5-68.5 30.7-68.5 68.5-68.5c8.1 0 16 1.4 23.2 4 0-.8-.1-1.6-.1-2.4" fill="#999"/><path d="m407.1 347.4c9.7-53.4 16.1-111.4 20.9-135.6 7.8-39.3-58.2-72.4-83.1-26.9-18.9 34.5-40.4 78.5-40.4 78.5z" fill="#d1d2d4"/><path d="m278.3 309c-.8 0-1.6.1-2.4.1-24.3 0-43.9-19.7-43.9-43.9s19.7-43.9 43.9-43.9 43.9 19.7 43.9 43.9c0 .8 0 1.5-.1 2.3" fill="#999"/><path d="m376.7 377.1c-3 19.5-4.4 29.2-5.8 36.4s-13.7 10.9-31.2 10.9-29.8-3.7-31.2-10.9-2.8-16.9-5.8-36.4" fill="#d1d2d4"/><path d="m318.2 266.2c7.3-2.7 15.2-4.1 23.5-4.1 37.8 0 68.5 30.7 68.5 68.5s-30.7 68.5-68.5 68.5-68.5-30.7-68.5-68.5c0-8.1 1.4-16 4-23.2-.8 0-1.6.1-2.4.1" fill="#999"/><path d="m150.3 307.9c2.6 7.1 4 14.8 4 22.8 0 37.2-30.1 67.3-67.3 67.3s-67.3-30.1-67.3-67.3 30.1-67.3 67.3-67.3c7.7 0 15 1.3 21.9 3.6 0-.6 0-1.2 0-1.8 0-23.6 19.1-42.7 42.7-42.7s42.7 19.1 42.7 42.7-19.1 42.7-42.7 42.7c-.5 0-.9 0-1.3 0m168.3-40.5c7.2-2.6 15-4.1 23.1-4.1 37.2 0 67.3 30.1 67.3 67.3s-30.1 67.3-67.3 67.3-67.3-30.1-67.3-67.3c0-8 1.4-15.7 4-22.8-.8 0-1.6.1-2.4.1-23.6 0-42.7-19.1-42.7-42.7s19.1-42.7 42.7-42.7 42.7 19.1 42.7 42.7c-.1.7-.1 1.5-.1 2.2" fill="#d1d2d4"/><path d="m184.5 265.2c0-18.2-14.8-33-33-33s-33 14.8-33 33 14.8 33 33 33 33-14.8 33-33" fill="#b2b2b2"/><path d="m180.3 265.2c0-15.9-12.9-28.8-28.8-28.8s-28.8 12.9-28.8 28.8 12.9 28.8 28.8 28.8 28.8-12.9 28.8-28.8" fill="#666"/><path d="m327.8 380.4c-2.7 0-4.9-2.2-4.9-4.9v-26h-26.1c-2.7 0-4.9-2.2-4.9-4.9v-27.7c0-2.7 2.2-4.9 4.9-4.9h26.1v-26c0-2.7 2.2-4.9 4.9-4.9h27.7c2.7 0 4.9 2.2 4.9 4.9v26h26.1c2.7 0 4.9 2.2 4.9 4.9v27.7c0 2.7-2.2 4.9-4.9 4.9h-26.1v26c0 2.7-2.2 4.9-4.9 4.9z" fill="#b2b2b2"/><path d="m164.9 329.7h19.8c.2 0 .4-.2.4-.4v-11c0-.2-.2-.4-.4-.4h-19.8c-.2 0-.4.2-.4.4v11c0 .2.2.4.4.4m39.3-39.4h19.8c.2 0 .4-.2.4-.4v-11c0-.2-.2-.4-.4-.4h-19.8c-.2 0-.4.2-.4.4v11c0 .2.2.4.4.4" fill="#666"/><path d="m204.2 266.8h19.8c.2 0 .4-.1.4-.2v-4.4c0-.1-.2-.2-.4-.2h-19.8c-.2 0-.4.1-.4.2v4.4c0 .1.2.2.4.2" fill="#808080"/><path d="m259.9 323.8c0-2.6-15.1-5.9-15.1-5.9-1.7-.4-2.8.3-2.8 2.8v6.3c0 2.5 1.2 3.2 2.8 2.8 0-.1 15.1-3.6 15.1-6m96.4 38.2c0-8.1-6.5-14.6-14.6-14.6s-14.7 6.5-14.7 14.6 6.5 14.6 14.6 14.6 14.7-6.5 14.7-14.6m0-62.9c0-8.1-6.5-14.6-14.6-14.6s-14.7 6.5-14.7 14.6 6.5 14.6 14.6 14.6 14.7-6.5 14.7-14.6m2.2 31.4c0 8.1 6.5 14.6 14.6 14.6s14.6-6.6 14.6-14.6c0-8.1-6.5-14.6-14.6-14.6s-14.6 6.6-14.6 14.6m-62.9 0c0 8.1 6.5 14.6 14.6 14.6s14.6-6.6 14.6-14.6c0-8.1-6.5-14.6-14.6-14.6s-14.6 6.6-14.6 14.6" fill="#666"/><path d="m72.8 381.3c-2.7 0-4.9-2.2-4.9-4.9v-26h-26.1c-2.7 0-4.9-2.2-4.9-4.9v-27.7c0-2.7 2.2-4.9 4.9-4.9h26.1v-26c0-2.7 2.2-4.9 4.9-4.9h27.7c2.7 0 4.9 2.2 4.9 4.9v26h26.1c2.7 0 4.9 2.2 4.9 4.9v27.7c0 2.7-2.2 4.9-4.9 4.9h-26.1v26c0 2.7-2.2 4.9-4.9 4.9zm236.1-116.1c0-18.2-14.8-33-33-33s-33 14.8-33 33 14.8 33 33 33 33-14.8 33-33" fill="#b2b2b2"/><path d="m304.7 265.2c0-15.9-12.9-28.8-28.8-28.8s-28.8 12.9-28.8 28.8 12.9 28.8 28.8 28.8 28.8-12.9 28.8-28.8" fill="#666"/><path d="m86.6 376-6.7-6.4h13.4zm0-89-6.7 6.4h13.4zm44.5 44.5-6.4 6.7v-13.4zm-89 0 6.4 6.7v-13.4z" fill="#808080"/><g fill="#666"><path d="m103.2 341.5c-.6-.1-1.1-.4-1.5-.8l-6.2-7.9c-.6-.8-.6-1.8 0-2.6l6.2-7.9c.4-.5 1-.8 1.7-.8l14.4-.1c.6 0 1.1.2 1.5.6s.6.9.6 1.5v15.6c0 1.1-.9 2.1-2.1 2.1l-14.4.3c-.1 0-.1 0-.2 0m-33.1.1c.6-.1 1.1-.4 1.5-.8l6.2-7.9c.6-.8.6-1.8 0-2.6l-6.2-7.9c-.4-.5-1-.8-1.7-.8l-14.4-.1c-.6 0-1.1.2-1.5.6s-.6.9-.6 1.5v15.6c0 1.1.9 2.1 2.1 2.1l14.4.3zm26.5-26.6c-.1.6-.4 1.1-.8 1.5l-7.9 6.2c-.8.6-1.8.6-2.6 0l-7.9-6.2c-.5-.4-.8-1-.8-1.7l-.1-14.4c0-.6.2-1.1.6-1.5s.9-.6 1.5-.6h15.6c1.1 0 2.1.9 2.1 2.1l.3 14.4zm.2 33.1c-.1-.6-.4-1.1-.8-1.5l-7.9-6.2c-.8-.6-1.8-.6-2.6 0l-7.9 6.2c-.5.4-.8 1-.8 1.7l-.1 14.4c0 .6.2 1.1.6 1.5s.9.6 1.5.6h15.6c1.1 0 2.1-.9 2.1-2.1l.3-14.4c0-.1 0-.2 0-.2"/><path d="m221.9 338.8c.4-.1.7-.1 1-.2.4-.1.7-.2 1.1-.3.4-.2.9-.3 1.2-.6.3-.2.5-.5.6-.9.1-.3 0-.6-.1-.9-.2-.3-.5-.6-.8-.8-.4-.2-.8-.4-1.2-.6h-.1-.1c-.4.1-.8.2-1.1.3-.6.2-1.2.4-1.8.6-.3.1-.7.2-1 .3 0 0-.1 0-.1.1h.1c.4.1.8.3 1.1.4s.5.2.8.3c.1.1.2.1.3.2 0 0 0 .1.1.1.1.1 0 .2-.1.3s-.2.1-.3.1c-.2 0-.4.1-.6.1-.4 0-.9 0-1.3-.1-.1 0-.3-.1-.4-.1-.6-.2-1.2-.4-1.8-.6h-.1c-.2.1-.4.1-.6.2-.7.2-1.3.4-2 .6-.4.1-.9.3-1.3.4.4.1.8.3 1.2.4.6.2 1.2.3 1.8.5.4.1.3.1 1.1.2.5.2 3.1.2 4.4 0m-17.2-5.7c-.7 0-1.5.2-2.3.3-.6.1-1.1.2-1.7.3-.5.1-1 .2-1.5.5-.2.1-.3.2-.4.3-.3.2-.4.5-.4.9.1.6.4 1 .8 1.4.3.3.7.5 1.1.7.1 0 .2.1.3.1s.2 0 .3-.1c.6-.2 1.3-.4 1.9-.6.5-.2 1-.3 1.5-.5 0 0 .1 0 .2-.1 0 0-.1 0-.1-.1-.2-.1-.5-.2-.7-.2-.2-.1-.3-.1-.5-.2-.1 0-.1-.1-.2-.1-.2-.2-.1-.4.1-.6s.5-.3.8-.3c.4 0 .7 0 1 .2l.9.3.9.3h.1c.2-.1.5-.2.7-.2.4-.1.9-.3 1.3-.4 0-.4 0-.8 0-1.2v-.1c-.3-.1-1-.2-1.3-.3 0-.1-1.7-.3-2.8-.3"/><path d="m219.4 335.9c.1-.1.3-.1.5-.1.6-.2 1.3-.4 1.9-.6.3-.1.6-.2 1-.3.3-.1.5-.2.8-.2-.1 0-.2-.1-.3-.1-.3-.1-.6-.2-1-.3-.5-.2-1-.4-1.6-.5-.5-.2-.9-.3-1.4-.5s-1.1-.4-1.6-.6c-.2-.1-.3-.1-.5-.2-.1 0-.1 0-.1 0-.4.1-.8.3-1.3.4-.8.3-1.7.5-2.5.8v.1.2c.5.2 1 .3 1.5.5.7.3 1.5.5 2.2.8.5.2 1 .3 1.5.5.2-.1.5 0 .9.1-.1 0-.1 0 0 0m-15 .4c-.5.2-1 .3-1.6.5-.7.2-1.5.5-2.2.7.7.3 1.5.5 2.2.8 1.2.4 2.3.8 3.5 1.2.2.1.4.2.7.2h.1c.5-.2 1.1-.3 1.6-.5.1 0 0 0 0-.1 0-.4 0-.8 0-1.2 0 0 0 0 0-.1-.5-.2-1-.3-1.4-.5-.5-.2-1.1-.4-1.6-.6-.4-.1-.8-.2-1.3-.4z"/><path d="m213.2 333.5c1.3-.4 2.6-.8 3.9-1.2-.2-.1-.4-.1-.6-.2-.4-.1-.8-.3-1.2-.4-.5-.2-1.1-.4-1.6-.6-.1 0-.3-.1-.5-.1v.1zm-4.4 4.4v1.2.1c-.4.1-.8.2-1.2.4-.2.1-.3.1-.5.2l.9.3c.3.1.6.2.8.3 0-.9 0-1.7 0-2.5zm8.3-1.3c-.2-.1-.4-.2-.7-.2-1.1-.4-2.2-.7-3.2-1.1v2.6c.5-.2 1-.3 1.5-.5.4-.1.8-.3 1.3-.4.3-.2.7-.3 1.1-.4m-10.3-1c.2.1.5.2.7.3.4.1.8.3 1.3.4 0-.2 0-.5 0-.8 0-.2 0-.4 0-.6-.4.1-.8.2-1.2.4-.3.1-.6.2-.8.3"/><path d="m208.8 334.9v1.3 1.4.2 2.3.1.1 11.3.1c.2-.1.4-.1.6-.2.5-.1 1.1-.3 1.6-.4s1-.3 1.5-.4c.6-.2 1.1-.3 1.7-.5.5-.1.9-.3 1.4-.4.8-.3 1.5-.6 2.2-1.1.4-.2.7-.5 1-.9.3-.3.6-.7.8-1.1.2-.5.4-.9.5-1.4 0-.2.1-.4.1-.6v-.1-.1-.1-.6c0-.1 0-.1 0-.2v-.1-.1-.1-.1s0 0 0-.1c0 0 0 0 0-.1 0 0 0 0 0-.1 0 0 0 0 0-.1 0-.3-.1-.7-.2-1-.1-.4-.3-.9-.6-1.3s-.7-.8-1.2-1c-.3-.1-.7-.2-1-.2h-.1c-.1 0-.1 0-.1 0-.1 0-.2 0-.3 0 0 0-.1 0-.2 0h-.1s0 0-.1 0h-.1c-.2 0-.4 0-.5.1-.2 0-.4.1-.6.2h-.1v7.5.1c0 .2-.2.4-.4.5-.1.1-.3.1-.4.1s-.1 0-.2 0c-.2 0-.5-.1-.6-.3 0-.1-.1-.1-.1-.2s0-.1 0-.2c0-.2 0-.4 0-.6 0-.3 0-.5 0-.8v-8-.1-2.5c0-.5 0-1 0-1.4 0-.1 0-.2 0-.2 0-.6 0-1.2 0-1.8v-.7c-.3.1-.7.2-1 .3s-.7.2-1 .3c-.4.1-.8.3-1.2.4s-.9.2-1.3.4z"/><path d="m193.5 324.6v.6h.7c.6 0 .8.2.9.8v1.2c-.1.5-.4.8-.9.8-.4 0-.8 0-1.2 0v-5.9h-1v6.6h2.7c.2 0 .5-.1.7-.2.3-.1.5-.4.6-.7.2-.7.2-1.4.1-2-.2-.7-.6-1.1-1.3-1.1-.4-.1-.9-.1-1.3-.1m34.6 0c0-.4.1-.7.2-1.1.1-.5.5-.8 1-.8.6 0 .9.2 1.1.8.2.7.2 1.5 0 2.2-.1.5-.5.7-1.1.7s-.9-.2-1-.8c-.1-.2-.1-.6-.2-1m3.5 0c0-.4-.1-.8-.2-1.2-.2-.8-.6-1.2-1.4-1.3-.5 0-1.1 0-1.6 0-.6.1-1 .5-1.2 1.1-.2.9-.2 1.8 0 2.7.2.7.6 1.2 1.4 1.3h1.7c.8-.1 1.1-.7 1.2-1.4.1-.4.1-.8.1-1.2m-27.3-5.1c.3.7.5 1.4.9 2.1.2.5.2.9 0 1.4-.5 1.3-1 2.6-1.5 4 0 .1 0 .1-.1.2h1c.1 0 .2-.1.2-.2.4-1 .7-2 1.1-2.9 0-.1 0-.1.1-.2.1.2.1.3.2.5.4.9.7 1.8 1.1 2.7 0 .1.1.2.3.2h.8c-.2-.4-.3-.8-.5-1.2-.8-2-1.7-4.1-2.5-6.1-.1-.2-.2-.3-.4-.3-.2-.2-.4-.2-.7-.2m14.7 5.8v-.7c-.2 0-.3 0-.5 0s-.4-.1-.6-.1c-.2-.1-.3-.2-.3-.4s0-.5 0-.7c0-.4.2-.6.6-.6h1.3v.2 2.6c0 .6-.3.9-.9.9-.5 0-.9 0-1.4 0v.7c.8 0 1.6 0 2.3-.1.6-.1 1-.5 1-1.1 0-1.1 0-2.1 0-3.2 0-.2 0-.4 0-.7-.4 0-.7 0-1.1 0-.6 0-1.3 0-1.9.1-.7.1-1 .4-1.1 1.1v1.1c0 .4.3.6.6.7.9.2 1.4.2 2 .2m-17-2.5v1.5 1.4c0 .6-.3.9-.9.9-.4 0-.8 0-1.2 0h-.3v.6h.1c.7 0 1.3 0 2-.1.5 0 .9-.2 1.1-.7.1-.2.1-.5.1-.7 0-1.2 0-2.4 0-3.6 0 0 0 0 0-.1-.3 0-.6 0-.9 0-.7 0-1.3 0-2 .1s-1 .4-1.1 1.1c0 .4 0 .8.1 1.2s.4.6.7.7c.5.1 1.1.1 1.6.2v-.7c-.2 0-.3 0-.5 0s-.5-.1-.6-.2c-.3-.2-.2-.5-.2-.8 0-.1 0-.2 0-.2.1-.4.2-.6.6-.6.5-.1.9 0 1.4 0m7.2-.7v.6h1.2c.2 0 .4 0 .6.1.4.1.6.3.6.7v.9c0 .4-.2.5-.6.6-.2 0-.3 0-.5 0-1.3.1-1.5.7-1.6 1.6 0 .3.1.7.1 1.1.1.6.6.9 1.2 1h2v-.7c-.3 0-.6 0-1 0-.2 0-.4 0-.6 0-.3 0-.6-.2-.6-.6 0-.2-.1-.5-.1-.7 0-.4.2-.6.6-.6.3 0 .7-.1 1-.1.5-.1.8-.3.9-.8.2-.7.3-1.5 0-2.2-.2-.6-.6-.9-1.2-.9-.5 0-1.3 0-2 0m27.6 0h-1v1.2 2.3c0 .6-.3.9-.9.9-.3 0-.7 0-1 0h-.1v-4.4h-1v5.1c.9 0 1.9 0 2.8-.1.3 0 .6-.2.8-.3.3-.2.4-.5.4-.8 0-1.3 0-2.6 0-3.9m-14.9 6h1v-.9h1.2v-.7h-1.1v-.2c0-.9 0-1.8 0-2.8 0-.1 0-.3 0-.4.1-.3.2-.4.5-.4h.4v-.7c-.5 0-1-.1-1.5.1-.3.1-.5.3-.5.7zm-8.1 0h1v-.9h1.2v-.7h-1.2v-3c0-.1 0-.2 0-.4.1-.3.2-.4.5-.4h.4v-.7c-.5 0-1-.1-1.5.1-.3.1-.4.3-.5.6v.4 5zm-15.8.6v-6.6h-1v6.6zm28-1.6v-5.1h-1v5.1zm-1 .7v.9h1v-.9z"/></g><path d="m213.5 330.7v7.4m-5-4.8v7.4" fill="none" stroke="#d1d2d4" stroke-miterlimit="10" stroke-width=".552"/><path d="m319.2 322v17.1c0 .3-.3.6-.6.6h-16.8c-.3 0-.6-.3-.6-.6v-17.1c0-.3.3-.6.6-.6h16.8c.3 0 .6.3.6.6m-16.6 1v15.2h15.2v-15.2z" fill="#bc82a1"/><path d="m372.6 339.9c-5.1 0-9.3-4.2-9.3-9.3s4.2-9.3 9.3-9.3 9.3 4.2 9.3 9.3-4.2 9.3-9.3 9.3m10.8-9.1c0-5.9-4.8-10.7-10.7-10.7s-10.7 4.8-10.7 10.7 4.8 10.7 10.7 10.7 10.7-4.8 10.7-10.7" fill="#ca6869"/><path d="m351.4 355.4c-.3-.2-.7-.1-.9.2l-9.3 16.2c-.2.3-.1.7.2.9s.7.1.9-.2l9.3-16.2c.2-.3.1-.7-.2-.9" fill="#5e9d81"/><path d="m351.7 356c0-.4-.3-.6-.6-.6h-18.6c-.4 0-.6.3-.6.6 0 .4.3.6.6.6h18.6c.3.1.6-.2.6-.6" fill="#5e9d81"/><path d="m332.1 355.4c-.3.2-.4.6-.2.9l9.3 16.2c.2.3.6.4.9.2s.4-.6.2-.9l-9.3-16.2c-.2-.3-.6-.4-.9-.2" fill="#5e9d81"/><path d="m349.8 290.9c-.3-.3-.8-.3-1.1 0l-15.3 15.3c-.3.3-.3.8 0 1.1.3.3.8.3 1.1 0l15.3-15.3c.3-.3.3-.8 0-1.1" fill="#5e9ec4"/><path d="m333.5 290.9c-.3.3-.3.8 0 1.1l15.3 15.3c.3.3.8.3 1.1 0s.3-.8 0-1.1l-15.3-15.3c-.3-.3-.8-.3-1.1 0" fill="#5e9ec4"/></g></svg>