<svg viewBox="0 0 389.6 158.3" xmlns="http://www.w3.org/2000/svg" xmlns:xlink="http://www.w3.org/1999/xlink"><linearGradient id="a" gradientTransform="matrix(0 1 1 0 113.2347 -115.6347)" gradientUnits="userSpaceOnUse" x1="214.55" x2="214.55" y1="-74.0347" y2="50.6653"><stop offset=".0156618" stop-color="#fddd06"/><stop offset=".02226217" stop-color="#fac816"/><stop offset=".03439087" stop-color="#f6a620"/><stop offset=".04592122" stop-color="#f38c23"/><stop offset=".05654638" stop-color="#f17924"/><stop offset=".06593838" stop-color="#f16d24"/><stop offset=".07311464" stop-color="#f06824"/><stop offset=".076493" stop-color="#f06525"/><stop offset=".0990153" stop-color="#ed5227"/><stop offset=".1254" stop-color="#eb4128"/><stop offset=".1583" stop-color="#ea3229"/><stop offset=".2043" stop-color="#e92829"/><stop offset=".3323" stop-color="#e92529"/><stop offset=".3334" stop-color="#e6262b"/><stop offset=".3518" stop-color="#bf3047"/><stop offset=".3706" stop-color="#9c355c"/><stop offset=".3896" stop-color="#7f386c"/><stop offset=".4087" stop-color="#663a79"/><stop offset=".428" stop-color="#4f3b83"/><stop offset=".4476" stop-color="#3c3c89"/><stop offset=".4676" stop-color="#2e3c8e"/><stop offset=".4886" stop-color="#293c8f"/><stop offset=".5563" stop-color="#2b6fb1"/><stop offset=".61" stop-color="#2a97d1"/><stop offset=".6349" stop-color="#29a7df"/><stop offset=".64" stop-color="#2da7d4"/><stop offset=".6643" stop-color="#2aa5ab"/><stop offset=".6872" stop-color="#23a389"/><stop offset=".7081" stop-color="#1ca26d"/><stop offset=".7265" stop-color="#14a158"/><stop offset=".7417" stop-color="#0ba14d"/><stop offset=".7519" stop-color="#05a14a"/><stop offset=".7654" stop-color="#32a54d"/><stop offset=".7979" stop-color="#5aae56"/><stop offset=".8336" stop-color="#71b55e"/><stop offset=".8738" stop-color="#80bb65"/><stop offset=".922" stop-color="#88be69"/><stop offset="1" stop-color="#8abf6a"/></linearGradient><path d="m366.1 149.7v-10.2l5.9 6.6c1.2 1.4 1.1 2.8 0 4.2-.6.7-1.6 2.4-2.5 2.5-1.6.3-1.8-1.1-3.4-3.1z" fill="#8f191c"/><path d="m309.4 142.1 56.7-2.6v10.2l-55.8 4.8z" fill="#ba2025"/><path d="m303.5 158.1 6.8-3.5-1-12.5-2.8.1-7.7 7.4c-.6.6-.8 1.4-.4 2.2l2.4 5.4c.5 1 1.7 1.4 2.7.9z" fill="#9b1c1f"/><path d="m368.9 152.9c-20.5 1.1-42.3 2.7-66 5.4l7.5-3.7 55.8-4.8 3.2 3.2" fill="#9c3821"/><path d="m366.1 8.6v10.2l5.9-6.6c1.2-1.4 1.1-2.8 0-4.2-.6-.7-1.6-2.4-2.5-2.5-1.6-.3-1.8 1.1-3.4 3.1z" fill="#8f191c"/><path d="m309.4 16.2 56.7 2.6v-10.2l-55.8-4.9z" fill="#ba2025"/><path d="m303.5.2 6.8 3.5-1 12.5-2.7-.1-7.7-7.4c-.6-.6-.8-1.4-.4-2.2l2.4-5.4c.4-1 1.6-1.4 2.6-.9z" fill="#9b1c1f"/><path d="m368.9 5.4c-20.5-1.1-42.3-2.7-66-5.4l7.5 3.7 55.8 4.8 3.2-3.2" fill="#9c3821"/><path d="m389.6 79.2v-52.3c-1.3-6.6-4.2-11.7-6.4-14.9-.9-1.3-2.4-2.1-4-2.1h-5.2l-7.8 8.9-59.6-2.7-12.8-12.4-280.7 18.9c-4.8.3-7.9 2.7-10.7 6.5-1 1.3-1.9 2.9-2.4 4.8v45.3 45.3c.6 1.9 1.4 3.4 2.4 4.8 2.8 3.8 5.9 6.2 10.7 6.5l280.7 18.9 12.8-12.5 59.5-2.7 7.8 8.9h5.2c1.6 0 3.1-.8 4-2.1 2.3-3.3 5.2-8.3 6.5-14.9z" fill="#1b1b1b"/><path d="m8.1 32.1h191.5v94h-191.5z" fill="#b2b3b2"/><path d="m8.1 34.1h189.5v90h-189.5z" fill="#919191"/><path d="m3.5 34 4.6-1.9v94l-4.6-1.9z" fill="#a09f8e"/><path d="m8.1 79.1v45l-3.1-1.3v-43.7-43.6l3.1-1.4z" fill="#858581"/><path d="m199.6 32.1h98.7v94h-98.7z" fill="#1f211e"/><path d="m199.6 120.2v-82c0-3.3 2.7-6 6-6h86.7c3.3 0 6 2.7 6 6v82c0 3.3-2.7 6-6 6h-86.7c-3.3-.1-6-2.7-6-6z" fill="#171717"/><circle cx="249" cy="79.1" fill="#282828" r="50"/><circle cx="249" cy="79.1" fill="#383c3d" r="37.5"/><circle cx="249" cy="79.1" fill="#a8b1b6" r="29"/><path d="m104.2 84.1c-1.3-4.8-2.7-9.6-4-14.4-.7-2.4-1.3-4.8-2-7.1-.4-1.4-.8-2.8-1.5-4.1-1-2.1-3.4-2.6-4.7-2.1-1.5.6-2.3 1.8-2.8 3.4-1.2 4.2-2.4 8.3-3.5 12.5-.7 2.3-1.3 4.7-1.9 7-.6 1.9-1.1 3.8-1.7 5.8v.3h5.4c.4 0 .6-.1.7-.6.4-1.6.9-3.2 1.3-4.8h7.2c.2 0 .5.3.5.5.5 1.6.9 3.2 1.3 4.8h6c-.1-.5-.2-.9-.3-1.2zm-13.2-9.8c.8-3.9 1.6-7.7 2.3-11.6h.1c.7 3.8 1.4 7.6 2.2 11.5z" fill="#b2b3b2"/><path d="m158 85.2c0-9.6-.1-19.1-.1-28.8h5.9c0 9.6.1 19.2.1 28.8-2 0-3.9 0-5.9 0z" fill="#b2b3b2"/><path d="m143.9 62c0 7.7 0 15.3.1 23-1.9 0-3.7 0-5.6 0 0-.3 0-.6 0-.9 0-7.9 0-15.7-.1-23.6 0-1.8 1.8-4.1 3.7-4.1 1.8 0 3.6-.1 5.4 0 3.4.1 6.7 2.5 7.7 6.2.8 2.9-.2 6.3-2.6 8.1-.7.5-1.4 1-2.2 1.5 2.3 4.2 4.5 8.4 6.9 12.7-.2 0-.4.1-.5.1-1.9 0-3.8 0-5.8 0-.2 0-.5-.1-.6-.3-1.9-3.7-3.7-7.5-5.6-11.3-1.4-2.9-.3-4.2 1.9-5.3.7-.4 1.5-.8 2.1-1.4 1.2-1.1.9-2.3.2-3.4-.6-1-1.5-1.6-2.7-1.4-.7.2-1.5.1-2.3.1z" fill="#b2b3b2"/><path d="m137.3 84c-1.3-4.8-2.7-9.6-4-14.4-.8-2.9-1.6-5.8-2.4-8.7-.4-1.3-.8-2.6-1.7-3.5-2-2-5.2-1.9-6.4 1.2-.5 1.3-.9 2.7-1.3 4.1-1.6 5.7-3.2 11.5-4.8 17.2-.5 1.7-1 3.5-1.5 5.3h5.6c.2 0 .5-.3.5-.5.5-1.6.9-3.2 1.4-4.9h7.2c.2 0 .5.3.5.5.4 1.6.9 3.2 1.3 4.8h6c-.2-.4-.3-.8-.4-1.1zm-13.3-9.8c.8-3.9 1.6-7.7 2.3-11.5h.1c.7 3.8 1.4 7.6 2.2 11.5z" fill="#b2b3b2"/><path d="m106.9 85.2c0-7.7 0-15.3-.1-23-1.7 0-3.4 0-5.1 0 0-1.9 0-3.7 0-5.5 5.2 0 10.5 0 15.8-.1v5.4c-1.6 0-3.2 0-4.9 0 0 7.7 0 15.4.1 23.1-1.9 0-3.8.1-5.8.1z" fill="#b2b3b2"/><path d="m76.4 84.9c-1.6.1-3.1-.1-4.6-.6s-2.9-1.1-4.1-2.1c-.5-.4-1.1-.8-1.6-1.3-1-.9-1.8-1.9-2.5-3s-1.3-2.3-1.7-3.5c-.4-1.1-.7-2.2-.8-3.3-.1-1-.2-1.9-.2-2.9 0-4 0-8 0-12 0-.1 0-.2 0-.4h2.6v.3 8.9c0 .9.2 1.9.3 2.8.2 1.1.5 2.2 1 3.3.7 1.6 1.5 3.2 2.8 4.5.7.7 1.4 1.5 2.2 2.1 1.8 1.4 3.9 2.4 6.3 2.8.1 0 .2 0 .2.1.1 1.5.1 2.9.1 4.3z" fill="#b2b3b2"/><path d="m59.6 55.9c0 9.7.1 19.4.1 29.1-1.3 0-2.6 0-3.9 0 0-9.7-.1-19.4-.1-29.1z" fill="#b2b3b2"/><path d="m39.2 85.1c0-1.4 0-2.7 0-4 0-.1.1-.2.2-.2 1.2-.2 2.4-.6 3.5-1.1.9-.5 1.7-1 2.5-1.5 1.3-1 2.5-2.1 3.4-3.5.8-1.1 1.4-2.2 1.8-3.4.4-1.1.7-2.2 1-3.4.1-.5.2-1.1.2-1.7 0-3.4 0-6.7 0-10.1 0-.1 0-.1 0-.2h2.6v.4 13.1c0 .9-.2 1.7-.3 2.6-.2 1.1-.5 2.2-.9 3.3-.7 1.7-1.6 3.3-2.9 4.6-.6.6-1.2 1.3-1.9 1.8-1.3 1.1-2.8 1.9-4.5 2.5-1.5.5-3 .8-4.6.8.1 0 0 0-.1 0z" fill="#b2b3b2"/><path d="m37.6 95.4h127.7v7h-127.7z" fill="#b2b3b2"/><path d="m39.2 96.9h124.7v4h-124.7z" fill="url(#a)"/><path d="m298.3 32.1h91.3v94h-91.3z" fill="#1d1d1d"/><g fill="#282828"><path d="m378.8 32.1h2.3v94h-2.3z"/><path d="m372.8 32.1h2.3v94h-2.3z"/><path d="m366.8 32.1h2.3v94h-2.3z"/><path d="m360.8 32.1h2.3v94h-2.3z"/><path d="m354.8 32.1h2.3v94h-2.3z"/><path d="m348.8 32.1h2.3v94h-2.3z"/><path d="m342.8 32.1h2.3v94h-2.3z"/><path d="m336.7 32.1h2.3v94h-2.3z"/><path d="m330.7 32.1h2.3v94h-2.3z"/><path d="m324.7 32.1h2.3v94h-2.3z"/><path d="m318.7 32.1h2.3v94h-2.3z"/><path d="m312.7 32.1h2.3v94h-2.3z"/><path d="m306.7 32.1h2.3v94h-2.3z"/><path d="m300.7 32.1h2.3v94h-2.3z"/></g></svg>