<?xml version="1.0" encoding="utf-8"?>
<!-- Generator: Adobe Illustrator 21.1.0, SVG Export Plug-In . SVG Version: 6.00 Build 0)  -->
<svg version="1.1" id="Layer_1" xmlns="http://www.w3.org/2000/svg" xmlns:xlink="http://www.w3.org/1999/xlink" x="0px" y="0px"
	 viewBox="0 0 363.2 23.4" style="enable-background:new 0 0 363.2 23.4;" xml:space="preserve">
<style type="text/css">
	.st0{fill:none;stroke:#6E6D6E;stroke-width:0.371;stroke-miterlimit:10;}
	.st1{fill:#E5E2E4;}
	.st2{fill:#8A8A8A;}
	.st3{fill:#373736;}
	.st4{fill:#070707;}
	.st5{fill:#363636;stroke:#363636;stroke-width:0.223;stroke-linecap:round;stroke-linejoin:round;stroke-miterlimit:10;}
	.st6{fill:#111111;}
	.st7{fill:#242424;}
	.st8{fill:#161616;}
	.st9{fill:#535353;}
	.st10{fill:#363636;}
	.st11{fill:#040101;}
	.st12{fill:#494846;}
</style>
<path class="st0" d="M309.9,4.1H156.2c-2,0-3.6,1.6-3.6,3.6c0,0,0,0,0,0V7.7c0-0.4-0.4-0.8-0.8-0.8l0,0H51.3c-0.7,0-1.3,0.6-1.3,1.3
	v0.1c0-0.3-0.2-0.5-0.5-0.5l0,0h-1.9c-0.3,0-0.5,0.2-0.5,0.5v0V7.6c0-0.4-0.3-0.7-0.7-0.7l0,0h-5.7c-0.4,0-0.7,0.3-0.7,0.7v10.5
	c0,0.4,0.3,0.7,0.7,0.7h5.7c0.4,0,0.7-0.3,0.7-0.7v-0.8c0,0.3,0.2,0.5,0.5,0.5l0,0h1.9c0.3,0,0.5-0.2,0.5-0.5v0.1
	c0,0.7,0.6,1.3,1.3,1.3h100.4c0.4,0,0.8-0.4,0.8-0.8V18c0,2,1.6,3.6,3.6,3.6h153.7c2,0,3.6-1.6,3.6-3.6c0,0,0,0,0,0v1.9
	c0,0.4,0.3,0.8,0.8,0.8l0,0h1.2c0.4,0,0.8-0.3,0.8-0.8v1.3c0,0.2,0.2,0.4,0.4,0.4h7c0.2,0,0.4-0.2,0.4-0.4V4.6
	c0-0.2-0.2-0.4-0.4-0.4h-7c-0.2,0-0.4,0.2-0.4,0.4v1.3c0-0.4-0.3-0.8-0.8-0.8l0,0h-1.2c-0.4,0-0.8,0.3-0.8,0.8c0,0,0,0,0,0v1.9
	C313.6,5.8,311.9,4.1,309.9,4.1z"/>
<path class="st1" d="M152.5,18c0,0.4-0.3,0.7-0.7,0.7H51.3c-0.7,0-1.3-0.6-1.3-1.3V8.3c0-0.7,0.6-1.3,1.3-1.3h100.4
	c0.4,0,0.7,0.3,0.7,0.7V18z"/>
<path class="st2" d="M50.1,8.3c0-0.7,0.5-1.2,1.2-1.2h100.4c0.4,0,0.6,0.3,0.6,0.6V18c0,0.4-0.3,0.6-0.6,0.6H51.3
	c-0.7,0-1.2-0.5-1.2-1.2L50.1,8.3 M50,8.3v9.2c0,0.7,0.6,1.3,1.3,1.3h100.4c0.4,0,0.8-0.4,0.8-0.8V7.7c0-0.4-0.4-0.8-0.8-0.8l0,0
	H51.3C50.6,6.9,50,7.5,50,8.3z"/>
<path class="st1" d="M324.1,21.1c0,0.2-0.2,0.4-0.4,0.4h-7c-0.2,0-0.4-0.2-0.4-0.4V4.6c0-0.2,0.2-0.4,0.4-0.4h7
	c0.2,0,0.4,0.2,0.4,0.4V21.1z"/>
<path class="st2" d="M316.4,4.6c0-0.2,0.1-0.3,0.3-0.3h7c0.2,0,0.3,0.1,0.3,0.3v16.6c0,0.2-0.1,0.3-0.3,0.3h-7
	c-0.2,0-0.3-0.1-0.3-0.3V4.6 M316.3,4.6v16.6c0,0.2,0.2,0.4,0.4,0.4h7c0.2,0,0.4-0.2,0.4-0.4V4.6c0-0.2-0.2-0.4-0.4-0.4h-7
	C316.5,4.1,316.3,4.3,316.3,4.6z"/>
<path class="st1" d="M316.2,19.8c0,0.4-0.3,0.7-0.7,0.7h-1.2c-0.4,0-0.7-0.3-0.7-0.7V5.9c0-0.4,0.3-0.7,0.7-0.7h1.2
	c0.4,0,0.7,0.3,0.7,0.7V19.8z"/>
<path class="st2" d="M313.7,5.9c0-0.3,0.3-0.6,0.6-0.6h1.2c0.3,0,0.6,0.3,0.6,0.6v13.9c0,0.3-0.3,0.6-0.6,0.6h-1.2
	c-0.3,0-0.6-0.3-0.6-0.6V5.9 M313.6,5.9v13.9c0,0.4,0.3,0.8,0.8,0.8l0,0h1.2c0.4,0,0.8-0.3,0.8-0.8V5.9c0-0.4-0.3-0.8-0.8-0.8l0,0
	h-1.2C313.9,5.2,313.6,5.5,313.6,5.9C313.6,5.9,313.6,5.9,313.6,5.9z"/>
<path class="st1" d="M313.5,18c0,2-1.6,3.6-3.6,3.6H156.2c-2,0-3.6-1.6-3.6-3.6V7.8c0-2,1.6-3.6,3.6-3.6h153.7c2,0,3.6,1.6,3.6,3.6
	V18z"/>
<path class="st2" d="M152.7,7.8c0-1.9,1.6-3.5,3.5-3.5h153.7c1.9,0,3.5,1.6,3.5,3.5V18c0,1.9-1.6,3.5-3.5,3.5H156.2
	c-1.9,0-3.5-1.6-3.5-3.5V7.8 M152.5,7.8V18c0,2,1.6,3.6,3.6,3.6h153.7c2,0,3.6-1.6,3.6-3.6c0,0,0,0,0,0V7.8c0-2-1.6-3.6-3.6-3.6l0,0
	H156.2C154.2,4.1,152.5,5.8,152.5,7.8C152.5,7.8,152.5,7.8,152.5,7.8L152.5,7.8z"/>
<path class="st1" d="M49.9,17.3c0,0.2-0.2,0.4-0.4,0.4h-1.9c-0.2,0-0.4-0.2-0.4-0.4V8.4c0-0.2,0.2-0.4,0.4-0.4h1.9
	c0.2,0,0.4,0.2,0.4,0.4V17.3z"/>
<path class="st2" d="M47.2,8.4c0-0.2,0.2-0.4,0.4-0.4h1.9c0.2,0,0.4,0.2,0.4,0.4v8.9c0,0.2-0.2,0.4-0.4,0.4h-1.9
	c-0.2,0-0.4-0.2-0.4-0.4V8.4 M47.1,8.4v8.9c0,0.3,0.2,0.5,0.5,0.5l0,0h1.9c0.3,0,0.5-0.2,0.5-0.5V8.4c0-0.3-0.2-0.5-0.5-0.5l0,0
	h-1.9C47.3,7.9,47.1,8.1,47.1,8.4z"/>
<path class="st1" d="M47,18.1c0,0.4-0.3,0.6-0.6,0.6h-5.7c-0.4,0-0.6-0.3-0.6-0.6V7.6c0-0.4,0.3-0.6,0.6-0.6h5.7
	C46.7,7,47,7.3,47,7.6V18.1z"/>
<path class="st2" d="M40.1,7.6c0-0.3,0.3-0.6,0.6-0.6h5.7c0.3,0,0.6,0.3,0.6,0.6v10.4c0,0.3-0.3,0.6-0.6,0.6h-5.7
	c-0.3,0-0.6-0.3-0.6-0.6V7.6 M40,7.6v10.4c0,0.4,0.3,0.7,0.7,0.7h5.7c0.4,0,0.7-0.3,0.7-0.7V7.6c0-0.4-0.3-0.7-0.7-0.7l0,0h-5.7
	C40.3,6.9,40,7.2,40,7.6z"/>
<path class="st3" d="M325.7,4.4c0,0,33.8,5.3,35,5.4c1.2,0.1,2.5,1.6,2.5,3.1s-1.2,2.9-2.5,3.1l-35,5.4c-0.7,0.1-1.4-0.4-1.5-1.1
	c0-0.1,0-0.1,0-0.2V5.7C324.2,4.9,324.9,4.3,325.7,4.4z"/>
<path class="st4" d="M0,3.2l0,15.6c0,1.5,1.2,2.6,2.6,2.6l0,0h13.1c0.8,0,1.6,0.3,2.3,0.8l0.8,0.6c1,0.8,2.4,0.8,3.5,0.1l1.1-0.8
	c0.6-0.4,1.4-0.7,2.2-0.7h12.8c0.9,0,1.6-0.7,1.6-1.6V6.1C40,4.9,39,4,37.9,4H8.4C6.9,4,5.7,2.8,5.7,1.3V0.9C5.7,0.4,5.3,0,4.8,0
	L3.2,0C1.4,0,0,1.4,0,3.2C0,3.2,0,3.2,0,3.2z M35.3,17.7c0.5,0,0.9,0.4,0.9,0.9c0,0.5-0.4,0.9-0.9,0.9H5.8c-0.5,0-0.9-0.4-0.9-0.9
	c0-0.5,0.4-0.9,0.9-0.9H35.3z"/>
<g>
	<path class="st5" d="M10.1,8.5H11l1.3,2l0-2h0.9v2.9h-0.9l-1.3-2v2h-0.9L10.1,8.5z M18.1,8.8H19v0.4h0.5v0.3H19l0,1.9h-0.9V9.5
		h-0.5V9.2h0.5L18.1,8.8z M13.7,9.5h0.9v2h-0.9V9.5z M13.7,8.5h0.9v0.6h-0.9V8.5z M29.5,10.5v0.4c0,0.3-0.2,0.4-0.4,0.4
		s-0.4-0.1-0.4-0.4v-0.4l0-0.4c0-0.3,0.2-0.4,0.4-0.4s0.4,0.1,0.4,0.4V10.5L29.5,10.5z M29.2,9.4c-0.7,0-1.3,0.5-1.3,1.1
		s0.6,1.1,1.3,1.1c0.7,0,1.3-0.5,1.3-1.1S29.9,9.4,29.2,9.4z M26.7,8.5h0.9v2.9h-0.9v-0.1c-0.3,0.2-0.7,0.2-1,0.1
		c-0.4-0.2-0.6-0.6-0.6-1c0-0.5,0.5-1.1,1.1-1c0.2,0,0.3,0.1,0.5,0.2L26.7,8.5z M26.7,10.5v-0.3c0-0.3-0.2-0.4-0.3-0.4
		c-0.1,0-0.3,0.1-0.3,0.4v0.3v0.3c0,0.3,0.2,0.4,0.3,0.4c0.1,0,0.3-0.1,0.3-0.4V10.5z M16.7,9.4c0.3,0,1,0.2,1,1v1.1h-0.9v-1.3
		c0-0.2-0.2-0.4-0.4-0.4S16,10,16,10.2l0,1.3h-0.9v-2l0.9,0v0.2C16.1,9.6,16.4,9.4,16.7,9.4z M23.8,9.4c0.3,0,1,0.2,1,1v1.1h-0.9
		v-1.3c0-0.2-0.2-0.4-0.4-0.4s-0.4,0.2-0.4,0.4l0,1.3h-0.9l0-2l0.9,0v0.2C23.3,9.6,23.5,9.4,23.8,9.4z M20.3,10.2
		c0-0.2,0-0.3,0.1-0.4c0.1-0.2,0.3-0.2,0.5-0.1c0.1,0,0.1,0.1,0.1,0.1c0.1,0.1,0.1,0.2,0.1,0.4H20.3z M21.1,10.8l0,0.1
		c0,0.4-0.2,0.4-0.4,0.4s-0.4-0.1-0.4-0.4l0-0.4H22c0-0.6-0.6-1.1-1.3-1.1s-1.3,0.5-1.3,1.1s0.6,1.1,1.3,1.1c0.6,0,1.1-0.3,1.3-0.8
		L21.1,10.8z M30.6,8.7c0.1,0,0.2,0,0.2,0.1c0,0.1,0,0.1-0.1,0.1l0.1,0.2h-0.1L30.6,9h-0.1v0.2h-0.1V8.7H30.6z M30.6,8.6
		c-0.2,0-0.5,0.2-0.5,0.5c0,0.2,0.2,0.5,0.5,0.5l0,0C30.8,9.5,31,9.3,31,9C31,8.8,30.8,8.6,30.6,8.6z M31,9c0,0.2-0.2,0.4-0.4,0.4
		S30.2,9.2,30.2,9c0,0,0,0,0,0c0-0.2,0.2-0.4,0.4-0.4C30.8,8.6,31,8.8,31,9z M30.5,9L30.5,9c0.1,0,0.2,0,0.2-0.1
		c0-0.1,0-0.1-0.1-0.1h-0.1C30.5,8.8,30.5,9,30.5,9z"/>
	<path class="st5" d="M10.9,13.1c-2,0-3.3-1.4-3.3-3.1s1.3-3.1,3.3-3.1h18.7c2,0,3.3,1.4,3.3,3.1c0,1.7-1.3,3.1-3.3,3.1H10.9z
		 M10.9,7.6c-1.6,0-2.5,1.1-2.5,2.4s1,2.4,2.5,2.4h18.7c1.6,0,2.5-1.1,2.5-2.4s-1-2.3-2.5-2.4H10.9z"/>
</g>
<g>
	<path class="st6" d="M10.3,8.3h0.9l1.3,2l0-2h0.9v2.9h-0.9l-1.3-2v2h-0.9L10.3,8.3z M18.3,8.6h0.9V9h0.5v0.3h-0.5l0,1.9h-0.9V9.3
		h-0.5V9h0.5L18.3,8.6z M13.9,9.3h0.9v2h-0.9V9.3z M13.9,8.3h0.9v0.6h-0.9V8.3z M29.7,10.2v0.4c0,0.3-0.2,0.4-0.4,0.4
		S29,10.9,29,10.6v-0.4l0-0.4c0-0.3,0.2-0.4,0.4-0.4s0.4,0.1,0.4,0.4V10.2L29.7,10.2z M29.4,9.1c-0.7,0-1.3,0.5-1.3,1.1
		s0.6,1.1,1.3,1.1c0.7,0,1.3-0.5,1.3-1.1S30.1,9.1,29.4,9.1z M26.9,8.3h0.9v2.9h-0.9v-0.1c-0.3,0.2-0.7,0.2-1,0.1
		c-0.4-0.2-0.6-0.6-0.6-1c0-0.5,0.5-1.1,1.1-1c0.2,0,0.3,0.1,0.5,0.2V8.3z M26.9,10.2V9.9c0-0.3-0.2-0.4-0.3-0.4
		c-0.1,0-0.3,0.1-0.3,0.4v0.3v0.3c0,0.3,0.2,0.4,0.3,0.4c0.1,0,0.3-0.1,0.3-0.4V10.2z M16.8,9.2c0.3,0,1,0.2,1,1v1.1H17V9.9
		c0-0.2-0.2-0.4-0.4-0.4s-0.4,0.2-0.4,0.4l0,1.3h-0.9v-2l0.9,0v0.2C16.3,9.3,16.6,9.2,16.8,9.2z M24,9.2c0.3,0,1,0.2,1,1v1.1h-0.9
		V9.9c0-0.2-0.2-0.4-0.4-0.4s-0.4,0.2-0.4,0.4l0,1.3h-0.9l0-2l0.9,0v0.2C23.5,9.3,23.7,9.2,24,9.2z M20.5,9.9c0-0.2,0-0.3,0.1-0.4
		c0.1-0.2,0.3-0.2,0.5-0.1c0.1,0,0.1,0.1,0.1,0.1c0.1,0.1,0.1,0.2,0.1,0.4H20.5z M21.2,10.5l0,0.1c0,0.4-0.2,0.4-0.4,0.4
		s-0.4-0.1-0.4-0.4l0-0.4h1.7c0-0.6-0.6-1.1-1.3-1.1s-1.3,0.5-1.3,1.1s0.6,1.1,1.3,1.1c0.6,0,1.1-0.3,1.3-0.8L21.2,10.5z M30.8,8.5
		c0.1,0,0.2,0,0.2,0.1c0,0.1,0,0.1-0.1,0.1L31,9h-0.1l-0.1-0.2h-0.1V9h-0.1V8.5H30.8z M30.8,8.3c-0.2,0-0.5,0.2-0.5,0.5
		c0,0.2,0.2,0.5,0.5,0.5s0.5-0.2,0.5-0.5C31.2,8.5,31,8.3,30.8,8.3z M31.1,8.8c0,0.2-0.2,0.4-0.4,0.4S30.4,9,30.4,8.8c0,0,0,0,0,0
		c0-0.2,0.2-0.4,0.4-0.4C31,8.4,31.1,8.6,31.1,8.8z M30.7,8.7L30.7,8.7c0.1,0,0.2,0,0.2-0.1c0-0.1,0-0.1-0.1-0.1h-0.1
		C30.7,8.6,30.7,8.7,30.7,8.7z"/>
	<path class="st6" d="M11.1,12.9c-2,0-3.3-1.4-3.3-3.1s1.3-3.1,3.3-3.1h18.7c2,0,3.3,1.4,3.3,3.1c0,1.7-1.3,3.1-3.3,3.1H11.1z
		 M11.1,7.4c-1.6,0-2.5,1.1-2.5,2.4s1,2.4,2.5,2.4h18.7c1.6,0,2.5-1.1,2.5-2.4s-1-2.3-2.5-2.4C29.8,7.4,11.1,7.4,11.1,7.4z"/>
</g>
<path class="st7" d="M5.1,13.8c-1.2,0-2.2,1-2.2,2.2c0,0,0,0,0,0v1.9c0,1.2,1,2.2,2.2,2.2h32.5c0.1,0,0.3-0.3,0.5-0.3
	c0.2-0.1,0.5,0.1,0.5,0.1c0.2,0.2,0.6,0.1,0.7-0.2c0.1-0.1,0.1-0.2,0.1-0.3l0-4c0-0.2-0.2-0.4-0.4-0.4c-0.1,0-0.1,0-0.2,0.1
	l-0.3,0.2c-0.4,0.3-0.9,0.2-1.2-0.1l-0.8-0.8c-0.2-0.2-0.5-0.3-0.9-0.4C35.6,14.1,5.1,13.8,5.1,13.8z M35.3,17.7
	c0.5,0,0.9,0.4,0.9,0.9c0,0.5-0.4,0.9-0.9,0.9H5.8c-0.5,0-0.9-0.4-0.9-0.9c0-0.5,0.4-0.9,0.9-0.9H35.3z"/>
<path class="st8" d="M3.8,15.3H3v2.6c0,0.8,0.7,1.5,1.5,1.5h1.3c-0.5,0-0.9-0.4-0.9-0.9c0-0.5,0.4-0.9,0.9-0.9h29.6
	c0.5,0,0.9,0.4,0.9,0.9c0,0.5-0.4,0.9-0.9,0.9h0.6c0.3,0,0.6-0.3,0.6-0.6l0-0.3c0-0.9-0.7-1.6-1.6-1.7c0,0,0,0,0,0L5.3,16.9
	C4.5,16.9,3.8,16.2,3.8,15.3z"/>
<path class="st9" d="M40.1,14.1v-3H47v3H40.1z"/>
<path class="st10" d="M40.1,11.1h6.8V14h-6.8V11.1 M40,11v3.2h7.1V11C47.1,11,40,11,40,11z"/>
<g>
	<path class="st9" d="M47.2,14.1v-3H49v3H47.2z"/>
	<path class="st10" d="M47.2,11.1h1.7V14h-1.7V11.1 M47.1,11v3.2h2V11C49.1,11,47.1,11,47.1,11z"/>
</g>
<g>
	<path class="st9" d="M50.1,14.1v-3h102.4v3H50.1z"/>
	<path class="st10" d="M50.1,11.1h102.2V14H50.1V11.1 M50,11v3.2h102.5V11C152.5,11,50,11,50,11z"/>
</g>
<g>
	<path class="st9" d="M313.5,14.8H154.7c-0.5,0-0.9-0.4-0.9-0.9v-2.6c0-0.5,0.4-0.9,0.9-0.9h158.8V14.8z"/>
	<path class="st10" d="M153.9,11.3c0-0.4,0.4-0.8,0.8-0.8h158.7v4.2H154.7c-0.4,0-0.8-0.4-0.8-0.8L153.9,11.3 M153.8,11.3v2.6
		c0,0.5,0.4,1,1,1h158.8v-4.5H154.7C154.2,10.4,153.8,10.8,153.8,11.3z"/>
</g>
<g>
	<path class="st9" d="M316.2,13.9c0,0.5-0.4,0.9-0.9,0.9h-0.7c-0.5,0-0.9-0.4-0.9-0.9v-2.5c0-0.5,0.4-0.9,0.9-0.9h0.7
		c0.5,0,0.9,0.4,0.9,0.9V13.9z"/>
	<path class="st10" d="M313.7,11.4c0-0.5,0.4-0.8,0.8-0.8h0.7c0.5,0,0.8,0.4,0.8,0.8v2.5c0,0.5-0.4,0.8-0.8,0.8h-0.7
		c-0.5,0-0.8-0.4-0.8-0.8V11.4 M313.6,11.4v2.5c0,0.5,0.4,1,1,1h0.7c0.5,0,1-0.4,1-1v-2.5c0-0.5-0.4-1-1-1h-0.7
		C314,10.4,313.6,10.8,313.6,11.4C313.6,11.4,313.6,11.4,313.6,11.4z"/>
</g>
<g>
	<path class="st9" d="M324.1,14.3c0,0.7-0.5,1.2-1.2,1.2h-5.4c-0.7,0-1.2-0.5-1.2-1.2v-2.7c0-0.7,0.5-1.2,1.2-1.2h5.4
		c0.7,0,1.2,0.5,1.2,1.2V14.3z"/>
	<path class="st10" d="M316.4,11.6c0-0.6,0.5-1.1,1.1-1.1h5.4c0.6,0,1.1,0.5,1.1,1.1v2.7c0,0.6-0.5,1.1-1.1,1.1h-5.4
		c-0.6,0-1.1-0.5-1.1-1.1V11.6 M316.3,11.6v2.7c0,0.7,0.6,1.3,1.3,1.3h5.4c0.7,0,1.3-0.6,1.3-1.3v-2.7c0-0.7-0.6-1.3-1.3-1.3h-5.4
		C316.8,10.4,316.3,10.9,316.3,11.6z"/>
</g>
<path class="st11" d="M360.7,12l-36.5-2v6l36.5-2l0.9,0.9c0,0,0.7-0.8,0.8-1.8h0c0,0,0-0.1,0-0.1c0,0,0-0.1,0-0.1h0
	c-0.1-1-0.8-1.8-0.8-1.8S360.7,12,360.7,12z"/>
<path class="st12" d="M363.2,12.9c-0.3,1-0.8,1.7-1.6,2l-0.9-0.9l-36.5,2l0,4c0,0.8,0.7,1.5,1.6,1.3l35-5.4
	C362,15.8,363.2,14.4,363.2,12.9L363.2,12.9z"/>
</svg>
