<?xml version="1.0" encoding="utf-8"?>
<!-- Generator: Adobe Illustrator 23.0.3, SVG Export Plug-In . SVG Version: 6.00 Build 0)  -->
<svg version="1.1" id="Layer_1" xmlns="http://www.w3.org/2000/svg" xmlns:xlink="http://www.w3.org/1999/xlink" x="0px" y="0px"
	 viewBox="0 0 548.9 287.5" style="enable-background:new 0 0 548.9 287.5;" xml:space="preserve">
<style type="text/css">
	.st0{fill:#E9EAEA;}
	.st1{fill:#969696;}
	.st2{fill:url(#SVGID_1_);}
	.st3{fill:url(#SVGID_2_);}
	.st4{fill:url(#SVGID_3_);}
	.st5{fill:url(#SVGID_4_);}
	.st6{fill:#828991;}
	.st7{fill:url(#SVGID_5_);}
	.st8{fill:#070308;}
	.st9{fill:#666565;}
	.st10{fill:url(#SVGID_6_);}
	.st11{fill:#464646;}
	.st12{fill:#82858C;}
	.st13{fill:#1A1919;}
	.st14{fill:url(#SVGID_7_);}
	.st15{fill:#4462A5;}
	.st16{fill:#747C7F;}
	.st17{fill:#3783BC;}
	.st18{fill:#A0141B;}
	.st19{fill:#999999;}
	.st20{fill:#818080;}
	.st21{fill:url(#SVGID_8_);}
	.st22{fill:#FFFFFF;}
	.st23{fill:url(#SVGID_9_);}
	.st24{fill:url(#SVGID_10_);}
	.st25{fill:url(#SVGID_11_);}
	.st26{fill:url(#SVGID_12_);}
	.st27{fill:url(#SVGID_13_);}
	.st28{fill:url(#SVGID_14_);}
	.st29{fill:url(#SVGID_15_);}
	.st30{fill:url(#SVGID_16_);}
	.st31{fill:url(#SVGID_17_);}
	.st32{fill:url(#SVGID_18_);}
	.st33{fill:#8A919B;}
	.st34{fill:#646464;}
	.st35{fill:url(#SVGID_19_);}
	.st36{fill:#A19A9A;}
	.st37{fill:url(#SVGID_20_);}
	.st38{fill:url(#SVGID_21_);}
	.st39{fill:url(#SVGID_22_);}
	.st40{fill:#B5B5B5;}
	.st41{fill:url(#SVGID_23_);}
	.st42{fill:url(#SVGID_24_);}
	.st43{fill:url(#SVGID_25_);}
	.st44{fill:url(#SVGID_26_);}
	.st45{fill:url(#SVGID_27_);}
	.st46{fill:url(#SVGID_28_);}
	.st47{fill:url(#SVGID_29_);}
	.st48{fill:url(#SVGID_30_);}
	.st49{fill:#383837;}
	.st50{fill:#0F131B;}
	.st51{fill:#808E9A;}
	.st52{fill:#405360;}
	.st53{fill:#9BB0BD;}
</style>
<g>
	<path class="st0" d="M478.7,7.3l55.6,38.3c11.6,0.7,0.9-17.6-16.8-29.7C500,3.9,473.1-3.8,478.7,7.3z"/>
	<path class="st1" d="M478.7,7.3l-0.2,0.4l55.7,38.4l0.1,0c0.2,0,0.4,0,0.6,0c1.5,0,2.7-0.4,3.5-1.1c0.8-0.7,1.2-1.8,1.2-2.9
		c0-1.6-0.6-3.4-1.7-5.5c-3.2-6.3-10.7-14.5-20.2-21c-5.8-4-12.6-7.5-19-10c-6.4-2.5-12.2-4.1-16.2-4.1c-1.5,0-2.7,0.2-3.6,0.7
		c-0.5,0.3-0.8,0.6-1.1,1c-0.3,0.4-0.4,0.9-0.4,1.5c0,0.8,0.3,1.7,0.8,2.8l0,0.1l0.1,0.1L478.7,7.3l0.4-0.2c-0.5-1-0.7-1.8-0.7-2.4
		c0-0.4,0.1-0.7,0.3-1c0.2-0.4,0.7-0.7,1.4-1c0.7-0.2,1.5-0.3,2.6-0.3c3.7,0,9.5,1.5,15.8,4c6.3,2.5,13.1,6,18.8,9.9
		c6.3,4.3,11.6,9.3,15.5,14c1.9,2.3,3.4,4.6,4.4,6.6c1,2,1.6,3.8,1.6,5.1c0,1-0.3,1.8-0.9,2.3c-0.6,0.5-1.5,0.8-2.9,0.8
		c-0.2,0-0.4,0-0.6,0l0,0.4l0.2-0.4L479,7L478.7,7.3l0.4-0.2L478.7,7.3z"/>
	<path class="st0" d="M69.5,7.3L14.1,46c-11.6,0.7-1-17.6,16.6-29.8C48.1,4.1,75-3.9,69.5,7.3z"/>
	<path class="st1" d="M69.5,7.3L69.2,7L13.9,45.7l0.2,0.4l0-0.4c-0.2,0-0.4,0-0.6,0c-1.4,0-2.3-0.3-2.9-0.8
		c-0.6-0.5-0.9-1.3-0.9-2.3c0-1.3,0.5-3.1,1.6-5.1C14.3,31.2,21.6,23,31,16.5c5.7-4,12.5-7.5,18.8-10.1c6.3-2.5,12.1-4.1,15.8-4.1
		c1.4,0,2.5,0.2,3.1,0.6c0.3,0.2,0.6,0.4,0.7,0.7c0.2,0.3,0.3,0.6,0.3,1c0,0.6-0.2,1.4-0.7,2.4L69.5,7.3L69.2,7L69.5,7.3l0.4,0.2
		c0.5-1.1,0.8-2,0.8-2.8c0-0.5-0.1-1-0.4-1.5c-0.4-0.6-1-1.1-1.8-1.4c-0.8-0.3-1.7-0.4-2.8-0.4c-3.9,0-9.8,1.6-16.2,4.1
		c-6.4,2.6-13.2,6.1-19,10.2c-6.3,4.4-11.7,9.5-15.5,14.3c-1.9,2.4-3.4,4.7-4.5,6.8c-1.1,2.1-1.6,4-1.6,5.5c0,1.2,0.4,2.2,1.2,2.9
		c0.8,0.7,2,1.1,3.5,1.1c0.2,0,0.4,0,0.7,0l0.1,0L69.8,7.6l0-0.1L69.5,7.3z"/>
	
		<linearGradient id="SVGID_1_" gradientUnits="userSpaceOnUse" x1="-186.4543" y1="163.0932" x2="-185.4543" y2="163.0932" gradientTransform="matrix(211.2392 274.7877 274.7877 -211.2392 -5261.0737 85692.8594)">
		<stop  offset="0" style="stop-color:#ECEBEB"/>
		<stop  offset="1" style="stop-color:#D6D7DA"/>
	</linearGradient>
	<path class="st2" d="M528.8,28.7c-119.1,5.9-206.5,6-288.9,24.6h182.6c3.5,0,6.3,2.8,6.3,6.3v168.8c0,3.5-2.8,6.3-6.3,6.3H124.3
		c-3.5,0-6.3-2.8-6.3-6.3V97.3C81.1,116,42.7,140.5,0.4,172.9v36.7c0,42.8,38.8,77.4,86.7,77.4h374.7c47.9,0,86.7-34.7,86.7-77.4
		V77.9C548.5,59.2,541.1,42.1,528.8,28.7"/>
	
		<linearGradient id="SVGID_2_" gradientUnits="userSpaceOnUse" x1="-185.2008" y1="162.888" x2="-184.2007" y2="162.888" gradientTransform="matrix(528.8799 0 0 -528.8799 97948.9531 86234.8047)">
		<stop  offset="0" style="stop-color:#FCFCFC"/>
		<stop  offset="1" style="stop-color:#E9EAEC"/>
	</linearGradient>
	<path class="st3" d="M205.7,13h135.2c3,0,5.7,1.1,7.6,2.9c2,1.8,3.2,4.3,3.2,7v0.4c0,2.8-1.2,5.2-3.2,7c-2,1.8-4.6,2.9-7.6,2.9
		H205.7c-3,0-5.7-1.1-7.6-2.9c-2-1.8-3.2-4.3-3.2-7v-0.4c0-2.8,1.2-5.2,3.2-7C200,14.1,202.7,13,205.7,13L205.7,13 M461.4,0L86.7,0
		C38.7,0,0,34.5,0,77.4l0,95.8c0.1-0.1,0.3-0.2,0.4-0.3c42.2-32.4,80.7-56.9,117.5-75.7V59.6c0-3.5,2.8-6.3,6.3-6.3h115.6
		c82.4-18.5,169.8-18.7,288.9-24.6c0,0,0,0,0.1,0C513,11.2,488.7,0,461.4,0"/>
	
		<linearGradient id="SVGID_3_" gradientUnits="userSpaceOnUse" x1="-186.4543" y1="163.0902" x2="-185.4543" y2="163.0902" gradientTransform="matrix(211.2392 274.7877 274.7877 -211.2392 -5261.0737 85692.8594)">
		<stop  offset="0" style="stop-color:#EBEBEB"/>
		<stop  offset="1" style="stop-color:#D6D7DA"/>
	</linearGradient>
	<path class="st4" d="M422.5,53.3H239.9c-40.8,9.2-80.4,22.9-122,44v131.1c0,3.5,2.8,6.3,6.3,6.3h298.2c3.5,0,6.3-2.8,6.3-6.3V59.6
		C428.8,56.1,426,53.3,422.5,53.3"/>
	
		<linearGradient id="SVGID_4_" gradientUnits="userSpaceOnUse" x1="-185.2007" y1="162.9094" x2="-184.2007" y2="162.9094" gradientTransform="matrix(528.8799 0 0 -528.8799 97948.9531 86234.8047)">
		<stop  offset="0" style="stop-color:#FCFCFC"/>
		<stop  offset="1" style="stop-color:#E9EAEC"/>
	</linearGradient>
	<path class="st5" d="M239.9,53.3H124.3c-3.5,0-6.3,2.8-6.3,6.3v37.7C159.5,76.1,199.1,62.5,239.9,53.3"/>
	<path class="st6" d="M124.3,53.3v0.4h298.2c1.6,0,3.1,0.7,4.2,1.7s1.7,2.6,1.7,4.2v168.8c0,1.6-0.7,3.1-1.7,4.2
		c-1.1,1.1-2.6,1.7-4.2,1.7H124.3c-1.6,0-3.1-0.7-4.2-1.7c-1.1-1.1-1.7-2.6-1.7-4.2V59.6c0-1.6,0.7-3.1,1.7-4.2
		c1.1-1.1,2.6-1.7,4.2-1.7L124.3,53.3l0-0.4c-3.7,0-6.7,3-6.7,6.7v168.8c0,3.7,3,6.7,6.7,6.7h298.2c3.7,0,6.7-3,6.7-6.7V59.6
		c0-3.7-3-6.7-6.7-6.7H124.3V53.3z"/>
	
		<linearGradient id="SVGID_5_" gradientUnits="userSpaceOnUse" x1="-184.9479" y1="160.3092" x2="-183.9479" y2="160.3092" gradientTransform="matrix(-295.3357 -169.1915 -169.1915 295.3357 -27078.5781 -78408.6875)">
		<stop  offset="0" style="stop-color:#303135"/>
		<stop  offset="1" style="stop-color:#606368"/>
	</linearGradient>
	<rect x="125.1" y="59.7" class="st7" width="296.6" height="168.2"/>
	<polygon class="st8" points="421.7,227.9 421.7,227.6 125.5,227.6 125.5,60.1 421.3,60.1 421.3,227.9 421.7,227.9 421.7,227.6 
		421.7,227.9 422.1,227.9 422.1,59.4 124.7,59.4 124.7,228.3 422.1,228.3 422.1,227.9 	"/>
	<path class="st9" d="M446.9,225.9l0.4,0c0,0.2,0.1,0.3,0.1,0.4c0.1,0.1,0.2,0.2,0.3,0.2c0.1,0.1,0.3,0.1,0.5,0.1
		c0.2,0,0.3,0,0.4-0.1c0.1,0,0.2-0.1,0.3-0.2c0.1-0.1,0.1-0.2,0.1-0.3c0-0.1,0-0.2-0.1-0.3c-0.1-0.1-0.1-0.1-0.3-0.2
		c-0.1,0-0.3-0.1-0.6-0.2c-0.3-0.1-0.5-0.1-0.6-0.2c-0.1-0.1-0.3-0.2-0.3-0.3c-0.1-0.1-0.1-0.2-0.1-0.4c0-0.2,0-0.3,0.1-0.4
		s0.2-0.2,0.4-0.3c0.2-0.1,0.4-0.1,0.6-0.1c0.2,0,0.4,0,0.6,0.1c0.2,0.1,0.3,0.2,0.4,0.3s0.1,0.3,0.2,0.5l-0.4,0
		c0-0.2-0.1-0.3-0.2-0.4c-0.1-0.1-0.3-0.2-0.5-0.2c-0.2,0-0.4,0-0.5,0.1c-0.1,0.1-0.2,0.2-0.2,0.3c0,0.1,0,0.2,0.1,0.3
		c0.1,0.1,0.3,0.1,0.6,0.2c0.3,0.1,0.6,0.1,0.7,0.2c0.2,0.1,0.3,0.2,0.4,0.3c0.1,0.1,0.1,0.3,0.1,0.4c0,0.2,0,0.3-0.1,0.5
		s-0.2,0.3-0.4,0.3c-0.2,0.1-0.4,0.1-0.6,0.1c-0.3,0-0.5,0-0.7-0.1c-0.2-0.1-0.3-0.2-0.4-0.4C447,226.3,446.9,226.1,446.9,225.9z"/>
	<polygon class="st9" points="449.9,226.9 449.9,223.8 452.2,223.8 452.2,224.1 450.4,224.1 450.4,225.1 452.1,225.1 452.1,225.5 
		450.4,225.5 450.4,226.5 452.3,226.5 452.3,226.9 	"/>
	<polygon class="st9" points="452.8,226.9 452.8,223.8 453.2,223.8 453.2,226.5 454.8,226.5 454.8,226.9 	"/>
	<polygon class="st9" points="455.3,226.9 455.3,223.8 457.5,223.8 457.5,224.1 455.7,224.1 455.7,225.1 457.4,225.1 457.4,225.5 
		455.7,225.5 455.7,226.5 457.6,226.5 457.6,226.9 	"/>
	<path class="st9" d="M460.4,225.8l0.4,0.1c-0.1,0.3-0.2,0.6-0.5,0.8c-0.2,0.2-0.5,0.3-0.8,0.3c-0.3,0-0.6-0.1-0.8-0.2
		c-0.2-0.1-0.4-0.3-0.5-0.6c-0.1-0.3-0.2-0.5-0.2-0.8c0-0.3,0.1-0.6,0.2-0.8c0.1-0.2,0.3-0.4,0.5-0.5c0.2-0.1,0.5-0.2,0.8-0.2
		c0.3,0,0.6,0.1,0.8,0.2c0.2,0.2,0.4,0.4,0.4,0.7l-0.4,0.1c-0.1-0.2-0.2-0.4-0.3-0.5c-0.1-0.1-0.3-0.2-0.5-0.2
		c-0.2,0-0.4,0.1-0.6,0.2c-0.2,0.1-0.3,0.3-0.3,0.5c-0.1,0.2-0.1,0.4-0.1,0.6c0,0.3,0,0.5,0.1,0.7c0.1,0.2,0.2,0.3,0.4,0.4
		s0.3,0.1,0.5,0.1c0.2,0,0.4-0.1,0.6-0.2C460.2,226.3,460.3,226.1,460.4,225.8z"/>
	<polygon class="st9" points="462.1,226.9 462.1,224.1 461,224.1 461,223.8 463.5,223.8 463.5,224.1 462.5,224.1 462.5,226.9 	"/>
	<polygon class="st9" points="267.3,277.1 267.3,274 267.7,274 267.7,275.3 269.4,275.3 269.4,274 269.8,274 269.8,277.1 
		269.4,277.1 269.4,275.7 267.7,275.7 267.7,277.1 	"/>
	<path class="st9" d="M270.3,275.6c0-0.5,0.1-0.9,0.4-1.2c0.3-0.3,0.6-0.4,1.1-0.4c0.3,0,0.5,0.1,0.8,0.2c0.2,0.1,0.4,0.3,0.5,0.6
		c0.1,0.2,0.2,0.5,0.2,0.8c0,0.3-0.1,0.6-0.2,0.8c-0.1,0.2-0.3,0.4-0.5,0.6c-0.2,0.1-0.5,0.2-0.8,0.2c-0.3,0-0.6-0.1-0.8-0.2
		c-0.2-0.1-0.4-0.3-0.5-0.6C270.4,276.1,270.3,275.9,270.3,275.6z M270.8,275.6c0,0.4,0.1,0.7,0.3,0.9s0.5,0.3,0.8,0.3
		c0.3,0,0.6-0.1,0.8-0.3c0.2-0.2,0.3-0.5,0.3-0.9c0-0.3,0-0.5-0.1-0.7c-0.1-0.2-0.2-0.3-0.4-0.4s-0.3-0.2-0.6-0.2
		c-0.3,0-0.5,0.1-0.8,0.3C270.9,274.8,270.8,275.1,270.8,275.6z"/>
	<path class="st9" d="M273.8,277.1V274h0.6l0.7,2.2c0.1,0.2,0.1,0.4,0.1,0.5c0-0.1,0.1-0.3,0.2-0.5l0.7-2.2h0.6v3.1h-0.4v-2.6
		l-0.9,2.6h-0.4l-0.9-2.6v2.6H273.8z"/>
	<polygon class="st9" points="277.4,277.1 277.4,274 279.7,274 279.7,274.4 277.9,274.4 277.9,275.3 279.6,275.3 279.6,275.7 
		277.9,275.7 277.9,276.7 279.8,276.7 279.8,277.1 	"/>
	<path class="st9" d="M448.2,197.9l0.4,0c0,0.2,0.1,0.3,0.1,0.4c0.1,0.1,0.2,0.2,0.3,0.2c0.1,0.1,0.3,0.1,0.5,0.1
		c0.2,0,0.3,0,0.4-0.1c0.1,0,0.2-0.1,0.3-0.2c0.1-0.1,0.1-0.2,0.1-0.3c0-0.1,0-0.2-0.1-0.3s-0.1-0.1-0.3-0.2c-0.1,0-0.3-0.1-0.6-0.2
		c-0.3-0.1-0.5-0.1-0.6-0.2c-0.1-0.1-0.3-0.2-0.3-0.3c-0.1-0.1-0.1-0.2-0.1-0.4c0-0.2,0-0.3,0.1-0.4s0.2-0.2,0.4-0.3
		c0.2-0.1,0.4-0.1,0.6-0.1c0.2,0,0.4,0,0.6,0.1c0.2,0.1,0.3,0.2,0.4,0.3s0.1,0.3,0.2,0.5l-0.4,0c0-0.2-0.1-0.3-0.2-0.4
		c-0.1-0.1-0.3-0.2-0.5-0.2c-0.2,0-0.4,0-0.5,0.1c-0.1,0.1-0.2,0.2-0.2,0.3c0,0.1,0,0.2,0.1,0.3c0.1,0.1,0.3,0.1,0.6,0.2
		c0.3,0.1,0.6,0.1,0.7,0.2c0.2,0.1,0.3,0.2,0.4,0.3s0.1,0.3,0.1,0.4c0,0.2,0,0.3-0.1,0.5c-0.1,0.1-0.2,0.3-0.4,0.3
		c-0.2,0.1-0.4,0.1-0.6,0.1c-0.3,0-0.5,0-0.7-0.1s-0.3-0.2-0.4-0.4C448.3,198.3,448.2,198.1,448.2,197.9L448.2,197.9z"/>
	<polygon class="st9" points="452.1,198.9 452.1,196.2 451,196.2 451,195.8 453.5,195.8 453.5,196.2 452.5,196.2 452.5,198.9 	"/>
	<path class="st9" d="M453.6,198.9l1.2-3.1h0.4l1.3,3.1H456l-0.4-0.9h-1.3l-0.3,0.9H453.6z M454.5,197.6h1.1l-0.3-0.9
		c-0.1-0.3-0.2-0.5-0.2-0.6c0,0.2-0.1,0.4-0.2,0.6L454.5,197.6z"/>
	<path class="st9" d="M456.8,198.9v-3.1h1.4c0.3,0,0.5,0,0.6,0.1c0.1,0.1,0.3,0.2,0.3,0.3c0.1,0.1,0.1,0.3,0.1,0.5
		c0,0.2-0.1,0.4-0.2,0.6s-0.4,0.2-0.7,0.3c0.1,0.1,0.2,0.1,0.2,0.2c0.1,0.1,0.2,0.2,0.3,0.4l0.5,0.8H459l-0.4-0.6
		c-0.1-0.2-0.2-0.3-0.3-0.4c-0.1-0.1-0.1-0.2-0.2-0.2l-0.2-0.1c0,0-0.1,0-0.2,0h-0.5v1.4L456.8,198.9L456.8,198.9z M457.2,197.2h0.9
		c0.2,0,0.3,0,0.4-0.1c0.1,0,0.2-0.1,0.2-0.2c0.1-0.1,0.1-0.2,0.1-0.3c0-0.1-0.1-0.3-0.2-0.4c-0.1-0.1-0.3-0.1-0.5-0.1h-1V197.2z"/>
	<polygon class="st9" points="460.7,198.9 460.7,196.2 459.7,196.2 459.7,195.8 462.2,195.8 462.2,196.2 461.1,196.2 461.1,198.9 	
		"/>
	<path class="st9" d="M351.1,277v-3.2h1.2c0.2,0,0.4,0,0.6,0.1c0.1,0.1,0.3,0.2,0.3,0.3c0.1,0.1,0.1,0.3,0.1,0.4
		c0,0.1,0,0.3-0.1,0.4c-0.1,0.1-0.2,0.2-0.3,0.3c0.2,0.1,0.3,0.2,0.4,0.3c0.1,0.1,0.2,0.3,0.2,0.5c0,0.1,0,0.3-0.1,0.4
		s-0.1,0.2-0.2,0.3c-0.1,0.1-0.2,0.1-0.4,0.2c-0.1,0-0.3,0.1-0.5,0.1L351.1,277L351.1,277z M351.5,275.1h0.7c0.2,0,0.3,0,0.4,0
		c0.1,0,0.2-0.1,0.2-0.2s0.1-0.2,0.1-0.3c0-0.1,0-0.2-0.1-0.3c-0.1-0.1-0.1-0.1-0.2-0.2c-0.1,0-0.3,0-0.5,0h-0.6L351.5,275.1
		L351.5,275.1z M351.5,276.6h0.8c0.1,0,0.2,0,0.3,0c0.1,0,0.2,0,0.2-0.1l0.2-0.2c0-0.1,0.1-0.2,0.1-0.3c0-0.1,0-0.2-0.1-0.3
		c-0.1-0.1-0.1-0.1-0.3-0.2c-0.1,0-0.3-0.1-0.5-0.1h-0.7L351.5,276.6L351.5,276.6z"/>
	<path class="st9" d="M353.7,277l1.2-3.2h0.5l1.3,3.2h-0.5l-0.4-1h-1.3l-0.4,1H353.7z M354.6,275.7h1.1l-0.3-0.9
		c-0.1-0.3-0.2-0.5-0.2-0.7c0,0.2-0.1,0.4-0.2,0.6L354.6,275.7z"/>
	<polygon class="st9" points="357.9,277 357.9,274.2 356.8,274.2 356.8,273.8 359.4,273.8 359.4,274.2 358.3,274.2 358.3,277 	"/>
	<polygon class="st9" points="360.6,277 360.6,274.2 359.6,274.2 359.6,273.8 362.1,273.8 362.1,274.2 361,274.2 361,277 	"/>
	<polygon class="st9" points="362.6,277 362.6,273.8 364.9,273.8 364.9,274.2 363,274.2 363,275.2 364.8,275.2 364.8,275.5 
		363,275.5 363,276.6 364.9,276.6 364.9,277 	"/>
	<path class="st9" d="M365.5,277v-3.2h1.4c0.3,0,0.5,0,0.7,0.1c0.1,0.1,0.3,0.2,0.4,0.3c0.1,0.1,0.1,0.3,0.1,0.5
		c0,0.2-0.1,0.4-0.2,0.6c-0.1,0.2-0.4,0.3-0.7,0.3c0.1,0.1,0.2,0.1,0.3,0.2c0.1,0.1,0.2,0.3,0.4,0.4l0.6,0.9h-0.5l-0.4-0.7
		c-0.1-0.2-0.2-0.3-0.3-0.4s-0.2-0.2-0.2-0.2l-0.2-0.1c0,0-0.1,0-0.2,0H366v1.4H365.5z M366,275.2h0.9c0.2,0,0.3,0,0.5-0.1
		c0.1,0,0.2-0.1,0.3-0.2c0.1-0.1,0.1-0.2,0.1-0.3c0-0.2-0.1-0.3-0.2-0.4c-0.1-0.1-0.3-0.1-0.5-0.1h-1L366,275.2L366,275.2z"/>
	<path class="st9" d="M369.7,277v-1.4l-1.2-1.8h0.5l0.6,1c0.1,0.2,0.2,0.4,0.3,0.5c0.1-0.2,0.2-0.4,0.4-0.6l0.6-0.9h0.5l-1.3,1.8
		v1.4H369.7z"/>
	<path class="st9" d="M409.2,276.9v-3.1h1.2c0.2,0,0.4,0,0.5,0c0.2,0,0.3,0.1,0.4,0.1c0.1,0.1,0.2,0.2,0.2,0.3
		c0.1,0.1,0.1,0.3,0.1,0.4c0,0.3-0.1,0.5-0.3,0.7c-0.2,0.2-0.5,0.3-0.9,0.3h-0.8v1.3C409.6,276.9,409.2,276.9,409.2,276.9z
		 M409.6,275.3h0.8c0.3,0,0.5,0,0.6-0.1c0.1-0.1,0.2-0.2,0.2-0.4c0-0.1,0-0.2-0.1-0.3c-0.1-0.1-0.2-0.2-0.3-0.2c-0.1,0-0.2,0-0.4,0
		h-0.8L409.6,275.3L409.6,275.3z"/>
	<path class="st9" d="M412,275.4c0-0.5,0.1-0.9,0.4-1.2c0.3-0.3,0.6-0.4,1.1-0.4c0.3,0,0.5,0.1,0.8,0.2c0.2,0.1,0.4,0.3,0.5,0.6
		c0.1,0.2,0.2,0.5,0.2,0.8c0,0.3-0.1,0.6-0.2,0.8c-0.1,0.2-0.3,0.4-0.5,0.6c-0.2,0.1-0.5,0.2-0.8,0.2c-0.3,0-0.6-0.1-0.8-0.2
		c-0.2-0.1-0.4-0.3-0.5-0.6C412,275.9,412,275.7,412,275.4z M412.4,275.4c0,0.4,0.1,0.7,0.3,0.9c0.2,0.2,0.5,0.3,0.8,0.3
		c0.3,0,0.6-0.1,0.8-0.3c0.2-0.2,0.3-0.5,0.3-0.9c0-0.3,0-0.5-0.1-0.7c-0.1-0.2-0.2-0.3-0.4-0.4s-0.3-0.2-0.6-0.2
		c-0.3,0-0.5,0.1-0.7,0.3C412.5,274.6,412.4,274.9,412.4,275.4z"/>
	<path class="st9" d="M416,276.9l-0.8-3.1h0.4l0.5,2c0.1,0.2,0.1,0.4,0.1,0.6c0.1-0.3,0.1-0.5,0.1-0.6l0.6-2.1h0.5l0.4,1.6
		c0.1,0.4,0.2,0.8,0.2,1.1c0-0.2,0.1-0.4,0.2-0.7l0.5-2h0.4l-0.9,3.1h-0.4l-0.7-2.4c-0.1-0.2-0.1-0.3-0.1-0.4c0,0.1-0.1,0.3-0.1,0.4
		l-0.7,2.4C416.4,276.9,416,276.9,416,276.9z"/>
	<polygon class="st9" points="419.6,276.9 419.6,273.8 421.8,273.8 421.8,274.2 420,274.2 420,275.1 421.7,275.1 421.7,275.5 
		420,275.5 420,276.5 421.9,276.5 421.9,276.9 	"/>
	<path class="st9" d="M422.5,276.9v-3.1h1.4c0.3,0,0.5,0,0.6,0.1c0.1,0.1,0.3,0.2,0.3,0.3c0.1,0.1,0.1,0.3,0.1,0.5
		c0,0.2-0.1,0.4-0.2,0.6c-0.1,0.2-0.4,0.2-0.7,0.3c0.1,0.1,0.2,0.1,0.2,0.2c0.1,0.1,0.2,0.2,0.3,0.4l0.5,0.8h-0.5l-0.4-0.6
		c-0.1-0.2-0.2-0.3-0.3-0.4c-0.1-0.1-0.1-0.2-0.2-0.2l-0.2-0.1c0,0-0.1,0-0.2,0h-0.5v1.4L422.5,276.9L422.5,276.9z M422.9,275.2h0.9
		c0.2,0,0.3,0,0.4-0.1c0.1,0,0.2-0.1,0.2-0.2c0.1-0.1,0.1-0.2,0.1-0.3c0-0.1-0.1-0.3-0.2-0.4c-0.1-0.1-0.3-0.1-0.5-0.1h-1V275.2z"/>
	<path class="st9" d="M237.5,277.1V274h0.6l0.7,2.2c0.1,0.2,0.1,0.4,0.1,0.5c0-0.1,0.1-0.3,0.2-0.5l0.7-2.2h0.6v3.1h-0.4v-2.6
		l-0.9,2.6h-0.4l-0.9-2.6v2.6H237.5z"/>
	<rect x="241.2" y="274" class="st9" width="0.4" height="3.1"/>
	<path class="st9" d="M244.6,276l0.4,0.1c-0.1,0.3-0.2,0.6-0.5,0.8c-0.2,0.2-0.5,0.3-0.8,0.3c-0.3,0-0.6-0.1-0.8-0.2
		c-0.2-0.1-0.4-0.3-0.5-0.6c-0.1-0.3-0.2-0.5-0.2-0.8c0-0.3,0.1-0.6,0.2-0.8c0.1-0.2,0.3-0.4,0.5-0.5c0.2-0.1,0.5-0.2,0.8-0.2
		c0.3,0,0.6,0.1,0.8,0.2s0.4,0.4,0.4,0.7l-0.4,0.1c-0.1-0.2-0.2-0.4-0.3-0.5c-0.1-0.1-0.3-0.2-0.5-0.2c-0.2,0-0.4,0.1-0.6,0.2
		c-0.2,0.1-0.3,0.3-0.3,0.5c-0.1,0.2-0.1,0.4-0.1,0.6c0,0.3,0,0.5,0.1,0.7c0.1,0.2,0.2,0.3,0.4,0.4c0.2,0.1,0.3,0.1,0.5,0.1
		c0.2,0,0.4-0.1,0.6-0.2C244.4,276.5,244.5,276.3,244.6,276z"/>
	
		<linearGradient id="SVGID_6_" gradientUnits="userSpaceOnUse" x1="-163.7549" y1="154.9408" x2="-162.7549" y2="154.9408" gradientTransform="matrix(-2.1695 -24.267 -24.267 2.1695 3679.0996 -4274.3994)">
		<stop  offset="0" style="stop-color:#1C1C1E"/>
		<stop  offset="1" style="stop-color:#9BA2AA"/>
	</linearGradient>
	<path class="st10" d="M340.9,13.9L340.9,13.9H205.7c-2.8,0-5.2,1-7,2.7c-1.8,1.6-2.9,3.9-2.9,6.4v0.4c0,2.5,1.1,4.8,2.9,6.4
		c1.8,1.6,4.3,2.7,7,2.7h135.2c2.8,0,5.2-1,7-2.7c1.8-1.6,2.9-3.9,2.9-6.4v-0.4c0-2.5-1.1-4.8-2.9-6.4
		C346.2,14.9,343.7,13.9,340.9,13.9"/>
	<path class="st11" d="M205.7,13.4v0.4h135.2c2.8,0,5.2,1,7,2.7c1.8,1.6,2.9,3.9,2.9,6.4v0.4c0,2.5-1.1,4.8-2.9,6.4
		c-1.8,1.6-4.3,2.7-7,2.7H205.7c-2.8,0-5.2-1-7-2.7c-1.8-1.6-2.9-3.9-2.9-6.4v-0.4c0-2.5,1.1-4.8,2.9-6.4c1.8-1.6,4.3-2.7,7-2.7
		V13.4V13c-3,0-5.7,1.1-7.6,2.9c-2,1.8-3.2,4.3-3.2,7v0.4c0,2.8,1.2,5.2,3.2,7c2,1.8,4.6,2.9,7.6,2.9h135.2c3,0,5.7-1.1,7.6-2.9
		c2-1.8,3.2-4.3,3.2-7v-0.4c0-2.8-1.2-5.2-3.2-7c-2-1.8-4.6-2.9-7.6-2.9H205.7V13.4"/>
	<g>
		<path class="st12" d="M158.4,257c0,2.9,3.4,2.5,3.4,0.5v-4.8h-3.4V257z"/>
		<path class="st12" d="M153.6,260.1c0,1.4,1,2.3,2.4,2.3h8.3c1.2,0,2.2-0.8,2.2-2.1v-6c0-0.7-0.5-1.5-1.2-1.5h-1.9v5
			c0,3.8-6.6,3.7-6.6,0.1v-5.1h-1.5c-0.9,0-1.8,0.6-1.8,1.5L153.6,260.1L153.6,260.1z"/>
		<path class="st12" d="M142.2,254.1c0,0.8,0.7,1.4,1.5,1.4c0.9,0,1.5-0.6,1.5-1.4s-0.7-1.4-1.5-1.4
			C142.9,252.7,142.2,253.3,142.2,254.1z"/>
		<rect x="142.5" y="257" class="st12" width="2.6" height="8.3"/>
		<path class="st12" d="M147.4,254.1c0,0.8,0.7,1.4,1.5,1.4c0.8,0,1.5-0.6,1.5-1.4s-0.7-1.4-1.5-1.4
			C148.1,252.7,147.4,253.3,147.4,254.1z"/>
		<rect x="147.6" y="257" class="st12" width="2.6" height="8.3"/>
		<path class="st12" d="M138.4,253.4l-2.2,8.8c0,0-1.7-6.6-2-7.5c-0.3-0.9-0.8-1.3-1.6-1.3c-0.8,0-1.4,0.4-1.7,1.3
			c-0.3,0.9-2,7.5-2,7.5l-2.3-8.8h-2.7c0,0,2.6,9.3,2.9,10.4c0.3,0.8,0.9,1.5,1.9,1.5c1.1,0,1.6-0.8,1.9-1.5
			c0.2-0.7,1.9-6.9,1.9-6.9s1.7,6.2,1.9,6.9c0.2,0.7,0.8,1.5,1.9,1.5c1,0,1.6-0.7,1.9-1.5c0.4-1.1,2.9-10.4,2.9-10.4H138.4z"/>
	</g>
	<path class="st9" d="M381.7,275.9c-0.2,0.8-0.6,1.3-1.3,1.3c-0.4,0-0.8-0.2-1-0.5c-0.3-0.3-0.4-0.7-0.4-1.2c0-0.5,0.1-0.9,0.3-1.2
		c0.3-0.3,0.6-0.5,1.1-0.5c0.3,0,0.6,0.1,0.8,0.3c0.2,0.2,0.4,0.4,0.5,0.8h-0.4c-0.2-0.4-0.5-0.7-0.9-0.7c-0.3,0-0.5,0.1-0.7,0.4
		c-0.2,0.2-0.3,0.6-0.3,1c0,0.4,0.1,0.7,0.3,0.9c0.2,0.2,0.4,0.4,0.7,0.4c0.5,0,0.8-0.3,0.9-0.9L381.7,275.9L381.7,275.9z"/>
	<path class="st9" d="M385.1,275.5c0,0.5-0.1,0.9-0.4,1.2c-0.3,0.3-0.7,0.4-1.1,0.4c-0.5,0-0.8-0.2-1.1-0.5
		c-0.3-0.3-0.4-0.7-0.4-1.2c0-0.5,0.1-0.9,0.4-1.2c0.3-0.3,0.7-0.5,1.1-0.5c0.5,0,0.9,0.2,1.2,0.5C385,274.6,385.1,275,385.1,275.5z
		 M384.7,275.4c0-0.4-0.1-0.7-0.3-0.9c-0.2-0.2-0.5-0.4-0.8-0.4c-0.4,0-0.6,0.1-0.9,0.4c-0.2,0.2-0.3,0.5-0.3,0.9
		c0,0.4,0.1,0.7,0.3,0.9c0.2,0.2,0.5,0.4,0.8,0.4c0.4,0,0.6-0.1,0.8-0.4C384.6,276.1,384.7,275.8,384.7,275.4z"/>
	<polygon class="st9" points="388.1,277 387.6,277 386,274.5 386,277 385.6,277 385.6,273.9 386.1,273.9 387.7,276.4 387.7,273.9 
		388.1,273.9 	"/>
	<polygon class="st9" points="391,274.2 389.9,274.2 389.9,277 389.5,277 389.5,274.2 388.5,274.2 388.5,273.9 391,273.9 	"/>
	<path class="st9" d="M394,277h-0.5c0-0.1-0.1-0.2-0.1-0.3c0-0.1,0-0.3,0-0.5c0-0.4-0.2-0.6-0.5-0.6h-1.1v1.4h-0.4v-3.2h1.4
		c0.4,0,0.6,0.1,0.8,0.2c0.1,0.1,0.2,0.4,0.2,0.6c0,0.3-0.1,0.5-0.4,0.7c0.1,0.1,0.2,0.2,0.3,0.3c0,0.1,0.1,0.1,0.1,0.3
		c0,0.1,0,0.4,0,0.7c0,0.1,0.1,0.2,0.1,0.3L394,277L394,277z M393.5,274.7c0-0.1-0.1-0.3-0.2-0.4c-0.1-0.1-0.2-0.1-0.4-0.1h-1.1v1.1
		h1.1C393.3,275.3,393.5,275.1,393.5,274.7z"/>
	<path class="st9" d="M397.4,275.5c0,0.5-0.1,0.9-0.4,1.2c-0.3,0.3-0.7,0.4-1.1,0.4c-0.5,0-0.8-0.2-1.1-0.5
		c-0.3-0.3-0.4-0.7-0.4-1.2c0-0.5,0.1-0.9,0.4-1.2c0.3-0.3,0.7-0.5,1.1-0.5c0.5,0,0.9,0.2,1.2,0.5
		C397.3,274.6,397.4,275,397.4,275.5z M397,275.4c0-0.4-0.1-0.7-0.3-0.9c-0.2-0.2-0.5-0.4-0.8-0.4c-0.4,0-0.6,0.1-0.9,0.4
		c-0.2,0.2-0.3,0.5-0.3,0.9c0,0.4,0.1,0.7,0.3,0.9c0.2,0.2,0.5,0.4,0.8,0.4c0.4,0,0.6-0.1,0.8-0.4C396.9,276.1,397,275.8,397,275.4z
		"/>
	<polygon class="st9" points="399.8,277 397.9,277 397.9,273.9 398.3,273.9 398.3,276.7 399.8,276.7 	"/>
	<path class="st13" d="M89.6,257.3h5.6c1.4,0,2.5,1,2.5,2.2s-1.1,2.2-2.5,2.2h-5.6c-1.4,0-2.5-1-2.5-2.2
		C87.1,258.3,88.2,257.3,89.6,257.3z"/>
	<path class="st13" d="M452.8,257.3h5.6c1.4,0,2.5,1,2.5,2.2s-1.1,2.2-2.5,2.2h-5.6c-1.4,0-2.5-1-2.5-2.2
		C450.3,258.3,451.4,257.3,452.8,257.3z"/>
	
		<linearGradient id="SVGID_7_" gradientUnits="userSpaceOnUse" x1="-162.0482" y1="156.6365" x2="-161.0482" y2="156.6365" gradientTransform="matrix(1.038835e-09 -23.1384 -23.1384 -1.038835e-09 3897.8601 -3478.6423)">
		<stop  offset="0" style="stop-color:#4969AA"/>
		<stop  offset="1" style="stop-color:#98B0D9"/>
	</linearGradient>
	<path class="st14" d="M262,259c-0.2,6.4,4.9,11.7,11.4,11.9c0.1,0,0.2,0,0.3,0c6.5-0.1,11.6-5.5,11.4-11.8
		c-0.1-6.2-5.2-11.2-11.4-11.3C267.4,247.8,262.2,252.7,262,259z M264.6,259.3c0-4.9,4-8.9,9-8.9s9,4,9,8.9s-4,8.9-9,8.9
		S264.6,264.3,264.6,259.3z"/>
	<path class="st15" d="M273.5,247.3c-3.2,0-6.3,1.3-8.5,3.5c-2.2,2.2-3.5,5.3-3.5,8.5c0,3.2,1.3,6.3,3.5,8.5s5.4,3.5,8.5,3.5
		s6.3-1.3,8.5-3.5c2.2-2.2,3.5-5.4,3.5-8.5c0-3.2-1.3-6.3-3.5-8.5C279.8,248.6,276.7,247.3,273.5,247.3z M273.5,248.2
		c2.9,0,5.8,1.2,7.9,3.3c2.1,2.1,3.2,4.9,3.2,7.8c0,2.9-1.2,5.8-3.3,7.9s-4.9,3.2-7.8,3.2s-5.8-1.2-7.8-3.2s-3.3-5-3.3-7.9
		c0-2.9,1.2-5.8,3.2-7.8C267.7,249.4,270.6,248.2,273.5,248.2z"/>
	<path class="st16" d="M273.9,253.6l-5.9,5.5h1.9v4.6h8.1v-4.6h1.9L273.9,253.6z M271.8,259h4.1v3h-4.1V259z"/>
	<path class="st13" d="M242.3,259.3c0,0.6-0.5,1-1,1s-1-0.5-1-1s0.5-1,1-1S242.3,258.8,242.3,259.3z"/>
	<path class="st13" d="M362.9,259.5c0,0.9-0.7,1.7-1.7,1.7c-0.9,0-1.7-0.7-1.7-1.7c0-0.9,0.7-1.7,1.7-1.7
		C362.1,257.9,362.9,258.6,362.9,259.5L362.9,259.5z"/>
	<path class="st11" d="M386.8,253.1v0.5h5.2c1.8,0,3.3,1.5,3.3,3.3v5.2c0,1.8-1.5,3.3-3.3,3.3h-5.2c-1.8,0-3.3-1.5-3.3-3.3v-5.2
		c0-1.8,1.5-3.3,3.3-3.3V253.1v-0.5c-2.4,0-4.3,1.9-4.3,4.3v5.2c0,2.4,1.9,4.3,4.3,4.3h5.2c2.4,0,4.3-1.9,4.3-4.3v-5.2
		c0-2.4-1.9-4.3-4.3-4.3h-5.2V253.1z"/>
	<polygon class="st17" points="386.6,262.1 386.6,257.8 385.1,257.8 385.1,256.9 389,256.9 389,257.8 387.6,257.8 387.6,262.1 	"/>
	<polygon class="st17" points="390.9,262.1 389.1,256.9 390.2,256.9 391.4,260.8 392.6,256.9 393.6,256.9 391.9,262.1 	"/>
	<path class="st11" d="M423.6,259.9h-0.5c0,3.3-2.7,5.9-5.9,5.9h0l0,0.5v-0.5c-3.3,0-5.9-2.6-5.9-5.9v0v0l-0.1,0h0.1v0l-0.1,0h0.1
		c0-3.3,2.6-5.9,5.9-5.9h0h0l0-0.1v0.1h0l0-0.1v0.1c3.3,0,5.9,2.6,5.9,5.9v0H423.6h0.5v0c0-3.8-3.1-6.8-6.8-6.8h0l0,0.5v-0.5
		c-3.8,0-6.8,3.1-6.8,6.8v0l0.5,0h-0.5c0,3.8,3.1,6.8,6.8,6.8h0h0l0-0.4v0.4h0l0-0.4v0.4h0c3.8,0,6.8-3.1,6.8-6.8H423.6z"/>
	<path class="st18" d="M415.7,257.8c-1.2,0.7-1.8,2.1-1.4,3.4c0.4,1.3,1.6,2.3,3,2.3c1.4,0,2.6-1,3-2.3c0.4-1.3-0.3-2.8-1.4-3.4
		l-0.4,0.7c0.9,0.5,1.3,1.6,1.1,2.6c-0.3,0.9-1.2,1.7-2.2,1.7s-2-0.8-2.2-1.7c-0.3-0.9,0.2-2.1,1.1-2.6L415.7,257.8z"/>
	<rect x="416.8" y="257" class="st18" width="0.8" height="3.3"/>
	<path class="st19" d="M84.8,204.2v-11.4c0-2.3-1.4-3.5-3.4-3.5H61.8v0.9h19.6c1.6,0,2.5,1,2.5,2.5v11.4H84.8z"/>
	<path class="st20" d="M62.2,191.5c-1,0-1.8,0.7-1.8,1.6V204c0,0.9,0.9,1.6,1.8,1.6h18.6c1,0,1.8-0.7,1.8-1.6v-10.9
		c0-0.9-0.9-1.6-1.8-1.6C80.9,191.5,62.2,191.5,62.2,191.5z M62.2,192.3h18.6c0.6,0,1,0.4,1,0.8V204c0,0.4-0.4,0.8-1,0.8H62.2
		c-0.6,0-1-0.4-1-0.8v-10.9C61.2,192.7,61.6,192.3,62.2,192.3z"/>
	
		<linearGradient id="SVGID_8_" gradientUnits="userSpaceOnUse" x1="-179.6485" y1="154.0405" x2="-178.6485" y2="154.0405" gradientTransform="matrix(-37.3352 -43.0484 -43.0484 37.3352 14.4816 -13333.8008)">
		<stop  offset="0" style="stop-color:#FFFFFF"/>
		<stop  offset="1" style="stop-color:#C6C6CE"/>
	</linearGradient>
	<path class="st21" d="M66.1,104.7c-1.1,0-2,0.9-2,2.1v14.9H49.2c-1.1,0-2,0.9-2,2.1V135c0,1.1,0.9,2.1,2,2.1h14.9V152
		c0,1.1,0.9,2.1,2,2.1h11.4c1.1,0,2-0.9,2-2.1v-14.9h14.9c1.1,0,2-0.9,2-2.1v-11.3c0-1.1-0.9-2.1-2-2.1H79.5v-14.9
		c0-1.1-0.9-2.1-2-2.1L66.1,104.7L66.1,104.7z"/>
	<rect x="71.7" y="140.4" class="st11" width="1.2" height="8.2"/>
	<rect x="52.7" y="128.8" class="st11" width="8.2" height="1.2"/>
	<rect x="82.7" y="128.8" class="st11" width="8.2" height="1.2"/>
	<rect x="71.7" y="110.2" class="st11" width="1.2" height="8.2"/>
	<path class="st22" d="M66.1,104.7c-1.1,0-2,0.9-2,2.1v14.9H49.2c-1.1,0-2,0.9-2,2.1V135c0,1.1,0.9,2.1,2,2.1h1v-10.3
		c0-1.1,0.9-2.1,2-2.1h14.9v-14.9c0-1.1,0.9-2.1,2-2.1h10.3v-1.1c0-1.1-0.9-2.1-2-2.1L66.1,104.7L66.1,104.7z M80,121.6v3.1h16.5
		v-1.1c0-1.1-0.9-2.1-2-2.1H80z M64.1,137.8V152c0,1.1,0.9,2.1,2,2.1h1v-16.3L64.1,137.8L64.1,137.8z"/>
	<path class="st9" d="M66.9,104.1c-1.6,0-2.9,1.4-2.9,3v14.3H49.7c-1.6,0-3,1.4-3,3V135c0,1.6,1.3,3,3,3h14.2v14c0,1.6,1.3,3,2.9,3
		h10.6c1.6,0,2.9-1.4,2.9-3l0.8-13.1l13.2-0.9c1.6-0.1,2.9-1.4,2.9-3v-10.7c0-1.6-1.3-3-2.9-3h-14v-14.3c0-1.6-1.3-3-2.9-3
		L66.9,104.1L66.9,104.1z M66.1,105.6h11.4c0.6,0,1.1,0.5,1.1,1.1v14.9v0.9h0.9h14.9c0.6,0,1.1,0.5,1.1,1.1V135
		c0,0.6-0.5,1.1-1.1,1.1H79.5h-0.9v0.9V152c0,0.6-0.5,1.1-1.1,1.1H66.1c-0.6,0-1.1-0.5-1.1-1.1v-14.9v-0.9h-0.9H49.2
		c-0.6,0-1.1-0.5-1.1-1.1v-11.3c0-0.6,0.5-1.1,1.1-1.1h14.9H65v-0.9v-14.9C65,106.1,65.5,105.6,66.1,105.6z"/>
	
		<radialGradient id="SVGID_9_" cx="-196.4268" cy="111.7036" r="1.0004" gradientTransform="matrix(-11.0028 0 0 10.7853 -1658.0995 -1073.6412)" gradientUnits="userSpaceOnUse">
		<stop  offset="0" style="stop-color:#656464"/>
		<stop  offset="0.6381" style="stop-color:#656464"/>
		<stop  offset="1" style="stop-color:#DCDCDC"/>
	</radialGradient>
	<path class="st23" d="M492.2,131.1c0-6,4.9-10.9,10.9-10.9s10.9,4.9,10.9,10.9v0c0,6-4.9,10.9-10.9,10.9
		C497.1,142,492.2,137.2,492.2,131.1z"/>
	
		<linearGradient id="SVGID_10_" gradientUnits="userSpaceOnUse" x1="-233.2748" y1="172.5669" x2="-232.2748" y2="172.5669" gradientTransform="matrix(-5.076592e-10 11.3073 11.3073 5.076592e-10 -1449.9082 2764.678)">
		<stop  offset="0" style="stop-color:#FFFFFF"/>
		<stop  offset="1" style="stop-color:#9EA5AD"/>
	</linearGradient>
	<path class="st24" d="M511.4,128.7c0,5.6-4.5,10.1-10.1,10.1s-10.1-4.5-10.1-10.1s4.5-10.1,10.1-10.1S511.4,123.2,511.4,128.7z"/>
	<path class="st11" d="M511.4,128.7h-0.5c0,2.6-1.1,5-2.8,6.8c-1.7,1.7-4.1,2.8-6.8,2.8s-5-1.1-6.8-2.8c-1.7-1.7-2.8-4.1-2.8-6.8
		c0-2.6,1.1-5,2.8-6.8c1.7-1.7,4.1-2.8,6.8-2.8s5,1.1,6.8,2.8s2.8,4.1,2.8,6.8H511.4h0.5c0-5.8-4.7-10.5-10.5-10.5
		c-5.8,0-10.5,4.7-10.5,10.5c0,5.8,4.7,10.5,10.5,10.5c5.8,0,10.5-4.7,10.5-10.5L511.4,128.7L511.4,128.7z"/>
	<path class="st9" d="M498,132.3l2.7-7.2h1l2.9,7.2h-1.1l-0.8-2.2h-3l-0.8,2.2H498z M500.1,129.4h2.4l-0.7-2
		c-0.2-0.6-0.4-1.1-0.5-1.5c-0.1,0.5-0.2,0.9-0.4,1.4L500.1,129.4z"/>
	
		<radialGradient id="SVGID_11_" cx="-196.4268" cy="111.7037" r="1.0003" gradientTransform="matrix(-11.0028 0 0 10.7853 -1680.0327 -1051.9943)" gradientUnits="userSpaceOnUse">
		<stop  offset="0" style="stop-color:#656464"/>
		<stop  offset="0.6381" style="stop-color:#656464"/>
		<stop  offset="1" style="stop-color:#DCDCDC"/>
	</radialGradient>
	<path class="st25" d="M470.3,152.8c0-6,4.9-10.9,10.9-10.9c6,0,10.9,4.9,10.9,10.9v0c0,6-4.9,10.9-10.9,10.9
		C475.2,163.7,470.3,158.8,470.3,152.8z"/>
	
		<linearGradient id="SVGID_12_" gradientUnits="userSpaceOnUse" x1="-233.2748" y1="172.5669" x2="-232.2748" y2="172.5669" gradientTransform="matrix(-5.076592e-10 11.3073 11.3073 5.076592e-10 -1471.8413 2786.325)">
		<stop  offset="0" style="stop-color:#FFFFFF"/>
		<stop  offset="1" style="stop-color:#9EA5AD"/>
	</linearGradient>
	<path class="st26" d="M489.5,150.4c0,5.6-4.5,10.1-10.1,10.1s-10.1-4.5-10.1-10.1c0-5.6,4.5-10.1,10.1-10.1
		C485,140.3,489.5,144.8,489.5,150.4z"/>
	<path class="st11" d="M489.5,150.4H489c0,2.6-1.1,5-2.8,6.8c-1.7,1.7-4.1,2.8-6.8,2.8s-5-1.1-6.8-2.8c-1.7-1.7-2.8-4.1-2.8-6.8
		s1.1-5,2.8-6.8c1.7-1.7,4.1-2.8,6.8-2.8s5,1.1,6.8,2.8c1.7,1.7,2.8,4.1,2.8,6.8H489.5h0.5c0-5.8-4.7-10.5-10.5-10.5
		c-5.8,0-10.5,4.7-10.5,10.5c0,5.8,4.7,10.5,10.5,10.5s10.5-4.7,10.5-10.5H489.5z"/>
	<path class="st9" d="M476.7,154v-7.1h2.7c0.5,0,1,0.1,1.3,0.2c0.3,0.1,0.6,0.4,0.8,0.7c0.2,0.3,0.3,0.6,0.3,0.9
		c0,0.3-0.1,0.6-0.2,0.9s-0.4,0.5-0.8,0.7c0.4,0.1,0.8,0.3,1,0.6s0.3,0.7,0.3,1.1c0,0.3-0.1,0.6-0.2,0.9c-0.1,0.3-0.3,0.5-0.5,0.7
		c-0.2,0.2-0.5,0.3-0.8,0.4c-0.3,0.1-0.7,0.1-1.2,0.1L476.7,154L476.7,154z M477.7,149.8h1.5c0.4,0,0.7,0,0.9-0.1
		c0.2-0.1,0.4-0.2,0.5-0.4c0.1-0.2,0.2-0.4,0.2-0.6c0-0.2-0.1-0.4-0.2-0.6c-0.1-0.2-0.3-0.3-0.5-0.4c-0.2-0.1-0.6-0.1-1.1-0.1h-1.4
		L477.7,149.8L477.7,149.8z M477.7,153.1h1.8c0.3,0,0.5,0,0.6,0c0.2,0,0.4-0.1,0.5-0.2s0.3-0.2,0.4-0.4c0.1-0.2,0.1-0.4,0.1-0.6
		c0-0.3-0.1-0.5-0.2-0.7c-0.1-0.2-0.3-0.3-0.6-0.4s-0.6-0.1-1-0.1h-1.7L477.7,153.1L477.7,153.1z"/>
	
		<radialGradient id="SVGID_13_" cx="-196.4288" cy="111.6982" r="0.9997" gradientTransform="matrix(-11.0012 0 0 10.7838 -1701.455 -1073.4288)" gradientUnits="userSpaceOnUse">
		<stop  offset="0" style="stop-color:#656464"/>
		<stop  offset="0.6381" style="stop-color:#656464"/>
		<stop  offset="1" style="stop-color:#DCDCDC"/>
	</radialGradient>
	<path class="st27" d="M448.6,131.1c0-6,4.9-10.9,10.9-10.9s10.9,4.9,10.9,10.9c0,6-4.9,10.9-10.9,10.9
		C453.5,142,448.6,137.1,448.6,131.1z"/>
	
		<linearGradient id="SVGID_14_" gradientUnits="userSpaceOnUse" x1="-233.2748" y1="172.5669" x2="-232.2748" y2="172.5669" gradientTransform="matrix(-5.076592e-10 11.3073 11.3073 5.076592e-10 -1493.5562 2764.6599)">
		<stop  offset="0" style="stop-color:#FFFFFF"/>
		<stop  offset="1" style="stop-color:#9EA5AD"/>
	</linearGradient>
	<path class="st28" d="M467.8,128.7c0,5.6-4.5,10.1-10.1,10.1s-10.1-4.5-10.1-10.1c0-5.6,4.5-10.1,10.1-10.1
		S467.8,123.2,467.8,128.7z"/>
	<path class="st11" d="M467.8,128.7h-0.5c0,2.6-1.1,5-2.8,6.8c-1.7,1.7-4.1,2.8-6.8,2.8s-5-1.1-6.8-2.8c-1.7-1.7-2.8-4.1-2.8-6.8
		c0-2.6,1.1-5,2.8-6.8c1.7-1.7,4.1-2.8,6.8-2.8s5,1.1,6.8,2.8s2.8,4.1,2.8,6.8H467.8h0.5c0-5.8-4.7-10.5-10.5-10.5
		c-5.8,0-10.5,4.7-10.5,10.5c0,5.8,4.7,10.5,10.5,10.5c5.8,0,10.5-4.7,10.5-10.5L467.8,128.7L467.8,128.7z"/>
	<path class="st9" d="M457.2,132.3v-3l-2.8-4.1h1.1l1.4,2.2c0.3,0.4,0.5,0.8,0.7,1.2c0.2-0.4,0.5-0.8,0.8-1.3l1.4-2.1h1.1l-2.9,4.1
		v3L457.2,132.3L457.2,132.3z"/>
	
		<radialGradient id="SVGID_15_" cx="-196.4267" cy="111.7037" r="1.0003" gradientTransform="matrix(-11.0028 0 0 10.7853 -1680.0332 -1095.5055)" gradientUnits="userSpaceOnUse">
		<stop  offset="0" style="stop-color:#656464"/>
		<stop  offset="0.6381" style="stop-color:#656464"/>
		<stop  offset="1" style="stop-color:#DCDCDC"/>
	</radialGradient>
	<path class="st29" d="M470.3,109.3c0-6,4.9-10.9,10.9-10.9s10.9,4.9,10.9,10.9v0c0,6-4.9,10.9-10.9,10.9
		C475.2,120.2,470.3,115.3,470.3,109.3z"/>
	
		<linearGradient id="SVGID_16_" gradientUnits="userSpaceOnUse" x1="-233.2748" y1="172.5669" x2="-232.2748" y2="172.5669" gradientTransform="matrix(-5.076592e-10 11.3073 11.3073 5.076592e-10 -1471.8418 2742.8132)">
		<stop  offset="0" style="stop-color:#FFFFFF"/>
		<stop  offset="1" style="stop-color:#9EA5AD"/>
	</linearGradient>
	<path class="st30" d="M489.5,106.9c0,5.6-4.5,10.1-10.1,10.1s-10.1-4.5-10.1-10.1c0-5.6,4.5-10.1,10.1-10.1
		S489.5,101.3,489.5,106.9z"/>
	<path class="st11" d="M489.5,106.9H489c0,2.6-1.1,5-2.8,6.8c-1.7,1.7-4.1,2.8-6.8,2.8s-5-1.1-6.8-2.8c-1.7-1.7-2.8-4.1-2.8-6.8
		c0-2.6,1.1-5,2.8-6.8c1.7-1.7,4.1-2.8,6.8-2.8s5,1.1,6.8,2.8c1.7,1.7,2.8,4.1,2.8,6.8H489.5h0.5c0-5.8-4.7-10.5-10.5-10.5
		c-5.8,0-10.5,4.7-10.5,10.5c0,5.8,4.7,10.5,10.5,10.5c5.8,0,10.5-4.7,10.5-10.5H489.5z"/>
	<path class="st9" d="M476.1,110.5l2.8-3.7l-2.4-3.4h1.1l1.3,1.8c0.3,0.4,0.5,0.7,0.6,0.9c0.2-0.3,0.3-0.5,0.6-0.8l1.4-1.9h1
		l-2.5,3.4l2.7,3.8h-1.2l-1.8-2.6c-0.1-0.1-0.2-0.3-0.3-0.5c-0.2,0.3-0.3,0.4-0.3,0.5l-1.8,2.5L476.1,110.5L476.1,110.5z"/>
	
		<linearGradient id="SVGID_17_" gradientUnits="userSpaceOnUse" x1="-223.5069" y1="170.3808" x2="-222.5069" y2="170.3808" gradientTransform="matrix(-6.378863e-10 14.2079 14.2079 6.378863e-10 -1965.5544 3353.2671)">
		<stop  offset="0" style="stop-color:#FFFFFF"/>
		<stop  offset="1" style="stop-color:#C5C7CC"/>
	</linearGradient>
	<path class="st31" d="M462.2,184.9c0,3.9-3.1,7-7,7c-3.9,0-7-3.1-7-7v0c0-3.9,3.1-7,7-7C459.1,177.9,462.2,181,462.2,184.9
		L462.2,184.9z"/>
	<path class="st11" d="M462.2,184.9h-0.4c0,3.6-2.9,6.6-6.6,6.6s-6.6-2.9-6.6-6.6v0c0-3.6,2.9-6.6,6.6-6.6c1.8,0,3.5,0.7,4.6,1.9
		c1.2,1.2,1.9,2.8,1.9,4.6l0,0L462.2,184.9l0.4,0l0,0c0-4.1-3.3-7.4-7.4-7.4c-4.1,0-7.4,3.3-7.4,7.4v0c0,4.1,3.3,7.4,7.4,7.4
		c4.1,0,7.4-3.3,7.4-7.4C462.6,184.9,462.2,184.9,462.2,184.9z"/>
	<polygon class="st9" points="454.6,188.1 454.6,185.5 452.1,185.5 452.1,184.4 454.6,184.4 454.6,181.8 455.8,181.8 455.8,184.4 
		458.4,184.4 458.4,185.5 455.8,185.5 455.8,188.1 	"/>
	
		<linearGradient id="SVGID_18_" gradientUnits="userSpaceOnUse" x1="-223.5069" y1="170.3808" x2="-222.5069" y2="170.3808" gradientTransform="matrix(-6.378863e-10 14.2079 14.2079 6.378863e-10 -1965.5544 3381.6746)">
		<stop  offset="0" style="stop-color:#FFFFFF"/>
		<stop  offset="1" style="stop-color:#C5C7CC"/>
	</linearGradient>
	<path class="st32" d="M462.2,213.3c0,3.9-3.1,7-7,7c-3.9,0-7-3.1-7-7v0c0-3.9,3.1-7,7-7C459.1,206.3,462.2,209.5,462.2,213.3
		L462.2,213.3z"/>
	<path class="st11" d="M462.2,213.3h-0.4c0,1.8-0.7,3.5-1.9,4.6c-1.2,1.2-2.8,1.9-4.6,1.9c-3.6,0-6.6-2.9-6.6-6.6v0
		c0-1.8,0.7-3.5,1.9-4.6c1.2-1.2,2.8-1.9,4.6-1.9s3.5,0.7,4.6,1.9c1.2,1.2,1.9,2.8,1.9,4.6v0H462.2h0.4v0c0-4.1-3.3-7.4-7.4-7.4
		s-7.4,3.3-7.4,7.4v0c0,4.1,3.3,7.4,7.4,7.4s7.4-3.3,7.4-7.4H462.2z"/>
	<rect x="452.1" y="212.8" class="st9" width="6.3" height="1.1"/>
	<path class="st33" d="M520,20.1c15.6,14,25.2,33.4,25.2,54.8v131.8c0,42.9-38.5,77.5-86.3,77.5h-373C45.1,284.2,11,259,1.9,225
		c8.1,35.3,42.9,61.7,84.9,61.7h374.7c48,0,86.7-34.6,86.7-77.5V77.4C548.3,54.7,537.4,34.3,520,20.1L520,20.1z"/>
	<path class="st34" d="M87.1,0C38.9,0,0,34.7,0,77.8l0,131.8c0,43.2,38.9,77.8,87.1,77.8h374.7c48.2,0,87.1-34.7,87.1-77.8V77.8
		c0-43.2-38.9-77.8-87.1-77.8L87.1,0L87.1,0z M87.1,0.8h374.7c47.8,0,86.3,34.4,86.3,77v131.8c0,42.7-38.5,77-86.3,77H87.1
		c-47.8,0-86.3-34.4-86.3-77V77.8C0.8,35.2,39.3,0.8,87.1,0.8z"/>
	<g>
		
			<radialGradient id="SVGID_19_" cx="-3.5843" cy="527.2705" r="91.2168" gradientTransform="matrix(1 0 0 -1 39.9998 570.5498)" gradientUnits="userSpaceOnUse">
			<stop  offset="0" style="stop-color:#FFFFFF"/>
			<stop  offset="1" style="stop-color:#B4B4B4"/>
		</radialGradient>
		<circle class="st35" cx="48.2" cy="67.1" r="27.1"/>
		<circle class="st36" cx="48.2" cy="67.1" r="20.8"/>
		
			<radialGradient id="SVGID_20_" cx="-125.391" cy="563.3759" r="19.0909" gradientTransform="matrix(0.7604 0.6494 0.591 -0.692 -189.4438 538.35)" gradientUnits="userSpaceOnUse">
			<stop  offset="0" style="stop-color:#FFFFFF"/>
			<stop  offset="1" style="stop-color:#818080"/>
		</radialGradient>
		<circle class="st37" cx="48.2" cy="67.1" r="19.1"/>
		
			<linearGradient id="SVGID_21_" gradientUnits="userSpaceOnUse" x1="-1.0063" y1="494.3143" x2="17.3347" y2="512.6552" gradientTransform="matrix(1 0 0 -1 39.9998 570.5498)">
			<stop  offset="0" style="stop-color:#FFFFFF"/>
			<stop  offset="1" style="stop-color:#818080"/>
		</linearGradient>
		<circle class="st38" cx="48.2" cy="67.1" r="13"/>
		
			<linearGradient id="SVGID_22_" gradientUnits="userSpaceOnUse" x1="-4.744" y1="490.5765" x2="21.0724" y2="516.3931" gradientTransform="matrix(1 0 0 -1 39.9998 570.5498)">
			<stop  offset="0" style="stop-color:#F5F5F4"/>
			<stop  offset="1" style="stop-color:#C9C6C4"/>
		</linearGradient>
		<circle class="st39" cx="48.2" cy="67.1" r="18.3"/>
		<path class="st40" d="M48.2,80.3c-7.3,0-13.2-5.9-13.2-13.2s5.9-13.2,13.2-13.2s13.2,5.9,13.2,13.2S55.5,80.3,48.2,80.3z"/>
		
			<linearGradient id="SVGID_23_" gradientUnits="userSpaceOnUse" x1="-0.7959" y1="494.5237" x2="17.1263" y2="512.4459" gradientTransform="matrix(1 0 0 -1 39.9998 570.5498)">
			<stop  offset="0" style="stop-color:#727176"/>
			<stop  offset="1" style="stop-color:#D7D5D7"/>
		</linearGradient>
		<path class="st41" d="M48.2,79.7c-7,0-12.7-5.7-12.7-12.7s5.7-12.7,12.7-12.7s12.7,5.7,12.7,12.7S55.2,79.7,48.2,79.7z"/>
		
			<linearGradient id="SVGID_24_" gradientUnits="userSpaceOnUse" x1="-0.4003" y1="512.0493" x2="16.7287" y2="494.9203" gradientTransform="matrix(1 0 0 -1 39.9998 570.5498)">
			<stop  offset="0" style="stop-color:#FFFFFF"/>
			<stop  offset="1" style="stop-color:#D7D5D7"/>
		</linearGradient>
		<circle class="st42" cx="48.2" cy="67.1" r="12.1"/>
	</g>
	<g>
		
			<radialGradient id="SVGID_25_" cx="445.9323" cy="527.2705" r="91.2168" gradientTransform="matrix(1 0 0 -1 39.9998 570.5498)" gradientUnits="userSpaceOnUse">
			<stop  offset="0" style="stop-color:#FFFFFF"/>
			<stop  offset="1" style="stop-color:#B4B4B4"/>
		</radialGradient>
		<circle class="st43" cx="497.7" cy="67.1" r="27.1"/>
		<circle class="st36" cx="497.7" cy="67.1" r="20.8"/>
		
			<radialGradient id="SVGID_26_" cx="324.1421" cy="563.36" r="19.0913" gradientTransform="matrix(0.7604 0.6494 0.591 -0.692 -81.7424 246.4123)" gradientUnits="userSpaceOnUse">
			<stop  offset="0" style="stop-color:#FFFFFF"/>
			<stop  offset="1" style="stop-color:#818080"/>
		</radialGradient>
		<circle class="st44" cx="497.7" cy="67.1" r="19.1"/>
		
			<linearGradient id="SVGID_27_" gradientUnits="userSpaceOnUse" x1="448.5107" y1="494.3144" x2="466.8517" y2="512.6552" gradientTransform="matrix(1 0 0 -1 39.9998 570.5498)">
			<stop  offset="0" style="stop-color:#FFFFFF"/>
			<stop  offset="1" style="stop-color:#818080"/>
		</linearGradient>
		<circle class="st45" cx="497.7" cy="67.1" r="13"/>
		
			<linearGradient id="SVGID_28_" gradientUnits="userSpaceOnUse" x1="444.773" y1="490.5765" x2="470.5894" y2="516.3931" gradientTransform="matrix(1 0 0 -1 39.9998 570.5498)">
			<stop  offset="0" style="stop-color:#F5F5F4"/>
			<stop  offset="1" style="stop-color:#C9C6C4"/>
		</linearGradient>
		<circle class="st46" cx="497.7" cy="67.1" r="18.3"/>
		<path class="st40" d="M497.7,80.3c-7.3,0-13.2-5.9-13.2-13.2s5.9-13.2,13.2-13.2s13.2,5.9,13.2,13.2S505,80.3,497.7,80.3z"/>
		
			<linearGradient id="SVGID_29_" gradientUnits="userSpaceOnUse" x1="448.7201" y1="494.5237" x2="466.6423" y2="512.4459" gradientTransform="matrix(1 0 0 -1 39.9998 570.5498)">
			<stop  offset="0" style="stop-color:#727176"/>
			<stop  offset="1" style="stop-color:#D7D5D7"/>
		</linearGradient>
		<path class="st47" d="M497.7,79.7c-7,0-12.7-5.7-12.7-12.7s5.7-12.7,12.7-12.7s12.7,5.7,12.7,12.7S504.7,79.7,497.7,79.7z"/>
		
			<linearGradient id="SVGID_30_" gradientUnits="userSpaceOnUse" x1="449.1167" y1="512.0493" x2="466.2457" y2="494.9203" gradientTransform="matrix(1 0 0 -1 39.9998 570.5498)">
			<stop  offset="0" style="stop-color:#FFFFFF"/>
			<stop  offset="1" style="stop-color:#D7D5D7"/>
		</linearGradient>
		<circle class="st48" cx="497.7" cy="67.1" r="12.1"/>
	</g>
	<g>
		<circle class="st49" cx="273.3" cy="23.2" r="9.4"/>
		<path class="st50" d="M280.8,23.3c0,4.2-3.4,7.6-7.5,7.6s-7.6-3.4-7.6-7.5v0c0-4.2,3.4-7.6,7.5-7.6S280.8,19.1,280.8,23.3
			L280.8,23.3z"/>
		<path class="st51" d="M278.7,23.3c0,3-2.4,5.5-5.4,5.5s-5.5-2.4-5.5-5.4v0c0-3,2.4-5.5,5.4-5.5C276.3,17.9,278.7,20.3,278.7,23.3
			L278.7,23.3z"/>
		<path class="st52" d="M276.9,23.3c0,2-1.6,3.6-3.6,3.6s-3.6-1.6-3.6-3.6s1.6-3.6,3.6-3.6C275.2,19.7,276.9,21.3,276.9,23.3z"/>
		<path class="st53" d="M276.2,23.9c0,1.6-1.3,3-3,3s-3-1.3-3-3s1.3-3,3-3S276.2,22.2,276.2,23.9z"/>
		<path class="st8" d="M273.8,23.8c0,0.3-0.3,0.6-0.6,0.6c-0.3,0-0.6-0.3-0.6-0.6c0-0.3,0.3-0.6,0.6-0.6
			C273.6,23.3,273.8,23.5,273.8,23.8z"/>
	</g>
</g>
</svg>
