<svg enable-background="new 0 0 200 137.5" viewBox="0 0 200 137.5" xmlns="http://www.w3.org/2000/svg"><path d="m0 0h200v137.5h-200z" fill="none"/><g transform="matrix(.57902371 0 0 -.57902371 -.000058 200)"><path d="m345.4 113c0-2.8-2.3-5.1-5.1-5.1h-335.2c-2.8.1-5.1 2.3-5.1 5.1v227.3c0 2.8 2.3 5.1 5.1 5.1h335.3c2.8 0 5.1-2.3 5.1-5.1v-227.3z" fill="#383838"/><path d="m142.2 258.2c0-24.7-20.1-44.8-44.8-44.8s-44.8 20.1-44.8 44.8 20.1 44.8 44.8 44.8 44.8-20.1 44.8-44.8" fill="#2d2d2d"/><path d="m115.3 257.6c0-9.9-8-17.9-17.9-17.9s-17.9 8-17.9 17.9 8 17.9 17.9 17.9 17.9-8 17.9-17.9" fill="#3f3f3f"/><path d="m273.5 276.3c13.1 6.9 17.8 15 14.6 26.3s-15 17.8-26.3 14.6c-27.5-8.8-60.9-41.2-85.2-84.6-5.8-10.2-3.6-23 6.3-29.4s23.5-3.9 29.4 6.3c20.2 34.5 29.8 49.4 61.2 66.8" fill="#2d2d2d"/><path d="m209 221.4c0-7.9-6.4-14.2-14.2-14.2-7.9 0-14.2 6.4-14.2 14.2 0 7.9 6.4 14.2 14.2 14.2s14.2-6.3 14.2-14.2m19 30.1c0-7.9-6.4-14.2-14.2-14.2-7.9 0-14.2 6.4-14.2 14.2s6.4 14.2 14.2 14.2 14.2-6.3 14.2-14.2m25 26.4c0-7.9-6.4-14.2-14.2-14.2-7.9 0-14.2 6.4-14.2 14.2 0 7.9 6.4 14.2 14.2 14.2 7.9 0 14.2-6.4 14.2-14.2m29.3 19.6c0-7.9-6.4-14.2-14.2-14.2-7.9 0-14.2 6.4-14.2 14.2 0 7.9 6.4 14.2 14.2 14.2 7.8.1 14.2-6.3 14.2-14.2m-139.3 10.2c-2.4.3-4 2.5-3.7 4.9s2.5 4 4.9 3.7l13.7-1.8c2.4-.3 4-2.5 3.7-4.9s-2.5-4-4.9-3.7c0 0-13.7 1.8-13.7 1.8zm58.2 0c2.4.3 4 2.5 3.7 4.9s-2.5 4-4.9 3.7l-13.7-1.8c-2.4-.3-4-2.5-3.7-4.9s2.5-4 4.9-3.7c0 0 13.7 1.8 13.7 1.8z" fill="#494949"/><g fill="#e8e2e9"><path d="m16.9 329.8h2.4v3.9l4.3-3.9h2.4v6.5h-2.4v-3.9l-4.3 3.9h-2.4zm9.4 0h2.4v3.1l3.6-3.1h2.9l-3.9 3.3 3.8 3.1h-2.9l-3.5-2.9v2.9h-2.4zm-9.8 4.6v1.8h-7c-1.2 0-2-.9-2-2.1 0-1.1.8-2.1 2-2.1h4.4c.2 0 .3-.1.3-.3 0-.1-.1-.3-.3-.3h-6.3v-1.8h7c1.2 0 2 .9 2 2.1 0 1.1-.7 2.1-2 2.1h-4.4c-.2 0-.3.1-.3.3s.1.3.3.3zm165.9-184.9v-3.1h-.2c-.3.9-.7 1.5-1.2 2-.5.4-.9.7-1.5.7s-1.1-.2-1.5-.6-.7-.9-.9-1.6-.3-1.4-.3-2.1c0-.9.1-1.6.3-2.2.2-.7.5-1 .9-1.3s.7-.4 1.3-.4c.2 0 .4 0 .6.1s.4.1.6.2v2.3c0 .3 0 .6-.1.7 0 .1-.1.2-.3.3-.1.1-.3.1-.5.1h-.2v.2h4v-.2c-.3 0-.5-.1-.6-.1-.1-.1-.2-.2-.3-.3 0-.1 0-.3-.1-.6v-2.2c-.5-.2-1-.5-1.6-.6s-1.2-.2-1.8-.2c-.8 0-1.3.1-1.8.3s-1 .4-1.4.8-.7.8-.9 1.3c-.3.6-.4 1.3-.4 2 0 1.3.4 2.5 1.3 3.4s2 1.4 3.3 1.4c.6 0 1.1-.2 1.7-.4.4-.2.6-.2.7-.2s.2 0 .3.1.2.3.3.5c.1-.3.3-.3.3-.3zm-14.8-.5c-.8 0-1.4-.4-1.8-1.2-.3-.6-.5-1.6-.5-2.8 0-1.5.2-2.5.7-3.2.4-.5.9-.7 1.5-.7v-.7c-1.6 0-2.8.5-3.6 1.6-.7.8-1 1.8-1 3 0 1.3.4 2.4 1.3 3.3s2 1.3 3.3 1.2h.1zm0 0v.5c1.3 0 2.5-.4 3.3-1.2.9-.9 1.3-2 1.3-3.3 0-1.1-.3-2.1-1-2.9-.9-1.1-2.1-1.7-3.6-1.7v.7c.4 0 .8.1 1.1.3.4.3.6.7.8 1.3s.3 1.3.3 2.3c0 1.1-.1 2-.3 2.5-.2.6-.5.9-.8 1.2-.3.2-.7.3-1.1.3m-9-.2v-3.5h.2c.6 0 .8.2 1 .5.3.4.4.9.5 1.6h.3v-4.7h-.3c0 .5-.2.9-.3 1.2-.2.3-.4.5-.6.7-.2.1-.4.2-.8.2v-2.6c0-.5 0-.8.1-.9 0-.1.1-.2.2-.3s.3-.1.6-.1h.5c.8 0 1.1.2 1.6.6s.8.8 1.1 1.6h.2l-.4-2.7h-7.2v.2h.3c.3 0 .5 0 .6.1l.3.3c0 .1.1.4.1.8v5.9.7c0 .2-.1.3-.2.4-.2.1-.4.2-.7.2h-.3v.2h7.4v-2.6h-.2c-.1.6-.3 1.1-.5 1.4s-.5.5-1 .6c-.2.1-.7.1-1.4.1h-1.1zm-9.6.5 4.6-5.5v3.8c0 .5-.1.9-.2 1.1-.2.3-.5.4-1 .4v.2h2.8v-.2c-.4 0-.5-.1-.6-.2s-.2-.2-.3-.4-.1-.5-.1-.9v-7.4h-.2l-6.3 7.4v-5.6c0-.5.1-.9.4-1 .2-.2.5-.3.8-.3h.2v-.2h-3.3v.2c.5 0 .9.1 1.1.3s.3.5.3 1v6.3l-.2.2c-.2.2-.4.4-.5.5-.2.1 0 .1-.3.1v.2zm46.3-.3c-.8 0-1.4-.4-1.7-1.2-.3-.6-.5-1.6-.5-2.8 0-1.5.2-2.5.7-3.2.4-.5.9-.7 1.5-.7v-.7c-1.6 0-2.8.5-3.6 1.6-.7.8-1 1.8-1 3 0 1.3.4 2.4 1.3 3.3s2 1.3 3.2 1.2h.1zm0 0v.5c1.3 0 2.5-.4 3.3-1.2.9-.9 1.3-2 1.3-3.3 0-1.1-.3-2.1-1-2.9-.9-1.1-2.1-1.7-3.6-1.7v.7c.4 0 .8.1 1.1.3.4.3.6.7.8 1.3s.3 1.3.3 2.3c0 1.1-.1 2-.3 2.5-.2.6-.5.9-.8 1.2-.3.2-.7.3-1.1.3"/><path d="m186.3 148.8v-3.5h.2c.6 0 .8.2 1 .5.3.4.4.9.5 1.6h.3v-4.7h-.3c0 .5-.2.9-.3 1.2-.2.3-.4.5-.6.7-.2.1-.4.2-.8.2v-2.6c0-.5 0-.8.1-.9 0-.1.1-.2.2-.3s.3-.1.6-.1h.5c.8 0 1.1.2 1.6.6s.8.8 1.1 1.6h.2l-.4-2.7h-7.2v.2h.3c.3 0 .5 0 .6.1l.3.3c0 .1.1.4.1.8v5.9.7c0 .2-.1.3-.2.4-.2.1-.4.2-.7.2h-.3v.2h7.4v-2.6h-.2c-.1.6-.3 1.1-.5 1.4s-.5.5-1 .6c-.2.1-.7.1-1.4.1-.2.1-1.1.1-1.1.1z"/><path d="m173.3 145.8c.5 0 .9-.4.9-.9s-.4-.9-.8-.9c-.5 0-.8.4-.8.9-.1.5.3.9.7.9"/></g><path d="m172.7 325c21.3 0 167.6 20.4 167.6 20.4h-335.2s146.8-20.4 167.6-20.4" fill="#494949"/></g></svg>