<svg enable-background="new 0 0 683.1 340.1" viewBox="0 0 683.1 340.1" xmlns="http://www.w3.org/2000/svg" xmlns:xlink="http://www.w3.org/1999/xlink"><linearGradient id="a" gradientTransform="matrix(81.0313 81.0313 81.0313 -81.0313 -14111.8018 54985.8359)" gradientUnits="userSpaceOnUse" x1="-250.6151" x2="-249.6167" y1="426.3725" y2="426.3725"><stop offset="0" stop-color="#a6a8ab"/><stop offset="1" stop-color="#e6e7e8"/></linearGradient><mask id="b" height="114.1" maskUnits="userSpaceOnUse" width="113.8" x="113.6" y="111.9"><path d="m-111001.3-111691.1v223371.5h223371.5v-223371.5z" fill="url(#c)"/></mask><linearGradient id="c" gradientTransform="matrix(135.1934 135.1934 -135.1934 135.1934 93904.9453 -25225.1875)" gradientUnits="userSpaceOnUse" x1="-1077.6123" x2="574.6243" y1="438.0403" y2="438.0403"><stop offset="0" stop-color="#fff" stop-opacity="0"/><stop offset=".2075" stop-color="#fff"/><stop offset=".5" stop-color="#fff"/><stop offset=".7925" stop-color="#fff"/><stop offset="1" stop-color="#fff" stop-opacity="0"/></linearGradient><linearGradient id="d" gradientTransform="matrix(0 3.4084 -3.4084 0 1025.915 -111.4255)" gradientUnits="userSpaceOnUse" x1="65.5221" x2="98.9982" y1="250.9726" y2="250.9726"><stop offset="0" stop-color="#231f20"/><stop offset=".2075" stop-color="#231f20"/><stop offset=".5" stop-color="#231f20"/><stop offset=".7925" stop-color="#231f20"/><stop offset="1" stop-color="#231f20"/></linearGradient><mask id="e" height="113.8" maskUnits="userSpaceOnUse" width="113.8" x="113.6" y="111.9"><path d="m-111001.3-111691.1v223371.5h223371.5v-223371.5z" fill="url(#f)"/></mask><linearGradient id="f" gradientTransform="matrix(-135.1934 -135.1934 135.1934 -135.1934 -92256.4062 23850.0898)" gradientUnits="userSpaceOnUse" x1="-1081.6241" x2="570.6125" y1="431.96" y2="431.96"><stop offset="0" stop-color="#fff" stop-opacity="0"/><stop offset=".5" stop-color="#fff"/><stop offset="1" stop-color="#fff" stop-opacity="0"/></linearGradient><linearGradient id="g" gradientTransform="matrix(0 3.4084 -3.4084 0 1025.915 -111.4255)" gradientUnits="userSpaceOnUse" x1="65.5221" x2="99.0096" y1="250.9726" y2="250.9726"><stop offset="0" stop-color="#fff"/><stop offset=".5" stop-color="#fff"/><stop offset="1" stop-color="#fff"/></linearGradient><path d="m1 169.4c0-93.4 75.6-169.5 169.5-169.5 93.4 0 169.5 75.6 169.5 169.5s-75.6 169.5-169.5 169.5c-93.5-.4-169.5-76-169.5-169.5" fill="#231f20"/><path d="m13.5 17.3h313.4v313.4h-313.4z" fill="none"/><path d="m13.5 173.8 33-34.4v16.7h37.8v35.4h-37.6v16.7c0 .2-33.2-34.4-33.2-34.4zm46-110.5 47.7-.8-11.9 11.9 26.9 26.9-25 24.9-26.8-26.9-11.8 11.9c0-.3.9-47.9.9-47.9zm110.8-46 34.4 33h-16.7v37.7h-35.1v-37.7h-16.7zm110.9 46 .8 47.7-11.9-11.9-26.9 26.9-24.9-24.9 26.9-26.9-11.9-11.9zm46 110.5-33 34.4v-16.7h-38.3v-35.1h37.7v-16.7zm-46 111.1-47.7.8 11.9-11.9-26.9-26.9 24.9-24.9 26.9 26.9 11.9-11.9c-.2.2-1 47.9-1 47.9zm-110.9 46-34.4-33.1h16.7v-37.7h35.4v37.4h16.7zm-110.8-46-.6-47.7 11.9 12 26.9-27 24.9 24.9-26.9 26.9 11.9 11.9c-.3-.4-48.1-1-48.1-1z" fill="#84849b" opacity=".1"/><path d="m170.5 111.9c-31.6 0-57.2 25.6-57.2 57.2s25.6 57.2 57.2 57.2 57.2-25.6 57.2-57.2-25.6-57.2-57.2-57.2" fill="url(#a)"/><path d="m124.7 123.5h91.3v91.3h-91.3z" fill="none"/><path d="m124.7 169.1c0-25.2 20.5-45.7 45.7-45.7s45.7 20.5 45.7 45.7-20.5 45.7-45.7 45.7-45.7-20.4-45.7-45.7" fill="#231f20"/><path d="m171 115c30.3 0 54.6 24.5 54.6 54.6s-24.5 54.5-54.6 54.5-54.6-24.5-54.6-54.6 24.4-54.5 54.6-54.5m-.5 111c31.4 0 56.9-25.6 56.9-56.9s-25.6-57.2-56.9-57.2-56.9 25.6-56.9 56.9 25 57.2 56.9 57.2" fill="none"/><path d="m171 115c30.3 0 54.6 24.5 54.6 54.6s-24.5 54.5-54.6 54.5-54.6-24.5-54.6-54.6 24.4-54.5 54.6-54.5m-.5 111c31.4 0 56.9-25.6 56.9-56.9s-25.6-57.2-56.9-57.2-56.9 25.6-56.9 56.9 25 57.2 56.9 57.2" fill="url(#d)" mask="url(#b)" opacity=".15"/><path d="m169.7 222.9c-30.3 0-54.6-24.5-54.6-54.6 0-30.3 24.5-54.6 54.6-54.6s54.6 24.5 54.6 54.6c0 30.2-24.6 54.6-54.6 54.6m.8-111c-31.4 0-56.9 25.6-56.9 56.9s25.6 56.9 56.9 56.9 56.9-25.6 56.9-56.9-25.7-56.9-56.9-56.9" fill="none"/><path d="m169.7 222.9c-30.3 0-54.6-24.5-54.6-54.6 0-30.3 24.5-54.6 54.6-54.6s54.6 24.5 54.6 54.6c0 30.2-24.6 54.6-54.6 54.6m.8-111c-31.4 0-56.9 25.6-56.9 56.9s25.6 56.9 56.9 56.9 56.9-25.6 56.9-56.9-25.7-56.9-56.9-56.9" fill="url(#g)" mask="url(#e)"/><path d="m547.4 169.1c0-37.4 30.3-67.9 67.9-67.9 37.5 0 67.9 30.3 67.9 67.9s-30.3 67.9-67.9 67.9-67.9-30.4-67.9-67.9" fill="#00adee"/><path d="m561 115.2h108.1v108.1h-108.1z" fill="none"/><g fill="#00adee"><path d="m561 169.1c0-29.7 24.2-53.8 53.8-53.8s53.8 24.2 53.8 53.8c0 29.7-24.2 53.8-53.8 53.8-29.6.5-53.8-23.8-53.8-53.8" opacity=".3"/><path d="m562.4 169.1c0-28.9 23.5-52.4 52.4-52.4s52.4 23.5 52.4 52.4-23.4 52.4-52.4 52.4c-28.9 0-52.4-23.4-52.4-52.4"/><path d="m562.4 169.1c0-28.9 23.5-52.4 52.4-52.4s52.4 23.5 52.4 52.4-23.4 52.4-52.4 52.4c-28.9 0-52.4-23.4-52.4-52.4"/></g><path d="m562.4 116.6h104.9v104.9h-104.9z" fill="none"/><path d="m615.5 119.4c27.6 0 50.2 22.5 50.2 50.2 0 27.6-22.5 50.2-50.2 50.2-27.6 0-50.2-22.5-50.2-50.2.2-27.8 22.6-50.2 50.2-50.2m-.7 102.3c28.9 0 52.4-23.5 52.4-52.4s-23.5-52.4-52.4-52.4-52.4 23.5-52.4 52.4c0 28.8 23.5 52.4 52.4 52.4" fill="#00adee" opacity=".2"/><path d="m547.4 101.7h135v135h-135z" fill="none"/><path d="m615.9 105.3c35.8 0 64.7 28.9 64.7 64.7s-28.9 64.7-64.7 64.7-64.7-28.9-64.7-64.7c-.2-35.9 28.9-64.7 64.7-64.7m-1.1 131.4c37.2 0 67.5-30.3 67.5-67.5s-30.3-67.5-67.5-67.5-67.5 30.3-67.5 67.5 30.4 67.5 67.5 67.5" fill="#00adee"/><path d="m392.6 168.1c0-37.4 30.3-67.9 67.9-67.9s67.9 30.3 67.9 67.9-30.4 67.8-67.9 67.8-67.9-30.3-67.9-67.8" fill="#00adee"/><path d="m406.6 114.2h108.1v108.1h-108.1z" fill="none"/><path d="m406.6 168.1c0-29.7 24.2-53.8 53.8-53.8 29.7 0 53.8 24.2 53.8 53.8 0 29.7-23.9 53.8-53.8 53.8-29.6.1-53.8-24.2-53.8-53.8" fill="#00adee" opacity=".3"/><path d="m408 167.8c0-28.9 23.5-52.4 52.4-52.4s52.4 23.5 52.4 52.4-23.5 52.4-52.4 52.4-52.4-23.4-52.4-52.4" fill="#00adee"/><path d="m408 167.8c0-28.9 23.5-52.4 52.4-52.4s52.4 23.5 52.4 52.4-23.5 52.4-52.4 52.4-52.4-23.4-52.4-52.4" fill="#00adee"/><path d="m408 115.6h104.9v104.9h-104.9z" fill="none"/><path d="m461.2 118.3c27.6 0 50.2 22.5 50.2 50.2s-22.5 50.2-50.2 50.2c-27.6 0-50.2-22.5-50.2-50.2s22.2-50.2 50.2-50.2m-.7 102c28.9 0 52.4-23.5 52.4-52.4s-23.5-52.4-52.4-52.4-52.4 23.5-52.4 52.4 23.4 52.4 52.4 52.4" fill="#00adee" opacity=".2"/><path d="m392.9 100.3h135v135h-135z" fill="none"/><path d="m461.2 104.1c35.8 0 64.7 28.9 64.7 64.7s-28.9 64.7-64.7 64.7-64.7-28.9-64.7-64.7 28.9-64.7 64.7-64.7m-.7 131.2c37.2 0 67.5-30.3 67.5-67.5s-30.3-67.5-67.5-67.5-67.5 30.3-67.5 67.5 30 67.5 67.5 67.5" fill="#00adee"/><path d="m169.7 200.9c-43 0-78-35.1-78-78s34.7-78.1 78-78.1 78 35.1 78 78-35 78.1-78 78.1" fill="#00adee"/><path d="m339.8 175.1c-.9 89.2-76.2 161.2-168.9 161.2s-167.6-72-168.9-161.2v1.7c0 90.1 75.7 163.3 168.9 163.3s168.9-73.2 168.9-163.3c0-.4 0-.9 0-1.7" fill="#6d6e70"/></svg>