<svg xmlns="http://www.w3.org/2000/svg" viewBox="0 0 500 193.3"><path fill="#C7C6C2" d="M333 193.2H17s-17 2.7-17-16.7V54.9c0-1.1.6-2 1.6-2.5l6.5-2.8V6c0-.8.4-1.5 1.2-1.9L17 0v28.5L26.1 39v50L7.2 152.7v21.8S5.5 185.8 20 185.8h311.6s9.9 1.2 9.9-9.6v-23.6L325.1 89l-.1-50 8.4-10.5V0l7.9 3.9c.6.3 1 .9 1 1.6V48l6.3 1.6c.8.2 1.3.9 1.3 1.7v119.2c.1.2 3.8 22.7-16.9 22.7z"/><path fill="#E9EAE4" d="M249.5 7.8c0-1.4-1.1-2.5-2.5-2.5H105.6c-1.2 0-2.2 1-2.2 2.2v21.1H17V0h316.4v28.5h-83.9V7.8z"/><path fill="#DFDED2" d="M341.4 152.7v23.6c0 10.8-9.9 9.6-9.9 9.6H19.9c-14.6 0-12.8-11.4-12.8-11.4v-21.8h334.3z"/><path fill="#DCDAD9" d="M341.4 152.7H7.2L26.1 89h299z"/><path fill="#E3E2E1" d="M103.5 28.5V39H26.1L17 28.5zM333.4 28.5L325 39h-75.5V28.5z"/><path fill="#E9EAE4" d="M325.1 89h-299V39h77.4V15.5v-.3c0-1.1.5-4.2 4.4-4.2H244s5.5-.1 5.5 4.5V39H325l.1 50z"/><path fill="#DAD8D9" d="M249.5 7.8v7.7c0-4.6-5.5-4.5-5.5-4.5H107.9c-3.9 0-4.3 3.2-4.4 4.2V7.4c0-1.2 1-2.2 2.2-2.2H247c1.4 0 2.5 1.2 2.5 2.6z"/><path fill="#A1A19E" d="M247.5 17.2v65c0 1.6-1.3 2.8-2.8 2.8H109.1c-1.6 0-2.8-1.3-2.8-2.8v-65c0-1.6 1.3-2.8 2.8-2.8h135.6c1.5 0 2.8 1.2 2.8 2.8z"/><path fill="#8B8887" d="M232.3 37.7v13.5H121.2V37.7c0-1.9 1.5-3.3 3.3-3.3H229c1.8-.1 3.3 1.4 3.3 3.3zM232.3 52.2v9.6c0 1.9-1.5 3.3-3.3 3.3H124.6c-1.9 0-3.3-1.5-3.3-3.3v-9.6h111z"/><path fill="#302D2A" d="M121.2 50.6h111.1v1.5H121.2z"/><path fill="#EDE6C2" d="M35.5 39.9h62.7V87H35.5z"/><path fill="#8F8662" d="M95.3 42.1v5.2h-56v-5.2h56zm-55.9 9.1V56h56v-4.8h-56zm0 8.7v4.5h56v-4.5h-56zm0 8.7v4.7h56v-4.7h-56zm0 8.8v5h56v-5h-56z"/><path fill="#EBE6DA" d="M95.3 47.3v1.8h-56v-1.8h56zM39.4 56v2.3h56V56h-56zm0 8.4V67h56v-2.6h-56zm0 8.8v2.4h56v-2.4h-56zm0 9.2v2h56v-2h-56z"/><path fill="#EDE6C2" d="M254.6 39.9h62.7V87h-62.7z"/><path fill="#8F8662" d="M314.4 42.1v5.2h-55.9v-5.2h55.9zm-55.9 9.1V56h55.9v-4.8h-55.9zm0 8.7v4.5h55.9v-4.5h-55.9zm0 8.7v4.7h55.9v-4.7h-55.9zm0 8.8v5h55.9v-5h-55.9z"/><path fill="#EBE6DA" d="M314.4 47.3v1.8h-55.9v-1.8h55.9zM258.5 56v2.3h55.9V56h-55.9zm0 8.4V67h55.9v-2.6h-55.9zm0 8.8v2.4h55.9v-2.4h-55.9zm0 9.2v2h55.9v-2h-55.9z"/><path fill="#1B3F8E" d="M332.1 149.8H17.8c-2.8 0-1.7-3.3-1.7-3.3l17-53.7h287.6s13.1 50.8 13.9 54c.7 3.2-2.5 3-2.5 3z"/><path fill="#D55956" d="M261.4 156.4h27.7v16.1h-27.7z"/><path fill="#644C4B" d="M173.6 158.7h6.6v3.3h-6.6z"/><path fill="#EFEFF4" d="M18.5 144.7h312.3v2.7H18.5z"/><path fill="#9D231D" d="M325.1 127.2H25.4l2-5.9h296.1z"/><path fill="#EFEFF4" d="M323.5 121.3H27.4l8.1-24.7h281.1z"/><g fill="#9D231D"><path d="M57.7 132.1h3.4c.5 0 .7.2.6.6 0 .4 0 .8-.6.8h-5.9c-.7 0-.9.1-.9.8.1 1 0 2 0 3 0 .4.1.6.6.6h4.7c.6 0 .6-.3.6-.7 0-.4.2-.9-.6-.8H57c-.6 0-.6-.3-.6-.7 0-.4-.1-.7.6-.7h4.2c.5 0 .6.1.6.6v3.2c0 .4-.1.6-.6.6h-6.8c-.9 0-1.5-.6-1.5-1.4v-4.5c0-.8.6-1.3 1.6-1.3.9-.1 2-.1 3.2-.1zM47.7 132.1H51c.7 0 .7.3.7.7 0 .4 0 .8-.7.8h-5.9c-.5 0-.9 0-.9.7 0 .6.2.8.8.8h4.6c1.5 0 2 .4 2 1.8v1.1c0 .9-.5 1.4-1.5 1.4h-6.9c-.7 0-.5-.4-.5-.8s-.1-.7.6-.7h6.1c.5 0 .8 0 .8-.6 0-.5 0-.9-.8-.9h-4.9c-1.2 0-1.7-.4-1.7-1.5v-1.2c0-.9.6-1.5 1.6-1.5 1.1-.1 2.2-.1 3.3-.1zM77.1 132.1h3.3c1 0 1.5.5 1.6 1.4v4.3c0 1-.7 1.5-1.9 1.5H74c-1.3-.1-1.8-.6-1.8-1.8v-3.8c0-1.2.5-1.6 1.8-1.7 1 .1 2.1.1 3.1.1zm-.1 5.8h2.8c.4 0 .6-.1.6-.5v-3.3c0-.4-.2-.5-.6-.5h-5.5c-.4 0-.6.1-.6.5v3.3c0 .4.2.5.6.5H77zM87.7 132.1h3.1c1.1 0 1.7.5 1.7 1.5.1 1.4.1 2.8 0 4.2 0 1-.6 1.5-1.7 1.5h-6.4c-1.1 0-1.7-.5-1.7-1.5v-4.1c0-1 .6-1.5 1.7-1.5 1.1-.1 2.2-.1 3.3-.1zm-.1 5.8h2.8c.4 0 .6-.1.6-.5v-3.3c0-.4-.1-.6-.6-.6H85c-.5 0-.6.1-.6.6v3.3c0 .4.1.5.6.5h2.6zM98.2 139.3H95c-1.1 0-1.6-.5-1.6-1.5v-4.2c0-1 .5-1.5 1.6-1.5h6.5c1 0 1.5.4 1.6 1.3.1 1.5.1 3 0 4.5 0 .9-.6 1.3-1.6 1.3-1.1.1-2.2.1-3.3.1zm0-1.4h2.7c.5 0 .6-.1.6-.6V134c0-.4-.1-.6-.5-.5h-5.6c-.4 0-.5.1-.5.5v3.5c0 .4.2.5.5.5 1-.1 1.9-.1 2.8-.1zM69.3 135v2.3c0 .5.1.7.7.6h.7c.8-.1.9.3.9.9 0 .4-.2.6-.6.6h-4.7c-.6 0-.6-.3-.6-.7 0-.4 0-.7.6-.7 1.6 0 1.6-.1 1.6-1.5v-2.3c0-.4-.2-.6-.6-.6h-.7c-.8 0-1.1-.5-.8-1.2.1-.2.3-.2.5-.2h2.6c.5 0 .6.2.6.5-.2.8-.2 1.5-.2 2.3zM63.8 136.2h-.7c-.5 0-.7-.1-.7-.6s.2-.7.7-.6h1.1c.4 0 1-.2 1 .6s-.5.6-1 .6h-.4z"/></g><g fill="#FFF"><path d="M115.9 138.8c-.5.3-1.2.4-2.1.4-1.1 0-2-.3-2.7-1-.6-.7-1-1.5-1-2.6 0-1.2.4-2.1 1.1-2.9.7-.7 1.7-1.1 2.8-1.1.7 0 1.3.1 1.8.3v1.6c-.5-.3-1.1-.4-1.7-.4-.7 0-1.2.2-1.7.6-.4.4-.6 1-.6 1.8 0 .7.2 1.3.6 1.7.4.4.9.6 1.6.6.6 0 1.2-.2 1.8-.5v1.5zM119.5 139.2c-.9 0-1.6-.2-2.1-.7-.5-.5-.7-1.2-.7-2 0-.9.3-1.5.8-2s1.2-.7 2.1-.7c.9 0 1.6.2 2 .7.5.5.7 1.1.7 1.9 0 .9-.3 1.6-.8 2.1s-1.1.7-2 .7zm0-4.2c-.4 0-.7.1-.9.4-.2.3-.3.6-.3 1.1 0 1 .4 1.5 1.2 1.5.8 0 1.2-.5 1.2-1.5s-.4-1.5-1.2-1.5zM131.7 139.1h-1.6v-3c0-.8-.3-1.1-.8-1.1-.3 0-.5.1-.6.3-.2.2-.3.5-.3.9v2.9h-1.6v-3c0-.7-.3-1.1-.8-1.1-.3 0-.5.1-.7.3-.2.2-.2.5-.2.9v2.9h-1.6v-5.2h1.6v.8c.2-.3.4-.5.7-.7.3-.2.6-.3 1-.3.7 0 1.2.3 1.5 1 .4-.7 1-1 1.8-1 1.1 0 1.7.7 1.7 2.1v3.3zM134.6 138.5v3H133v-7.6h1.6v.8c.4-.6 1-.9 1.7-.9s1.2.2 1.6.7c.4.5.6 1.1.6 1.9 0 .9-.2 1.6-.6 2.1s-1 .8-1.7.8c-.8-.1-1.2-.3-1.6-.8zm0-2.1v.4c0 .4.1.7.3.9.2.2.4.3.8.3s.7-.1.9-.4c.2-.3.3-.7.3-1.2 0-.9-.4-1.4-1.1-1.4-.3 0-.6.1-.8.4s-.4.5-.4 1zM144.5 139.1h-1.6v-.8c-.4.6-.9.9-1.6.9-1.2 0-1.8-.7-1.8-2.2v-3.2h1.6v3c0 .7.3 1.1.9 1.1.3 0 .5-.1.7-.3.2-.2.3-.5.3-.8v-3h1.6v5.3zM149 139c-.2.1-.6.2-1.1.2-1.1 0-1.7-.6-1.7-1.8V135h-.8v-1.2h.8v-1.1l1.6-.5v1.6h1.2v1.2h-1.2v2.1c0 .5.2.8.6.8.2 0 .3 0 .5-.1v1.2zM154.6 137h-3.4c.1.8.5 1.1 1.4 1.1.6 0 1.1-.1 1.5-.4v1.2c-.5.3-1.1.4-1.9.4-.8 0-1.5-.2-2-.7-.5-.5-.7-1.1-.7-2 0-.9.3-1.6.8-2.1s1.1-.8 1.9-.8c.8 0 1.4.2 1.8.7.4.5.6 1.1.6 1.8v.8zm-1.5-1c0-.8-.3-1.1-.9-1.1-.3 0-.5.1-.7.3s-.3.5-.3.8h1.9zM159 135.3c-.2-.1-.4-.2-.7-.2-.4 0-.6.1-.8.4-.2.3-.3.6-.3 1.1v2.5h-1.6v-5.2h1.6v1c.3-.7.7-1.1 1.4-1.1.2 0 .3 0 .4.1v1.4zM168.9 131.8l-2.5 7.3h-1.9l-2.5-7.3h1.8l1.5 5.1c.1.3.1.5.1.7 0-.2.1-.5.2-.8l1.5-5.1h1.8zM170.4 133c-.3 0-.5-.1-.7-.2s-.3-.4-.3-.6c0-.2.1-.4.3-.6.2-.2.4-.2.7-.2.3 0 .5.1.7.2.2.2.3.4.3.6 0 .2-.1.4-.3.6-.2.2-.4.2-.7.2zm.8 6.1h-1.6v-5.2h1.6v5.2zM177.7 139.1h-1.6v-.7c-.4.6-.9.8-1.6.8-.7 0-1.2-.2-1.6-.7s-.6-1.1-.6-1.9c0-.9.2-1.6.7-2.1s1-.8 1.7-.8 1.1.2 1.4.7v-3.1h1.6v7.8zm-1.6-2.5v-.4c0-.3-.1-.6-.3-.8-.2-.2-.5-.3-.8-.3-.4 0-.6.1-.8.4-.2.3-.3.7-.3 1.2s.1.8.3 1.1c.2.2.5.4.8.4.3 0 .6-.1.8-.4.2-.5.3-.8.3-1.2zM183.8 137h-3.4c.1.8.5 1.1 1.4 1.1.6 0 1.1-.1 1.5-.4v1.2c-.5.3-1.1.4-1.9.4-.8 0-1.5-.2-2-.7s-.7-1.1-.7-2c0-.9.3-1.6.8-2.1s1.1-.8 1.9-.8c.8 0 1.4.2 1.8.7.4.5.6 1.1.6 1.8v.8zm-1.5-1c0-.8-.3-1.1-.9-1.1-.3 0-.5.1-.7.3s-.3.5-.3.8h1.9zM187.2 139.2c-.9 0-1.6-.2-2.1-.7-.5-.5-.7-1.2-.7-2 0-.9.3-1.5.8-2s1.2-.7 2.1-.7c.9 0 1.6.2 2 .7.5.5.7 1.1.7 1.9 0 .9-.3 1.6-.8 2.1s-1.1.7-2 .7zm.1-4.2c-.4 0-.7.1-.9.4-.2.3-.3.6-.3 1.1 0 1 .4 1.5 1.2 1.5.8 0 1.2-.5 1.2-1.5-.1-1-.4-1.5-1.2-1.5zM200.2 138.6c-.7.4-1.6.6-2.7.6-1.2 0-2.1-.3-2.8-1s-1-1.6-1-2.7c0-1.2.4-2.1 1.1-2.8.7-.7 1.7-1.1 3-1.1.8 0 1.5.1 2.1.3v1.5c-.6-.3-1.3-.5-2.1-.5-.7 0-1.2.2-1.7.7s-.6 1-.6 1.8.2 1.3.6 1.7c.4.4.9.6 1.6.6.4 0 .7-.1.9-.2v-1.4h-1.5v-1.3h3.1v3.8zM205.8 139.1h-1.5v-.8c-.4.6-.9.9-1.6.9-.5 0-.9-.1-1.2-.4-.3-.3-.4-.7-.4-1.2 0-1 .6-1.6 1.8-1.8l1.4-.2c0-.6-.3-.9-.9-.9-.6 0-1.2.2-1.8.6v-1.2c.2-.1.5-.2.9-.3s.7-.1 1.1-.1c1.5 0 2.2.7 2.2 2.2v3.2zm-1.5-2.1v-.4l-1 .1c-.5.1-.8.3-.8.7 0 .2.1.3.2.5.1.1.3.2.5.2.3 0 .6-.1.7-.3.3-.2.4-.5.4-.8zM215.4 139.1h-1.6v-3c0-.8-.3-1.1-.8-1.1-.3 0-.5.1-.6.3-.2.2-.3.5-.3.9v2.9h-1.6v-3c0-.7-.3-1.1-.8-1.1-.3 0-.5.1-.7.3-.2.2-.2.5-.2.9v2.9h-1.6v-5.2h1.6v.8c.2-.3.4-.5.7-.7.3-.2.6-.3 1-.3.7 0 1.2.3 1.5 1 .4-.7 1-1 1.8-1 1.1 0 1.7.7 1.7 2.1v3.3zM221.4 137H218c.1.8.5 1.1 1.4 1.1.6 0 1.1-.1 1.5-.4v1.2c-.5.3-1.1.4-1.9.4-.8 0-1.5-.2-2-.7-.5-.5-.7-1.1-.7-2 0-.9.3-1.6.8-2.1s1.1-.8 1.9-.8c.8 0 1.4.2 1.8.7.4.5.6 1.1.6 1.8v.8zm-1.5-1c0-.8-.3-1.1-.9-1.1-.3 0-.5.1-.7.3s-.3.5-.3.8h1.9z"/></g><g fill="#203E8E"><path d="M146.6 106.3c0-1.6.6-3 1.7-4.1 1.1-1.2 2.4-1.7 3.8-1.7h8v2.5h-7.4c-1.1 0-2 .3-2.7 1-.7.7-1 1.5-1 2.4 0 .9.3 1.7 1 2.4s1.6 1 2.7 1h1.2c1 0 1.7.3 2.3.8.5.5.8 1.2.8 2s-.3 1.4-.8 2c-.5.5-1.3.8-2.3.8h-7.4v-2.5h7.4c.4 0 .6-.1.6-.3s-.2-.3-.6-.3h-1.8c-1.4 0-2.7-.6-3.8-1.7-1.1-1.3-1.7-2.7-1.7-4.3zm3.1 0c0-.8.3-1.4.8-2s1.3-.8 2.3-.8h7.4v2.5h-7.4c-.4 0-.6.1-.6.3s.2.3.6.3h1.8c1.4 0 2.7.6 3.8 1.7 1.1 1.1 1.7 2.5 1.7 4.1 0 1.6-.6 3-1.7 4.1-1.1 1.2-2.4 1.7-3.8 1.7h-8v-2.5h7.4c1.1 0 2-.3 2.7-1 .7-.7 1-1.5 1-2.4 0-.9-.3-1.7-1-2.4s-1.6-1-2.7-1h-1.2c-1 0-1.7-.3-2.3-.8s-.8-1.1-.8-1.8zM161.4 106c0-3.7 1.8-5.5 5.5-5.5h7.4v2.5h-7.4c-2.1 0-3.1 1-3.1 3.1v6.8c0 2.1 1 3.1 3.1 3.1h7.4v2.5h-7.4c-3.7 0-5.5-1.8-5.5-5.5v-7zm3.1 3v-3c0-1.6.8-2.5 2.5-2.5h7.4v2.5h-6.8c-.4 0-.6.2-.6.6h5.5v2.5h-8zm0 .7h8v2.5H167c0 .4.2.6.6.6h6.8v2.5H167c-1.6 0-2.5-.8-2.5-2.5v-3.1zM175.6 106c0-3.7 1.8-5.5 5.5-5.5h7.4v2.5h-7.4c-2.1 0-3.1 1-3.1 3.1v6.8c0 2.1 1 3.1 3.1 3.1h4.9v-7h-4.3v-2.5h6.8v11.7h-7.4c-3.7 0-5.5-1.8-5.5-5.5V106zm3 0c0-1.6.8-2.5 2.5-2.5h7.4v2.5h-6.8c-.4 0-.6.2-.6.6v5.5c0 .4.2.6.6.6h1.2v-.6h-1.2v-2.5h3.7v5.5h-4.3c-1.6 0-2.5-.8-2.5-2.5V106z"/><path d="M195.2 115.8h7.3l-4.9-12.5c-.1-.3-.4-.4-.8-.4-.3 0-.6.1-.8.4l-5.5 15H188l5.8-15.8c.7-1.4 1.7-2.1 3.1-2.1 1.6 0 2.6.7 3.1 2.1l6 15.8h-10.6v-2.5zm0-.6v-1.3l-1.7 4.4H191l5.3-14.4c.1-.3.2-.4.4-.4s.3.1.4.4l4.3 11.3h-6.2zm1.5-5.3l-1.1 2.9h2.3l-1.2-2.9z"/></g><g><path fill="#242323" d="M496.5 193.3h-99.2c-1.1 0-1.9-.9-1.9-1.9V62.5c0-1.1.9-1.9 1.9-1.9h4.9l1.2 1H490l1.5-1h5.1c1.1 0 1.9.9 1.9 1.9v128.8c-.1 1.1-.9 2-2 2z"/><path fill="#2E2B2A" d="M403.4 61.6V136c0 1.2 1 2.2 2.2 2.2h82.2c1.1 0 2.1-.9 2.1-2.1V61.6"/><path fill="#242323" d="M393.8 111.7h1.6v2.7h-1.6v-2.7zm0-2.3h1.6v-2.7h-1.6v2.7zm0-5h1.6v-2.7h-1.6v2.7zm0-4.9h1.6v-2.7h-1.6v2.7zm0-4.9h1.6v-2.7h-1.6v2.7zm0-9.8h1.6v-2.7h-1.6v2.7zm0 4.9h1.6V87h-1.6v2.7zm0-9.3h1.6v-2.7h-1.6v2.7zm0-5.3h1.6v-2.7h-1.6v2.7zm0-5.1h1.6v-2.7h-1.6V70zm104.6 44.4h1.6v-2.7h-1.6v2.7zm0-5h1.6v-2.7h-1.6v2.7zm0-5h1.6v-2.7h-1.6v2.7zm0-4.9h1.6v-2.7h-1.6v2.7zm0-4.9h1.6v-2.7h-1.6v2.7zm0-9.8h1.6v-2.7h-1.6v2.7zm0 4.9h1.6V87h-1.6v2.7zm0-9.3h1.6v-2.7h-1.6v2.7zm0-5.3h1.6v-2.7h-1.6v2.7zm0-5.1h1.6v-2.7h-1.6V70z"/><path fill="#FFF" d="M484.4 135.4v.2l-.1.3-.3.1h-4.8v-1c-.2.7-.4 1.1-1.1 1.1-.2 0-.4 0-.8-.1l-.4-.1c-.2.1-.3.1-.5.1h-4.1c-1.2 0-2.2-.7-2.5-1.8v1.8h-4.5c-1.2-.1-2.2-1.2-2.2-2.4v-.1c-.1.5-.3.9-.6 1.3-.5.7-1.3 1.1-2.1 1.2h-4.3v-3.3h1.5c-.5-.3-.9-.7-1.2-1.4-.5-1.1-.4-2.2.2-3.3.5-.8 1.2-1.2 2-1.2H462.9v2.4c0-1.1 1-2.2 2.1-2.3.6 0 1.2-.1 1.8-.1h3v1.7c.3-1.1 1.2-1.7 2.5-1.7h4.1v6.1l1.5-4.5c.4-1.2 1.1-1.7 2.1-1.7h.5c.8.1 1.3.6 1.6 1.3.6 1.9 1.2 3.8 1.9 5.7l.4 1.7z"/><path fill="#4A88A0" d="M484.1 135.6h-4.4v-1h3c-.2-.7-.4-1.2-.6-1.7-.4-1.3-.8-2.7-1.3-4-.1-.3-.4-.7-.7-.8-.5-.1-.6.4-.8.8-.7 2.1-1.4 4.1-2 6.2-.2.5-.4.7-.9.6h-4c-1.4 0-2.3-.9-2.3-2.3v-3.8c0-1.4.9-2.3 2.3-2.3h3.7v1.1H473c-1.5 0-1.8.4-1.8 1.9v2.9c0 1 .5 1.5 1.4 1.5h2.4v-3.4h-2v-1h3.1v4.4h.2c.7-2 1.3-4.1 2-6.1.4-1.2 1.1-1.6 2.2-1.5.6.1 1.1.5 1.3 1.1.8 2.4 1.6 4.9 2.4 7.3-.1 0-.1 0-.1.1zM456.5 135.6v-1.1h3.5c1 0 1.7-.7 1.7-1.6 0-.9-.7-1.7-1.6-1.7h-1.2c-.6-.1-1-.6-1-1.3 0-.6.4-1.2 1-1.2h3.8v1.1H459v.4h1.1c1.3 0 2.3.8 2.6 2.1.4 1.6-.7 3.3-2.3 3.4-1.3-.1-2.5-.1-3.9-.1z"/><path fill="#4A88A0" d="M456.5 134.1V133h3.7v-.3h-1.1c-1.1 0-1.9-.5-2.3-1.5-.5-1-.4-2 .2-2.9.4-.6 1-1.1 1.8-1.1h4v1.1h-3.5c-1.2 0-1.9 1.1-1.6 2.2.2.7.8 1.1 1.6 1.1h1.1c.6.1 1 .6 1 1.2s-.4 1.2-1 1.3h-3.9zM469.5 127.2v1H466c-1.2 0-1.6.4-1.6 1.7v3c0 1.2.5 1.6 1.5 1.6h3.5v1.1h-4.1c-1-.1-1.9-1-1.9-2v-4.4c0-.9.8-1.9 1.7-2 1.5-.1 3 0 4.4 0zM477.4 135.6c.7-2.3 1.5-4.6 2.2-6.8.1-.2.2-.3.4-.4.1 0 .3.1.4.3.6 1.8 1.2 3.6 1.8 5.5h-2.5c0-.3-.1-.5-.1-.7h-.1c-.1.4-.3.8-.4 1.3-.4.9-.4.9-1.7.8zm2.2-2.7h.9c-.1-.4-.3-.8-.4-1.1h-.2c-.1.3-.2.7-.3 1.1zM473.7 132.8c-.3-.1-.5-.2-.7-.2v-.9h1.6v2.5h-2.5c-.2 0-.5-.4-.6-.7-.1-1.3 0-2.7 0-4 0-.5.3-.7.7-.8h3.8v1.1h-2.8c-.6 0-.8.2-.7.8v1.9c.1.6.4.8 1.2.3z"/><path fill="#4A88A0" d="M466 133c1.2.2 2.3 0 3.5.1v1h-4c-.2 0-.5-.4-.6-.7-.1-.5 0-1.1 0-1.7h3.8v1H466v.3zM469.5 128.6v1c-1.2.2-2.4-.1-3.6.1v.3h2.7v1.1h-3.8c0-.6-.1-1.3 0-1.9 0-.2.4-.6.6-.6h4.1z"/><path fill="#FFF" d="M403.4 121.8h86.5v2h-86.5zM405.7 73.8h76.1v2h-76.1z"/></g></svg>