<svg enable-background="new 0 125.9 682 270.1" viewBox="0 125.9 682 270.1" xmlns="http://www.w3.org/2000/svg"><path d="m682 384.7v-247.4h-676.2v247.3h676.2z" fill="#959995"/><path d="m-.9 125.9h682.9v270.1h-682.9z" fill="none"/><g transform="matrix(.55931154 0 0 -.55931154 -.000168 200)"><path d="m10.3-256.8v-73.3h345.6s.7-20.4-12.7-20.4h-324.1s-20.5 0-20.5 18.3v63.5c-.1-.1-1.8 11.9 11.7 11.9m8.8 389.2h324.2c13.4 0 12.7-20.4 12.7-20.4h-345.7v-73.3c-13.6 0-11.8 12-11.8 12s0 45.2 0 63.5c0 18.2 20.6 18.2 20.6 18.2" fill="#9a2025"/><path d="m125.9 75.2v-368.5h-76.7v368.5z" fill="#21201f"/><path d="m163.7 75.2v-368.5h-37.9v368.5z" fill="#fff"/><path d="m139.2-184.8h-3.5c-3.1 0-4.6 1.5-4.6 4.6v20.8h4.6v-20.8h3.5v16.2c0 3.1 1.5 4.6 4.6 4.6h3.5c3.1 0 4.6-1.5 4.6-4.6v-20.8h-4.6v20.8h-3.5v-16.2c0-3-1.5-4.6-4.6-4.6m-3.5 35.9h-4.6v17.3h4.6v-3.5h11.6c3.1 0 4.6-1.5 4.6-4.6v-12.7c0-3.1-1.5-4.6-4.6-4.6h-3.5v4.6h3.5v12.7h-11.6zm3.5 19.6v8.1h4.6v-8.1zm0 37c3.1 0 4.6-1.5 4.6-4.6v-17.3h3.5v22h4.6v-26.6h-8.1c-3.1 0-4.6 1.5-4.6 4.6v17.3h-3.5v-22h-4.6v22c0 3.1 1.5 4.6 4.6 4.6zm-3.5 24.2v-17.3h11.6v17.3zm11.6 4.7c3.1 0 4.6-1.5 4.6-4.6v-17.3c0-3.1-1.5-4.6-4.6-4.6h-11.6c-3.1 0-4.6 1.5-4.6 4.6v17.3c0 3.1 1.5 4.6 4.6 4.6zm-11.6 24.2v-17.3h11.6v17.3zm11.6 4.6c3.1 0 4.6-1.5 4.6-4.6v-17.3c0-3.1-1.5-4.6-4.6-4.6h-11.6c-3.1 0-4.6 1.5-4.6 4.6v17.3c0 3.1 1.5 4.6 4.6 4.6z" fill="#231f20"/><path d="m658.4-109.9c0-87.9-71.2-159.1-159.1-159.1s-159.1 71.2-159.1 159.1 71.2 159.1 159.1 159.1 159.1-71.2 159.1-159.1m-336.3 0c0-97.9 79.4-177.3 177.3-177.3s177.3 79.4 177.3 177.3-79.5 177.3-177.4 177.3-177.2-79.4-177.2-177.3" fill="#656769"/><path d="m499.3 49.2c87.9 0 159.1-71.2 159.1-159.1s-71.2-159.1-159.1-159.1-159.1 71.2-159.1 159.1 71.3 159.1 159.1 159.1" fill="#818283"/><path d="m499.3-11.2c54.5 0 98.7-44.2 98.7-98.7s-44.2-98.7-98.7-98.7c-36.7 0-68.7 20-85.7 49.7 5.4-2 11.2-3.2 17.3-3.3 15.3-19.2 38.9-31.4 65.3-31.4 46.3 0 83.8 37.5 83.8 83.8s-37.5 83.8-83.8 83.8c-26.4 0-50-12.3-65.3-31.4-6.1-.1-11.9-1.3-17.3-3.3 17.1 29.6 49.1 49.5 85.7 49.5" fill="#656769"/><path d="m496.3-26.1c46.3 0 83.8-37.5 83.8-83.8s-37.5-83.8-83.8-83.8c-26.4 0-50 12.3-65.3 31.4h1.1c8.7 0 16.9 2.1 24.1 5.9 10.8-9.1 24.8-14.6 40.1-14.6 34.4 0 62.4 27.9 62.4 62.4s-27.9 62.4-62.4 62.4c-16.1 0-30.8-6.1-41.9-16.1-6.8 3.2-14.4 5-22.4 5-.4 0-.7 0-1.1 0 15.4 19 39 31.2 65.4 31.2" fill="#232221"/><path d="m413.6-182.9-18.7-18.7c-1.3-1.3-2-3-2-4.8 0-1.7.7-3.4 2-4.8 2.6-2.6 6.9-2.6 9.5 0l18.7 18.8c1.3 1.3 2 3 2 4.8 0 1.7-.7 3.5-2 4.7-2.6 2.7-6.9 2.7-9.5 0m179.7 179.8-18.7-18.7c-1.3-1.3-2-3-2-4.7s.7-3.4 2-4.7c2.6-2.6 6.9-2.6 9.5 0l18.8 18.7c1.3 1.3 1.9 3 1.9 4.7s-.6 3.5-1.9 4.7c-2.7 2.6-6.9 2.6-9.6 0m-198.2-1.1c-2.6-2.6-2.6-6.9 0-9.5l18.8-18.8c1.3-1.3 3-1.9 4.7-1.9s3.4.7 4.7 1.9c2.6 2.6 2.6 6.9 0 9.5l-18.7 18.8c-1.3 1.3-3 1.9-4.7 1.9s-3.5-.6-4.8-1.9m179.8-179.7c-2.6-2.6-2.6-6.9 0-9.5l18.7-18.7c1.3-1.3 3-2 4.8-2 1.7 0 3.4.7 4.7 2 2.6 2.6 2.6 6.9 0 9.5l-18.7 18.8c-1.3 1.3-3 1.9-4.7 1.9-1.8-.1-3.5-.8-4.8-2m-219.9 78.9c-1.2-1.2-2-2.9-2-4.7 0-3.7 3-6.7 6.7-6.7h20.3c-.3 2.2-.4 4.3-.4 6.5 0 2.3.1 4.7.4 6.9h-20.4c-1.7 0-3.4-.7-4.6-2m254.2 0c-1.2-1.2-2-2.9-2-4.7 0-3.7 3-6.7 6.7-6.7h26.5c1.9 0 3.5.7 4.7 2 1.2 1.2 2 2.9 2 4.8 0 3.7-3 6.7-6.7 6.7h-26.5c-1.8-.1-3.5-.8-4.7-2.1m-116.4 134.7v-26.5c0-1.9.7-3.5 2-4.7 1.2-1.2 2.9-2 4.7-2 3.7 0 6.7 3 6.7 6.7v26.5c0 1.9-.7 3.5-2 4.8-1.2 1.2-2.9 2-4.7 2-3.7-.1-6.7-3.1-6.7-6.8m6.7-247.5c1.9 0 3.5-.7 4.7-2 1.2-1.2 2-2.9 2-4.7v-26.5c0-3.7-3-6.7-6.7-6.7-1.9 0-3.5.7-4.7 2-1.2 1.2-2 2.9-2 4.7v26.5c0 3.7 3 6.7 6.7 6.7" fill="#959995"/><path d="m432.1-57.5c8 0 15.6-1.8 22.4-5 4.7-2.2 9-5.1 12.8-8.6 4.1-3.7 7.6-8.1 10.4-13 4.4-7.6 6.8-16.5 6.8-25.9s-2.5-18.3-6.8-25.9c-2.4-4.3-5.4-8.2-8.9-11.6-3.7-3.6-7.9-6.7-12.5-9.1-7.2-3.8-15.4-5.9-24.1-5.9-.4 0-.7 0-1.1 0-6.1.1-11.9 1.3-17.3 3.3-17.9 6.8-31.1 23-33.5 42.5-.3 2.2-.4 4.3-.4 6.5 0 2.3.2 4.7.5 6.9 2.6 19.4 15.7 35.5 33.5 42.2 5.4 2 11.2 3.2 17.3 3.3.2.3.5.3.9.3" fill="#191716"/><path d="m496.3-46.3c34.4 0 62.4-27.9 62.4-62.4s-27.9-62.3-62.4-62.3c-15.3 0-29.3 5.5-40.1 14.6 4.6 2.4 8.8 5.5 12.5 9.1 7.8-5.6 17.3-8.8 27.6-8.8 16.2 0 30.5 8.1 39.1 20.4 5.3 7.7 8.5 17 8.5 27.1 0 9-2.5 17.5-6.9 24.6-8.3 13.7-23.4 22.9-40.7 22.9-11 0-21-3.7-29-9.9-3.8 3.4-8.1 6.3-12.8 8.6 11 10 25.7 16.1 41.8 16.1" fill="#1b1918"/><path d="m477.7-84h59.3c4.4-7.2 6.9-15.6 6.9-24.6 0-10.1-3.1-19.4-8.5-27.1h-57.7c4.4 7.6 6.8 16.5 6.8 25.9 0 9.3-2.4 18.2-6.8 25.8" fill="#191716"/><path d="m477.7-135.8h57.7c-8.6-12.3-22.9-20.4-39.1-20.4-10.3 0-19.8 3.3-27.6 8.8 3.6 3.4 6.6 7.4 9 11.6m18.6 74.7c17.2 0 32.3-9.2 40.7-22.9h-59.3c-2.7 4.9-6.3 9.3-10.4 13 8 6.2 18.1 9.9 29 9.9" fill="#1c1b1a"/><g fill="#28479f"><path d="m78-198.1c-2.6 0-4.8.9-6.7 2.8-1.9 1.8-2.8 4.4-2.8 7.7v25.2h8.4v-25.2c0-1.4.4-2.1 1.1-2.1s1.1.7 1.1 2.1v6.3c0 4.8 1.9 9.2 5.8 13.1s8.6 5.8 14.1 5.8 10.2-1.9 14.1-5.8 5.9-8.3 5.9-13.1v-27.3h-8.4v25.2c0 3.9-1.1 6.9-3.4 9.2s-5 3.4-8.1 3.4c-3.2 0-5.9-1.1-8.2-3.4s-3.4-5.3-3.4-9.2v-4.2c0-3.3-.9-5.9-2.8-7.7-1.9-1.9-4.1-2.8-6.7-2.8m0-10.5c-5.5 0-10.2 1.9-14.1 5.8s-5.9 8.3-5.9 13.1v27.3h8.4v-25.2c0-3.9 1.1-6.9 3.4-9.2s5-3.4 8.1-3.4c3.2 0 5.9 1.1 8.2 3.4s3.4 5.3 3.4 9.2v4.2c0 3.3.9 5.9 2.8 7.7 1.8 1.8 4.1 2.8 6.7 2.8s4.8-.9 6.7-2.8 2.8-4.4 2.8-7.7v-25.2h-8.5v25.2c0 1.4-.3 2.1-1.1 2.1-.7 0-1-.7-1-2.1v-6.3c0-4.8-1.9-9.2-5.8-13.1s-8.6-5.8-14.1-5.8m11.5 60.9v27.3h8.4v-18.9c1.4 0 2.1.7 2.1 2.1v23.1h8.4v-25.2c0-5.6-2.8-8.4-8.4-8.4zm-2.1 0h-10.5c-5.6 0-8.4 2.8-8.4 8.4v25.2h8.4v-23.1c0-1.4.7-2.1 2.1-2.1v18.9h8.4zm-10.5-10.5c-12.6 0-18.9 6.3-18.9 18.9v25.2h8.4v-25.2c0-7 3.5-10.5 10.5-10.5h23.1c7 0 10.5 3.5 10.5 10.5v25.2h8.4v-25.2c0-12.6-6.3-18.9-18.9-18.9zm0 58.8c-5.6 0-8.4 2.8-8.4 8.4v25.2h8.4v-23.1c0-1.4.7-2.1 2.1-2.1h18.9c1.4 0 2.1.7 2.1 2.1v4.2h-2.1v-4.2h-8.4v12.6h18.9v-14.7c0-5.6-2.8-8.4-8.4-8.4zm0-10.5c-12.6 0-18.9 6.3-18.9 18.9v25.2h8.4v-25.2c0-7 3.5-10.5 10.5-10.5h23.1c7 0 10.5 3.5 10.5 10.5v16.8h-23.1v-14.7h-8.4v23.1h40v-25.2c0-12.6-6.3-18.9-18.9-18.9-.1 0-23.2 0-23.2 0z"/><path d="m90.2-37.8 9.8-3.9v7.7zm18.3-5.2h-4.6l15.1-6v-8.4l-49 18.2c-.9.2-1.4.7-1.4 1.4s.5 1.2 1.4 1.4l38.5 14.7zm2 0v24.9l-42.7-16.9c-.9-.5-1.4-1.4-1.4-2.8 0-1.2.5-2.1 1.4-2.8l51.2-18.9v-8.4l-54 19.6c-4.7 2.3-7 5.8-7 10.5 0 5.4 2.3 8.9 7 10.5l54 20.3v-36z"/></g></g></svg>