<svg baseProfile="tiny" xmlns="http://www.w3.org/2000/svg" viewBox="0 0 436.7 178.3"><path fill="#FAAF40" d="M100.7 178.3h-7.4c-1.7 0-3.1-1.4-3.1-3.1v-8c0-1.7 1.4-3.1 3.1-3.1h7.4c1.7 0 3.1 1.4 3.1 3.1v8c-.1 1.7-1.4 3.1-3.1 3.1z"/><path fill="#A91C41" d="M17.5 177.2c-3.1 0-5.6-2.5-5.7-5.6l-1.4-16.9V8.2c0-3.1 2.6-5.7 5.7-5.7h111.6c3.1 0 5.7 2.6 5.7 5.7V155l-1.4 16.7c-.1 3.1-2.6 5.6-5.7 5.6H17.5z"/><path fill="#BFA886" d="M126.2 172.3H17.5c-1.6 0-2.9-1.3-2.9-2.9l-1.4-16.8V6.2c0-1.6 1.3-2.9 2.9-2.9h111.6c1.6 0 2.9 1.3 2.9 2.9v146.6l-1.4 16.7c-.1 1.6-1.4 2.8-3 2.8z"/><path fill="#FFF" d="M13.2 152.2h117.3v.9H13.2zM88.1 151.1H55.6c-1 0-1.9-.8-1.9-1.9V94.4c0-1 .8-1.9 1.9-1.9h32.5c1 0 1.9.8 1.9 1.9v54.8c0 1-.8 1.9-1.9 1.9zM55.6 93.4c-.6 0-1 .4-1 1v54.8c0 .6.4 1 1 1h32.5c.6 0 1-.4 1-1V94.4c0-.6-.4-1-1-1H55.6z"/><path fill="#FFF" d="M73.1 93h.9v33.7h-.9zM70.2 93h.9v33.7h-.9zM48.2 28.7c-.2 0-.4-.2-.4-.4V3.6c0-.2.2-.4.4-.4s.4.2.4.4v24.6c0 .3-.1.5-.4.5zM52.3 28.7c-.2 0-.4-.2-.4-.4V3.6c0-.2.2-.4.4-.4s.4.2.4.4v24.6c0 .3-.2.5-.4.5zM56.3 28.7c-.2 0-.4-.2-.4-.4V3.6c0-.2.2-.4.4-.4s.4.2.4.4v24.6c.1.3-.1.5-.4.5zM60.4 28.7c-.2 0-.4-.2-.4-.4V3.6c0-.2.2-.4.4-.4s.4.2.4.4v24.6c0 .3-.2.5-.4.5zM64.4 28.7c-.2 0-.4-.2-.4-.4V3.6c0-.2.2-.4.4-.4s.4.2.4.4v24.6c.1.3-.1.5-.4.5zM68.5 28.7c-.2 0-.4-.2-.4-.4V3.6c0-.2.2-.4.4-.4s.4.2.4.4v24.6c0 .3-.2.5-.4.5zM72.5 28.7c-.2 0-.4-.2-.4-.4V3.6c0-.2.2-.4.4-.4s.4.2.4.4v24.6c.1.3-.1.5-.4.5zM76.6 28.7c-.2 0-.4-.2-.4-.4V3.6c0-.2.2-.4.4-.4s.4.2.4.4v24.6c0 .3-.2.5-.4.5zM80.6 28.7c-.2 0-.4-.2-.4-.4V3.6c0-.2.2-.4.4-.4s.4.2.4.4v24.6c.1.3-.1.5-.4.5zM84.7 28.7c-.2 0-.4-.2-.4-.4V3.6c0-.2.2-.4.4-.4s.4.2.4.4v24.6c0 .3-.2.5-.4.5zM88.7 28.7c-.2 0-.4-.2-.4-.4V3.6c0-.2.2-.4.4-.4s.4.2.4.4v24.6c.1.3-.1.5-.4.5zM92.8 28.7c-.2 0-.4-.2-.4-.4V3.6c0-.2.2-.4.4-.4s.4.2.4.4v24.6c0 .3-.2.5-.4.5zM96.8 28.7c-.2 0-.4-.2-.4-.4V3.6c0-.2.2-.4.4-.4s.4.2.4.4v24.6c.1.3-.1.5-.4.5zM12 26h28v.9H12zM105.9 26h28v.9h-28z"/><path fill="#A91C41" d="M85.3 137.8h-27c-1.7 0-3.1-1.4-3.1-3.1v-11c0-1.7 1.4-3.1 3.1-3.1h27c1.7 0 3.1 1.4 3.1 3.1v11c0 1.7-1.4 3.1-3.1 3.1z"/><path fill="#231F20" d="M140.7 85.8h2.1V108h-2.1zM140.7 48h2.1v11.3h-2.1zM140.7 29.6h2.1v11.3h-2.1zM0 32.9h2.2v22.2H0zM0 81.6h2.2v11.3H0zM0 100h2.2v11.3H0z"/><path fill="#A91C41" d="M106.4 147.5H99c-1.7 0-3.1-1.4-3.1-3.1v-8c0-1.7 1.4-3.1 3.1-3.1h7.4c1.7 0 3.1 1.4 3.1 3.1v8c0 1.7-1.4 3.1-3.1 3.1zM45.1 147.5h-7.4c-1.7 0-3.1-1.4-3.1-3.1v-8c0-1.7 1.4-3.1 3.1-3.1h7.4c1.7 0 3.1 1.4 3.1 3.1v8c0 1.7-1.4 3.1-3.1 3.1zM124.2 165.6H18.7c-.8 0-1.4-.6-1.4-1.4l-.6-5.5c0-.8.6-1.4 1.4-1.4h106.6c.8 0 1.4.6 1.4 1.4l-.6 5.5c.1.7-.6 1.4-1.3 1.4zM118.4 73.3h-94c-.8 0-1.4-.6-1.4-1.4V51.5l-.6-2.9c0-.8.6-1.4 1.4-1.4H119c.8 0 1.4.6 1.4 1.4l-.6 2.5v20.7c.1.8-.6 1.5-1.4 1.5z"/><path fill="#FFF" d="M106.2 44.1H39.5V3.3h.9v40h65v-40h.8z"/><path fill="#A91C41" d="M5.2 19H17c1.7 0 3.1 1.4 3.1 3.1v96.6c0 1.7-1.4 3.1-3.1 3.1H5.2c-1.7 0-3.1-1.4-3.1-3.1V22.1c.1-1.7 1.5-3.1 3.1-3.1zM125.8 121.8h11.8c1.7 0 3.1-1.4 3.1-3.1V22.1c0-1.7-1.4-3.1-3.1-3.1h-11.8c-1.7 0-3.1 1.4-3.1 3.1v96.6c0 1.7 1.4 3.1 3.1 3.1z"/><path fill="#FFF" d="M49.6 151.1H21.9c-1 0-1.9-.8-1.9-1.9v-17.7c0-1 .8-1.9 1.9-1.9h27.8c1 0 1.9.8 1.9 1.9v17.7c-.1 1-.9 1.9-2 1.9zm-27.7-20.6c-.6 0-1 .4-1 1v17.7c0 .6.4 1 1 1h27.8c.6 0 1-.4 1-1v-17.7c0-.6-.4-1-1-1H21.9zM122.3 151.1H94.5c-1 0-1.9-.8-1.9-1.9v-17.7c0-1 .8-1.9 1.9-1.9h27.8c1 0 1.9.8 1.9 1.9v17.7c-.1 1-.9 1.9-1.9 1.9zm-27.8-20.6c-.6 0-1 .4-1 1v17.7c0 .6.4 1 1 1h27.8c.6 0 1-.4 1-1v-17.7c0-.6-.4-1-1-1H94.5zM20.2 79h102.6v.9H20.2z"/><path fill="#59011D" d="M47 141.6H35.9c-.7 0-1.2.6-1.2 1.2v1.3c0 .7.6 1.2 1.2 1.2H47c.7 0 1.2-.6 1.2-1.2v-1.3c0-.6-.5-1.2-1.2-1.2zM87.2 135.3H56.5c-.7 0-1.2-.6-1.2-1.2v-9.8c0-.7.6-1.2 1.2-1.2h30.6c.7 0 1.2.6 1.2 1.2v9.8c.1.7-.4 1.2-1.1 1.2zM118.4 73.3h-94c-.8 0-1.4-.6-1.4-1.4 0-.8.6-1.4 1.4-1.4h94c.8 0 1.4.6 1.4 1.4.1.7-.6 1.4-1.4 1.4zM119 50.1H23.9c-.8 0-1.4-.6-1.4-1.4 0-.8.6-1.4 1.4-1.4H119c.8 0 1.4.6 1.4 1.4 0 .7-.6 1.4-1.4 1.4z"/><g fill="#BFA886"><path d="M41.9 158.2H45v.9h-2v1.1h2v1h-2v2h-1.1zM48.6 163.2h-1.1v-.8h-2.1l-.6.8h-1.3l4.1-5.1h.9l.1 5.1zm-1.1-1.7V160l-1.3 1.5h1.3zM49 158.2h1.3l1.7 3.4 1.8-3.4H55v5h-1.1v-2.5l-1.4 2.5h-1.1l-1.3-2.5v2.5H49zM75.6 158.2h1.2l1.8 3.4 1.7-3.4h1.3v5h-1.1v-2.5l-1.4 2.5H78l-1.3-2.5v2.5h-1.1zM55.4 158.2h1.1v5.1h-1.1zM56.8 158.2H58v4.1h1.4v.9h-2.6zM58.2 158.2h1.2l1.2 2 1.2-2h1.3l-1.9 3.2v1.8h-1.1v-1.8zM69.3 159.6c-.5-.8-1.5-1.4-2.7-1.4-1.7 0-3 1.2-3 2.6 0 1.4 1.3 2.6 3 2.6 1.2 0 2.2-.6 2.7-1.4h-1.4c-.3.3-.8.4-1.3.4-1 0-1.9-.7-1.9-1.6s.8-1.6 1.9-1.6c.5 0 .9.2 1.3.4h1.4z"/><path d="M72.2 163.3c-1.7 0-3-1.2-3-2.6 0-1.4 1.4-2.6 3-2.6 1.7 0 3 1.2 3 2.6.1 1.5-1.3 2.6-3 2.6zm2-2.5c0-.9-.9-1.6-1.9-1.6s-1.9.7-1.9 1.6c0 .9.9 1.6 1.9 1.6 1 0 1.9-.7 1.9-1.6zM83.9 158.2c1 .1 1.8.8 1.8 1.7 0 .9-.8 1.6-1.8 1.7H83v1.7h-1v-5.1H83.9zm-.8.9v1.4h.9c.4-.1.7-.3.7-.7 0-.3-.3-.6-.7-.7h-.9zM97.9 163.3h-1.1v-5.1h2.4c1 .1 1.8.8 1.8 1.7 0 .7-.5 1.3-1.3 1.6l1.3 1.9h-1.2l-1.8-2.6h-.1v2.5zm1.3-2.7c.4-.1.7-.3.7-.7 0-.3-.3-.6-.7-.7h-1.3v1.4h1.3zM87.2 161.1v.7c.1.3.4.6.8.6s.7-.2.8-.6V158.2h1.1V161.8c-.1.9-.9 1.5-1.9 1.5-1 0-1.9-.7-1.9-1.5V158.2h1.1v2.9zM91 163.3h1.2v-4.1h1v-1h-3.1v1h.9zM96.5 163.3h-3.1v-5.1h3.1v.9h-2v1.2h2v1h-2v1.1h2zM17.3 164.5c0-.1-.1-.2-.1-.4v-.1h87.9v.5H17.3zM125.6 164.5v-.5h-7.8v.5h7.8z"/></g><g fill="#BFA886"><path d="M106 163.2h.5l.7 1.1v-1.1h.5v1.6h-.5l-.7-1.1v1.1h-.5v-1.6zM110.2 163.3h.5v.2h.3v.2h-.3v1.1h-.5v-1.1h-.2v-.2h.3l-.1-.2zM107.9 163.7h.5v1.1h-.5v-1.1zM107.9 163.2h.5v.3h-.5v-.3zM116.1 163.6c-.4 0-.7.3-.7.6s.3.6.7.6c.4 0 .7-.3.7-.6s-.3-.6-.7-.6m.2.6v.2c0 .2-.1.2-.2.2s-.2-.1-.2-.2v-.2-.2c0-.2.1-.2.2-.2s.2.1.2.2v.2zM114.8 164.3v-.2c0-.2-.1-.2-.2-.2s-.2 0-.2.2v.4c0 .2.1.2.2.2s.2 0 .2-.2v-.2zm0-1.1h.5v1.6h-.5v-.1c-.2.1-.4.1-.5 0 0 0-.3-.2-.3-.5s.3-.6.6-.6c.1 0 .2.1.3.1l-.1-.5zM109.4 163.7c.2 0 .5.1.5.5v.6h-.5v-.7c0-.1-.1-.2-.2-.2s-.2.1-.2.2v.7h-.5v-1.1h.5v.1c.2-.1.3-.1.4-.1M113.3 163.7c.2 0 .5.1.5.5v.6h-.5v-.7c0-.1-.1-.2-.2-.2s-.2.1-.2.2v.7h-.5v-1.1h.5v.1c.1-.1.2-.1.4-.1M111.8 164.4c0 .3-.1.3-.2.3s-.2 0-.2-.2v-.2h.9c0-.3-.3-.6-.7-.6s-.7.3-.7.6.3.6.7.6c.3 0 .6-.2.7-.4l-.5-.1zm-.4-.3v-.2c0-.1.1-.1.2-.1s.1 0 .2.1v.2h-.4zM116.9 163.4c.1 0 .1 0 0 0 .1-.1 0-.1 0-.1h-.1l.1.1zm0 .2l-.1-.4h.1c.1 0 .1 0 .1.1s0 .1-.1.1l.1.2-.1-.2h-.1v.2h.1z"/><path d="M116.9 163.6c.1 0 .3-.1.3-.3 0-.2-.1-.3-.3-.3-.1 0-.3.1-.3.3.1.2.2.3.3.3m-.3-.2c0-.2.1-.3.3-.3.2 0 .3.1.3.3 0 .2-.1.3-.3.3-.2 0-.3-.1-.3-.3"/></g><g fill="#BFA886"><path d="M27.5 158.8c0-.4-.3-.7-.7-.7-.4 0-.7.3-.7.7 0 .4.3.7.7.7.4 0 .7-.3.7-.7zM25.9 158.7s0-.1 0 0c0-.3-.2-.5-.4-.5s-.3.1-.4.3l-1.4 4.2v.1c0 .2.2.4.4.4s.3-.1.4-.3l1.4-4.2zM27 160.4c0-.4-.3-.7-.7-.7-.4 0-.7.3-.7.7 0 .4.3.7.7.7.4 0 .7-.3.7-.7zM30.4 158.8c0-.4-.3-.7-.7-.7s-.7.3-.7.7c0 .4.3.7.7.7s.7-.3.7-.7zM28.8 158.7s0-.1 0 0c0-.3-.2-.5-.4-.5s-.3.1-.4.3l-1.4 4.2v.1c0 .2.2.4.4.4s.3-.1.4-.3l1.4-4.2zM29.9 160.4c0-.4-.3-.7-.7-.7s-.7.3-.7.7c0 .4.3.7.7.7s.7-.3.7-.7z"/></g><g><path fill="#3C3C3B" d="M20.2 93.6V44.4h1.4v-1.5h-1.4v-2.1h1.4v-1.5h-1.4v-2h1.4v-1.5h-1.4v-1.7h1.4v-1.5h-1.4v-1.9h1.4v-1.5h-1.4V2.4h102.5v26.8h-1.9v1.5h1.9v1.9h-1.9v1.5h1.9v1.7h-1.9v1.5h1.9v2h-1.9v1.5h1.9v2.1h-1.9v1.5h1.9v49.2z"/><path d="M21.6 29.2h99.1v1.5H21.6zM21.6 42.9h99.1v1.5H21.6zM21.6 32.6h57v1.5h-57zM21.6 35.8h57v1.5h-57zM21.6 39.3h57v1.5h-57z"/><path d="M79.295 30.759v12.2h-.8v-12.2zM114.004 30.75v12.2h-.8v-12.2zM114.1 32.6h6.7v1.5h-6.7zM114.1 35.8h6.7v1.5h-6.7zM114.1 39.3h6.7v1.5h-6.7z"/><path fill="#333" d="M112.7 0h-46l-.8 2.4h48.2z"/><g fill="#FFF"><path d="M86.5 38.9h-1.2c-.1 0-.1 0-.1-.1-.5-.9-1.1-1.8-1.6-2.7 0 0 0-.1-.1-.1v2.8h-1.2v-4.1H83.5c.1 0 .1 0 .1.1.5.9 1.1 1.8 1.6 2.7 0 0 0 .1.1.1v-2.8h1.2v4.1zM106.5 34.9V39h-1.2v-.1c-.8.4-1.5.3-2-.4-.3-.5-.3-1.2.1-1.6.2-.3.5-.5.9-.6.4-.1.7 0 1 .2V35c.4-.1.8-.1 1.2-.1zm-2.2 2.7v.6c0 .3.2.5.5.5s.5-.2.5-.4v-1.1-.1c-.1-.2-.3-.4-.5-.4s-.4.2-.4.4c-.1.1-.1.3-.1.5zM92.7 38.9h-1.2v-.1-1.6c0-.3-.2-.5-.4-.6-.3-.1-.6.1-.7.3V38.8h-1.2v-2.7h1.2v.3l.1-.1c.6-.5 1.4-.4 1.9.1.2.2.3.5.3.9v1.6zM100.3 38.9h-1.2v-2.7h1.2v.3l.1-.1c.6-.5 1.5-.4 2 .2.2.2.3.4.3.7v1.6h-1.2v-.1-1.6c0-.3-.1-.5-.4-.6-.2-.1-.5 0-.7.2-.1.1-.1.2-.1.3v1.8zM108.7 36c.5 0 .9.1 1.3.5.6.6.6 1.5 0 2-.7.7-2 .7-2.7 0-.6-.6-.6-1.6.1-2.1.4-.2.8-.4 1.3-.4zm.5 1.6V37v-.1c0-.2-.1-.4-.3-.5-.3-.1-.6.1-.7.4v1.5c0 .3.2.4.5.4s.5-.2.5-.5v-.6zM98.7 37.6h-2.3V38.4c.1.2.3.4.5.4s.4-.2.5-.4v-.3h1.2v.1c-.2.5-.6.8-1.2.9-.7.2-1.4 0-1.9-.5-.6-.6-.6-1.5.1-2 .4-.4.9-.5 1.5-.5.5 0 1 .2 1.3.7.2.2.3.5.3.8 0-.1 0-.1 0 0 0-.1 0 0 0 0zm-1.3-.4v-.4c0-.2-.2-.4-.5-.4-.2 0-.5.2-.5.4v.3c0 .1 0 .1.1.1h.9z"/><path d="M93.4 38.9v-2.7h-.7v-.4h.7v-.5h1.2v.5h.7v.4h-.7v2.7h-1.2zM88.4 36.2v2.7h-1.2v-2.7h1.2zM87.2 34.9h1.2v.8h-1.2v-.8z"/></g><g fill="#FFF"><path d="M72.2 46.5v-.8h.3l.5 1s.4-.9.4-1h.4v1.6h-.3v-.6-.1c0 .1-.3.6-.3.7 0 0 0 .1-.1 0H72.8l-.4-.8v.8h-.2v-.8zM79.4 46.5v-.7h.5c0 .1.4.9.4.9 0-.1.4-.9.4-.9v-.1H81v1.6h-.3V47v-.4c0 .1-.3.6-.3.7h-.3c0-.1-.3-.6-.3-.7v.7h-.1-.1c-.1 0-.1 0-.1-.1-.1-.2-.1-.5-.1-.7zM78.5 47.3c-.1 0-.2 0-.4-.1-.1 0-.1-.1-.2-.1l-.2-.2c0-.1-.1-.1-.1-.2v-.3c0-.1 0-.1.1-.2 0-.1.1-.1.1-.2.1-.1.2-.2.4-.3.1 0 .2-.1.3-.1h.2c.1 0 .1 0 .2.1 0 0 .1 0 .1.1 0 0 0 .1.1.1 0 0 0 .1.1.1l.1.1c0 .1.1.2.1.2v.4c0 .1-.1.2-.1.3-.1.2-.3.3-.4.3h-.4zm0-.3h.1c.1 0 .2-.1.3-.2.1-.1.1-.2.1-.3v-.1c0-.1 0-.1-.1-.2 0-.1-.1-.1-.1-.1-.1-.1-.2-.1-.3-.1H78.2c-.1 0-.1.1-.2.2v.3c0 .1 0 .2.1.3 0 .1.1.1.2.2h.2zM85.4 46.9v.4h-.2v-1.5h.5c.1 0 .2 0 .3.1.1 0 .1.1.2.2s.1.2.1.3V46.7c-.1.1-.1.2-.2.2.1.1.1.2.2.3.1.1.1.2.2.3h-.3c-.1-.2-.2-.3-.3-.5-.1-.1-.1-.2-.2-.3-.3-.1-.3 0-.3.2 0-.1 0 0 0 0zm0-.7v.2h.3c.1 0 .1 0 .1-.1.1-.1.1-.2 0-.3l-.1-.1h-.3v.3zM82.2 46.3v-.6h.3v1.2c0 .1 0 .1.1.2.2.1.3 0 .3-.2v-1-.1h.3V47c0 .1-.1.2-.1.3l-.2.2h-.4c-.1 0-.2-.1-.3-.2 0-.1-.1-.1-.1-.2.1-.4.1-.6.1-.8z"/><path d="M77.5 46.1h-.1-.1s-.1-.1-.2-.1h-.2c-.1 0-.2 0-.3.1l-.1.1s-.1.1-.1.3c0 .1 0 .2.1.3 0 0 .1.1.2.1s.2.1.3 0c.1 0 .1-.1.2-.1h.4c-.1.1-.1.2-.2.2s-.1.1-.2.1h-.4c-.1 0-.3 0-.4-.1-.1 0-.2-.1-.2-.2-.1-.1-.1-.1-.1-.2v-.2-.3c0-.1 0-.1.1-.2 0 0 0-.1.1-.1.1-.1.1-.2.2-.2s.1-.1.2-.1h.2c.2 0 .3 0 .4.1.1 0 .1.1.2.1l.2.2c-.1.2-.2.2-.2.2zM72 47.2c0 .1 0 .1 0 0h-.3V47h-.5s0 .1-.1.1c0 0 0 .1-.1.1h-.1H70.6l.1-.1c.1-.1 1-1.4 1-1.5h.2l.1 1.6zm-.2-.7v-.2c-.1.1-.2.2-.2.3v.1H71.9c-.1-.1-.1-.1-.1-.2zM84.2 46.5v-.8c0-.1 0 0 0 0h.8v.2h-.5v.3h.5v.3h-.5v.3h.5v.3h-.8v-.3-.3zM81.1 46.5v-.7c0-.1 0-.1.1-.1h.5c.1 0 .2 0 .3.1l.2.2c0 .1.1.2 0 .2 0 .1 0 .2-.1.2-.1.1-.1.2-.2.2s-.1.1-.2.1h-.2v.5h-.3c-.1-.2-.1-.5-.1-.7zm.3-.3v.2H81.7s.1 0 .1-.1v-.1-.1c0-.1-.1-.2-.2-.2h-.2v.3zM70.2 46.5v-.7h.8v.2h-.5v.3h.5v.3h-.5v.6h-.3v-.3-.4zM75.1 47v-.2-.1c-.1-.2-.2-.3-.3-.5-.1-.1-.1-.3-.2-.4h.4c.1.2.2.3.3.5v0c.1-.2.2-.4.3-.5h.3c-.2.3-.3.6-.5.9v.6h-.3c.1-.2 0-.2 0-.3zM83.9 46.7v.6h-.3v-.2-1c0-.1 0-.1-.1-.1h-.2v-.3h.7c.1 0 .1 0 .1.1v.3h-.2v.6z"/><path d="M74.3 46.5v-.8h.3V47h.3v.3h-.7c.1-.3.1-.6.1-.8z"/><path d="M73.9 46.5v-.7h.3V47.5h-.3v-.2-.8z"/></g><g fill="#FFF"><path d="M88.6 46.9c0 .1 0 .2-.1.3-.1.1-.2.1-.3.1h-.7V47h.1v-1.1h-.1v-.3h.7c.1 0 .2 0 .3.1.1.1.1.2.1.3v.9zm-.3 0V46v-.1h-.4V47h.3l.1-.1c0 .1 0 0 0 0zM89.1 47.3h-.3v-1.7h.3v1.7zM90.3 46.9c0 .1 0 .2-.1.3-.1.1-.2.1-.3.1h-.2c-.1 0-.2 0-.3-.1-.1-.1-.1-.2-.1-.3l.3-.1v.2h.4v-.2c0-.1 0-.1-.1-.1l-.4-.2c-.2-.1-.2-.2-.2-.3V46c0-.1 0-.2.1-.3.1-.1.2-.1.3-.1h.2c.1 0 .2 0 .3.1.1.1.1.2.1.3l-.3.1V46v-.1H89.7h-.1v.2c0 .1 0 .1.1.1l.4.2c.2.1.2.2.2.3v.2zM91.5 47.3h-.3v-.1l-.3-.6-.1.1v.6h-.3v-1.7h.3v.6l.4-.5v-.1h.3v.2l-.4.5.4.8v.2zM93.7 46.9c0 .1 0 .2-.1.3-.1.1-.2.1-.3.1h-.2c-.1 0-.2 0-.3-.1-.1-.1-.1-.2-.1-.3l.3-.1v.2h.4v-.2c0-.1 0-.1-.1-.1l-.4-.2c-.2-.1-.2-.2-.2-.3V46c0-.1 0-.2.1-.3.1-.1.2-.1.3-.1h.2c.1 0 .2 0 .3.1.1.1.1.2.1.3l-.3.1V46v-.1H93.1 93v.2c0 .1 0 .1.1.1l.4.2c.2.1.2.2.2.3v.2zM94.9 45.8l-.4.7v.8h-.3v-.8l-.4-.7v-.2h.3v.2l.2.4.2-.4v-.2h.3v.2zM96.1 46.9c0 .1 0 .2-.1.3-.1.1-.2.1-.3.1h-.2c-.1 0-.2 0-.3-.1-.2-.1-.2-.1-.2-.3l.3-.1v.2h.4v-.2c0-.1 0-.1-.1-.1l-.4-.2c-.2-.1-.2-.2-.2-.3V46c0-.1 0-.2.1-.3.1-.1.2-.1.3-.1h.2c.1 0 .2 0 .3.1.1.1.1.2.1.3l-.3.1V46v-.1H95.4h-.1v.2c0 .1 0 .1.1.1l.4.2c.2.1.2.2.2.3v.2zM97.3 45.9h-.4v1.4h-.3v-1.4h-.4v-.3h1.1v.3zM98.5 47.3h-1.1v-1.7h1v.3h-.7v.4h.5v.3h-.5v.4h.8v.3zM99.7 47.3h-.3v-.8l-.1.4H99l-.1-.4v.8h-.3v-1.7h.3l.2.8.2-.8h.3v1.7z"/></g><path fill="#FFF" d="M101.2 45.6h12.5v1.8h-12.5z"/><g fill="#1D1D1B"><path d="M101.9 47v-1.1h.2v.5h1v-.5h.2V47h-.2v-.5h-1v.5h-.2zM104.3 47l-.7-1.1h.3l.5.8c0 .1.1.1.1.2 0-.1.1-.1.1-.2l.5-.8h.3l-.7 1.1h-.4zM106.8 46.6h.2c-.1.1-.1.2-.3.3-.1.1-.3.1-.5.1s-.4 0-.5-.1c-.1-.1-.2-.1-.3-.2-.1-.1-.1-.2-.1-.3 0-.1 0-.2.1-.3.1-.1.2-.2.3-.2.1 0 .3-.1.5-.1s.3 0 .5.1c.1.1.2.1.3.2h-.2c0-.1-.1-.1-.2-.2-.1 0-.2-.1-.3-.1-.1 0-.3 0-.4.1-.1 0-.2.1-.2.2s-.1.1-.1.2 0 .2.1.3c0 .1.1.1.2.2.1 0 .2.1.3.1.1 0 .3 0 .4-.1.1 0 .2-.1.2-.2zM107.3 46.7v-.1h.7v.1h-.7zM108.2 46.5c0-.2.1-.3.2-.4.2-.1.4-.2.6-.2.2 0 .3 0 .5.1.1.1.2.1.3.2.1.1.1.2.1.3 0 .1 0 .2-.1.3-.1.1-.2.2-.3.2-.1 0-.3.1-.5.1s-.3 0-.5-.1c-.1-.1-.2-.1-.3-.2v-.3zm.2 0c0 .1.1.2.2.3.1.1.3.1.5.1s.3 0 .5-.1c.1-.1.2-.2.2-.3 0-.1 0-.2-.1-.2l-.2-.2c-.1 0-.2-.1-.3-.1-.2 0-.3 0-.5.1s-.3.2-.3.4zM111.4 46.9v.1h-1.2v-.1c0-.1.1-.1.2-.2.1 0 .2-.1.3-.2.2-.1.3-.2.4-.2.1-.1.1-.1.1-.2s0-.1-.1-.1-.1-.1-.3-.1c-.1 0-.2 0-.3.1-.1 0-.1.1-.1.2h-.2c0-.1.1-.2.2-.2.1-.1.2-.1.4-.1s.3 0 .4.1c.1.1.2.1.2.2v.1s-.1.1-.2.1-.2.1-.4.2c-.1.1-.2.1-.3.1l-.1.1h1z"/></g><path d="M111.7 46.8s.2.1.5.1c.2 0 .4-.1.4-.2s-.2-.2-.5-.2h-.1l-.1-.1.4-.3c.1 0 .1-.1.1-.1H111.5v-.1h1.2v.1l-.5.4c.3 0 .6.1.6.3 0 .2-.3.4-.7.4-.4 0-.7-.2-.7-.2l.3-.1z"/></g><g><path fill="#AC1739" d="M295 176.7s-1.1 1.5-3.5 1.5H181.4c-4 0-4.6-1.5-4.6-1.5s-4.3-7-4.3-8.6v-1.5c0-2.1 2.4-4.1 2.4-4.1v-33.9s-2.4-1.7-2.4-3.1v-3.2c0-1.6 1.3-3 3-3h119.4c1.6 0 3 1.3 3 3v3.4c0 2-2.6 1.6-2.6 1.6v36.3s2.6.6 2.6 1.9v2.5c0 1.7-2.9 8.7-2.9 8.7z"/><path fill="#3C3C3B" d="M294.2 167.2H176.3c-1.6 0-3-1.3-3-3v-10.8l-.6-.8v-2.8l.6-.8v-1l-.6-.7v-18.2l.6-.8v-.8c0-1.6 1.3-3 3-3h117.8c1.6 0 3 1.3 3 3v.9l.8 1.7v16.7l-.8 1.1v.8l.8.9v3.1l-.8.7v10.8c0 1.6-1.3 3-2.9 3z"/><path fill="#666" d="M173.3 153.4h13.9c1 0 1.8.8 1.8 1.8v7.2c0 1-.8 1.8-1.8 1.8h-13.9"/><path fill="#3C3C3B" d="M173.3 154.1h13.3c1 0 1.8.7 1.8 1.6v6.4c0 .9-.8 1.6-1.8 1.6h-13.3"/><path fill="#666" d="M297.1 164.3h-33.8c-1 0-1.8-.8-1.8-1.8v-7.2c0-1 .8-1.8 1.8-1.8h33.8"/><path fill="#3C3C3B" d="M297.1 163.6H264c-1 0-1.8-.7-1.8-1.6v-6.4c0-.9.8-1.6 1.8-1.6h33.2"/><path fill="#666" d="M268.2 148.7H195c-1 0-1.8-.8-1.8-1.8v-18.8c0-1 .8-1.8 1.8-1.8h73.2c1 0 1.8.8 1.8 1.8v18.8c0 1-.8 1.8-1.8 1.8z"/><path fill="#3C3C3B" d="M267.1 147.7h-71.3c-.9 0-1.7-.7-1.7-1.7v-16.8c0-.9.7-1.7 1.7-1.7h71.3c.9 0 1.7.7 1.7 1.7V146c-.1 1-.8 1.7-1.7 1.7z"/><path fill="#6F6F6E" d="M196.3 131h70.4v10h-70.4z"/><path fill="#6F6F6E" d="M220.8 127.6h21.5v20.1h-21.5z"/><path fill="#3C3C3B" d="M221.7 128.6h19.9v18.3h-19.9z"/><path fill="#3C3C3B" d="M197.5 132h68.1v8.1h-68.1z"/><path fill="#666" d="M297.1 148.8h-20.9c-1.6 0-2.3-.8-2.3-1.9v-17.8c0-1.1.6-1.9 2.2-1.9h21"/><path fill="#3C3C3B" d="M297.1 148.1l-20.5-.1c-1.5 0-2.1-.7-2.1-1.7v-16.7c0-1 .3-1.7 1.8-1.7l20.7-.1"/><path fill="#E79F00" d="M385.4 118.7s-.1-1.4 1.7-1.4h3.5c1 0 1.1.7 1.1.7s0 .7 1.4.7h11.7c1.1 0 1.1-.7 1.1-.7s-.1-.7 1.2-.7h7.6c1.3 0 1.3.7 1.3.7s0 .7 1.2.7h11.9c1.1 0 1.3-.7 1.3-.7s0-.7 1.2-.7h4.1c.9 0 .9 1.2.9 1.2V176c0 1.9-1.8 1.9-1.8 1.9H387c-1.8 0-1.8-1.8-1.8-1.8v-57.4z"/><ellipse transform="rotate(-45.001 411.057 144.792)" fill="#1D1D1B" cx="411.1" cy="144.8" rx="5.7" ry="5.7"/><circle fill="#FFF" cx="411.1" cy="144.8" r="4.6"/><path fill="#1D1D1B" d="M412.8 137.7h-3.4c-.4 0-.7-.3-.7-.7v-17.1c0-.4.3-.7.7-.7h3.4c.4 0 .7.3.7.7V137c-.1.4-.4.7-.7.7z"/><path fill="#6B5532" d="M411.1 154.1c-5.1 0-9.3-4.2-9.3-9.3v-.2V118.7h.9v26c0 4.7 3.8 8.5 8.5 8.5s8.5-3.8 8.5-8.5v-26h.9v26.1c-.2 5.1-4.4 9.3-9.5 9.3z"/><path fill="#1D1D1B" d="M389.9 125.1h-3.7v-4.8h3.7v4.8zm-3.5-.3h3.2v-4.2h-3.2v4.2z"/><path fill="#6B5532" d="M391.3 170.6h-5.9v-.3h5.6V167h-5.6v-.3h5.9zM436.7 170.6h-5.9v-3.9h5.9v.3h-5.6v3.3h5.6zM389.6 130.3h-4.2v-.3h3.9v-2.7h-3.9v-.3h4.2zM436.7 130.3h-4.2V127h4.2v.3h-3.9v2.7h3.9zM433.2 177.9c.6 0 1-.6 1-1.1v-4.5c0-.6-.5-1-1-1h-43.7c-.6 0-1 .5-1 1v4.5c0 .6.5 1.1 1 1.1-.7 0-1.3-.4-1.3-1.1v-4.5c0-.7.6-1.3 1.3-1.3h43.7c.7 0 1.3.6 1.3 1.3v4.5c0 .7-.6 1.1-1.3 1.1z"/><path fill="#6B5532" d="M396.1 177c-.5 0-.9-.4-.9-.9v-3.5c0-.5.4-.9.9-.9s.9.4.9.9v3.5c-.1.5-.5.9-.9.9zM408.4 171.8h-4.2c-.3 0-.6.3-.6.6v.6c0 .3.3.6.6.6h1.2v2.9c0 .3.3.6.6.6h.6c.3 0 .6-.3.6-.6v-2.9h1.2c.3 0 .6-.3.6-.6v-.6c0-.3-.2-.6-.6-.6zM414.5 173.3c.3 0 .6-.3.6-.6v-.4c0-.3-.3-.6-.6-.6h-4.1c-.3 0-.6.3-.6.6v4.1c0 .3.3.6.6.6h4.1c.3 0 .6-.3.6-.6v-.3c0-.3-.3-.6-.6-.6h-2.9v-.5h2.2c.3 0 .6-.3.6-.6v-.3c0-.3-.3-.6-.6-.6h-2.2v-.4h2.9zM393.8 171.8h-.6c-.3 0-.6.3-.6.6v1.8l-1.9-2.2c-.1-.1-.3-.2-.5-.2h-.6c-.3 0-.6.3-.6.6v4.1c0 .3.3.6.6.6h.6c.3 0 .6-.3.6-.6v-1.7l1.7 2c.3.3.5.2.6.2h.6c.3 0 .6-.3.6-.6v-4.1c.1-.2-.2-.5-.5-.5zM420.5 171.8h-.5c-.3 0-.6.3-.6.6v1.8l-1.9-2.2c-.1-.1-.3-.2-.5-.2h-.6c-.3 0-.6.3-.6.6v4.1c0 .3.3.6.6.6h.6c.3 0 .6-.3.6-.6v-1.7l1.7 2c.3.3.5.2.6.2h.6c.3 0 .6-.3.6-.6v-4.1c0-.2-.3-.5-.6-.5zM402.5 171.8h-.6c-.3 0-.6.3-.6.6v1.8l-1.9-2.2c-.1-.1-.3-.2-.5-.2h-.6c-.3 0-.6.3-.6.6v4.1c0 .3.3.6.6.6h.6c.3 0 .6-.3.6-.6v-1.7l1.7 2c.3.3.5.2.6.2h.6c.3 0 .6-.3.6-.6v-4.1c.1-.2-.2-.5-.5-.5zM431.4 171.8h-1.7c-.9 0-1.7.8-1.7 1.7v1.8c0 .9.8 1.7 1.7 1.7h1.7c.9 0 1.7-.8 1.7-1.7v-1.8c0-.9-.7-1.7-1.7-1.7zm.3 3.2c0 .3-.3.6-.6.6h-1c-.3 0-.6-.3-.6-.6v-1c0-.3.3-.6.6-.6h1c.3 0 .6.3.6.6v1zM425.3 171.8H422.4c-.3 0-.6.3-.6.6v4c0 .3.3.6.6.6H425.3c.9 0 1.7-.8 1.7-1.7v-1.8c0-.9-.7-1.7-1.7-1.7zm.3 3.1c0 .3-.3.6-.6.6h-.8c-.3 0-.6-.3-.6-.6v-1c0-.3.3-.6.6-.6h.8c.3 0 .6.3.6.6v1z"/><g><path fill="#1D1D1B" d="M435.6 126.1h-3.1v-5.6h.3v5.2h2.5v-5.2h.3z"/></g><g><path fill="#6B5532" d="M429.7 171.1h-.3v-15.9c0-.4-.3-.7-.7-.7h-35.1c-.4 0-.7.3-.7.7v15.9h-.3v-15.9c0-.6.5-1 1-1h35.1c.6 0 1 .5 1 1v15.9z"/></g><path fill="#231715" d="M412.8 144.8c0 1-.8 1.8-1.8 1.8s-1.8-.8-1.8-1.8.8-1.8 1.8-1.8 1.8.8 1.8 1.8z"/><g><path fill="#1D1D1B" d="M425.2 170.3H397c-2.1 0-3.9-1.8-3.9-3.9V159c0-2.1 1.8-3.9 3.9-3.9h28.1c2.1 0 3.9 1.8 3.9 3.9v7.5c.1 2.1-1.7 3.8-3.8 3.8z"/><g fill="#E79F00"><path d="M398.5 157.3c.4-.1.7-.5.8-.8 0-.1 0-.1-.1-.1h-.8c-.1 0-.1-.2 0-.2h.9c.2 0 .3.1.2.3-.1.4-.4.8-.9 1-.2 0-.3-.2-.1-.2zM400 157.5c-.1.1-.2-.1-.1-.1.2-.1.3-.3.3-.5 0-.1 0-.1.1-.1 0 0 .1 0 .1.1.1 0 .2-.1.2-.2h-.7c-.1 0-.1-.2 0-.2h.7c.2 0 .2.1.1.3-.1.1-.2.2-.4.3h-.1c.1.1 0 .3-.2.4zM401.9 157.5c-.1-.1-.2-.1-.3-.2-.1 0-.2-.1-.3-.1-.1 0-.1-.2.1-.2s.5.2.6.3c.1.1.1.1 0 .2s0 0-.1 0zm-.2-.7c-.1-.1-.2-.1-.3-.1-.2 0-.1-.2 0-.2s.3.1.4.1c.1 0 .1.1 0 .2.1 0 0 .1-.1 0zm.2-.4c-.1-.1-.3-.1-.4-.1-.1 0-.1-.2.1-.2.1 0 .3 0 .4.1.1 0 .1.1.1.2h-.2zM402.7 156.9c-.1 0-.1 0-.1-.1v-.7c0-.1.2-.1.2 0v.7c0 .1 0 .1-.1.1zm.1.5c.3-.2.4-.4.4-.7v-.5c0-.1.2-.1.2 0v.5c0 .3-.1.7-.5.9-.2 0-.3-.1-.1-.2zM403.9 156.8c-.1 0-.1 0-.1-.1 0 0 0-.1.1-.1h1.2c.1 0 .1 0 .1.1 0 0 0 .1-.1.1h-1.2zM406.4 157.3h-.7c-.1 0-.1-.2 0-.2h.7c.1 0 .1 0 .1-.1v-.4c0-.1 0-.1-.1-.1h-.7c-.2 0-.2-.2 0-.2h.8c.2 0 .3.1.3.2v.5c-.1.2-.3.3-.4.3zM407.5 156.6c-.1-.1-.2-.1-.3-.1-.1 0-.1-.2.1-.2.1 0 .2.1.3.1.1 0 .1.1 0 .2 0 .1-.1.1-.1 0zm-.1.8c-.2.1-.2-.2-.1-.2.4-.1.8-.5 1-.9.1-.1.3 0 .2.1-.3.5-.7.9-1.1 1zM409.1 157.1c0 .1 0 .1.2.2.1 0 .4 0 .6-.1.1-.1.2.2 0 .2s-.5.1-.7 0c-.2 0-.3-.1-.3-.3v-.9c0-.1.2-.1.2 0v.4c.2 0 .5-.1.6-.2.1-.1.2.1.1.2-.2.1-.5.2-.7.2v.3zm.9-.7c-.1 0-.2-.1-.2-.2s.1-.2.2-.2.2.1.2.2c0 .2-.1.2-.2.2zm0-.3c-.1 0-.1 0-.1.1s0 .1.1.1.1 0 .1-.1l-.1-.1zM411.3 157.2c.1 0 .1.2 0 .2h-.9c-.1 0-.1-.2 0-.2h.5c0-.1.1-.2.1-.3h-.3c-.1 0-.1-.2 0-.2h.4c.1 0 .2.1.1.2 0 .1 0 .2-.1.3h.2zM411.8 156.8c-.1 0-.1 0-.1-.1 0 0 0-.1.1-.1h1.2c.1 0 .1 0 .1.1 0 0 0 .1-.1.1h-1.2zM413.5 157.5c-.2.1-.2-.1-.1-.2.3-.1.5-.3.6-.4-.1 0-.1-.1-.2-.1s-.1-.2.1-.2c.1 0 .2.1.2.1.1-.1.1-.2.2-.3v-.1h-.3c-.1.2-.3.4-.4.5-.1.1-.2-.1-.1-.2.2-.1.4-.4.5-.6.1-.2.3 0 .2.1v.1h.3c.2 0 .2.1.2.3-.1.1-.1.2-.2.4.1 0 .1.1.1.1v.1h-.1l-.1-.1c-.3.2-.5.4-.9.5zM415.2 157.5c-.2.1-.2-.1-.1-.2.3-.1.5-.3.5-.6h-.6c-.1 0-.1 0-.1-.1 0 0 0-.1.1-.1h1.2c.1 0 .1 0 .1.1 0 0 0 .1-.1.1h-.4c0 .3-.2.7-.6.8zm.1-1.2c-.1 0-.1-.2 0-.2h.7c.1 0 .1 0 .1.1 0 0 0 .1-.1.1h-.7zm1 .1l-.1-.1c-.1-.1 0-.2.1-.1l.2.2s-.2.1-.2 0zm.2-.2l-.1-.1c-.1-.1 0-.2.1-.1 0 0 .1.1.2.1 0 .1-.1.2-.2.1zM416.6 157.2h-.2v-.1c.3-.1.5-.4.7-.6.1-.1.2 0 .2.1-.1.1-.1.2-.2.2v.6c0 .1 0 .1-.1.1 0 0-.1 0-.1-.1v-.5c-.1.2-.2.3-.3.3zM417.8 157.4c-.1.1-.2-.1-.1-.2.4-.1.7-.4.8-.7v-.1h-.6c-.1 0-.1-.2 0-.2h.6c.2 0 .3.1.2.2-.1.1-.1.2-.2.3.2.1.4.3.5.4.1.1-.1.3-.2.1-.1-.1-.3-.3-.5-.4 0 .4-.2.5-.5.6zM420.2 156.2h.3c.1 0 .3.1.2.2-.2.4-.5.8-1 1.1-.2.1-.2-.1-.1-.2.4-.1.7-.5.9-.9v-.1h-.3c-.1.2-.3.4-.4.5-.1.1-.2-.1-.1-.2.2-.1.4-.5.5-.6-.1 0 .1.1 0 .2zM421.3 156.9c-.1 0-.2-.1-.2-.1-.1 0-.1-.2.1-.2.1 0 .2 0 .3.1.1 0 .1.1 0 .1-.1.1-.1.1-.2.1zm0 .6c-.2.1-.2-.2-.1-.2.4-.1.8-.5 1-.9.1-.1.3 0 .2.1-.2.4-.6.8-1.1 1zm.2-1c-.1-.1-.1-.1-.2-.1s0-.2.1-.2.2.1.3.2c.1 0 0 .1 0 .2 0 0-.1 0-.2-.1zM422.8 157.4c-.1.1-.2-.1-.1-.2.4-.1.7-.4.8-.7v-.1h-.6c-.1 0-.1-.2 0-.2h.6c.2 0 .3.1.2.2-.1.1-.1.2-.2.3.2.1.4.3.5.4.1.1-.1.3-.2.1-.1-.1-.3-.3-.5-.4 0 .4-.2.5-.5.6zM424.7 157.5c-.2.1-.2-.1-.1-.2.3-.1.5-.3.5-.6h-.6c-.1 0-.1 0-.1-.1 0 0 0-.1.1-.1h1.2c.1 0 .1 0 .1.1 0 0 0 .1-.1.1h-.4c0 .3-.2.7-.6.8zm.8-1.2h-.8c-.1 0-.1-.2 0-.2h.8c.1 0 .1.1 0 .2.1 0 .1 0 0 0zM426.1 157.5c-.1 0-.2-.2 0-.2h.1c.1-.2.3-.7.3-1 0-.2.2-.1.2 0-.1.2-.2.6-.3.9.2 0 .4-.1.6-.1-.1-.1-.1-.1-.1-.2-.1-.1 0-.2.1-.1s.3.3.4.5c0 .1 0 .1-.1.1 0 0-.1 0-.1-.1 0 0 0-.1-.1-.1-.3.1-.7.2-1 .3z"/></g><path d="M396.8 155.7h.9s.1 0 .1.1c0 0 0 .1.1.1v.7l.1.1.1.1V157.1s0 .1-.1.1c0 0 0 .1-.1.1h-.1v.1h.1l.1.1v.1l-.1.1h-.1-.6v-.1l-.1-.1h-.1l-.1.1v.1h-.7c-.1 0-.1 0-.2-.1v-.1-.1-.1s0-.1.1-.1v-.1l-.1-.1-.1-.1v-.1-.1-.1s0-.1.1-.1l.1-.1v-.6-.1s0-.1.1-.1l.1-.1h.2c-.3.2 0 .2.3.2zm0 .1h-.8-.1-.1l-.1.1v.7s-.1 0-.1.1l-.1.1v.4l.1.1h.1V157.6h-.1v.1H396.4l.1-.1s.1-.1.2-.1h.2c.1 0 .1.1.1.1v.1h.7v-.1-.1s0-.1-.1-.1h-.1v-.2s.1 0 .1-.1v-.1-.1s0-.1-.1-.1l-.1-.1v-.7s0-.1-.1-.1h-.1c.1-.1-.2-.1-.4-.1z"/><path fill="#F8B900" d="M396.8 155.8h.9s0 .1.1.1v.7c.1 0 .1.1.1.1s0 .1.1.1v.2l-.1.1v.2h.1s.1 0 .1.1v.2h-.7v-.1l-.1-.1h-.1-.1c-.1 0-.1 0-.2.1l-.1.1h-.7-.1v-.1h.1v-.2-.1h-.1l-.1-.1v-.1-.1-.1-.1c0-.1.1-.1.1-.1s.1 0 .1-.1v-.7s0-.1.1-.1h.2c-.2.1.1.1.4.1zm.4 1.2c.1 0 .1 0 0 0h.1s.1 0 .1-.1l.1-.1v-.1-.1-.1-.1l-.1-.1s-.1 0-.1-.1h-.1-.1-.1-.1-.1s-.1 0-.1.1l-.1.1v.5s0 .1.1.1l.1.1c.3-.1.4-.1.4-.1zm-1.4-.4s0 .1 0 0v.2s0 .1.1.1l.1.1h.4s.1 0 .1-.1l.1-.1v-.1-.1s0-.1-.1-.1l-.1-.1s-.1-.1-.2-.1h-.1-.1-.1s-.1 0-.1.1l-.1.1c.2 0 .1.1.1.1z"/><path d="M397.2 157h-.1c-.1 0-.1 0-.1-.1l-.1-.1v-.1-.1-.1-.1-.1l.1-.1.1-.1h.5s.1 0 .1.1l.1.1v.4l-.1.1-.1.1c-.2.1-.3.1-.4.1.1 0 .1 0 0 0zm0 0c.1 0 .1 0 0 0H397.5v-.1-.1-.1-.1s0-.1-.1-.1h-.1-.1-.1-.1c-.1 0-.1.1-.1.1l-.1.1h.1c.1 0 .1.1.1.1h-.1-.1v.2s.1 0 .1.1c.2-.1.2-.1.3-.1zM395.8 156.6v-.1c0-.1 0-.1.1-.1l.1-.1H396.3c.1 0 .1 0 .2.1 0 0 .1 0 .1.1 0 0 0 .1.1.1v.2l-.1.1-.1.1h-.1-.1-.1-.1l-.1-.1s0-.1-.1-.1v-.1l-.1-.1c0 .1 0 0 0 0zm.5.4c.1 0 .2 0 .2-.1l.1-.1v-.1-.1h-.1l-.1-.1s0-.1.1-.1h.1v-.1c0-.1 0-.1-.1-.1l-.1-.1h-.1-.1-.1-.1-.1s0 .1-.1.1V156.5c0 .1.1.1.1.1l.1.1c.2.3.2.3.3.3z"/><path fill="#F8B900" d="M397.2 157h-.1s-.1 0-.1-.1v-.1-.1h.2c0-.1 0-.1-.1-.1h-.1s0-.1.1-.1l.1-.1h.4l.1.1v.4h-.1-.1c-.2.1-.2.1-.3.1.1 0 .1 0 0 0zM396.3 157h-.1s-.1 0-.1-.1c-.1 0-.1-.1-.1-.1v-.1-.1-.1s0-.1.1-.1h.5l.1.1.1.1v.1h-.1s-.1 0-.1.1l.1.1h.1v.2l-.1.1c-.3-.2-.3-.2-.4-.2z"/><g fill="#6B5F4E"><path d="M415.3 169.5c0-.3 0-.7.1-1 0-.1.1-.2.2-.2s.1 0 .2.1c.1.2.2.7.2.8.1-.1.2-.6.3-.8 0-.1.1-.1.2-.1s.2.1.2.2c0 .2 0 .7.1 1 0 .1 0 .1-.1.1 0 0-.1 0-.1-.1v-.9c0 .1-.2.7-.3.8 0 .1-.1.1-.1.1s-.1 0-.1-.1c-.1-.1-.2-.6-.3-.8v.9c-.3 0-.4.1-.5 0 0 .1 0 0 0 0z"/><path d="M417.7 169.6c-.1 0-.1-.1 0 0-.1-.1-.2-.2-.2-.4h-.4c0 .1-.1.2-.1.3l-.1.1s-.1 0-.1-.1l.4-1c0-.1.1-.1.1-.1.1 0 .1 0 .1.1.1.3.3.9.4 1-.1-.1 0 0-.1.1.1-.1 0 0 0 0zm-.3-.6c0-.2-.1-.3-.1-.4 0 .1-.1.4-.1.4h.2zM418.3 169.6c-.1 0-.4 0-.4-.2v-.3-.5c0-.2.2-.2.4-.2h.1c.4 0 .6.3.6.6 0 .6-.5.6-.7.6zm0-1.1c-.1 0-.2 0-.2.1v.7c0 .1.1.1.2.1.2 0 .5 0 .5-.5 0-.3-.2-.4-.4-.4h-.1zM419.6 168.5c-.2 0-.2 0-.2.1v.2h.4c.1 0 .1.1.1.1s0 .1-.1.1h-.4v.3c0 .1 0 .1.3.1h.2c.1 0 .1 0 .1.1 0 0 0 .1-.1.1h-.4c-.1 0-.2-.1-.2-.2v-.3-.5c0-.1.1-.2.2-.2h.4c.1 0 .1 0 .1.1 0 0 0 .1-.1.1 0-.1-.2-.1-.3-.1zM420.9 169.5s-.1.1 0 0c-.1.1-.2.1-.2 0v-.6-.4c0-.1.1-.1.1-.1s.1 0 .1.1v.4c-.1.2-.1.4 0 .6zM421.1 169.5v-.5-.4c0-.1.1-.2.1-.2.1 0 .1 0 .2.1.1.2.4.7.5.8v-.1-.8c0-.1 0-.1.1-.1 0 0 .1 0 .1.1v1c0 .1-.1.2-.1.2-.1 0-.1 0-.1-.1-.1-.2-.4-.7-.5-.9v.9c-.1 0-.1.1-.3 0 .1.1 0 0 0 0zM423.1 168.9v-.4s0-.1.1-.1c0 0 .1 0 .1.1v.8c0 .2-.2.3-.4.3-.1 0-.2 0-.2-.1 0 0 0-.1.1-.1h.1c.1 0 .2-.1.2-.2v-.3zM424.4 169.6s-.1-.1 0 0c-.1-.1-.2-.2-.2-.4h-.4c0 .1-.1.2-.1.3l-.1.1s-.1 0-.1-.1l.4-1c0-.1.1-.1.1-.1.1 0 .1 0 .1.1.1.3.3.9.4 1 0-.1 0 0-.1.1.1-.1 0 0 0 0zm-.3-.6c-.1-.2-.1-.3-.1-.4 0 .1-.1.4-.1.4h.2zM424.8 169.6c-.1 0-.1-.1 0 0-.1-.1-.1-.1 0 0-.1-.2-.1-.4-.1-.5v-.4c0-.2 0-.3.3-.3h.1c.3 0 .4.2.4.4s-.1.4-.3.4h-.1-.1v.3c-.2-.1-.2 0-.2.1 0-.1 0 0 0 0zm.2-1.1c-.1 0-.1 0-.1.2v.2h.2c.1 0 .2-.1.2-.2s-.1-.2-.3-.2c.1 0 0 0 0 0zM426.3 169.6s0-.1 0 0c-.1-.1-.2-.2-.2-.4h-.4c0 .1-.1.2-.1.3l-.1.1s-.1 0-.1-.1l.4-1c0-.1.1-.1.1-.1.1 0 .1 0 .1.1.1.3.3.9.4 1 0-.1 0 0-.1.1.1-.1.1 0 0 0zm-.2-.6c0-.2-.1-.3-.1-.4 0 .1-.1.4-.1.4h.2zM426.6 169.5v-.5-.4c0-.1.1-.2.1-.2.1 0 .1 0 .2.1.1.2.4.7.5.8v-.1-.8c0-.1 0-.1.1-.1 0 0 .1 0 .1.1v1c0 .1-.1.2-.1.2-.1 0-.1 0-.1-.1-.1-.2-.4-.7-.5-.9v.9c-.1 0-.1.1-.3 0 .1.1 0 0 0 0z"/></g><g fill="#6B5F4E"><path d="M396.7 168.2v-.1s.1 0 .1-.1l.1-.1.1.1v1.4h-.2v-1.2h-.1zM397.7 169.1c0 .1 0 .2.1.2 0 0 .1 0 .1-.1v-.4l-.1.1c-.1 0-.2-.1-.2-.3v-.4c0-.2.1-.3.2-.3h.1c.1 0 .2.1.2.3v1c0 .2-.1.3-.2.3h-.1c-.1 0-.2-.1-.2-.3v-.1h.1zm.2-.4v-.5c0-.1 0-.1-.1-.1s-.1 0-.1.1v.4c0 .1 0 .1.1.1h.1zM398.7 168.6c-.1 0-.1-.1-.1-.2v-.3c0-.2.1-.3.2-.3h.1c.1 0 .2.1.2.3v.3c0 .1 0 .2-.1.2.1 0 .1.1.1.2v.3c0 .2-.1.3-.2.3h-.1c-.1 0-.2-.1-.2-.3v-.3c0-.1 0-.1.1-.2zm.1.6c.1 0 .1 0 .1-.1v-.3c0-.1 0-.1-.1-.1s-.1 0-.1.1v.3l.1.1zm0-1v.2c0 .1 0 .1.1.1s.1 0 .1-.1v-.3c0-.1 0-.1-.1-.1-.1.1-.1.1-.1.2zM400 168.3v-.1c0-.1 0-.1-.1-.1 0 0-.1 0-.1.1v.5l.1-.1h.1c.1 0 .2.1.2.3v.3c0 .2-.1.3-.2.3h-.1c-.1 0-.2-.1-.2-.3v-1c0-.2.1-.3.2-.3h.1c.1 0 .2.1.2.3v.2h-.2zm-.2.4v.4c0 .1 0 .1.1.1s.1 0 .1-.1v-.3c0-.1 0-.1-.1-.1h-.1z"/></g><g fill="#6B5F4E"><path d="M402.6 169.4c-.1 0-.1 0 0 0h-.4-.1c-.2-.3-.4-.7-.6-1v1.1h-.5V168h.4c.2.3.4.7.6 1v-1.1h.5c.1.5.1 1 .1 1.5zM410.1 167.9v1.5h-.5v-.1c-.3.1-.6.1-.8-.2-.1-.2-.1-.4 0-.6.1-.1.2-.2.3-.2.1 0 .3 0 .4.1v-.6c.3.1.5.1.6.1zm-.8 1v.2c0 .1.1.2.2.2s.2-.1.2-.2v-.4c0-.1-.1-.1-.2-.1s-.2.1-.2.2v.1zM404.9 169.4h-.5v-.6c0-.1-.1-.2-.2-.2s-.2 0-.3.1v.7h-.5v-1h.5v.1c.2-.2.5-.2.7 0 .1.1.1.2.1.3.2.2.2.4.2.6z"/><path d="M407.8 169.4h-.5v-1h.5v.1c.2-.2.6-.2.8.1.1.1.1.2.1.3v.6h-.4v-.6c0-.1 0-.2-.1-.2s-.2 0-.3.1v.1c-.1 0-.1.2-.1.5zM411 168.3c.2 0 .3.1.5.2.2.2.2.6 0 .8-.3.3-.7.3-1 0-.2-.2-.2-.6.1-.8 0-.2.2-.2.4-.2zm.1.6v-.2c0-.1 0-.1-.1-.2-.1 0-.2 0-.2.2v.5c0 .1.1.2.2.2s.2-.1.2-.2c-.1-.1-.1-.2-.1-.3zM407.2 168.9h-.9V169.2c0 .1.1.1.2.1s.2-.1.2-.2v-.1h.5c-.1.2-.2.3-.4.3-.3.1-.5 0-.7-.2-.2-.2-.2-.6 0-.8.2-.1.3-.2.6-.2.2 0 .4.1.5.2-.1.3 0 .4 0 .6zm-.5-.2v-.1c0-.1-.1-.2-.2-.2s-.2.1-.2.2v.1h.4zM405.2 169.4v-1h-.3v-.1h.2v-.2h.5v.2h.2v.2h-.2v1c-.1-.1-.3-.1-.4-.1zM403.3 168.4v1h-.5v-1h.5zM402.8 167.9h.5v.3h-.5v-.3z"/></g><path fill="#6B5F4E" d="M395.4 168.8c0 .2-.1.3-.2.3h-.1c-.1 0-.2-.1-.2-.2v-.8c0-.1.1-.2.2-.2h.1c.1 0 .2.1.2.2v.1h-.1v-.1s0-.1-.1-.1c0 0-.1 0-.1.1v.8s0 .1.1.1c0 0 .1 0 .1-.1v-.1h.1z"/><path fill="#6B5F4E" d="M395.2 169.4c-.5 0-.9-.4-.9-.9s.4-.9.9-.9.9.4.9.9-.4.9-.9.9zm0-1.7c-.4 0-.8.4-.8.8s.4.8.8.8.8-.4.8-.8c-.1-.4-.4-.8-.8-.8z"/></g><path fill="#F7E835" d="M244.6 143.1h13.5v3.6h-13.5z"/><path fill="#E20613" d="M284.5 143.1c0 1-.8 1.8-1.8 1.8s-1.8-.8-1.8-1.8.8-1.8 1.8-1.8 1.8.8 1.8 1.8z"/><g><g fill="#FFF"><path d="M194.9 158.4H194.1c-.1 0-.1 0-.1-.1-.4-.7-.8-1.3-1.2-2l-.1-.1v2.1h-.9v-3.1h.9s.1 0 .1.1c.4.7.8 1.3 1.2 2l.1.1v-2.1h.9c-.1 1.1-.1 2.1-.1 3.1zM209.9 155.4v3.1h-.9v-.1c-.6.3-1.1.2-1.5-.3-.3-.4-.2-.9.1-1.2.2-.2.4-.4.7-.4.3 0 .5 0 .8.2v-1.1c.2-.2.5-.2.8-.2zm-1.6 2v.4c0 .2.1.3.4.4.2 0 .4-.1.4-.3v-.8-.1c0-.2-.2-.3-.4-.3s-.3.1-.3.3c-.1.1-.1.3-.1.4zM199.5 158.4h-.9v-.1-1.2c0-.2-.1-.4-.3-.4-.2 0-.4 0-.5.2v1.5h-.9v-2h.9v.2l.1-.1c.4-.4 1.1-.3 1.4.1.2.2.3.4.3.6-.1.4-.1.8-.1 1.2zM205.2 158.4h-.9v-2h.9v.2s.1 0 .1-.1c.4-.4 1.1-.3 1.5.1.1.1.2.3.2.5v1.2h-.9v-.1-1.2c0-.2-.1-.4-.3-.4-.2-.1-.4 0-.5.2-.1.1-.1.2-.1.2v1.4zM211.6 156.3c.4 0 .7.1 1 .4.5.4.5 1.1 0 1.5-.5.5-1.5.5-2 0s-.4-1.2.1-1.6c.2-.2.5-.3.9-.3zm.3 1.1v-.4-.1c0-.2-.1-.3-.2-.3-.2-.1-.5.1-.5.3V158.1c0 .2.2.3.4.3s.4-.1.4-.4c-.1-.2-.1-.4-.1-.6zM204 157.4h-1.7v.6c.1.2.2.3.4.3s.3-.1.3-.3v-.2h.9v.1c-.2.4-.5.6-.9.7-.5.1-1 0-1.4-.4-.4-.4-.4-1.1 0-1.5.3-.3.7-.4 1.1-.4.4 0 .7.2 1 .5.2.1.3.3.3.6zm-.9-.3v-.3c0-.2-.2-.3-.4-.3s-.3.1-.4.3v.2c0 .1 0 .1.1.1h.7c-.1 0-.1 0 0 0z"/><path d="M200 158.4v-2h-.5v-.3h.6v-.4h.9v.4h.5v.3h-.5v2h-1zM196.3 156.4v2h-.9v-2h.9zM195.4 155.4h.9v.6h-.9v-.6z"/></g></g><g fill="#FFF"><path d="M215 161.7v-1h.4l.6 1.3s.5-1.2.6-1.3h.5v2.1h-.3v-.1-.8-.1c-.1.1-.3.7-.4.9 0 0 0 .1-.1.1h-.2c-.1 0-.1-.1-.1-.1l-.5-1v1h-.3c-.1 0-.1 0-.1-.1-.1-.2-.1-.5-.1-.9 0 .1 0 .1 0 0zM224.4 161.7v-1c0-.1 0-.1.1-.1h.4c0 .1.5 1.2.5 1.2v.1c0-.1.5-1.2.5-1.2s0-.1.1-.1h.5v2.1h-.3v-.4-.5c0 .1-.3.8-.4.9h-.3-.1c-.1-.1-.4-.8-.4-.9v1h-.2-.1c-.1 0-.1 0-.1-.1-.2-.3-.2-.6-.2-1zM223.2 162.8c-.2 0-.3 0-.5-.1-.1 0-.1-.1-.2-.1l-.2-.2c-.1-.1-.1-.2-.1-.3-.1-.1-.1-.3 0-.5 0-.1 0-.2.1-.3 0-.1.1-.2.1-.2.1-.2.3-.3.5-.4.1 0 .2-.1.4-.1h.3c.1 0 .2 0 .2.1 0 0 .1 0 .1.1l.1.1.1.1.1.1c.1.1.1.2.1.3v.4c0 .1-.1.3-.2.4-.1.2-.3.3-.5.4-.2.2-.3.2-.4.2zm0-.4h.2c.1-.1.3-.1.4-.2.1-.1.1-.2.1-.4v-.2c0-.1 0-.1-.1-.2 0-.1-.1-.1-.2-.2s-.2-.1-.3-.1h-.1c-.1 0-.1 0-.2.1s-.2.1-.3.2c-.1.1-.1.2-.1.4s0 .3.1.4c.1.1.2.2.3.2h.2zM232.2 162.3v.5h-.4v-1.9-.1h.7c.1 0 .2 0 .3.1.1.1.2.1.3.2.1.1.1.2.1.4v.3s0 .1-.1.1l-.3.3c.1.1.1.2.2.4.1.1.1.2.2.4h-.4l-.3-.6c-.1-.1-.2-.3-.3-.4V162.3zm0-.9v.2h.4c.1 0 .1 0 .2-.1s.1-.2 0-.3c0-.1-.1-.1-.2-.1h-.4v.3zM228.1 161.5v-.7c0-.1 0-.1.1-.1h.3V162.1c0 .1.1.2.2.2.2.1.4 0 .4-.3v-1.3-.1h.4v1.5c0 .2-.1.3-.2.4-.1.1-.2.2-.3.2-.2.1-.3 0-.5 0-.2-.1-.3-.2-.4-.3 0-.1-.1-.2-.1-.3.1-.1.1-.4.1-.6z"/><path d="M221.9 161.3h-.2c-.1 0-.1 0-.1-.1-.1-.1-.1-.1-.2-.1h-.2c-.1 0-.3.1-.4.2 0 0-.1.1-.1.2s-.1.2-.1.3c0 .2.1.3.2.4l.2.2c.2.1.3.1.4 0 .1 0 .2-.1.3-.1h.5c-.1.1-.1.2-.2.3-.1.1-.2.1-.3.2-.1 0-.1 0-.2.1h-.2c-.2 0-.4 0-.5-.2-.1 0-.2-.2-.3-.3-.1-.1-.1-.2-.2-.3 0-.1 0-.1-.1-.2v-.4c0-.1.1-.2.1-.2l.1-.1.3-.3c.1 0 .2-.1.3-.1h.2c.2 0 .4.1.5.1.1 0 .1.1.2.1.1.1.2.2.2.3v.1c0-.1-.1-.1-.2-.1zM214.9 162.7c0 .1 0 .1 0 0h-.3v-.2h-.7c0 .1-.1.1-.1.2l-.1.1h-.2H213.2s.1-.1.1-.2c.1-.1 1.3-1.9 1.3-1.9H214.9v2zm-.4-.9v-.2.1c-.1.1-.2.3-.3.4v.1h.5c-.2-.2-.2-.3-.2-.4zM230.7 161.8v-1c0-.1 0-.1.1-.1h1c.1 0 .1 0 .1.1v.3c0 .1 0 .1-.1.1h-.6-.1v.4h.7v.3h-.6v.4h.6v.3h-1v-.4c-.1 0-.1-.2-.1-.4zM226.6 161.7v-.9c0-.1 0-.1.1-.1h.6c.1 0 .3.1.4.1.1.1.2.2.2.3 0 .1.1.2.1.3 0 .1 0 .2-.1.3l-.3.3c-.1 0-.2.1-.3.1h-.2V162.7h-.3c-.2-.3-.2-.6-.2-1zm.4-.3v.2H227.3l.1-.1v-.1-.1c0-.1-.1-.2-.2-.2h-.3c.1.1.1.2.1.3zM212.5 161.7v-1c0-.1 0-.1.1-.1h1v.3h-.6v.3c0 .1 0 .1.1.1h.6v.4h-.6V162.5h-.4v-.3c-.2 0-.2-.2-.2-.5zM218.9 162.4v-.3-.1c-.1-.2-.2-.4-.3-.7-.1-.2-.2-.4-.3-.5h.4s.1 0 .1.1c.1.2.2.4.3.7 0 0 0 .1.1.1 0 0 0-.1.1-.1.1-.2.2-.5.3-.7h.4l-.6 1.2v.7h-.3c-.2-.2-.2-.3-.2-.4zM230.2 162v.8h-.3v-.3-1.3c0-.1 0-.1-.1-.1h-.2v-.4h1c.1 0 .1 0 .1.1v.3h-.3c-.2.3-.2.6-.2.9zM217.8 161.7v-1h.4v1.6c0 .1 0 .1.1.1h.4v.3H217.8c-.1 0-.1 0-.1-.1.1-.2.1-.5.1-.9 0 .1 0 .1 0 0zM217.3 161.7v-1c0-.1 0-.1.1-.1h.3v2h-.3v-.2c-.1-.1-.1-.4-.1-.7z"/></g><g fill="#FFF"><path d="M236.3 162.3c0 .1-.1.3-.2.4-.1.1-.2.1-.4.1h-.7v-.4h.1V161h-.1v-.4h.8c.1 0 .3.1.4.2.1.1.2.2.2.4v1.1zm-.4 0v-1.2-.1h-.4v1.5h.4v-.2zM237 162.8h-.4v-2.2h.4v2.2zM238.6 162.3c0 .1-.1.3-.2.4-.1.1-.2.1-.4.1h-.3c-.1 0-.3 0-.4-.1-.1-.1-.2-.2-.2-.4l.4-.1v.2h.5V162.1c0-.1 0-.1-.1-.2l-.6-.2c-.2-.1-.3-.2-.3-.4v-.2c0-.1.1-.3.2-.4.1-.1.2-.2.4-.2h.3c.1 0 .3 0 .4.1.1.1.2.2.2.4l-.4.1v-.1-.1h-.4-.1v.2c0 .1 0 .2.1.2l.6.2c.2.1.3.2.3.4v.4zM240.2 162.8h-.4v-.2l-.4-.7-.1.2v.7h-.4v-2.2h.4v.8l.5-.6v-.2h.4v.3l-.5.6.5 1v.3zM243 162.3c0 .1-.1.3-.2.4-.1.1-.2.1-.4.1h-.3c-.1 0-.3 0-.4-.1-.1-.1-.2-.2-.2-.4l.4-.1v.2h.5V162.1c0-.1 0-.1-.1-.2l-.6-.2c-.2-.1-.3-.2-.3-.4v-.2c0-.1.1-.3.2-.4.1-.1.2-.2.4-.2h.3c.1 0 .3 0 .4.1.1.1.2.2.2.4l-.4.1v-.1-.1h-.4-.1v.2c0 .1 0 .2.1.2l.6.2c.2.1.3.2.3.4v.4zM244.5 160.9l-.5.9v1.1h-.4v-1l-.5-.9v-.3h.4v.2l.2.5.2-.5v-.2h.4v.2z"/><path d="M246 162.3c0 .1-.1.3-.2.4-.1.1-.2.1-.4.1h-.3c-.1 0-.3 0-.4-.1-.1-.1-.2-.2-.2-.4l.4-.1v.2h.5V162.1c0-.1 0-.1-.1-.2l-.6-.2c-.2-.1-.3-.2-.3-.4v-.2c0-.1.1-.3.2-.4.1-.1.2-.2.4-.2h.3c.1 0 .3 0 .4.1.1.1.2.2.2.4l-.4.1v-.1-.1h-.4-.1v.2c0 .1 0 .2.1.2l.6.2c.2.1.3.2.3.4v.4zM247.6 161h-.5v1.8h-.4V161h-.5v-.4h1.4v.4zM249.1 162.8h-1.4v-2.2h1.3v.4h-.9v.5h.7v.4h-.7v.5h1v.4zM250.7 162.8h-.4v-1l-.1.5h-.3l-.1-.5v1h-.4v-2.2h.4l.3 1 .3-1h.4v2.2z"/></g><path fill="#FFF" d="M191.5 160.5h18.2v2.6h-18.2z"/><g fill="#1D1D1B"><path d="M192.5 162.7V161h.4v.7h1.4v-.7h.4v1.7h-.4v-.8h-1.4v.8h-.4zM196.1 162.7L195 161h.4l.7 1.2c.1.1.1.2.1.3 0-.1.1-.2.1-.3l.7-1.2h.4l-1.1 1.7h-.2zM199.8 162.1l.4.1c-.1.2-.2.3-.4.4-.2.1-.4.1-.7.1-.3 0-.5 0-.7-.1-.2-.1-.3-.2-.4-.3-.1-.1-.1-.3-.1-.4 0-.2.1-.3.2-.5.1-.1.3-.2.5-.3.2-.1.4-.1.7-.1.3 0 .5 0 .7.1.2.1.3.2.4.4l-.4.1-.3-.3c-.1-.1-.3-.1-.5-.1s-.4 0-.5.1c-.1.1-.2.1-.3.2-.1.1-.1.2-.1.3 0 .1 0 .3.1.4.1.1.2.2.3.2.1.1.3.1.5.1s.4 0 .5-.1c-.1-.1 0-.2.1-.3zM200.4 162.2v-.2h1v.2h-1zM201.7 161.8c0-.3.1-.5.4-.7.2-.2.6-.2.9-.2.3 0 .5 0 .7.1s.4.2.5.3c.1.1.2.3.2.5s-.1.3-.2.5c-.1.1-.3.2-.5.3s-.4.1-.7.1c-.3 0-.5 0-.7-.1-.2-.1-.4-.2-.5-.3 0-.2-.1-.3-.1-.5zm.4 0c0 .2.1.4.3.5.2.1.4.2.7.2.3 0 .5-.1.7-.2.2-.1.3-.3.3-.5 0-.1 0-.3-.1-.4-.1-.1-.2-.2-.3-.2-.1-.1-.3-.1-.5-.1-.3 0-.5.1-.7.2-.3.1-.4.3-.4.5zM206.4 162.5v.2h-1.8v-.1c0-.1.1-.1.2-.2s.2-.2.4-.3c.3-.1.5-.3.6-.4l.2-.2c0-.1 0-.2-.1-.2s-.2-.1-.4-.1-.3 0-.4.1c-.1.1-.1.1-.1.2h-.3c0-.2.1-.3.3-.4s.4-.1.6-.1c.3 0 .5 0 .6.1.2.1.2.2.2.3 0 .1 0 .1-.1.2 0 .1-.1.1-.2.2s-.3.2-.5.3c-.2.1-.3.2-.4.2-.1 0-.1.1-.1.1h1.3zM208.5 162.5v.2h-1.8v-.1c0-.1.1-.1.2-.2s.2-.2.4-.3c.3-.1.5-.3.6-.4l.2-.2c0-.1 0-.2-.1-.2-.1-.1-.2-.1-.4-.1s-.3 0-.4.1c-.1.1-.1.1-.1.2h-.3c0-.2.1-.3.3-.4.2-.1.4-.1.6-.1.3 0 .5 0 .6.1.2.1.2.2.2.3 0 .1 0 .1-.1.2 0 .1-.1.1-.2.2s-.3.2-.5.3c-.2.1-.3.2-.4.2-.1 0-.1.1-.1.1h1.3z"/></g><g><path fill="#3C3C3B" d="M373.5 177.7h-62.8l.1-31.6h.9v-1h-.9v-1.4h.9v-.9h-.9v-1.4h.9v-.9h-.9v-1.1h.9v-1h-.9v-1.2h.9v-1h-.9v-17.3h62.5v17.3h-1.2v1h1.2v1.2h-1.2v1h1.2v1.1h-1.2v.9h1.2v1.4h-1.2v.9h1.2v1.4h-1.2v1h1.2z"/><path d="M311.7 136.2h60.4v1h-60.4zM311.7 145.1h60.4v1h-60.4zM311.7 138.4h34.7v1h-34.7zM311.7 140.5h34.7v1h-34.7zM311.7 142.8h34.7v1h-34.7z"/><path d="M346.88 137.213v7.9h-.5v-7.9zM368.023 137.17v7.9h-.5v-7.9z"/><path d="M368 138.4h4.1v1H368zM368 140.5h4.1v1H368zM368 142.8h4.1v1H368z"/><path fill="#333" d="M367.2 117.3h-28.1l-.4 1.6H368z"/><g fill="#FFF"><path d="M351.2 142.5h-.7-.1c-.3-.6-.7-1.1-1-1.7v-.1 1.8h-.8v-2.6H349.5c.3.6.7 1.2 1 1.7v-1.8h.8c-.1 1-.1 1.8-.1 2.7zM363.4 139.9v2.6h-.7v-.1c-.5.2-.9.2-1.2-.3-.2-.3-.2-.8 0-1.1.1-.2.3-.3.5-.4.2 0 .4 0 .6.1v-1c.3.2.6.2.8.2zm-1.3 1.7v.4c0 .2.1.3.3.3.2 0 .3-.1.3-.3v-.7-.1c0-.2-.2-.2-.3-.2-.1 0-.2.1-.3.3v.3zM355 142.5h-.7v-.1-1c0-.2-.1-.3-.3-.4-.2 0-.3 0-.4.2v1.3h-.7v-1.7h.7v.2h.1c.3-.3.9-.3 1.2.1.1.2.2.3.2.6-.1.1-.1.5-.1.8zM359.6 142.5h-.7v-1.7h.7v.2h.1c.4-.3.9-.3 1.2.1.1.1.2.3.2.4v1.1h-.7v-.1-1c0-.2-.1-.3-.2-.4-.1-.1-.3 0-.4.1 0 .1-.1.1-.1.2-.1.3-.1.7-.1 1.1 0-.1 0 0 0 0zM364.7 140.6c.3 0 .6.1.8.3.4.4.4.9 0 1.3s-1.2.4-1.6 0c-.4-.4-.4-1 .1-1.4.2-.1.5-.2.7-.2zm.3 1v-.4-.1c0-.1-.1-.2-.2-.3-.2-.1-.4.1-.4.3v.9c0 .2.1.3.3.3.2 0 .3-.1.3-.3v-.4zM358.6 141.6h-1.4v.5c0 .2.2.3.3.2.1 0 .3-.1.3-.3v-.2h.7v.1c-.1.3-.4.5-.7.6-.4.1-.8 0-1.2-.3-.4-.4-.3-.9 0-1.3.3-.2.6-.3.9-.3.3 0 .6.2.8.4.3.2.3.4.3.6zm-.7-.2v-.2c0-.2-.2-.3-.3-.3-.1 0-.3.1-.3.3v.2s0 .1.1.1c.1-.1.2-.1.5-.1-.1 0 0 0 0 0z"/><path d="M355.4 142.5v-1.7h-.4v-.2h.4v-.4h.7v.3h.4v.3h-.4v1.7h-.7zM352.4 140.8v1.7h-.7v-1.7h.7zM351.7 139.9h.7v.5h-.7v-.5z"/></g><g fill="#FFF"><path d="M342.5 147.4v-.5h.2l.3.7.3-.6h.2v1h-.2v-.4c0 .1-.2.4-.2.4h-.1l-.2-.5v.5h-.1c-.2-.3-.2-.4-.2-.6zM346.9 147.4v-.5h.2l.2.6c0-.1.2-.6.2-.6v-.1h.2v.9h-.2v-.2-.3l-.2.4h-.2c0-.1-.2-.4-.2-.4v.5h-.1-.1c.2 0 .2-.2.2-.3z"/><path d="M346.3 147.9h-.2s-.1 0-.1-.1l-.1-.1s0-.1-.1-.1v-.2-.1s0-.1.1-.1l.2-.2h.6v.1s0 .1.1.2v.2c0 .1 0 .1-.1.2s-.2.2-.3.2h-.1zm0-.2c.1 0 .1 0 0 0 .1 0 .2-.1.2-.1 0-.1.1-.1.1-.2v-.1-.1s0-.1-.1-.1c0 0-.1-.1-.2-.1h-.1-.1l-.1.1c0 .1-.1.1-.1.2s0 .2.1.2l.1.1c.1.1.2.1.2.1zM350.6 147.7v.2h-.1v-1h.5c.1 0 .1.1.1.1 0 .1.1.1.1.2v.2c0 .1-.1.1-.1.1 0 .1.1.1.1.2s.1.1.1.2h-.2c-.1-.1-.1-.2-.2-.3 0-.1-.1-.2-.1-.2-.2.1-.2.1-.2.3 0-.1 0-.1 0 0zm0-.5v.1h.2s.1 0 .1-.1v-.2s-.1 0-.1-.1h-.2v.3zM348.6 147.3v-.4h.2v.8c0 .1 0 .1.1.1s.2 0 .2-.1v-.7h.2v.7c0 .1 0 .2-.1.2 0 .1-.1.1-.2.1h-.2c-.1 0-.1-.1-.2-.2v-.1-.4zM345.7 147.2h-.1s-.1 0-.1-.1h-.1c-.1 0-.1 0-.2.1l-.1.1v.2c0 .1 0 .2.1.2l.1.1h.2c.1 0 .1 0 .1-.1h.2c0 .1-.1.1-.1.1l-.1.1h-.1-.1c-.1 0-.2 0-.2-.1-.1 0-.1-.1-.1-.1l-.1-.1v-.1-.2-.1-.1c0-.1.1-.1.1-.1s.1 0 .1-.1H345.5s.1 0 .1.1c.1 0 .2.1.1.2h0zM342.4 147.9h-.2v-.1h-.3v.2h-.1-.1s0-.1.1-.1c.1-.1.6-.9.6-.9h.2l-.2.9zm-.2-.5v-.1c0 .1-.1.1-.1.2h.1v-.1zM349.8 147.4v-.5h.5v.1h-.3v.2h.3v.2h-.2-.1v.2h.3v.2h-.5v-.2-.2zM347.9 147.4v-.5h.3c.1 0 .1 0 .2.1.1 0 .1.1.1.1v.2c0 .1 0 .1-.1.2 0 .1-.1.1-.1.1h-.1-.1V147.9h-.2v-.5zm.2-.2v.1h.1v-.1c0-.1 0-.1-.1-.1h-.1c.1 0 .1.1.1.1zM341.3 147.4v-.5h.5v.2h-.3v.2h.3v.2h-.3v.4h-.2v-.2-.3zM344.3 147.7v-.2-.1c-.1-.1-.1-.2-.2-.3 0-.1-.1-.2-.1-.3h.2c.1.1.1.2.2.3.1-.1.1-.2.2-.3h.2l-.3.6v.4h-.2v-.1zM349.6 147.5v.4h-.2v-.2-.6h-.1v-.2h.5v.2h-.2v.4zM343.8 147.4v-.5h.2v.8h.2v.2h-.5c.1-.2.1-.3.1-.5zM343.5 147.4v-.5h.2v1h-.2v-.1-.4z"/></g><g fill="#FFF"><path d="M352.5 147.7c0 .1 0 .1-.1.2-.1 0-.1.1-.2.1h-.4v-.2h.1v-.8h-.1v-.2h.4c.1 0 .1 0 .2.1s.1.1.1.2v.6zm-.2 0v-.6-.1h-.2v.7h.2c0 .1 0 0 0 0zM352.8 147.9h-.2v-1.1h.2v1.1z"/><path d="M353.5 147.7c0 .1 0 .1-.1.2 0 0-.1.1-.2.1h-.1c-.1 0-.1 0-.2-.1 0 0-.1-.1-.1-.2l.2-.1v.1h.1v-.2-.1l-.3-.1c-.1 0-.1-.1-.1-.2v-.1c0-.1 0-.1.1-.2s.1-.1.2-.1h.1c.1 0 .1 0 .2.1.1 0 .1.1.1.2l-.2.1h-.1v.1l.3.1c.1 0 .1.1.1.2v.2zM354.3 147.9h-.2v-.1l-.2-.4-.1.1v.4h-.2v-1.1h.2v.4l.3-.3v-.1h.2v.1l-.2.3.2.5v.2zM355.6 147.7c0 .1 0 .1-.1.2 0 0-.1.1-.2.1h-.1c-.1 0-.1 0-.2-.1 0 0-.1-.1-.1-.2l.2-.1v.1h.1v-.2-.1l-.3-.1c-.1 0-.1-.1-.1-.2v-.1c0-.1 0-.1.1-.2s.1-.1.2-.1h.1c.1 0 .1 0 .2.1.1 0 .1.1.1.2l-.2.1h-.1v.1l.3.1c.1 0 .1.1.1.2v.2zM356.3 147l-.2.4v.5h-.2v-.5l-.2-.4v-.1h.2v.1l.1.3.1-.3v-.1h.2v.1z"/><path d="M357 147.7c0 .1 0 .1-.1.2 0 0-.1.1-.2.1h-.1c-.1 0-.1 0-.2-.1 0 0-.1-.1-.1-.2l.2-.1v.1h.1v-.2-.1l-.3-.1c-.1 0-.1-.1-.1-.2v-.1c0-.1 0-.1.1-.2s.1-.1.2-.1h.1c.1 0 .1 0 .2.1.1 0 .1.1.1.2l-.2.1h-.1v.1l.3.1c.1 0 .1.1.1.2v.2zM357.8 147h-.2v.9h-.2v-.9h-.2v-.2h.6v.2z"/><path d="M358.5 147.9h-.7v-1.1h.6v.2h-.4v.3h.3v.2h-.3v.3h.5v.1zM359.3 147.9h-.2v-.5l-.1.2h-.1l-.1-.2v.5h-.2v-1.1h.2l.1.5.1-.5h.2v1.1z"/></g><path fill="#FFF" d="M360.2 146.8h7.6v1.1h-7.6z"/><g fill="#1D1D1B"><path d="M360.6 147.8v-.8h.2v.3h.6v-.3h.2v.7h-.2v-.3h-.6v.3h-.2zM362.1 147.8l-.4-.7h.2l.3.5c-.1 0-.1 0-.1.2.1-.1.1-.2.1-.2l.3-.5h.2l-.4.7h-.2zM363.6 147.5h.2c0 .1-.1.1-.2.2-.1 0-.2.1-.3.1h-.3c-.1 0-.1-.1-.2-.1 0-.1-.1-.1-.1-.2s0-.1.1-.2c0-.1.1-.1.2-.1h.3c.1 0 .2 0 .3.1.1 0 .1.1.2.2h-.1c0-.1-.1-.1-.1-.1h-.4c-.1 0-.1.1-.1.1V147.8l.1.1h.4v-.4zM363.9 147.5l.4-.1v.1h-.4zM364.4 147.4c0-.1.1-.2.2-.3.1-.1.2-.1.4-.1h.3c.1 0 .1.1.2.1 0 .1.1.1.1.2s0 .1-.1.2c0 .1-.1.1-.2.1h-.3c-.1 0-.2 0-.3-.1-.1 0-.1-.1-.2-.1s-.1.1-.1 0zm.2 0c0 .1 0 .2.1.2s.2.1.3.1c.1 0 .2 0 .3-.1.1-.1.1-.1.1-.2v-.2l-.1-.1h-.2c-.1 0-.2 0-.3.1-.2 0-.2.1-.2.2zM366.4 147.7l-.7.1v-.1s0-.1.1-.1c0 0 .1-.1.2-.1.1-.1.2-.1.2-.2l.1-.1s0-.1-.1-.1h-.4l-.1.1h-.1c0-.1 0-.1.1-.2.1 0 .1-.1.3-.1.1 0 .2 0 .3.1.1 0 .1.1.1.1v.1s0 .1-.1.1c0 0-.1.1-.2.1s-.1.1-.2.1h-.1.6z"/></g><path d="M366.6 147.6s.1.1.3.1c.1 0 .3-.1.3-.1 0-.1-.1-.1-.3-.1h-.1v-.1l.3-.2h0-.4v-.2h.7v.1l-.3.2c.2 0 .4.1.4.2s-.2.2-.4.2c-.5.1-.6 0-.5-.1z"/></g><path fill="#666" d="M173.3 127.1h13.8c1.1 0 1.9.9 1.9 1.9v17.8c0 1.1-.9 1.9-1.9 1.9h-13.8M186.9 156.3h-13.8c-.2 0-.4-.2-.4-.4s.2-.4.4-.4h13.8c.2 0 .4.2.4.4s-.2.4-.4.4z"/><path fill="#3C3C3B" d="M173.3 127.8h13c1 0 1.8.5 1.8 1.5v17c0 1-.5 1.8-1.5 1.8h-13.4"/><path fill="#666" d="M187 159.1h-13.8c-.2 0-.4-.2-.4-.4s.2-.4.4-.4H187c.2 0 .4.2.4.4-.1.2-.2.4-.4.4zM186.9 161.8h-13.8c-.2 0-.4-.2-.4-.4s.2-.4.4-.4h13.8c.2 0 .4.2.4.4 0 .3-.2.4-.4.4zM297.5 156.3h-33.8c-.2 0-.4-.2-.4-.4s.2-.4.4-.4h33.8c.2 0 .4.2.4.4s-.1.4-.4.4zM297.5 159.1h-33.8c-.2 0-.4-.2-.4-.4s.2-.4.4-.4h33.8c.2 0 .4.2.4.4s-.2.4-.4.4zM297.5 161.8h-33.8c-.2 0-.4-.2-.4-.4s.2-.4.4-.4h33.8c.2 0 .4.2.4.4 0 .3-.2.4-.4.4z"/></g></svg>