<svg enable-background="new 0 0 203.1 91.6" viewBox="0 0 203.1 91.6" xmlns="http://www.w3.org/2000/svg"><path d="m0 0h203.1v91.6h-203.1z" fill="none"/><g transform="matrix(.54495913 0 0 -.54495913 -1.544741 201.54474)"><path d="m352.7 367h-327c-11 0-20-9-20-20v-122.5c0-11 9-20 20-20h327c11 0 20 9 20 20v122.5c0 11-9 20-20 20" fill="#63242b"/><path d="m350.6 359h-320.4c-11 0-20-9-20-20v-113.5c0-11 9-20 20-20h318c11 0 20 9 20 20v113.5c0 11-10.7 20-17.6 20" fill="#ae2740"/><path d="m354.8 290.3h-198.9c-2.9 0-2.5 2.8-2.5 2.8v47.2c0 2.2-1.8 4-4 4h-124.6c-2.2 0-4-1.8-4-4v-120c0-2.2 1.8-4 4-4h330c2.2 0 4 1.8 4 4v66c0 2.2-1.8 4-4 4" fill="#cbb48f"/><path d="m20.7 242.5v3h337.9v-3zm0-7.2v3h337.9v-3z" fill="#444443"/><path d="m211.8 229h-66c-10.5 0-19 8.6-19 19 0 10.5 8.5 19 19 19h66c10.4 0 19-8.5 19-19 0-10.4-8.6-19-19-19m76.8 19.3c0-11.7-9.5-21.2-21.2-21.2s-21.2 9.5-21.2 21.2 9.5 21.2 21.2 21.2 21.2-9.6 21.2-21.2m49.1 0c0-11.9-9.6-21.5-21.5-21.5s-21.5 9.6-21.5 21.5 9.6 21.5 21.5 21.5c11.8 0 21.5-9.7 21.5-21.5" fill="#ae2740"/><path d="m285.9 248.3c0-10.2-8.3-18.5-18.5-18.5s-18.5 8.3-18.5 18.5 8.3 18.5 18.5 18.5 18.5-8.3 18.5-18.5m48.8 0c0-10.2-8.3-18.5-18.5-18.5s-18.5 8.3-18.5 18.5 8.3 18.5 18.5 18.5 18.5-8.3 18.5-18.5" fill="#444443"/><path d="m107 279.1h-18.2v19.3c0 1.1-.9 2-2 2h-28.6c-1.1 0-2-.9-2-2v-19.3h-18.2c-1.1 0-2-.9-2-2v-26.8c0-1.1.9-2 2-2h18.2v-19.3c0-1.1.9-2 2-2h28.7c1.1 0 2 .9 2 2v19.2h18.1c1.1 0 2 .9 2 2v26.8c0 1.2-.9 2.1-2 2.1" fill="#ae2740"/><g fill="#444443"><path d="m104 274.1h-20.2v21.3h-22.6v-21.3h-20.2v-20.8h20.2v-21.3h22.7v21.2h20.1zm60.3-30.4h-19.3c-2.5 0-4.5 2-4.5 4.5s2 4.5 4.5 4.5h19.3c2.5 0 4.5-2 4.5-4.5s-2.1-4.5-4.5-4.5m48 0h-19.3c-2.5 0-4.5 2-4.5 4.5s2 4.5 4.5 4.5h19.3c2.5 0 4.5-2 4.5-4.5s-2.1-4.5-4.5-4.5m57.7 34.9c-.3.1-.9.1-1.8.1h-1.7v-2.3h1.9c.7 0 1.2 0 1.4.1.3 0 .6.2.8.3.2.2.3.4.3.7s-.1.5-.2.7c-.3.2-.5.3-.7.4m-.7 1.6c.4 0 .6.1.8.3s.3.4.3.7-.1.5-.3.6c-.2.2-.4.3-.8.3-.2 0-.8 0-1.8 0h-1.2v-2h1.4c.9.1 1.4.1 1.6.1"/><path d="m272.6 276.4c-.2-.4-.5-.7-.9-.9s-.8-.4-1.4-.4c-.3 0-1.2-.1-2.5-.1h-3.5v8.6h4.1c.8 0 1.4 0 1.8-.1s.8-.2 1.1-.4.6-.4.8-.7.3-.6.3-1-.1-.8-.4-1.1-.6-.6-1.1-.8c.6-.2 1.1-.4 1.4-.8s.5-.8.5-1.3c.2-.3.1-.7-.2-1m.6 8.5h-11.1c-3.1 0-5.7-2.6-5.7-5.7s2.6-5.7 5.7-5.7h11.1c3.1 0 5.7 2.6 5.7 5.7s-2.5 5.7-5.7 5.7m42.1-6.5h2.8l-1.4 3.2c-.1 0-1.4-3.2-1.4-3.2z"/><path d="m319.6 275-.9 2h-4.1l-.8-2h-2.2l4 8.6h2.2l4.1-8.6zm2.1 9.9h-11.1c-3.1 0-5.7-2.6-5.7-5.7s2.6-5.7 5.7-5.7h11.1c3.1 0 5.7 2.6 5.7 5.7s-2.5 5.7-5.7 5.7m-282.7 35.9c.3-.1.8-.3 1.5-.4.2 0 .3-.2.3-.5 0-.1 0-.3-.1-.5-.6 0-1.2.1-1.8.1s-1.1 0-1.7 0c-.5 0-1.1 0-1.7 0s-1.2-.1-1.7-.1c0 .2-.1.3-.1.5 0 .3.1.4.3.5.7.1 1.2.3 1.5.4.3.2.4.4.4.8v14.4c0 .4-.1.6-.4.8s-.8.3-1.5.4c-.1 0-.2.1-.2.2s-.1.2-.1.3 0 .3.1.5c.6 0 1.2-.1 1.8-.1h1.7 1.6c.6 0 1.2.1 1.8.1 0-.2.1-.3.1-.5 0-.3-.1-.4-.3-.5-.7-.1-1.2-.2-1.5-.4s-.4-.4-.4-.8v-14.4c0-.4.1-.6.4-.8m-14.4 20.2v-25.3h25.3v25.3z"/></g><path d="m81.4 263.7c0-4.9-4-8.9-8.9-8.9s-8.9 4-8.9 8.9 4 8.9 8.9 8.9 8.9-4 8.9-8.9" fill="#383737"/><path d="m72.6 291.4-7.3-6.1h1.5v-7.2h11.6v7.2h1.3z" fill="#2b2b2a"/><path d="m72.6 291.4-7.3-6.1h1.5v-7.2h11.6v7.2h1.3zm-27.8-27.6 6.1-7.3v1.5h7.2v11.6h-7.2v1.3s-6.1-7.1-6.1-7.1zm27.6-27.8 7.3 6.1h-1.5v7.2h-11.6v-7.2h-1.3zm27.8 27.6-6.1 7.3v-1.5h-7.2v-11.6h7.2v-1.3s6.1 7.1 6.1 7.1z" fill="#383737"/></g></svg>