<svg xmlns="http://www.w3.org/2000/svg" viewBox="0 0 238.056 222.627"><path fill="#2B2D30" d="M13.861 219.919h210.334s15.779-29.833 13.667-78.5c-.989-22.778-7.347-43.67-12-54.5-2.621-6.101-16.092-26.837-34.667-33.333-30.958-10.827-72.167-9.833-72.167-9.833s-41.209-.993-72.167 9.833c-18.575 6.496-32.046 27.233-34.667 33.333-4.653 10.83-11.011 31.722-12 54.5-2.112 48.667 13.667 78.5 13.667 78.5z"/><path fill="#313131" d="M180.228 219.584v.03l10.633-4.667s13-26.333 15.667-47.333-2.333-46.25-2.333-46.25-.5-2.917-2.167-4.25c-1.667-1.333-4.5-1.667-4.5-1.667h-157s-2.833.333-4.5 1.667c-1.667 1.333-2.167 4.25-2.167 4.25s-5 25.25-2.333 46.25 15.667 47.333 15.667 47.333l10.633 4.667v-.03h122.4z"/><path fill="#393B3F" d="M170.301 214.698l1.19-.732a.25.25 0 0 0 .119-.213v-79.932a5.824 5.824 0 0 0-5.817-5.818h-92.53a5.825 5.825 0 0 0-5.818 5.818v79.932a.25.25 0 0 0 .119.213l1.19.732H47.351c-1.021-2.101-13.043-27.181-15.575-47.114-2.631-20.718 2.281-45.918 2.331-46.17.006-.035.506-2.846 2.078-4.104 1.59-1.272 4.345-1.61 4.373-1.614l156.971.002c-.002.001 2.754.34 4.344 1.612 1.574 1.259 2.072 4.068 2.077 4.097.051.259 4.962 25.459 2.331 46.177-2.531 19.934-14.555 45.014-15.575 47.114h-20.405z"/><path fill="#212123" d="M197.496 115.948c.286.038 2.765.394 4.219 1.557 1.496 1.196 1.982 3.917 1.989 3.957.05.252 4.953 25.414 2.328 46.09-2.479 19.526-14.092 44.015-15.484 46.896h-19.364l.438-.27a.5.5 0 0 0 .238-.426V133.82a6.075 6.075 0 0 0-6.068-6.068h-92.53a6.075 6.075 0 0 0-6.068 6.068v79.932a.5.5 0 0 0 .238.426l.438.27H47.508c-1.391-2.881-13.004-27.367-15.483-46.896-2.626-20.676 2.278-45.838 2.33-46.103.005-.027.485-2.743 1.986-3.944 1.45-1.16 3.934-1.519 4.219-1.557h156.936m.032-.5h-157s-2.833.333-4.5 1.667c-1.667 1.333-2.167 4.25-2.167 4.25s-5 25.25-2.333 46.25 15.667 47.333 15.667 47.333h22.443l-1.943-1.196V133.82a5.568 5.568 0 0 1 5.568-5.568h92.53a5.568 5.568 0 0 1 5.568 5.568v79.932l-1.943 1.196h21.443s13-26.333 15.667-47.333-2.333-46.25-2.333-46.25-.5-2.917-2.167-4.25c-1.667-1.334-4.5-1.667-4.5-1.667z"/><path fill="#3E4346" d="M119.528 217.752h45.333l6.5-4V133.82a5.568 5.568 0 0 0-5.568-5.568h-92.53a5.568 5.568 0 0 0-5.568 5.568v79.932l6.5 4h45.333z"/><path fill="#262626" d="M67.695 212.252h103.666v1.5l-6.5 4H74.195l-6.5-4z"/><linearGradient id="a" gradientUnits="userSpaceOnUse" x1="-355.235" y1="218.384" x2="-145.066" y2="218.384" gradientTransform="matrix(-1 0 0 1 -130.623 0)"><stop offset="0" stop-color="#262626"/><stop offset="1" stop-color="#2a2e33"/></linearGradient><path fill="url(#a)" d="M181.228 219.615l10.133-3.612s7.875-.25 16.125 0 17.25 2.5 17.125 3.612-3 1.263-3 1.263H17.445s-2.875-.15-3-1.263c-.125-1.112 8.875-3.362 17.125-3.612s16.125 0 16.125 0l10.133 3.612h123.4z"/><path fill="#6E727D" d="M119.528 220.877h102.083s-1.592.733-5.244 1.028c-6.364.515-16.945.722-21.631.722-7.375 0-22.875-.875-22.875-.875l-1.313-.438H68.507l-1.313.438s-15.5.875-22.875.875c-4.686 0-15.267-.206-21.631-.722-3.652-.296-5.244-1.028-5.244-1.028h102.084"/><path fill="#3D4144" d="M193.895 54.565c12.966 7.938 26.466 16.239 30.216 31.588s-6.5 27.117-13.5 27.117H28.445c-7 0-17.25-11.768-13.5-27.117s17.25-23.651 30.216-31.588c6.483-3.969 40.425-9.453 74.367-9.453 33.942 0 67.884 5.484 74.367 9.453z"/><path fill="#151515" d="M196.797 123.296H42.259a2.07 2.07 0 0 1-2.065-2.065 2.07 2.07 0 0 1 2.065-2.065h154.537a2.07 2.07 0 0 1 2.065 2.065 2.07 2.07 0 0 1-2.064 2.065z"/><path fill="#424242" d="M196.797 124.004H42.259a2.07 2.07 0 0 1-2.065-2.065 2.07 2.07 0 0 1 2.065-2.065h154.537a2.07 2.07 0 0 1 2.065 2.065 2.07 2.07 0 0 1-2.064 2.065z"/><path fill="#242424" d="M196.797 123.15H42.259a2.07 2.07 0 0 1-2.065-2.065 2.07 2.07 0 0 1 2.065-2.065h154.537a2.07 2.07 0 0 1 2.065 2.065 2.07 2.07 0 0 1-2.064 2.065z"/><path fill="#0E0E0E" d="M95.771 145.802h-11.25a4.638 4.638 0 0 1-4.625-4.625 4.638 4.638 0 0 1 4.625-4.625h11.25a4.638 4.638 0 0 1 4.625 4.625 4.639 4.639 0 0 1-4.625 4.625z"/><path fill="#212121" d="M95.859 144.586H84.433a3.419 3.419 0 0 1-3.409-3.409 3.419 3.419 0 0 1 3.409-3.409h11.426a3.419 3.419 0 0 1 3.409 3.409 3.419 3.419 0 0 1-3.409 3.409z"/><path fill="#313131" d="M95.812 142.927H84.479c-.963 0-1.75-.788-1.75-1.75 0-.963.787-1.75 1.75-1.75h11.333c.963 0 1.75.787 1.75 1.75s-.787 1.75-1.75 1.75z"/><path fill="#0E0E0E" d="M110.872 96.101l-5.944 7.29a3.639 3.639 0 0 1-5.105.519l-.203-.165a3.639 3.639 0 0 1-.519-5.105l5.944-7.29a3.639 3.639 0 0 1 5.105-.519l.203.165a3.64 3.64 0 0 1 .519 5.105z"/><path fill="#212121" d="M110.365 95.072l-6.236 7.648a2.683 2.683 0 0 1-3.763.383l-.262-.214a2.683 2.683 0 0 1-.383-3.763l6.236-7.648a2.683 2.683 0 0 1 3.763-.383l.262.214a2.683 2.683 0 0 1 .383 3.763z"/><path fill="#313131" d="M109.437 93.456l-6.31 7.738a1.377 1.377 0 0 1-1.932.196l-.2-.163a1.377 1.377 0 0 1-.196-1.932l6.31-7.738a1.377 1.377 0 0 1 1.932-.196l.2.163c.585.478.673 1.347.196 1.932z"/><path fill="#0E0E0E" d="M128.842 96.101l-5.944 7.29a3.639 3.639 0 0 1-5.105.519l-.203-.165a3.639 3.639 0 0 1-.519-5.105l5.944-7.29a3.639 3.639 0 0 1 5.105-.519l.203.165a3.64 3.64 0 0 1 .519 5.105z"/><path fill="#212121" d="M128.334 95.072l-6.236 7.648a2.683 2.683 0 0 1-3.763.383l-.262-.214a2.683 2.683 0 0 1-.383-3.763l6.236-7.648a2.683 2.683 0 0 1 3.763-.383l.262.214a2.681 2.681 0 0 1 .383 3.763z"/><path fill="#313131" d="M127.407 93.456l-6.31 7.738a1.377 1.377 0 0 1-1.932.196l-.2-.163a1.377 1.377 0 0 1-.196-1.932l6.31-7.738a1.377 1.377 0 0 1 1.932-.196l.2.163c.584.478.673 1.347.196 1.932z"/><path fill="#0E0E0E" d="M124.668 145.802h-11.25a4.638 4.638 0 0 1-4.625-4.625 4.638 4.638 0 0 1 4.625-4.625h11.25a4.638 4.638 0 0 1 4.625 4.625 4.638 4.638 0 0 1-4.625 4.625z"/><path fill="#212121" d="M124.756 144.586H113.33a3.419 3.419 0 0 1-3.409-3.409 3.419 3.419 0 0 1 3.409-3.409h11.426a3.419 3.419 0 0 1 3.409 3.409 3.419 3.419 0 0 1-3.409 3.409z"/><path fill="#313131" d="M124.71 142.927h-11.333c-.963 0-1.75-.788-1.75-1.75 0-.963.787-1.75 1.75-1.75h11.333c.963 0 1.75.787 1.75 1.75s-.788 1.75-1.75 1.75z"/><path fill="#0E0E0E" d="M155.271 145.802h-11.25a4.638 4.638 0 0 1-4.625-4.625 4.638 4.638 0 0 1 4.625-4.625h11.25a4.638 4.638 0 0 1 4.625 4.625 4.639 4.639 0 0 1-4.625 4.625z"/><path fill="#212121" d="M155.359 144.586h-11.426a3.419 3.419 0 0 1-3.409-3.409 3.419 3.419 0 0 1 3.409-3.409h11.426a3.419 3.419 0 0 1 3.409 3.409 3.419 3.419 0 0 1-3.409 3.409z"/><path fill="#313131" d="M155.312 142.927h-11.333c-.963 0-1.75-.788-1.75-1.75 0-.963.787-1.75 1.75-1.75h11.333c.962 0 1.75.787 1.75 1.75s-.787 1.75-1.75 1.75z"/><path fill="#0E0E0E" d="M95.771 165.302h-11.25a4.638 4.638 0 0 1-4.625-4.625 4.638 4.638 0 0 1 4.625-4.625h11.25a4.638 4.638 0 0 1 4.625 4.625 4.639 4.639 0 0 1-4.625 4.625z"/><path fill="#212121" d="M95.859 164.086H84.433a3.419 3.419 0 0 1-3.409-3.409 3.419 3.419 0 0 1 3.409-3.409h11.426a3.419 3.419 0 0 1 3.409 3.409 3.419 3.419 0 0 1-3.409 3.409z"/><path fill="#313131" d="M95.812 162.427H84.479c-.963 0-1.75-.788-1.75-1.75 0-.963.787-1.75 1.75-1.75h11.333c.963 0 1.75.787 1.75 1.75s-.787 1.75-1.75 1.75z"/><path fill="#0E0E0E" d="M124.668 165.302h-11.25a4.638 4.638 0 0 1-4.625-4.625 4.638 4.638 0 0 1 4.625-4.625h11.25a4.638 4.638 0 0 1 4.625 4.625 4.638 4.638 0 0 1-4.625 4.625z"/><path fill="#212121" d="M124.756 164.086H113.33a3.419 3.419 0 0 1-3.409-3.409 3.419 3.419 0 0 1 3.409-3.409h11.426a3.419 3.419 0 0 1 3.409 3.409 3.419 3.419 0 0 1-3.409 3.409z"/><path fill="#313131" d="M124.71 162.427h-11.333c-.963 0-1.75-.788-1.75-1.75 0-.963.787-1.75 1.75-1.75h11.333c.963 0 1.75.787 1.75 1.75s-.788 1.75-1.75 1.75z"/><path fill="#0E0E0E" d="M155.271 165.302h-11.25a4.638 4.638 0 0 1-4.625-4.625 4.638 4.638 0 0 1 4.625-4.625h11.25a4.638 4.638 0 0 1 4.625 4.625 4.639 4.639 0 0 1-4.625 4.625z"/><path fill="#212121" d="M155.359 164.086h-11.426a3.419 3.419 0 0 1-3.409-3.409 3.419 3.419 0 0 1 3.409-3.409h11.426a3.419 3.419 0 0 1 3.409 3.409 3.419 3.419 0 0 1-3.409 3.409z"/><path fill="#313131" d="M155.312 162.427h-11.333c-.963 0-1.75-.788-1.75-1.75 0-.963.787-1.75 1.75-1.75h11.333c.962 0 1.75.787 1.75 1.75s-.787 1.75-1.75 1.75z"/><path fill="#0E0E0E" d="M95.771 184.802h-11.25a4.638 4.638 0 0 1-4.625-4.625 4.638 4.638 0 0 1 4.625-4.625h11.25a4.638 4.638 0 0 1 4.625 4.625 4.639 4.639 0 0 1-4.625 4.625z"/><path fill="#212121" d="M95.859 183.586H84.433a3.419 3.419 0 0 1-3.409-3.409 3.419 3.419 0 0 1 3.409-3.409h11.426a3.419 3.419 0 0 1 3.409 3.409 3.419 3.419 0 0 1-3.409 3.409z"/><path fill="#313131" d="M95.812 181.927H84.479c-.963 0-1.75-.788-1.75-1.75 0-.963.787-1.75 1.75-1.75h11.333c.963 0 1.75.787 1.75 1.75s-.787 1.75-1.75 1.75z"/><path fill="#0E0E0E" d="M124.668 184.802h-11.25a4.638 4.638 0 0 1-4.625-4.625 4.638 4.638 0 0 1 4.625-4.625h11.25a4.638 4.638 0 0 1 4.625 4.625 4.638 4.638 0 0 1-4.625 4.625z"/><path fill="#212121" d="M124.756 183.586H113.33a3.419 3.419 0 0 1-3.409-3.409 3.419 3.419 0 0 1 3.409-3.409h11.426a3.419 3.419 0 0 1 3.409 3.409 3.419 3.419 0 0 1-3.409 3.409z"/><path fill="#313131" d="M124.71 181.927h-11.333c-.963 0-1.75-.788-1.75-1.75 0-.963.787-1.75 1.75-1.75h11.333c.963 0 1.75.787 1.75 1.75s-.788 1.75-1.75 1.75z"/><path fill="#0E0E0E" d="M155.271 184.802h-11.25a4.638 4.638 0 0 1-4.625-4.625 4.638 4.638 0 0 1 4.625-4.625h11.25a4.638 4.638 0 0 1 4.625 4.625 4.639 4.639 0 0 1-4.625 4.625z"/><path fill="#212121" d="M155.359 183.586h-11.426a3.419 3.419 0 0 1-3.409-3.409 3.419 3.419 0 0 1 3.409-3.409h11.426a3.419 3.419 0 0 1 3.409 3.409 3.419 3.419 0 0 1-3.409 3.409z"/><path fill="#313131" d="M155.312 181.927h-11.333c-.963 0-1.75-.788-1.75-1.75 0-.963.787-1.75 1.75-1.75h11.333c.962 0 1.75.787 1.75 1.75s-.787 1.75-1.75 1.75z"/><path fill="#0E0E0E" d="M95.771 204.302h-11.25a4.638 4.638 0 0 1-4.625-4.625 4.638 4.638 0 0 1 4.625-4.625h11.25a4.638 4.638 0 0 1 4.625 4.625 4.639 4.639 0 0 1-4.625 4.625z"/><path fill="#212121" d="M95.859 203.086H84.433a3.419 3.419 0 0 1-3.409-3.409 3.419 3.419 0 0 1 3.409-3.409h11.426a3.419 3.419 0 0 1 3.409 3.409 3.419 3.419 0 0 1-3.409 3.409z"/><path fill="#313131" d="M95.812 201.427H84.479c-.963 0-1.75-.788-1.75-1.75 0-.963.787-1.75 1.75-1.75h11.333c.963 0 1.75.787 1.75 1.75s-.787 1.75-1.75 1.75z"/><path fill="#0E0E0E" d="M124.668 204.302h-11.25a4.638 4.638 0 0 1-4.625-4.625 4.638 4.638 0 0 1 4.625-4.625h11.25a4.638 4.638 0 0 1 4.625 4.625 4.638 4.638 0 0 1-4.625 4.625z"/><path fill="#212121" d="M124.756 203.086H113.33a3.419 3.419 0 0 1-3.409-3.409 3.419 3.419 0 0 1 3.409-3.409h11.426a3.419 3.419 0 0 1 3.409 3.409 3.419 3.419 0 0 1-3.409 3.409z"/><path fill="#313131" d="M124.71 201.427h-11.333c-.963 0-1.75-.788-1.75-1.75 0-.963.787-1.75 1.75-1.75h11.333c.963 0 1.75.787 1.75 1.75s-.788 1.75-1.75 1.75z"/><path fill="#0E0E0E" d="M155.271 204.302h-11.25a4.638 4.638 0 0 1-4.625-4.625 4.638 4.638 0 0 1 4.625-4.625h11.25a4.638 4.638 0 0 1 4.625 4.625 4.639 4.639 0 0 1-4.625 4.625z"/><path fill="#212121" d="M155.359 203.086h-11.426a3.419 3.419 0 0 1-3.409-3.409 3.419 3.419 0 0 1 3.409-3.409h11.426a3.419 3.419 0 0 1 3.409 3.409 3.419 3.419 0 0 1-3.409 3.409z"/><path fill="#313131" d="M155.312 201.427h-11.333c-.963 0-1.75-.788-1.75-1.75 0-.963.787-1.75 1.75-1.75h11.333c.962 0 1.75.787 1.75 1.75s-.787 1.75-1.75 1.75z"/><path fill="none" stroke="#030405" stroke-miterlimit="10" d="M167.494 107.793l4.044-5.314a2.78 2.78 0 0 0-.838-4.142l-11.971-6.724c-1.739-.969-4.425-1.516-5.637.063l-8.597 11.202c-2.026 2.64-.144 6.457 3.184 6.457h16.653a4.01 4.01 0 0 0 3.162-1.542zM160.769 81.882l5.681-5.761c2.365-2.63 5.196-2.856 8.36-1.274l8.405 4.202c3.073 1.536 4.242 5.129 1.819 7.564l-4.636 4.658c-1.935 1.944-5.43 2.355-7.864 1.09L161.6 86.458a2.94 2.94 0 0 1-.831-4.576zM178.363 70.582l11.036 5.733c2.343 1.217 4.693.864 6.668-.889l5.902-5.237c2.125-1.886 1.674-5.321-.866-6.594l-9.441-4.588c-2.949-1.478-5.987-1.136-8.439 1.069l-5.56 5.001c-1.754 1.576-1.392 4.418.7 5.505z"/><path fill="#BF181A" d="M167.4 107.793l4.544-5.814a2.78 2.78 0 0 0-.838-4.142l-12.971-7.224a4.013 4.013 0 0 0-5.137 1.063l-8.597 11.202c-2.026 2.64-.144 6.457 3.184 6.457h16.653a4.009 4.009 0 0 0 3.162-1.542zM160.676 81.882l5.181-5.761a7.86 7.86 0 0 1 9.36-1.774l8.405 4.202c3.073 1.536 3.742 5.629 1.319 8.064l-4.636 4.658a6.275 6.275 0 0 1-7.342 1.141l-11.456-5.955a2.94 2.94 0 0 1-.831-4.575zM178.269 70.582l11.036 5.733a6.372 6.372 0 0 0 7.168-.889l5.902-5.237c2.125-1.886 1.674-5.321-.866-6.594l-9.426-4.725a8.018 8.018 0 0 0-8.955 1.206l-5.56 5.001c-1.753 1.576-1.391 4.418.701 5.505z"/><linearGradient id="b" gradientUnits="userSpaceOnUse" x1="158.313" y1="98.863" x2="163.516" y2="106.379"><stop offset="0" stop-color="#cb2626"/><stop offset=".197" stop-color="#ce292b"/><stop offset=".434" stop-color="#d7333a"/><stop offset=".691" stop-color="#e64452"/><stop offset=".961" stop-color="#fc5a73"/><stop offset="1" stop-color="#ff5e79"/></linearGradient><ellipse fill="url(#b)" cx="158.611" cy="99.294" rx="8" ry="6.458"/><linearGradient id="c" gradientUnits="userSpaceOnUse" x1="173.031" y1="80.769" x2="179.12" y2="87.82"><stop offset="0" stop-color="#cb2626"/><stop offset=".197" stop-color="#ce292b"/><stop offset=".434" stop-color="#d7333a"/><stop offset=".691" stop-color="#e64452"/><stop offset=".961" stop-color="#fc5a73"/><stop offset="1" stop-color="#ff5e79"/></linearGradient><ellipse fill="url(#c)" cx="173.57" cy="81.393" rx="7.958" ry="6.276"/><linearGradient id="d" gradientUnits="userSpaceOnUse" x1="189.201" y1="64.579" x2="193.971" y2="73.751"><stop offset="0" stop-color="#cb2626"/><stop offset=".197" stop-color="#ce292b"/><stop offset=".434" stop-color="#d7333a"/><stop offset=".691" stop-color="#e64452"/><stop offset=".961" stop-color="#fc5a73"/><stop offset="1" stop-color="#ff5e79"/></linearGradient><ellipse fill="url(#d)" cx="190.028" cy="66.169" rx="8.083" ry="6.083"/><ellipse fill="#262626" cx="59.846" cy="82.206" rx="28.294" ry="23.412"/><ellipse fill="#3B3D3F" cx="59.695" cy="81.773" rx="27.667" ry="22.979"/><ellipse fill="#030301" cx="59.695" cy="81.198" rx="19.5" ry="16.172"/><ellipse fill="#242424" cx="59.361" cy="80.863" rx="18.5" ry="15.513"/><linearGradient id="e" gradientUnits="userSpaceOnUse" x1="37.111" y1="83.627" x2="37.111" y2="79.294"><stop offset="0" stop-color="#262626"/><stop offset="1" stop-color="#1f2326"/></linearGradient><ellipse fill="url(#e)" cx="37.111" cy="81.752" rx="2.167" ry="1.833"/><ellipse fill="#151515" cx="37.134" cy="81.708" rx="1.634" ry="1.225"/><linearGradient id="f" gradientUnits="userSpaceOnUse" x1="82.516" y1="83.448" x2="82.516" y2="79.115"><stop offset="0" stop-color="#262626"/><stop offset="1" stop-color="#2a2e33"/></linearGradient><ellipse fill="url(#f)" cx="82.516" cy="81.198" rx="2.167" ry="1.833"/><ellipse fill="#151515" cx="82.539" cy="81.154" rx="1.634" ry="1.225"/><linearGradient id="g" gradientUnits="userSpaceOnUse" x1="59.695" y1="101.988" x2="59.695" y2="97.655"><stop offset="0" stop-color="#262626"/><stop offset="1" stop-color="#2a2e33"/></linearGradient><ellipse fill="url(#g)" cx="59.695" cy="100.196" rx="2.167" ry="2.022"/><ellipse fill="#212121" cx="59.717" cy="100.147" rx="1.634" ry="1.351"/><linearGradient id="h" gradientUnits="userSpaceOnUse" x1="59.972" y1="64.715" x2="59.972" y2="60.937"><stop offset="0" stop-color="#262626"/><stop offset="1" stop-color="#2a2e33"/></linearGradient><ellipse fill="url(#h)" cx="59.972" cy="62.715" rx="1.889" ry="1.598"/><ellipse fill="#151515" cx="59.992" cy="62.676" rx="1.424" ry="1.068"/><ellipse fill="#151515" cx="44.224" cy="69.015" rx=".938" ry=".769"/><ellipse fill="#212121" cx="43.724" cy="94.877" rx=".938" ry=".769"/><ellipse fill="#212121" cx="75.7" cy="94.877" rx=".938" ry=".769"/><ellipse fill="#151515" cx="75.587" cy="68.922" rx=".824" ry=".676"/><path fill="#151515" d="M52.735 67.612l.236 4.582a1.171 1.171 0 0 1-1.17 1.225h-7.793c-.464 0-.888.271-1.071.697-.168.391-.915 2.52-1.111 4.8-.231 2.68.608 5.57.727 6.093.121.534.594.91 1.142.91h6.819c.682 0 1.22.581 1.168 1.261l-.009 5.614c-.038.5.242.968.703 1.166 1.039.444 4.105 1.627 6.986 1.627 2.881 0 5.946-.683 6.986-1.127.461-.197.742-.665.703-1.166l-.009-6.114c-.052-.68.985-1.261 1.668-1.261h6.319c.547 0 1.021-.376 1.142-.91.117-.518.604-3.351.51-6.006-.082-2.312-.724-4.49-.895-4.886a1.163 1.163 0 0 0-1.071-.697h-7.793a1.171 1.171 0 0 1-1.17-1.225l.236-4.582a1.168 1.168 0 0 0-.819-1.172c-.94-.293-3.612-.687-5.808-.687-2.196 0-4.867.394-5.808.687a1.165 1.165 0 0 0-.818 1.171z"/><path fill="#282828" d="M164.111 57.332c1.219-.087 3.904-.642 4.841-1.97 1.438-2.039.791-7.925.284-8.735-.913-1.455-2.625-2.125-10.375-3.625s-39.833-1.875-39.833-1.875-32.083.375-39.833 1.875-9.462 2.17-10.375 3.625c-.508.809-1.155 6.696.284 8.735.937 1.328 3.622 1.883 4.841 1.97 3.5.25 86.666.25 90.166 0zM153.611 66.565c1.06-.326 7.535-5.762 9.553-7.79a.443.443 0 0 0-.317-.755H75.209a.443.443 0 0 0-.317.755c2.017 2.028 8.493 7.464 9.553 7.79 1.625.5 67.541.5 69.166 0zM119.023 81.225c8.656-.288 16.995-3.625 20.558-5.242.351-.159.264-.867-.106-.867H98.571c-.369 0-.456.708-.106.867 3.563 1.616 11.902 4.954 20.558 5.242z"/><linearGradient id="i" gradientUnits="userSpaceOnUse" x1="119.028" y1="54.19" x2="119.028" y2="41.435"><stop offset="0" stop-color="#454649"/><stop offset=".781" stop-color="#2a2e33"/><stop offset="1" stop-color="#44474d"/></linearGradient><path fill="url(#i)" d="M164.111 54.627c1.219-.087 3.904-.642 4.841-1.97 1.438-2.039.791-5.221.284-6.03-.913-1.455-2.625-2.125-10.375-3.625s-39.833-1.875-39.833-1.875-32.083.375-39.833 1.875-9.462 2.17-10.375 3.625c-.508.809-1.155 3.991.284 6.03.937 1.328 3.622 1.883 4.841 1.97 3.5.25 86.666.25 90.166 0z"/><linearGradient id="j" gradientUnits="userSpaceOnUse" x1="119.028" y1="64.423" x2="119.028" y2="57.245"><stop offset="0" stop-color="#454649"/><stop offset="1" stop-color="#2a2e33"/></linearGradient><path fill="url(#j)" d="M153.611 63.752c1.305-.401 6.476-3.853 8.465-5.199.239-.162.123-.534-.165-.534H76.144c-.288 0-.404.372-.165.534 1.989 1.346 7.161 4.798 8.465 5.199 1.626.5 67.542.5 69.167 0z"/><linearGradient id="k" gradientUnits="userSpaceOnUse" x1="119.028" y1="79.491" x2="119.028" y2="72.913"><stop offset="0" stop-color="#454649"/><stop offset="1" stop-color="#2a2e33"/></linearGradient><path fill="url(#k)" d="M119.028 79.127c7.773-.189 15.261-2.381 18.46-3.442.315-.104.237-.569-.095-.569h-36.731c-.332 0-.41.465-.095.569 3.2 1.062 10.688 3.254 18.461 3.442z"/><linearGradient id="l" gradientUnits="userSpaceOnUse" x1="66.062" y1="68.599" x2="59.562" y2="79.099"><stop offset="0" stop-color="#454649"/><stop offset="1" stop-color="#2a2e33"/></linearGradient><path fill="url(#l)" d="M53.735 67.612l.236 5.082a1.171 1.171 0 0 1-1.17 1.225h-8.293c-.464 0-.888.271-1.071.697a11.26 11.26 0 0 0-.897 4.39c0 1.884.294 3.534.513 4.502.121.534.594.91 1.142.91h7.819c.682 0 1.22.581 1.168 1.261l-.509 6.614c-.038.5.242.968.703 1.166 1.039.444 3.105 1.127 5.986 1.127s4.946-.683 5.986-1.127c.461-.197.742-.665.703-1.166l-.509-6.614a1.171 1.171 0 0 1 1.168-1.261h7.819c.547 0 1.021-.376 1.142-.91.219-.968.513-2.618.513-4.502 0-1.967-.531-3.539-.897-4.39a1.163 1.163 0 0 0-1.071-.697h-8.293a1.171 1.171 0 0 1-1.17-1.225l.236-5.082a1.168 1.168 0 0 0-.819-1.172c-.94-.293-2.612-.687-4.808-.687-2.196 0-3.867.394-4.808.687a1.167 1.167 0 0 0-.819 1.172z"/><path fill="#282828" d="M140.006 74.206c2.392-.018 4.226-.761 4.483-.87a.276.276 0 0 0 .061-.037l6.196-5.003c.265-.214.154-.769-.153-.769h-63.13c-.307 0-.418.556-.153.769l6.196 5.003c.02.016.038.028.061.037.257.109 2.091.852 4.483.87 2.708.02 39.248.02 41.956 0z"/><linearGradient id="m" gradientUnits="userSpaceOnUse" x1="119.028" y1="73.287" x2="119.028" y2="67.107"><stop offset="0" stop-color="#454649"/><stop offset="1" stop-color="#2a2e33"/></linearGradient><path fill="url(#m)" d="M139.361 72.252c2.319-.012 4.096-.538 4.345-.616a.262.262 0 0 0 .059-.027l6.006-3.54c.257-.151.149-.544-.148-.544h-61.19c-.298 0-.405.393-.148.544l6.006 3.54c.02.012.037.02.059.027.249.077 2.026.603 4.345.616 2.625.014 38.041.014 40.666 0z"/><g fill="#5B5B5B"><circle cx="119.217" cy="133.127" r="2.958"/><circle cx="149.82" cy="133.127" r="2.958"/><circle cx="90.32" cy="152.627" r="2.958"/><circle cx="119.217" cy="152.627" r="2.958"/><circle cx="149.82" cy="152.627" r="2.958"/><circle cx="90.32" cy="172.127" r="2.958"/><circle cx="119.217" cy="172.127" r="2.958"/><circle cx="149.82" cy="172.127" r="2.958"/><circle cx="90.32" cy="191.627" r="2.958"/><circle cx="119.217" cy="191.627" r="2.958"/><circle cx="149.82" cy="191.627" r="2.958"/><circle cx="90.32" cy="133.127" r="2.958"/></g><g><g fill="#CCCEC6"><path d="M113.006 99.795c-.322-.233-.552-.473-.689-.719-.139-.246-.204-.483-.194-.71.01-.227.095-.449.253-.668.23-.316.537-.486.924-.509.387-.023.803.127 1.249.452.45.328.727.689.827 1.085.089.348.019.681-.213.998-.232.32-.526.492-.883.516-.407.025-.832-.124-1.274-.445zm.316-.473c.31.226.586.336.826.331.24-.005.424-.095.551-.269.128-.175.156-.376.087-.604-.07-.228-.265-.457-.583-.688-.313-.228-.584-.339-.816-.336-.23.004-.412.096-.544.278s-.164.385-.096.609c.067.222.258.449.575.679zM116.149 98.27l-2.694-1.96.521-.717c.194-.268.334-.433.421-.496a.723.723 0 0 1 .501-.131c.198.014.404.099.619.255.194.142.331.297.409.467a.794.794 0 0 1 .078.478c-.027.149-.14.358-.336.628l-.212.292 1.017.739-.324.445zm-1.914-2.074l.767.559.18-.247c.12-.166.19-.287.209-.364.021-.076.014-.156-.019-.238s-.094-.156-.183-.22a.511.511 0 0 0-.27-.106.358.358 0 0 0-.229.056c-.063.042-.162.157-.298.344l-.157.216zM118.009 95.713l-2.238-1.629-.478.656-.456-.331 1.277-1.755.456.331-.477.654 2.238 1.629-.322.445zM119.009 94.339l-2.694-1.96.323-.445 2.694 1.96-.323.445zM118.248 92.589c-.322-.233-.552-.473-.689-.719-.139-.246-.204-.483-.194-.71s.095-.45.253-.668c.23-.316.537-.486.924-.51s.803.127 1.249.452c.45.328.727.689.827 1.084.089.349.019.681-.212.999-.233.32-.527.492-.884.516-.408.026-.833-.122-1.274-.444zm.315-.473c.31.226.586.336.826.331.241-.005.424-.095.551-.27.128-.175.156-.376.087-.604-.07-.228-.265-.458-.583-.689-.313-.228-.584-.339-.815-.336a.652.652 0 0 0-.545.278.659.659 0 0 0-.096.609c.067.225.259.452.575.681zM121.395 91.059l-2.694-1.96.315-.434 2.456.404-1.799-1.309.303-.416 2.694 1.96-.326.449-2.404-.389 1.757 1.278-.302.417z"/></g><g fill="#CCCEC6"><path d="M97.031 99.93l-2.605-2.077.553-.693c.206-.258.354-.417.442-.477a.733.733 0 0 1 .507-.109c.197.023.399.116.607.282.188.15.317.312.389.485a.8.8 0 0 1 .056.48c-.034.147-.154.352-.362.612l-.225.283.982.784-.344.43zm-1.82-2.156l.741.591.19-.239c.127-.16.202-.279.226-.354s.021-.156-.01-.239a.5.5 0 0 0-.172-.228.505.505 0 0 0-.264-.117.354.354 0 0 0-.231.045c-.065.04-.169.15-.313.33l-.167.211zM99.982 96.23l-.373.467-.739-.283-.682.855.448.647-.365.458-1.942-2.909.364-.457 3.289 1.222zm-1.663-.028l-1.202-.476.735 1.061.467-.585zM97.553 93.931l.343-.43 1.411 1.125c.22.175.366.283.441.326a.56.56 0 0 0 .376.076.53.53 0 0 0 .319-.209c.08-.1.122-.199.129-.297a.428.428 0 0 0-.082-.277c-.061-.086-.221-.232-.48-.439l-1.441-1.149.344-.43 1.368 1.091c.351.278.587.499.714.66.125.162.185.346.177.554s-.098.419-.269.634c-.178.223-.355.365-.535.426s-.364.063-.555.003c-.189-.06-.48-.245-.87-.556l-1.39-1.108zM100.943 93.281l.286-.46c.371.218.661.196.87-.067.104-.13.152-.26.144-.389a.422.422 0 0 0-.346-.396.379.379 0 0 0-.197.038 4.723 4.723 0 0 0-.443.281c-.202.139-.369.225-.502.259a.886.886 0 0 1-.419-.001c-.146-.034-.28-.1-.402-.197a.971.971 0 0 1-.306-.402.818.818 0 0 1-.045-.473c.033-.16.116-.324.249-.491.2-.251.426-.394.674-.426.249-.032.503.049.764.242l-.322.45c-.155-.092-.285-.129-.391-.111a.495.495 0 0 0-.297.202.553.553 0 0 0-.142.327.277.277 0 0 0 .105.238c.071.057.153.075.246.057.094-.019.252-.107.474-.266.236-.167.427-.271.573-.312a.857.857 0 0 1 .444-.008c.15.037.304.117.46.242.227.18.36.401.403.664.043.262-.054.541-.29.837-.416.524-.946.578-1.59.162zM103.467 91.858l-2.605-2.077 1.265-1.585.441.352-.922 1.155.578.46.855-1.073.438.35-.856 1.074.709.564.952-1.194.44.351-1.295 1.623z"/></g><path fill="#333" d="M89.292 132.913l.139-.813c.646-.343 1.146-.742 1.497-1.197h.452l-.805 4.682h-.75l.556-3.225c-.152.121-.331.231-.535.333s-.389.176-.554.22zM118.95 132.383l-.733-.134c.063-.444.204-.777.422-1.001.219-.223.486-.335.804-.335.343 0 .618.113.828.34s.314.53.314.911c0 .296-.077.585-.231.866-.115.207-.348.511-.699.911-.319.359-.537.63-.653.813h1.323l-.143.831h-2.316c.037-.345.147-.674.33-.987.122-.211.409-.578.859-1.101.328-.381.538-.646.629-.794.118-.198.178-.381.178-.546s-.039-.294-.116-.389a.355.355 0 0 0-.284-.142c-.261.001-.432.253-.512.757zM148.436 134.369l.714-.104c.029.248.083.419.161.515a.386.386 0 0 0 .312.143.523.523 0 0 0 .416-.205c.114-.136.171-.315.171-.538 0-.2-.047-.354-.141-.461a.459.459 0 0 0-.363-.161.654.654 0 0 0-.118.013l.13-.758.076.006c.195 0 .346-.06.451-.179.105-.12.158-.29.158-.51 0-.154-.035-.274-.107-.358a.338.338 0 0 0-.271-.127c-.234 0-.397.212-.49.638l-.683-.165c.094-.368.228-.646.403-.835a1.09 1.09 0 0 1 .825-.368c.317 0 .575.109.772.329.198.219.297.514.297.884 0 .249-.06.471-.179.663-.12.192-.278.332-.475.419.15.098.267.226.349.386.083.159.124.339.124.538 0 .366-.113.699-.34.999-.269.355-.607.533-1.016.533a1.05 1.05 0 0 1-.787-.328c-.21-.221-.341-.543-.389-.969zM90.308 154.136h-1.499l.13-.762 2.066-2.941h.642l-.502 2.929h.463l-.133.774h-.463l-.163.949h-.704l.163-.949zm.133-.774l.25-1.45-1.006 1.45h.756zM117.883 153.752l.727-.079-.003.095c0 .218.04.381.12.487.08.107.181.16.301.16.178 0 .339-.103.484-.308s.218-.491.218-.856c0-.221-.041-.385-.123-.492a.38.38 0 0 0-.316-.162.548.548 0 0 0-.286.082.98.98 0 0 0-.265.251l-.615-.057.58-2.378h1.921l-.143.832h-1.268l-.172.718c.072-.04.145-.07.218-.091a.881.881 0 0 1 .929.323c.19.234.286.558.286.968 0 .355-.072.688-.217.997-.146.309-.33.54-.555.693a1.225 1.225 0 0 1-.701.229c-.317 0-.583-.126-.797-.378-.212-.25-.321-.595-.323-1.034zM151.229 151.569l-.699.069c-.015-.186-.051-.315-.109-.389a.285.285 0 0 0-.232-.109c-.15 0-.282.087-.396.259-.113.173-.207.432-.281.776a.804.804 0 0 1 .511-.193c.29 0 .532.12.726.361.193.24.29.577.29 1.008 0 .488-.125.913-.376 1.273-.25.36-.568.54-.953.54a.928.928 0 0 1-.566-.186c-.169-.123-.302-.311-.4-.562-.099-.25-.147-.591-.147-1.022 0-.875.157-1.591.473-2.147.315-.556.708-.834 1.178-.834.277 0 .502.094.673.282s.272.48.308.874zm-1.914 2.146c0 .247.039.429.119.544.079.115.178.172.297.172.146 0 .271-.083.374-.25.14-.222.21-.518.21-.887 0-.243-.04-.422-.118-.537s-.173-.173-.285-.173a.428.428 0 0 0-.271.115c-.092.077-.169.208-.231.392s-.095.392-.095.624zM89.215 170.962l.143-.842h2.517l-.111.648c-.131.129-.27.305-.415.526-.21.319-.389.645-.537.975-.205.461-.366.882-.482 1.263-.16.531-.261.924-.301 1.178h-.711c.042-.309.141-.709.295-1.199.154-.491.333-.945.536-1.363s.436-.813.698-1.186h-1.632zM118.686 172.146a1.095 1.095 0 0 1-.302-.371 1.066 1.066 0 0 1-.102-.469c0-.23.055-.446.164-.648.108-.201.253-.355.432-.461s.379-.158.602-.158c.323 0 .585.103.783.309.199.206.299.481.299.826 0 .234-.054.438-.161.613a1.21 1.21 0 0 1-.486.43c.156.116.273.257.351.423s.116.356.116.57c0 .385-.108.727-.323 1.024-.267.371-.615.556-1.046.556-.326 0-.594-.117-.804-.353-.211-.234-.315-.547-.315-.936 0-.319.072-.602.217-.845a1.18 1.18 0 0 1 .575-.51zm-.048 1.371c0 .18.04.318.12.414.08.097.181.145.303.145.181 0 .325-.099.434-.297.108-.197.163-.428.163-.69a.584.584 0 0 0-.123-.39.38.38 0 0 0-.303-.146c-.154 0-.291.087-.412.26-.121.173-.182.408-.182.704zm.33-2.15a.53.53 0 0 0 .113.356.357.357 0 0 0 .281.131c.129 0 .245-.061.349-.181s.155-.266.155-.437c0-.154-.037-.276-.112-.367s-.17-.136-.284-.136c-.133 0-.25.06-.351.179s-.151.271-.151.455zM148.503 173.638l.698-.07c.015.184.051.313.109.386s.138.109.237.109c.15 0 .283-.086.396-.259.113-.172.207-.43.281-.772a.82.82 0 0 1-.512.19c-.29 0-.532-.12-.727-.36s-.291-.576-.291-1.008c0-.482.124-.905.372-1.27s.57-.546.969-.546c.208 0 .395.061.56.183.165.121.297.309.396.562s.147.594.147 1.023c0 .881-.157 1.598-.473 2.152-.316.554-.709.831-1.18.831a.882.882 0 0 1-.686-.298c-.176-.199-.276-.483-.296-.853zm1.919-2.152c0-.245-.04-.426-.119-.541-.08-.115-.179-.173-.298-.173-.146 0-.272.083-.379.251-.138.222-.207.519-.207.892 0 .241.039.419.116.534s.173.174.285.174a.43.43 0 0 0 .275-.118c.092-.078.17-.209.232-.394a1.9 1.9 0 0 0 .095-.625zM89.728 193.38l-.688-.597.833-1.063-1.117-.316.258-.957 1.031.618-.119-1.418h.801l-.123 1.418 1.096-.585.241.95-1.117.29.773 1.063-.655.597-.602-1.241-.612 1.241zM117.883 192.572c0-.602.096-1.176.287-1.726.191-.549.419-.938.681-1.169a.99.99 0 0 1 .673-.264c.307 0 .561.136.761.408.199.271.3.67.3 1.194 0 .602-.095 1.176-.284 1.724s-.415.938-.678 1.168a.997.997 0 0 1-.676.257c-.303 0-.556-.134-.759-.403-.203-.268-.305-.665-.305-1.189zm.734.183c0 .25.033.426.1.527s.152.152.256.152c.131 0 .25-.073.358-.219.142-.197.265-.573.37-1.129.104-.556.156-.984.156-1.287 0-.232-.033-.4-.102-.503-.067-.103-.153-.153-.257-.153-.125 0-.237.071-.339.215-.161.227-.298.643-.41 1.248a6.6 6.6 0 0 0-.132 1.149zM148.556 192.927h-.346v-.701h.463l.157-.934h-.62v-.701h.737l.208-1.238h.584l-.207 1.238h.576l.205-1.238h.601l-.21 1.238h.362v.701h-.481l-.158.934h.64v.701h-.759l-.21 1.234h-.581l.204-1.234h-.578l-.206 1.234h-.588l.207-1.234zm.86-1.635l-.155.934h.577l.155-.934h-.577z"/><g><path fill="#CCCEC6" d="M148.908 89.558l.492-.466c.358.279.579.565.665.861.085.295.055.594-.089.897a1.259 1.259 0 0 1-.88.718c-.469.111-.991.03-1.567-.243-.608-.289-1.02-.652-1.233-1.09-.185-.381-.181-.772.01-1.175.156-.328.397-.55.728-.664.232-.082.523-.085.871-.01l-.106.665a.883.883 0 0 0-.551.012.622.622 0 0 0-.341.32.693.693 0 0 0 .031.664c.123.226.401.441.834.647.45.213.801.298 1.054.255.253-.042.431-.17.531-.383a.6.6 0 0 0 .012-.49c-.069-.169-.222-.343-.461-.518z"/></g><g><path fill="#CCCEC6" d="M159.504 72.996l.557-1.171c.151-.32.288-.532.408-.633a.823.823 0 0 1 .465-.183c.19-.019.379.016.565.104.172.082.309.194.411.336a.826.826 0 0 1 .166.444.872.872 0 0 1 .511-.256c.195-.027.399.009.614.112.26.123.449.29.569.5.12.209.161.41.121.6-.027.133-.142.415-.347.846l-.473.996-3.567-1.695zm.873-.307l.825.392.186-.389c.11-.234.175-.38.192-.439a.402.402 0 0 0-.016-.297.463.463 0 0 0-.24-.218.467.467 0 0 0-.289-.052.317.317 0 0 0-.203.109c-.047.059-.146.243-.293.555l-.162.339zm1.419.674l.952.452.261-.548c.114-.241.175-.401.182-.481.009-.08-.015-.161-.066-.242s-.134-.149-.246-.202a.576.576 0 0 0-.325-.063.415.415 0 0 0-.248.124c-.068.069-.161.23-.281.483l-.229.477z"/></g><g><path fill="#CCCEC6" d="M180.549 56.568l-.304.64-.93-.127-.556 1.171.692.626-.298.628-3.026-2.833.297-.626 4.125.521zm-1.926.416l-1.516-.225 1.136 1.025.38-.8z"/></g></g><g fill="#585858"><path d="M108.063 46.152h1.174v5.693h-1.174zM107.16 46.213c.033.831-.071 2.598-.697 3.344-.641.763-1.417 1.194-2.372 1.317l-.063.008v.968l.082-.006c1.181-.082 2.623-.829 3.151-1.63.505-.767.593-1.366.593-4.003v-.06h-.696l.002.062zM113.208 50.874c-.955-.123-1.73-.554-2.372-1.317-.627-.745-.73-2.513-.697-3.344l.002-.062h-.696v.06c0 2.637.089 3.236.593 4.003.527.801 1.97 1.548 3.151 1.63l.082.006v-.968l-.063-.008z"/><path fill-rule="evenodd" clip-rule="evenodd" d="M133.912 51.935v-5.723h-1.081v5.723h1.081zM118.316 46.212v.857h1.5v4.866h1.08v-4.866h1.5v-.857h-4.08zM128.776 47.331v4.604h-1.081v-4.867c0-.595.296-.857 1.063-.857h1.168c.872 0 1.935.525 1.935 1.673 0 1.147-.802 1.438-1.22 1.618-.244.138-.192.249-.087.429l1.691 2.005-1.264-.007-1.656-1.977c-.305-.394-.166-.809.166-.947.249-.104 1.29-.332 1.29-1.065 0-.705-.54-.871-.959-.871h-.732c-.21 0-.314.069-.314.262zM125.289 46.778c-.192-.525-.593-.567-.872-.567s-.68.041-.872.567l-1.83 5.157h1.116l.506-1.438h2.162l.506 1.438h1.116l-1.832-5.157zm-1.656 2.89l.784-2.171.784 2.171h-1.568zM117.247 46.778c-.192-.525-.593-.567-.872-.567s-.68.041-.872.567l-1.83 5.157h1.116l.506-1.438h2.162l.506 1.438h1.116l-1.832-5.157zm-1.656 2.89l.784-2.171.784 2.171h-1.568z"/></g><g fill="#313131" stroke="#0C0C0C" stroke-width=".1" stroke-miterlimit="10"><path d="M108.063 45.652h1.174v5.693h-1.174zM107.16 45.713c.033.831-.071 2.598-.697 3.344-.641.763-1.417 1.194-2.372 1.317l-.063.008v.968l.082-.006c1.181-.082 2.623-.829 3.151-1.63.505-.767.593-1.366.593-4.003v-.06h-.696l.002.062zM113.208 50.374c-.955-.123-1.73-.554-2.372-1.317-.627-.745-.73-2.513-.697-3.344l.002-.062h-.696v.06c0 2.637.089 3.236.593 4.003.527.801 1.97 1.548 3.151 1.63l.082.006v-.968l-.063-.008z"/><path fill-rule="evenodd" clip-rule="evenodd" d="M133.912 51.435v-5.723h-1.081v5.723h1.081zM118.316 45.712v.857h1.5v4.866h1.08v-4.866h1.5v-.857h-4.08zM128.776 46.831v4.604h-1.081v-4.867c0-.595.296-.857 1.063-.857h1.168c.872 0 1.935.525 1.935 1.673 0 1.147-.802 1.438-1.22 1.618-.244.138-.192.249-.087.429l1.691 2.005-1.264-.007-1.656-1.977c-.305-.394-.166-.809.166-.947.249-.104 1.29-.332 1.29-1.065 0-.705-.54-.871-.959-.871h-.732c-.21 0-.314.069-.314.262zM125.289 46.278c-.192-.525-.593-.567-.872-.567s-.68.041-.872.567l-1.83 5.157h1.116l.506-1.438h2.162l.506 1.438h1.116l-1.832-5.157zm-1.656 2.89l.784-2.171.784 2.171h-1.568zM117.247 46.278c-.192-.525-.593-.567-.872-.567s-.68.041-.872.567l-1.83 5.157h1.116l.506-1.438h2.162l.506 1.438h1.116l-1.832-5.157zm-1.656 2.89l.784-2.171.784 2.171h-1.568z"/></g><path fill="none" stroke="#211E1E" stroke-width="5.5" stroke-miterlimit="10" d="M118.695 22.689c.112-1.456.637-9.98-5.405-15.542-4.853-4.468-11.102-4.411-11.762-4.395-14.381.346-18.806 20.23-33.667 21.833-5.515.595-10.228-1.569-13-3.167"/><path fill="#202020" d="M124.48 39.022a1.438 1.438 0 0 1-.676 1.305c-1.228.764-3.721 2.201-5.11 2.201s-3.882-1.437-5.11-2.201a1.438 1.438 0 0 1-.676-1.305l.932-16.386a1.439 1.439 0 0 1 1.069-1.311c.875-.232 2.24-.508 3.785-.508s2.91.276 3.785.508a1.44 1.44 0 0 1 1.069 1.311l.932 16.386z"/><linearGradient id="n" gradientUnits="userSpaceOnUse" x1="112.528" y1="38.586" x2="124.861" y2="38.586"><stop offset="0" stop-color="#1b1e21"/><stop offset=".5" stop-color="#4a4a4d"/><stop offset="1" stop-color="#1b1e21"/></linearGradient><path fill="url(#n)" d="M124.861 41.254a.623.623 0 0 1-.486.61c-1.158.261-2.264.888-5.68.888s-4.523-.626-5.68-.888a.624.624 0 0 1-.486-.61v-5.802c0-.311.225-.573.532-.619.958-.143 3.109-.414 5.635-.414s4.677.271 5.635.414a.624.624 0 0 1 .532.619v5.802z"/><linearGradient id="o" gradientUnits="userSpaceOnUse" x1="112.88" y1="32.436" x2="124.51" y2="32.436"><stop offset="0" stop-color="#1b1e21"/><stop offset=".5" stop-color="#4a4a4d"/><stop offset="1" stop-color="#1b1e21"/></linearGradient><path fill="url(#o)" d="M124.509 33.479a.284.284 0 0 1-.331.295c-.86-.146-3.177-.497-5.484-.497s-4.624.352-5.484.497a.284.284 0 0 1-.331-.295l.085-1.623a.284.284 0 0 1 .235-.265c.717-.125 3.06-.497 5.494-.497s4.777.372 5.494.497a.283.283 0 0 1 .235.265l.087 1.623z"/><linearGradient id="p" gradientUnits="userSpaceOnUse" x1="113.057" y1="29.187" x2="124.333" y2="29.187"><stop offset="0" stop-color="#1b1e21"/><stop offset=".5" stop-color="#4a4a4d"/><stop offset="1" stop-color="#1b1e21"/></linearGradient><path fill="url(#p)" d="M124.332 30.15a.283.283 0 0 1-.328.295c-.84-.138-3.079-.466-5.309-.466s-4.469.329-5.309.466a.283.283 0 0 1-.328-.295l.079-1.493a.282.282 0 0 1 .236-.265c.704-.119 2.969-.467 5.323-.467s4.619.348 5.323.467a.283.283 0 0 1 .236.265l.077 1.493z"/><linearGradient id="q" gradientUnits="userSpaceOnUse" x1="113.25" y1="25.938" x2="124.14" y2="25.938"><stop offset="0" stop-color="#1b1e21"/><stop offset=".5" stop-color="#4a4a4d"/><stop offset="1" stop-color="#1b1e21"/></linearGradient><path fill="url(#q)" d="M124.139 26.817a.282.282 0 0 1-.326.295c-.819-.129-2.972-.434-5.118-.434s-4.3.304-5.118.434a.282.282 0 0 1-.326-.295l.071-1.356a.28.28 0 0 1 .234-.265c.687-.112 2.87-.435 5.139-.435s4.452.323 5.139.435a.279.279 0 0 1 .234.265l.071 1.356z"/><linearGradient id="r" gradientUnits="userSpaceOnUse" x1="113.405" y1="22.689" x2="123.984" y2="22.689"><stop offset="0" stop-color="#1b1e21"/><stop offset=".5" stop-color="#4a4a4d"/><stop offset="1" stop-color="#1b1e21"/></linearGradient><path fill="url(#r)" d="M123.984 23.502a.283.283 0 0 1-.324.296c-.801-.123-2.887-.408-4.965-.408s-4.163.285-4.965.408a.282.282 0 0 1-.324-.296l.066-1.249a.28.28 0 0 1 .235-.265c.676-.107 2.79-.41 4.988-.41s4.312.303 4.988.41a.28.28 0 0 1 .235.265l.066 1.249z"/></svg>