<svg enable-background="new -77 111 725 333" viewBox="-77 111 725 333" xmlns="http://www.w3.org/2000/svg" xmlns:xlink="http://www.w3.org/1999/xlink"><linearGradient id="a" gradientTransform="matrix(-66.8824 -66.8824 66.8824 -66.8824 -28951.0527 -10029.9941)" gradientUnits="userSpaceOnUse" x1="-294.664" x2="-293.664" y1="139.9181" y2="139.9181"><stop offset="0" stop-color="#a6a8ab"/><stop offset="1" stop-color="#e6e7e8"/></linearGradient><mask id="b" height="94.2" maskUnits="userSpaceOnUse" width="94.2" x="34.2" y="239.5"><path d="m111330.2 112224v-223586.2h-223586.2v223586.2z" fill="url(#c)"/></mask><linearGradient id="c" gradientTransform="matrix(-135.3233 -135.3233 -135.3233 135.3233 -23555.0215 -56691.2109)" gradientUnits="userSpaceOnUse" x1="-1122.4987" x2="529.7386" y1="125.7358" y2="125.7358"><stop offset="0" stop-color="#fff" stop-opacity="0"/><stop offset=".2075" stop-color="#fff"/><stop offset=".5" stop-color="#fff"/><stop offset=".7925" stop-color="#fff"/><stop offset="1" stop-color="#fff" stop-opacity="0"/></linearGradient><linearGradient id="d" gradientTransform="matrix(-1 0 0 -1 162.5599 575.8588)" gradientUnits="userSpaceOnUse" x1="34.1984" x2="128.3615" y1="289.2941" y2="289.2941"><stop offset="0" stop-color="#231f20"/><stop offset=".2075" stop-color="#231f20"/><stop offset=".5" stop-color="#231f20"/><stop offset=".7925" stop-color="#231f20"/><stop offset="1" stop-color="#231f20"/></linearGradient><mask id="e" height="94.2" maskUnits="userSpaceOnUse" width="94.2" x="34.2" y="239.5"><path d="m111330.2 112224v-223586.2h-223586.2v223586.2z" fill="url(#f)"/></mask><linearGradient id="f" gradientTransform="matrix(135.3233 135.3233 135.3233 -135.3233 22319.666 59010.1758)" gradientUnits="userSpaceOnUse" x1="-1126.739" x2="525.4984" y1="132.2638" y2="132.2638"><stop offset="0" stop-color="#fff" stop-opacity="0"/><stop offset=".5" stop-color="#fff"/><stop offset="1" stop-color="#fff" stop-opacity="0"/></linearGradient><linearGradient id="g" gradientTransform="matrix(-1 0 0 -1 162.5599 575.8588)" gradientUnits="userSpaceOnUse" x1="34.1984" x2="128.3615" y1="289.2941" y2="289.2941"><stop offset="0" stop-color="#fff"/><stop offset=".5" stop-color="#fff"/><stop offset="1" stop-color="#fff"/></linearGradient><path d="m221.2 286.2c0 77.1-62.4 139.9-139.9 139.9-77.1 0-139.9-62.4-139.9-139.9s62.4-139.9 139.9-139.9c77.1.4 139.9 62.8 139.9 139.9" fill="#231f20"/><path d="m210.9 286.2-27.3-28.3v14h-31.4v29h31.4v14c-.3 0 27.3-28.7 27.3-28.7zm-38.2-91.4-39.6-.7 9.9 9.9-22.2 22.2 20.5 20.5 22.2-22.2 9.9 9.9s-.7-39.6-.7-39.6zm-91.4-37.9-28.3 27.3h14v31.4h29v-31.4h14zm-91.5 37.9-.7 39.6 9.9-9.9 22.2 22.2 20.5-20.5-22.2-22.2 9.9-9.9zm-38.2 91.4 27.3 28.3v-14h31.7v-29h-31.4v-14zm38.2 91.8 39.6.7-9.9-9.9 22.2-22.2-20.5-20.5-22.2 22.2-9.9-9.9c.1 0 .7 39.6.7 39.6zm91.5 37.9 28.3-27.3h-14v-31.4h-29v31.4h-14c.4 0 28.7 27.3 28.7 27.3zm91.4-37.9.7-39.6-9.9 9.9-22.2-22.2-20.5 20.5 22.2 22.2-9.9 9.9c.4 0 39.6-.7 39.6-.7z" fill="#84849b" opacity=".1"/><path d="m221.2 287.9c-.7 76.4-63.1 138.2-139.9 138.2s-138.9-61.7-139.9-138.2v1.7c0 77.1 62.4 139.9 139.9 139.9 77.1 0 139.9-62.4 139.9-139.9 0-.6 0-1 0-1.7" fill="#6d6e70"/><path d="m81.3 333.6c26.3 0 47.4-21.2 47.4-47.4s-21.2-47.4-47.4-47.4-47.4 21.2-47.4 47.4c0 26.3 21.1 47.4 47.4 47.4" fill="url(#a)"/><path d="m43.4 248.7h75.4v75.4h-75.4z" fill="none"/><path d="m118.8 286.6c0 20.8-16.7 37.5-37.5 37.5s-37.5-16.7-37.5-37.5 16.7-37.6 37.5-37.6 37.5 16.8 37.5 37.6" fill="#231f20" opacity=".3"/><path d="m80.9 331.3c-24.9 0-45-20.1-45-45s20.1-45 45-45 45 20.1 45 45c.1 24.5-20.1 45-45 45m.4-91.8c-25.9 0-47.1 21.2-47.1 47.1s21.2 47.1 47.1 47.1 47.1-21.2 47.1-47.1-20.8-47.1-47.1-47.1" fill="none"/><path d="m80.9 331.3c-24.9 0-45-20.1-45-45s20.1-45 45-45 45 20.1 45 45c.1 24.5-20.1 45-45 45m.4-91.8c-25.9 0-47.1 21.2-47.1 47.1s21.2 47.1 47.1 47.1 47.1-21.2 47.1-47.1-20.8-47.1-47.1-47.1" fill="url(#d)" mask="url(#b)" opacity=".15"/><path d="m82 241.9c24.9 0 45 20.1 45 45s-20.1 45-45 45-45-20.1-45-45c-.1-24.6 20.1-45 45-45m-.7 91.7c25.9 0 47.1-21.2 47.1-47.1s-21.2-47.1-47.1-47.1-47.1 21.2-47.1 47.1c0 26 21.2 47.1 47.1 47.1" fill="none"/><path d="m82 241.9c24.9 0 45 20.1 45 45s-20.1 45-45 45-45-20.1-45-45c-.1-24.6 20.1-45 45-45m-.7 91.7c25.9 0 47.1-21.2 47.1-47.1s-21.2-47.1-47.1-47.1-47.1 21.2-47.1 47.1c0 26 21.2 47.1 47.1 47.1" fill="url(#g)" mask="url(#e)" opacity=".4"/><g fill="none"><path d="m405.4 284.2h89v89h-89z"/><path d="m406.4 285.2h86.7v86.7h-86.7z"/><path d="m394.1 272.9h111.6v111.6h-111.6z"/></g><path d="m504.3 284.2c0 31-24.9 56-56 56s-56-24.9-56-56 24.9-56 56-56 56 24.9 56 56" fill="#cf8a61"/><path d="m404 239.5h89v89h-89z" fill="none"/><path d="m493.1 284.2c0 24.6-19.8 44.7-44.7 44.7-24.6 0-44.7-19.8-44.7-44.7s20.1-44.7 44.7-44.7c24.9 0 44.7 20.1 44.7 44.7" fill="#cf8a61" opacity=".3"/><path d="m492 284.2c0 23.9-19.4 43.3-43.3 43.3s-43.3-19.4-43.3-43.3 19.4-43.3 43.3-43.3c23.9-.1 43.3 19.4 43.3 43.3" fill="#cf8a61"/><path d="m492 284.2c0 23.9-19.4 43.3-43.3 43.3s-43.3-19.4-43.3-43.3 19.4-43.3 43.3-43.3c23.9-.1 43.3 19.4 43.3 43.3" fill="#cf8a61"/><path d="m405.4 240.8h86.7v86.7h-86.7z" fill="none"/><path d="m448 325.1c-22.9 0-41.6-18.4-41.6-41.6s18.4-41.6 41.6-41.6c22.9 0 41.6 18.4 41.6 41.6s-18.7 41.6-41.6 41.6m.7-84.3c-23.9 0-43.3 19.4-43.3 43.3s19.4 43.3 43.3 43.3 43.3-19.4 43.3-43.3c0-23.8-19.4-43.3-43.3-43.3" fill="#cf8a61" opacity=".2"/><path d="m392.8 228.2h111.6v111.6h-111.6z" fill="none"/><path d="m448 337.1c-29.3 0-53.2-23.9-53.2-53.2s23.9-53.2 53.2-53.2 53.2 23.9 53.2 53.2-23.8 53.2-53.2 53.2m.7-108.5c-30.7 0-55.6 24.9-55.6 55.6s24.9 55.6 55.6 55.6 55.6-24.9 55.6-55.6-24.9-55.6-55.6-55.6" fill="#cf8a61" opacity=".15"/><path d="m386.6 328.5c0 31-24.9 56-56 56s-56-24.9-56-56 24.9-56 56-56 56 25 56 56" fill="#cf8a61"/><path d="m286 284.2h89v89h-89z" fill="none"/><path d="m375 328.5c0 24.6-19.8 44.7-44.7 44.7-24.6 0-44.7-19.8-44.7-44.7 0-24.6 19.8-44.7 44.7-44.7s44.7 20.2 44.7 44.7" fill="#cf8a61" opacity=".3"/><path d="m374 328.5c0 23.9-19.4 43.3-43.3 43.3s-43.3-19.4-43.3-43.3 19.4-43.3 43.3-43.3 43.3 19.4 43.3 43.3" fill="#cf8a61"/><path d="m374 328.5c0 23.9-19.4 43.3-43.3 43.3s-43.3-19.4-43.3-43.3 19.4-43.3 43.3-43.3 43.3 19.4 43.3 43.3" fill="#cf8a61"/><path d="m287.3 285.2h86.7v86.7h-86.7z" fill="none"/><path d="m330 369.5c-22.9 0-41.6-18.4-41.6-41.6s18.4-41.6 41.6-41.6c22.9 0 41.6 18.4 41.6 41.6s-18.4 41.6-41.6 41.6m.7-84.3c-23.9 0-43.3 19.4-43.3 43.3s19.4 43.3 43.3 43.3 43.3-19.4 43.3-43.3-19.4-43.3-43.3-43.3" fill="#cf8a61" opacity=".2"/><path d="m274.7 272.9h111.6v111.6h-111.6z" fill="none"/><path d="m330 381.4c-29.3 0-53.2-23.9-53.2-53.2s23.9-53.2 53.2-53.2 53.2 23.9 53.2 53.2-23.9 53.2-53.2 53.2m.7-108.5c-30.7 0-55.6 24.9-55.6 55.6s24.9 56 55.6 56 55.6-24.9 55.6-55.6-24.9-56-55.6-56" fill="#cf8a61" opacity=".15"/><path d="m623.7 328.5c0 31-24.9 56-56 56-31 0-56-24.9-56-56s24.9-56 56-56 56 25.3 56 56" fill="#cf8a61"/><path d="m523.1 284.2h89v89h-89z" fill="none"/><path d="m612.1 328.5c0 24.6-19.8 44.7-44.7 44.7-24.6 0-44.7-19.8-44.7-44.7 0-24.6 19.8-44.7 44.7-44.7 25 .4 44.7 20.2 44.7 44.7" fill="#cf8a61" opacity=".3"/><path d="m611.1 328.9c0 23.9-19.4 43.3-43.3 43.3s-43.3-19.4-43.3-43.3 19.4-43.3 43.3-43.3c23.9-.1 43.3 19.4 43.3 43.3" fill="#cf8a61"/><path d="m611.1 328.9c0 23.9-19.4 43.3-43.3 43.3s-43.3-19.4-43.3-43.3 19.4-43.3 43.3-43.3c23.9-.1 43.3 19.4 43.3 43.3" fill="#cf8a61"/><path d="m524.5 285.5h86.7v86.7h-86.7z" fill="none"/><path d="m567.4 369.8c-22.9 0-41.6-18.4-41.6-41.6s18.4-41.6 41.6-41.6 41.3 18.8 41.3 41.6-18.4 41.6-41.3 41.6m.4-84.3c-23.9 0-43.3 19.4-43.3 43.3s19.4 43.3 43.3 43.3 43.3-19.4 43.3-43.3c0-23.8-19.4-43.3-43.3-43.3" fill="#cf8a61" opacity=".2"/><path d="m511.8 272.9h111.6v111.6h-111.6z" fill="none"/><path d="m567.1 381.4c-29.3 0-53.2-23.9-53.2-53.2s23.9-53.2 53.2-53.2 53.2 23.9 53.2 53.2c.4 29.3-23.5 53.2-53.2 53.2m.7-108.5c-30.7 0-55.6 24.9-55.6 55.6s24.9 55.6 55.6 55.6 55.6-24.9 55.6-55.6-24.9-55.6-55.6-55.6" fill="#cf8a61"/><path d="m77.5 186.9c35.5-2.4 65.8 24.2 68.6 59.4 2.7 35.1-24.2 65.8-59.4 68.6-35.5 2.4-65.8-24.2-68.6-59.4s24.3-65.8 59.4-68.6" fill="#cf8a61"/></svg>