<svg viewBox="0 0 198.9 142.1" xmlns="http://www.w3.org/2000/svg"><path d="m19.9 21.8c3.5-14.1 13.8-17.8 26.8-13.6 13.1 4.2-26.4 13.6-26.8 13.6z" fill="#d0d0d0"/><path d="m19.9 21.8c1.5-6.4 4.5-10.8 8.8-13.2 2.4-1.3 5.1-2 8.2-2.1 3-.1 6.3.5 9.8 1.6 1.9.6 2.8 1.4 2.7 2.3-.4 2.4-8.3 5.4-14.9 7.4-7.2 2.3-14.4 4-14.6 4zm17.4-15.2c-3.2 0-6.1.7-8.5 2.1-4.3 2.4-7.3 6.8-8.8 13 .7-.1 7.5-1.7 14.6-3.9 9.4-2.9 14.5-5.5 14.8-7.4.1-.8-.7-1.6-2.6-2.2-3.5-1-6.6-1.6-9.5-1.6z"/><path d="m31.7 9.2h.7v4.5h2.1v.5h-2.8z" fill="#b7b7b7"/><path d="m179.9 21.8c-3.5-14.1-13.8-17.8-26.9-13.6-13 4.2 26.4 13.6 26.9 13.6z" fill="#d0d0d0"/><path d="m179.9 21.8c-.3 0-7.5-1.7-14.7-3.9-6.6-2.1-14.5-5-14.9-7.4-.1-.9.7-1.7 2.7-2.3 3.5-1.1 6.8-1.7 9.8-1.6 3.1.1 5.8.7 8.2 2.1 4.3 2.3 7.4 6.7 8.9 13.1zm-17.5-15.2c-2.9 0-6 .5-9.4 1.6-1.8.6-2.7 1.3-2.6 2.2.3 1.9 5.4 4.4 14.8 7.4 7 2.2 13.9 3.8 14.6 3.9-1.6-6.3-4.6-10.6-8.8-13-2.5-1.4-5.4-2.1-8.6-2.1z"/><path d="m164.8 9.4c.3-.1.8-.1 1.3-.1.7 0 1.1.1 1.5.4.2.2.4.6.4 1 0 .7-.4 1.1-1 1.3.4.1.6.5.7 1 .1.7.3 1.2.4 1.4h-.7c-.1-.1-.2-.6-.3-1.2-.1-.7-.4-1-1-1h-.6v2.2h-.7zm.6 2.3h.7c.7 0 1.1-.4 1.1-1 0-.7-.5-.9-1.2-.9-.3 0-.5 0-.6.1z" fill="#b7b7b7"/><path d="m198.8 53.4c2.6 35.9.5 61.3-5.1 75.7-8.2 21.1-21.9 12.7-26.6-.2-3.2-8.8-3.9-43.6-4.1-46.1s36-29.2 35.8-29.4z" fill="#3c3760"/><path d="m180.9 142c-2.8 0-5.6-1.4-8.1-3.9-2.4-2.3-4.4-5.6-5.7-9.2-2.7-7.5-3.6-33.3-4-43-.1-1.6-.1-2.7-.1-3.1-.1-1.9 19.5-16.9 30-24.9 3.3-2.5 5.6-4.3 5.8-4.5v-.1l.1.1c2.6 34.4.8 60.6-5.1 75.8-4.2 10.5-9.3 12.8-12.9 12.8zm17.9-88.5c-.3.3-1.7 1.4-5.7 4.5-9.8 7.5-30.1 23-30 24.9 0 .4.1 1.5.1 3.1.3 8.8 1.2 35.5 4 43 1.3 3.6 3.3 6.8 5.7 9.2 2.5 2.5 5.3 3.8 8 3.8h.1c3.5 0 8.6-2.2 12.7-12.8 5.8-15.2 7.6-41.4 5.1-75.7z"/><path d="m147.4 8.7c.6-1.2 1.8-1.1 5.1-1 8.5.3 21.8 6.1 25.3 8.9 2.3 1.8 2.6 3.1 1.6 5.5z" fill="#364ec6"/><path d="m21.3 21.1 24.7 58.6c18.8-10.6 41.8-14 54-14s35.1 3.4 54 14l24.8-58.6c-27.7-16-60.9-21-78.8-21-9.5 0-23.4 1.5-38.4 5.2-13.2 3.2-27.4 8.3-40.3 15.8z" fill="#463f6f"/><path d="m154.1 79.7c-19.7-11.1-43.3-14-54.1-14s-34.3 2.9-54 14v-.1l-24.8-58.6c11.7-6.7 25.3-12.1 40.5-15.8 13.2-3.3 27.2-5.2 38.4-5.2 10.4 0 23.4 1.6 35.8 4.5 7.5 1.7 14.8 3.9 21.6 6.5 7.7 2.9 14.9 6.3 21.5 10zm-132.8-58.6 24.7 58.5c8.4-4.7 18.5-8.5 29.5-11 8.5-1.9 17.5-3 24.6-3s16 1.1 24.5 3c10.9 2.5 21.1 6.3 29.5 11l24.7-58.5c-28.7-16.6-63-21-78.8-21-11.1 0-25.1 1.9-38.3 5.2-15.1 3.7-28.7 9-40.4 15.8z"/><path d="m71.2 69.4c19.3-5.2 36.7-6 54.5-.3l1-.6c-14.7-7.2-39-6.5-55.7.2zm-49.9-48.1 15.9-4.9c18.8-10.6 50.9-14 63.1-14s42.8 3.4 61.7 14l16.8 4.9c-27.7-16-60.9-21-78.8-21-9.5 0-23.4 1.5-38.4 5.2-13.2 3.3-27.4 8.4-40.3 15.8z" fill="#524c82"/><path d="m1.2 53.4c-2.7 35.9-.5 61.3 5.2 75.7 8.4 21.1 22.2 12.7 26.9-.2 3.3-8.8 4-43.6 4.1-46.1.2-2.5-36.4-29.2-36.2-29.4z" fill="#3c3760"/><path d="m19.3 142c-3.6 0-8.8-2.3-13-12.9-6-15.1-7.8-41.3-5.2-75.8l.1-.1v.1c.1.2 2.6 2 5.9 4.5 10.7 8 30.5 23 30.4 24.9 0 .4-.1 1.5-.1 3.1-.3 9.7-1.3 35.6-4 43-1.3 3.6-3.4 6.8-5.8 9.2-2.6 2.7-5.4 4-8.3 4 .1 0 .1 0 0 0zm-18.1-88.5c-2.6 34.4-.8 60.5 5.2 75.6 4.2 10.6 9.3 12.8 12.9 12.8h.1c2.7 0 5.5-1.4 8.1-3.8 2.4-2.3 4.4-5.6 5.8-9.2 2.8-7.5 3.7-34.2 4-43 .1-1.6.1-2.7.1-3.1.1-1.9-20.5-17.4-30.4-24.9-4-3.1-5.4-4.1-5.8-4.4z"/><path d="m180.1 84.3c-11.2 6.2-19.6 10.3-22.5 21.7-3 11.3-12.8 18.5-24.4 18.5-14 0-25.3-11.3-25.3-25.3 0-6.2 2.2-11.8 5.9-16.2s12.8-10.4 12.8-30.4 16.2-36.2 36.2-36.2 36.2 16.2 36.2 36.2c0 13.7-7.6 25.6-18.9 31.7z" fill="#4e477c"/><path d="m133.2 124.5c-14 0-25.4-11.4-25.4-25.4 0-5.9 2.1-11.7 5.9-16.2.5-.7 1.2-1.3 1.9-2.1 4.3-4.5 10.9-11.3 10.9-28.2 0-9.7 3.8-18.8 10.6-25.6s16-10.6 25.6-10.6 18.8 3.8 25.6 10.6 10.6 16 10.6 25.6c0 13.2-7.2 25.4-18.8 31.8-.4.2-.9.5-1.3.7-10.6 5.8-18.3 10-21.2 20.9-1.5 5.5-4.6 10.2-9 13.5-4.3 3.3-9.6 5-15.4 5zm29.6-108.1c-19.9 0-36.1 16.2-36.1 36.1 0 7.5-1.3 13.7-3.9 18.9-2.2 4.4-4.9 7.2-7 9.4-.7.8-1.4 1.5-1.9 2.1-3.8 4.5-5.9 10.3-5.9 16.2 0 13.9 11.3 25.3 25.3 25.3 11.8 0 21.4-7.3 24.3-18.5 1.3-5 3.8-9 7.7-12.4 3.6-3.2 8.2-5.7 13.5-8.5.4-.2.9-.5 1.3-.7 11.6-6.4 18.8-18.5 18.8-31.7 0-19.9-16.2-36.2-36.1-36.2z"/><path d="m19.5 84.3c11.2 6.2 19.6 10.4 22.5 21.7 3 11.3 12.8 18.5 24.4 18.5 14 0 25.3-11.3 25.3-25.3 0-6.2-2.2-11.8-5.9-16.2s-12.8-10.4-12.8-30.4-16.1-36.2-36.1-36.2-36.2 16.2-36.2 36.2c0 13.7 7.6 25.6 18.8 31.7z" fill="#4e477c"/><path d="m66.5 124.5c-5.7 0-11.1-1.7-15.5-5s-7.5-8-9-13.5c-2.9-10.9-10.5-15.1-21.2-20.9-.4-.2-.9-.5-1.3-.7-11.6-6.4-18.8-18.6-18.8-31.8 0-9.7 3.8-18.8 10.6-25.6s16-10.6 25.6-10.6 18.8 3.7 25.7 10.6 10.6 16 10.6 25.6c0 17 6.5 23.8 10.9 28.2.7.8 1.4 1.5 1.9 2.1 3.8 4.6 5.9 10.3 5.9 16.2-.1 14-11.5 25.4-25.4 25.4zm-29.6-108.1c-19.9 0-36.1 16.3-36.1 36.2 0 13.2 7.2 25.3 18.8 31.7.4.2.9.5 1.3.7 5.3 2.9 9.9 5.4 13.5 8.5 4 3.5 6.4 7.4 7.7 12.4 2.9 11.2 12.5 18.5 24.3 18.5 13.9 0 25.3-11.3 25.3-25.3 0-5.9-2.1-11.6-5.9-16.2-.5-.7-1.2-1.3-1.9-2.1-2.1-2.2-4.9-5-7-9.4-2.6-5.2-3.9-11.4-3.9-18.9.1-19.8-16.2-36.1-36.1-36.1z"/><path d="m61.2 52.6c0 13.4-10.9 24.3-24.3 24.3s-24.3-10.9-24.3-24.3 10.9-24.3 24.3-24.3 24.3 10.9 24.3 24.3z" fill="#524c82"/><path d="m83.5 99.2c0 9.4-7.7 17.1-17.1 17.1s-17.1-7.7-17.1-17.1 7.7-17.1 17.1-17.1c9.5 0 17.1 7.6 17.1 17.1z" fill="#44416d"/><path d="m141.4 52.6c0 12.2 9.9 22.1 22.1 22.1s22.1-9.9 22.1-22.1-9.9-22.1-22.1-22.1c-12.3 0-22.1 9.9-22.1 22.1z" fill="#524c82"/><path d="m151.5 52.6c0 6.6 5.3 11.9 11.9 11.9s11.9-5.3 11.9-11.9-5.3-11.9-11.9-11.9-11.9 5.3-11.9 11.9z"/><path d="m151.8 52.6c0 6.5 5.2 11.7 11.7 11.7s11.7-5.2 11.7-11.7-5.2-11.7-11.7-11.7-11.7 5.2-11.7 11.7z" fill="#42c7c3"/><path d="m105.2 53.5c0 2.6-2.1 4.8-4.8 4.8-2.6 0-4.8-2.1-4.8-4.8 0-2.6 2.1-4.8 4.8-4.8 2.6.1 4.8 2.2 4.8 4.8z"/><path d="m105.1 53.5c0 2.6-2.1 4.7-4.7 4.7s-4.7-2.1-4.7-4.7 2.1-4.7 4.7-4.7 4.7 2.1 4.7 4.7zm60.5-20.7c5.1-.1 4.5-6.6-.1-8.1-4.6-1.4-11.8-.3-15.2 3.5s-.3 9.4 3.3 7.6 6.9-2.8 12-3z" fill="#d3d3d3"/><path d="m152.2 36.3c-.9 0-1.8-.4-2.5-1.3-1.3-1.6-1.5-4.6.5-6.9 3.4-3.8 10.9-4.9 15.4-3.5 2.7.8 4 3.4 3.8 5.4-.2 1.8-1.6 2.9-3.7 3-4.8.1-8.1 1-12 2.9-.6.3-1 .4-1.5.4zm9-12c-4 0-8.4 1.3-10.8 4-1.9 2.1-1.7 4.9-.5 6.5 1 1.2 2.3 1.5 3.6.9 3.9-2 7.3-2.8 12.1-3 1.9-.1 3.2-1.1 3.4-2.7.3-1.9-1-4.3-3.5-5.1-1.3-.4-2.7-.6-4.3-.6z"/><path d="m51.4 52.6c0 8-6.5 14.5-14.5 14.5s-14.5-6.5-14.5-14.5 6.5-14.5 14.5-14.5 14.5 6.5 14.5 14.5z" fill="#ccc" stroke="#000" stroke-linecap="round" stroke-linejoin="round" stroke-width=".2977"/><g fill="none" stroke="#797979"><path d="m48.5 52.6c0 6.4-5.2 11.6-11.6 11.6s-11.6-5.2-11.6-11.6 5.2-11.6 11.6-11.6 11.6 5.2 11.6 11.6z" stroke-miterlimit="10" stroke-width=".2977"/><path d="m45.1 52.6c0 4.5-3.7 8.2-8.2 8.2s-8.2-3.7-8.2-8.2 3.7-8.2 8.2-8.2 8.2 3.7 8.2 8.2z" stroke-linecap="round" stroke-linejoin="round" stroke-width="2.6397"/><path d="m40.9 52.6c0 2.2-1.8 4-4 4s-4-1.8-4-4 1.8-4 4-4 4 1.8 4 4z" stroke-linecap="round" stroke-linejoin="round" stroke-width="4.4651"/></g><path d="m163.4 49.6-.9 3.1h1.7zm-.4-.8h1l1.8 6.1h-.9l-.4-1.6h-2.1l-.4 1.6h-1z" fill="#3faaa2"/><path d="m156.4 26.2h.9l1.5 2.7 1.5-2.7h.9l-1.9 3.4v2.7h-.8v-2.7z" fill="#b7b7b7"/><path d="m184 53.8c.2 5.1 6.7 4.4 8.1-.2s.1-11.9-3.7-15.2-9.4-.1-7.5 3.4c1.8 3.6 2.8 6.9 3.1 12z" fill="#d3d3d3"/><path d="m187.3 57.5c-.1 0-.3 0-.4 0-1.8-.2-2.9-1.6-3-3.7-.2-4.8-1.1-8.1-3.2-11.9-.7-1.4-.4-2.9.9-4 1.6-1.3 4.6-1.6 6.9.4 3.9 3.4 5.1 10.8 3.8 15.3-.8 2.6-3.1 3.9-5 3.9zm-2.6-20.3c-1.1 0-2.2.4-2.9 1-1.2 1-1.5 2.3-.8 3.6 2.1 3.8 2.9 7.2 3.2 12 .1 1.9 1.1 3.2 2.8 3.4 1.9.2 4.3-1.1 5-3.6 1.3-4.5.1-11.7-3.7-15-1.2-1-2.4-1.4-3.6-1.4z"/><path d="m185.5 44.1h.9l1.3 2.3 1.4-2.3h.9l-1.8 2.9 1.9 3.2h-.9l-1.5-2.6-1.6 2.6h-.9l2-3.2z" fill="#b7b7b7"/><path d="m62.9 85.3c-.6 0-1.1.4-1.1 1v8.3h-8.3c-.5 0-1 .5-1 1.1v7.1c0 .6.4 1.1 1 1.1h8.3v8.3c0 .5.5 1 1.1 1h7.1c.6 0 1.1-.4 1.1-1v-8.3h8.3c.5 0 1-.5 1-1.1v-7.1c0-.6-.4-1.1-1-1.1h-8.3v-8.3c0-.5-.5-1-1.1-1z" fill="#9e9e9e"/><path d="m70 113.4h-7.1c-.7 0-1.4-.6-1.4-1.3v-8h-8c-.7 0-1.3-.6-1.3-1.4v-7.1c0-.7.6-1.4 1.3-1.4h8v-8c0-.7.6-1.3 1.4-1.3h7.1c.8 0 1.4.6 1.4 1.3v8h8c.7 0 1.3.6 1.3 1.4v7.1c0 .7-.6 1.4-1.3 1.4h-8v8c0 .7-.6 1.3-1.4 1.3zm-16.5-18.6c-.4 0-.7.4-.7.8v7.1c0 .4.3.8.7.8h8.3c.2 0 .3.1.3.3v8.3c0 .4.4.7.8.7h7.1c.4 0 .8-.3.8-.7v-8.3c0-.2.1-.3.3-.3h8.3c.4 0 .7-.4.7-.8v-7.1c0-.4-.3-.8-.7-.8h-8.3c-.2 0-.3-.1-.3-.3v-8.3c0-.4-.4-.7-.8-.7h-7.1c-.4 0-.8.3-.8.7v8.3c0 .2-.1.3-.3.3z"/><path d="m70 86.2c0 .1.1.1 0 0l-7.1.1v8.2c0 .6-.5 1.1-1.1 1.1h-8.3c.1 0 .1-.1.1 0v7.1c0 .1 0 0-.1 0h8.3c.6 0 1.1.5 1.1 1.1v8.2h7.1c.1 0 0 0 0 .1v-8.3c0-.6.5-1.1 1.1-1.1h8.3c-.1 0-.1.1-.1 0v-7.1c0-.1 0 0 .1 0h-8.3c-.6 0-1.1-.5-1.1-1.1z" fill="#ccc"/><path d="m69.8 99.2c0 1.9-1.5 3.4-3.4 3.4s-3.4-1.5-3.4-3.4c0-1.8 1.5-3.4 3.4-3.4s3.4 1.5 3.4 3.4zm-3.4-11.8c-.1 0-.2.1-.3.2l-2.7 4.6c-.1.1-.1.3 0 .4s.2.2.3.2h5.4c.1 0 .3-.1.3-.2.1-.1.1-.3 0-.4l-2.7-4.6c0-.1-.1-.2-.3-.2zm0 23.5c-.1 0-.2-.1-.3-.2l-2.7-4.6c-.1-.1-.1-.3 0-.4s.2-.2.3-.2h5.4c.1 0 .3.1.3.2.1.1.1.3 0 .4l-2.7 4.6c0 .2-.1.2-.3.2zm11.8-11.7c0-.1-.1-.2-.2-.3l-4.6-2.7c-.1-.1-.3-.1-.4 0s-.2.2-.2.3v5.4c0 .1.1.3.2.3.1.1.3.1.4 0l4.6-2.7c.2-.1.2-.2.2-.3zm-23.5 0c0-.1.1-.2.2-.3l4.6-2.7c.1-.1.3-.1.4 0s.2.2.2.3v5.4c0 .1-.1.3-.2.3-.1.1-.3.1-.4 0l-4.6-2.7c-.2-.1-.3-.2-.2-.3z" fill="#808080"/><path d="m89.8 42v.4c-.1-.1-.2-.1-.3-.2-.1 0-.2-.1-.4-.1s-.3 0-.4.1-.1.2-.1.3 0 .2.1.3c0 .2.1.2.3.2h.2c.3.1.4.1.6.3.1.1.2.3.2.5 0 .3-.1.4-.2.6-.1.1-.4.2-.7.2-.1 0-.3 0-.4 0s-.3-.1-.4-.1v-.4c.1.1.3.1.4.2.1 0 .3.1.4.1.2 0 .3 0 .4-.1s.1-.2.1-.4 0-.2-.1-.3-.2-.1-.4-.2l-.2-.1c-.3-.1-.4-.1-.6-.3-.1-.1-.2-.3-.2-.5s.1-.4.2-.6c.2-.1.4-.2.7-.2h.3c.3.2.4.3.5.3m.5-.1h2.1v.3h-.9v2.4h-.4v-2.4h-.9zm3.3.4-.4 1.4h.8zm-.2-.4h.4l.8 2.7h-.4l-.1-.6h-1l-.2.7h-.4zm2.7 1.5c.1 0 .2.1.2.1.1.1.1.2.2.4l.4.7h-.4l-.2-.6c-.1-.2-.2-.3-.3-.4s-.2-.1-.3-.1h-.4v1.2h-.3v-2.7h.8c.3 0 .5.1.7.2.1.1.2.3.2.6 0 .2-.1.3-.1.4-.1.1-.3.2-.5.2m-.7-1.2v1h.4c.2 0 .3 0 .4-.1s.1-.2.1-.4-.1-.3-.1-.4c-.1-.1-.2-.1-.4-.1zm1.7-.3h2.1v.3h-.9v2.4h-.4v-2.4h-.9zm3.8 0h.4l-1.5 3.1h-.4zm1.4.3v1h.4c.2 0 .3-.1.4-.1.1-.1.1-.2.1-.4s-.1-.3-.1-.4c-.1-.1-.2-.1-.4-.1zm-.4-.3h.8c.3 0 .5.1.7.2.1.1.2.4.2.6 0 .3-.1.5-.2.6s-.4.2-.7.2h-.4v1.1h-.4zm3 .4-.4 1.4h.8zm-.2-.4h.4l.8 2.7h-.4l-.2-.7h-1l-.2.7h-.4zm1.6 1.7v-1.7h.4v2.2.1c0 .1.1.1.2.2.1 0 .2.1.3.1s.2 0 .3-.1c.1 0 .1-.1.2-.2v-.1-2.2h.4v1.7c0 .3 0 .5-.1.6 0 .1-.1.2-.2.3s-.2.1-.3.1-.2.1-.4.1c-.1 0-.2 0-.4-.1-.1 0-.2-.1-.3-.1-.1-.1-.1-.2-.2-.3.2-.1.1-.3.1-.6m3.9-1.6v.4c-.1-.1-.2-.1-.3-.2-.1 0-.2-.1-.4-.1s-.3 0-.4.1-.1.2-.1.3 0 .2.1.3.2.1.4.1h.2c.3.1.4.1.6.3.1.1.2.3.2.5 0 .3-.1.4-.2.6-.1.1-.4.2-.7.2-.1 0-.3 0-.4 0s-.3-.1-.4-.1v-.4c.1.1.3.1.4.2.1 0 .3.1.4.1.2 0 .3 0 .4-.1s.1-.2.1-.4 0-.2-.1-.3-.2-.1-.4-.2l-.2-.1c-.3-.1-.4-.1-.6-.3-.1-.1-.2-.3-.2-.5s.1-.4.2-.6c.2-.1.4-.2.7-.2h.3c.1.3.3.4.4.4m.8-.1h1.6v.3h-1.3v.8h1.2v.3h-1.2v1h1.3v.3h-1.6z" fill="#353156"/><path d="m68.7 99.2c0 1.2-1 2.2-2.2 2.2s-2.2-1-2.2-2.2 1-2.2 2.2-2.2 2.2.9 2.2 2.2z" fill="#6a6a6a"/><path d="m54.5 52.5-3.2 10.4-8.8 6.3-10.9.1-8.8-6.4-3.5-10.3 3.4-10.3 8.7-6.5h10.9l8.8 6.3z"/><path d="m54.1 52.5-3.2 10.2-8.6 6.2-10.6.1-8.6-6.3-3.4-10.1 3.3-10.1 8.5-6.3h10.7l8.7 6.2z" fill="#b0b2b2"/><path d="m49.7 52.6c0 7.1-5.7 12.8-12.8 12.8s-12.8-5.7-12.8-12.8 5.7-12.8 12.8-12.8 12.8 5.7 12.8 12.8z" fill="#ccc"/><path d="m49.1 52.6c0 6.7-5.4 12.2-12.2 12.2-6.7 0-12.2-5.4-12.2-12.2s5.4-12.2 12.2-12.2 12.2 5.4 12.2 12.2z" fill="#d8d8d8"/><path d="m47.2 52.6c0 5.7-4.6 10.3-10.3 10.3s-10.3-4.6-10.3-10.3 4.6-10.3 10.3-10.3 10.3 4.6 10.3 10.3z" fill="#ccc"/><path d="m46.5 52.6c0 5.3-4.3 9.6-9.6 9.6s-9.6-4.3-9.6-9.6 4.3-9.6 9.6-9.6 9.6 4.3 9.6 9.6z" fill="#d8d8d8"/><path d="m44.6 52.6c0 4.3-3.5 7.7-7.7 7.7-4.3 0-7.7-3.5-7.7-7.7s3.5-7.7 7.7-7.7c4.3 0 7.7 3.4 7.7 7.7z" fill="#ccc"/><path d="m43.4 52.6c0 3.5-2.9 6.4-6.4 6.4s-6.4-2.9-6.4-6.4 2.9-6.4 6.4-6.4 6.4 2.8 6.4 6.4z" fill="#d8d8d8"/><path d="m41.2 52.6c0 2.4-1.9 4.3-4.3 4.3s-4.3-1.9-4.3-4.3 1.9-4.3 4.3-4.3 4.3 1.9 4.3 4.3z" fill="#ccc"/><path d="m40 52.6c0 1.7-1.4 3.1-3.1 3.1s-3.1-1.4-3.1-3.1 1.4-3.1 3.1-3.1 3.1 1.4 3.1 3.1z" fill="#d8d8d8"/><path d="m151.5 98.9-3.2 10.4-8.8 6.3-10.9.1-8.8-6.4-3.4-10.3 3.4-10.3 8.7-6.5h10.9l8.8 6.3z"/><path d="m151.1 98.9-3.1 10.1-8.6 6.2-10.7.1-8.6-6.3-3.4-10 3.3-10.1 8.5-6.3h10.7l8.7 6.2z" fill="#ffd22d"/><path d="m124.4 99.2c0 5.3 4.3 9.6 9.5 9.6s9.6-4.3 9.6-9.5-4.3-9.6-9.5-9.6c-5.4-.1-9.6 4.2-9.6 9.5z"/><path d="m124.6 99.2c0 5.2 4.2 9.3 9.3 9.3 5.2 0 9.3-4.2 9.3-9.3 0-5.2-4.2-9.3-9.3-9.3-5.1-.1-9.3 4.1-9.3 9.3z" fill="#ffde32"/><path d="m135.8 101.8c-.2.1-.4.2-.7.2-.2.1-.4.1-.7.1-.8 0-1.4-.3-1.8-.8-.4-.6-.7-1.3-.7-2.3s.2-1.8.7-2.3 1-.8 1.8-.8c.2 0 .5 0 .7.1s.4.1.7.2v.8c-.2-.2-.4-.3-.7-.4-.2-.1-.5-.1-.7-.1-.5 0-.9.2-1.2.6s-.4 1-.4 1.9.1 1.5.4 1.9.7.6 1.2.6c.2 0 .5 0 .7-.1s.4-.2.7-.4z" fill="#e5bd13"/><path d="m134.3 64.5c0 4 3.2 7.2 7.2 7.2s7.2-3.2 7.2-7.2-3.2-7.2-7.2-7.2-7.2 3.2-7.2 7.2z"/><path d="m134.5 64.5c0 3.9 3.2 7 7 7 3.9 0 7-3.2 7-7 0-3.9-3.2-7-7-7-3.9 0-7 3.1-7 7z" fill="#ef1c35"/><path d="m140.4 64.6v2.2h1c.5 0 .8-.1 1-.2.2-.2.3-.4.3-.8s-.1-.7-.3-.9-.5-.3-1-.3zm0-2.5v1.9h1c.4 0 .7-.1.9-.2s.3-.4.3-.7-.1-.5-.3-.7c-.2-.1-.4-.2-.9-.2h-1m-.8-.7h1.8c.6 0 1.1.1 1.4.4s.5.7.5 1.1-.1.7-.3.9-.4.4-.8.4c.4.1.7.2.9.5s.3.6.3 1.1c0 .6-.2 1-.5 1.3-.4.3-.9.4-1.6.4h-1.8z" fill="#cc1b39"/><path d="m104.2 13v-.6h-1.8c-.2 0-.4.1-.6.1-.2.1-.4.2-.4.4-.1.1-.2.3-.2.5v1.9c0 .2.1.4.2.5s.3.3.4.4c.2.1.4.1.6.1h1.8v-.6h-1.7c-.1 0-.3 0-.4-.1s-.2-.2-.2-.3v-.7h2.3v-.6h-2.2v-.5c0-.1.1-.2.2-.3s.2-.1.4-.1zm4.6 3.4v-3.1l1.6 3.1h.8v-4h-.8v2.5l-1.3-2.5h-1v4zm6.3-4v4h1.9c.2 0 .4-.1.7-.1.2-.1.4-.2.5-.4s.2-.3.2-.5v-1.9c0-.2-.1-.4-.2-.5s-.3-.3-.5-.4-.4-.1-.7-.1h-1.9zm2.2.8c.1.1.2.2.2.3v1.9c0 .1-.1.2-.2.3s-.2.1-.4.1h-1.1v-2.8h1.1c.2 0 .3.1.4.2zm7.2-.7c-.2-.1-.4-.1-.7-.1h-.7c-.2 0-.4.1-.7.1-.2.1-.4.2-.5.4s-.2.3-.2.5v2c0 .2.1.4.2.5s.3.3.5.4.4.1.7.1h.7c.2 0 .4-.1.7-.1.2-.1.4-.2.5-.4s.2-.3.2-.5v-2c0-.2-.1-.4-.2-.5-.1-.2-.3-.3-.5-.4zm-.3.6c.1.1.2.2.2.3v1.9c0 .1-.1.2-.2.3s-.2.1-.4.1h-.7c-.1 0-.3-.1-.4-.1-.1-.1-.2-.2-.2-.3v-1.9c0-.1.1-.2.2-.3s.2-.1.4-.1h.7c.2 0 .3 0 .4.1zm1.9 5.8v-1.1h-5.5v5.2h5.5v-1.2h-4.1v-1h2.4v-1.1h-2.4v-.8zm-6.1 0c0-.4-.1-.6-.3-.8s-.5-.3-1-.3h-4.5v5.2h4.2c1.1 0 1.6-.4 1.6-1.1v-.6c0-.4-.2-.7-.6-.9.4-.2.5-.4.5-.8zm-1.4 0c.1.1.1.1.1.2v.5c0 .1 0 .1-.1.2l-.4.1h-2.6v-.9h2.6c.3-.2.4-.1.4-.1zm-2.9 2.9v-1h2.6c.2 0 .3 0 .4.1s.1.1.1.3v.4c0 .1 0 .2-.1.2-.1.1-.2.1-.4.1zm-2.1-4h-1.4v4h-3.1v-4h-1.4v3.9c0 .3 0 .6.1.8s.2.3.4.4.5.1.8.1h3.2c.4 0 .6 0 .8-.1s.4-.2.4-.4.1-.4.1-.8zm-6.7.5c-.1-.2-.2-.3-.4-.4s-.5-.1-.8-.1h-3.2c-.4 0-.6 0-.8.1s-.4.2-.4.4c-.1.2-.1.4-.1.8v2.6c0 .3 0 .6.1.8s.2.3.4.4.5.1.8.1h3.2c.4 0 .6 0 .8-.1s.4-.2.4-.4c.1-.2.1-.4.1-.8v-1h-1.4v1h-3.1v-2.9h3.1v.9h1.4v-.8c.1-.1 0-.4-.1-.6zm-6.9.6v-1.1h-5.5v5.2h5.5v-1.2h-4v-1h2.3v-1.1h-2.3v-.8zm-21.9-6.5h-.8v2.5l-1.3-2.5h-1v4h.8v-3.1l1.6 3.1h.8zm5.3 4v-4h-.9v4zm5.1 0v-3.1l1.6 3.1h.8v-4h-.8v2.5l-1.3-2.5h-1v4zm6-4v.6h1.3v3.3h.8v-3.3h1.4v-.6zm-1.9 5.4-2.2 3.7-2.2-3.7h-1.3v4.3l-2.6-4.3h-1.3l-3 5.2h3.9v-1.2h-1.7l1.6-2.6 2.2 3.7h2.4v-2.7l1.7 2.7h1l1.7-2.7v2.8h1.3v-5.1zm-12.5 1.1v-1.1h-4.9c-.4 0-.6 0-.8.1s-.4.2-.4.4c-.1.2-.1.4-.1.8v2.6c0 .3 0 .6.1.8s.2.3.4.4.5.1.8.1h3.5c.5 0 .9-.1 1.1-.3s.3-.5.3-1v-1.8h-3.3v1.1h1.9v.9h-3.5v-2.9z" fill="#b7b7b7"/></svg>