<svg viewBox="0 0 200.5 68.8" xmlns="http://www.w3.org/2000/svg"><path d="m199.4 64.3c0 1.9-1.6 3.5-3.5 3.5h-191.3c-1.9 0-3.5-1.6-3.5-3.5v-59.9c0-1.9 1.6-3.5 3.5-3.5h191.3c1.9 0 3.5 1.6 3.5 3.5z" stroke="#2e2e2f" stroke-miterlimit="10" stroke-width="1.7435"/><path d="m188.3 5.8h-70.7v2.9c0 5.5-4.5 10-10 10s-10-4.5-10-10v-2.9h-85.3c-3.2 0-5.8 2.6-5.8 5.8v44.8c0 3.2 2.6 5.8 5.8 5.8h176c3.2 0 5.8-2.6 5.8-5.8v-44.8c0-3.2-2.6-5.8-5.8-5.8z" stroke="#2e2e2f" stroke-miterlimit="10" stroke-width=".5812"/><path d="m172.4 23.1c-5.9 0-10.9 4.4-11.6 10.2h-2.9c-.7-5.7-5.6-10.2-11.6-10.2-5.9 0-10.9 4.4-11.6 10.2h-2.5c-.7-5.7-5.6-10.2-11.6-10.2s-10.9 4.4-11.6 10.2h-2.9c-.7-5.7-5.6-10.2-11.6-10.2-5.9 0-10.9 4.4-11.6 10.2h-12.9c-.7-10.3-9.3-18.4-19.8-18.4-11 0-19.9 8.9-19.9 19.9s8.9 19.9 19.9 19.9c10.4 0 19-8 19.8-18.2h13.1c.8 5.7 5.7 10.1 11.6 10.1s10.8-4.4 11.6-10.1h2.9c.8 5.7 5.7 10.1 11.6 10.1s10.8-4.4 11.6-10.1h2.5c.8 5.7 5.7 10.1 11.6 10.1s10.8-4.4 11.6-10.1h2.9c.8 5.7 5.7 10.1 11.6 10.1 6.5 0 11.7-5.2 11.7-11.7s-5.5-11.8-11.9-11.8z" fill="#fff"/><g transform="matrix(0 .20502225 -.20502225 0 68.580751 -.000006)"><g stroke-miterlimit="10" stroke-width="5.6693"><circle cx="168.5" cy="90.7" r="86" stroke="#2e2e2f"/><circle cx="170.2" cy="-126.9" r="46" stroke="#222223"/><circle cx="170.2" cy="-126.9" r="35.4" stroke="#414042"/><circle cx="170.2" cy="-253.9" r="46" stroke="#222223"/><circle cx="170.2" cy="-253.9" r="35.4" stroke="#414042"/><circle cx="170.2" cy="-378.9" r="46" stroke="#222223"/><circle cx="170.2" cy="-378.9" r="35.4" stroke="#414042"/><circle cx="170.2" cy="-506.2" r="46" stroke="#222223"/><circle cx="170.2" cy="-506.2" r="35.4" stroke="#414042"/></g><g stroke-miterlimit="10"><circle cx="169" cy="90.7" r="54" stroke="#2e2e2f" stroke-width="14.1732"/><circle cx="168.7" cy="90.7" fill="#6d6e71" r="26.5" stroke="#414042" stroke-width="2.8346"/></g><g><path d="m84.9-319.4-32.3-22.8-.1 13.4 13.2 9.4-13.3 10-.1 14.2zm-5.9-91.3c3.6 3.4 5.9 8.5 5.9 14.3 0 10.3-7.4 18.6-16.5 18.6s-16.5-8.3-16.5-18.6c0-5.8 2.4-11 6.1-14.5l6.7 7.7c-2 1.4-3.3 3.9-3.3 6.8 0 4.4 3.2 8 7.1 8s7.1-3.6 7.1-8c0-2.9-1.3-5.4-3.3-6.8zm5.6-11.5v-12.7h-21v-9.6l-11.3 2.4v27.2l11.3 2.4v-9.6h21zm-32.2-26.8h32.1v-13h-23.3v-5.7c1-1.7 2.3-1.6 2.3-1.6 4.8-1 3.9 4.6 3.9 4.6h9.4l7.8-5.6v-15.2l-13.3 8.4c-1.1-2.5-3.4-4.3-3.4-4.3-2.1-1.7-7.2-1-7.2-1-8.4.8-8.3 10.3-8.3 10.3s0 23.1 0 23.1zm9.2-38.4h23.1v-27.5l-9.3-3.3v20.5h-3.4v-10.4h-7.3v10.4h-3.1v-20.5l-9.3 3.3v27.5zm0 142.7h23.1v-27.8l-9.3-3.4v20.8h-3.4v-10.6h-7.3v10.6h-3.1v-20.8l-9.3 3.4v27.8z" fill="none" stroke="#0072bc" stroke-miterlimit="10" stroke-width="1.4173"/><path d="m52.4-518.2 16.1-14.9 16.1 14.9-.1-15.6-7.6-7 7.6-7 .1-15.6-16.1 14.9-16.1-14.9.1 15.6 7.6 7-7.6 7z" fill="none" stroke="#0072bc" stroke-miterlimit="10" stroke-width="1.4173"/><path d="m84.9-319.4-32.3-22.8-.1 13.4 13.2 9.4-13.3 10-.1 14.2zm-5.9-91.3c3.6 3.4 5.9 8.5 5.9 14.3 0 10.3-7.4 18.6-16.5 18.6s-16.5-8.3-16.5-18.6c0-5.8 2.4-11 6.1-14.5l6.7 7.7c-2 1.4-3.3 3.9-3.3 6.8 0 4.4 3.2 8 7.1 8s7.1-3.6 7.1-8c0-2.9-1.3-5.4-3.3-6.8zm5.6-11.5v-12.7h-21v-9.6l-11.3 2.4v27.2l11.3 2.4v-9.6h21zm-32.2-26.8h32.1v-13h-23.3v-5.7c1-1.7 2.3-1.6 2.3-1.6 4.8-1 3.9 4.6 3.9 4.6h9.4l7.8-5.6v-15.2l-13.3 8.4c-1.1-2.5-3.4-4.3-3.4-4.3-2.1-1.7-7.2-1-7.2-1-8.4.8-8.3 10.3-8.3 10.3s0 23.1 0 23.1zm9.2-38.4h23.1v-27.5l-9.3-3.3v20.5h-3.4v-10.4h-7.3v10.4h-3.1v-20.5l-9.3 3.3v27.5zm0 142.7h23.1v-27.8l-9.3-3.4v20.8h-3.4v-10.6h-7.3v10.6h-3.1v-20.8l-9.3 3.4v27.8z" fill="none" stroke="#0072bc" stroke-miterlimit="10" stroke-width="1.4173"/><path d="m52.4-518.2 16.1-14.9 16.1 14.9-.1-15.6-7.6-7 7.6-7 .1-15.6-16.1 14.9-16.1-14.9.1 15.6 7.6 7-7.6 7z" fill="none" stroke="#0072bc" stroke-miterlimit="10" stroke-width="1.4173"/><path d="m57.4 227.3h25.9v5.2h-16.1l16.2 5.3v3.3l-16.2 5.1h16.2v5.6h-26v-7.5l14.1-4.9-14.1-4.4" fill="#ed1c24"/><path d="m57.4 224.4v-11.1c0-3.5 2.9-7.2 6.4-7.2 3.4 0 4.9 2.6 5.8 4.3.7-2.8 4-5.1 6.8-4.9 3.5.2 7 3.2 7 7.8v11.1c-.1 0-26 0-26 0zm3.7-5.4v-3.5c0-5.3 6.3-5.1 6.3-.3v3.7zm10.6 0v-3.5c0-5.3 7.8-5.1 7.8-.3v3.7c0 .1-7.8.1-7.8.1z" fill="#0095da"/><g fill="#ed1c24"><circle cx="71.4" cy="187.4" r="3.9"/><circle cx="71.4" cy="166.4" r="3.9"/><circle cx="71.4" cy="145.4" r="3.9"/><circle cx="70.4" cy="4.8" r="3.9"/><circle cx="70.4" cy="-17.2" r="3.9"/><circle cx="70.4" cy="-38.2" r="3.9"/><circle cx="70.4" cy="-59.2" r="3.9"/><circle cx="70.4" cy="-80.2" r="3.9"/><circle cx="70.4" cy="-101.2" r="3.9"/><circle cx="70.4" cy="-122.1" r="3.9"/><circle cx="71.4" cy="-267.2" r="3.9"/><circle cx="71.4" cy="-288.2" r="3.9"/></g></g></g><path d="m95.9 51.8v5.5h-1.5v-3.6c-.2.2-.5.3-.7.5-.2.1-.5.2-.9.3v-1.2c.5-.2.9-.4 1.2-.6s.5-.5.7-.9zm27.1 5.4h-4.5c.1-.4.2-.9.5-1.3s.8-.9 1.5-1.4c.4-.3.7-.6.8-.7.1-.2.2-.3.2-.5s-.1-.3-.2-.4-.3-.2-.5-.2-.3.1-.5.2c-.1.1-.2.3-.2.6l-1.5-.1c.1-.4.2-.8.3-1 .2-.2.4-.4.7-.5s.7-.2 1.2-.2.9.1 1.2.2.5.3.7.6c.2.2.3.5.3.8s-.1.6-.3.9-.5.6-1.1 1c-.3.2-.5.4-.6.4-.1.1-.2.2-.4.3h2.3zm22.9-3.8-1.4-.3c.1-.5.3-.8.7-1 .3-.2.8-.4 1.4-.4.7 0 1.2.1 1.5.4s.5.6.5 1c0 .2-.1.4-.2.6s-.3.4-.6.5c.2.1.4.1.5.2.2.1.3.3.4.4.1.2.1.4.1.6 0 .3-.1.6-.2.9-.2.3-.4.5-.7.7s-.7.2-1.2.2-.9-.1-1.2-.2-.5-.3-.7-.5-.3-.5-.4-.8l1.5-.2c.1.3.2.5.3.6s.3.2.5.2.4-.1.5-.2.2-.3.2-.6-.1-.4-.2-.6c-.1-.1-.3-.2-.5-.2-.1 0-.3 0-.5.1l.1-1.1h.2c.2 0 .4-.1.5-.2s.2-.3.2-.4c0-.2 0-.3-.1-.4s-.2-.1-.4-.1-.3.1-.4.2c-.3.2-.4.3-.4.6zm27.5 2.8h-2.7v-1.2l2.7-3.2h1.3v3.3h.7v1.2h-.7v1h-1.3zm0-1.1v-1.7l-1.4 1.7z" fill="#ed1c24"/></svg>