<svg enable-background="new 0 0 200 136.6" viewBox="0 0 200 136.6" xmlns="http://www.w3.org/2000/svg"><path d="m-9.4-5h216.7v147.6h-216.7z" fill="none"/><g transform="matrix(0 .79091172 .79091172 0 -6.050712 -9.400174)"><path d="m184.6 196.1v-123.8c-3.8-42.1-37.7-63.1-76.4-64.6-46.5-1.8-96.3 56.8-96.3 126.4s49.8 128.2 96.3 126.4c38.7-1.5 72.6-22.5 76.4-64.6" fill="#242d32"/><path d="m23.1 134.1c0-52.1 51.5-113.7 86.4-112.4 29 1.1 54.9 16.3 57.8 47.8v129.1c-2.8 31.5-28.8 46.7-57.8 47.8-34.8 1.4-86.4-60.2-86.4-112.3" fill="#42494c"/><path d="m104.6 116.9c0-17.7-6.3-31.8-17.8-36-11.7-4.3-26.4 2.7-38.4 18.1l1.6 1.2c11.5-14.7 25.3-21.4 36.2-17.5 16.7 6.1 21.6 34.9 10.9 64.3s-33 48.4-49.7 42.3c-8-2.9-13.5-11.1-15.6-23.2-2.1-12.2-.4-26.8 4.8-41.2l-1.9-.7c-5.3 14.7-7.1 29.6-4.9 42.2 2.2 12.8 8.2 21.5 16.9 24.7 17.7 6.5 41.2-13.1 52.2-43.5 3.9-10.5 5.7-21.1 5.7-30.7" fill="#6d7779"/><path d="m72 152.2h-6.7l3.3-6.3z" fill="#c66a56"/><path d="m71.9 158.5h-6.7l3.3-6.3z" fill="#c66a56"/><path d="m144.5 46-14-14h-19.8l-14 14v19.8l14 14h19.8l14-14z" fill="#f86745"/><path d="m120.3 62.2c3.5 0 6.3-2.8 6.3-6.3s-2.8-6.3-6.3-6.3-6.3 2.8-6.3 6.3c.1 3.5 2.9 6.3 6.3 6.3m5.1-18.8h-10.1l5.1-9.5c-.1-.1 5 9.5 5 9.5zm-10.1 25h10.1l-5.1 9.6s-5-9.6-5-9.6zm17.9-7.4v-10.2l9.5 5.1zm-25.1-10.2v10.2l-9.6-5.1c.1 0 9.6-5.1 9.6-5.1z" fill="#c66a56"/><path d="m120.6 206.2c6.9 0 12.6-5.6 12.6-12.6s-5.6-12.6-12.6-12.6c-6.9 0-12.6 5.6-12.6 12.6s5.7 12.6 12.6 12.6m-.8 36.5c6.9 0 12.6-5.6 12.6-12.6s-5.6-12.6-12.6-12.6c-6.9 0-12.6 5.6-12.6 12.6s5.6 12.6 12.6 12.6" fill="#f86745"/><path d="m91.5 233.1v-21.3h-8.6v21.3z" fill="#405762"/><path d="m84.1 231.5 3-2 3.2 2.2v-2l-1.7-1.2 1.7-1.2v-2c-.1.1-3.2 2.2-3.2 2.2l-1.3-.9v-3.9c0-.2 0-.4.2-.5h.2c.1 0 .2.1.2.2v.1 1.6c0 .7.5 1.4 1.1 1.7.5.3 1.3.2 1.8-.1.7-.4 1-1.1 1-1.8v-4.3s-2.4-.7-2.4-.7l2.4-.7v-1.6l-2.4-.6 2.4-.7v-1.8s-5.8 1.6-6.2 1.7v1.5l2.6.7-2.6.7v1.5l4.5 1.2v2.9c0 .2 0 .5-.2.6-.1 0-.2 0-.3-.1s-.1-.2-.1-.3v-1.6c0-.7-.5-1.5-1.2-1.7-.7-.3-1.6-.1-2.1.4-.4.4-.6.8-.6 1.4v5.1l1.5 1-1.5 1.1z" fill="#fff"/><path d="m150.7 110.6c0 .4 0 .9-.4 1.3-.1.1-.3.2-.6.2s-.5-.1-.6-.2c-.4-.4-.4-1-.4-1.5v-.7h1.9v.9m4.9-3.7h-9.1v3.8c0 1.3.1 2.5 1.2 3.4.3.2.9.6 1.9.6 1.3 0 2-.5 2.4-.9.7-.7.7-1.6.8-2.5v-1.7h2.7c.1-.1.1-2.7.1-2.7zm-2.9 11.8c.1-.3.2-.7.3-1l.1-.3c0-.1.1-.5.6-.5.2 0 .6.1.6.6 0 .1 0 .4-.1.5-.1.5-.4.5-.6.6h-.9m2.9.4-.6-.1c.3-.3.8-1 .8-2.1 0-.2 0-1-.5-1.6-.2-.3-.7-.7-1.6-.7-.2 0-.6.1-1 .4-.6.5-.8 1-1 1.8l-.2 1.2c0 .1-.1.3-.1.4 0 0 0 .2-.1.3s-.4.2-.5.2c-.3 0-.5-.3-.5-.8s.2-.7.3-.8.2-.1.4-.1v-2.3c-.5.1-.9.2-1.4.6-.5.5-.9 1.2-.9 2.7 0 .3-.1 1.4.4 2.2.2.3.5.5.8.7.5.3 1.2.2 1.8.2h1.8c1.1 0 1.3.1 2 .3.1-.1.1-2.5.1-2.5zm0 6.9h-3.2c.4 0-1.3.1-1.4-.2-.1-.1-.2-.3-.2-.6s.1-.6.4-.7.6-.2 1.3-.2h3.1v-2.5h-6.6v2.3h.8c-.4.3-.9.7-.9 2.1 0 1 .4 1.8 1.4 2.1.3.1.5.1 1 .1h4.4v-2.4m-4.8 13.7c-.3 0-.7-.2-.7-.9 0-.3.1-.5.1-.6s.2-.1.4-.1c.1 0 .2 0 .3.2.1.1.1.3.1.6l.3 1c.2.7.3 1.3.8 1.8.2.2.5.4.6.4.3.1.6.1.7.1.8 0 1.3-.4 1.5-.6.4-.5.8-1.2.8-2.6 0-1.1-.3-1.8-.5-2.3-.5-.9-1.5-.9-1.8-1v2.4c.2 0 .4.1.6.2.1.1.2.3.2.7 0 .5-.2.8-.5.8 0 0-.2 0-.3-.1-.2-.1-.3-.4-.4-.9 0 0-.3-1.4-.3-1.5-.1-.3-.4-1.6-1.8-1.6-.8 0-1.2.4-1.4.6-.4.4-.7 1.1-.7 2.4 0 .3 0 1.4.6 2.3l.6.6c.3.2.7.2.9.3zm-.1 6.7c-.2-.2-.2-.5-.2-.7 0-.3.2-.5.2-.6.2-.3.6-.5 1.4-.5.6 0 1.7.1 1.7 1.1 0 .3-.1.5-.3.7s-.7.4-1.4.4c0 0-.9 0-1.4-.4m4.1 1.8c.4-.4.9-1.2.9-2.6 0-.4 0-1.6-1.1-2.5-.4-.4-1.2-.8-2.5-.8-.2 0-.8 0-1.3.2-1.4.5-2.1 1.8-2.1 3.2 0 .4 0 1.6.9 2.4.4.4 1.2 1 2.6.9.4.1 1.7.1 2.6-.8m-8.4 8.4v2.4h1.7v-2.4zm2.5 0v2.4h6.7v-2.4zm2.5 7.1c-.8-.2-.8-.6-.8-1s.1-.5.2-.6c.3-.3.6-.4 1.4-.4.1 0 1.1 0 1.6.6.1.2.1.3.1.5 0 .1 0 .3-.1.5s-.3.5-.9.5v2.3c.2 0 .7-.1 1.1-.3 1.2-.6 1.6-1.8 1.6-3 0-.5-.1-.8-.1-1-.2-.9-.9-1.8-1.9-2.2-.3-.1-.7-.2-1.5-.2-.3 0-1.1 0-1.9.4-.1.1-.4.3-.7.5-.9.9-.9 2.2-.9 2.5 0 1.2.5 2 .8 2.4.1.1.4.3.8.5.3.1.6.2 1 .3v-2.3m3-31.3c.1-.2 0-.4 0-.5 0-.4-.4-.6-.6-.6-.5 0-.6.4-.6.5l-.1.3c-.1.3-.2.7-.3 1h.8c.2-.2.7-.3.8-.7m-.6 3h-1.8c-.6 0-1.3 0-1.9-.2-.3-.2-.5-.3-.8-.6-.6-.8-.4-2-.4-2.3 0-1.5.4-2.2.9-2.7.4-.4.9-.5 1.4-.6v2.3c-.2 0-.3 0-.4.1-.2.1-.4.3-.4.8s.3.8.5.8c.1 0 .4 0 .4-.1s.2-.4.2-.4c0-.1.1-.3.1-.4l.2-1.2c.2-.7.3-1.3.9-1.8.4-.3.8-.3 1-.3.9 0 1.4.4 1.6.6.5.6.5 1.4.5 1.6 0 1.1-.5 1.7-.8 2.1l.6.1v2.5c-.3-.2-.5-.3-1.8-.3m1.9 18.3h-3.2c.4 0-1.2.1-1.4-.2-.1-.1-.2-.3-.2-.6s.1-.6.4-.7.5-.2 1.2-.2h3.2v-2.4h-6.6v2.3h.8c-.4.3-.9.7-.9 2.1 0 1 .4 1.8 1.4 2.1.3.1.4.1 1 .1h4.4z" fill="#c66a56"/><path d="m81.5 168.9v-66.3h-3.7v66.3z" fill="#5e676a"/><path d="m81.5 167.1v-9.2c0-1-.8-1.8-1.8-1.8s-1.8.8-1.8 1.8v9.2c0 1 .8 1.8 1.8 1.8.9 0 1.8-.8 1.8-1.8" fill="#231f20"/><path d="m61.5 168.9v-66.3h-3.7v66.3z" fill="#5e676a"/><path d="m61.5 119.8v-9.2c0-1-.8-1.8-1.8-1.8s-1.8.8-1.8 1.8v9.2c0 1 .8 1.8 1.8 1.8.9.1 1.8-.8 1.8-1.8" fill="#231f20"/><g fill="#c66a56"><path d="m71.9 113.6h-6.7l3.3-6.3zm0 51.2h-6.7l3.3-6.3zm-30-69v2c0 .8-.1 1.4-.3 1.7-.2.4-.5.7-.9.9s-.8.3-1.3.3c-.3 0-.6-.1-.9-.2-.2-.1-.4-.3-.5-.5s-.2-.6-.2-1.2v-2.3c.1 0 4.1-.7 4.1-.7zm5.6-2.2-10.7 1.9v3.8c0 .7.1 1.2.3 1.5s.5.6.9.8.9.3 1.4.3c.4 0 .9-.1 1.3-.2.5-.2.8-.3 1.1-.6.3-.2.5-.5.7-.7.1-.2.3-.5.3-.8.2-.6.2-1.2.2-1.8v-2.3l4.3-.8zm-4.4 10.3c.6 0 1.2.1 1.7.3s.9.6 1.2 1 .4.9.4 1.4-.1.9-.4 1.3-.6.8-1.1 1.1-1 .6-1.7.8-1.3.3-2 .3c-1.1 0-1.9-.3-2.5-.8s-.9-1.1-.9-1.9c0-1 .5-1.8 1.4-2.5s2.2-1 3.9-1m-.1-1.2c-1.9 0-3.4.5-4.6 1.4s-1.8 2.1-1.8 3.4c0 1.1.4 2.1 1.3 2.8s2 1.1 3.5 1.1c1 0 2-.2 2.9-.5.7-.3 1.2-.6 1.7-1s.9-.9 1.1-1.3c.3-.6.5-1.3.5-2s-.2-1.4-.6-2-1-1.1-1.7-1.4-1.5-.5-2.3-.5m4.5 10.9-10.7-.6v1.2l5.3.2c.3 0 .9 0 2.1.1h.7.7c-1.2.5-2.1.9-2.6 1.1l-6.1 2.8v1.3l6.2.3c.7 0 1.6.1 2.6.1-.2.1-.6.2-1.1.4-.8.3-1.4.5-1.7.7l-6 2.6v1.2l10.7-4.7v-1.3l-6.5-.3c-.6 0-1.2-.1-2-.1.7-.3 1.2-.5 1.6-.6l6.9-3.2zm0 10.5-10.7 1.9v6.6l1.2-.2v-5.4l3.3-.6v5.2l1.2-.2v-5.2l3.7-.7v5.8l1.2-.2v-7zm-5.9 10.9v1.7 1.5c-.1.5-.2.8-.4 1.1s-.4.5-.8.7c-.3.2-.7.2-1 .2s-.6-.1-.8-.2-.4-.3-.5-.5-.1-.5-.1-1v-3zm5.9-2.3-10.7 1.9v3.8c0 .8.1 1.3.2 1.7s.4.7.8.9.9.3 1.5.3c.9 0 1.6-.2 2.2-.7s.9-1.3 1.1-2.4c.3.3.6.6.8.8.6.4 1.3.7 1.9.9l2 .7v-1.4l-2-.7c-.7-.2-1.3-.5-1.9-.8-.4-.2-.6-.4-.7-.6s-.2-.6-.2-1.1v-1.4l4.7-.9zm-5.6 15v2c0 .8-.1 1.4-.3 1.7-.2.4-.5.7-.9.9s-.8.3-1.3.3c-.3 0-.6-.1-.9-.2-.2-.1-.4-.3-.5-.5s-.2-.6-.2-1.2v-2.3zm5.6-2.3-10.7 1.9v3.8c0 .7.1 1.2.3 1.5s.5.6.9.8.9.3 1.4.3c.4 0 .9-.1 1.3-.2.5-.2.8-.4 1.1-.6s.5-.5.7-.7c.1-.2.3-.5.3-.8.2-.6.2-1.2.2-1.8v-2.3l4.3-.8zm-4.2 10.1v3l-2.7-.4c-1.1-.1-1.9-.2-2.7-.3.6-.2 1.3-.5 2.2-.9zm4.2-3.3-10.7 5.2v1.4l10.7 1.5v-1.2l-3.1-.4v-3.7l3.1-1.5zm-1.3 10.8v1.4c0 .7-.1 1.2-.2 1.7-.1.3-.2.6-.4.8-.2.3-.5.6-.9.8-.5.3-1 .6-1.6.8s-1.3.3-2.1.3c-.9 0-1.5-.1-2-.4s-.8-.6-.9-1c-.1-.3-.2-.8-.2-1.4v-1.6zm1.3-1.4-10.7 1.9v2.8c0 .7.1 1.2.2 1.5.2.5.4.9.8 1.3s.9.6 1.4.8c.6.2 1.2.3 1.9.3.9 0 1.6-.1 2.3-.3s1.3-.5 1.9-.9c.5-.4 1-.7 1.3-1.1s.5-.9.7-1.4c.1-.4.2-.9.2-1.5zm52.1 30.3h1.8v1.3.9c0 .2-.1.4-.3.5-.1.1-.3.2-.6.2-.2 0-.4-.1-.5-.1-.1-.1-.2-.2-.3-.4s-.1-.6-.1-1.2c0-.1 0-1.2 0-1.2zm-2.7 0h1.6v.9 1c0 .2-.1.4-.2.6-.1.1-.3.2-.5.2s-.4-.1-.5-.2-.2-.3-.2-.5c0-.1 0-.5 0-1.2zm-1.1-1.4v2.7c0 .5 0 .9.1 1.2 0 .3.1.5.3.7.1.2.3.4.6.5.2.1.5.2.8.2s.6-.1.9-.3.5-.4.6-.7c.1.4.3.7.6.9s.6.3 1 .3c.3 0 .6-.1.9-.2s.5-.3.7-.6c.2-.2.3-.6.3-.9 0-.2 0-.8 0-1.6v-2.3h-6.8zm-16.5-93.9h1.8v1.3.9c0 .2-.1.4-.3.5-.1.1-.3.2-.6.2-.2 0-.4-.1-.5-.1s-.2-.2-.3-.4-.1-.6-.1-1.2c0-.1 0-1.2 0-1.2zm-2.7 0h1.6v.9 1c0 .2-.1.4-.2.6-.1.1-.3.2-.5.2s-.4-.1-.5-.2-.2-.3-.2-.5c0-.1 0-.5 0-1.2-.2 0-.2-.8-.2-.8zm-1.1-1.3v2.7c0 .5 0 .9.1 1.2 0 .3.1.5.3.7.1.2.3.4.6.5.2.1.5.2.8.2s.6-.1.9-.3.5-.4.6-.7c.1.4.3.7.6.9s.6.3 1 .3c.3 0 .6-.1.9-.2s.5-.3.7-.6c.2-.2.3-.6.3-.9 0-.2 0-.8 0-1.6v-2.3c0 .1-6.8.1-6.8.1zm23.9 135.9-2.5-.9 2.5-.9zm2.6 2.6v-1.5l-1.5-.6v-2.7l1.5-.6v-1.4l-6.7 2.6v1.4c0 .1 6.7 2.8 6.7 2.8zm-41.3-135-2.5-.9 2.5-.9zm2.7 2.5v-1.5l-1.5-.6v-2.7l1.5-.6v-1.4l-6.7 2.6v1.4zm5.6 43.2v-29.8h-1v29.8zm42.2-101.1v-11.4h-.9v11.4zm-3.1 3.1v-.9h-11.3v.9z"/><path d="m108.1 46.5 3.1-3.1-.6-.6-3.1 3.1zm36.4-.1v-.9h-11.4v.9zm-14.5-14.4v11.4h.9v-11.4z"/><path d="m130 43.4 3.1 3.1.6-.6-3.1-3.1zm-18.8 25v11.4h-.9v-11.4zm-3.1-3.1v.9h-11.3v-.9z"/><path d="m108.1 65.3 3.1 3.1-.6.6-3.1-3.1zm36.4 0v.9h-11.4v-.9zm-14.4 14.5v-11.4h.9v11.4c-.1 0-.9 0-.9 0z"/><path d="m130.1 68.4 3.1-3.1.6.6-3.1 3.1z"/></g></g></svg>