<?xml version="1.0" encoding="utf-8"?>
<!-- Generator: Adobe Illustrator 23.0.3, SVG Export Plug-In . SVG Version: 6.00 Build 0)  -->
<svg version="1.1" id="Layer_1" xmlns="http://www.w3.org/2000/svg" xmlns:xlink="http://www.w3.org/1999/xlink" x="0px" y="0px"
	 viewBox="0 0 241.4 149.6" style="enable-background:new 0 0 241.4 149.6;" xml:space="preserve">
<style type="text/css">
	.st0{fill:url(#SVGID_1_);}
	.st1{fill:url(#SVGID_2_);}
	.st2{fill:url(#SVGID_3_);}
	.st3{fill:url(#SVGID_4_);}
	.st4{fill:url(#SVGID_5_);}
	.st5{fill:url(#SVGID_6_);}
	.st6{fill:url(#SVGID_7_);}
	.st7{fill:url(#SVGID_8_);}
	.st8{fill:url(#SVGID_9_);}
	.st9{fill:url(#SVGID_10_);}
	.st10{fill:#232323;}
	.st11{fill:url(#SVGID_11_);}
	.st12{fill:url(#SVGID_12_);}
	.st13{fill:url(#SVGID_13_);}
	.st14{fill:url(#SVGID_14_);}
	.st15{fill:url(#SVGID_15_);}
	.st16{fill:url(#SVGID_16_);}
	.st17{fill:url(#SVGID_17_);}
	.st18{fill:url(#SVGID_18_);}
	.st19{fill:url(#SVGID_19_);}
	.st20{fill:url(#SVGID_20_);}
	.st21{fill:url(#SVGID_21_);}
	.st22{fill:url(#SVGID_22_);}
	.st23{fill:url(#SVGID_23_);}
	.st24{fill:url(#SVGID_24_);}
	.st25{fill:url(#SVGID_25_);}
	.st26{fill:url(#SVGID_26_);}
	.st27{fill:url(#SVGID_27_);}
	.st28{fill:url(#SVGID_28_);}
	.st29{fill:url(#SVGID_29_);}
	.st30{fill:url(#SVGID_30_);}
	.st31{fill:url(#SVGID_31_);}
	.st32{fill:#E295DD;}
	.st33{fill:#3DD3C8;}
	.st34{fill:#F36070;}
	.st35{fill:url(#SVGID_32_);}
	.st36{fill:url(#SVGID_33_);}
	.st37{fill:url(#SVGID_34_);}
	.st38{fill:url(#SVGID_35_);}
	.st39{fill:#94B8F2;}
	.st40{fill:#1B1B1C;}
	.st41{fill:url(#SVGID_36_);}
	.st42{fill:url(#SVGID_37_);}
	.st43{fill:url(#SVGID_38_);}
	.st44{fill:url(#SVGID_39_);}
	.st45{fill:url(#SVGID_40_);}
	.st46{fill:url(#SVGID_41_);}
	.st47{fill:url(#SVGID_42_);}
	.st48{fill:url(#SVGID_43_);}
	.st49{fill:url(#SVGID_44_);}
	.st50{fill:url(#SVGID_45_);}
	.st51{fill:url(#SVGID_46_);}
	.st52{fill:url(#SVGID_47_);}
	.st53{fill:url(#SVGID_48_);}
	.st54{fill:url(#SVGID_49_);}
	.st55{fill:url(#SVGID_50_);}
	.st56{fill:url(#SVGID_51_);}
	.st57{fill:url(#SVGID_52_);}
	.st58{fill:url(#SVGID_53_);}
	.st59{fill:url(#SVGID_54_);}
	.st60{fill:url(#SVGID_55_);}
	.st61{fill:url(#SVGID_56_);}
	.st62{fill:url(#SVGID_57_);}
	.st63{fill:#E51F44;}
	.st64{fill:#2E90D7;}
</style>
<linearGradient id="SVGID_1_" gradientUnits="userSpaceOnUse" x1="-233.423" y1="279.6262" x2="-232.423" y2="279.6262" gradientTransform="matrix(-3.532800e-09 78.6875 78.6875 3.532800e-09 -21882.416 18390.7324)">
	<stop  offset="0" style="stop-color:#1A1A1A"/>
	<stop  offset="0.541" style="stop-color:#25272C"/>
	<stop  offset="1" style="stop-color:#30353E"/>
</linearGradient>
<path class="st0" d="M132.1,98h-23.5c-0.3,1.3-0.8,2.7-1.4,3.9h26.2C132.9,100.7,132.4,99.4,132.1,98 M171.9,23.3h-43.1
	c-0.3,0.5-0.8,0.8-1.3,0.8h-14.3c-0.6,0-1-0.3-1.3-0.8H69.5c2.7,1.8,5.3,3.9,7.5,6.3h87.5C166.6,27.1,169.1,25,171.9,23.3"/>
<linearGradient id="SVGID_2_" gradientUnits="userSpaceOnUse" x1="-233.8585" y1="280.1448" x2="-232.8585" y2="280.1448" gradientTransform="matrix(-3.074712e-09 68.4843 68.4843 3.074712e-09 -19064.8535 16045.1865)">
	<stop  offset="0" style="stop-color:#282828"/>
	<stop  offset="0" style="stop-color:#282828"/>
	<stop  offset="0" style="stop-color:#282828"/>
	<stop  offset="4.000000e-03" style="stop-color:#404649"/>
	<stop  offset="7.000001e-03" style="stop-color:#525B61"/>
	<stop  offset="1.000000e-02" style="stop-color:#5C686F"/>
	<stop  offset="1.300000e-02" style="stop-color:#606C74"/>
	<stop  offset="2.100000e-02" style="stop-color:#505A63"/>
	<stop  offset="3.200000e-02" style="stop-color:#424952"/>
	<stop  offset="4.500000e-02" style="stop-color:#383E47"/>
	<stop  offset="6.400000e-02" style="stop-color:#323740"/>
	<stop  offset="0.117" style="stop-color:#30353E"/>
	<stop  offset="0.884" style="stop-color:#1A1A1A"/>
	<stop  offset="0.937" style="stop-color:#1B1C1C"/>
	<stop  offset="0.956" style="stop-color:#212223"/>
	<stop  offset="0.97" style="stop-color:#2A2D2E"/>
	<stop  offset="0.981" style="stop-color:#373C3F"/>
	<stop  offset="0.991" style="stop-color:#485055"/>
	<stop  offset="0.999" style="stop-color:#5D6870"/>
	<stop  offset="1" style="stop-color:#606C74"/>
</linearGradient>
<path class="st1" d="M164.4,29.6H76.9c6.2,6.7,10,15.7,10,25.6c0,4.5-0.8,8.8-2.2,12.8c0.2,0,0.4,0,0.7,0
	c13.3,0,24.1,10.8,24.1,24.1c0,2-0.3,4-0.8,6h23.5c-0.5-2-0.8-4-0.8-6c0-13.3,10.8-24.1,24.1-24.1c0.4,0,0.9,0,1.3,0
	c-1.5-4.1-2.2-8.5-2.2-12.8C154.5,45.3,158.2,36.3,164.4,29.6"/>
<radialGradient id="SVGID_3_" cx="-237.9994" cy="281.2604" r="1" gradientTransform="matrix(-20.8473 39.0436 22.9967 12.2791 -11394.7715 5936.4326)" gradientUnits="userSpaceOnUse">
	<stop  offset="0" style="stop-color:#30353E"/>
	<stop  offset="1" style="stop-color:#1A1A1A"/>
</radialGradient>
<path class="st2" d="M12.1,45.7C6.6,75.8,3,108,0.3,122.1c-2.8,14.5,12.2,27.5,26.8,27.5c7.6,0,15.2-3.6,20-12.4
	C53.3,126,59.9,113,64.4,104c-2.1-3.6-3.2-7.8-3.2-12c0-0.3,0-0.7,0-1c-4,1.4-8.1,2-12.3,2c-20.9,0-37.9-17-37.9-37.9
	c0-3.2,0.4-6.3,1.2-9.3L12.1,45.7"/>
<linearGradient id="SVGID_4_" gradientUnits="userSpaceOnUse" x1="-255.6356" y1="306.0883" x2="-254.6356" y2="306.0883" gradientTransform="matrix(-4.108218e-10 9.1504 9.1504 4.108218e-10 -2609.5815 2339.168)">
	<stop  offset="0" style="stop-color:#23262A"/>
	<stop  offset="1" style="stop-color:#606C74"/>
</linearGradient>
<path class="st3" d="M174.7,9.1h33.2l-2.6-4.3c-1.7-2.8-6.1-4.9-14-4.9c-7.8,0-12.3,2.1-14,4.9L174.7,9.1z"/>
<linearGradient id="SVGID_5_" gradientUnits="userSpaceOnUse" x1="-255.6356" y1="306.0882" x2="-254.6356" y2="306.0882" gradientTransform="matrix(-4.108218e-10 9.1504 9.1504 4.108218e-10 -2751.9336 2339.168)">
	<stop  offset="0" style="stop-color:#23262A"/>
	<stop  offset="1" style="stop-color:#606C74"/>
</linearGradient>
<path class="st4" d="M32.3,9.1h33.2l-2.6-4.3C61.2,2.1,56.7,0,48.9,0s-12.3,2.1-14,4.9L32.3,9.1z"/>
<radialGradient id="SVGID_6_" cx="-214.8427" cy="289.2867" r="1" gradientTransform="matrix(17.4997 0 0 -17.4997 3808.5793 5078.1167)" gradientUnits="userSpaceOnUse">
	<stop  offset="0" style="stop-color:#30353E"/>
	<stop  offset="0.459" style="stop-color:#25272C"/>
	<stop  offset="1" style="stop-color:#1A1A1A"/>
</radialGradient>
<path class="st5" d="M69.7,29C68,18,67.3,12.5,66.5,8.5c-0.8-4.1-7.7-6.1-17.6-6.1c-9.9,0-16.8,2.1-17.6,6.1
	C30.5,12.5,29.7,18,28,29"/>
<radialGradient id="SVGID_7_" cx="-214.8427" cy="289.2867" r="1" gradientTransform="matrix(17.4997 0 0 -17.4997 3950.9321 5078.1157)" gradientUnits="userSpaceOnUse">
	<stop  offset="0" style="stop-color:#30353E"/>
	<stop  offset="0.459" style="stop-color:#25272C"/>
	<stop  offset="1" style="stop-color:#1A1A1A"/>
</radialGradient>
<path class="st6" d="M212.1,29c-1.7-11-2.5-16.5-3.3-20.5c-0.8-4.1-7.7-6.1-17.6-6.1s-16.8,2.1-17.6,6.1c-0.8,4.1-1.6,9.5-3.3,20.5"
	/>
<radialGradient id="SVGID_8_" cx="-229.4154" cy="285.3349" r="1" gradientTransform="matrix(36.9664 32.5903 25.453 -28.8708 1278.2653 15781.2344)" gradientUnits="userSpaceOnUse">
	<stop  offset="0" style="stop-color:#444D56"/>
	<stop  offset="0.294" style="stop-color:#30353E"/>
	<stop  offset="0.601" style="stop-color:#23262A"/>
	<stop  offset="1" style="stop-color:#1A1A1A"/>
</radialGradient>
<path class="st7" d="M85.3,110.6c-10.3,0-18.6-8.3-18.6-18.6c0-10.3,8.3-18.6,18.6-18.6s18.6,8.3,18.6,18.6
	C103.9,102.3,95.6,110.6,85.3,110.6 M49,17.3c-17.7,0-32.6,12.2-36.8,28.6c-0.8,3-1.2,6.2-1.2,9.3c0,20.9,17,37.9,37.9,37.9
	c4.3,0,8.4-0.7,12.3-2c0,0.3,0,0.7,0,1c0,4.2,1.1,8.3,3.2,12c4.2,7.2,11.9,12.1,20.9,12.1c9.7,0,18.1-5.8,21.9-14.1
	c1.4-3.1,2.1-6.5,2.1-9.9c0-13.3-10.8-24.1-24.1-24.1c-0.2,0-0.4,0-0.7,0c1.5-4.1,2.2-8.4,2.2-12.8c0-9.9-3.8-18.9-10-25.6
	c-2.2-2.4-4.7-4.5-7.5-6.3C63.3,19.3,56.2,17.2,49,17.3"/>
<radialGradient id="SVGID_9_" cx="-232.1676" cy="289.5708" r="1" gradientTransform="matrix(20.8485 39.0457 22.9979 -12.2798 -1612.7383 12718.7207)" gradientUnits="userSpaceOnUse">
	<stop  offset="0" style="stop-color:#30353E"/>
	<stop  offset="1" style="stop-color:#1A1A1A"/>
</radialGradient>
<path class="st8" d="M229.2,45.7l-0.1,0.1c0.8,3,1.2,6.2,1.2,9.3c0,20.9-17,37.9-37.9,37.9c-4.6,0-8.9-0.8-13-2.3c0,0.4,0,0.8,0,1.2
	c0,4-1,7.9-2.8,11.4c4.5,9,11.3,22.4,17.6,33.9c4.8,8.8,12.4,12.4,20,12.4c14.6,0,29.6-13,26.8-27.5
	C238.3,108.5,234.7,75.8,229.2,45.7"/>
<linearGradient id="SVGID_10_" gradientUnits="userSpaceOnUse" x1="-265.001" y1="317.245" x2="-264.001" y2="317.245" gradientTransform="matrix(-2.993031e-10 6.6665 6.6665 2.993031e-10 -2016.4756 1822.3169)">
	<stop  offset="0" style="stop-color:#444D56"/>
	<stop  offset="1" style="stop-color:#41444B"/>
</linearGradient>
<path class="st9" d="M94.2,55.7h8.5c0.9,0,1.6,0.7,1.6,1.6v3.5c0,0.9-0.7,1.6-1.6,1.6l0,0h-8.5c-0.9,0-1.6-0.7-1.6-1.6v-3.5
	C92.6,56.4,93.3,55.7,94.2,55.7z"/>
<path class="st10" d="M94.2,55.7v0.3h8.5c0.7,0,1.3,0.6,1.3,1.3v3.5c0,0.7-0.6,1.3-1.3,1.3h-8.5c-0.7,0-1.3-0.6-1.3-1.3v-3.5
	c0-0.7,0.6-1.3,1.3-1.3v-0.5c-1,0-1.8,0.8-1.8,1.8c0,0,0,0,0,0v3.5c0,1,0.8,1.8,1.8,1.8c0,0,0,0,0,0h8.5c1,0,1.8-0.8,1.8-1.8v-3.5
	c0-1-0.8-1.8-1.8-1.8l0,0h-8.5V55.7z"/>
<linearGradient id="SVGID_11_" gradientUnits="userSpaceOnUse" x1="-264.3966" y1="316.5259" x2="-263.3967" y2="316.5259" gradientTransform="matrix(-3.046368e-10 6.7853 6.7853 3.046368e-10 -2006.4088 1849.6399)">
	<stop  offset="0" style="stop-color:#444D56"/>
	<stop  offset="1" style="stop-color:#41444B"/>
</linearGradient>
<path class="st11" d="M146.3,59l-8.5,3.3c-0.8,0.3-1.6-0.7-1.6-1.6v-3.5c0-0.9,0.8-1.9,1.6-1.6L146.3,59z"/>
<path class="st10" d="M146.3,59l-0.1-0.2l-8.5,3.3l-0.2,0c-0.2,0-0.5-0.2-0.7-0.4c-0.2-0.3-0.3-0.6-0.3-0.9v-3.5
	c0-0.3,0.1-0.7,0.3-0.9c0.2-0.3,0.5-0.4,0.7-0.4l0.2,0l8.5,3.3L146.3,59l-0.1-0.2L146.3,59l0.1-0.2l-8.5-3.3
	c-0.1-0.1-0.3-0.1-0.4-0.1c-0.5,0-0.8,0.3-1.1,0.6c-0.3,0.4-0.4,0.8-0.4,1.2v3.5c0,0.4,0.2,0.9,0.4,1.2c0.3,0.4,0.6,0.6,1.1,0.6
	c0.1,0,0.3,0,0.4-0.1L147,59l-0.6-0.2L146.3,59L146.3,59z"/>
<linearGradient id="SVGID_12_" gradientUnits="userSpaceOnUse" x1="-225.6072" y1="280.2512" x2="-224.6072" y2="280.2512" gradientTransform="matrix(56 0 0 -56 12654.7842 15748.7422)">
	<stop  offset="0" style="stop-color:#23262A"/>
	<stop  offset="0.478" style="stop-color:#1A1A1A"/>
	<stop  offset="0.738" style="stop-color:#1B1C1C"/>
	<stop  offset="0.832" style="stop-color:#202123"/>
	<stop  offset="0.899" style="stop-color:#282B2E"/>
	<stop  offset="0.952" style="stop-color:#343A3F"/>
	<stop  offset="0.998" style="stop-color:#434C55"/>
	<stop  offset="1" style="stop-color:#444D56"/>
</linearGradient>
<path class="st12" d="M41,26.7c-1.5,0-2.8,1.2-2.8,2.8v14.7H23.5c-1.5,0-2.8,1.2-2.8,2.8v15.6c0,1.5,1.2,2.8,2.8,2.8h14.7v14.7
	c0,1.5,1.2,2.8,2.8,2.8c0,0,0,0,0,0h15.6c1.5,0,2.8-1.2,2.8-2.8V65.3H74c1.5,0,2.8-1.2,2.8-2.8V46.9c0-1.5-1.2-2.8-2.8-2.8H59.3
	V29.4c0-1.5-1.2-2.8-2.8-2.8L41,26.7L41,26.7z"/>
<radialGradient id="SVGID_13_" cx="-237.7209" cy="276.7277" r="1" gradientTransform="matrix(-35.8679 34.0373 25.6982 27.0802 -15457.1621 664.2343)" gradientUnits="userSpaceOnUse">
	<stop  offset="0" style="stop-color:#444D56"/>
	<stop  offset="0.294" style="stop-color:#30353E"/>
	<stop  offset="0.601" style="stop-color:#23262A"/>
	<stop  offset="1" style="stop-color:#1A1A1A"/>
</radialGradient>
<path class="st13" d="M155.4,110.6c-10.3,0-18.6-8.3-18.6-18.6c0-10.3,8.3-18.6,18.6-18.6c10.3,0,18.6,8.3,18.6,18.6
	C173.9,102.3,165.6,110.6,155.4,110.6 M192.4,17.3c-7.3,0-14.4,2.1-20.5,6c-2.7,1.8-5.3,3.9-7.5,6.3c-6.2,6.7-10,15.7-10,25.6
	c0,4.5,0.8,8.8,2.2,12.8c-0.4,0-0.9,0-1.3,0c-13.3,0-24.1,10.8-24.1,24.1c0,3.4,0.7,6.8,2.1,9.9c3.8,8.3,12.2,14.1,21.9,14.1
	c9.2,0,17.2-5.1,21.2-12.7c1.9-3.5,2.9-7.4,2.8-11.4c0-0.4,0-0.8,0-1.2c4.2,1.5,8.6,2.3,13,2.3c20.9,0,37.9-17,37.9-37.9
	c0-3.2-0.4-6.3-1.2-9.3C225,29.4,210.1,17.3,192.4,17.3"/>
<linearGradient id="SVGID_14_" gradientUnits="userSpaceOnUse" x1="-166.5" y1="199.9044" x2="-165.5002" y2="199.9044" gradientTransform="matrix(1.613494e-10 -3.5938 -3.5938 -1.613494e-10 767.1988 -565.1608)">
	<stop  offset="0" style="stop-color:#1A1A1A"/>
	<stop  offset="0.541" style="stop-color:#25272C"/>
	<stop  offset="1" style="stop-color:#30353E"/>
</linearGradient>
<path class="st14" d="M48.8,29.6L45,33.2h7.6L48.8,29.6z"/>
<linearGradient id="SVGID_15_" gradientUnits="userSpaceOnUse" x1="-166.5" y1="199.9044" x2="-165.5" y2="199.9044" gradientTransform="matrix(1.613494e-10 -3.5938 -3.5938 -1.613494e-10 767.1988 -518.6248)">
	<stop  offset="0" style="stop-color:#1A1A1A"/>
	<stop  offset="0.541" style="stop-color:#25272C"/>
	<stop  offset="1" style="stop-color:#30353E"/>
</linearGradient>
<path class="st15" d="M48.8,79.7L45,76.1h7.6L48.8,79.7z"/>
<linearGradient id="SVGID_16_" gradientUnits="userSpaceOnUse" x1="-200.1064" y1="239.9365" x2="-199.1064" y2="239.9365" gradientTransform="matrix(3.397505e-10 -7.5674 -7.5674 -3.397505e-10 1887.7456 -1455.823)">
	<stop  offset="0" style="stop-color:#1A1A1A"/>
	<stop  offset="0.541" style="stop-color:#25272C"/>
	<stop  offset="1" style="stop-color:#30353E"/>
</linearGradient>
<path class="st16" d="M73.8,54.7l-3.6-3.8v7.6L73.8,54.7z"/>
<linearGradient id="SVGID_17_" gradientUnits="userSpaceOnUse" x1="-200.1064" y1="239.9365" x2="-199.1064" y2="239.9365" gradientTransform="matrix(3.397505e-10 -7.5674 -7.5674 -3.397505e-10 1841.2096 -1455.823)">
	<stop  offset="0" style="stop-color:#1A1A1A"/>
	<stop  offset="0.541" style="stop-color:#25272C"/>
	<stop  offset="1" style="stop-color:#30353E"/>
</linearGradient>
<path class="st17" d="M23.7,54.7l3.6-3.8v7.6L23.7,54.7z"/>
<linearGradient id="SVGID_18_" gradientUnits="userSpaceOnUse" x1="-250.8316" y1="300.3646" x2="-249.8315" y2="300.3646" gradientTransform="matrix(-5.078927e-10 11.3125 11.3125 5.078927e-10 -3337.3633 2886.6011)">
	<stop  offset="0" style="stop-color:#23262A"/>
	<stop  offset="1" style="stop-color:#606C74"/>
</linearGradient>
<path class="st18" d="M58.1,49.1c-0.3,0-0.6,0.2-0.8,0.5L53.8,54c-0.3,0.4-0.3,1,0,1.4l3.5,4.5c0.2,0.3,0.6,0.5,0.9,0.5l8.1,0
	c0.7,0,1.2-0.5,1.2-1.2c0,0,0,0,0,0v-8.8c0-0.6-0.5-1.2-1.2-1.2l-8.1-0.2L58.1,49.1L58.1,49.1z"/>
<linearGradient id="SVGID_19_" gradientUnits="userSpaceOnUse" x1="-250.8316" y1="300.3645" x2="-249.8314" y2="300.3645" gradientTransform="matrix(-5.078927e-10 11.3125 11.3125 5.078927e-10 -3360.8193 2886.511)">
	<stop  offset="0" style="stop-color:#23262A"/>
	<stop  offset="1" style="stop-color:#606C74"/>
</linearGradient>
<path class="st19" d="M39.5,49c0.3,0,0.6,0.2,0.8,0.5l3.5,4.4c0.3,0.4,0.3,1,0,1.4l-3.5,4.5c-0.2,0.3-0.6,0.5-0.9,0.5l-8.1,0
	c-0.7,0-1.2-0.5-1.2-1.2c0,0,0,0,0,0v-8.8c0-0.6,0.5-1.2,1.2-1.2l8.1-0.2L39.5,49L39.5,49z"/>
<linearGradient id="SVGID_20_" gradientUnits="userSpaceOnUse" x1="-246.9348" y1="295.7234" x2="-245.9348" y2="295.7234" gradientTransform="matrix(-6.283143e-10 13.9947 13.9947 6.283143e-10 -4089.8232 3515.1875)">
	<stop  offset="0" style="stop-color:#23262A"/>
	<stop  offset="1" style="stop-color:#606C74"/>
</linearGradient>
<path class="st20" d="M54.4,64c0-0.3-0.2-0.6-0.5-0.8l-4.4-3.5c-0.4-0.3-1-0.3-1.4,0l-4.5,3.5c-0.3,0.2-0.5,0.6-0.5,0.9l0,8.1
	c0,0.7,0.5,1.2,1.2,1.2c0,0,0,0,0,0H53c0.6,0,1.2-0.5,1.2-1.2l0.2-8.1L54.4,64L54.4,64z"/>
<linearGradient id="SVGID_21_" gradientUnits="userSpaceOnUse" x1="-246.9347" y1="295.7232" x2="-245.9347" y2="295.7232" gradientTransform="matrix(-6.283143e-10 13.9947 13.9947 6.283143e-10 -4089.7332 3491.7295)">
	<stop  offset="0" style="stop-color:#23262A"/>
	<stop  offset="1" style="stop-color:#606C74"/>
</linearGradient>
<path class="st21" d="M54.5,45.4c0,0.3-0.2,0.6-0.5,0.8l-4.4,3.5c-0.4,0.3-1,0.3-1.4,0l-4.5-3.5c-0.3-0.2-0.5-0.6-0.5-0.9l0-8.1
	c0-0.7,0.5-1.2,1.2-1.2c0,0,0,0,0,0h8.8c0.6,0,1.2,0.5,1.2,1.2l0.2,8.1L54.5,45.4L54.5,45.4z"/>
<linearGradient id="SVGID_22_" gradientUnits="userSpaceOnUse" x1="-260.4794" y1="311.8593" x2="-259.4794" y2="311.8593" gradientTransform="matrix(-3.444422e-10 7.6719 7.6719 3.444422e-10 -2343.5435 2005.2098)">
	<stop  offset="0" style="stop-color:#30353E"/>
	<stop  offset="0.378" style="stop-color:#3F474F"/>
	<stop  offset="1" style="stop-color:#606C74"/>
</linearGradient>
<path class="st22" d="M46.6,6.8h1v6.8h3.7v0.9h-4.8V6.8"/>
<linearGradient id="SVGID_23_" gradientUnits="userSpaceOnUse" x1="-260.4794" y1="311.8594" x2="-259.4794" y2="311.8594" gradientTransform="matrix(-3.444422e-10 7.6719 7.6719 3.444422e-10 -2200.0254 2005.2098)">
	<stop  offset="0" style="stop-color:#30353E"/>
	<stop  offset="0.378" style="stop-color:#3F474F"/>
	<stop  offset="1" style="stop-color:#606C74"/>
</linearGradient>
<path class="st23" d="M193.2,10.9c0.2,0.1,0.4,0.2,0.6,0.5c0.2,0.2,0.4,0.6,0.6,1l1.1,2.1h-1.1l-1-2c-0.3-0.5-0.5-0.9-0.7-1
	c-0.2-0.2-0.6-0.3-1-0.3h-1.1v3.2h-1V6.8h2.3c0.9,0,1.5,0.2,2,0.6s0.6,0.9,0.6,1.7c0,0.5-0.1,0.9-0.3,1.2
	C193.9,10.6,193.6,10.8,193.2,10.9 M190.6,7.7v2.7h1.3c0.5,0,0.9-0.1,1.1-0.3c0.3-0.2,0.4-0.6,0.4-1s-0.1-0.8-0.4-1
	c-0.3-0.2-0.6-0.3-1.1-0.3L190.6,7.7"/>
<linearGradient id="SVGID_24_" gradientUnits="userSpaceOnUse" x1="-293.0527" y1="355.4917" x2="-292.0527" y2="355.4917" gradientTransform="matrix(-1.550324e-10 3.4531 3.4531 1.550324e-10 -1128.4509 1075.7433)">
	<stop  offset="0" style="stop-color:#9BA2A6"/>
	<stop  offset="0.311" style="stop-color:#ADB2B5"/>
	<stop  offset="0.93" style="stop-color:#DADBDB"/>
	<stop  offset="1" style="stop-color:#E0E0E0"/>
</linearGradient>
<path class="st24" d="M92.8,64v0.4c-0.2-0.1-0.3-0.1-0.5-0.2c-0.2,0-0.3-0.1-0.4-0.1c-0.2,0-0.4,0-0.6,0.1c-0.1,0.1-0.2,0.2-0.2,0.4
	c0,0.1,0,0.3,0.1,0.3c0.1,0.1,0.3,0.1,0.5,0.2l0.3,0.1c0.3,0.1,0.6,0.2,0.7,0.3c0.2,0.2,0.2,0.4,0.2,0.6c0,0.3-0.1,0.6-0.3,0.7
	c-0.2,0.2-0.5,0.3-0.9,0.3c-0.2,0-0.3,0-0.5-0.1c-0.2,0-0.4-0.1-0.6-0.2v-0.5c0.2,0.1,0.4,0.2,0.5,0.2c0.2,0.1,0.3,0.1,0.5,0.1
	c0.3,0,0.5-0.1,0.6-0.2c0.1-0.1,0.2-0.3,0.2-0.4c0-0.1,0-0.3-0.2-0.4c-0.1-0.1-0.3-0.2-0.5-0.2l-0.3-0.1c-0.3-0.1-0.6-0.2-0.7-0.3
	c-0.2-0.1-0.2-0.3-0.2-0.6c0-0.3,0.1-0.5,0.3-0.7c0.2-0.2,0.5-0.3,0.9-0.3c0.2,0,0.3,0,0.5,0S92.6,63.9,92.8,64 M93.7,63.9h2.1v0.4
	h-1.7v1h1.6v0.4h-1.6v1.2h1.7v0.4h-2.1L93.7,63.9 M96.6,63.9H97v2.9h1.6v0.4h-2.1V63.9 M99.1,63.9h2.1v0.4h-1.7v1h1.6v0.4h-1.6v1.2
	h1.7v0.4h-2.1L99.1,63.9 M104.5,64.1v0.5c-0.1-0.1-0.3-0.2-0.5-0.3c-0.2-0.1-0.4-0.1-0.5-0.1c-0.4,0-0.7,0.1-0.9,0.3
	c-0.2,0.2-0.3,0.6-0.3,1c0,0.4,0.1,0.8,0.3,1c0.2,0.2,0.5,0.3,0.9,0.3c0.2,0,0.4,0,0.5-0.1c0.2-0.1,0.3-0.2,0.5-0.3v0.5
	c-0.3,0.2-0.7,0.3-1.1,0.3c-0.5,0-0.9-0.2-1.2-0.5c-0.3-0.3-0.4-0.7-0.4-1.3c0-0.5,0.1-1,0.4-1.3c0.3-0.3,0.7-0.5,1.2-0.5
	C103.8,63.8,104.2,63.9,104.5,64.1 M104.7,63.9h2.8v0.4h-1.2v2.9h-0.5v-2.9h-1.2L104.7,63.9"/>
<linearGradient id="SVGID_25_" gradientUnits="userSpaceOnUse" x1="-293.0524" y1="355.4921" x2="-292.0527" y2="355.4921" gradientTransform="matrix(-1.550324e-10 3.4531 3.4531 1.550324e-10 -1087.1249 1075.7433)">
	<stop  offset="0" style="stop-color:#9BA2A6"/>
	<stop  offset="0.311" style="stop-color:#ADB2B5"/>
	<stop  offset="0.93" style="stop-color:#DADBDB"/>
	<stop  offset="1" style="stop-color:#E0E0E0"/>
</linearGradient>
<path class="st25" d="M135.7,64v0.4c-0.2-0.1-0.3-0.1-0.5-0.2s-0.3-0.1-0.4-0.1c-0.2,0-0.4,0-0.6,0.1c-0.1,0.1-0.2,0.2-0.2,0.4
	c0,0.1,0,0.3,0.1,0.3c0.1,0.1,0.3,0.1,0.5,0.2l0.3,0.1c0.3,0.1,0.6,0.2,0.7,0.3c0.2,0.2,0.2,0.4,0.2,0.6c0,0.3-0.1,0.6-0.3,0.7
	c-0.2,0.2-0.5,0.3-0.9,0.3c-0.2,0-0.3,0-0.5-0.1c-0.2,0-0.4-0.1-0.6-0.2v-0.5c0.2,0.1,0.4,0.2,0.5,0.2c0.2,0.1,0.3,0.1,0.5,0.1
	c0.3,0,0.5-0.1,0.6-0.2c0.1-0.1,0.2-0.3,0.2-0.4c0-0.2-0.1-0.3-0.2-0.4c-0.1-0.1-0.3-0.2-0.5-0.2l-0.3-0.1c-0.3-0.1-0.6-0.2-0.7-0.3
	c-0.1-0.1-0.2-0.3-0.2-0.6c0-0.3,0.1-0.5,0.3-0.7c0.2-0.2,0.5-0.3,0.9-0.3c0.2,0,0.3,0,0.5,0C135.3,63.9,135.5,63.9,135.7,64
	 M136.1,63.9h2.8v0.4h-1.2v2.9h-0.5v-2.9h-1.2L136.1,63.9 M140.1,64.3l-0.6,1.7h1.2L140.1,64.3 M139.9,63.9h0.5l1.3,3.3h-0.5
	l-0.3-0.9h-1.5l-0.3,0.9h-0.5L139.9,63.9 M143.7,65.6c0.1,0,0.2,0.1,0.3,0.2c0.1,0.1,0.2,0.3,0.3,0.4l0.5,0.9h-0.5l-0.4-0.9
	c-0.1-0.2-0.2-0.4-0.3-0.4c-0.1-0.1-0.2-0.1-0.4-0.1h-0.5v1.4h-0.4v-3.3h1c0.4,0,0.7,0.1,0.9,0.2c0.2,0.2,0.3,0.4,0.3,0.7
	c0,0.2,0,0.4-0.1,0.5C144,65.5,143.9,65.6,143.7,65.6 M142.6,64.2v1.2h0.6c0.2,0,0.4-0.1,0.5-0.1c0.1-0.1,0.2-0.2,0.2-0.4
	s-0.1-0.3-0.2-0.4c-0.1-0.1-0.3-0.1-0.5-0.1L142.6,64.2 M144.5,63.9h2.8v0.4h-1.2v2.9h-0.5v-2.9h-1.2L144.5,63.9"/>
<linearGradient id="SVGID_26_" gradientUnits="userSpaceOnUse" x1="-267.0227" y1="319.655" x2="-266.0226" y2="319.655" gradientTransform="matrix(-2.827318e-10 6.2974 6.2974 2.827318e-10 -1892.3074 1704.8376)">
	<stop  offset="0" style="stop-color:#1A1A1A"/>
	<stop  offset="0.541" style="stop-color:#25272C"/>
	<stop  offset="1" style="stop-color:#30353E"/>
</linearGradient>
<path class="st26" d="M69.5,23.3l42.3,0c0.3,0.4,0.7,0.8,1.3,0.8h14.3c0.6,0,1.1-0.3,1.3-0.8h43.1c-2.8,1.8-5.3,3.9-7.5,6.3H76.9v0
	C74.7,27.2,72.2,25.1,69.5,23.3z"/>
<linearGradient id="SVGID_27_" gradientUnits="userSpaceOnUse" x1="-234.6048" y1="281.0343" x2="-233.6049" y2="281.0343" gradientTransform="matrix(-2.515614e-09 56.0313 56.0313 2.515614e-09 -15554.3457 13172.3594)">
	<stop  offset="0" style="stop-color:#23262A"/>
	<stop  offset="0.478" style="stop-color:#1A1A1A"/>
	<stop  offset="0.738" style="stop-color:#1B1C1C"/>
	<stop  offset="0.832" style="stop-color:#202123"/>
	<stop  offset="0.899" style="stop-color:#282B2E"/>
	<stop  offset="0.952" style="stop-color:#343A3F"/>
	<stop  offset="0.998" style="stop-color:#434C55"/>
	<stop  offset="1" style="stop-color:#444D56"/>
</linearGradient>
<path class="st27" d="M184.6,27.1c-1.5,0-2.8,1.2-2.8,2.8c0,0,0,0,0,0v14.7h-14.7c-1.5,0-2.8,1.2-2.8,2.8V63c0,1.5,1.2,2.8,2.8,2.8
	h14.7v14.7c0,1.5,1.2,2.8,2.8,2.8h15.6c1.5,0,2.8-1.2,2.8-2.8V65.7h14.7c1.5,0,2.8-1.2,2.8-2.8V47.4c0-1.5-1.2-2.8-2.8-2.8h-14.7
	V29.9c0-1.5-1.2-2.8-2.8-2.8L184.6,27.1L184.6,27.1z"/>
<linearGradient id="SVGID_28_" gradientUnits="userSpaceOnUse" x1="-244.4501" y1="292.7631" x2="-243.4501" y2="292.7631" gradientTransform="matrix(-7.402011e-10 16.4868 16.4868 7.402011e-10 -4634.354 4059.478)">
	<stop  offset="0" style="stop-color:#23262A"/>
	<stop  offset="1" style="stop-color:#606C74"/>
</linearGradient>
<path class="st28" d="M200.6,37.5c0,4.5-3.7,8.2-8.2,8.2s-8.2-3.7-8.2-8.2v0c0-4.5,3.8-8.2,8.3-8.2C196.9,29.4,200.6,33,200.6,37.5
	C200.6,37.5,200.6,37.5,200.6,37.5z"/>
<linearGradient id="SVGID_29_" gradientUnits="userSpaceOnUse" x1="-244.4506" y1="292.7635" x2="-243.4506" y2="292.7635" gradientTransform="matrix(-7.401786e-10 16.4863 16.4863 7.401786e-10 -4634.2144 4094.79)">
	<stop  offset="0" style="stop-color:#23262A"/>
	<stop  offset="1" style="stop-color:#606C74"/>
</linearGradient>
<path class="st29" d="M200.6,72.9c0,4.5-3.7,8.2-8.2,8.2c0,0,0,0,0,0c-4.5,0-8.2-3.7-8.2-8.2c0,0,0,0,0,0v0c0-4.5,3.8-8.2,8.3-8.2
	C196.9,64.8,200.6,68.4,200.6,72.9L200.6,72.9z"/>
<linearGradient id="SVGID_30_" gradientUnits="userSpaceOnUse" x1="-244.4507" y1="292.7631" x2="-243.4507" y2="292.7631" gradientTransform="matrix(-7.402011e-10 16.4868 16.4868 7.402011e-10 -4616.6421 4077.1921)">
	<stop  offset="0" style="stop-color:#23262A"/>
	<stop  offset="1" style="stop-color:#606C74"/>
</linearGradient>
<path class="st30" d="M201.8,55.2c0-4.5,3.7-8.2,8.2-8.2c0,0,0,0,0,0c4.5,0,8.2,3.7,8.2,8.2l0,0v0c0,4.5-3.8,8.2-8.3,8.2
	C205.5,63.3,201.9,59.7,201.8,55.2C201.8,55.2,201.8,55.2,201.8,55.2z"/>
<linearGradient id="SVGID_31_" gradientUnits="userSpaceOnUse" x1="-244.4501" y1="292.7631" x2="-243.4501" y2="292.7631" gradientTransform="matrix(-7.402011e-10 16.4868 16.4868 7.402011e-10 -4652.0664 4077.1921)">
	<stop  offset="0" style="stop-color:#23262A"/>
	<stop  offset="1" style="stop-color:#606C74"/>
</linearGradient>
<path class="st31" d="M166.4,55.2c0-4.5,3.8-8.2,8.3-8.2c4.5,0,8.1,3.7,8.2,8.1v0c0.1,4.5-3.6,8.3-8.1,8.3s-8.3-3.6-8.3-8.1
	C166.4,55.4,166.4,55.3,166.4,55.2L166.4,55.2L166.4,55.2z"/>
<path class="st32" d="M169.9,50.5V51h8.9v8.4h-8.4v-8.9H169.9V51V50.5h-0.5v9.9h10.4V50h-10.4v0.5H169.9z"/>
<path class="st33" d="M197.6,40.8v-0.5H188l4.4-7.6l4.8,8.3L197.6,40.8v-0.5V40.8l0.4-0.3l-5.7-9.8l-6.1,10.6h12.2l-0.4-0.8
	L197.6,40.8z"/>
<path class="st34" d="M204.4,55.2l0.5,0v0c0-2.8,2.3-5.1,5.1-5.1h0c2.8,0,5.1,2.3,5.1,5.1v0c0,2.8-2.3,5.1-5.1,5.1h0
	c-2.8,0-5.1-2.3-5.1-5.1v0L204.4,55.2h-0.5v0c0,3.4,2.8,6.1,6.1,6.1h0c3.4,0,6.1-2.8,6.1-6.1v0c0-3.4-2.8-6.1-6.1-6.1h0h0
	c-3.4,0-6.1,2.8-6.1,6.1v0v0L204.4,55.2L204.4,55.2z"/>
<linearGradient id="SVGID_32_" gradientUnits="userSpaceOnUse" x1="-263.9638" y1="316.0104" x2="-262.9638" y2="316.0104" gradientTransform="matrix(-3.085787e-10 6.8731 6.8731 3.085787e-10 -2067.4641 1849.8367)">
	<stop  offset="0" style="stop-color:#9BA2A6"/>
	<stop  offset="0.311" style="stop-color:#ADB2B5"/>
	<stop  offset="0.93" style="stop-color:#DADBDB"/>
	<stop  offset="1" style="stop-color:#E0E0E0"/>
</linearGradient>
<path class="st35" d="M107.5,35.9h0.8V38h-0.8c-0.4-1.3-2.3-1.5-3.5-1.5c-1.1,0-1.9,0.3-1.9,0.8c0,0.6,1.5,0.6,2.7,0.8
	c1.6,0.2,3.8,0.2,3.8,2.2c0,1.6-2.1,2.1-3.5,2.1c-2.4,0-3.1-0.7-3.7-0.7c-0.2,0-0.2,0.1-0.2,0.4h-0.8v-2.3h0.8
	c0.3,1.4,2.4,1.7,3.3,1.7c0.6,0,2.3-0.1,2.3-0.9c0-0.7-1.1-0.7-2.3-0.9c-1.4-0.2-4.2-0.2-4.2-2.1c0-1.4,1.6-2.1,3.4-2.1
	c2.1,0,3.2,0.7,3.5,0.7C107.4,36.3,107.5,36.1,107.5,35.9L107.5,35.9z"/>
<linearGradient id="SVGID_33_" gradientUnits="userSpaceOnUse" x1="-268.1353" y1="320.9781" x2="-267.1354" y2="320.9781" gradientTransform="matrix(-2.743765e-10 6.1113 6.1113 2.743765e-10 -1836.2117 1674.6245)">
	<stop  offset="0" style="stop-color:#9BA2A6"/>
	<stop  offset="0.311" style="stop-color:#ADB2B5"/>
	<stop  offset="0.93" style="stop-color:#DADBDB"/>
	<stop  offset="1" style="stop-color:#E0E0E0"/>
</linearGradient>
<path class="st36" d="M129.2,42.1h-1.3l-5-4.3V41c0,0.2,0.1,0.3,0.3,0.3h0.9v0.8h-3.8v-0.8h0.9c0.2,0,0.3-0.1,0.3-0.3v-3.9
	c0-0.2-0.1-0.3-0.3-0.3h-0.9V36h3.1l4.4,3.7v-2.6c0-0.2-0.1-0.3-0.3-0.3h-0.9V36h3.8v0.8h-0.9c-0.2,0-0.3,0.1-0.3,0.3
	C129.2,37.1,129.2,42.1,129.2,42.1z"/>
<linearGradient id="SVGID_34_" gradientUnits="userSpaceOnUse" x1="-268.1353" y1="320.978" x2="-267.1354" y2="320.978" gradientTransform="matrix(-2.743765e-10 6.1113 6.1113 2.743765e-10 -1825.5796 1674.6245)">
	<stop  offset="0" style="stop-color:#9BA2A6"/>
	<stop  offset="0.311" style="stop-color:#ADB2B5"/>
	<stop  offset="0.93" style="stop-color:#DADBDB"/>
	<stop  offset="1" style="stop-color:#E0E0E0"/>
</linearGradient>
<path class="st37" d="M137.3,36h3.7v0.8h-0.7c-0.3,0-0.6,0.1-0.8,0.3l-2.5,2.6V41c0,0.2,0.1,0.3,0.3,0.3h0.9v0.8h-4.4v-0.8h0.9
	c0.2,0,0.3-0.1,0.3-0.3v-1.2l-2.5-2.7c-0.2-0.2-0.5-0.3-0.8-0.3H131V36h4.5v0.8h-0.4c-0.1,0-0.2,0-0.2,0.1l0,0.2l1.5,1.6l1.5-1.6
	l0-0.2c0-0.1-0.1-0.1-0.2-0.1h-0.4L137.3,36L137.3,36z"/>
<linearGradient id="SVGID_35_" gradientUnits="userSpaceOnUse" x1="-263.9645" y1="316.0089" x2="-262.9644" y2="316.0089" gradientTransform="matrix(-3.085743e-10 6.873 6.873 3.085743e-10 -2057.103 1849.8163)">
	<stop  offset="0" style="stop-color:#9BA2A6"/>
	<stop  offset="0.311" style="stop-color:#ADB2B5"/>
	<stop  offset="0.93" style="stop-color:#DADBDB"/>
	<stop  offset="1" style="stop-color:#E0E0E0"/>
</linearGradient>
<path class="st38" d="M114.8,35.6c-2.9,0-4.8,1.5-4.8,3.4s1.9,3.4,4.8,3.4s4.8-1.5,4.8-3.4S117.7,35.6,114.8,35.6z M114.8,36.5
	c1.6,0,2.7,1.1,2.7,2.5s-1.1,2.5-2.7,2.5s-2.7-1.1-2.7-2.5S113.2,36.5,114.8,36.5z"/>
<path class="st39" d="M188.5,77.7l8.5-8.5l-0.7-0.7l-8.5,8.5L188.5,77.7z M197.1,77l-8.5-8.5l-0.7,0.7l8.5,8.5L197.1,77z"/>
<path class="st40" d="M85.3,73.5c10.3,0,18.6,8.3,18.6,18.6c0,10.3-8.3,18.6-18.6,18.6S66.7,102.3,66.7,92
	C66.7,81.8,75,73.5,85.3,73.5z M155.4,73.5c10.3,0,18.6,8.3,18.6,18.6c0,10.3-8.3,18.6-18.6,18.6c-10.3,0-18.6-8.3-18.6-18.6
	C136.8,81.8,145.1,73.5,155.4,73.5z"/>
<radialGradient id="SVGID_36_" cx="-213.5959" cy="290.3336" r="1" gradientTransform="matrix(16.2091 0 0 -16.2091 3547.4998 4798.0688)" gradientUnits="userSpaceOnUse">
	<stop  offset="0" style="stop-color:#23262A"/>
	<stop  offset="0.405" style="stop-color:#25292D"/>
	<stop  offset="0.754" style="stop-color:#2C3038"/>
	<stop  offset="0.883" style="stop-color:#30353E"/>
	<stop  offset="0.926" style="stop-color:#444D56"/>
	<stop  offset="0.929" style="stop-color:#414952"/>
	<stop  offset="0.94" style="stop-color:#373E47"/>
	<stop  offset="0.956" style="stop-color:#323740"/>
	<stop  offset="1" style="stop-color:#30353E"/>
</radialGradient>
<path class="st41" d="M101.5,92c0,9-7.3,16.2-16.2,16.2S69.1,101,69.1,92s7.3-16.2,16.2-16.2S101.5,83.1,101.5,92z"/>
<radialGradient id="SVGID_37_" cx="-213.5961" cy="290.3331" r="1" gradientTransform="matrix(16.2092 0 0 -16.2092 3617.5891 4798.0903)" gradientUnits="userSpaceOnUse">
	<stop  offset="0" style="stop-color:#23262A"/>
	<stop  offset="0.405" style="stop-color:#25292D"/>
	<stop  offset="0.754" style="stop-color:#2C3038"/>
	<stop  offset="0.883" style="stop-color:#30353E"/>
	<stop  offset="0.926" style="stop-color:#444D56"/>
	<stop  offset="0.929" style="stop-color:#414952"/>
	<stop  offset="0.94" style="stop-color:#373E47"/>
	<stop  offset="0.956" style="stop-color:#323740"/>
	<stop  offset="1" style="stop-color:#30353E"/>
</radialGradient>
<path class="st42" d="M171.6,92c0,9-7.3,16.2-16.2,16.2c-9,0-16.2-7.3-16.2-16.2s7.3-16.2,16.2-16.2C164.3,75.8,171.6,83.1,171.6,92
	z"/>
<linearGradient id="SVGID_38_" gradientUnits="userSpaceOnUse" x1="-261.7807" y1="320.5826" x2="-260.7808" y2="320.5826" gradientTransform="matrix(-2.993031e-10 6.6665 6.6665 2.993031e-10 -2016.4756 1822.3169)">
	<stop  offset="0" style="stop-color:#444D56"/>
	<stop  offset="1" style="stop-color:#41444B"/>
</linearGradient>
<path class="st43" d="M116.4,77.2h8.5c0.9,0,1.6,0.7,1.6,1.6v3.5c0,0.9-0.7,1.6-1.6,1.6l0,0h-8.5c-0.9,0-1.6-0.7-1.6-1.6v-3.5
	C114.9,77.9,115.6,77.2,116.4,77.2z"/>
<path class="st10" d="M116.4,77.2v0.3h8.5c0.7,0,1.3,0.6,1.3,1.3v3.5c0,0.7-0.6,1.3-1.3,1.3h-8.5c-0.7,0-1.3-0.6-1.3-1.3v-3.5
	c0-0.7,0.6-1.3,1.3-1.3v-0.5c-1,0-1.8,0.8-1.8,1.8c0,0,0,0,0,0v3.5c0,1,0.8,1.8,1.8,1.8c0,0,0,0,0,0h8.5c1,0,1.8-0.8,1.8-1.8v-3.5
	c0-1-0.8-1.8-1.8-1.8l0,0h-8.5V77.2z"/>
<linearGradient id="SVGID_39_" gradientUnits="userSpaceOnUse" x1="164.6769" y1="608.6505" x2="164.6769" y2="600.6415" gradientTransform="matrix(1 0 0 -1 -43.9995 656.2655)">
	<stop  offset="0" style="stop-color:#9BA2A6"/>
	<stop  offset="0.311" style="stop-color:#ADB2B5"/>
	<stop  offset="0.93" style="stop-color:#DADBDB"/>
	<stop  offset="1" style="stop-color:#E0E0E0"/>
</linearGradient>
<path class="st44" d="M119,54v-0.3l-0.4,0.1C118.6,53.9,119,54,119,54z M119.4,47.6v7.5l1.7,0.5v-6.3c0-0.3,0.1-0.5,0.3-0.4
	c0.3,0.1,0.3,0.3,0.3,0.6v2.5c1.1,0.5,1.9,0,1.9-1.3c0-1.4-0.5-2-1.9-2.5C120.9,48,120.2,47.8,119.4,47.6z M119,53.1v-0.7l-0.4-0.1
	c0,0-1.9,0.7-2,0.7c-0.1,0-0.4,0.1-0.4,0.1l1.4,0.5C117.7,53.6,119,53.1,119,53.1z M121.4,53.1v0.8l1.3-0.5L121.4,53.1z M121.4,54.5
	v0.2l1.1,0.4c0.9-0.3,1.7-0.6,2.6-0.9l-1.5-0.5L121.4,54.5z M121.4,55.5l1.1-0.4l-1.1-0.4V55.5z M118.6,53.9l-0.4,0.1
	c-0.3,0.1-0.8,0.2-1.1,0c-0.3-0.1,0-0.3,0.2-0.3l0.4-0.1l-1.5-0.5c-0.4,0.2-0.8,0.4-0.8,0.7s0.2,0.5,1,0.7c0.8,0.2,1.7,0.3,2.6,0.1
	V54L118.6,53.9z M119,52.1l-0.4,0.1l0.4,0.1C119,52.4,119,52.1,119,52.1z M125.9,53.4c0-0.3-0.4-0.5-0.9-0.6
	c-0.6-0.2-1.2-0.3-1.8-0.3c-0.6,0-1.2,0.1-1.8,0.3v0.2l1.3,0.4l0.6-0.2c0.1,0,0.3-0.1,0.4-0.1c0.2,0,0.3,0,0.5,0c0,0,0.2,0,0.3,0.1
	c0,0.1-0.1,0.2-0.3,0.2c-0.1,0.1-0.5,0.2-0.5,0.2l1.5,0.4C125.4,54.1,125.9,53.8,125.9,53.4z"/>
<g>
	
		<linearGradient id="SVGID_40_" gradientUnits="userSpaceOnUse" x1="153.6962" y1="598.8618" x2="153.6962" y2="595.2635" gradientTransform="matrix(1 0 0 -1 -43.9995 656.2655)">
		<stop  offset="0" style="stop-color:#9BA2A6"/>
		<stop  offset="0.311" style="stop-color:#ADB2B5"/>
		<stop  offset="0.93" style="stop-color:#DADBDB"/>
		<stop  offset="1" style="stop-color:#E0E0E0"/>
	</linearGradient>
	<path class="st45" d="M108.6,57.4V61h0.5v-3.2h0.6c0,0,0.6-0.1,0.6,0.7c0,0,0,0.8-0.3,0.8h-0.5v0.3h0.5c0,0,0.6,0,0.8-0.5
		c0,0,0.2-0.7,0-1.3c0,0-0.1-0.4-0.8-0.3L108.6,57.4z"/>
	
		<linearGradient id="SVGID_41_" gradientUnits="userSpaceOnUse" x1="155.5619" y1="598.8475" x2="155.5619" y2="595.2835" gradientTransform="matrix(1 0 0 -1 -43.9995 656.2655)">
		<stop  offset="0" style="stop-color:#9BA2A6"/>
		<stop  offset="0.311" style="stop-color:#ADB2B5"/>
		<stop  offset="0.93" style="stop-color:#DADBDB"/>
		<stop  offset="1" style="stop-color:#E0E0E0"/>
	</linearGradient>
	<path class="st46" d="M111.3,57.4h0.5V61h-0.5V57.4z"/>
	
		<linearGradient id="SVGID_42_" gradientUnits="userSpaceOnUse" x1="170.6954" y1="598.0585" x2="170.6954" y2="595.2835" gradientTransform="matrix(1 0 0 -1 -43.9995 656.2655)">
		<stop  offset="0" style="stop-color:#9BA2A6"/>
		<stop  offset="0.311" style="stop-color:#ADB2B5"/>
		<stop  offset="0.93" style="stop-color:#DADBDB"/>
		<stop  offset="1" style="stop-color:#E0E0E0"/>
	</linearGradient>
	<path class="st47" d="M126.4,58.2h0.5V61h-0.5V58.2z"/>
	
		<linearGradient id="SVGID_43_" gradientUnits="userSpaceOnUse" x1="170.6954" y1="598.8475" x2="170.6954" y2="598.3795" gradientTransform="matrix(1 0 0 -1 -43.9995 656.2655)">
		<stop  offset="0" style="stop-color:#9BA2A6"/>
		<stop  offset="0.311" style="stop-color:#ADB2B5"/>
		<stop  offset="0.93" style="stop-color:#DADBDB"/>
		<stop  offset="1" style="stop-color:#E0E0E0"/>
	</linearGradient>
	<path class="st48" d="M126.4,57.4h0.5v0.5h-0.5V57.4z"/>
	
		<linearGradient id="SVGID_44_" gradientUnits="userSpaceOnUse" x1="157.4663" y1="598.0707" x2="157.4663" y2="595.2684" gradientTransform="matrix(1 0 0 -1 -43.9995 656.2655)">
		<stop  offset="0" style="stop-color:#9BA2A6"/>
		<stop  offset="0.311" style="stop-color:#ADB2B5"/>
		<stop  offset="0.93" style="stop-color:#DADBDB"/>
		<stop  offset="1" style="stop-color:#E0E0E0"/>
	</linearGradient>
	<path class="st49" d="M112.7,58.6v-0.4h0.8c0,0,0.8-0.1,1,0.6c0,0.3,0,0.6,0,0.8V61h-1.1c0,0-1.1,0.1-1.1-0.9c0,0-0.1-0.8,0.9-0.9
		h0.3v0.3c0,0-0.5-0.1-0.6,0.2c-0.1,0.2-0.1,0.5,0,0.7c0,0,0.1,0.2,0.5,0.2h0.5V59c0,0,0-0.5-0.4-0.5L112.7,58.6L112.7,58.6z"/>
	
		<linearGradient id="SVGID_45_" gradientUnits="userSpaceOnUse" x1="167.015" y1="598.0707" x2="167.015" y2="595.2684" gradientTransform="matrix(1 0 0 -1 -43.9995 656.2655)">
		<stop  offset="0" style="stop-color:#9BA2A6"/>
		<stop  offset="0.311" style="stop-color:#ADB2B5"/>
		<stop  offset="0.93" style="stop-color:#DADBDB"/>
		<stop  offset="1" style="stop-color:#E0E0E0"/>
	</linearGradient>
	<path class="st50" d="M122.3,58.6v-0.4h0.8c0,0,0.8-0.1,1,0.6c0,0.3,0,0.6,0,0.8V61H123c0,0-1.1,0.1-1.1-0.9c0,0-0.1-0.8,0.9-0.9
		h0.3v0.3c0,0-0.5-0.1-0.6,0.2c-0.1,0.2-0.1,0.5,0,0.7c0,0,0.1,0.2,0.5,0.2h0.4V59c0,0,0-0.5-0.4-0.5L122.3,58.6L122.3,58.6z"/>
	
		<linearGradient id="SVGID_46_" gradientUnits="userSpaceOnUse" x1="160.1724" y1="598.0585" x2="160.1724" y2="593.9195" gradientTransform="matrix(1 0 0 -1 -43.9995 656.2655)">
		<stop  offset="0" style="stop-color:#9BA2A6"/>
		<stop  offset="0.311" style="stop-color:#ADB2B5"/>
		<stop  offset="0.93" style="stop-color:#DADBDB"/>
		<stop  offset="1" style="stop-color:#E0E0E0"/>
	</linearGradient>
	<path class="st51" d="M117,58.2h0.5l-1.7,4.1h-0.4l0.5-1.4c0,0,0.1-0.1-0.1-0.5l-0.9-2.3h0.6l0.7,2C116.2,60.2,117,58.2,117,58.2z"
		/>
	
		<linearGradient id="SVGID_47_" gradientUnits="userSpaceOnUse" x1="162.8269" y1="598.8481" x2="162.8269" y2="595.2728" gradientTransform="matrix(1 0 0 -1 -43.9995 656.2655)">
		<stop  offset="0" style="stop-color:#9BA2A6"/>
		<stop  offset="0.311" style="stop-color:#ADB2B5"/>
		<stop  offset="0.93" style="stop-color:#DADBDB"/>
		<stop  offset="1" style="stop-color:#E0E0E0"/>
	</linearGradient>
	<path class="st52" d="M119.6,57.8v-0.4h-0.8c0,0-1,0-1,0.8c0,0,0,0.7,0.1,0.9c0,0,0.2,0.3,0.8,0.3c0,0,0.6-0.1,0.6,0.5
		c0,0,0,0.7-0.4,0.8c-0.1,0-0.3,0-0.4,0l-0.5,0V61h1c0,0,0.7,0,0.8-0.5c0.1-0.4,0.1-0.8,0-1.1c0,0-0.1-0.5-0.8-0.5
		c0,0-0.5,0-0.6-0.2c-0.1-0.2-0.1-0.5,0-0.7c0,0,0.1-0.2,0.4-0.2C118.9,57.8,119.6,57.8,119.6,57.8z"/>
	
		<linearGradient id="SVGID_48_" gradientUnits="userSpaceOnUse" x1="165.0413" y1="598.5075" x2="165.0413" y2="595.2835" gradientTransform="matrix(1 0 0 -1 -43.9995 656.2655)">
		<stop  offset="0" style="stop-color:#9BA2A6"/>
		<stop  offset="0.311" style="stop-color:#ADB2B5"/>
		<stop  offset="0.93" style="stop-color:#DADBDB"/>
		<stop  offset="1" style="stop-color:#E0E0E0"/>
	</linearGradient>
	<path class="st53" d="M121,60.2v-1.6h0.6v-0.3H121v-0.5h-0.6v2.7c0,0.5,0.5,0.5,0.5,0.5h0.6v-0.3h-0.2c0,0-0.3,0-0.3-0.2
		C121,60.5,121,60.2,121,60.2z"/>
	
		<linearGradient id="SVGID_49_" gradientUnits="userSpaceOnUse" x1="169.3263" y1="598.5075" x2="169.3263" y2="595.2835" gradientTransform="matrix(1 0 0 -1 -43.9995 656.2655)">
		<stop  offset="0" style="stop-color:#9BA2A6"/>
		<stop  offset="0.311" style="stop-color:#ADB2B5"/>
		<stop  offset="0.93" style="stop-color:#DADBDB"/>
		<stop  offset="1" style="stop-color:#E0E0E0"/>
	</linearGradient>
	<path class="st54" d="M125.3,60.2v-1.6h0.6v-0.3h-0.6v-0.5h-0.6v2.7c0,0.5,0.5,0.5,0.5,0.5h0.6v-0.3h-0.2c0,0-0.3,0-0.3-0.2
		C125.3,60.5,125.3,60.2,125.3,60.2z"/>
	
		<linearGradient id="SVGID_50_" gradientUnits="userSpaceOnUse" x1="175.7004" y1="598.0588" x2="175.7004" y2="595.2735" gradientTransform="matrix(1 0 0 -1 -43.9995 656.2655)">
		<stop  offset="0" style="stop-color:#9BA2A6"/>
		<stop  offset="0.311" style="stop-color:#ADB2B5"/>
		<stop  offset="0.93" style="stop-color:#DADBDB"/>
		<stop  offset="1" style="stop-color:#E0E0E0"/>
	</linearGradient>
	<path class="st55" d="M130.6,58.2h1.2c0,0,0.6,0,0.8,0.3c0,0,0.2,0.2,0.2,0.8V61h-0.5v-1.7c0,0,0-0.6-0.5-0.6h-0.7V61h-0.5
		L130.6,58.2L130.6,58.2L130.6,58.2z"/>
	
		<linearGradient id="SVGID_51_" gradientUnits="userSpaceOnUse" x1="172.763" y1="598.0418" x2="172.763" y2="595.2614" gradientTransform="matrix(1 0 0 -1 -43.9995 656.2655)">
		<stop  offset="0" style="stop-color:#9BA2A6"/>
		<stop  offset="0.311" style="stop-color:#ADB2B5"/>
		<stop  offset="0.93" style="stop-color:#DADBDB"/>
		<stop  offset="1" style="stop-color:#E0E0E0"/>
	</linearGradient>
	<path class="st56" d="M127.7,60.3c-0.2-0.6,0-1.4,0-1.4c0.1-0.3,0.2-0.5,0.5-0.6c0.2-0.1,0.9-0.1,0.9-0.1c0.3,0,0.6,0.2,0.8,0.5
		c0.2,0.5,0.1,1.4,0.1,1.4c-0.1,0.6-0.4,0.8-0.4,0.8c-0.4,0.2-1.3,0-1.3,0C127.9,60.8,127.7,60.6,127.7,60.3z M129.1,58.7
		c-0.2-0.1-0.5-0.1-0.7,0c0,0-0.4,0.2-0.2,1.5c0,0,0,0.4,0.4,0.4c0,0,0.5,0.1,0.6-0.2c0.1-0.1,0.1-0.3,0.1-0.5
		C129.4,60,129.5,59,129.1,58.7L129.1,58.7z"/>
</g>
<g>
	
		<linearGradient id="SVGID_52_" gradientUnits="userSpaceOnUse" x1="156.5819" y1="584.5025" x2="156.5819" y2="581.1115" gradientTransform="matrix(1 0 0 -1 -43.9995 656.2655)">
		<stop  offset="0" style="stop-color:#9BA2A6"/>
		<stop  offset="0.311" style="stop-color:#ADB2B5"/>
		<stop  offset="0.93" style="stop-color:#DADBDB"/>
		<stop  offset="1" style="stop-color:#E0E0E0"/>
	</linearGradient>
	<path class="st57" d="M112.3,71.8h0.6l1.3,3.4h-0.6l-0.3-0.9h-1.4l-0.3,0.9H111L112.3,71.8z M112.1,73.8h1l-0.5-1.5h0
		C112.6,72.3,112.1,73.8,112.1,73.8z"/>
	
		<linearGradient id="SVGID_53_" gradientUnits="userSpaceOnUse" x1="159.8494" y1="584.5025" x2="159.8494" y2="581.1115" gradientTransform="matrix(1 0 0 -1 -43.9995 656.2655)">
		<stop  offset="0" style="stop-color:#9BA2A6"/>
		<stop  offset="0.311" style="stop-color:#ADB2B5"/>
		<stop  offset="0.93" style="stop-color:#DADBDB"/>
		<stop  offset="1" style="stop-color:#E0E0E0"/>
	</linearGradient>
	<path class="st58" d="M114.5,71.8h0.6l1.5,2.5h0v-2.5h0.5v3.4h-0.6l-1.5-2.5h0v2.5h-0.5L114.5,71.8L114.5,71.8z"/>
	
		<linearGradient id="SVGID_54_" gradientUnits="userSpaceOnUse" x1="163.1769" y1="584.5025" x2="163.1769" y2="581.1115" gradientTransform="matrix(1 0 0 -1 -43.9995 656.2655)">
		<stop  offset="0" style="stop-color:#9BA2A6"/>
		<stop  offset="0.311" style="stop-color:#ADB2B5"/>
		<stop  offset="0.93" style="stop-color:#DADBDB"/>
		<stop  offset="1" style="stop-color:#E0E0E0"/>
	</linearGradient>
	<path class="st59" d="M118.9,71.8h0.6l1.3,3.4h-0.6l-0.3-0.9h-1.4l-0.3,0.9h-0.6C117.6,75.2,118.9,71.8,118.9,71.8z M118.7,73.8h1
		l-0.5-1.5h0L118.7,73.8z"/>
	
		<linearGradient id="SVGID_55_" gradientUnits="userSpaceOnUse" x1="166.2794" y1="584.5025" x2="166.2794" y2="581.1115" gradientTransform="matrix(1 0 0 -1 -43.9995 656.2655)">
		<stop  offset="0" style="stop-color:#9BA2A6"/>
		<stop  offset="0.311" style="stop-color:#ADB2B5"/>
		<stop  offset="0.93" style="stop-color:#DADBDB"/>
		<stop  offset="1" style="stop-color:#E0E0E0"/>
	</linearGradient>
	<path class="st60" d="M121.1,71.8h0.6v2.9h1.7v0.5h-2.3L121.1,71.8L121.1,71.8z"/>
	
		<linearGradient id="SVGID_56_" gradientUnits="userSpaceOnUse" x1="169.2889" y1="584.5836" x2="169.2889" y2="581.0325" gradientTransform="matrix(1 0 0 -1 -43.9995 656.2655)">
		<stop  offset="0" style="stop-color:#9BA2A6"/>
		<stop  offset="0.311" style="stop-color:#ADB2B5"/>
		<stop  offset="0.93" style="stop-color:#DADBDB"/>
		<stop  offset="1" style="stop-color:#E0E0E0"/>
	</linearGradient>
	<path class="st61" d="M125.3,71.7c0.5,0,0.9,0.2,1.2,0.5s0.4,0.8,0.4,1.3c0,0.5-0.1,0.9-0.4,1.3c-0.3,0.3-0.7,0.5-1.2,0.5
		s-0.9-0.2-1.2-0.5c-0.3-0.3-0.4-0.8-0.4-1.3s0.1-0.9,0.4-1.3c0.1-0.2,0.3-0.3,0.5-0.4C124.8,71.7,125,71.7,125.3,71.7z M124.5,74.4
		c0.2,0.3,0.4,0.4,0.8,0.4s0.6-0.1,0.8-0.4c0.2-0.3,0.3-0.6,0.3-0.9s-0.1-0.7-0.3-0.9s-0.4-0.4-0.8-0.4c-0.3,0-0.6,0.1-0.8,0.4
		c-0.2,0.3-0.3,0.6-0.3,0.9C124.2,73.8,124.3,74.1,124.5,74.4z"/>
	
		<linearGradient id="SVGID_57_" gradientUnits="userSpaceOnUse" x1="172.8549" y1="584.5826" x2="172.8549" y2="581.0305" gradientTransform="matrix(1 0 0 -1 -43.9995 656.2655)">
		<stop  offset="0" style="stop-color:#9BA2A6"/>
		<stop  offset="0.311" style="stop-color:#ADB2B5"/>
		<stop  offset="0.93" style="stop-color:#DADBDB"/>
		<stop  offset="1" style="stop-color:#E0E0E0"/>
	</linearGradient>
	<path class="st62" d="M130.4,75.2H130l-0.1-0.4c-0.2,0.2-0.3,0.3-0.5,0.4s-0.4,0.1-0.6,0.1c-0.2,0-0.4,0-0.6-0.1
		c-0.4-0.2-0.7-0.5-0.8-0.9c-0.1-0.2-0.1-0.4-0.1-0.7c0-0.5,0.1-0.9,0.4-1.3c0.1-0.2,0.3-0.3,0.5-0.4c0.2-0.1,0.4-0.1,0.6-0.1
		c0.6,0,1.1,0.2,1.3,0.7c0.1,0.2,0.1,0.3,0.2,0.5h-0.6c0-0.2-0.1-0.4-0.3-0.5c-0.2-0.1-0.4-0.2-0.5-0.2c-0.4,0-0.6,0.1-0.8,0.4
		c-0.2,0.3-0.3,0.6-0.3,0.9c0,0.3,0.1,0.6,0.3,0.9c0.2,0.3,0.4,0.4,0.8,0.4c0.3,0,0.5-0.1,0.7-0.2c0.2-0.2,0.3-0.4,0.3-0.7H129v-0.5
		h1.4L130.4,75.2L130.4,75.2z"/>
</g>
<path class="st10" d="M115.9,89.4v-1.2c0-0.4,0.3-0.7,0.7-0.7h8c0.4,0,0.7,0.3,0.7,0.7v1.2c0,0.4-0.3,0.7-0.7,0.7l0,0h-8
	C116.3,90.1,115.9,89.8,115.9,89.4C115.9,89.4,115.9,89.4,115.9,89.4z"/>
<path class="st63" d="M124.3,89.8h-7.3c-0.2,0-0.4-0.2-0.4-0.4v-1.3c0-0.2,0.2-0.4,0.4-0.4h7.3c0.2,0,0.4,0.2,0.4,0.4v1.3
	C124.7,89.7,124.5,89.8,124.3,89.8z"/>
<g>
	<path class="st64" d="M111.4,25.5H110c-0.3,0-0.5,0-0.7,0.1c-0.2,0-0.3,0.1-0.5,0.2c-0.1,0.1-0.2,0.1-0.3,0.2s-0.1,0.2-0.1,0.3
		c0,0.1,0,0.2,0.1,0.3c0.1,0.1,0.1,0.2,0.2,0.2c0.1,0.1,0.3,0.1,0.4,0.2c0.2,0,0.4,0.1,0.7,0.1h1.6L111.4,25.5L111.4,25.5z
		 M110.4,26.7h-0.3c-0.2,0-0.3,0-0.4,0c-0.1,0-0.2-0.1-0.2-0.1l-0.1-0.1l0-0.1l0-0.1l0.1-0.1c0,0,0.1-0.1,0.2-0.1c0.1,0,0.2,0,0.4,0
		h0.4L110.4,26.7L110.4,26.7z M105.1,27.1h1v-0.8l0-0.1l0.1-0.1l0.1-0.1c0.1,0,0.2,0,0.3,0c0.1,0,0.2,0,0.3,0L107,26l0.1,0.1l0,0.1
		v0.8h1v-0.9c0-0.2-0.1-0.4-0.4-0.5c-0.2-0.1-0.6-0.2-1.1-0.2s-0.9,0.1-1.1,0.2c-0.2,0.1-0.4,0.3-0.4,0.5L105.1,27.1L105.1,27.1z
		 M103.6,26.1l-0.3,0.5h0l-0.3-0.5C103,26.1,103.6,26.1,103.6,26.1z M104.9,25.5h-1l-0.1,0.2h-1l-0.1-0.2h-1l1.2,1.5h1
		C103.8,27.1,104.9,25.5,104.9,25.5z M101.4,25.5H99v0.4h1.4v1.1h1L101.4,25.5z M98.8,26.1l-0.1-0.2l-0.2-0.1
		c-0.1,0-0.2-0.1-0.3-0.1c-0.2,0-0.4-0.1-0.6-0.1c-0.3,0-0.5,0-0.8,0c-0.2,0-0.3,0-0.5,0.1s-0.3,0.1-0.3,0.2C96,25.9,96,26,96,26.1
		l0.1,0.2l0.2,0.1c0.1,0,0.2,0.1,0.3,0.1c0.2,0,0.4,0.1,0.7,0.1c0.1,0,0.2,0,0.3,0l0.2,0l0.1,0.1l0,0.1l-0.1,0l-0.1,0l-0.1,0l-0.2,0
		l-0.1,0l-0.1,0l0-0.1h-0.9c0,0.1,0,0.2,0.1,0.2c0.1,0.1,0.2,0.1,0.3,0.2s0.3,0.1,0.4,0.1c0.3,0,0.6,0,1,0c0.2,0,0.3,0,0.4-0.1
		c0.1,0,0.2-0.1,0.3-0.2l0.1-0.2l-0.1-0.2c-0.1,0-0.1-0.1-0.3-0.1s-0.2-0.1-0.3-0.1c-0.2,0-0.5-0.1-0.7-0.1l-0.2,0l-0.1,0l0-0.1
		l0-0.1l0.1,0l0.1,0l0.1,0c0.1,0,0.2,0,0.3,0c0.1,0,0.2,0,0.2,0.1l0,0.1L98.8,26.1L98.8,26.1z M95.6,25.5h-1v0.6h-0.9v-0.6h-1v1.5h1
		v-0.5h0.9v0.5h1V25.5z M92.2,26.3c0-0.1,0-0.2-0.1-0.3c-0.1-0.1-0.2-0.2-0.3-0.2c-0.1-0.1-0.3-0.1-0.5-0.2s-0.4-0.1-0.7-0.1
		s-0.5,0-0.7,0.1s-0.4,0.1-0.5,0.2c-0.1,0.1-0.2,0.1-0.3,0.2c-0.2,0.2-0.2,0.5,0,0.6c0.1,0.1,0.2,0.2,0.3,0.2
		c0.1,0.1,0.3,0.1,0.5,0.2s0.4,0.1,0.7,0.1s0.5,0,0.7-0.1c0.2,0,0.4-0.1,0.5-0.2c0.1-0.1,0.3-0.2,0.3-0.2
		C92.2,26.6,92.2,26.4,92.2,26.3z M91.3,26.3l-0.1,0.2L91,26.7l-0.2,0.1l-0.2,0l-0.2,0l-0.2-0.1L90,26.5L90,26.3l0.1-0.2l0.2-0.1
		l0.2-0.1l0.2,0l0.2,0L91,26l0.2,0.1L91.3,26.3z M85.6,26.5c0,0.2,0.2,0.3,0.4,0.4c0.2,0.1,0.6,0.2,1,0.2c0.2,0,0.5,0,0.7-0.1
		c0.2,0,0.4-0.1,0.5-0.2c0.1-0.1,0.2-0.2,0.3-0.2c0.1-0.2,0.2-0.4,0-0.6c-0.1-0.1-0.2-0.2-0.3-0.3c-0.2-0.1-0.3-0.1-0.5-0.2
		c-0.2,0-0.4-0.1-0.7-0.1c-0.2,0-0.4,0-0.6,0.1s-0.3,0.1-0.5,0.1c-0.1,0-0.2,0.1-0.3,0.2l-0.1,0.2h1l0.1-0.1l0.1-0.1l0.1-0.1l0.2,0
		c0.1,0,0.2,0,0.3,0l0.2,0.1l0.1,0.1l0,0.2l0,0.2l-0.1,0.1l-0.2,0.1c-0.1,0-0.2,0-0.3,0c-0.1,0-0.2,0-0.2,0l-0.2-0.1l-0.1-0.1l0-0.1
		L85.6,26.5L85.6,26.5z M85.2,25.5h-1V26L84,26.1l-0.8-0.6h-1.2l1.3,0.9l-1.2,0.6h1.2l0.9-0.5h0v0.5h1V25.5z M81.5,25.7V26h-0.3
		l-0.1,0l0-0.1l0.1-0.1l0,0l0,0l0,0l0,0l0,0l0,0v0h0.1l0,0l0,0v0l0,0l0.1,0h0.1v-0.1L81.5,25.7L81.5,25.7z M81.4,25.9h-0.1l-0.1,0
		l0,0l0,0l0.1,0L81.4,25.9C81.4,25.9,81.4,25.9,81.4,25.9z"/>
	<path class="st64" d="M80.8,25.8L80.8,25.8l0.2-0.1c0.1,0,0.2-0.1,0.3-0.1s0.3,0,0.3,0.1l0.1,0.1L81.6,26c-0.1,0-0.2,0.1-0.3,0.1
		S81,26,81,26L80.8,25.8L80.8,25.8c0,0.2,0.2,0.3,0.5,0.3c0.3,0,0.5-0.1,0.5-0.3c0-0.2-0.2-0.3-0.5-0.3C81,25.6,80.8,25.7,80.8,25.8
		L80.8,25.8z M76.7,26.1l0.1-0.5h3.4V26l-0.8,0.3c-0.2,0.1-0.4,0.2-0.6,0.2c-0.3,0.1-0.5,0.2-0.6,0.3c-0.1,0.1-0.1,0.1-0.1,0.2
		c0,0.1,0,0.1,0.1,0.2c0.1,0,0.2,0.1,0.3,0.1c0.3,0,0.5-0.1,0.6-0.4l1.1,0.1c-0.1,0.3-0.3,0.4-0.6,0.6c-0.3,0.1-0.7,0.2-1.2,0.2
		c-0.5,0-0.9-0.1-1.2-0.2c-0.3-0.1-0.5-0.3-0.5-0.5c0-0.1,0.1-0.3,0.3-0.4c0.2-0.1,0.7-0.3,1.5-0.6C78.5,26.1,76.7,26.1,76.7,26.1z"
		/>
</g>
</svg>
