<svg enable-background="new 0 0 200 88.9" viewBox="0 0 200 88.9" xmlns="http://www.w3.org/2000/svg"><path d="m0 0h200v88.9h-200z" fill="none"/><g transform="matrix(.50142802 0 0 -.50142802 -.000201 200.00008)"><path d="m336 287.3v15.6c0 1.7.2 1.8 1.7 1.1 5.4-2.7 11-4.7 16.9-5.8 6.6-1.3 13.3-1.5 20-.8 8 .9 15.4 3.2 22.5 6.8 1.2.6 1.6.3 1.6-1 0-10.3.2-20.5 0-30.8-.3-11.9-8.6-21.8-20-24.6-1.8-.4-3.7-.7-5.6-.7-3.7.1-7.4 0-11.1 0-11.6 0-21.7 7.5-24.9 18.6-.7 2.3-1.1 4.7-1.1 7.1z" fill="#666870"/><path d="m362.3 319c0-2.4.1-4.8 0-7.3-.1-2.2.9-3.8 2.8-4.7 1-.5 1.4-1.2 1.3-2.3-.1-1.3-.1-2.6 0-4 .1-1.2-.4-1.7-1.7-1.7-5.2.1-10.3 1.1-15.4 2.5-4.2 1.2-8.2 3-12.1 5-.7.4-1.2.8-1.3 1.6-.1 4.4-.2 8.8 1.3 13 3.3 9 9.6 14.8 18.9 17.2 2.6.7 5.4.9 8.2.7 1.1-.1 1.5.3 1.5 1.4 0 1.6.1 3.3 0 4.9-.1 4.1 1.4 7.5 4.3 10.3 2.4 2.3 3.4 5.1 3.4 8.4v5.2c0 1.1.5 1.4 1.5 1.4s1.6-.2 1.6-1.4c-.1-2.6.2-5.2-.2-7.8-.4-3.1-1.9-5.7-4.1-7.9-2.4-2.3-3.5-5.1-3.4-8.3 0-1.5.1-3 0-4.5-.1-1.3.4-1.8 1.7-1.7 4.2.2 8.2-.3 12-2.1 8.9-4 14.3-10.9 15.8-20.6.4-2.6.2-5.3.3-7.9 0-.9-.4-1.4-1.2-1.8-7-3.7-14.3-6.2-22.1-7.1-1.9-.2-3.7-.5-5.6-.5-1.1 0-1.6.5-1.5 1.6v4.5c0 .8.3 1.4 1 1.7 2.2 1 3.1 2.7 3.1 5.1-.1 4.7 0 9.4 0 14.1 0 2.3-.9 4-3 4.9-.8.4-1.2 1-1.1 1.8v4.4c0 .6 0 1.2-.9 1.3-.9 0-1-.5-1-1.3 0-1.5 0-2.9 0-4.4 0-.8-.3-1.3-1.1-1.7-2.1-1.1-3.2-2.7-3.1-5.2.2-2.1.1-4.5.1-6.8" fill="#d8d5cb"/><path d="m370.6 322c0-1.3 0-2.6 0-4-.1-2-1.5-3.5-3.2-3.4s-3.1 1.6-3.1 3.5v7.9c0 2.1 1.2 3.4 3.1 3.5 1.7 0 3.1-1.5 3.2-3.4 0-1.4 0-2.8 0-4.1" fill="#666870"/><path d="m370.6 322c0-1.3 0-2.6 0-4-.1-2-1.5-3.5-3.2-3.4s-3.1 1.6-3.1 3.5v7.9c0 2.1 1.2 3.4 3.1 3.5 1.7 0 3.1-1.5 3.2-3.4 0-1.4 0-2.8 0-4.1z" fill="none" stroke="#4f4c4d" stroke-miterlimit="10" stroke-width=".5"/><path d="m0 330v23.3c0 7.8 6.4 14.2 14.2 14.2h282.9c7.8 0 14.2-6.4 14.2-14.2v-23.3" fill="#d8d5cb"/><path d="m311.3 259v-23.3c0-7.8-6.4-14.2-14.2-14.2h-282.9c-7.8.1-14.2 6.5-14.2 14.3v23.2" fill="#cac2b5"/><path d="m297.1 232.8h-282.9c-7.8 0-14.2 6.4-14.2 14.2v95.6c0 7.8 6.4 14.2 14.2 14.2h282.9c7.8 0 14.2-6.4 14.2-14.2v-95.6c0-7.9-6.4-14.2-14.2-14.2" fill="#efede1"/><path d="m19.9 335.2v10h15.3v-10zm21 0v10h15.3v-10z" fill="#c0ba9f"/><path d="m61.4 335.2v10h15.3v-10zm21.1 0v10h15.3v-10zm21.1 0v10h15.3v-10zm20.7 0v10h15.3v-10z" fill="#666870"/><path d="m145.1 335.2v10h15.3v-10zm21.2 0v10h15.3v-10zm20.8 0v10h15.3v-10z" fill="#c0ba9f"/><path d="m19.9 308.9v15.3h15.3v-15.3zm0-21.2v15.3h15.3v-15.3z" fill="#cac2b5"/><path d="m40.9 308.9v15.3h15.3v-15.3zm20.5 0v15.3h15.3v-15.3zm21.1 0v15.3h15.3v-15.3zm21.1 0v15.3h15.3v-15.3zm20.7 0v15.3h15.3v-15.3zm20.8 0v15.3h15.3v-15.3zm21.2 0v15.3h15.3v-15.3zm-125.4-21.2v15.3h15.3v-15.3zm20.5 0v15.3h15.3v-15.3zm21.1 0v15.3h15.3v-15.3zm21.1 0v15.3h15.3v-15.3zm20.7 0v15.3h15.3v-15.3zm20.8 0v15.3h15.3v-15.3zm-83.7-20.8v15.3h15.3v-15.3zm21.1 0v15.3h15.3v-15.3zm21.1 0v15.3h15.3v-15.3zm20.7 0v15.3h15.3v-15.3zm20.8 0v15.3h15.3v-15.3zm-125.2-21.1v15.3h15.3v-15.3zm146.4 0v15.3h15.3v-15.3zm20.8 0v15.3h15.3v-15.3zm23.7 0v15.3h15.3v-15.3zm21.1 0v15.3h15.3v-15.3zm0 21.1v15.3h15.3v-15.3z" fill="#c0ba9f"/><path d="m273.5 266.9v15.3h15.3v-15.3z" fill="#cac2b5"/><path d="m253 245.8v15.3h15.3v-15.3z" fill="#c0ba9f"/><path d="m273.5 245.8v15.3h15.3v-15.3zm0 41.9v15.3h15.3v-15.3z" fill="#cac2b5"/><path d="m273.5 308.9v15.3h15.3v-15.3zm-20.5 0v15.3h15.3v-15.3zm-21.1 0v15.3h15.3v-15.3zm-21.1 0v15.3h15.3v-15.3z" fill="#666870"/><path d="m19.9 266.9v15.3h36.2v-15.3zm146.4 0v15.3h36.2v-15.3z" fill="#cac2b5"/><path d="m166.3 287.7v15.3h36.2v-15.3z" fill="#666870"/><path d="m187.2 287.9v36.2h15.3v-36.2zm-146.3-42.1v15.3h119.6v-15.3zm216.5 94.4c0-4.3-3.5-7.7-7.7-7.7s-7.7 3.5-7.7 7.7 3.5 7.7 7.7 7.7 7.7-3.5 7.7-7.7" fill="#666870"/><path d="m278.2 340.2c0-4.3-3.5-7.7-7.7-7.7s-7.7 3.5-7.7 7.7 3.5 7.7 7.7 7.7 7.7-3.4 7.7-7.7" fill="#1f70c1"/><path d="m143.5 367.4c-.2 7 1.9 7.6 6.8 12.4 4.1 4 5.8 8.9 5.9 14.4 0 3 .1-.9 0 2.1 0 1.9.9 2.4 2.6 2.4s2.8-.4 2.7-2.3c-.2-4.5.3-2.1-.3-6.6-.8-5.3-3.2-9.9-7-13.6-4.1-4-5-3.3-4.9-8.9" fill="#d8d5cb"/></g></svg>