<svg enable-background="new -47.3 48 200 104.7" viewBox="-47.3 48 200 104.7" xmlns="http://www.w3.org/2000/svg"><path d="m130.7 127.4c-12.3 13-35.1 11.4-50.9-3.6-15.8-15.1-18.5-37.8-6.2-50.9 5.4-5.7 12.8-8.6 20.7-8.8 10.2-.3 21.3 3.9 30.2 12.4 15.8 15.1 18.5 37.9 6.2 50.9" fill="#0f0f0f"/><path d="m124.9 76.1c-9-8.6-20.3-12.9-30.7-12.6-8.1.2-15.7 3.2-21.2 9-12.6 13.3-9.8 36.5 6.2 51.8s39.2 16.9 51.9 3.6 9.9-36.5-6.2-51.8" fill="#0f0f0f"/><path d="m79.3 113.5h.6v.9h-.6z" fill="none"/><path d="m79.9 114-.5.4s0-.1-.1-.1c.1-.3.2-.5.3-.8.1.2.2.3.3.5" fill="#f3f3f3" opacity=".34"/><path d="m111.2 74.9h.8v.6h-.8z" fill="none"/><path d="m112.1 74.9-.3.6c-.2-.1-.4-.2-.5-.3.2-.1.5-.2.8-.3-.1 0 0 0 0 0" fill="#f3f3f3" opacity=".34"/><path d="m120.7 81.6h.6v1h-.6z" fill="none"/><path d="m121.1 81.6.2.2c0 .3-.1.6-.1.8-.2-.2-.3-.4-.5-.5 0 0 .4-.5.4-.5z" fill="#f3f3f3" opacity=".34"/><path d="m126.9 90.6h.9v.6h-.9z" fill="none"/><path d="m127.8 90.9-.6.3c-.1-.2-.2-.4-.3-.6.3.1.6.2.9.3z" fill="#f3f3f3" opacity=".34"/><path d="m131.2 106.6c-.3 5.7-2.4 11.1-6.4 15.3-8 8.5-21.3 9.6-32.6 3.7.3-.1.5-.2.7-.4 11 5.6 23.7 4.4 31.4-3.8 3.7-3.9 5.8-8.9 6.2-14.3.2-.1.5-.3.7-.5" fill="#151415"/><path d="m92 124.9h.9v.7h-.9z" fill="none"/><path d="m92.3 124.9c.2.1.4.2.6.3-.2.1-.5.3-.7.4l-.2-.1s.3-.6.3-.6z" fill="#f3f3f3" opacity=".34"/><path d="m130.5 106.5h.7v.7h-.7z" fill="none"/><path d="m131.2 106.5c-.2.3-.5.5-.7.7 0-.2 0-.5.1-.7-.1 0 .6 0 .6 0z" fill="#f3f3f3" opacity=".34"/><path d="m81.6 100.4c-3.4 0-6.2-2.8-6.2-6.2s2.8-6.2 6.2-6.2 6.2 2.8 6.2 6.2c0 3.5-2.8 6.2-6.2 6.2m0-13.1c-3.8 0-6.9 3.1-6.9 6.9s3.1 6.9 6.9 6.9 6.9-3.1 6.9-6.9-3.1-6.9-6.9-6.9m16 4.8c-3.4 0-6.2-2.8-6.2-6.2s2.8-6.2 6.2-6.2 6.2 2.8 6.2 6.2-2.8 6.2-6.2 6.2m0-13.1c-3.8 0-6.9 3.1-6.9 6.9s3.1 6.9 6.9 6.9 6.9-3.1 6.9-6.9-3.1-6.9-6.9-6.9m16.9 8.6c-3.4 0-6.2-2.8-6.2-6.2s2.8-6.2 6.2-6.2 6.2 2.8 6.2 6.2-2.8 6.2-6.2 6.2m0-13.2c-.9 0-1.7.2-2.4.4-.3.1-.5.2-.8.3-2.2 1.2-3.7 3.5-3.7 6.1 0 3.8 3.1 6.9 6.9 6.9 3.4 0 6.1-2.4 6.8-5.6.1-.3.1-.6.1-.8s0-.3 0-.5c-.1-3.7-3.1-6.8-6.9-6.8m-58.9 23.1h-11.7c-1.9 0-3.5-1.6-3.5-3.5s1.6-3.5 3.5-3.5h11.7c2 0 3.5 1.6 3.5 3.5.1 1.9-1.5 3.5-3.5 3.5m0-7.8h-11.7c-2.3 0-4.2 1.9-4.2 4.2s1.9 4.2 4.2 4.2h11.7c2.3 0 4.2-1.9 4.2-4.2s-1.9-4.2-4.2-4.2" fill="#0f0f0f"/><path d="m131.2 127.9c-12.6 13.3-35.9 11.7-51.9-3.6s-18.9-38.5-6.2-51.8c5.5-5.8 13.1-8.8 21.2-9 10.4-.3 21.7 4 30.7 12.6 16 15.3 18.8 38.5 6.2 51.8m-75.6-29.8h-11.7c-2.3 0-4.2-1.9-4.2-4.2s1.9-4.2 4.2-4.2h11.7c2.3 0 4.2 1.9 4.2 4.2s-1.9 4.2-4.2 4.2m-80.8 29c-12.2-11.4-10.8-32.9 3.3-48.1s35.4-18.3 47.7-7 10.9 32.8-3.2 48.1c-14.2 15.2-35.5 18.3-47.8 7m39.2-74.3c12.1-3.4 24.5-4.8 35.9-4.8h5.5c11.4 0 23.8 1.5 35.9 4.8l.7.2s-2.2 2.5-3.4 3.6c-.5.5-1.1 1.3-2 1.7-.9.5-2.3.7-4.4.2-4.1-1-19.7-3.1-25.7-3.1h-7.8c-5.9 0-21.6 2.1-25.7 3.1-2.1.5-3.5.3-4.4-.2s-1.4-1.2-2-1.7c-1-1-2.6-2.8-3.1-3.3-.1-.1-.1-.1-.1-.1-.1-.1-.1-.1-.2-.3zm137.8 57.6c-2.4-12.8-9.5-26.1-19.7-36-20.6-20-51.1-27.1-76.7-27.1h-5.5c-11.5 0-24 1.4-36.1 4.8-.2 0-2 .5-3 .9-13.8 4.2-27 11.1-37.5 21.3-10.3 10-17.4 23.2-19.7 36-2.4 12.8.1 25.3 9 33.6 9.8 9.1 18.4 9.9 26.1 7.6s14.5-7.5 21.2-10.4c6.5-2.8 21.9-9.7 36.4-9.7h12.8c14.5 0 29.9 6.9 36.4 9.7 6.7 2.9 13.5 8.2 21.2 10.5s16.2 1.5 26.1-7.6c9-8.3 11.4-20.8 9-33.6" fill="#3b3a3c"/><path d="m124.8 121.9c-8 8.5-21.3 9.6-32.6 3.7-1.2.5-2.5.8-3.8.8-5.2 0-9.4-4.2-9.4-9.4 0-.9.1-1.8.4-2.7.1-.3.2-.5.3-.8-7.7-11.3-7.8-25.6.5-34.4 7.7-8.1 20.2-9.3 31.1-3.9.3-.1.5-.3.8-.3.8-.3 1.6-.4 2.4-.4 3.8 0 6.9 3.1 6.9 6.9v.5c0 .3-.1.6-.1.8 2.3 2.5 4.2 5.1 5.7 8 .3.1.6.2.9.3 3.7 1.3 6.3 4.8 6.3 8.9 0 2.7-1.1 5.1-2.9 6.8-.5 5.6-2.6 11-6.5 15.2m-.3-45.3c-8.9-8.5-20-12.7-30.2-12.4-7.9.2-15.3 3.1-20.7 8.8-12.3 13-9.6 35.8 6.2 50.9s38.6 16.7 50.9 3.6 9.6-35.9-6.2-50.9" fill="#0f0f0f"/><path d="m105.8 115.9c-5.2 0-9.4-4.2-9.4-9.4s4.2-9.4 9.4-9.4 9.4 4.2 9.4 9.4c0 5.1-4.2 9.4-9.4 9.4m-15.1-30c0-3.8 3.1-6.9 6.9-6.9s6.9 3.1 6.9 6.9-3.1 6.9-6.9 6.9-6.9-3.1-6.9-6.9m-9.1 15.2c-3.8 0-6.9-3.1-6.9-6.9s3.1-6.9 6.9-6.9 6.9 3.1 6.9 6.9-3.1 6.9-6.9 6.9m43.1 8.1c-5.2 0-9.4-4.2-9.4-9.4s4.2-9.4 9.4-9.4c.8 0 1.5.1 2.3.3-1.5-2.8-3.4-5.5-5.7-8-.6 3.2-3.4 5.6-6.8 5.6-3.8 0-6.9-3.1-6.9-6.9 0-2.6 1.5-4.9 3.7-6.1-11-5.4-23.5-4.2-31.1 3.9-8.3 8.8-8.2 23.1-.5 34.4 1.4-3.5 4.8-6 8.8-6 5.2 0 9.4 4.2 9.4 9.4 0 3.6-2 6.7-4.9 8.3 11 5.6 23.7 4.4 31.4-3.8 3.7-3.9 5.8-8.9 6.2-14.3-1.7 1.2-3.7 2-5.9 2" fill="#37373f"/><path d="m133.4 99.8c0 4.9-3.9 8.8-8.8 8.8s-8.8-3.9-8.8-8.8 3.9-8.8 8.8-8.8 8.8 3.9 8.8 8.8m-18.8 6.6c0 4.8-3.9 8.8-8.8 8.8s-8.8-3.9-8.8-8.8 3.9-8.8 8.8-8.8c4.8 0 8.8 4 8.8 8.8m-17.5 10.6c0 4.9-3.9 8.8-8.8 8.8s-8.8-3.9-8.8-8.8 3.9-8.8 8.8-8.8 8.8 3.9 8.8 8.8" fill="#1d1e23"/><path d="m120.7 81.3c0 3.4-2.8 6.2-6.2 6.2s-6.2-2.8-6.2-6.2 2.8-6.2 6.2-6.2 6.2 2.8 6.2 6.2m-16.9 4.6c0 3.4-2.8 6.2-6.2 6.2s-6.2-2.8-6.2-6.2 2.8-6.2 6.2-6.2 6.2 2.7 6.2 6.2m-16 8.3c0 3.4-2.8 6.2-6.2 6.2s-6.2-2.8-6.2-6.2 2.8-6.2 6.2-6.2 6.2 2.8 6.2 6.2" fill="#5e6155"/><path d="m92.1 53s-2.2 2.5-3.4 3.6c-.5.5-1.1 1.3-2 1.7-.9.5-2.3.7-4.4.2-4.1-1-19.7-3.1-25.7-3.1h-7.8c-5.9 0-21.6 2.1-25.7 3.1-2.1.5-3.5.3-4.4-.2s-1.4-1.2-2-1.7c-1-1-2.6-2.8-3.1-3.3-.1-.1-.1-.1-.1-.1-.1-.1-.1-.1-.2-.3l.7-.1s2 2.3 3.2 3.4c.6.6 1.1 1.3 1.8 1.7.8.4 1.9.6 3.9.1 4.2-1 19.7-3.1 25.8-3.1h7.8c6.1 0 21.6 2.1 25.8 3.1 2 .5 3.2.3 3.9-.1.8-.4 1.2-1.1 1.8-1.7 1-.9 2.7-2.8 3.1-3.4z" fill="#151415"/><path d="m88.4 125.7c-4.9 0-8.8-3.9-8.8-8.8s3.9-8.8 8.8-8.8 8.8 3.9 8.8 8.8-4 8.8-8.8 8.8m0-18.2c-4 0-7.4 2.5-8.8 6-.1.3-.2.5-.3.8-.3.8-.4 1.8-.4 2.7 0 5.2 4.2 9.4 9.4 9.4 1.4 0 2.6-.3 3.8-.8.3-.1.5-.2.7-.4 2.9-1.6 4.9-4.7 4.9-8.3.1-5.1-4.1-9.4-9.3-9.4m17.4 7.7c-4.9 0-8.8-3.9-8.8-8.8s3.9-8.8 8.8-8.8c4.8 0 8.8 3.9 8.8 8.8s-4 8.8-8.8 8.8m0-18.2c-5.2 0-9.4 4.2-9.4 9.4s4.2 9.4 9.4 9.4 9.4-4.2 9.4-9.4-4.2-9.4-9.4-9.4m18.9 11.5c-4.9 0-8.8-3.9-8.8-8.8s3.9-8.8 8.8-8.8c4.8 0 8.8 3.9 8.8 8.8s-4 8.8-8.8 8.8m3.1-17.6c-.3-.1-.6-.2-.9-.3-.7-.2-1.5-.3-2.3-.3-5.2 0-9.4 4.2-9.4 9.4s4.2 9.4 9.4 9.4c2.2 0 4.2-.7 5.8-2 .2-.2.5-.4.7-.6 1.8-1.7 2.9-4.1 2.9-6.8.1-4-2.5-7.5-6.2-8.8" fill="#151415"/><path d="m59.2 93.9c0 2-1.6 3.5-3.5 3.5h-11.8c-2 0-3.5-1.6-3.5-3.5 0-2 1.6-3.5 3.5-3.5h11.7c2 0 3.6 1.6 3.6 3.5" fill="#a09fc4"/><path d="m18.3 115.9c-11.8 12.7-29.7 15.5-40 5.9-10.3-9.5-9-27.6 2.8-40.4 11.7-12.7 29.6-15.4 39.9-5.9s9 27.6-2.7 40.4m7.4-43.9c-12.2-11.3-33.6-8.2-47.7 7s-15.5 36.8-3.2 48.1c12.2 11.3 33.6 8.2 47.7-7 14.1-15.3 15.5-36.8 3.2-48.1" fill="#0f0f0f"/><path d="m15 102.2c-.1.2-.1.2-.2.2s-.2.1-.5 0l-5.3-.1c-1.8-.1-3.3.4-4.4 1.5s-1.7 2.6-1.8 4.6l-.2 5c0 .3-.1.4-.1.5-.1.1-.1.1-.2.1-1.2.2-2.5.3-3.8.3-1.3-.1-2.6-.3-3.8-.6-.1 0-.1-.1-.1-.1 0-.1-.1-.2 0-.5l.2-5c.1-2-.4-3.6-1.4-4.7s-2.5-1.7-4.4-1.8l-5.2-.3c-.4 0-.5-.2-.6-.3-.2-1.2-.3-2.5-.3-3.8.1-1.3.3-2.6.6-3.9 0-.1 0-.1.1-.1h.4l5.3.2c1.9.1 3.5-.4 4.6-1.4s1.7-2.5 1.8-4.4l.3-5.4c0-.2 0-.3.1-.3 0 0 0 0 .1-.1 1.3-.2 2.6-.3 3.9-.3 1.4.1 2.7.3 3.9.7.1 0 .1 0 .1.1v.5l-.2 5.3c-.1 1.9.4 3.4 1.4 4.5s2.4 1.7 4.2 1.8l5.5.3c.2 0 .3.1.3.1s.1.1.1.2c.2 1.2.3 2.5.3 3.8-.2 1-.4 2.3-.7 3.4m-5.4 7.4-2.1-.8-.5-.2.4-.3 1.5-1.3.4-.3.2.5.6 2.2.2.7c-.1-.2-.7-.5-.7-.5zm-19.7-1.7-2.2.6-.6.2.2-.6.8-2.1.2-.5.3.4 1.3 1.4.3.4zm-1.1-22 2.1.8.5.2-.4.4-1.5 1.3-.4.4-.2-.5-.7-2.2-.2-.7zm19.7 1.7 2.2-.7.7-.2-.3.6-.8 2.1-.3.6-.4-.4-1.3-1.5-.3-.4zm-9.3-8.9c-10.5 0-19.1 8.5-19.1 19.1 0 10.5 8.5 19.1 19.1 19.1s19.1-8.5 19.1-19.1-8.5-19.1-19.1-19.1" fill="#3b3a3c"/><path d="m-.8 116.8c-10.5 0-19.1-8.5-19.1-19.1 0-10.5 8.5-19.1 19.1-19.1s19.1 8.5 19.1 19.1-8.5 19.1-19.1 19.1m0-38.8c-10.9 0-19.7 8.8-19.7 19.7s8.8 19.7 19.7 19.7 19.7-8.8 19.7-19.7c0-10.8-8.8-19.7-19.7-19.7" fill="#3b3a3c"/><path d="m-9.5 107.8-.5.2-2.2.6-.6.2.2-.6.8-2.1.2-.5.3.4 1.3 1.4zm19.7 2.1-.6-.3-2.1-.8-.5-.2.4-.3 1.5-1.3.4-.3.2.5.6 2.2c-.1-.2.1.5.1.5zm1.1-23.2-.3.6-.8 2.1-.2.6-.4-.4-1.3-1.5-.3-.4.5-.1 2.2-.7zm-19.9.3-.4.3-1.5 1.3-.4.4-.2-.5-.7-2.2-.2-.7.6.3 2.1.8z" fill="#151415"/><path d="m-.8 101c-1.8 0-3.3-1.5-3.3-3.3s1.5-3.3 3.3-3.3 3.3 1.5 3.3 3.3c0 1.9-1.5 3.3-3.3 3.3m16.1-6.2c0-.1 0-.1 0 0 0-.1-.1-.2-.1-.3 0 0-.1-.1-.3-.1l-5.5-.3c-1.8-.1-3.2-.7-4.2-1.8s-1.5-2.6-1.4-4.5l.2-5.2c0-.3 0-.4 0-.5s0 0-.1-.1c-1.2-.4-2.6-.6-3.9-.7s-2.7 0-3.9.3c-.1 0-.1 0-.1.1 0 0-.1.1-.1.3l-.3 5.4c-.1 1.9-.7 3.4-1.8 4.4s-2.6 1.5-4.6 1.4l-5.2-.2c-.2 0-.4 0-.4 0s-.1 0-.1.1c-.4 1.2-.6 2.5-.6 3.9-.1 1.3 0 2.5.3 3.8 0 .2.2.3.6.3l5.2.3c1.9.1 3.4.7 4.4 1.8s1.4 2.7 1.4 4.7l-.2 5v.5c0 .1 0 .1.1.1 1.2.4 2.5.6 3.8.6 1.3.1 2.6 0 3.8-.3.1 0 .2-.1.2-.1 0-.1.1-.2.1-.5l.2-5c.1-1.9.7-3.5 1.8-4.6 1.1-1 2.6-1.6 4.4-1.5l5.4.2h.5c.1 0 .1-.1.2-.2.3-1.2.5-2.4.6-3.7-.1-1.2-.1-2.4-.4-3.6" fill="#212120"/><path d="m2.5 97.8c0 1.8-1.5 3.3-3.3 3.3s-3.3-1.5-3.3-3.3 1.5-3.3 3.3-3.3 3.3 1.5 3.3 3.3" fill="#151415"/><path d="m-.8 117.5c-10.9 0-19.7-8.8-19.7-19.7s8.8-19.7 19.7-19.7 19.7 8.8 19.7 19.7-8.8 19.7-19.7 19.7m21.8-42c-10.3-9.5-28.2-6.8-40 5.9-11.8 12.8-13.1 30.8-2.8 40.4 10.3 9.5 28.2 6.8 40-5.9 11.8-12.8 13.1-30.9 2.8-40.4" fill="#37373f"/><path d="m91.3 52.8c-.5.5-2.1 2.4-3.1 3.4-.6.6-1.1 1.3-1.8 1.7-.8.4-1.9.6-3.9.1-4.2-1-19.7-3.1-25.8-3.1h-7.8c-6.1 0-21.6 2.1-25.8 3.1-2 .5-3.2.3-3.9-.1-.8-.4-1.2-1.1-1.8-1.7-1.1-1-3.1-3.4-3.2-3.4 11.9-3.4 24.3-4.8 35.7-4.8h5.5c11.4 0 23.9 1.4 35.9 4.8" fill="#353535"/><path d="m34.5 69.9v-1.2h4.1c0-.1 0-.2 0-.3-.4 0-.8 0-1.3 0-1.2 0-2.1-.6-2.6-1.7s-.4-2.2.2-3.2c.5-.7 1.1-1.2 2-1.2h4.4v1.2c-1.3 0-2.6 0-3.9 0s-2.1 1.2-1.7 2.4c.2.7.9 1.2 1.8 1.3h1.2c.7.1 1.1.7 1.2 1.4 0 .7-.5 1.4-1.1 1.4-1.4-.1-2.8-.1-4.3-.1m14.5-7.7v1.2c-1.3 0-2.6 0-3.8 0-1.3 0-1.8.5-1.8 1.9v3.4c0 1.3.5 1.8 1.7 1.8h3.9v1.2c-1 0-1.9 0-2.8 0-.6 0-1.2 0-1.8 0-1.1-.1-2.1-1.1-2.1-2.2 0-1.6 0-3.3 0-4.9 0-1 .9-2.1 1.9-2.2 1.5-.3 3.1-.2 4.8-.2m11.1 6.3h1c-.2-.5-.3-.9-.4-1.3-.1 0-.1 0-.2 0-.1.4-.2.8-.4 1.3m-2.3 3c.8-2.6 1.6-5.1 2.5-7.6.1-.2.2-.4.4-.4.1 0 .3.2.4.3.7 2 1.3 4 2 6.1h-2.8c0-.3-.1-.6-.1-.8h-.1c-.2.5-.3.9-.5 1.4-.5 1.1-.5 1.1-1.8 1m-4.2-3.1c-.4-.1-.6-.2-.8-.2v-1.1h1.8v2.8c-.9 0-1.8.1-2.8 0-.2 0-.6-.5-.6-.7-.1-1.5 0-3 0-4.5 0-.5.3-.8.8-.8h4.2v1.1c-1 0-2.1 0-3.1 0-.6 0-.9.2-.8.9v2.1c0 .7.4.9 1.3.4" fill="#d5d5d5"/><path d="m45 68.6c1.3.2 2.6 0 3.9.1v1.1c-1.5 0-3 0-4.5 0-.2 0-.6-.5-.6-.8-.1-.6 0-1.2 0-1.9h4.2v1.1h-3zm4-4.8v1.1c-1.3.2-2.7-.1-4 .2v.3h3v1.2h-4.2c0-.7-.1-1.4 0-2.1 0-.2.4-.6.7-.6 1.5-.1 2.9-.1 4.5-.1m-2.7 25.2c-.1 0-.3 0-.4-.1-.1 0-.2-.1-.3-.2s-.1-.1-.2-.2c0-.1-.1-.2-.1-.3h.4c0 .1 0 .1.1.2 0 .1.1.1.1.1s.1.1.1.1h.2.2c.1 0 .1 0 .1-.1 0 0 .1 0 .1-.1v-.1-.1s0-.1-.1-.1c0 0-.1 0-.2-.1-.1 0-.2 0-.3-.1-.1 0-.2-.1-.3-.1s-.1-.1-.2-.1-.1-.1-.1-.2 0-.1 0-.2 0-.2.1-.2c0-.1.1-.1.1-.2.1-.1.1-.1.2-.1h.3.3s.2.1.2.1l.2.2c0 .1.1.2.1.3h-.4c0-.2-.2-.3-.4-.3-.1 0-.2 0-.3.1-.1 0-.1.1-.1.2v.1s0 0 .1.1h.1.2.2c.1 0 .1 0 .2.1.1 0 .1 0 .2.1.1 0 .1.1.1.1s.1.1.1.2v.2c0 .1 0 .2-.1.3 0 .1-.1.1-.2.2s-.1.1-.2.1c.1.1 0 .1-.1.1m2.6-1.7h-.6v1.6h-.4v-1.6h-.6v-.3h1.6zm1.3.8-.2-.6-.2.6c-.1 0 .4 0 .4 0zm.7.9h-.4l-.2-.6h-.7l-.2.6h-.4l.8-2h.4zm.6-1.2h.5.2.1s.1 0 .1-.1v-.1c0-.1 0-.2-.1-.2s-.1-.1-.3-.1h-.5zm1.3 1.2h-.4l-.2-.5s0-.1-.1-.1c0 0 0-.1-.1-.1 0 0-.1 0-.1-.1h-.1-.4v.8h-.4v-2h1 .2.1.1s.1 0 .1.1c0 0 .1.1.1.1s0 .1.1.1v.1.1c0 .1 0 .2-.1.3s-.1.2-.2.2c.1.1.2.2.2.3s.2.7.2.7zm1.8-1.7h-.6v1.6h-.4v-1.6h-.6v-.3h1.6z" fill="#d5d5d5"/><path d="m83.6 95.2-1.8-.7-.5 1.8-1.1.5.8-2.7-2.6-1 1.1-.5 1.8.7.6-1.9 1.1-.5-.8 2.7 2.6 1zm15-9.1.7 1.3-1.2.6-.7-1.3-3.2-1.3 1.2-.6 2.2 1 .5-2.4 1.2-.6c.2-.1-.7 3.3-.7 3.3zm14.7-2-.3-.6 1.2-3.6-2.2 1.1-.3-.6 3.7-1.8.3.6-1.2 3.6 2.5-1.3.3.6s-4 2-4 2z" fill="#6f7066"/><path d="m89.6 116.2-1.4-1-.4.2-.1 1.7zm2.2.8-.6.3-1-.7-2.5 1.2-.1 1.2-.7.3.4-4.3 1-.5zm15-11.8-2.5 1.2-.4-.9 2.5-1.2c.3-.1.4 0 .6.3.2.2.1.4-.2.6m.7 1.4-.4.2-2.1 1-.4-.9 2.1-1 .4-.2c.3-.1.4 0 .6.2.1.4.1.6-.2.7m.1-1.4c.2-.2.2-.4.1-.8l-.1-.3c-.3-.6-.7-.7-1.4-.4l-3 1.4.3.6 1.1 2.3.3.6 3-1.4c.7-.3.9-.8.6-1.3l-.1-.3c-.4-.3-.6-.4-.8-.4m17.3-7-1.5.6c-1 .4-.7.8-.4 1.5.3.8.4 1.2 1.4.8l2.6-1.1.2.6-2.6 1.1c-1.4.6-1.7 0-2.2-1.1-.5-1.2-.6-1.8.7-2.4l2.6-1.1.2.6c.1 0-1 .5-1 .5z" fill="#35353a"/><path d="m65.1 71.5h-4.9v-1.1h3.3c-.2-.7-.4-1.3-.6-1.9-.5-1.5-.9-3-1.5-4.5-.1-.4-.5-.8-.8-.9-.5-.1-.7.4-.9.9-.7 2.3-1.5 4.6-2.2 6.9-.2.5-.4.7-1 .7-1.5 0-3 0-4.5 0s-2.5-1-2.5-2.6c0-1.4 0-2.8 0-4.2 0-1.6 1-2.6 2.5-2.6h4.1v1.2h-3.5c-1.6 0-2 .4-2 2.1v3.2c0 1.1.5 1.7 1.6 1.7h2.7v-3.7h-2.2v-1.2h3.5v4.9h.2c.7-2.3 1.5-4.5 2.2-6.8.4-1.3 1.2-1.8 2.4-1.6.7.1 1.2.5 1.4 1.2.9 2.7 1.8 5.4 2.6 8.1.1.1.1.1.1.2m-30.6 0v-1.2h3.9c1.1 0 1.9-.8 1.9-1.8s-.8-1.8-1.8-1.9c-.4 0-.9 0-1.3 0-.7-.1-1.1-.7-1.1-1.4s.5-1.4 1.1-1.4h4.2v1.2h-4.1v.4c.4 0 .8 0 1.2.1 1.5 0 2.5.9 2.9 2.4.4 1.8-.8 3.7-2.6 3.8-1.4-.1-2.8-.2-4.3-.2" fill="#d5d5d5"/></svg>