<svg enable-background="new 0 0 200 86.9" viewBox="0 0 200 86.9" xmlns="http://www.w3.org/2000/svg"><path d="m0 0h200v86.9h-200z" fill="none"/><g transform="matrix(.47609639 0 0 -.47609639 0 200)"><path d="m420.1 239.5c0-1-1-1.9-2.1-1.9h-415.9c-1.2 0-2.1.8-2.1 1.9v178.7c0 1 1 1.9 2.1 1.9h415.8c1.2 0 2.1-.8 2.1-1.9v-178.7z" fill="#fff"/><path d="m253.5 249.6h152.9c1.1 0 2 .6 2 1.5v137.9c0 .8-.9 1.5-2 1.5h-391c-1.1 0-2-.6-2-1.5v-138c0-.8.9-1.5 2-1.5h238.1z" fill="#333"/><path d="m254.8 277.4c0-3.5-2.3-6.4-5.2-6.4h-108c-2.9 0-5.2 2.8-5.2 6.4v28c0 3.5 2.3 6.4 5.2 6.4h108c2.9 0 5.2-2.8 5.2-6.4z" fill="#212121"/><path d="m248.9 278.8c0-1.3-1-2.3-2.3-2.3h-102c-1.3 0-2.3 1-2.3 2.3v25.2c0 1.3 1 2.3 2.3 2.3h102.1c1.3 0 2.3-1 2.3-2.3-.1 0-.1-25.2-.1-25.2z" fill="#fff"/><path d="m254.3 386.6c0 2.1-1.7 3.7-3.7 3.7h-110c-2.1 0-3.7-1.7-3.7-3.7v-11.3c0-2.1 1.7-3.7 3.7-3.7h110c2.1 0 3.7 1.7 3.7 3.7zm0-25.6c0 2.1-1.7 3.7-3.7 3.7h-110c-2.1 0-3.7-1.7-3.7-3.7v-11.3c0-2.1 1.7-3.7 3.7-3.7h110c2.1 0 3.7 1.7 3.7 3.7zm0-26.5c0 2.1-1.7 3.7-3.7 3.7h-110c-2.1 0-3.7-1.7-3.7-3.7v-11.3c0-2.1 1.7-3.7 3.7-3.7h110c2.1 0 3.7 1.7 3.7 3.7zm-3.7-72.5h-110c-2.1 0-3.7-1.7-3.7-3.7v-8.7h117.4v8.7c0 2-1.7 3.7-3.7 3.7" fill="#666"/><path d="m91.9 294.9h20.2c2.1 0 3.7 1.7 3.7 3.7v27.7c0 2.1-1.7 3.7-3.7 3.7h-20.2v20.2c0 2.1-1.7 3.7-3.7 3.7h-27.7c-2.1 0-3.7-1.7-3.7-3.7v-20.2h-20.3c-2.1 0-3.7-1.7-3.7-3.7v-27.7c0-2.1 1.7-3.7 3.7-3.7h20.2v-20.2c0-2.1 1.7-3.7 3.7-3.7h27.7c2.1 0 3.7 1.7 3.7 3.7.1-.1.1 20.2.1 20.2zm227.1-23c0-1.3-1-2.3-2.3-2.3h-38.9c-1.3 0-2.3 1-2.3 2.3v39.4c0 1.3 1 2.3 2.3 2.3h38.9c1.3 0 2.3-1 2.3-2.3z" fill="#fff"/><path d="m314.6 291.6c0-9.6-7.8-17.4-17.4-17.4s-17.4 7.8-17.4 17.4 7.8 17.4 17.4 17.4c9.6-.1 17.4-7.8 17.4-17.4" fill="#cd3332"/><path d="m373.6 271.9c0-1.3-1-2.3-2.3-2.3h-38.9c-1.3 0-2.3 1-2.3 2.3v39.4c0 1.3 1 2.3 2.3 2.3h38.9c1.3 0 2.3-1 2.3-2.3z" fill="#fff"/><path d="m369.2 291.6c0-9.6-7.8-17.4-17.4-17.4s-17.4 7.8-17.4 17.4 7.8 17.4 17.4 17.4c9.6-.1 17.4-7.8 17.4-17.4" fill="#cd3332"/><path d="m157.1 285.6c-3.3 0-6 2.7-6 6s2.7 6 6 6h21.9c3.3 0 6-2.7 6-6s-2.7-6-6-6zm55 0c-3.3 0-6 2.7-6 6s2.7 6 6 6h21.9c3.3 0 6-2.7 6-6s-2.7-6-6-6zm-123.3 12.4h24.1v28.9h-24.1v24.1h-28.9v-24.1h-24.1v-28.9h24.1v-24.1h28.9z" fill="#212121"/><path d="m74.3 330.6h6v6.9h2.6l-8.6 8.4-8.6-8.4h2.6v-6.9zm0-36.3h-6v-6.9h-2.6l8.6-8.4 8.6 8.4h-2.6v6.9zm18.2 17.9v-6h6.9v-2.6l8.4 8.6-8.4 8.6v-2.6h-6.9zm-36.3 0v6h-6.9v2.6l-8.4-8.6 8.4-8.6v2.6h6.9zm26 0c0-4.4-3.5-7.9-7.9-7.9s-7.9 3.5-7.9 7.9 3.5 7.9 7.9 7.9 7.9-3.5 7.9-7.9"/><g fill="#cd3332"><path d="m287.5 357.5c-.1.1-.2.2-.2.3-1.8 2.9-3.5 5.7-5.3 8.6-.1.2-.2.2-.4.2-1.2 0-2.3 0-3.5 0-.1 0-.2 0-.3 0v-13.1h4v9h.1c.1-.1.1-.2.2-.3 1.8-2.9 3.5-5.7 5.3-8.6.1-.2.2-.3.5-.3h3.4.3v13.1h-4c-.1.1-.1-8.9-.1-8.9zm64.6-1.6c0-.8-.7-1.4-1.6-1.4s-1.5.6-1.5 1.5v1.8 1.7c0 .9.6 1.5 1.5 1.5s1.5-.5 1.6-1.4c0-1.2 0-2.4 0-3.7m0 5.8c-.7.4-1.4.7-2.2.8s-1.5-.1-2.3-.4c-.7-.3-1.3-.8-1.8-1.5-1.2-1.6-1.3-3.7-.2-5.3 1.7-2.4 3.9-2.7 6.5-1.4 0-.1 0-.3 0-.4h3.8v13.1h-3.9c.1-.1.1-4.9.1-4.9zm-41.7-.5c-1.6 1.7-4.4 1.8-6.2.3-.1-.1-.2-.1-.3-.2v.9h-3.9v-8.7h3.8v.4 5.1c0 .3 0 .6.2.8.4.8 1.3 1.2 2.2 1 .8-.2 1.4-.9 1.4-1.8v-5.5h3.9v.1 4.8c-.1 1-.4 2-1.1 2.8m33.1-2.4c0 1-.5 1.9-1.3 2.6-1.7 1.5-4.2 1.5-6 0-.1-.1-.2-.1-.3-.2v.9h-3.9v-8.7h3.9v.4 5.2c0 .4.1.7.3 1 .5.7 1.4.9 2.2.7.8-.3 1.2-.9 1.2-1.8 0-1.7 0-3.4 0-5.1 0-.1 0-.2 0-.4h3.8v.1c.1 1.8.2 3.5.1 5.3m21.1-1c0-.7 0-1.5 0-2.2-.1-1-.8-1.6-1.7-1.6-.7 0-1.3.6-1.5 1.4 0 .2-.1.4-.1.7v3.5c0 .2 0 .5.1.7.2.9.8 1.4 1.6 1.4s1.4-.7 1.5-1.6c0-.1 0-.3 0-.4.1-.6.1-1.2.1-1.9m2.5 3.4c-2.3 2-6 1.9-8.3-.1-2.1-1.8-2.1-4.8-.1-6.7 1.2-1.1 2.6-1.6 4.1-1.6 1.6 0 2.9.4 4.1 1.4 2.4 2 2.5 5.1.2 7m-41.4-2.1c-.7 0-1.3 0-2 0-.3 0-.3.1-.3.3 0 .3 0 .6.1.9.1.8.8 1.3 1.6 1.3s1.5-.6 1.6-1.4c.1-.4.1-.8.1-1.2 0 .1-1.1.1-1.1.1zm3.8 1.8c-1.1 1.1-2.4 1.6-3.9 1.8-1.8.1-3.4-.3-4.7-1.5-.9-.8-1.5-1.8-1.5-3-.1-1.6.5-2.9 1.7-3.8 1.8-1.4 3.9-1.7 6.1-1.1 1.5.5 2.7 1.4 3.4 2.9.1.1.1.2.1.4h-3.8c0-.4 0-.7-.1-1-.1-.8-.7-1.4-1.5-1.4s-1.5.5-1.7 1.3c-.1.8-.1 1.6-.1 2.5h7.5v.3c-.3.9-.7 1.8-1.5 2.6m-9.8 2.5h-2.1v1.7h-3.9v-1.8c-.1 0-.2 0-.3 0-.5 0-1 0-1.6 0-.1 0-.2-.1-.2-.1 0-.4 0-.7 0-1.1h2.1v-8.7h3.9v8.7h2.1zm-21.9-10v8.7h-3.9v-8.7zm-3.9 13.1v-2.6h3.9v2.6zm75.7-3.8c-1.2 0-2.1.9-2.1 2.2 0 1.2.9 2.2 2.1 2.2s2.1-.9 2.1-2.2c0-1.2-.9-2.2-2.1-2.2m0 4.8c-1.5 0-2.6-1.1-2.6-2.6s1.1-2.6 2.6-2.6 2.6 1.1 2.6 2.6c0 1.4-1.1 2.6-2.6 2.6"/><path d="m369.2 365.1c-.1 0-.2 0-.2 0v1h.9c.2 0 .4-.3.4-.5s-.1-.4-.4-.5c-.2 0-.4 0-.7 0m1.2-1.6h.4c-.3.4-.5.8-.8 1.3.1 0 .2 0 .2.1.4.1.6.4.5.8 0 .4-.2.7-.6.7-.5 0-1 0-1.5 0v-2.9h.4v1.3h.6s.1-.2.2-.3z"/></g></g></svg>