<svg enable-background="new 0 0 200 93.6" viewBox="0 0 200 93.6" xmlns="http://www.w3.org/2000/svg"><path d="m0 0h200v93.6h-200z" fill="none"/><g transform="matrix(0 .60510344 .60510344 0 0 0)"><path d="m147.3 330.5c4.1 0 7.4-3.3 7.4-7.4v-315.7c0-4.1-3.3-7.4-7.4-7.4h-119.6c-4.1 0-7.8 3.3-8.2 7.3l-17.3 153.9c-.5 4-.4 10.6 0 14.7l17.2 147.4c.5 4 4.2 7.3 8.2 7.3h119.7z" fill="#deddde"/><path d="m145.7 324.5c3.9 0 7.1-3.2 7.1-7.1v-304.3c0-3.9-3.2-7.1-7.1-7.1h-115.2c-3.9 0-7.5 3.2-7.9 7.1l-.4 148.2c-.4 3.9-.4 10.3 0 14.1l.4 142c.5 3.9 4 7.1 7.9 7.1z" fill="#e9e9e9"/><path d="m108.8 80.2c16.9 0 30.7-13.7 30.7-30.7 0-16.9-13.7-30.7-30.7-30.7s-30.6 13.8-30.6 30.7 13.7 30.7 30.6 30.7" fill="#464648"/><path d="m145 90.9v-14.7c0-5.1-.4-6.8-2.7-6.8-2.2 0-3 2.1-6.5 5.4-7.2 6.7-16.3 11.7-26.9 11.7-20.4 0-37-16.5-37-37 0-9.7 4.4-17.5 4.4-17.5 1.8-3.5.8-6.1-3.3-6.1h-33.3c-4.1 0-7.4 3.3-7.4 7.4v64.6c0 4.1 2.8 7.4 6.2 7.4h6.5c34.7 0 63 28.1 63 62.8s-27.8 62.8-62.5 62.8h-6.5c-3.7 0-6.7 3.3-6.7 7.4v61.9c0 4.1 3.3 7.4 7.4 7.4h67c3.9 2.8 8.8 4.5 14 4.5 13.5 0 24.2-10.9 24.2-24.4v-196.8" fill="#464648"/><path d="m110.1 287.9c0-6.1 4.9-11.1 11-11.1s11 5 11 11.1-4.9 11.1-11 11.1-11-5-11-11.1m26.6 0c0-8.7-7-15.7-15.6-15.7s-15.6 7-15.6 15.7 7 15.7 15.6 15.7 15.6-7.1 15.6-15.7" fill="#cacac8"/><path d="m134.4 287.9c0 7.4-5.9 13.4-13.3 13.4s-13.3-6-13.3-13.4 5.9-13.4 13.3-13.4 13.3 6 13.3 13.4" fill="#464648"/><path d="m127.4 196.2v-15.7c0-3.8-3.1-6.9-6.9-6.9s-6.9 3.1-6.9 6.9v15.7c0 3.8 3.1 6.9 6.9 6.9s6.9-3.1 6.9-6.9" fill="#cacac8"/><path d="m125.1 196.2v-15.7c0-2.6-2.1-4.6-4.6-4.6s-4.6 2.1-4.6 4.6v15.7c0 2.5 2.1 4.6 4.6 4.6 2.6 0 4.6-2.1 4.6-4.6" fill="#464648"/><path d="m127.4 155.7v-15.7c0-3.8-3.1-6.9-6.9-6.9s-6.9 3.1-6.9 6.9v15.7c0 3.8 3.1 6.9 6.9 6.9s6.9-3.1 6.9-6.9" fill="#cacac8"/><path d="m125.1 155.7v-15.7c0-2.5-2.1-4.6-4.6-4.6s-4.6 2.1-4.6 4.6v15.7c0 2.5 2.1 4.6 4.6 4.6 2.6 0 4.6-2.1 4.6-4.6" fill="#464648"/><g fill="#ed1f24"><path d="m93.9 257.9c.5 0 .9-.4.9-.9v-13.1c0-.5-.4-.9-.9-.9h-14.6c-.5 0-1.2.3-1.5.7l-4.4 6c-.3.4-.3 1.1 0 1.5l4.4 6c.3.4 1 .7 1.5.7zm0 37.4c.5 0 .9-.4.9-.9v-13.1c0-.5-.4-.9-.9-.9h-14.6c-.5 0-1.2.3-1.5.7l-4.4 6c-.3.4-.3 1.1 0 1.5l4.4 6c.3.4 1 .7 1.5.7z"/><path d="m39.9 52.3c.5-.6 1.1-1.1 1.8-1.4s1.5-.5 2.1-.5c.7 0 1.3.1 1.9.4s1.1.7 1.5 1.2.5 1.1.6 1.7.1 1.1 0 1.5-.2.7-.3 1l-3.3 1.6c.2-.4.4-.8.6-1.3.2-.4.4-.9.4-1.4.1-.5 0-1-.3-1.4s-.7-.8-1.3-1c-.5-.2-1.1-.2-1.6-.1s-1 .4-1.4.8-.8.8-1 1.2-.3.8-.4 1.1l1.7 1.2-.5 1.4-2.4-1c0-.3 0-.5 0-.9 0-.3.1-.7.2-1.1s.2-.8.5-1.3c.4-.5.8-1.1 1.2-1.7m-.8-9c.2.1.4.3.6.3l2.9-.6c.2 0 .4-.2.5-.4s.1-.4.2-.5c.1.2.1.3.3.4.1.1.3.3.5.2l2.8-.6c.3-.1.4-.3.6-.5.1-.2.2-.4.3-.6v7.6l-3 .4c.6-.3 1.2-.6 1.6-1.1s.7-1.2.7-1.9v-1.4l-3.5.7c-.1.2-.1.5 0 .8s.4.5.6.7c.3.2.5.4.8.5l-3.7.7c.3-.2.5-.5.7-.8s.4-.6.5-.9.1-.6 0-.8l-3.4.7v1.1c0 .5-.1 1 .3 1.4.3.4 1 .7 1.7 1l-2.5.5v-7.7c.2.4.3.6.5.8m4.4-4-5.4-4.5 2.3-2 .9 1 6.5-1.2-1 2.3-1.1-1.2-3.4.7 5.5 4.7-7.4 1.6-1 1.7-1.2-2c-.1 0 5.3-1.1 5.3-1.1z"/><path d="m142.5 78.5-2.8-2.4c-7.8 9-19 14.1-30.9 14.1-22.5 0-40.7-18.3-40.7-40.7 0-6.4 1.4-12.5 4.3-18.2l-3.3-1.7c-3.1 6.2-4.7 12.9-4.7 19.9 0 24.5 19.9 44.4 44.4 44.4 12.9 0 25.2-5.6 33.7-15.4m-1.1 209.1c0 11.4-9 20.6-20.4 20.6s-20.4-9.2-20.4-20.6v-37.6c0-11.4 9-20.6 20.4-20.6s20.5 9.2 20.5 20.6z"/></g><path d="m110.1 250.4c0-6.1 4.9-11.1 11-11.1s11 5 11 11.1-4.9 11.1-11 11.1-11-5-11-11.1m26.6 0c0-8.7-7-15.7-15.6-15.7s-15.6 7-15.6 15.7 7 15.7 15.6 15.7 15.6-7 15.6-15.7" fill="#cacac8"/><path d="m134.4 250.4c0 7.4-5.9 13.4-13.3 13.4s-13.3-6-13.3-13.4 5.9-13.4 13.3-13.4 13.3 6 13.3 13.4" fill="#464648"/><path d="m136.9 287.9c0 8.8-7.1 15.9-15.9 15.9s-15.8-7.1-15.8-15.9 7-15.9 15.8-15.9c8.8-.1 15.9 7.1 15.9 15.9" fill="#cacac8"/><path d="m134.4 287.9c0 7.4-5.9 13.4-13.3 13.4s-13.3-6-13.3-13.4 5.9-13.4 13.3-13.4 13.3 6 13.3 13.4" fill="#464648"/><path d="m0 124.2c0-1.5 1.2-2.8 2.8-2.8h45.5c26.2 0 47.5 20.9 47.5 47.1s-21.2 47.1-47.4 47.1h-45.6c-1.5 0-2.8-1.2-2.8-2.8z" fill="#deddde"/><path d="m78.9 57.8c-.5 0-1.1-.4-1.2-.9 0 0-.9-2.9-.9-7.4 0-4.3.9-7.4.9-7.4.1-.5.6-.9 1.2-.9h20.6c.5 0 1-.4 1-1v-20.7c0-.5.4-1.1.9-1.2 0 0 2.9-.9 7.4-.9 3.8 0 7.4.9 7.4.9.5.1.9.6.9 1.2v20.6c0 .5.4 1 1 1h20.6c.5 0 1.1.4 1.2.9 0 0 .9 2.5.9 7.4 0 5-.9 7.4-.9 7.4-.1.5-.6.9-1.2.9h-20.6c-.5 0-1 .4-1 1v20.6c0 .5-.4 1.1-.9 1.2 0 0-2.5.9-7.4.9-5.2 0-7.4-.9-7.4-.9-.5-.1-.9-.6-.9-1.2v-20.5c0-.5-.4-1-1-1z" fill="#5f6062"/><path d="m108.8 56.5c3.9 0 7-3.2 7-7 0-3.9-3.2-7-7-7-3.9 0-7 3.2-7 7 0 3.9 3.1 7 7 7" fill="#464648"/></g></svg>