<svg enable-background="new 0 0 200 160.7" viewBox="0 0 200 160.7" xmlns="http://www.w3.org/2000/svg"><path d="m0 0h200v160.7h-200z" fill="none"/><g transform="matrix(.36544407 0 0 -.36544407 -.000002 200)"><path d="m281.4 282.8h-15.5l-90.4-1.5 4.7-28.1h.1c.4-1.4 1.7-2.4 3.4-2.4h179.9c1.6 0 3 1 3.4 2.4h.1l4.7 28.1z" fill="#1b1c1c"/><path d="m544.9 230.3c-5.5 46.4-9 55.4-21.5 98.1s-29.1 41.7-21.5 65.9 7.6 18.7 14.5 35.3 6.9 33.9 6.9 33.9l-38.1 33.2h-423.3l-38.1-33.2s0-17.3 6.9-33.9 6.9-11.1 14.5-35.3-9-23.2-21.5-65.9-15.9-51.7-21.5-98.1c-5.5-46.4 0-57.4 3.5-90 3.5-32.5 67.6-51.6 78.2-4.2 10.5 47 10.8 53.6 15.2 89.3 5.5 44.3 6.9 76.7 17.3 114.2 4.2 15 13.8 12.5 13.8 12.5s62.3-8.3 133.6-9.7c3.4-.1 6.6-.1 9.7-.2 3 .1 6.3.1 9.7.2 71.3 1.4 133.6 9.7 133.6 9.7s9.7 2.5 13.8-12.5c10.4-37.4 11.8-69.9 17.3-114.2 4.5-35.7 4.7-42.2 15.2-89.3 10.6-47.4 74.7-28.4 78.2 4.2 3.6 32.5 9.2 43.6 3.6 90" fill="#1b1c1c"/><path d="m363.6 496h-179.9c-4.6 0-8.3-3.7-8.3-8.3v-204.8c0-4.6 3.7-8.3 8.3-8.3h179.9c4.6 0 8.3 3.7 8.3 8.3v204.9c0 4.5-3.7 8.2-8.3 8.2" fill="#232323"/><path d="m355.3 487.7h-163.3c-4.6 0-8.3-3.7-8.3-8.3v-149.5c0-4.6 3.7-8.3 8.3-8.3h163.3c4.6 0 8.3 3.7 8.3 8.3v149.5c0 4.6-3.7 8.3-8.3 8.3" fill="#2b2b2b"/><path d="m146.3 534.1 92-59.5s27.7-19.4 18.7-54.7-52.4-45.5-85.1-37.4c-30.6 7.6-107.3 27-107.3 27s-58.8 22.3-35.3 90c23.6 67.6 99 47.6 117 34.6m254.7 0-92-59.5s-27.7-19.4-18.7-54.7 52.4-45.5 85.1-37.4c30.6 7.6 107.3 27 107.3 27s58.8 22.3 35.3 90c-23.6 67.6-99 47.6-117 34.6" fill="#232323"/><path d="m478.4 476.2c0-15.9-12.9-28.7-28.7-28.7s-28.7 12.9-28.7 28.7 12.9 28.7 28.7 28.7 28.7-12.8 28.7-28.7zm-406.8 0c0-15.9 12.9-28.7 28.7-28.7s28.7 12.9 28.7 28.7-12.9 28.7-28.7 28.7-28.7-12.8-28.7-28.7z" fill="none" stroke="#1b1c1c" stroke-miterlimit="10" stroke-width="1.569"/><path d="m479.3 488.7h-17.2v17.2c0 2.2-1.8 3.9-3.9 3.9h-17.1c-2.2 0-3.9-1.8-3.9-3.9v-17.2h-17.2c-2.2 0-3.9-1.8-3.9-3.9v-17.1c0-2.2 1.8-3.9 3.9-3.9h17.2v-17.2c0-2.2 1.8-3.9 3.9-3.9h17.1c2.2 0 3.9 1.8 3.9 3.9v17.2h17.2c2.2 0 3.9 1.8 3.9 3.9v17.1c.1 2.1-1.7 3.9-3.9 3.9" fill="#1b1c1c"/><path d="m479.3 488.7h-17.2v17.2c0 2.2-1.8 3.9-3.9 3.9h-17.1c-2.2 0-3.9-1.8-3.9-3.9v-17.2h-17.2c-2.2 0-3.9-1.8-3.9-3.9v-17.1c0-2.2 1.8-3.9 3.9-3.9h17.2v-17.2c0-2.2 1.8-3.9 3.9-3.9h17.1c2.2 0 3.9 1.8 3.9 3.9v17.2h17.2c2.2 0 3.9 1.8 3.9 3.9v17.1c.1 2.1-1.7 3.9-3.9 3.9z" fill="none" stroke="#191818" stroke-miterlimit="10" stroke-width="1.962"/><path d="m129.9 488.7h-17.2v17.2c0 2.2-1.8 3.9-3.9 3.9h-17.1c-2.2 0-3.9-1.8-3.9-3.9v-17.2h-17.2c-2.2 0-3.9-1.8-3.9-3.9v-17.1c0-2.2 1.8-3.9 3.9-3.9h17.2v-17.2c0-2.2 1.8-3.9 3.9-3.9h17.1c2.2 0 3.9 1.8 3.9 3.9v17.2h17.2c2.2 0 3.9 1.8 3.9 3.9v17.1c0 2.1-1.7 3.9-3.9 3.9" fill="#1b1c1c"/><path d="m129.9 488.7h-17.2v17.2c0 2.2-1.8 3.9-3.9 3.9h-17.1c-2.2 0-3.9-1.8-3.9-3.9v-17.2h-17.2c-2.2 0-3.9-1.8-3.9-3.9v-17.1c0-2.2 1.8-3.9 3.9-3.9h17.2v-17.2c0-2.2 1.8-3.9 3.9-3.9h17.1c2.2 0 3.9 1.8 3.9 3.9v17.2h17.2c2.2 0 3.9 1.8 3.9 3.9v17.1c0 2.1-1.7 3.9-3.9 3.9z" fill="none" stroke="#191818" stroke-miterlimit="10" stroke-width="1.962"/><path d="m455.9 476.2c0-3.4-2.8-6.2-6.2-6.2s-6.2 2.8-6.2 6.2 2.8 6.2 6.2 6.2 6.2-2.7 6.2-6.2m-361.9 0c0-3.4 2.8-6.2 6.2-6.2s6.2 2.8 6.2 6.2-2.8 6.2-6.2 6.2-6.2-2.7-6.2-6.2" fill="#151515"/><path d="m399.6 447.5c0-9-7.3-16.3-16.3-16.3s-16.3 7.3-16.3 16.3 7.3 16.3 16.3 16.3 16.3-7.3 16.3-16.3" fill="#ea122c"/><path d="m399.6 447.5c0-9-7.3-16.3-16.3-16.3s-16.3 7.3-16.3 16.3 7.3 16.3 16.3 16.3 16.3-7.3 16.3-16.3z" fill="none" stroke="#191818" stroke-miterlimit="10" stroke-width="1.962"/><path d="m358.1 430.6c0-9-7.3-16.3-16.3-16.3s-16.3 7.3-16.3 16.3 7.3 16.3 16.3 16.3 16.3-7.4 16.3-16.3" fill="#ea122c"/><path d="m358.1 430.6c0-9-7.3-16.3-16.3-16.3s-16.3 7.3-16.3 16.3 7.3 16.3 16.3 16.3 16.3-7.4 16.3-16.3z" fill="none" stroke="#191818" stroke-miterlimit="10" stroke-width="1.962"/><path d="m150.4 447.5c0-9 7.3-16.3 16.3-16.3s16.3 7.3 16.3 16.3-7.3 16.3-16.3 16.3-16.3-7.3-16.3-16.3" fill="#6d6e70"/><path d="m150.4 447.5c0-9 7.3-16.3 16.3-16.3s16.3 7.3 16.3 16.3-7.3 16.3-16.3 16.3-16.3-7.3-16.3-16.3z" fill="none" stroke="#191818" stroke-miterlimit="10" stroke-width="1.962"/><path d="m191.9 430.6c0-9 7.3-16.3 16.3-16.3s16.3 7.3 16.3 16.3-7.3 16.3-16.3 16.3-16.3-7.4-16.3-16.3" fill="#808184"/><path d="m191.9 430.6c0-9 7.3-16.3 16.3-16.3s16.3 7.3 16.3 16.3-7.3 16.3-16.3 16.3-16.3-7.4-16.3-16.3z" fill="none" stroke="#191818" stroke-miterlimit="10" stroke-width="1.962"/><path d="m306.5 483.8c1.7 0 3.1-1.4 3.1-3.1 0-1.2-.7-2.2-1.6-2.7l-16.2-9.9h-14.7v15.7z" fill="#6d6e70"/><path d="m299.2 480.7c0 1.7-1.4 3.1-3.1 3.1h-51.9c-1.7 0-3.1-1.4-3.1-3.1 0-1.2.7-2.2 1.6-2.7l16.2-9.9h22.5l16.2 9.9c.9.5 1.6 1.5 1.6 2.7" fill="#929496"/><path d="m264.8 468.8c0-.5-.4-1-1-1h-2.5c-.5 0-1 .4-1 1v14.6c0 .5.4 1 1 1h2.5c.5 0 1-.4 1-1zm7.8 0c0-.5-.4-1-1-1h-2.5c-.5 0-1 .4-1 1v14.6c0 .5.4 1 1 1h2.5c.5 0 1-.4 1-1zm7.4 0c0-.5-.4-1-1-1h-2.5c-.5 0-1 .4-1 1v14.6c0 .5.4 1 1 1h2.5c.5 0 1-.4 1-1z" fill="#808184"/><path d="m166 478.1-3.2 1.4c-.1.1-.3.1-.4 0s-.2-.2-.3-.4-.1-.3-.1-.5c0-.1.1-.3.3-.3l1.9-.8c.5-.2.8-.6.9-1.2.1-.5 0-1-.2-1.6-.2-.5-.6-.9-1-1.2-.5-.3-1-.3-1.5-.1l-3.4 1.6.6 1.4 3.2-1.4c.1-.1.3 0 .4 0 .1.1.2.2.3.4s.1.3.1.5c0 .1-.1.3-.3.3l-1.9.8c-.5.2-.8.6-1 1.2-.1.5-.1 1 .2 1.5.2.5.6.9 1 1.2.5.3 1 .3 1.5.1l3.5-1.5zm3.7-7.7-3.5 1.5c-.5.2-.8.6-1 1.2-.1.5 0 1 .2 1.5.1.2.2.4.4.6s.3.4.5.5v.7c0 .3.1.5.2.7.2.5.6.9 1 1.2.5.3 1 .3 1.5.1l3.5-1.5-.6-1.4-3.2 1.4c-.1.1-.3.1-.4 0s-.2-.2-.3-.4-.1-.3-.1-.5.1-.3.3-.3l3.2-1.4-.6-1.4-3.4 1.5c-.1 0-.2 0-.3-.1s-.2-.2-.2-.3c-.1-.2-.1-.3-.1-.5 0-.1.1-.3.3-.3l3.2-1.4zm5.8-2.6-2.4 1.1c-.8.3-1.3.8-1.6 1.4-.2.5-.3 1-.2 1.7.1.4.2.8.4 1.3 0 .1.1.1.1.2 0 0 0 .1.1.1l1.3 3.1 1.3-.6-1.3-3.1c-.2-.6-.3-1.1-.3-1.5.1-.5.3-.9.7-1.1l2.4-1.1zm5.9-2.5-3.5 1.5c-.5.2-.8.6-1 1.2-.1.5 0 1 .2 1.5.1.2.2.4.4.6s.3.4.5.5v.7c0 .3.1.5.2.7.2.5.6.9 1 1.2.5.3 1 .3 1.5.1l3.5-1.5-.6-1.4-3.2 1.4c-.1.1-.3.1-.4 0s-.2-.2-.3-.4-.1-.3-.1-.5.1-.3.3-.3l3.2-1.4-.6-1.4-3.4 1.5c-.1 0-.2 0-.3-.1s-.2-.2-.2-.3c-.1-.2-.1-.3-.1-.5 0-.1.1-.3.3-.3l3.2-1.4zm5.9-2.6-3 1.3c-.7.3-1.1.9-1.2 1.7s0 1.6.4 2.5.9 1.6 1.6 2c.7.5 1.4.6 2.1.3l3-1.3-.6-1.4-2.7 1.2c-.3.1-.7.1-1-.2s-.6-.6-.8-1.1-.3-1-.3-1.4c0-.5.2-.8.5-.9l2.7-1.2zm6.8 3.2-1.4.6-2.3-5.2-1.3.6 2.3 5.2-1.4.6.6 1.4 4.1-1.8zm17.2-6.2-3.2 1.4c-.1.1-.3.1-.4 0s-.2-.2-.3-.4-.1-.3-.1-.5c0-.1.1-.3.3-.3l1.9-.8c.5-.2.8-.6.9-1.2.1-.5 0-1-.2-1.6-.2-.5-.6-.9-1-1.2-.5-.3-1-.3-1.5-.1l-3.5 1.5.6 1.4 3.2-1.4c.1-.1.3 0 .4 0 .1.1.2.2.3.4s.1.3.1.5c0 .1-.1.3-.3.3l-1.9.8c-.5.2-.8.6-1 1.2-.1.5 0 1 .2 1.5s.6.9 1 1.2c.5.3 1 .3 1.5.1l3.5-1.5zm4.6-2-1.4.6-2.3-5.2-1.3.6 2.3 5.2-1.4.6.6 1.4 4.1-1.8zm3.8-7.8-1.4.6.6 5.7c0 .1 0 .1-.1.1s-.1 0-.2 0l-3.8-4.4-1.5.6c.3.4.7.9 1.3 1.6.7.8 1.3 1.6 1.9 2.3.7.8 1.1 1.2 1.2 1.3.2.1.4.2.7.2s.5-.1.8-.2.5-.3.7-.5.3-.4.3-.6c0-.1 0-.7-.1-1.8-.1-.7-.2-1.7-.4-3 .1-.5.1-1.2 0-1.9m5.6-2.7-3 3.4-.7-1.6-1.3.6.9 2.2c.2.5.5.9.9 1.1.4.3.9.3 1.5 0l1.6-.7c.2-.1.3-.1.4 0s.2.2.3.3c.1.2.1.3.1.5s-.1.3-.3.3l-3.2 1.4.6 1.4 3.5-1.5c.5-.2.8-.6 1-1.2.1-.5 0-1-.2-1.5s-.6-.9-1-1.2c-.5-.3-1-.3-1.5-.1l-.8.4 2-2.3zm6.8 3.4-1.4.6-2.3-5.2-1.3.6 2.3 5.2-1.4.6.6 1.4 4.1-1.8z" fill="#929496"/><path d="m329.3 451.2 1.4.7c.5.2.8.5.9.7.1.3.1.5 0 .8s-.3.4-.6.5-.6 0-1.1-.2l-1.4-.7zm-1.6 3.5 1.2.6c.4.2.7.4.8.6s.1.5-.1.8c-.1.3-.3.4-.5.5s-.6 0-1-.2l-1.2-.6c0-.1.8-1.7.8-1.7zm-4.5 2.1 5.1 2.5c.9.4 1.6.5 2.3.3s1.1-.6 1.4-1.2c.3-.5.3-1.1.2-1.6-.1-.4-.3-.7-.7-1.1.7.2 1.3.1 1.8-.1s.9-.6 1.1-1.2c.2-.5.3-.9.3-1.4s-.2-.9-.5-1.3c-.2-.2-.5-.5-.9-.8-.6-.4-1-.6-1.2-.7l-4.7-2.3zm48 14.2-2.5 2.7.6-3.6zm1.5-1.7-3.1-1.5.3-1.7-2.8-1.3-.9 10.5 3 1.4 7.6-7.3-2.9-1.4z" fill="#a6a8ab"/><path d="m213 357.7 6.4-28.1 6.4 28.1h-3.5l-2.9-15.8-3 15.8zm17.8 0v-28.1h-3.5v28.1zm10-2.9v-9.8h-3.5v9.8zm-6.9 2.9v-28.1h3.5v14.5l4.8-14.5h3.2l-3.9 13.3c2.1 1.2 2.8 2.7 2.8 2.7v8.9c-1.4 2.9-3.9 3.2-3.9 3.2zm11.5 0h10.4v-2.9h-3.5v-25.2h-3.5v25.2h-3.4zm29.5-12.1 1.6-9.7h-3.4zm0 12.1-6.7-28h3.4l.7 3.8h4.8l.7-3.8h3.5zm7.9 0h3.5v-25.2h5.2v-2.9h-8.7zm37.1 0h3.2l3.2-12.1 2.9 12.1h3.5l-4.9-16.5v-11.6h-3.5v11.6c.1 0-4.4 16.5-4.4 16.5zm-4.5-3.2v-22h-3.5v22zm-1.7 3.2c-3.9 0-5.2-3.2-5.2-3.2s0-21.1 0-21.7c.5-3.4 5.2-3.2 5.2-3.2 5.2 0 5.2 3.2 5.2 3.2v21.7c-1.4 3.3-5.2 3.2-5.2 3.2m-56.6 0h3.5v-24.9h3.5v24.9h3.4v-24.9s-1.1-3.2-5.1-3.2c-3.9 0-5.4 3.2-5.4 3.2zm45.2-15.5v-9.8h-3.5v9.8zm0 12.3v-9.4h-3.5v9.4zm-7 3.2v-28.1h7c3.2.8 3.4 2.9 3.4 2.9s0 7.5 0 9.4c-.2 1.2-1.4 1.3-1.4 1.3s0 .3 0 .6c1.2.1 1.4 1.3 1.4 1.3s0 7.5 0 9.4c-.5 2.3-3.4 3.2-3.4 3.2s-7 0-7 0zm34.7-25.2h2.4v-.3h-1v-2.5h-.4v2.5h-1zm2.8-2.9v2.9h.3l1.2-2.5 1.2 2.5h.4v-2.9h-.4v2.2l-1-2.2h-.4l-1.1 2.2v-2.2z" fill="#6d6e70"/><path d="m243.4 311.6c-5 0-10.6-4.3-10.6-10.2s5.1-10.2 10.6-10.2h61.5c5.8-.4 10.6 4.3 10.6 10.2s-4.9 10.2-10.6 10.2z" fill="#1b1c1c"/><path d="m243.4 309.1c-3.9.2-8.1-3.2-8.1-7.7s3.4-7.6 8.1-7.6h61.5c4.7-.1 8.1 3.2 8.1 7.6 0 4.5-4 8-8.1 7.7z" fill="#232323"/><path d="m252.6 302.8v-6.4h2.9v6.4zm9.4.3s-1.2-.1-2.1-1v.7h-2.9v-6.4h2.9v4.2c.3 1.2 1.3 1.1 1.3 1.1 1.5 0 1.5-1.5 1.5-1.5v-3.8h2.8v3.9s-.2 2.8-3.5 2.8m23.6 0s-1.2-.1-2.1-1v.7h-2.9v-6.4h2.9v4.2c.3 1.2 1.3 1.1 1.3 1.1 1.5 0 1.5-1.5 1.5-1.5v-3.8h2.8v3.9s-.2 2.8-3.5 2.8m-30.1.9v1.9h-2.9v-1.9zm16-.5h-1.5v1.5h-2.9v-1.5h-1.2v-.8h1.2v-6.3h2.9v6.3h1.5zm32-.4c-2.3 0-4.1-1.6-4.1-3.6s1.8-3.5 4.1-3.5 4.1 1.6 4.1 3.5c0 2-1.9 3.6-4.1 3.6" fill="#1b1c1c"/><path d="m303.5 302.4c-.6 0-1.1-.6-1.1-1.3v-3.1c0-.7.5-1.3 1.1-1.3s1.1.6 1.1 1.3v3.1c0 .7-.5 1.3-1.1 1.3" fill="#232323"/><path d="m295.4 305.9v-3.3c-.4.2-.9.4-1.3.4-2.2 0-4-1.5-4-3.4s1.8-3.4 4-3.4c.4 0 .9.2 1.3.4v-.2h2.9v9.5c.1 0-2.8 0-2.9 0z" fill="#1b1c1c"/><path d="m294.3 302.1c-.6 0-1.1-.5-1.1-1.2v-2.8c0-.6.5-1.2 1.1-1.2s1.1.5 1.1 1.2v2.8c0 .7-.5 1.2-1.1 1.2" fill="#232323"/><path d="m276.8 298.3c0-1-.5-1.5-1.2-1.5-.6 0-1.2.6-1.2 1.3v1.4h5.5s-.2 3.7-4.3 3.7c-2.4 0-4.3-1.6-4.3-3.6s1.9-3.5 4.3-3.5c1.8 0 3.4.9 4 2.3 0-.1-2.8-.1-2.8-.1z" fill="#1b1c1c"/><path d="m276.8 300.5v.6c0 .7-.5 1.3-1.2 1.3-.6 0-1.2-.6-1.2-1.3v-.6z" fill="#232323"/><path d="m241 306v-9.5h2.6v6.6l4.2-6.7h3v9.5h-2.9v-6.7l-4.2 6.7h-2.7z" fill="#1b1c1c"/></g></svg>