<?xml version="1.0" encoding="utf-8"?>
<!-- Generator: Adobe Illustrator 21.1.0, SVG Export Plug-In . SVG Version: 6.00 Build 0)  -->
<svg version="1.1" baseProfile="basic" id="Layer_1"
	 xmlns="http://www.w3.org/2000/svg" xmlns:xlink="http://www.w3.org/1999/xlink" x="0px" y="0px" viewBox="0 0 278.8 209.5"
	 xml:space="preserve">
<style type="text/css">
	.st0{fill:#353535;}
	.st1{fill:#232323;}
	.st2{fill:#1C1C1C;}
	.st3{fill:#191818;}
	.st4{fill:#1F2123;}
	.st5{fill:#494E4E;}
	.st6{fill:#090A09;}
	.st7{fill:#474747;}
	.st8{fill:#303030;}
	.st9{fill:#E0E8EE;}
	.st10{fill:#1D1D1E;}
</style>
<path class="st0" d="M250.5,53.5c10.6,13.4,18.7,30.1,25.1,50.5c0.1,0.3,0.2,0.7,0.3,1c3.8,21,5.3,49.3-4.6,79.4
	c-0.5,1.5-1.4,2.8-2.6,3.7c-11.4,8.7-25.5,16.8-42.6,21.3c-1.4,0.4-18.2-11-41.4-33.4c-14.2,0.7-29.9,1.1-45.3,1.2
	c-15.5,0-31.2-0.4-45.3-1.2c-23.3,22.4-40,33.9-41.4,33.4c-17.1-4.5-31.3-12.5-42.6-21.3c-1.2-0.9-2.2-2.3-2.6-3.7
	C-2.4,154.3-0.9,126,2.9,105c0.1-0.3,0.1-0.7,0.3-1c6.4-20.4,14.5-37.1,25.1-50.6c22.6-28.9,57-42.4,111-44.2
	C193.3,11,227.7,24.5,250.5,53.5z"/>
<path class="st1" d="M139.3,31.9c44,0,75.7,15.6,97.3,31.8c1.7,1.3,3.3,2.7,4.8,4.3c10,11,19.8,20.7,19.8,45.2
	c0,26.2-15.7,47.1-39.9,47.1c-23.7-0.6-41-15.5-43.1-16.8c-12.9-8.4-23.1-10.6-38.9-10.6c-15.8,0-26,2.2-38.9,10.6
	c-2.1,1.4-19.4,16.3-43.1,16.8c-24.2,0-39.9-20.9-39.9-47.1c0-24.6,9.7-34.3,19.8-45.2c1.5-1.6,3.1-3,4.8-4.3
	C63.6,47.5,95.3,31.9,139.3,31.9z"/>
<ellipse class="st2" cx="67.7" cy="106.3" rx="39.6" ry="44.3"/>
<ellipse cx="66.7" cy="106.3" rx="30.3" ry="33.2"/>
<path class="st3" d="M147.4,124h-16.1c-3.2,0-5.8-2.6-5.8-5.8c0-3.2,2.6-5.8,5.8-5.8h16.1c3.2,0,5.8,2.6,5.8,5.8
	C153.2,121.4,150.6,124,147.4,124z"/>
<path class="st4" d="M146.2,121.1h-13.8c-1.6,0-2.9-1.3-2.9-2.9s1.3-2.9,2.9-2.9h13.8c1.6,0,2.9,1.3,2.9,2.9
	S147.8,121.1,146.2,121.1z"/>
<path class="st5" d="M39.6,65.7c0.8-0.7,1.6-1.4,2.4-2c21.6-16.2,53.3-31.8,97.3-31.8s75.7,15.6,97.3,31.8c0.8,0.6,1.7,1.3,2.4,2
	l11.5-12.2c-22.8-29-57.2-42.5-111.2-44.3C85.3,11,50.9,24.5,28.1,53.5C28.1,53.5,39.6,65.7,39.6,65.7z"/>
<ellipse class="st2" cx="210.7" cy="108.1" rx="39.9" ry="43.8"/>
<ellipse class="st6" cx="182.7" cy="103" rx="9.5" ry="10.7"/>
<ellipse class="st6" cx="206.1" cy="87.7" rx="9.3" ry="10.4"/>
<ellipse class="st6" cx="232.2" cy="79.1" rx="9.3" ry="10.6"/>
<ellipse class="st6" cx="188.4" cy="137.5" rx="12.6" ry="14.4"/>
<ellipse class="st6" cx="216" cy="118.8" rx="12.8" ry="14.2"/>
<ellipse class="st6" cx="247.4" cy="109.2" rx="12.8" ry="14"/>
<path class="st7" d="M52.6,209.5c1.4,0.4,18.2-11,41.4-33.4c14.2,0.7,29.9,1.1,45.3,1.2c15.5,0,31.2-0.4,45.3-1.2
	c23.3,22.4,40,33.9,41.4,33.4l-38.9-39.1c-17,2.5-33,2.4-47.8,2.5c-14.8-0.1-30.9,0-47.8-2.5L52.6,209.5z"/>
<path class="st2" d="M85.1,40.7l19.2-38.1c9-1.6,21.3-2.6,35-2.6s26,1,35,2.6l19.2,38.1c-15.5-5.4-33.5-8.8-54.2-8.8
	S100.6,35.3,85.1,40.7L85.1,40.7z"/>
<path class="st8" d="M59.8,124.1c-4.5-1.9-8-5.5-10-10c-1,0.3-1.7,0.3-2.5,0.3c-3.6,0-6.4-3.6-6.4-8s2.9-8,6.4-8
	c0.8,0,1.5,0,2.5,0.3c1.9-4.6,5.5-8.2,10-10.1c-0.3-0.9-0.5-1.7-0.5-2.7c0-4.3,3.3-7.8,7.3-7.8s7.3,3.5,7.3,7.8c0,1-0.1,1.8-0.5,2.7
	c4.5,1.9,8.1,5.5,10,10.1c1-0.3,1.6-0.3,2.5-0.3c3.6,0,6.4,3.6,6.4,8s-2.9,8-6.4,8c-0.8,0-1.5,0-2.5-0.3c-1.9,4.5-5.5,8.1-10,10
	c0.3,0.9,0.5,1.7,0.5,2.7c0,4.3-3.3,7.8-7.3,7.8s-7.3-3.5-7.3-7.8C59.4,125.8,59.5,125,59.8,124.1z"/>
<ellipse class="st6" cx="66.7" cy="86.6" rx="4.8" ry="5.6"/>
<ellipse class="st6" cx="48" cy="106.9" rx="4.6" ry="5.6"/>
<ellipse class="st6" cx="66.7" cy="126" rx="4.8" ry="5.6"/>
<ellipse class="st6" cx="85.4" cy="106.9" rx="4.6" ry="5.6"/>
<g>
	<path class="st9" d="M133.5,40.2c-0.5,0.3-1,0.5-1.4,0.8c-1,0.6-1.8,1.2-2.3,1.9s-0.8,1.7-0.3,2.6c0.4,0.7,1.2,1,1.9,1
		s1.5-0.2,2.5-0.4c1.8-0.5,4-1.4,6.2-2.3s4.3-1.7,5.8-2.1c0.8-0.2,1.4-0.2,1.7-0.2l0.3,0.1v0.1c0.1,0.3,0,0.5-0.2,0.8
		s-0.6,0.7-1.2,1.1c-0.2,0.1-0.4,0.3-0.7,0.4c-0.1,1-0.5,1.9-0.7,2.2c0.9-0.4,1.6-0.8,2.3-1.2c0.7-0.5,1.3-1,1.7-1.6
		s0.6-1.4,0.4-2.1c-0.1-0.4-0.3-0.8-0.6-1s-0.7-0.4-1-0.4c-0.7-0.1-1.5,0-2.4,0.2c-1.8,0.4-3.9,1.3-6.1,2.1c-2.2,0.9-4.3,1.7-6,2.2
		c-0.8,0.2-1.5,0.4-2,0.4c-0.4,0-0.5-0.1-0.5-0.1c-0.1-0.2-0.1-0.4,0.2-0.8c0.3-0.4,0.9-0.9,1.8-1.4C133,41.2,133.2,40.8,133.5,40.2
		z"/>
	<path class="st9" d="M139.3,36.7h-0.2c0.4,0.4,0.8,0.8,1,0.9c0.3,0.3,1.5,1.4,1.9,1.8l1.4,1.4c0.3,0.3,0.2,0.1,0.6,0.5l1.8,1.8
		v-0.6c-0.3-0.5-0.8-0.8-1.2-1.1c-0.2-0.2-0.4-0.3-0.6-0.5l-0.6-0.6c-0.1-0.1-2.2-2.2-3.6-3.7L139.3,36.7L139.3,36.7z M138.6,36.7
		l-0.6,0.1c0.6,0.6,1.3,1.1,1.5,1.4c0.3,0.3,1.5,1.4,1.9,1.8c0.3,0.3,0.9,0.9,1.3,1.2c0.3,0.3,0.4,0.3,0.8,0.7
		c0.8,0.8,1.4,1.5,2.2,2.2l0.2,0.2c0-0.2,0.1-0.5,0.1-0.7c-0.6-0.6-1.4-1.2-2-1.7c-0.2-0.2-0.4-0.3-0.6-0.5l-0.6-0.6
		C142.5,40.7,140,38.1,138.6,36.7L138.6,36.7z M140.5,36.8c0.5,0.5,2,1.9,2.4,2.3c0.3,0.3,1.2,1.1,1.5,1.5c0.3,0.3,0-0.1,0.4,0.4
		l0.8,0.8l-0.2-0.6l-0.1-0.1c-0.2-0.2-0.4-0.3-0.6-0.5l-0.1-0.2l-3.4-3.4C141,36.9,140.8,36.8,140.5,36.8L140.5,36.8z M137.5,36.9
		l-0.5,0.2c0.6,0.6,1.5,1.4,1.7,1.6c0.3,0.3,1.5,1.4,1.9,1.8c0.3,0.3,0.8,0.7,1.1,1s0.2,0.3,0.6,0.8l2.4,2.4l0.6,0.6l0.2-0.6
		c-0.7-0.6-1.7-1.5-2.5-2.2c-0.2-0.2-0.4-0.4-0.5-0.6l-0.7-0.5C141.9,41.2,138.8,38.2,137.5,36.9z M136.7,37.2l-0.6,0.3
		c0.7,0.6,1.7,1.5,2,1.8s1.6,1.4,2,1.8c0.3,0.3,0.4,0.3,0.7,0.6l1,1c0.8,0.8,1.6,1.8,2.4,2.5l0.9,0.9c0.1-0.2,0.2-0.5,0.3-0.7
		c-0.8-0.7-2-1.8-3-2.6c-0.2-0.2-0.3-0.4-0.5-0.6l-0.8-0.5C141,41.7,137.7,38.3,136.7,37.2L136.7,37.2z M142.4,37.5l1.2,1.2
		c0.2,0.2,0.7,0.6,1.1,1C144.2,38.8,143.4,38,142.4,37.5z M135.8,37.6l-0.5,0.3c0.6,0.6,1.5,1.3,1.8,1.7c0.3,0.3,1.7,1.4,2.1,1.8
		c0.3,0.3,0.3,0.2,0.6,0.6c0.3,0.3,0.7,0.6,1.2,1c0.8,0.8,1.6,1.8,2.4,2.5c0.6,0.5,1.1,1,1.3,1.2l0.3-0.4c-0.9-0.9-3-2.9-4-3.9
		l-0.7-0.4C140.1,42,136.7,38.5,135.8,37.6L135.8,37.6z M135.2,38.1l-0.4,0.4l0.1,0.3c0.6,0.6,1.5,1.3,1.8,1.7
		c0.3,0.3,1.7,1.4,2.1,1.8c0.3,0.3,0.3,0.2,0.6,0.6c0.9,0.9,2.4,2.4,3.5,3.6l1.1,1.1l0.4-0.5c-0.2-0.2-3.6-3.2-4.8-4.4l-0.7-0.6
		C138.9,41.9,136.2,39.2,135.2,38.1L135.2,38.1z M134.5,38.7l-0.4,0.5c0.6,0.6,1.7,1.5,2,1.9c0.3,0.3,1.1,0.9,1.4,1.3
		c0.3,0.3,0.7,0.8,1.1,1.1c0.9,0.9,2.5,2.5,3.5,3.6c0.6,0.6,1,1.1,1.1,1.2l0.6-0.5c-0.4-0.4-3.9-3.7-5.1-5l-0.3-0.1
		C138.4,42.5,135.3,39.5,134.5,38.7L134.5,38.7z M134,39.3l-0.4,0.6c0.6,0.5,1.8,1.7,2.1,2s0.4,0.4,0.7,0.6l0.5,0.5
		c0.3,0.3,0.1,0,0.5,0.4c1.4,1.4,4.9,4.8,5.3,5.2l0.5-0.4c-0.5-0.4-3.9-3.7-5.1-4.9l-0.7-0.4C137.5,42.9,134.8,40.2,134,39.3
		L134,39.3z M133.6,40c-0.1,0.3-0.3,0.5-0.4,0.8c0.5,0.5,1.8,1.7,2.2,2c0.3,0.3,0.4,0.3,0.6,0.6c0.2,0.3,0.6,0.4,0.7,0.6
		c1.5,1.4,4.8,4.7,5.2,5.1c0.2-0.1,0.5-0.2,0.7-0.4c-0.5-0.5-4.5-4-5.6-5.3l-0.9-1C135.9,42.4,134.2,40.7,133.6,40L133.6,40z
		 M133.2,40.9c-0.1,0.2-0.2,0.5-0.2,0.7c0.5,0.4,1.9,1.9,2.3,2.2c0.4,0.3,0.1,0.1,0.3,0.4l-0.1-0.3c0.3,0.3,0.6,0.7,1,1
		c1.4,1.3,4.2,4.1,4.7,4.5l0.6-0.2c-0.5-0.5-4.4-4.2-5.6-5.5l-0.4-0.2C135.7,43.4,133.8,41.6,133.2,40.9L133.2,40.9z M132.9,41.8
		c-0.1,0.5-0.2,0.9-0.2,1.4c0,3.2,2.4,6,5.6,6.4c-1.2-1.1-3.2-3.1-4-4h-0.7c0-0.8-0.1-1.1-0.1-1.1l0.6,0.6c0.6,0.7,3.2,3.2,4.5,4.5
		h1.2c-1-0.9-3.4-3.3-4.4-4.4l-1.2-0.8L133,43c0.2,0.1,0.9,0.8,1.3,1.1c0.4,0.3,0.6,0.4,0.8,0.6l0.4,0.4c0.3,0.3,0.6,0.7,1,1
		c1.2,1.1,2.9,2.7,3.6,3.4c0.3,0,0.6-0.1,0.9-0.2c-0.7-0.6-4.5-4.2-5.6-5.4l-0.4-0.2C134.9,43.9,133.5,42.4,132.9,41.8L132.9,41.8z"
		/>
	<path class="st9" d="M135.4,47.4c-2.2,0.4-3.6,0.3-3.6,0.3c-0.5,0-0.9,0.3-0.9,0.8s0.3,0.9,0.8,0.9c0,0,1.9,0.1,4.9-0.5
		C136.4,48.5,135.9,48,135.4,47.4z M144.9,37.3c-0.7,0-1.5,0.1-2.5,0.2c0.8,0.5,1.1,0.9,1.7,1.5c1.7-0.1,2.7,0,2.7,0
		c0.5,0.1,0.9-0.2,1-0.7s-0.3-0.9-0.7-1C147.1,37.3,146.2,37.2,144.9,37.3z M146.3,47.4h-0.5v1h-0.3v-1H145v-0.3h1.3V47.4z
		 M148.1,48.4h-0.3v-1.1l-0.3,1.1h-0.4l-0.3-1.1v1.1h-0.3v-1.3h0.5l0.3,1l0.3-1h0.5V48.4z"/>
</g>
<path class="st9" d="M109.5,58.4l0.4-0.2l0.2-0.5l-0.1-0.4c-0.1-0.2-0.3-0.3-0.6-0.3h-1.7c-0.7,0-1.2-0.2-1.5-0.6
	c-0.3-0.4-0.5-0.9-0.5-1.5s0.2-1.1,0.5-1.4c0.3-0.4,0.7-0.6,1.1-0.6c0.4-0.1,0.7-0.1,1-0.1h0.6l0.6,0.1c0.2,0,0.6,0.1,1.1,0.3
	l0.4,0.3l0.1,0.6l-0.3,0.5c-0.1,0.1-0.4,0.1-0.6,0c-0.3-0.1-0.6-0.2-0.9-0.2s-0.5-0.1-0.7-0.1h-0.8c-0.3,0-0.6,0.1-0.7,0.1l-0.2,0.4
	c0,0.4,0.1,0.6,0.2,0.7c0.1,0.1,0.3,0.1,0.7,0.1h1.8c0.5,0,0.9,0.2,1.2,0.6c0.3,0.4,0.5,0.9,0.5,1.5s-0.2,1.1-0.5,1.5
	s-0.7,0.6-1.2,0.7c-0.5,0-0.8,0.1-0.9,0.1h-0.5c-0.2,0-0.4,0-0.7-0.1c-0.3,0-0.6-0.1-1-0.2l-0.4-0.3l-0.1-0.6l0.3-0.5l0.5-0.1
	c0.5,0.1,0.9,0.2,1.3,0.2C108.4,58.5,108.9,58.5,109.5,58.4z M112.6,59.9c-0.5,0-0.7-0.3-0.7-0.9v-5.3c0-0.6,0.2-0.9,0.7-0.9h3.3
	l0.4,0.2l0.2,0.5l-0.2,0.5l-0.4,0.2h-2.8v1.2h1.8l0.4,0.2l0.2,0.5l-0.2,0.5l-0.4,0.2h-1.8v1.5h2.8l0.4,0.2l0.2,0.5l-0.2,0.5
	l-0.4,0.2h-3.3V59.9L112.6,59.9z M117,56.5c0-1.1,0.3-2,0.9-2.7s1.4-1,2.3-1s1.6,0.1,2.1,0.4c0.5,0.3,0.7,0.6,0.8,1
	c0,0.4-0.1,0.6-0.4,0.7c-0.3,0-0.6-0.1-0.8-0.4c-0.3-0.3-0.8-0.4-1.6-0.3c-0.6,0-1,0.2-1.4,0.6c-0.4,0.4-0.5,0.9-0.5,1.6
	c0,0.6,0.2,1.1,0.5,1.5c0.4,0.4,0.8,0.6,1.4,0.6s1-0.1,1.3-0.3s0.5-0.4,0.5-0.6s-0.1-0.4-0.4-0.4h-1.1l-0.4-0.2l-0.2-0.5l0.2-0.5
	l0.4-0.2h2.1c0.5,0,0.7,0.3,0.7,0.9v0.9c0,0.2-0.1,0.5-0.2,0.9c-0.2,0.3-0.5,0.7-0.9,1c-0.4,0.4-1.1,0.5-2,0.5s-1.7-0.3-2.3-1
	C117.3,58.3,117,57.5,117,56.5z M125.3,54.3c0.2-0.4,0.4-0.8,0.6-1.1s0.6-0.4,1-0.4s0.7,0.1,1,0.4c0.3,0.3,0.5,0.6,0.6,1.1
	c0.5,1.3,0.9,2.4,1.2,3.4c0.2,1,0.3,1.6,0.3,1.8l-0.3,0.4h-0.5c-0.2-0.1-0.3-0.3-0.4-0.6c-0.1-0.3-0.2-0.7-0.3-1.1h-3.2
	c-0.1,0.4-0.3,0.8-0.3,1.1c-0.1,0.3-0.2,0.5-0.3,0.6h-0.5l-0.3-0.4c-0.1-0.2,0-0.8,0.3-1.8S124.9,55.6,125.3,54.3z M126.9,54.2
	c-0.4,0-0.7,0.8-1.1,2.4h2.3C127.7,55.1,127.3,54.2,126.9,54.2z M135.7,58.4l0.4-0.2l0.2-0.5l-0.1-0.4c-0.1-0.2-0.3-0.3-0.6-0.3H134
	c-0.6,0-1.1-0.2-1.4-0.6c-0.3-0.4-0.4-0.9-0.4-1.5s0.2-1.1,0.5-1.4c0.3-0.4,0.7-0.6,1.1-0.6c0.4-0.1,0.7-0.1,0.9-0.1h0.5l0.5,0.1
	c0.2,0,0.6,0.1,1,0.3l0.4,0.3l0.1,0.6l-0.2,0.5c-0.1,0.1-0.3,0.1-0.6,0s-0.5-0.2-0.8-0.2s-0.5-0.1-0.6-0.1h-0.7
	c-0.3,0-0.5,0.1-0.7,0.1l-0.2,0.4c0,0.4,0.1,0.6,0.2,0.7c0.1,0.1,0.3,0.1,0.6,0.1h1.7c0.5,0,0.9,0.2,1.2,0.6
	c0.3,0.4,0.5,0.9,0.5,1.5s-0.2,1.1-0.5,1.5s-0.7,0.6-1.1,0.7c-0.4,0-0.7,0.1-0.9,0.1h-0.5c-0.2,0-0.4,0-0.7-0.1
	c-0.3,0-0.6-0.1-1-0.2l-0.4-0.3l-0.1-0.6l0.2-0.5l0.4-0.1c0.5,0.1,0.9,0.2,1.2,0.2C134.7,58.5,135.2,58.5,135.7,58.4z M139.8,54.3
	c0.2-0.4,0.3-0.8,0.6-1.1c0.2-0.3,0.5-0.4,0.9-0.4c0.3,0,0.7,0.1,0.9,0.4c0.3,0.3,0.5,0.6,0.6,1.1c0.5,1.3,0.9,2.4,1.1,3.4
	c0.2,1,0.3,1.6,0.2,1.8l-0.3,0.4h-0.4c-0.1-0.1-0.3-0.3-0.3-0.6c-0.1-0.3-0.2-0.7-0.3-1.1h-3c-0.1,0.4-0.2,0.8-0.3,1.1
	s-0.2,0.5-0.3,0.6h-0.4l-0.3-0.4c-0.1-0.2,0-0.8,0.3-1.8C139,56.7,139.4,55.6,139.8,54.3z M141.3,54.2c-0.3,0-0.7,0.8-1,2.4h2.1
	C142.1,55.1,141.7,54.2,141.3,54.2z M148.1,52.9l0.4,0.3l0.2,0.5l-0.2,0.5l-0.4,0.2h-1.4v4.9l-0.2,0.5l-0.4,0.2l-0.4-0.2l-0.1-0.5
	v-4.9h-1.4l-0.4-0.2l-0.2-0.5l0.2-0.5l0.4-0.3H148.1L148.1,52.9z M149.7,53.6l0.2-0.5l0.4-0.2l0.4,0.2l0.2,0.5v3.9
	c0.1,0.3,0.2,0.5,0.4,0.7s0.6,0.3,1.2,0.3c0.5,0,0.9-0.1,1.1-0.3c0.2-0.2,0.4-0.4,0.5-0.7v-3.9l0.2-0.5l0.4-0.2l0.4,0.2l0.2,0.5v4
	c0,0.3-0.1,0.6-0.2,0.9c-0.1,0.3-0.3,0.6-0.7,0.9c-0.4,0.4-1,0.5-1.8,0.5c-0.9,0-1.5-0.2-1.8-0.5c-0.4-0.3-0.6-0.7-0.7-0.9
	c-0.1-0.3-0.2-0.6-0.2-0.9v-4L149.7,53.6L149.7,53.6z M158.3,57c0-0.3,0.1-0.5,0.2-0.5c0.2,0,0.4,0,0.6-0.1c0.3,0,0.6-0.1,0.9-0.3
	c0.3-0.1,0.5-0.3,0.5-0.7l-0.3-0.5l-0.6-0.2l-0.7-0.1h-1.2c-0.3,0-0.5,0.2-0.5,0.6v3.9l-0.2,0.5l-0.4,0.2l-0.4-0.2l-0.2-0.5v-5.3
	c0-0.5,0.2-0.7,0.6-0.7c0.2,0,0.5-0.1,0.9-0.1s1,0.1,1.8,0.2s1.3,0.4,1.7,0.8c0.4,0.4,0.5,0.9,0.5,1.4c0,0.6-0.2,1.1-0.5,1.4
	c-0.4,0.3-0.7,0.4-1,0.5l1.3,1.3l0.2,0.5l-0.1,0.5l-0.4,0.3l-0.4-0.1l-2-2L158.3,57L158.3,57z M162.1,53.9l0.1-0.5l0.4-0.3l0.6,0.3
	l3,4.2v-3.7l0.2-0.5l0.4-0.3l0.4,0.3l0.1,0.5v5.3l-0.1,0.5l-0.4,0.2l-0.6-0.3l-3-4.1v3.7l-0.2,0.5l-0.4,0.2l-0.4-0.2l-0.1-0.5V53.9
	L162.1,53.9z M170.4,53.5h-0.7v1.7h-0.5v-1.7h-0.7v-0.6h1.9V53.5z M172.9,55.2h-0.5v-1.9l-0.4,1.9h-0.5l-0.4-1.9v1.9h-0.5v-2.3h0.7
	l0.4,1.7l0.5-1.7h0.7V55.2z"/>
<g>
	<path class="st9" d="M140.9,148.1c-0.8,0-1.4-0.6-1.4-1.4v-4.4c0-0.8,0.6-1.4,1.4-1.4h4.6v-1.4h-4.6c-1.5,0-2.8,1.2-2.8,2.8v4.4
		c0,1.5,1.3,2.8,2.8,2.8h4.6V143h-3.9v1.4h2.6v3.8L140.9,148.1 M121.6,149.5h4.4c1.8,0,3.3-1.5,3.3-3.3s-1.5-3.3-3.3-3.3h-1.2
		l-0.2-0.2l0.2-0.2h4.4v-1.4h-4.4c-0.9,0-1.6,0.7-1.6,1.6c0,0.9,0.7,1.6,1.6,1.6h1.2c1,0,1.9,0.8,1.9,1.9c0,1-0.8,1.9-1.9,1.9h-4.4
		L121.6,149.5"/>
	<path class="st9" d="M121.6,147.8h4.4c0.9,0,1.6-0.7,1.6-1.6s-0.7-1.6-1.6-1.6h-1.2c-1,0-1.9-0.8-1.9-1.9c0-1,0.8-1.9,1.9-1.9h4.4
		v-1.4h-4.4c-1.8,0-3.3,1.5-3.3,3.3s1.5,3.3,3.3,3.3h1.1l0.2,0.2l-0.2,0.2h-4.4L121.6,147.8 M132.8,148.1c-0.8,0-1.4-0.6-1.4-1.4
		v-4.4c0-0.8,0.6-1.4,1.4-1.4h4.7v-1.4h-4.7c-1.5,0-2.8,1.2-2.8,2.8v4.4c0,1.5,1.3,2.8,2.8,2.8h4.7v-1.4L132.8,148.1"/>
	<path class="st9" d="M131.7,142.3c0-0.6,0.5-1.1,1.1-1.1h4.7v1.4h-4.1l-0.3,0.3h3.4v1.4h-4.8L131.7,142.3 M132.8,147.8
		c-0.6,0-1.1-0.5-1.1-1.1v-2.1h4.8v1.4h-3.4l0.3,0.3h4.1v1.4L132.8,147.8 M139.8,146.7c0,0.6,0.5,1.1,1.1,1.1h2.9v-3.1h-2.2v1.4h0.8
		v0.3h-0.8l-0.3-0.3V143l0.3-0.3h3.9v-1.4h-4.6c-0.6,0-1.1,0.5-1.1,1.1L139.8,146.7 M149.8,141.2l0.4-0.3l0.4,0.3l2.3,6.6h-3.3v-1.5
		h1.1l-0.5-1.5l-1.6,4.7H147L149.8,141.2"/>
	<path class="st9" d="M153.3,148.1h-3.7v1.4h5.6l-2.9-8.7c-0.3-0.8-1.1-1.5-2.1-1.5s-1.9,0.6-2.1,1.5l-3,8.7h1.5l2.9-8.5l0.7-0.5
		l0.7,0.5L153.3,148.1 M154.6,140.4H154v1.6h-0.4l-0.1-1.6h-0.6v-0.6h1.7L154.6,140.4L154.6,140.4z M157,142h-0.5v-1.8l-0.3,1.8
		h-0.5l-0.4-1.8v1.8h-0.4v-2.2h0.6l0.4,1.7l0.4-1.7h0.7V142z"/>
</g>
<path class="st10" d="M219.8,117.3c0.5-0.2,0.7-0.5,0.6-0.8l-0.1-0.3c-0.2-0.5-1-0.5-2.5,0.1l-6.8,2.5l0.2,0.5l0.7,2l0.2,0.5
	l6.8-2.5c1.5-0.5,2.2-1.1,2-1.6l-0.1-0.2C220.7,117.2,220.3,117.2,219.8,117.3L219.8,117.3z M218.9,118.7L218,119l-4.7,1.7L213,120
	l4.8-1.8l0.8-0.3c0.6-0.2,0.9-0.2,1,0.1C219.7,118.3,219.4,118.5,218.9,118.7L218.9,118.7z M218.4,117.5l-5.6,2.1l-0.3-0.7l5.6-2.1
	c0.6-0.2,0.9-0.2,1,0.1C219.2,117,219,117.2,218.4,117.5z M192.8,135.9l-1.1,0.6l-1.5-0.2l-4.2,2.4l-0.5,1.3l-1.2,0.7l1.7-4.7
	l1.6-0.9C187.6,135.1,192.8,135.9,192.8,135.9z M189.5,136.1l-2-0.3l-0.7,0.4l-0.6,1.8L189.5,136.1z M248.9,107.8l-3.3,1.2
	c-2.2,0.8-1.9,1-1.6,1.7s0.2,1.1,2.3,0.3l5.8-2l0.2,0.5l-5.8,2c-3.1,1.1-3.5,0.7-3.8-0.3c-0.4-1-0.3-1.6,2.7-2.6l5.8-2l0.2,0.5
	L248.9,107.8L248.9,107.8z M186.1,103.8l-1.8-0.3c-0.7-0.1-1.2-0.2-1.6-0.2c-0.2,0.3-0.5,0.6-1,1.2l-1.1,1.3l-1.7,0.6l2.9-3.2
	l-4.1-0.6l1.7-0.6l1.8,0.3c0.5,0.1,0.9,0.2,1.3,0.2h0.1c0.2-0.3,0.5-0.6,0.8-1l1.3-1.4l1.7-0.6l-2.9,3.1l4.3,0.6L186.1,103.8z
	 M205.9,91.2l-0.6-1.6l-4.4-0.8l1.7-0.6l2,0.4c0.5,0.1,1,0.2,1.4,0.3c0.2-0.4,0.5-0.7,0.9-1.2l1.3-1.6l1.7-0.6l-3.1,3.5l0.6,1.6
	L205.9,91.2L205.9,91.2z M228.2,83.5l5.3-5.3l-5.9,2.1l-0.1-0.4l7.8-2.8l0.1,0.3l-5.3,5.3l6.5-2.4l0.1,0.4l-8.5,3.1L228.2,83.5
	L228.2,83.5z M131.7,105.3h-3.1v1h2.3c0.3,0,0.5,0.1,0.7,0.2s0.2,0.3,0.2,0.7v0.4c0,0.3-0.1,0.6-0.2,0.7s-0.3,0.2-0.7,0.2h-2.8V108
	h3.1v-1.1h-2.3c-0.3,0-0.6-0.1-0.7-0.2c-0.1-0.1-0.2-0.3-0.2-0.7v-0.3c0-0.3,0.1-0.6,0.2-0.7c0.1-0.1,0.3-0.2,0.7-0.2h2.8V105.3z
	 M134.9,105.3v3.1h-0.6v-3.1h-1.7v-0.5h3.9v0.5H134.9L134.9,105.3z M136.4,108.5l2-3.6h0.6l2,3.6h-0.7l-0.5-0.9h-2.4l-0.5,0.9H136.4
	L136.4,108.5z M137.7,107.1h1.9l-1-1.8L137.7,107.1z M142.2,108.5v-3.6h2.9c0.3,0,0.5,0.1,0.6,0.2s0.2,0.3,0.2,0.5v0.8
	c0,0.2-0.1,0.4-0.2,0.5c-0.1,0.1-0.3,0.2-0.6,0.2h-0.5l1.7,1.4h-0.9l-1.6-1.5h-1v1.4L142.2,108.5L142.2,108.5z M144.9,105.3h-2.1
	v1.3h2.1c0.2,0,0.3,0,0.3-0.1s0.1-0.2,0.1-0.3v-0.5c0-0.1,0-0.2-0.1-0.3C145.1,105.3,145,105.3,144.9,105.3z M148.9,105.3v3.1h-0.6
	v-3.1h-1.7v-0.5h3.9v0.5H148.9L148.9,105.3z"/>
</svg>
