<svg baseProfile="tiny" xmlns="http://www.w3.org/2000/svg" viewBox="0 0 425.9 119.6"><path fill="#C6C6BB" d="M279.9 119.6H13.6l-.2-.1V110l.2-.2h5.1l.2-.1V14l-.2-.1h-5.1l-.2-.2V4.2l.2-.1h266.3l.1.1v9.5l-.1.2h-5.2l-.2.1v95.7l.2.1h5.2l.1.2v9.5z"/><path fill="#BFBFB6" d="M261.1 4.1H32.3V.4c0-.2.2-.4.4-.4h227.9c.2 0 .4.2.4.5v3.6z"/><path fill="#777D78" d="M30.2 12.5h1.7v15.8h-1.7z"/><path fill="#9F9D8E" d="M30.3 12.6h1.5v15.6h-1.5z"/><path fill="#777D78" d="M34.6 12.5h1.7v15.8h-1.7z"/><path fill="#9F9D8E" d="M34.7 12.6h1.5v15.6h-1.5z"/><path fill="#777D78" d="M38.9 12.5h1.7v15.8h-1.7z"/><path fill="#9F9D8E" d="M39 12.6h1.5v15.6H39z"/><path fill="#777D78" d="M43.3 12.5H45v15.8h-1.7z"/><path fill="#9F9D8E" d="M43.4 12.6h1.5v15.6h-1.5z"/><path fill="#777D78" d="M47.6 12.5h1.7v15.8h-1.7z"/><path fill="#9F9D8E" d="M47.7 12.6h1.5v15.6h-1.5z"/><path fill="#777D78" d="M52 12.5h1.7v15.8H52z"/><path fill="#9F9D8E" d="M52.1 12.6h1.5v15.6h-1.5z"/><path fill="#777D78" d="M56.3 12.5H58v15.8h-1.7z"/><path fill="#9F9D8E" d="M56.4 12.6h1.5v15.6h-1.5z"/><path fill="#777D78" d="M60.7 12.5h1.7v15.8h-1.7z"/><path fill="#9F9D8E" d="M60.8 12.6h1.5v15.6h-1.5z"/><path fill="#777D78" d="M65 12.5h1.7v15.8H65z"/><path fill="#9F9D8E" d="M65.1 12.6h1.5v15.6h-1.5z"/><path fill="#777D78" d="M69.3 12.5H71v15.8h-1.7z"/><path fill="#9F9D8E" d="M69.5 12.6H71v15.6h-1.5z"/><path fill="#777D78" d="M73.7 12.5h1.7v15.8h-1.7z"/><path fill="#9F9D8E" d="M73.8 12.6h1.5v15.6h-1.5z"/><path fill="#777D78" d="M78 12.5h1.7v15.8H78z"/><path fill="#9F9D8E" d="M78.2 12.6h1.5v15.6h-1.5z"/><path fill="#777D78" d="M82.4 12.5h1.7v15.8h-1.7z"/><path fill="#9F9D8E" d="M82.5 12.6H84v15.6h-1.5z"/><path fill="#777D78" d="M86.7 12.5h1.7v15.8h-1.7z"/><path fill="#9F9D8E" d="M86.9 12.6h1.5v15.6h-1.5z"/><path fill="#777D78" d="M91.1 12.5h1.7v15.8h-1.7z"/><path fill="#9F9D8E" d="M91.2 12.6h1.5v15.6h-1.5z"/><path fill="#777D78" d="M95.4 12.5h1.7v15.8h-1.7z"/><path fill="#9F9D8E" d="M95.6 12.6h1.5v15.6h-1.5z"/><path fill="#777D78" d="M99.8 12.5h1.7v15.8h-1.7z"/><path fill="#9F9D8E" d="M99.9 12.6h1.5v15.6h-1.5z"/><path fill="#777D78" d="M104.1 12.5h1.7v15.8h-1.7z"/><path fill="#9F9D8E" d="M104.2 12.6h1.5v15.6h-1.5z"/><path fill="#777D78" d="M108.5 12.5h1.7v15.8h-1.7z"/><path fill="#9F9D8E" d="M108.6 12.6h1.5v15.6h-1.5z"/><path fill="#777D78" d="M30.2 32.3h1.7v15.8h-1.7z"/><path fill="#9F9D8E" d="M30.3 32.4h1.5V48h-1.5z"/><path fill="#777D78" d="M34.6 32.3h1.7v15.8h-1.7z"/><path fill="#9F9D8E" d="M34.7 32.4h1.5V48h-1.5z"/><path fill="#777D78" d="M38.9 32.3h1.7v15.8h-1.7z"/><path fill="#9F9D8E" d="M39 32.4h1.5V48H39z"/><path fill="#777D78" d="M43.3 32.3H45v15.8h-1.7z"/><path fill="#9F9D8E" d="M43.4 32.4h1.5V48h-1.5z"/><path fill="#777D78" d="M47.6 32.3h1.7v15.8h-1.7z"/><path fill="#9F9D8E" d="M47.7 32.4h1.5V48h-1.5z"/><path fill="#777D78" d="M52 32.3h1.7v15.8H52z"/><path fill="#9F9D8E" d="M52.1 32.4h1.5V48h-1.5z"/><path fill="#777D78" d="M56.3 32.3H58v15.8h-1.7z"/><path fill="#9F9D8E" d="M56.4 32.4h1.5V48h-1.5z"/><path fill="#777D78" d="M60.7 32.3h1.7v15.8h-1.7z"/><path fill="#9F9D8E" d="M60.8 32.4h1.5V48h-1.5z"/><path fill="#777D78" d="M65 32.3h1.7v15.8H65z"/><path fill="#9F9D8E" d="M65.1 32.4h1.5V48h-1.5z"/><path fill="#777D78" d="M69.3 32.3H71v15.8h-1.7z"/><path fill="#9F9D8E" d="M69.5 32.4H71V48h-1.5z"/><path fill="#777D78" d="M73.7 32.3h1.7v15.8h-1.7z"/><path fill="#9F9D8E" d="M73.8 32.4h1.5V48h-1.5z"/><path fill="#777D78" d="M78 32.3h1.7v15.8H78z"/><path fill="#9F9D8E" d="M78.2 32.4h1.5V48h-1.5z"/><path fill="#777D78" d="M82.4 32.3h1.7v15.8h-1.7z"/><path fill="#9F9D8E" d="M82.5 32.4H84V48h-1.5z"/><path fill="#777D78" d="M86.7 32.3h1.7v15.8h-1.7z"/><path fill="#9F9D8E" d="M86.9 32.4h1.5V48h-1.5z"/><path fill="#777D78" d="M91.1 32.3h1.7v15.8h-1.7z"/><path fill="#9F9D8E" d="M91.2 32.4h1.5V48h-1.5z"/><path fill="#777D78" d="M95.4 32.3h1.7v15.8h-1.7z"/><path fill="#9F9D8E" d="M95.6 32.4h1.5V48h-1.5z"/><path fill="#777D78" d="M99.8 32.3h1.7v15.8h-1.7z"/><path fill="#9F9D8E" d="M99.9 32.4h1.5V48h-1.5z"/><path fill="#777D78" d="M104.1 32.3h1.7v15.8h-1.7z"/><path fill="#9F9D8E" d="M104.2 32.4h1.5V48h-1.5z"/><path fill="#777D78" d="M108.5 32.3h1.7v15.8h-1.7z"/><path fill="#9F9D8E" d="M108.6 32.4h1.5V48h-1.5z"/><path fill="#9EB0B8" d="M30 52h80v8.7H30z"/><path fill="#070706" d="M30.2 52.2h79.6v8.1H30.2z"/><path fill="#656565" d="M31.8 56.8l.4-1.5c.1-.4.4-.6.8-.6h7.3l-.2.9h-6.4l-.2.9h5.6c.5 0 .7.2.6.6l-.4 1.5c-.1.4-.4.6-.8.6h-7.3l.2-.9h6.4l.2-.9h-5.6c-.5 0-.7-.2-.6-.6zM39.8 58.6l.9-3.3c.1-.4.4-.6.8-.6h7.3l-.2.9h-6.4l-.2.9h5.3l-.2.9h-5.4l-.2.9h6.4l-.2.9h-7.4c-.4 0-.6-.2-.5-.6zM48.3 58.6l.9-3.3c.1-.4.4-.6.8-.6h7.6l-.2.9h-6.7l-.7 2.7h5.2l.3-.9H54l.2-.9H57l-.6 2.2c-.1.4-.3.6-.6.6h-7c-.4-.1-.6-.3-.5-.7zM56.7 59.2l3.6-4.5h1.8l2.8 4.5H63l-.6-.9h-3l.6-.9h1.8l-.9-1.5-2.7 3.3zM67 59.2l1.3-4.5h1.5l1.8 3.6 3.6-3.6h1.6l-1.3 4.5H74l.6-2.1-2.1 2.1h-2.1l-1.2-2.4-.6 2.4zM75.8 59.2l3.7-4.5h1.8l2.7 4.5h-1.8l-.6-.9h-3l.6-.9H81l-.9-1.5-2.7 3.3zM85.6 54.7h7.3c.4 0 .6.2.5.6l-.4 1.5c-.1.4-.4.6-.7.6h-2.1l2.1 1.8h-1.8l-3-2.7h4.1l.2-.9h-4.9l-1 3.6h-1.5l1.2-4.5zM92.8 59.2l1.3-4.5h1.5l-.7 2.5 4-2.5h2.4l-4.4 2.6 2.9 1.9h-2.4l-2.5-1.9-.5 1.9zM102 53.6l.1-.2h3l-.1.2c-.3 0-.5.1-.6.2-.1.1-.3.4-.4.7l-1.1 3.7c-.1.3-.1.4-.1.5 0 .1 0 .2.1.2.1.1.3.1.6.1v.2h-3.1l.1-.2c.3 0 .5-.1.7-.2s.3-.4.4-.7l1.1-3.7c.1-.2.1-.4.1-.5 0-.1 0-.2-.1-.3h-.7z"/><path fill="#656565" d="M103.8 53.6l.1-.2h3l-.1.2c-.3 0-.5.1-.6.2-.1.1-.3.4-.4.7l-1.1 3.7c-.1.3-.1.4-.1.5 0 .1 0 .2.1.2.1.1.3.1.6.1v.2h-3.1l.1-.2c.3 0 .5-.1.7-.2s.3-.4.4-.7l1.1-3.7c.1-.2.1-.4.1-.5 0-.1 0-.2-.1-.3h-.7z"/><path fill="#656565" d="M105.7 53.6l.1-.2h3l-.1.2c-.3 0-.5.1-.6.2-.1.1-.3.4-.4.7l-1.1 3.7c-.1.3-.1.4-.1.5 0 .1 0 .2.1.2.1.1.3.1.6.1v.2h-3.1l.1-.2c.3 0 .5-.1.7-.2s.3-.4.4-.7l1.1-3.7c.1-.2.1-.4.1-.5 0-.1 0-.2-.1-.3h-.7z"/><path fill="#070707" d="M185.5 78.2h47.8V82h-47.8z"/><path fill="#818488" d="M162.9 77.4h92.9v.8h-92.9z"/><path fill="#040404" d="M162.9 51.8h92.9v8.8h-92.9z"/><path fill="#919998" d="M162.9 60.6h92.9v16.9h-92.9z"/><path fill="#949B9B" d="M162.9 78.2h22.6V82h-22.6zM233.3 78.2h22.6V82h-22.6z"/><path fill="#2E6CB2" d="M235.8 76.5h2.2c.9 0 1.6-.7 1.6-1.6 0-.9-.7-1.6-1.6-1.6h-.6l-.1-.1.1-.1h2.2v-.7h-2.2c-.4 0-.8.3-.8.8 0 .4.3.8.8.8h.6c.5 0 .9.4.9.9s-.4.9-.9.9h-2.2v.7z"/><path fill="#2E6CB2" d="M235.8 75.7h2.2c.4 0 .8-.3.8-.8 0-.4-.3-.8-.8-.8h-.6c-.5 0-.9-.4-.9-.9s.4-.9.9-.9h2.2v-.7h-2.2c-.9 0-1.6.7-1.6 1.6 0 .9.7 1.6 1.6 1.6h.6l.1.1-.1.1h-2.2v.7zM241.3 75.8c-.4 0-.7-.3-.7-.7V73c0-.4.3-.7.7-.7h2.3v-.7h-2.3c-.8 0-1.4.6-1.4 1.4v2.2c0 .8.6 1.4 1.4 1.4h2.3v-.7l-2.3-.1z"/><path fill="#2E6CB2" d="M240.8 73c0-.3.2-.5.5-.5h2.3v.7h-2c-.2 0-.2.2-.2.2h1.7v.6h-2.4l.1-1zM241.3 75.7c-.3 0-.5-.2-.5-.5v-1h2.4v.7h-1.7c0 .2.2.2.2.2h2v.7l-2.4-.1zM245.3 75.8c-.4 0-.7-.3-.7-.7V73c0-.4.3-.7.7-.7h2.3v-.7h-2.3c-.8 0-1.4.6-1.4 1.4v2.2c0 .8.6 1.4 1.4 1.4h2.3v-3.2h-1.9v.6h1.3v1.9h-1.7z"/><path fill="#2E6CB2" d="M244.8 75.1c0 .3.2.5.5.5h1.4v-1.5h-1.1v.7h.4v.2h-.4l-.2-.2v-1.5s0-.2.2-.2h1.9v-.7h-2.3c-.3 0-.5.2-.5.5v2.2zM249.7 72.4c0-.1.1-.2.2-.2s.2.1.2.2l1.1 3.2h-1.6v-.8h.5l-.2-.7-.8 2.3h-.8l1.4-4z"/><path fill="#2E6CB2" d="M251.4 75.8h-1.8v.7h2.8l-1.4-4.3c-.1-.4-.5-.7-1-.7s-.9.3-1 .7l-1.5 4.3h.7l1.4-4.2c.1-.1.2-.2.4-.2s.3.1.4.2l1 3.5z"/><path fill="#656565" d="M184.2 55.2h.9c.5 0 .9.2.9.8 0 .5-.4.8-1 .8h-.4v1h-.5v-2.6zm.5 1.2h.3c.3 0 .5-.1.5-.4 0-.3-.2-.4-.4-.4h-.4v.8zM186.7 57.2l-.2.6h-.5c0-.1.7-2.5.8-2.6h.7l.8 2.6h-.5l-.2-.6h-.9zm.7-.4c-.2-.5-.3-.9-.3-1.1-.1.3-.2.7-.3 1.1h.6zM189.1 55.2v1.6c0 .3.1.6.5.6s.5-.3.5-.6v-1.6h.5v1.6c0 .5-.2 1-1 1s-1-.4-1-1v-1.6h.5zM191.4 57c0 .2.2.4.5.4s.4-.1.4-.3c0-.2-.1-.3-.5-.4-.6-.2-.8-.4-.8-.8 0-.5.4-.7.9-.7.6 0 .9.3.9.7h-.5c0-.2-.1-.3-.4-.3-.2 0-.3.1-.3.3 0 .2.1.2.5.4.7.2.8.5.8.8 0 .4-.3.8-1 .8-.6 0-.9-.3-1-.8h.5zM194.8 56.7h-1.1v.7h1.3l-.1.4h-1.7v-2.6h1.7v.5h-1.2v.5h1.1zM225.3 55.2h.9c.5 0 .9.2.9.8 0 .5-.4.8-1 .8h-.4v1h-.5v-2.6zm.5 1.2h.3c.3 0 .5-.1.5-.4 0-.3-.2-.4-.4-.4h-.4v.8zM229.8 56.5c0 .7-.4 1.3-1.2 1.3-.8 0-1.1-.6-1.1-1.3 0-.6.3-1.3 1.2-1.3.7 0 1.1.6 1.1 1.3zm-1.8 0c0 .5.2.9.6.9.4 0 .6-.4.6-.9s-.2-.9-.6-.9c-.4 0-.6.4-.6.9zM230.6 57.8l-.6-2.6h.6c.1.6.3 1.5.3 2 .1-.5.3-1.4.5-2h.5c.1.5.4 1.5.4 1.9.1-.6.3-1.5.4-1.9h.5l-.6 2.6h-.6c-.1-.6-.3-1.4-.4-1.8-.1.5-.3 1.3-.4 1.8h-.6zM235.1 56.7H234v.7h1.2l-.1.4h-1.6v-2.6h1.6v.5H234v.5h1.1zM236.1 56.7v1.1h-.5v-2.6h1c.5 0 .8.2.8.7 0 .4-.2.5-.4.6.3.1.3.3.3.6v.7h-.5v-.7c0-.3-.1-.4-.4-.4h-.3zm0-.4h.4c.2 0 .5-.1.5-.4 0-.2-.2-.3-.4-.3h-.5v.7zM240.6 56.5c0 .7-.4 1.3-1.2 1.3-.8 0-1.1-.6-1.1-1.3 0-.6.3-1.3 1.2-1.3.8 0 1.1.6 1.1 1.3zm-1.7 0c0 .5.2.9.6.9.4 0 .6-.4.6-.9s-.2-.9-.6-.9c-.5 0-.6.4-.6.9zM241.1 57.8v-2.6h.7c.8 1.6.9 1.8.9 1.9V55.2h.5v2.6h-.6c-.8-1.7-.9-1.9-.9-2v2h-.6zM167.7 62.9h-.5v-.3h1.4v.3h-.5v1.5h-.4zM169.2 62.5v.7c.1-.1.2-.2.4-.2.3 0 .4.1.4.5v.9h-.4v-.9c0-.2 0-.3-.2-.3s-.2.1-.2.3v.8h-.4v-2h.4zM170.4 62.5h.4v.3h-.4v-.3zm0 .5h.4v1.4h-.4V63z"/><path fill="#656565" d="M171.3 64c0 .1.1.2.2.2s.2 0 .2-.1-.1-.1-.3-.2c-.4-.1-.5-.2-.5-.4s.1-.4.5-.4.5.2.5.4h-.4c0-.1-.1-.2-.2-.2s-.2 0-.2.1.1.1.3.2c.4.1.5.2.5.5s-.2.4-.6.4c-.3 0-.6-.2-.6-.5h.6zM174.5 63.9c-.1.3-.3.6-.7.6-.6 0-.8-.4-.8-1 0-.5.3-1 .8-1s.7.3.7.6h-.4c0-.2-.1-.3-.4-.3-.3 0-.4.3-.4.7 0 .4.1.7.4.7.2 0 .3-.2.4-.3h.4zM176.1 63.7c0 .4-.2.8-.7.8-.5 0-.7-.4-.7-.7 0-.4.2-.7.7-.7.5-.1.7.2.7.6zm-1 0c0 .3.1.5.3.5.2 0 .3-.2.3-.5s-.1-.4-.3-.4c-.2 0-.3.2-.3.4zM176.3 63.5v-.4h.4v.2c.1-.1.2-.2.4-.2s.3.1.4.2c.1-.1.2-.2.4-.2s.4.1.4.5v.9h-.4v-.9c0-.1 0-.2-.2-.2s-.2.1-.2.3v.8h-.4v-.9c0-.1-.1-.2-.2-.2-.2 0-.2.1-.2.3v.8h-.4v-1zM179 64.3v.7h-.4v-1.5-.4h.4v.2c.1-.1.2-.2.4-.2.3 0 .5.2.5.7 0 .5-.3.7-.6.7-.1 0-.2-.1-.3-.2zm.6-.6c0-.3-.1-.4-.3-.4-.2 0-.3.1-.3.4 0 .3.1.4.3.4.2.1.3-.1.3-.4zM181.4 64v.4h-.4v-.2c-.1.1-.2.2-.4.2-.3 0-.4-.2-.4-.5V63h.4v.9c0 .1.1.3.2.3.2 0 .2-.1.2-.3V63h.4v1zM181.6 63h.2v-.4h.4v.4h.3v.3h-.3v.7c0 .1 0 .1.1.1h.1v.3h-.2c-.3 0-.4-.1-.4-.4v-.8h-.2V63zM182.9 63.8c0 .2.1.4.3.4.2 0 .2-.1.2-.2h.4c-.1.2-.2.5-.6.5-.5 0-.6-.3-.6-.7 0-.3.2-.7.7-.7.5 0 .6.3.6.7v.1h-1zm.6-.2c0-.2-.1-.3-.3-.3-.2 0-.3.2-.3.3h.6zM184.1 63.5V63h.4v.2c0-.1.2-.3.4-.3v.4c-.3 0-.4.1-.4.4v.6h-.4v-.8zM186.2 64.4l-.6-1.9h.4l.2.8c.1.2.1.5.2.7 0-.2.1-.4.2-.7l.3-.9h.4l-.6 1.9h-.5zM187.5 62.5h.4v.3h-.4v-.3zm0 .5h.4v1.4h-.4V63zM189.4 62.5v2h-.4v-.2c-.1.1-.2.2-.4.2-.4 0-.5-.3-.5-.7 0-.4.2-.7.6-.7.2 0 .3.1.3.1v-.7h.4zm-.9 1.2c0 .3.1.4.3.4.2 0 .3-.2.3-.4 0-.3-.1-.4-.3-.4-.2 0-.3.2-.3.4zM190.1 63.8c0 .2.1.4.3.4.2 0 .2-.1.2-.2h.4c-.1.2-.2.5-.6.5-.5 0-.6-.3-.6-.7 0-.3.2-.7.7-.7.5 0 .6.3.6.7v.1h-1zm.5-.2c0-.2-.1-.3-.3-.3-.2 0-.3.2-.3.3h.6zM192.5 63.7c0 .4-.2.8-.7.8-.5 0-.7-.4-.7-.7 0-.4.2-.7.7-.7.5-.1.7.2.7.6zm-.9 0c0 .3.1.5.3.5.2 0 .3-.2.3-.5s-.1-.4-.3-.4c-.2 0-.3.2-.3.4zM195 64.4h-.3v-.2c-.1.2-.3.2-.5.2-.5 0-.7-.4-.7-1 0-.5.3-1 .9-1 .4 0 .7.2.7.6h-.4c0-.1-.1-.3-.4-.3-.3 0-.4.3-.4.7 0 .4.1.6.4.6.3 0 .4-.2.4-.4h-.4v-.3h.8c-.1.8-.1 1.1-.1 1.1zM196.4 64.1v.4h-.3v-.2c-.1.1-.2.2-.4.2-.3 0-.5-.2-.5-.4 0-.3.2-.5.7-.5h.2v-.1c0-.1 0-.2-.2-.2s-.2.1-.2.2h-.4c0-.2.1-.4.6-.4.3 0 .6.1.6.5v.5zm-.3-.3h-.2c-.3 0-.3.1-.3.2s.1.2.2.2c.2 0 .3-.2.3-.4zM196.8 63.5v-.4h.4v.2c.1-.1.2-.2.4-.2s.3.1.4.2c.1-.1.2-.2.4-.2s.5.1.5.5v.9h-.4v-.9c0-.1 0-.2-.2-.2s-.2.1-.2.3v.8h-.4v-.9c0-.1-.1-.2-.2-.2-.2 0-.2.1-.2.3v.8h-.4v-1zM199.4 63.8c0 .2.1.4.3.4.2 0 .2-.1.2-.2h.4c-.1.2-.2.5-.6.5-.5 0-.6-.3-.6-.7 0-.3.2-.7.7-.7.5 0 .6.3.6.7v.1h-1zm.6-.2c0-.2-.1-.3-.3-.3-.2 0-.3.2-.3.3h.6zM202.8 63.9c-.1.3-.3.6-.7.6-.6 0-.8-.4-.8-1 0-.5.3-1 .8-1s.7.3.7.6h-.4c0-.2-.1-.3-.4-.3-.3 0-.4.3-.4.7 0 .4.1.7.4.7.2 0 .3-.2.4-.3h.4zM204.3 63.7c0 .4-.2.8-.7.8-.5 0-.7-.4-.7-.7 0-.4.2-.7.7-.7.5-.1.7.2.7.6zm-1 0c0 .3.1.5.3.5.2 0 .3-.2.3-.5s-.1-.4-.3-.4c-.2 0-.3.2-.3.4zM204.6 63.5v-.4h.4v.2c.1-.1.2-.2.4-.2.3 0 .4.2.4.5v.9h-.4v-.9c0-.2 0-.3-.2-.3s-.3.1-.3.3v.8h-.4v-.9zM206.4 64c0 .1.1.2.2.2s.2 0 .2-.1-.1-.1-.3-.2c-.4-.1-.5-.2-.5-.4s.1-.4.5-.4.5.2.5.4h-.4c0-.1-.1-.2-.2-.2s-.2 0-.2.1.1.1.3.2c.4.1.5.2.5.5s-.2.4-.6.4c-.3 0-.6-.2-.6-.5h.6zM208.7 63.7c0 .4-.2.8-.7.8-.5 0-.7-.4-.7-.7 0-.4.2-.7.7-.7.5-.1.7.2.7.6zm-1 0c0 .3.1.5.3.5.2 0 .3-.2.3-.5s-.1-.4-.3-.4c-.2 0-.3.2-.3.4zM209 62.5h.4v2h-.4zM210 63.8c0 .2.1.4.3.4.2 0 .2-.1.2-.2h.4c-.1.2-.2.5-.6.5-.5 0-.6-.3-.6-.7 0-.3.2-.7.7-.7.5 0 .6.3.6.7v.1h-1zm.5-.2c0-.2-.1-.3-.3-.3-.2 0-.3.2-.3.3h.6zM211 64.8c.1-.1.2-.4.2-.8h.4c0 .3-.1.6-.2.8h-.4zM213.6 62.5v2h-.4v-.2c-.1.1-.2.2-.4.2-.4 0-.5-.3-.5-.7 0-.4.2-.7.6-.7.2 0 .3.1.3.1v-.7h.4zm-.9 1.2c0 .3.1.4.3.4.2 0 .3-.2.3-.4 0-.3-.1-.4-.3-.4-.2 0-.3.2-.3.4zM214.3 63.8c0 .2.1.4.3.4.2 0 .2-.1.2-.2h.4c-.1.2-.2.5-.6.5-.5 0-.6-.3-.6-.7 0-.3.2-.7.7-.7.5 0 .6.3.6.7v.1h-1zm.5-.2c0-.2-.1-.3-.3-.3-.2 0-.3.2-.3.3h.6z"/><path fill="#656565" d="M215.7 64c0 .1.1.2.2.2s.2 0 .2-.1-.1-.1-.3-.2c-.4-.1-.5-.2-.5-.4s.1-.4.5-.4.5.2.5.4h-.4c0-.1-.1-.2-.2-.2s-.2 0-.2.1.1.1.3.2c.4.1.5.2.5.5s-.2.4-.6.4c-.3 0-.6-.2-.6-.5h.6zM216.8 62.5h.4v.3h-.4v-.3zm0 .5h.4v1.4h-.4V63zM218.7 64.3c0 .4-.2.7-.7.7-.5 0-.6-.2-.6-.5h.4c0 .1.1.2.3.2.2 0 .3-.1.3-.4v-.1c-.1.1-.2.2-.4.2-.3 0-.6-.3-.6-.7 0-.5.3-.7.6-.7.2 0 .3.1.3.2v-.1h.4V64.3zm-.9-.6c0 .3.1.4.3.4.2 0 .3-.1.3-.4 0-.3 0-.4-.3-.4-.2 0-.3.1-.3.4zM219 63.5v-.4h.4v.2c.1-.1.2-.2.4-.2.3 0 .4.2.4.5v.9h-.4v-.9c0-.2 0-.3-.2-.3s-.3.1-.3.3v.8h-.3v-.9zM220.9 63.8c0 .2.1.4.3.4.2 0 .2-.1.2-.2h.4c-.1.2-.2.5-.6.5-.5 0-.6-.3-.6-.7 0-.3.2-.7.7-.7.5 0 .6.3.6.7v.1h-1zm.5-.2c0-.2-.1-.3-.3-.3-.2 0-.3.2-.3.3h.6zM223.3 62.5v2h-.4v-.2c-.1.1-.2.2-.4.2-.4 0-.5-.3-.5-.7 0-.4.2-.7.6-.7.2 0 .3.1.3.1v-.7h.4zm-.9 1.2c0 .3.1.4.3.4.2 0 .3-.2.3-.4 0-.3-.1-.4-.3-.4-.2 0-.3.2-.3.4zM167.4 67.7v-1.1h-.2v-.3h.2v-.1c0-.3.1-.5.4-.5h.2v.3h-.1c-.1 0-.1.1-.1.2v.1h.2v.3h-.2v1.1h-.4zM169.4 67c0 .4-.2.8-.7.8-.5 0-.7-.4-.7-.7 0-.4.2-.7.7-.7.5-.1.7.2.7.6zm-.9 0c0 .3.1.5.3.5.2 0 .3-.2.3-.5s-.1-.4-.3-.4c-.2 0-.3.1-.3.4zM169.7 66.8v-.5h.4v.2c0-.1.2-.3.4-.3v.4c-.3 0-.4.1-.4.4v.6h-.4v-.8zM171.7 67.3c0 .1.1.2.2.2s.2 0 .2-.1-.1-.1-.3-.2c-.4-.1-.5-.2-.5-.4s.1-.4.5-.4.5.2.5.4h-.4c0-.1-.1-.2-.2-.2s-.2 0-.2.1.1.1.3.2c.4.1.5.2.5.5s-.2.4-.6.4c-.3 0-.6-.2-.6-.5h.6zM172.7 65.7h.4v.3h-.4v-.3zm0 .6h.4v1.4h-.4v-1.4zM173.5 66.7v-.4h.4v.2c.1-.1.2-.2.4-.2s.3.1.4.2c.1-.1.2-.2.4-.2s.5.1.5.5v.9h-.4v-.9c0-.1 0-.2-.2-.2s-.2.1-.2.3v.8h-.4v-.9c0-.1-.1-.2-.2-.2-.2 0-.2.1-.2.3v.8h-.4v-1zM176.2 67.6v.7h-.4v-1.5-.4h.4v.2c.1-.1.2-.2.4-.2.3 0 .5.2.5.7 0 .5-.3.7-.6.7-.2-.1-.3-.1-.3-.2zm.5-.6c0-.3-.1-.4-.3-.4-.2 0-.3.1-.3.4 0 .3.1.4.3.4.2 0 .3-.1.3-.4zM177.4 65.7h.4v2h-.4zM178.4 67.1c0 .2.1.4.3.4.2 0 .2-.1.2-.2h.4c-.1.2-.2.5-.6.5-.5 0-.6-.3-.6-.7 0-.3.2-.7.7-.7.5 0 .6.3.6.7v.1h-1zm.5-.2c0-.2-.1-.3-.3-.3-.2 0-.3.2-.3.3h.6zM181.5 67c0 .4-.2.8-.7.8-.5 0-.7-.4-.7-.7 0-.4.2-.7.7-.7.5-.1.7.2.7.6zm-1 0c0 .3.1.5.3.5.2 0 .3-.2.3-.5s-.1-.4-.3-.4c-.2 0-.3.1-.3.4zM182.1 67.6v.7h-.4v-1.5-.4h.4v.2c.1-.1.2-.2.4-.2.3 0 .5.2.5.7 0 .5-.3.7-.6.7-.1-.1-.2-.1-.3-.2zm.6-.6c0-.3-.1-.4-.3-.4-.2 0-.3.1-.3.4 0 .3.1.4.3.4.2 0 .3-.1.3-.4zM183.6 67.1c0 .2.1.4.3.4.2 0 .2-.1.2-.2h.4c-.1.2-.2.5-.6.5-.5 0-.6-.3-.6-.7 0-.3.2-.7.7-.7.5 0 .6.3.6.7v.1h-1zm.6-.2c0-.2-.1-.3-.3-.3-.2 0-.3.2-.3.3h.6zM184.8 66.8v-.5h.4v.2c0-.1.2-.3.4-.3v.4c-.3 0-.4.1-.4.4v.6h-.4v-.8zM186.9 67.4v.4h-.3v-.2c-.1.1-.2.2-.4.2-.3 0-.5-.2-.5-.4 0-.3.2-.5.7-.5h.2v-.1c0-.1 0-.2-.2-.2s-.2.1-.2.2h-.4c0-.2.1-.4.6-.4.3 0 .6.1.6.5v.5zm-.4-.3h-.2c-.3 0-.3.1-.3.2s.1.2.2.2c.3 0 .3-.2.3-.4zM187 66.3h.2v-.4h.4v.4h.3v.3h-.3v.7c0 .1 0 .1.1.1h.1v.3h-.2c-.3 0-.4-.1-.4-.4v-.8h-.2v-.2zM188.1 65.7h.4v.3h-.4v-.3zm0 .6h.4v1.4h-.4v-1.4zM190.1 67c0 .4-.2.8-.7.8-.5 0-.7-.4-.7-.7 0-.4.2-.7.7-.7.4-.1.7.2.7.6zm-1 0c0 .3.1.5.3.5.2 0 .3-.2.3-.5s-.1-.4-.3-.4c-.2 0-.3.1-.3.4zM190.3 66.7v-.4h.4v.2c.1-.1.2-.2.4-.2.3 0 .4.2.4.5v.9h-.4v-.9c0-.2 0-.3-.2-.3s-.3.1-.3.3v.8h-.4v-.9zM191.7 68c.1-.1.2-.4.2-.8h.4c0 .3-.1.6-.2.8h-.4zM193.2 65.7h.4v.3h-.4v-.3zm0 .6h.4v1.4h-.4v-1.4z"/><path fill="#656565" d="M194.1 67.3c0 .1.1.2.2.2s.2 0 .2-.1-.1-.1-.3-.2c-.4-.1-.5-.2-.5-.4s.1-.4.5-.4.5.2.5.4h-.4c0-.1-.1-.2-.2-.2s-.2 0-.2.1.1.1.3.2c.4.1.5.2.5.5s-.2.4-.6.4c-.3 0-.6-.2-.6-.5h.6zM197.1 67.6c0 .4-.2.7-.7.7-.5 0-.6-.2-.6-.5h.4c0 .1.1.2.3.2.2 0 .3-.1.3-.4v-.1c-.1.1-.2.2-.4.2-.3 0-.6-.3-.6-.7 0-.4.3-.7.6-.7.2 0 .3.1.3.2v-.1h.4V67.6zm-1-.6c0 .3.1.4.3.4.2 0 .3-.1.3-.4 0-.3 0-.4-.3-.4-.1 0-.3.1-.3.4zM198.6 67.3v.4h-.4v-.2c-.1.1-.2.2-.4.2-.3 0-.4-.2-.4-.5v-.9h.4v.9c0 .1.1.3.2.3.2 0 .2-.1.2-.3v-.8h.4v.9zM200 67.4v.4h-.3v-.2c-.1.1-.2.2-.4.2-.3 0-.5-.2-.5-.4 0-.3.2-.5.7-.5h.2v-.1c0-.1 0-.2-.2-.2s-.2.1-.2.2h-.4c0-.2.1-.4.6-.4.3 0 .6.1.6.5v.5zm-.3-.3h-.2c-.3 0-.3.1-.3.2s.1.2.2.2c.2 0 .3-.2.3-.4zM200.4 66.8v-.5h.4v.2c0-.1.2-.3.4-.3v.4c-.3 0-.4.1-.4.4v.6h-.4v-.8zM202.5 67.4v.4h-.3v-.2c-.1.1-.2.2-.4.2-.3 0-.5-.2-.5-.4 0-.3.2-.5.7-.5h.2v-.1c0-.1 0-.2-.2-.2s-.2.1-.2.2h-.4c0-.2.1-.4.6-.4.3 0 .6.1.6.5v.5zm-.4-.3h-.1c-.3 0-.3.1-.3.2s.1.2.2.2c.2 0 .2-.2.2-.4zM202.8 66.7v-.4h.4v.2c.1-.1.2-.2.4-.2.3 0 .4.2.4.5v.9h-.4v-.9c0-.2 0-.3-.2-.3s-.3.1-.3.3v.8h-.4v-.9zM204.2 66.3h.2v-.4h.4v.4h.3v.3h-.3v.7c0 .1 0 .1.1.1h.1v.3h-.2c-.3 0-.4-.1-.4-.4v-.8h-.2v-.2zM205.5 67.1c0 .2.1.4.3.4.2 0 .2-.1.2-.2h.4c-.1.2-.2.5-.6.5-.5 0-.6-.3-.6-.7 0-.3.2-.7.7-.7.5 0 .6.3.6.7v.1h-1zm.6-.2c0-.2-.1-.3-.3-.3-.2 0-.3.2-.3.3h.6zM207 67.1c0 .2.1.4.3.4.2 0 .2-.1.2-.2h.4c-.1.2-.2.5-.6.5-.5 0-.6-.3-.6-.7 0-.3.2-.7.7-.7.5 0 .6.3.6.7v.1h-1zm.5-.2c0-.2-.1-.3-.3-.3-.2 0-.3.2-.3.3h.6zM209.4 65.7v2h-.4v-.2c-.1.1-.2.2-.4.2-.4 0-.5-.3-.5-.7 0-.4.2-.7.6-.7.2 0 .3.1.3.1v-.7h.4zm-.9 1.3c0 .3.1.4.3.4.2 0 .3-.2.3-.4 0-.3-.1-.4-.3-.4-.2 0-.3.1-.3.4zM210.3 66.3h.2v-.4h.4v.4h.3v.3h-.3v.7c0 .1 0 .1.1.1h.1v.3h-.2c-.3 0-.4-.1-.4-.4v-.8h-.2v-.2zM212.6 67c0 .4-.2.8-.7.8-.5 0-.7-.4-.7-.7 0-.4.2-.7.7-.7.5-.1.7.2.7.6zm-1 0c0 .3.1.5.3.5.2 0 .3-.2.3-.5s-.1-.4-.3-.4c-.2 0-.3.1-.3.4zM214.7 67.6c0 .4-.2.7-.7.7-.5 0-.6-.2-.6-.5h.4c0 .1.1.2.3.2.2 0 .3-.1.3-.4v-.1c-.1.1-.2.2-.4.2-.3 0-.6-.3-.6-.7 0-.4.3-.7.6-.7.2 0 .3.1.3.2v-.1h.4V67.6zm-.9-.6c0 .3.1.4.3.4.2 0 .3-.1.3-.4 0-.3 0-.4-.3-.4-.2 0-.3.1-.3.4zM215.1 65.7h.4v.3h-.4v-.3zm0 .6h.4v1.4h-.4v-1.4zM216 66.3c.1.5.2.8.3 1.1 0-.2.2-.6.3-1.1h.4l-.5 1.4h-.4l-.5-1.4h.4zM217.4 67.1c0 .2.1.4.3.4.2 0 .2-.1.2-.2h.4c-.1.2-.2.5-.6.5-.5 0-.6-.3-.6-.7 0-.3.2-.7.7-.7.5 0 .6.3.6.7v.1h-1zm.6-.2c0-.2-.1-.3-.3-.3-.2 0-.3.2-.3.3h.6zM167.6 69.6c.2.6.3.9.3 1.1 0-.2.2-.7.3-1.1h.4l-.5 1.5c-.1.5-.3.5-.6.5h-.1v-.3h.1c.1 0 .2-.1.2-.2l-.5-1.5h.4zM170 70.3c0 .4-.2.8-.7.8-.5 0-.7-.4-.7-.7 0-.4.2-.7.7-.7.5-.1.7.2.7.6zm-1 0c0 .3.1.5.3.5.2 0 .3-.2.3-.5s-.1-.4-.3-.4c-.2-.1-.3.1-.3.4zM171.4 70.6v.4h-.4v-.2c-.1.1-.2.2-.4.2-.3 0-.4-.2-.4-.5v-.9h.4v.9c0 .1.1.3.2.3.2 0 .2-.1.2-.3v-.8h.4v.9zM172.3 69.6h.2v-.4h.4v.4h.3v.3h-.3v.7c0 .1 0 .1.1.1h.1v.3h-.2c-.3 0-.4-.1-.4-.4v-.8h-.2v-.2zM173.6 69v.7c.1-.1.2-.2.4-.2.3 0 .4.1.4.5v1h-.4v-.9c0-.2 0-.3-.2-.3s-.2.1-.2.3v.9h-.4v-2h.4zM175.1 70.4c0 .2.1.4.3.4.2 0 .2-.1.2-.2h.4c-.1.2-.2.5-.6.5-.5 0-.6-.3-.6-.7 0-.3.2-.7.7-.7.5 0 .6.3.6.7v.1h-1zm.6-.3c0-.2-.1-.3-.3-.3-.2 0-.3.2-.3.3h.6zM177 70v-.4h.4v.2c.1-.1.2-.2.4-.2s.3.1.4.2c.1-.1.2-.2.4-.2s.5.1.5.5v.9h-.4v-.9c0-.1 0-.2-.2-.2s-.2.1-.2.3v.8h-.4v-.9c0-.1-.1-.2-.2-.2-.2 0-.2.1-.2.3v.8h-.5v-1zM180.4 70.6v.4h-.3v-.2c-.1.1-.2.2-.4.2-.3 0-.5-.2-.5-.4 0-.3.2-.5.7-.5h.2V70c0-.1 0-.2-.2-.2s-.2.1-.2.2h-.4c0-.2.1-.4.6-.4.3 0 .6.1.6.5v.5zm-.3-.2h-.2c-.3 0-.3.1-.3.2s.1.2.2.2c.2-.1.3-.2.3-.4zM181 69.6c.1.3.2.4.2.5.1-.1.1-.2.3-.5h.4l-.4.7.4.7h-.4c-.1-.2-.2-.4-.2-.5 0 .1-.1.3-.2.5h-.4l.4-.7-.4-.7h.3zM182 69h.4v.3h-.4V69zm0 .6h.4V71h-.4v-1.4zM182.8 70v-.4h.4v.2c.1-.1.2-.2.4-.2s.3.1.4.2c.1-.1.2-.2.4-.2s.5.1.5.5v.9h-.4v-.9c0-.1 0-.2-.2-.2s-.2.1-.2.3v.8h-.4v-.9c0-.1-.1-.2-.2-.2-.2 0-.2.1-.2.3v.8h-.4v-1zM186.3 70.6v.4h-.4v-.2c-.1.1-.2.2-.4.2-.3 0-.4-.2-.4-.5v-.9h.4v.9c0 .1.1.3.2.3.2 0 .2-.1.2-.3v-.8h.4v.9zM186.6 70v-.4h.4v.2c.1-.1.2-.2.4-.2s.3.1.4.2c.1-.1.2-.2.4-.2s.5.1.5.5v.9h-.4v-.9c0-.1 0-.2-.2-.2s-.2.1-.2.3v.8h-.4v-.9c0-.1-.1-.2-.2-.2-.2 0-.2.1-.2.3v.8h-.4v-1zM189.6 69h.4v.3h-.4V69zm0 .6h.4V71h-.4v-1.4zM190.3 70v-.4h.4v.2c.1-.1.2-.2.4-.2.3 0 .4.2.4.5v.9h-.4v-.9c0-.2 0-.3-.2-.3s-.3.1-.3.3v.9h-.4v-1zM193.7 70.9c0 .4-.2.7-.7.7-.5 0-.6-.2-.6-.5h.4c0 .1.1.2.3.2.2 0 .3-.1.3-.4v-.1c-.1.1-.2.2-.4.2-.3 0-.6-.3-.6-.7 0-.5.3-.7.6-.7.2 0 .3.1.3.2v-.1h.4V70.9zm-.9-.6c0 .3.1.4.3.4.2 0 .3-.1.3-.4 0-.3 0-.4-.3-.4-.2 0-.3.1-.3.4zM195.2 70.6v.4h-.3v-.2c-.1.1-.2.2-.4.2-.3 0-.5-.2-.5-.4 0-.3.2-.5.7-.5h.2V70c0-.1 0-.2-.2-.2s-.2.1-.2.2h-.5c0-.2.1-.4.6-.4.3 0 .6.1.6.5v.5zm-.4-.2h-.2c-.3 0-.3.1-.3.2s.1.2.2.2c.3-.1.3-.2.3-.4zM195.5 70v-.4h.4v.2c.1-.1.2-.2.4-.2s.3.1.4.2c.1-.1.2-.2.4-.2s.5.1.5.5v.9h-.4v-.9c0-.1 0-.2-.2-.2s-.2.1-.2.3v.8h-.4v-.9c0-.1-.1-.2-.2-.2-.2 0-.2.1-.2.3v.8h-.4v-1zM198.1 70.4c0 .2.1.4.3.4.2 0 .2-.1.2-.2h.4c-.1.2-.2.5-.6.5-.5 0-.6-.3-.6-.7 0-.3.2-.7.7-.7.5 0 .6.3.6.7v.1h-1zm.6-.3c0-.2-.1-.3-.3-.3-.2 0-.3.2-.3.3h.6zM200.4 70.9v.7h-.4V70v-.4h.4v.2c.1-.1.2-.2.4-.2.3 0 .5.2.5.7 0 .5-.3.7-.6.7-.2 0-.3 0-.3-.1zm.5-.6c0-.3-.1-.4-.3-.4-.2 0-.3.1-.3.4 0 .3.1.4.3.4.2 0 .3-.1.3-.4zM201.6 69h.4v2h-.4zM203.4 70.6v.4h-.3v-.2c-.1.1-.2.2-.4.2-.3 0-.5-.2-.5-.4 0-.3.2-.5.7-.5h.2V70c0-.1 0-.2-.2-.2s-.2.1-.2.2h-.4c0-.2.1-.4.6-.4.3 0 .6.1.6.5v.5zm-.4-.2h-.2c-.3 0-.3.1-.3.2s.1.2.2.2c.3-.1.3-.2.3-.4zM203.9 69.6c.2.6.3.9.3 1.1 0-.2.2-.7.3-1.1h.4l-.5 1.5c-.1.5-.3.5-.6.5h-.1v-.3h.1c.1 0 .2-.1.2-.2l-.5-1.5h.4zM206.1 70.6c0 .1.1.2.2.2s.2 0 .2-.1-.1-.1-.3-.2c-.4-.1-.5-.2-.5-.4s.1-.4.5-.4.5.2.5.4h-.4c0-.1-.1-.2-.2-.2s-.2 0-.2.1.1.1.3.2c.4.1.5.2.5.5s-.2.4-.6.4c-.3 0-.6-.2-.6-.5h.6zM208.2 70.6v.4h-.3v-.2c-.1.1-.2.2-.4.2-.3 0-.5-.2-.5-.4 0-.3.2-.5.7-.5h.2V70c0-.1 0-.2-.2-.2s-.2.1-.2.2h-.4c0-.2.1-.4.6-.4.3 0 .6.1.6.5v.5zm-.3-.2h-.2c-.3 0-.3.1-.3.2s.1.2.2.2c.2-.1.3-.2.3-.4zM208.4 69.6h.2v-.4h.4v.4h.3v.3h-.3v.7c0 .1 0 .1.1.1h.1v.3h-.2c-.3 0-.4-.1-.4-.4v-.8h-.2v-.2zM209.4 69h.4v.3h-.4V69zm0 .6h.4V71h-.4v-1.4zM210.4 70.6c0 .1.1.2.2.2s.2 0 .2-.1-.1-.1-.3-.2c-.4-.1-.5-.2-.5-.4s.1-.4.5-.4.5.2.5.4h-.4c0-.1-.1-.2-.2-.2s-.2 0-.2.1.1.1.3.2c.4.1.5.2.5.5s-.2.4-.6.4c-.3 0-.6-.2-.6-.5h.6zM211.5 71v-1.1h-.2v-.3h.2v-.1c0-.3.1-.5.4-.5h.2v.3h-.1c-.1 0-.1.1-.1.2v.1h.2v.3h-.2V71h-.4zM213.4 70.6v.4h-.3v-.2c-.1.1-.2.2-.4.2-.3 0-.5-.2-.5-.4 0-.3.2-.5.7-.5h.2V70c0-.1 0-.2-.2-.2s-.2.1-.2.2h-.4c0-.2.1-.4.6-.4.3 0 .6.1.6.5v.5zm-.4-.2h-.2c-.3 0-.3.1-.3.2s.1.2.2.2c.3-.1.3-.2.3-.4zM214.9 70.5c0 .3-.2.5-.6.5-.4 0-.6-.3-.6-.7 0-.4.2-.7.7-.7.5 0 .6.3.6.5h-.4c0-.1-.1-.2-.2-.2-.2 0-.3.2-.3.4 0 .3.1.5.3.5.2 0 .2-.1.2-.2h.3zM215 69.6h.2v-.4h.4v.4h.3v.3h-.3v.7c0 .1 0 .1.1.1h.1v.3h-.2c-.3 0-.4-.1-.4-.4v-.8h-.2v-.2zM216.1 69h.4v.3h-.4V69zm0 .6h.4V71h-.4v-1.4zM218 70.3c0 .4-.2.8-.7.8-.5 0-.7-.4-.7-.7 0-.4.2-.7.7-.7.5-.1.7.2.7.6zm-.9 0c0 .3.1.5.3.5.2 0 .3-.2.3-.5s-.1-.4-.3-.4c-.2-.1-.3.1-.3.4zM218.3 70v-.4h.4v.2c.1-.1.2-.2.4-.2.3 0 .4.2.4.5v.9h-.4v-.9c0-.2 0-.3-.2-.3s-.3.1-.3.3v.9h-.4v-1zM219.8 70.6h.4v.4h-.4zM206.9 80.7c-.1.4-.4.8-1 .8-.8 0-1.1-.6-1.1-1.3 0-.7.4-1.3 1.1-1.3.7 0 1 .4 1 .8h-.5c-.1-.2-.1-.4-.5-.4s-.6.4-.6.9.1.9.6.9c.3 0 .4-.2.5-.4h.5zM207.7 80.9l-.2.6h-.5c0-.1.7-2.5.8-2.6h.7l.8 2.6h-.5l-.2-.6h-.9zm.8-.4c-.2-.5-.3-.9-.3-1.1-.1.3-.2.7-.3 1.1h.6zM210.1 80.5v1.1h-.5V79h1c.5 0 .8.2.8.7 0 .3-.2.5-.4.6.3.1.3.3.3.6v.7h-.3v-.7c0-.3-.1-.4-.4-.4h-.5zm0-.4h.4c.2 0 .5-.1.5-.4 0-.2-.2-.3-.4-.3h-.5v.7zM212 79h.9c.8 0 1.2.5 1.2 1.2 0 .8-.5 1.3-1.2 1.3h-.9V79zm.5 2.1h.3c.5 0 .7-.3.7-.9 0-.5-.2-.8-.7-.8h-.3v1.7zM168.1 54.3h14.5v4.2h-14.5z"/><path fill="#C2AB1E" d="M168.3 54.4h14.1v3.9h-14.1z"/><path fill="#656565" d="M245.1 55.7h4.6V57h-4.6z"/><path fill="#FF4E7B" d="M245.5 56.1h3.8v.5h-3.8z"/><path fill="#9F9D8E" d="M45.5 1.3h.7c.4 0 .7.2.7.6 0 .4-.3.6-.7.6h-.3v.7h-.4V1.3zm.4.8h.3c.2 0 .3-.1.3-.3 0-.2-.1-.3-.3-.3h-.3v.6zM48.8 2.2c0 .5-.3 1-.8 1-.6 0-.8-.4-.8-1 0-.5.3-.9.8-.9.5-.1.8.4.8.9zm-1.3 0c0 .4.1.7.4.7.3 0 .4-.3.4-.7 0-.3-.1-.6-.4-.6-.3-.1-.4.2-.4.6zM49.4 3.1L49 1.2h.4c.1.5.2 1.1.3 1.4.1-.3.2-1 .3-1.4h.3c.1.4.3 1.1.3 1.4.1-.4.2-1.1.3-1.4h.4l-.5 1.9h-.4c-.1-.4-.2-1-.3-1.3-.1.3-.2 1-.3 1.3h-.4zM52.6 2.3h-.8v.5h.9v.3h-1.2V1.3h1.2v.3h-.9V2h.8zM53.4 2.4v.8H53V1.3h.8c.4 0 .6.2.6.5s-.1.4-.3.4c.2.1.3.2.3.5v.4H54v-.4c0-.2-.1-.3-.3-.3h-.3zm0-.4h.3c.1 0 .3 0 .3-.2s-.1-.2-.3-.2h-.3V2z"/><path fill="#908A74" d="M122.2 21.1l-4.4-7.2v105.7l4.4-17.5zM260.9 21.1l4.5-7.2v105.7l-4.5-17.5z"/><path fill="#A59F89" d="M260.9 21.1H122.2l-4.4-7.2h147.6z"/><path fill="#0E0E0E" d="M162.9 13.9h92.9v7.2h-92.9z"/><path fill="#070707" d="M162.9 21.1h92.9v23.3h-92.9z"/><path fill="#A8A7A0" d="M204.9 44.4h8.9v.7h-8.9z"/><path fill="#909293" d="M213.9 45.1h-9l-1.6 1.5h12.2z"/><path fill="#A1A4A7" d="M215.5 44.4v2.2l-1.6-1.5v-.7zM203.3 44.4v2.2l1.6-1.5v-.7z"/><path fill="#1E1E1E" d="M167.8 21.1h-2.3v-4.8c0-.3.3-.6.6-.6h1.2c.3 0 .6.3.6.6v4.8z"/><path fill="#111" d="M167.8 21.1h-2.3V43c0 .3.3.6.6.6h1.2c.3 0 .6-.3.6-.6V21.1z"/><path fill="#0E0E0E" d="M167.5 21.1h-1.8v-4.8c0-.2.1-.3.3-.3h1.2c.2 0 .3.1.3.3v4.8z"/><path fill="#070707" d="M167.5 21.1h-1.8V43c0 .2.1.3.3.3h1.2c.2 0 .3-.1.3-.3V21.1z"/><path fill="#1E1E1E" d="M251 21.1h2.3v-4.8c0-.3-.3-.6-.6-.6h-1.2c-.3 0-.6.3-.6.6v4.8z"/><path fill="#111" d="M251 21.1h2.3V43c0 .3-.3.6-.6.6h-1.2c-.3 0-.6-.3-.6-.6V21.1z"/><path fill="#0E0E0E" d="M251.3 21.1h1.8v-4.8c0-.2-.1-.3-.3-.3h-1.2c-.2 0-.3.1-.3.3v4.8z"/><path fill="#070707" d="M251.3 21.1h1.8V43c0 .2-.1.3-.3.3h-1.2c-.2 0-.3-.1-.3-.3V21.1z"/><path fill="#AFA795" d="M185.5 84.5h47.8l-2.2 4.1h-43.3z"/><path fill="#9B9483" d="M231.1 102V88.6l2.2-4.1v35.1zM187.8 102V88.6l-2.3-4.1v35.1z"/><path fill="#A59F89" d="M185.5 102l-63.3.1-4.4 17.5h67.7zM233.3 102l27.6.1 4.5 17.5h-32.1z"/><path fill="#9F9D8E" d="M66.9 1.3h.6c.6 0 .9.3.9.9 0 .6-.3 1-.9 1h-.6V1.3zm.4 1.5h.2c.3 0 .5-.2.5-.7 0-.3-.2-.6-.5-.6h-.3v1.3zM70.2 2.5c-.1.3-.3.6-.7.6-.6 0-.8-.4-.8-1 0-.5.3-1 .8-1s.7.3.7.6h-.4c0-.2-.1-.3-.4-.3-.3 0-.4.3-.4.7 0 .4.1.7.4.7.2 0 .3-.2.4-.3h.4zM71.2 1.3h.4v1.9h-.4zM72 3.1V1.3h.5c.6 1.1.6 1.3.7 1.4V1.3h.3v1.9H73c-.6-1.3-.7-1.4-.7-1.5v1.5H72zM74 1.3h.7c.4 0 .7.2.7.6 0 .4-.3.6-.7.6h-.3v.7H74V1.3zm.3.8h.3c.2 0 .3-.1.3-.3 0-.2-.1-.3-.3-.3h-.3v.6zM76 1.3v1.2c0 .2.1.4.3.4.3 0 .3-.2.3-.4V1.3h.4v1.2c0 .4-.2.7-.7.7-.6 0-.7-.3-.7-.7V1.3h.4zM77.8 1.6h-.5v-.3h1.4v.3h-.6v1.5h-.3zM102 1.6h-.5v-.3h1.4v.3h-.5v1.5h-.4zM103.7 3.1l-.6-1.9h.4l.2.8c.1.2.1.5.2.7 0-.2.1-.4.2-.7l.3-.9h.4l-.6 1.9h-.5zM113.6 1.3h.4V2h.7v-.7h.4v1.8h-.4v-.8h-.7v.8h-.4zM115.5 1.3h.4v1.9h-.4zM116.1 2.3h.7v.3h-.7zM117.1 1.3h.4v1.5h.8v.3h-1.2zM120.1 2.2c0 .5-.3 1-.8 1-.6 0-.8-.4-.8-1 0-.5.3-.9.8-.9.6-.1.8.4.8.9zm-1.3 0c0 .4.1.7.4.7.3 0 .4-.3.4-.7 0-.3-.1-.6-.4-.6-.2-.1-.4.2-.4.6zM120.7 3.1l-.4-1.9h.4c.1.5.2 1.1.3 1.4.1-.3.2-1 .3-1.4h.3c.1.4.3 1.1.3 1.4.1-.4.2-1.1.3-1.4h.4l-.5 1.9h-.4c-.1-.4-.2-1-.3-1.3-.1.3-.2 1-.3 1.3h-.4zM132.9 2.3h-.8v.5h.9l-.1.3h-1.2V1.3h1.2v.3h-.8V2h.8zM134.3 3.1l-.4-.6-.4.6h-.4l.6-.9-.6-.9h.5l.3.6.4-.6h.4l-.6.8.6 1zM135.3 1.6h-.5v-.3h1.4v.3h-.5v1.5h-.4zM138.7 2.2c0 .5-.3 1-.8 1-.6 0-.8-.4-.8-1 0-.5.3-.9.8-.9.6-.1.8.4.8.9zm-1.2 0c0 .4.1.7.4.7.3 0 .4-.3.4-.7 0-.3-.1-.6-.4-.6-.3-.1-.4.2-.4.6zM139.4 1.3v1.2c0 .2.1.4.3.4.3 0 .3-.2.3-.4V1.3h.4v1.2c0 .4-.2.7-.7.7-.6 0-.7-.3-.7-.7V1.3h.4zM141.2 1.6h-.5v-.3h1.4v.3h-.5v1.5h-.4z"/><path fill="#AFAFA8" d="M13.6 109.8V13.9h5.1l.2.1v95.7l-.2.1zM279.9 109.8V13.9h-5.2l-.2.1v95.7l.2.1z"/><path fill="#1E1E1A" d="M18.9 61.8v46.7c0 .7-.6 1.1-1.3 1.1l-4.2.2v-96l4.2.2c.7 0 1.3.4 1.3 1.1v46.7z"/><path fill="#161614" d="M8.1 111.2h5.2l.1-.1V12.6l-.1-.1H8.1z"/><path fill="#D8D2C7" d="M2.5 111.2h5.6V12.5H2.5c-.7 0-1.3.6-1.3 1.3v96c0 .8.6 1.4 1.3 1.4z"/><path fill="#101012" d="M1.2 102.8H.4c-.2 0-.4-.2-.4-.4V79.1c0-.2.2-.4.4-.4h.8v24.1zM1.2 55.4H.1l-.1-.1v-11l.1-.1h1.1zM1.2 35.1H.1L0 35V24l.1-.1h1.1z"/><path fill="#BCBCB3" d="M208.7 88.6h1.5v30.9h-1.5zM199.2 88.6h1.5v30.9h-1.5zM218.2 88.6h1.5v30.9h-1.5z"/><path fill="#D5D7D5" d="M306.5 45h.4v-1.5h-.4c-.2 0-.3.1-.3.3v.9c0 .2.2.3.3.3zM306.5 48.2h.4v-1.5h-.4c-.2 0-.3.1-.3.3v.9c0 .2.2.3.3.3zM306.5 51.5h.4V50h-.4c-.2 0-.3.1-.3.3v.9c0 .1.2.3.3.3zM306.5 54.7h.4v-1.5h-.4c-.2 0-.3.1-.3.3v.9c0 .2.2.3.3.3zM306.5 57.9h.4v-1.5h-.4c-.2 0-.3.1-.3.3v.9c0 .2.2.3.3.3zM306.5 61.2h.4v-1.5h-.4c-.2 0-.3.1-.3.3v.9c0 .1.2.3.3.3zM306.5 64.4h.4v-1.5h-.4c-.2 0-.3.1-.3.3v.9c0 .2.2.3.3.3zM306.5 67.6h.4v-1.5h-.4c-.2 0-.3.1-.3.3v.9c0 .2.2.3.3.3zM306.5 70.8h.4v-1.5h-.4c-.2 0-.3.1-.3.3v.9c0 .2.2.3.3.3zM306.5 74.1h.4v-1.5h-.4c-.2 0-.3.1-.3.3v.9c0 .1.2.3.3.3zM368.9 45h-.4v-1.5h.4c.2 0 .3.1.3.3v.9c0 .2-.2.3-.3.3zM368.9 48.2h-.4v-1.5h.4c.2 0 .3.1.3.3v.9c0 .2-.2.3-.3.3zM368.9 51.5h-.4V50h.4c.2 0 .3.1.3.3v.9c0 .1-.2.3-.3.3zM368.9 54.7h-.4v-1.5h.4c.2 0 .3.1.3.3v.9c0 .2-.2.3-.3.3zM368.9 57.9h-.4v-1.5h.4c.2 0 .3.1.3.3v.9c0 .2-.2.3-.3.3zM368.9 61.2h-.4v-1.5h.4c.2 0 .3.1.3.3v.9c0 .1-.2.3-.3.3zM368.9 64.4h-.4v-1.5h.4c.2 0 .3.1.3.3v.9c0 .2-.2.3-.3.3zM368.9 67.6h-.4v-1.5h.4c.2 0 .3.1.3.3v.9c0 .2-.2.3-.3.3zM368.9 70.8h-.4v-1.5h.4c.2 0 .3.1.3.3v.9c0 .2-.2.3-.3.3zM368.9 74.1h-.4v-1.5h.4c.2 0 .3.1.3.3v.9c0 .1-.2.3-.3.3z"/><path fill="#E3E5E0" d="M310.8 38.9v.4h53.8v-.4l.1-.1h2.8c.5 0 .9.4.9.9v78.9c0 .5-.4.9-.9.9h-59.6c-.5 0-.9-.4-.9-.9V39.8c0-.5.4-.9.9-.9h2.9z"/><path fill="#937144" d="M364.6 39.4h-53.8v46.3c0 .1.1.2.2.2h53.4c.1 0 .2-.1.2-.2V39.4z"/><path fill="#1A82C5" d="M362.4 73.3L344 85.8h18.4z"/><path fill="#FFF" d="M357.6 83.3c-.2 0-.4-.2-.4-.4v-1.4c0-.2.2-.4.4-.4h1.4v-.4h-1.4c-.5 0-.9.4-.9.9V83c0 .5.4.9.9.9h1.4v-2h-1.2v.4h.8v1.2h-1M351.8 83.8h1.4c.6 0 1-.5 1-1s-.5-1-1-1h-.4l-.1-.1.1-.1h1.4v-.4h-1.4c-.3 0-.5.2-.5.5s.2.5.5.5h.4c.3 0 .6.3.6.6s-.3.6-.6.6h-1.4v.4"/><path fill="#FFF" d="M351.8 83.2h1.4c.3 0 .5-.2.5-.5s-.2-.5-.5-.5h-.4c-.3 0-.6-.3-.6-.6s.3-.6.6-.6h1.4v-.4h-1.4c-.6 0-1 .5-1 1s.5 1 1 1h.4-1.4v.6M355.2 83.3c-.2 0-.4-.2-.4-.4v-1.4c0-.2.2-.4.4-.4h1.5v-.4h-1.5c-.5 0-.9.4-.9.9V83c0 .5.4.9.9.9h1.4v-.4l-1.4-.2"/><path fill="#FFF" d="M354.9 81.5c0-.2.1-.3.3-.3h1.5v.4h-1.3c-.1 0-.1.1-.1.1h1v.4h-1.5l.1-.6M355.2 83.2c-.2 0-.3-.1-.3-.3v-.6h1.5v.4h-1c0 .1.1.1.1.1h1.2v.4h-1.5M357.3 82.9c0 .2.1.3.3.3h.9v-1h-.7v.4h.3v.1h-.3l-.1-.1v-1s0-.1.1-.1h1.2v-.4h-1.4c-.2 0-.3.1-.3.3v1.5M360.4 81.2l.1-.1.1.1.7 2h-1v-.5h.4l-.2-.4-.5 1.4h-.5l.9-2.5"/><path fill="#FFF" d="M361.5 83.3h-1.1v.4h1.7l-.9-2.7c-.1-.3-.3-.5-.6-.5s-.6.2-.6.5l-.9 2.7h.5l.9-2.6c0-.1.1-.1.2-.1s.2.1.2.1l.6 2.2M361.9 81.5c.1 0 .3-.1.4-.2.1-.1.2-.2.2-.4 0-.1-.1-.3-.2-.4s-.2-.2-.4-.2c-.3 0-.5.2-.5.5 0 .1.1.3.2.4 0 .2.2.3.3.3zm-.4-.6c0-.1 0-.2.1-.3.1-.1.2-.1.3-.1.1 0 .2 0 .3.1s.1.2.1.3c0 .3-.2.5-.5.5-.1 0-.2 0-.3-.1v-.4"/><path fill="#FFF" d="M361.8 81v.3h-.1v-.6h.4l.1.1c0 .1-.1.2-.1.2l.2.3h-.1l-.2-.3h-.2zm0-.1H362.1l.1-.1v-.1H361.9v.2"/><path fill="#B26F2C" d="M362.5 41.1v31.2l-20.1 13.5h-29.8V53.6l18.6-12.5h31.2"/><path fill="#1E2043" d="M331.6 40.9l2.3-1.5h28.6v1.5z"/><path fill="#B8181A" d="M312.6 39.4H333L312.6 53z"/><path fill="#CDA02D" d="M339.4 40.7l.2-1.1h.4l.4.9.8-.9h.3l-.2 1.1h-.4l.2-.5-.5.5h-.5l-.3-.6-.1.6zM341.3 40.7l.9-1.1h.4l.6 1.1h-.4l-.2-.2h-.7l.2-.2h.4l-.2-.4-.6.8zM343.5 39.6h1.6l.1.1-.1.3c0 .1-.1.1-.2.1h-.5l.5.4h-.4l-.7-.6h.9l.1-.2h-1.1l-.2.8h-.3l.3-.9zM345.1 40.7l.3-1.1h.4l-.2.6.9-.6h.5l-.9.6.6.5h-.5l-.6-.5-.1.5zM347.2 39.4h.7-.2l-.1.2-.2.8v.2h.1v.1h-.7v-.1h.2l.1-.2.2-.8.1-.1-.1-.1z"/><path fill="#CDA02D" d="M347.6 39.4h.7-.2v.2l-.3.8v.2h.1v.1h-.7l.1-.1h.1l.1-.2.2-.8.1-.1-.1-.1z"/><path fill="#CDA02D" d="M348 39.4h.7-.1l-.1.2-.3.8v.2h.2l-.1.1h-.6v-.1h.1l.1-.2.3-.8v-.2z"/><path fill="#FFF" d="M316 83.5c0 .2-.1.4-.2.6s-.3.2-.6.2-.4-.1-.6-.2-.2-.3-.2-.6c0-.2.1-.4.2-.6s.3-.2.6-.2.4.1.6.2.2.4.2.6zm-.1 0c0-.2-.1-.3-.2-.5s-.3-.2-.5-.2-.3.1-.5.2c-.1.1-.2.3-.2.5s.1.3.2.5c.1.1.3.2.5.2s.3-.1.5-.2c.1-.1.2-.3.2-.5zm-.5.1h.1c-.1.2-.2.3-.4.3-.1 0-.2 0-.3-.1-.1-.1-.1-.2-.1-.3 0-.1 0-.3.1-.3.1-.1.2-.1.3-.1.2 0 .3.1.4.3h-.1c0-.1-.1-.2-.2-.2l-.2.1c0 .1-.1.2-.1.3 0 .1 0 .2.1.3l.2.1c.1-.1.2-.2.2-.4zM317.3 83.7c0 .1 0 .2-.1.3s-.2.1-.3.1c-.1 0-.2 0-.3-.1-.1-.1-.1-.2-.1-.3h.2c0 .1.1.2.2.2h.2l.1-.1c0-.1-.1-.1-.2-.2l-.3-.1-.2-.1-.1-.2c0-.1 0-.2.1-.3.1-.1.2-.1.3-.1.1 0 .2 0 .3.1.1.1.1.1.1.3h-.2l-.1-.1h-.2c-.1 0-.2 0-.2.1l.1.1h.2c.1 0 .2.1.2.1.3.2.3.2.3.3zM318.3 84.1h-.8v-1.2h.8v.2h-.6v.3h.5v.2h-.5v.3h.6zM319.5 84.1h-.1V84c-.1.1-.2.2-.4.2-.1 0-.3-.1-.3-.2-.1-.1-.2-.2-.2-.4s0-.3.1-.4c.1-.1.2-.2.4-.2.1 0 .3 0 .3.1.1.1.1.2.1.3h-.2c0-.1-.1-.2-.3-.2-.1 0-.2 0-.2.1-.1.1-.1.2-.1.3 0 .1 0 .2.1.3.1.1.1.1.2.1l.2-.1.1-.2h-.2v-.2h.4v.6zM320.6 84.1h-.2l-.1-.2h-.4l-.1.2h-.2l.4-1.1h.3l.3 1.1zm-.3-.5l-.1-.4-.1.4h.2zM322.1 84.1h-.2v-.7h-.3v-.1h.2l.1-.1h.1v.9zM323.1 83.5c0 .4-.1.6-.4.6-.1 0-.2 0-.2-.1l-.1-.2h.2v.1h.2l.1-.2v-.1l-.1.1h-.1c-.1 0-.2 0-.2-.1-.1-.1-.1-.2-.1-.3 0-.1 0-.2.1-.3.1-.1.2-.1.3-.1.1 0 .2.1.3.2v.4zm-.2-.2c0-.1-.1-.2-.2-.2l-.1.1v.2l.1.1.1-.1.1-.1zM324 83.7c0 .1 0 .2-.1.2-.1.1-.2.1-.3.1-.1 0-.2 0-.3-.1-.1-.1-.1-.1-.1-.2v-.2l.1-.1-.1-.2.1-.2c.1-.1.2-.1.3-.1.1 0 .2 0 .2.1l.1.2c0 .1 0 .2-.1.2l.1.1.1.2zm-.2 0v-.1h-.2v.2l.1.1.1-.1v-.1zm0-.5l-.2-.1h-.1v.2h.2l.1-.1zM324.8 83.7c0 .1 0 .2-.1.3-.1.1-.2.1-.3.1-.2 0-.3-.1-.3-.2s-.1-.2-.1-.4c0-.1 0-.3.1-.4.1-.1.2-.1.3-.1.1 0 .2 0 .2.1l.1.2h-.2l-.1-.1-.1.1V83.6l.2-.1c.1 0 .2 0 .2.1.1-.1.1 0 .1.1zm-.2 0v-.1h-.1l-.1.1V84l.1.1.1-.1v-.3z"/><path fill="#E9E9E0" d="M423.9 119.6h-37.5c-1.1 0-2-.9-2-2V54.9c0-1.1.9-2 2-2h37.5c1.1 0 2 .9 2 2v62.7c0 1.1-.9 2-2 2z"/><path fill="#EED98E" d="M422.4 94.2h-34.6c-.7 0-1.3-.6-1.3-1.3V56.8c0-.7.6-1.3 1.3-1.3h34.6c.7 0 1.3.6 1.3 1.3v36.1c0 .7-.6 1.3-1.3 1.3z"/><path fill="#F0F0BA" d="M423.7 60.2v-3.4c0-.7-.6-1.3-1.3-1.3h-34.6c-.7 0-1.3.6-1.3 1.3v3.4h37.2z"/><path fill="#282E31" d="M422.6 117.2h-34.9c-.6 0-1.1-.5-1.1-1.1V98c0-.6.5-1.1 1.1-1.1h34.9c.6 0 1.1.5 1.1 1.1v18.1c0 .6-.5 1.1-1.1 1.1z"/><path fill="#2E3032" d="M423.7 109.6h-37.2V97.8c0-.5.4-.9.9-.9h35.4c.5 0 .9.4.9.9v11.8z"/><path fill="#FFF" d="M420.5 91.1c.1-.1.3-.2.4-.2.1 0 .3.1.4.2s.2.2.2.4-.1.3-.2.4c-.1.1-.2.2-.4.2h-.1l.6 1.7h-3.7c-.2 0-.4-.1-.6-.2v.2h-1.3c-.3 0-.6-.2-.8-.5-.1.3-.5.5-.8.5h-1.3v-1.1h.3c-.2-.2-.3-.4-.3-.7 0-.6.4-1 1-1h1.3v.3c.2-.2.4-.3.6-.3h1.3v.2c.2-.2.4-.2.6-.2h1.3v1.2l.3-.8c.1-.3.4-.4.7-.4.1-.2.3 0 .5.1z"/><path fill="#1D1D1B" d="M420.5 91.1c.1-.1.3-.2.4-.2.1 0 .3.1.4.2.1.1.2.2.2.4 0 .1-.1.3-.2.4-.1.1-.2.2-.4.2h-.1l.6 1.7h-3.7c-.2 0-.4-.1-.6-.2v.3h-1.3c-.3 0-.6-.2-.8-.5-.1.3-.5.5-.8.5H413v-1.1h.3c-.2-.2-.3-.4-.3-.7 0-.6.4-1 1-1h1.2v.3c.2-.2.4-.3.6-.3h1.3v.2c.2-.1.4-.2.6-.2h1.3v1.3l.3-.9c.1-.2.4-.4.7-.4.1-.2.3-.1.5 0-.1-.2-.3-.3-.6-.3s-.6.2-.7.4l-.2.7v-1.1h-1.3c-.2 0-.5.1-.6.2v-.2h-1.3c-.3 0-.5.1-.6.3v-.3h-1.3c-.5 0-1 .4-1 1 0 .3.1.5.3.7h-.3v1.2h1.3c.4 0 .7-.2.8-.5.1.3.4.5.8.5h1.3v-.3c.2.2.4.3.6.3h3.7l-.6-1.7h.1c.1 0 .3-.1.4-.2.1-.1.2-.2.2-.4 0-.1-.1-.3-.2-.4-.1-.1-.2-.2-.4-.2-.2.1-.3.2-.4.3z"/><path fill="#2A94BA" d="M413 93.5h1.1c.4 0 .8-.4.8-.8s-.4-.8-.8-.8h-.3 1.1v-.3h-1.1c-.2 0-.4.2-.4.4s.2.4.4.4h.3c.3 0 .5.2.5.5 0 .2-.2.5-.5.5H413v.1"/><path fill="#2A94BA" d="M413 93.1h1.1c.2 0 .4-.2.4-.4s-.2-.4-.4-.4h-.3c-.3 0-.5-.2-.5-.5s.2-.5.5-.5h1.1V91h-1.1c-.4 0-.8.4-.8.8s.4.8.8.8h.3-1.1v.5M415.7 93.2c-.2 0-.3-.1-.3-.3v-1.1c0-.2.2-.3.3-.3h1.1v-.3h-1.1c-.4 0-.7.3-.7.7V93c0 .4.3.7.7.7h1.1v-.3h-1.1"/><path fill="#2A94BA" d="M415.4 91.8c0-.1.1-.3.3-.3h1.1v.3h-1l-.1.1h.8v.3h-1.2l.1-.4M415.7 93.1c-.1 0-.3-.1-.3-.3v-.5h1.2v.3h-.8l.1.1h1v.3h-1.2M417.6 93.2c-.2 0-.3-.2-.3-.3v-1.1c0-.2.1-.3.3-.3h1.1v-.3h-1.1c-.4 0-.7.3-.7.7V93c0 .4.3.7.7.7h1.1v-1.6h-.9v.3h.6v.9h-.8"/><path fill="#2A94BA" d="M417.4 92.8c0 .1.1.3.3.3h.7v-.8h-.5v.3h.2v.1h-.2l-.1-.1v-.7l.1-.1h.9v-.3h-1.1c-.1 0-.3.1-.3.3v1M419.8 91.5l.1-.1.1.1.5 1.6h-.8v-.4h.3l-.1-.3-.4 1.1h-.4l.7-2"/><path fill="#2A94BA" d="M420.6 93.2h-.9v.3h1.4l-.7-2.1c-.1-.2-.3-.4-.5-.4s-.4.1-.5.4l-.7 2.1h.4l.7-2 .2-.1.2.1.4 1.7M420.9 91.8c.1 0 .2 0 .3-.1s.1-.2.1-.3 0-.2-.1-.3-.2-.1-.3-.1c-.2 0-.4.2-.4.4 0 .1 0 .2.1.3s.2.1.3.1zm-.3-.3l.1-.2.2-.1.2.1.1.2c0 .2-.1.3-.3.3l-.2-.1-.1-.2"/><path fill="#2A94BA" d="M420.8 91.5v.2h-.1v-.4H421v.1c0 .1-.1.1-.1.1l.1.2-.1-.2h-.1zm0-.1h.1l.1-.1v-.1h-.2v.2"/><path fill="#E9C564" d="M389.6 110h-.1c-.3 0-.6.2-.6.6v2.4h1.2v-2.4c.1-.4-.2-.6-.5-.6z"/><circle fill="#57493E" cx="389.6" cy="110.6" r=".2"/><path fill="#E9C564" d="M391.6 110h-.1c-.3 0-.6.2-.6.6v2.4h1.2v-2.4c0-.4-.2-.6-.5-.6z"/><path fill="#57493E" d="M391.7 110.6c0 .1-.1.2-.2.2s-.2-.1-.2-.2.1-.2.2-.2.2.1.2.2z"/><path fill="#E9C564" d="M393.5 110h-.1c-.3 0-.6.2-.6.6v2.4h1.2v-2.4c.1-.4-.2-.6-.5-.6z"/><circle fill="#57493E" cx="393.5" cy="110.6" r=".2"/><path fill="#E9C564" d="M395.5 110h-.1c-.3 0-.6.2-.6.6v2.4h1.2v-2.4c0-.4-.2-.6-.5-.6z"/><circle fill="#57493E" cx="395.4" cy="110.6" r=".2"/><path fill="#E9C564" d="M397.4 110h-.1c-.3 0-.6.2-.6.6v2.4h1.2v-2.4c.1-.4-.2-.6-.5-.6z"/><path fill="#57493E" d="M397.5 110.6c0 .1-.1.2-.2.2s-.2-.1-.2-.2.1-.2.2-.2.2.1.2.2z"/><path fill="#E9C564" d="M399.4 110h-.1c-.3 0-.6.2-.6.6v2.4h1.2v-2.4c0-.4-.2-.6-.5-.6z"/><circle fill="#57493E" cx="399.3" cy="110.6" r=".2"/><path fill="#E9C564" d="M401.3 110h-.1c-.3 0-.6.2-.6.6v2.4h1.2v-2.4c0-.4-.2-.6-.5-.6z"/><circle fill="#57493E" cx="401.2" cy="110.6" r=".2"/><path fill="#E9C564" d="M403.2 110h-.1c-.3 0-.6.2-.6.6v2.4h1.2v-2.4c.1-.4-.2-.6-.5-.6z"/><path fill="#57493E" d="M403.4 110.6c0 .1-.1.2-.2.2s-.2-.1-.2-.2.1-.2.2-.2.2.1.2.2z"/><path fill="#E9C564" d="M405.2 110h-.1c-.3 0-.6.2-.6.6v2.4h1.2v-2.4c0-.4-.2-.6-.5-.6z"/><path fill="#57493E" d="M405.3 110.6c0 .1-.1.2-.2.2s-.2-.1-.2-.2.1-.2.2-.2.2.1.2.2z"/><path fill="#E9C564" d="M407.1 110h-.1c-.3 0-.6.2-.6.6v2.4h1.2v-2.4c.1-.4-.2-.6-.5-.6z"/><path fill="#57493E" d="M407.3 110.6c0 .1-.1.2-.2.2s-.2-.1-.2-.2.1-.2.2-.2.2.1.2.2z"/><path fill="#E9C564" d="M409.1 110h-.1c-.3 0-.6.2-.6.6v2.4h1.2v-2.4c0-.4-.2-.6-.5-.6z"/><circle fill="#57493E" cx="409" cy="110.6" r=".2"/><path fill="#E9C564" d="M411 110h-.1c-.3 0-.6.2-.6.6v2.4h1.2v-2.4c.1-.4-.2-.6-.5-.6z"/><circle fill="#57493E" cx="411" cy="110.6" r=".2"/><path fill="#E9C564" d="M413 110h-.1c-.3 0-.6.2-.6.6v2.4h1.2v-2.4c0-.4-.2-.6-.5-.6z"/><path fill="#57493E" d="M413.1 110.6c0 .1-.1.2-.2.2s-.2-.1-.2-.2.1-.2.2-.2.2.1.2.2z"/><path fill="#E9C564" d="M414.9 110h-.1c-.3 0-.6.2-.6.6v2.4h1.2v-2.4c.1-.4-.2-.6-.5-.6z"/><circle fill="#57493E" cx="414.9" cy="110.6" r=".2"/><path fill="#E9C564" d="M416.9 110h-.1c-.3 0-.6.2-.6.6v2.4h1.2v-2.4c0-.4-.2-.6-.5-.6z"/><circle fill="#57493E" cx="416.8" cy="110.6" r=".2"/><path fill="#E9C564" d="M418.8 110h-.1c-.3 0-.6.2-.6.6v2.4h1.2v-2.4c.1-.4-.2-.6-.5-.6z"/><path fill="#57493E" d="M418.9 110.6c0 .1-.1.2-.2.2s-.2-.1-.2-.2.1-.2.2-.2c.2 0 .2.1.2.2z"/><path fill="#E9C564" d="M420.8 110h-.1c-.3 0-.6.2-.6.6v2.4h1.2v-2.4c0-.4-.2-.6-.5-.6z"/><path fill="#57493E" d="M420.9 110.6c0 .1-.1.2-.2.2s-.2-.1-.2-.2.1-.2.2-.2.2.1.2.2z"/><path fill="#E9C564" d="M388.6 113.9h-.1c-.3 0-.6.2-.6.6v2.4h1.2v-2.4c.1-.4-.2-.6-.5-.6z"/><path fill="#57493E" d="M388.8 114.4c0 .1-.1.2-.2.2s-.2-.1-.2-.2.1-.2.2-.2.2.1.2.2z"/><path fill="#E9C564" d="M390.6 113.9h-.1c-.3 0-.6.2-.6.6v2.4h1.2v-2.4c0-.4-.2-.6-.5-.6z"/><circle fill="#57493E" cx="390.5" cy="114.4" r=".2"/><path fill="#E9C564" d="M392.5 113.9h-.1c-.3 0-.6.2-.6.6v2.4h1.2v-2.4c.1-.4-.2-.6-.5-.6z"/><circle fill="#57493E" cx="392.5" cy="114.4" r=".2"/><path fill="#E9C564" d="M394.5 113.9h-.1c-.3 0-.6.2-.6.6v2.4h1.2v-2.4c0-.4-.2-.6-.5-.6z"/><path fill="#57493E" d="M394.6 114.4c0 .1-.1.2-.2.2s-.2-.1-.2-.2.1-.2.2-.2c.1.1.2.1.2.2z"/><path fill="#E9C564" d="M396.4 113.9h-.1c-.3 0-.6.2-.6.6v2.4h1.2v-2.4c.1-.4-.2-.6-.5-.6z"/><circle fill="#57493E" cx="396.4" cy="114.4" r=".2"/><path fill="#E9C564" d="M398.4 113.9h-.1c-.3 0-.6.2-.6.6v2.4h1.2v-2.4c0-.4-.2-.6-.5-.6z"/><circle fill="#57493E" cx="398.3" cy="114.4" r=".2"/><path fill="#E9C564" d="M400.3 113.9h-.1c-.3 0-.6.2-.6.6v2.4h1.2v-2.4c.1-.4-.2-.6-.5-.6z"/><path fill="#57493E" d="M400.4 114.4c0 .1-.1.2-.2.2s-.2-.1-.2-.2.1-.2.2-.2.2.1.2.2z"/><path fill="#E9C564" d="M402.3 113.9h-.1c-.3 0-.6.2-.6.6v2.4h1.2v-2.4c0-.4-.2-.6-.5-.6z"/><path fill="#57493E" d="M402.4 114.4c0 .1-.1.2-.2.2s-.2-.1-.2-.2.1-.2.2-.2c.1.1.2.1.2.2z"/><path fill="#E9C564" d="M404.2 113.9h-.1c-.3 0-.6.2-.6.6v2.4h1.2v-2.4c.1-.4-.2-.6-.5-.6z"/><path fill="#57493E" d="M404.3 114.4c0 .1-.1.2-.2.2s-.2-.1-.2-.2.1-.2.2-.2.2.1.2.2z"/><path fill="#E9C564" d="M406.2 113.9h-.1c-.3 0-.6.2-.6.6v2.4h1.2v-2.4c0-.4-.2-.6-.5-.6z"/><circle fill="#57493E" cx="406.1" cy="114.4" r=".2"/><path fill="#E9C564" d="M408.1 113.9h-.1c-.3 0-.6.2-.6.6v2.4h1.2v-2.4c.1-.4-.2-.6-.5-.6z"/><circle fill="#57493E" cx="408.1" cy="114.4" r=".2"/><path fill="#E9C564" d="M410.1 113.9h-.1c-.3 0-.6.2-.6.6v2.4h1.2v-2.4c0-.4-.2-.6-.5-.6z"/><path fill="#57493E" d="M410.2 114.4c0 .1-.1.2-.2.2s-.2-.1-.2-.2.1-.2.2-.2.2.1.2.2z"/><path fill="#E9C564" d="M412 113.9h-.1c-.3 0-.6.2-.6.6v2.4h1.2v-2.4c.1-.4-.2-.6-.5-.6z"/><circle fill="#57493E" cx="411.9" cy="114.4" r=".2"/><path fill="#E9C564" d="M414 113.9h-.1c-.3 0-.6.2-.6.6v2.4h1.2v-2.4c0-.4-.2-.6-.5-.6z"/><circle fill="#57493E" cx="413.9" cy="114.4" r=".2"/><path fill="#E9C564" d="M415.9 113.9h-.1c-.3 0-.6.2-.6.6v2.4h1.2v-2.4c0-.4-.2-.6-.5-.6z"/><path fill="#57493E" d="M416 114.4c0 .1-.1.2-.2.2s-.2-.1-.2-.2.1-.2.2-.2c.1.1.2.1.2.2z"/><path fill="#E9C564" d="M417.8 113.9h-.1c-.3 0-.6.2-.6.6v2.4h1.2v-2.4c.1-.4-.2-.6-.5-.6z"/><circle fill="#57493E" cx="417.8" cy="114.4" r=".2"/><path fill="#E9C564" d="M419.8 113.9h-.1c-.3 0-.6.2-.6.6v2.4h1.2v-2.4c0-.4-.2-.6-.5-.6z"/><circle fill="#57493E" cx="419.7" cy="114.4" r=".2"/><path fill="#E9C564" d="M421.7 113.9h-.1c-.3 0-.6.2-.6.6v2.4h1.2v-2.4c.1-.4-.2-.6-.5-.6z"/><path fill="#57493E" d="M421.9 114.4c0 .1-.1.2-.2.2s-.2-.1-.2-.2.1-.2.2-.2c.1.1.2.1.2.2z"/><path fill="#CC3734" d="M388.4 57.9l.1-.9c0-.2.1-.4.2-.4h1.8v.5h-1.6l-.1.5h1.4c.1 0 .2.1.2.4l-.1.9c0 .2-.1.4-.2.4h-1.8v-.5h1.6l.1-.5h-1.4c-.2-.1-.3-.2-.2-.4zM390.4 58.9l.2-1.9c0-.2.1-.4.2-.4h1.8v.5H391l-.1.5h1.4v.5h-1.4l-.1.5h1.6v.5h-1.9c-.1.2-.1.1-.1-.2zM392.5 58.9l.2-1.9c0-.2.1-.4.2-.4h1.9v.5h-1.7l-.2 1.6h1.3l.1-.5h-.3v-.5h.7l-.1 1.3c0 .2-.1.3-.2.3h-1.8s-.1-.1-.1-.4zM394.7 59.3l.9-2.7h.4l.7 2.7h-.4l-.2-.5h-.7l.1-.6h.5l-.3-.9-.7 2zM397.6 59.3l.3-2.7h.4l.5 2.2.9-2.2h.4l-.3 2.7h-.4l.2-1.3-.6 1.3h-.5l-.3-1.4-.2 1.4zM401 58.2l-.7-1.6h.4l.5 1.1.8-1.1h.6l-1.1 1.6-.1 1.1h-.5zM403.3 58.9l.2-1.9c0-.2.1-.4.2-.4h1.8v.5h-1.6l-.2 1.6h1.6v.5h-1.9c-.1.1-.1 0-.1-.3zM405.3 59.3l.9-2.7h.5l.7 2.7h-.5l-.1-.5h-.8l.2-.6h.4l-.2-.9-.7 2zM407.8 56.6h1.8c.1 0 .1.1.1.3l-.1.9c0 .2-.1.4-.2.4h-.5l.5 1.1h-.4l-.8-1.6h1l.1-.5h-1.2l-.2 2.1h-.4l.3-2.7zM409.9 56.6h1.8c.2 0 .2.2.2.5l-.2 1.6c-.1.4-.2.5-.3.5h-1.8l.3-2.6zm.4.6l-.2 1.6h1.2l.2-1.6h-1.2zM412.3 59.3l.3-2.2h.3l.4 1.7.8-1.7h.3l-.2 2.2h-.4l.2-1-.5 1h-.5l-.2-1.2-.2 1.2z"/><path fill="#CC3734" d="M414.2 59.3l.8-2.2h.4l.6 2.2h-.4l-.1-.5h-.7l.2-.4h.4l-.2-.7-.6 1.6zM416.4 57.1h1.6c.1 0 .1.1.1.3l-.1.7c0 .2-.1.3-.2.3h-.5l.5.9h-.4l-.7-1.3h.9l.1-.4h-1.1l-.2 1.8h-.3l.3-2.3zM418 59.3l.2-2.2h.3l-.1 1.2.9-1.2h.5l-1 1.2.7 1h-.6l-.5-.9-.1.9zM420.1 56.5l.9-.1v.1l-.2.1c0 .1-.1.2-.1.3l-.3 1.8v.4l.2.1v.1h-.9v-.1c.1 0 .2 0 .2-.1s.1-.2.1-.3l.3-1.8v-.4c-.1 0-.1-.1-.2-.1z"/><path fill="#CC3734" d="M420.6 56.5l.9-.1v.1l-.2.1c0 .1-.1.2-.1.3l-.3 1.8v.4s.1.1.2.1v.1h-.9v-.1c.1 0 .2 0 .2-.1s.1-.2.1-.3l.3-1.8v-.4s-.1-.1-.2-.1z"/><path fill="#CC3734" d="M421.2 56.5l.9-.1v.1l-.2.1c0 .1-.1.2-.1.3l-.3 1.8v.4l.2.1v.1h-.9v-.1c.1 0 .2 0 .2-.1s.1-.2.1-.3l.3-1.8v-.4c-.1 0-.1-.1-.2-.1z"/></svg>