<svg baseProfile="tiny" xmlns="http://www.w3.org/2000/svg" viewBox="0 0 500.9 213.9"><path fill="#C6C6BB" d="M500.6 214H24.3c-.2 0-.3-.1-.3-.3v-16.9c0-.2.1-.3.3-.3h9.2c.2 0 .3-.1.3-.3V25.1c0-.2-.1-.3-.3-.3h-9.2c-.2 0-.3-.1-.3-.3V7.6c0-.2.1-.3.3-.3h476.3c.2 0 .3.1.3.3v16.9c0 .2-.1.3-.3.3h-9.2c-.2 0-.3.1-.3.3v171.1c0 .2.1.3.3.3h9.2c.2 0 .3.1.3.3v16.9c0 .2-.2.3-.3.3z"/><path fill="#BFBFB6" d="M467 7.4H57.9V.8c0-.4.4-.8.8-.8h407.6c.4 0 .8.4.8.8l-.1 6.6z"/><path fill="#777D78" d="M54.1 22.4h3.1v28.3h-3.1z"/><path fill="#9F9D8E" d="M54.3 22.6h2.6v27.9h-2.6z"/><path fill="#777D78" d="M61.8 22.4h3.1v28.3h-3.1z"/><path fill="#9F9D8E" d="M62.1 22.6h2.6v27.9h-2.6z"/><path fill="#777D78" d="M69.6 22.4h3.1v28.3h-3.1z"/><path fill="#9F9D8E" d="M69.9 22.6h2.6v27.9h-2.6z"/><path fill="#777D78" d="M77.4 22.4h3.1v28.3h-3.1z"/><path fill="#9F9D8E" d="M77.7 22.6h2.6v27.9h-2.6z"/><path fill="#777D78" d="M85.2 22.4h3.1v28.3h-3.1z"/><path fill="#9F9D8E" d="M85.4 22.6H88v27.9h-2.6z"/><path fill="#777D78" d="M92.9 22.4H96v28.3h-3.1z"/><path fill="#9F9D8E" d="M93.2 22.6h2.6v27.9h-2.6z"/><path fill="#777D78" d="M100.7 22.4h3.1v28.3h-3.1z"/><path fill="#9F9D8E" d="M101 22.6h2.6v27.9H101z"/><path fill="#777D78" d="M108.5 22.3h3.1v28.3h-3.1z"/><path fill="#9F9D8E" d="M108.8 22.6h2.6v27.9h-2.6z"/><path fill="#777D78" d="M116.3 22.4h3.1v28.3h-3.1z"/><path fill="#9F9D8E" d="M116.5 22.6h2.6v27.9h-2.6z"/><path fill="#777D78" d="M124 22.4h3.1v28.3H124z"/><path fill="#9F9D8E" d="M124.3 22.6h2.6v27.9h-2.6z"/><path fill="#777D78" d="M131.8 22.4h3.1v28.3h-3.1z"/><path fill="#9F9D8E" d="M132.1 22.6h2.6v27.9h-2.6z"/><path fill="#777D78" d="M139.6 22.3h3.1v28.3h-3.1z"/><path fill="#9F9D8E" d="M139.9 22.6h2.6v27.9h-2.6z"/><path fill="#777D78" d="M147.4 22.4h3.1v28.3h-3.1z"/><path fill="#9F9D8E" d="M147.6 22.6h2.6v27.9h-2.6z"/><path fill="#777D78" d="M155.1 22.4h3.1v28.3h-3.1z"/><path fill="#9F9D8E" d="M155.4 22.6h2.6v27.9h-2.6z"/><path fill="#777D78" d="M162.9 22.4h3.1v28.3h-3.1z"/><path fill="#9F9D8E" d="M163.2 22.6h2.6v27.9h-2.6z"/><path fill="#777D78" d="M170.7 22.3h3.1v28.3h-3.1z"/><path fill="#9F9D8E" d="M171 22.6h2.6v27.9H171z"/><path fill="#777D78" d="M178.5 22.4h3.1v28.3h-3.1z"/><path fill="#9F9D8E" d="M178.7 22.6h2.6v27.9h-2.6z"/><path fill="#777D78" d="M186.3 22.4h3.1v28.3h-3.1z"/><path fill="#9F9D8E" d="M186.5 22.6h2.6v27.9h-2.6z"/><path fill="#777D78" d="M194 22.4h3.1v28.3H194z"/><path fill="#9F9D8E" d="M194.3 22.6h2.6v27.9h-2.6z"/><path fill="#777D78" d="M54.1 57.8h3.1v28.3h-3.1z"/><path fill="#9F9D8E" d="M54.3 58h2.6v27.9h-2.6z"/><path fill="#777D78" d="M61.9 57.8H65v28.3h-3.1z"/><path fill="#9F9D8E" d="M62.1 58h2.6v27.9h-2.6z"/><path fill="#777D78" d="M69.6 57.8h3.1v28.3h-3.1z"/><path fill="#9F9D8E" d="M69.9 58h2.6v27.9h-2.6z"/><path fill="#777D78" d="M77.4 57.8h3.1v28.3h-3.1z"/><path fill="#9F9D8E" d="M77.7 58h2.6v27.9h-2.6z"/><path fill="#777D78" d="M85.2 57.8h3.1v28.3h-3.1z"/><path fill="#9F9D8E" d="M85.4 58H88v27.9h-2.6z"/><path fill="#777D78" d="M93 57.8h3.1v28.3H93z"/><path fill="#9F9D8E" d="M93.2 58h2.6v27.9h-2.6z"/><path fill="#777D78" d="M100.7 57.8h3.1v28.3h-3.1z"/><path fill="#9F9D8E" d="M101 58h2.6v27.9H101z"/><path fill="#777D78" d="M108.5 57.8h3.1v28.3h-3.1z"/><path fill="#9F9D8E" d="M108.8 58h2.6v27.9h-2.6z"/><path fill="#777D78" d="M116.3 57.8h3.1v28.3h-3.1z"/><path fill="#9F9D8E" d="M116.5 58h2.6v27.9h-2.6z"/><path fill="#777D78" d="M124.1 57.8h3.1v28.3h-3.1z"/><path fill="#9F9D8E" d="M124.3 58h2.6v27.9h-2.6z"/><path fill="#777D78" d="M131.8 57.8h3.1v28.3h-3.1z"/><path fill="#9F9D8E" d="M132.1 58h2.6v27.9h-2.6z"/><path fill="#777D78" d="M139.6 57.8h3.1v28.3h-3.1z"/><path fill="#9F9D8E" d="M139.9 58h2.6v27.9h-2.6z"/><path fill="#777D78" d="M147.4 57.8h3.1v28.3h-3.1z"/><path fill="#9F9D8E" d="M147.6 58h2.6v27.9h-2.6z"/><path fill="#777D78" d="M155.2 57.8h3.1v28.3h-3.1z"/><path fill="#9F9D8E" d="M155.4 58h2.6v27.9h-2.6z"/><path fill="#777D78" d="M162.9 57.8h3.1v28.3h-3.1z"/><path fill="#9F9D8E" d="M163.2 58h2.6v27.9h-2.6z"/><path fill="#777D78" d="M170.7 57.8h3.1v28.3h-3.1z"/><path fill="#9F9D8E" d="M171 58h2.6v27.9H171z"/><path fill="#777D78" d="M178.5 57.8h3.1v28.3h-3.1z"/><path fill="#9F9D8E" d="M178.7 58h2.6v27.9h-2.6z"/><path fill="#777D78" d="M186.3 57.8h3.1v28.3h-3.1z"/><path fill="#9F9D8E" d="M186.5 58h2.6v27.9h-2.6z"/><path fill="#777D78" d="M194.1 57.8h3.1v28.3h-3.1z"/><path fill="#9F9D8E" d="M194.3 58h2.6v27.9h-2.6z"/><path fill="#9EB0B8" d="M53.7 93h143v15.5h-143z"/><path fill="#070706" d="M54.1 93.5h142.3v14.6H54.1z"/><path fill="#656565" d="M57 101.7l.7-2.7c.2-.7.6-1.1 1.4-1.1h13l-.3 1.6H60.3l-.4 1.6H70c.9 0 1.3.4 1.1 1.1l-.7 2.7c-.2.7-.7 1.1-1.4 1.1H56l.3-1.6h11.5l.4-1.6H58c-.9-.1-1.2-.4-1-1.1zM71.3 104.9l1.6-6c.2-.7.6-1.1 1.4-1.1h13l-.3 1.7H75.5l-.4 1.6h9.6l-.3 1.6h-9.6l-.4 1.6h11.5l-.3 1.6H72.1c-.7.1-1-.3-.8-1zM86.5 104.9l1.6-6c.2-.7.6-1.1 1.4-1.1H103l-.3 1.6h-12l-1.3 4.9h9.3l.5-1.6h-2.5l.3-1.6h4.9l-1 3.8c-.2.7-.6 1-1.1 1H87.3c-.7.1-1-.3-.8-1zM101.4 106l6.5-8.1h3.3l4.9 8.1h-3.3l-1.1-1.6h-5.4l1.1-1.6h3.3L109 100l-4.9 6zM120 106l2.2-8.1h2.7l3.3 6.5 6.5-6.5h2.7l-2.2 8.1h-2.7l1.1-3.8-3.8 3.8H126l-2.2-4.3-1.1 4.3zM135.7 106l6.5-8.1h3.3l4.9 8.1h-3.3l-1.1-1.6h-5.4l1.1-1.6h3.3l-1.6-2.7-4.9 6h-2.8zM153.1 97.9h13c.7 0 1 .3.9 1l-.7 2.8c-.2.7-.7 1.1-1.3 1.1h-3.8l3.8 3.3h-3.3l-5.4-4.9h7.3l.4-1.6h-8.7l-1.7 6.5h-2.7l2.2-8.2zM166.1 106l2.2-8.1h2.7l-1.2 4.5 7.2-4.5h4.3l-7.9 4.6 5.2 3.5h-4.3l-4.5-3.4-.9 3.4zM182.5 95.8l.1-.3h5.4l-.1.3c-.5 0-.9.1-1.1.3-.3.2-.5.6-.7 1.3l-2 6.7c-.1.5-.2.8-.2.9 0 .2.1.3.2.4.2.1.6.2 1.1.2l-.1.3h-5.5l.1-.3c.6 0 1-.1 1.2-.3.3-.2.5-.6.7-1.3l2.1-6.7c.1-.4.2-.7.2-.9s-.1-.3-.2-.4c-.3-.1-.6-.1-1.2-.2z"/><path fill="#656565" d="M185.8 95.9l.1-.3h5.5l-.1.3c-.5 0-.9.1-1.2.3-.2.2-.5.6-.6 1.3l-2 6.7c-.1.4-.2.8-.2 1 0 .2.1.3.2.4.2.1.5.2 1.1.2l-.1.3H183l.1-.3c.5 0 1-.1 1.2-.3.2-.2.5-.6.6-1.3l2-6.7c.1-.4.2-.8.2-1 0-.2-.1-.3-.2-.4s-.6-.2-1.1-.2z"/><path fill="#656565" d="M189.1 95.9l.1-.3h5.5l-.1.3c-.5 0-.9.1-1.2.3-.2.2-.5.6-.6 1.3l-2 6.7c-.1.4-.2.8-.2 1 0 .2.1.3.2.4.2.1.5.2 1.1.2l-.1.3h-5.5l.1-.3c.5 0 1-.1 1.2-.3.2-.2.5-.6.6-1.3l2-6.7c.1-.4.2-.8.2-1 0-.2-.1-.3-.2-.4-.2-.1-.5-.2-1.1-.2z"/><path fill="#070707" d="M331.8 140h85.5v6.8h-85.5z"/><path fill="#818488" d="M291.5 138.5h166.2v1.4H291.5z"/><path fill="#040404" d="M291.5 92.7h166.2v15.7H291.5z"/><path fill="#919998" d="M291.5 108.4h166.2v30.2H291.5z"/><path fill="#949B9B" d="M291.5 140h40.3v6.8h-40.3zM417.4 140h40.3v6.8h-40.3z"/><path fill="#2E6CB2" d="M421.8 136.9h3.9c1.6 0 2.9-1.3 2.9-2.9 0-1.6-1.3-2.9-2.9-2.9h-1c-.1 0-.1-.1-.1-.1l.1-.1h3.9v-1.2h-3.9c-.8 0-1.4.6-1.4 1.4s.6 1.4 1.4 1.4h1c.9 0 1.7.7 1.7 1.7 0 .9-.7 1.7-1.7 1.7h-3.9v1z"/><path fill="#2E6CB2" d="M421.8 135.4h3.9c.8 0 1.4-.6 1.4-1.4s-.6-1.4-1.4-1.4h-1c-.9 0-1.7-.7-1.7-1.7 0-.9.7-1.7 1.7-1.7h3.9V128h-3.9c-1.6 0-2.9 1.3-2.9 2.9 0 1.6 1.3 2.9 2.9 2.9h1c.1 0 .1.1.1.1 0 .1-.1.1-.1.1h-3.9v1.4zM431.6 135.7c-.7 0-1.2-.5-1.2-1.2v-3.9c0-.7.6-1.2 1.2-1.2h4.2v-1.2h-4.2c-1.4 0-2.5 1.1-2.5 2.5v3.9c0 1.4 1.1 2.5 2.5 2.5h4.2v-1.2l-4.2-.2z"/><path fill="#2E6CB2" d="M430.7 130.6c0-.5.4-.9.9-.9h4.2v1.2h-3.6c-.3 0-.3.3-.3.3h3v1.2h-4.2v-1.8zM431.6 135.4c-.5 0-.9-.4-.9-.9v-1.8h4.2v1.2h-3c0 .3.3.3.3.3h3.6v1.2h-4.2zM438.7 135.7c-.7 0-1.2-.6-1.2-1.2v-3.9c0-.7.5-1.2 1.2-1.2h4v-1.2h-4.1c-1.4 0-2.5 1.1-2.5 2.5v3.9c0 1.4 1.1 2.5 2.5 2.5h4v-5.8h-3.5v1.2h2.2v3.3l-2.6-.1z"/><path fill="#2E6CB2" d="M437.8 134.5c0 .5.4.9.9.9h2.5v-2.7h-2v1.2h.7v.3h-.7c-.2 0-.3-.1-.3-.3v-2.7s0-.3.3-.3h3.5v-1.2h-4c-.5 0-.9.4-.9.9v3.9zM446.6 129.6c.1-.2.2-.3.4-.3s.3.1.4.3l2 5.8h-2.9V134h1l-.4-1.3-1.4 4.2h-1.5l2.4-7.3z"/><path fill="#2E6CB2" d="M449.7 135.7h-3.3v1.2h5l-2.6-7.7c-.2-.7-1-1.3-1.9-1.3-.9 0-1.6.5-1.9 1.3l-2.6 7.7h1.3l2.5-7.4c.1-.2.3-.4.6-.4s.5.2.6.4l2.3 6.2z"/><path fill="#656565" d="M329.5 98.8h1.7c.9 0 1.6.4 1.6 1.4s-.7 1.4-1.7 1.4h-.7v1.8h-.9v-4.6zm1 2.1h.6c.5 0 .8-.2.8-.7s-.3-.6-.8-.6h-.6v1.3zM334 102.3l-.3 1.1h-.9c.1-.2 1.3-4.4 1.4-4.6h1.2l1.5 4.6h-1l-.3-1.1H334zm1.3-.7c-.3-.9-.5-1.6-.6-2-.1.5-.3 1.2-.6 2h1.2zM338.2 98.8v2.9c0 .5.1 1 .9 1 .7 0 .8-.5.8-1v-2.9h.9v2.9c0 1-.4 1.7-1.8 1.7s-1.8-.7-1.8-1.7v-2.9h1zM342.4 102.1c.1.4.3.7.8.7s.7-.2.7-.6c0-.4-.3-.6-.9-.8-1.1-.3-1.4-.7-1.4-1.3 0-.9.7-1.3 1.6-1.3 1.1 0 1.6.6 1.6 1.3h-.9c-.1-.3-.2-.6-.7-.6-.4 0-.6.2-.6.5s.2.4.9.6c1.2.3 1.5.8 1.5 1.5s-.5 1.4-1.7 1.4c-1 0-1.7-.5-1.7-1.4h.8zM348.5 101.4h-2v1.2h2.2l-.1.8h-3v-4.6h3v.8h-2.1v1h2zM403 98.8h1.7c.9 0 1.6.4 1.6 1.4s-.7 1.4-1.7 1.4h-.6v1.8h-1v-4.6zm1 2.1h.6c.5 0 .8-.2.8-.7s-.3-.6-.8-.6h-.6v1.3zM411 101.1c0 1.3-.6 2.4-2.1 2.4-1.4 0-2-1.1-2-2.4 0-1.1.6-2.3 2.1-2.3 1.4 0 2 1.1 2 2.3zm-3.1 0c0 .9.4 1.6 1.1 1.6.8 0 1.1-.7 1.1-1.6 0-.8-.3-1.6-1.1-1.6s-1.1.7-1.1 1.6zM412.4 103.4l-1.1-4.6h1c.2 1.1.5 2.7.6 3.5.2-.9.6-2.4.8-3.5h.8c.2.9.6 2.6.8 3.5.1-1 .6-2.8.7-3.5h.9l-1.1 4.6h-1c-.2-1-.6-2.4-.7-3.3-.2.8-.5 2.4-.8 3.3h-.9zM420.5 101.4h-2v1.2h2.2l-.1.8h-3v-4.6h3v.8h-2.1v1h2zM422.3 101.5v1.9h-.9v-4.6h1.9c.9 0 1.5.4 1.5 1.2 0 .6-.3.9-.7 1.1.5.2.6.5.6 1.1v.1c0 .4 0 .8.1 1.1h-.9c-.1-.2-.1-.5-.1-1.1v-.1c0-.5-.2-.7-.8-.7h-.7zm0-.7h.7c.4 0 .8-.1.8-.6 0-.4-.3-.6-.7-.6h-.8v1.2zM430.4 101.1c0 1.3-.6 2.4-2.1 2.4-1.4 0-2-1.1-2-2.4 0-1.1.6-2.3 2.1-2.3 1.4 0 2 1.1 2 2.3zm-3.1 0c0 .9.4 1.6 1.1 1.6.8 0 1.1-.7 1.1-1.6 0-.8-.3-1.6-1.1-1.6s-1.1.7-1.1 1.6zM431.2 103.4v-4.6h1.2c1.4 2.8 1.6 3.3 1.7 3.5 0-.5-.1-1.3-.1-2v-1.4h.9v4.6h-1.1c-1.5-3.1-1.6-3.4-1.7-3.6v3.6h-.9v-.1zM300.1 112.5h-.9v-.5h2.5v.6h-.9v2.8h-.7zM302.7 111.8v1.3c.1-.2.3-.4.7-.4.5 0 .8.2.8.9v1.7h-.7v-1.6c0-.3-.1-.5-.4-.5-.3 0-.4.2-.4.6v1.4h-.7v-3.5l.7.1zM304.8 111.8h.7v.6h-.7v-.6zm0 1h.7v2.5h-.7v-2.5zM306.5 114.5c0 .2.2.3.4.3s.4-.1.4-.3-.1-.2-.5-.3c-.7-.2-.8-.4-.8-.8 0-.3.2-.8 1-.8.7 0 1 .3 1 .8h-.6c0-.1-.1-.3-.4-.3-.2 0-.3.1-.3.2s.1.2.5.3c.7.2.9.4.9.8 0 .5-.4.8-1 .8s-1-.3-1.1-.8h.5v.1zM312.2 114.3c-.1.6-.5 1.1-1.3 1.1-1.1 0-1.4-.8-1.4-1.7 0-.9.5-1.7 1.5-1.7.9 0 1.2.6 1.3 1.1h-.7c-.1-.3-.2-.5-.6-.5-.6 0-.7.6-.7 1.2s.2 1.2.7 1.2c.4 0 .6-.3.6-.6l.6-.1zM315 114c0 .7-.4 1.3-1.2 1.3-.9 0-1.2-.6-1.2-1.3 0-.6.4-1.3 1.2-1.3s1.2.6 1.2 1.3zm-1.8 0c0 .5.2.8.5.8s.5-.3.5-.8-.2-.8-.5-.8c-.3.1-.5.4-.5.8zM315.4 113.6v-.8h.6v.3c.1-.2.4-.3.7-.3s.5.2.6.4c.1-.2.4-.4.8-.4s.8.2.8.9v1.7h-.7v-1.6c0-.2-.1-.4-.4-.4s-.4.2-.4.6v1.4h-.6v-1.6c0-.2-.1-.4-.4-.4-.3 0-.4.2-.4.6v1.4h-.7v-1.8h.1zM320.3 115.1v1.2h-.7v-2.8-.7h.6v.3c.1-.2.3-.4.7-.4.5 0 1 .4 1 1.3 0 .8-.5 1.3-1.1 1.3-.3.1-.5 0-.5-.2zm1-1.1c0-.5-.2-.8-.5-.8-.4 0-.5.2-.5.8 0 .5.1.8.5.8.3 0 .5-.2.5-.8zM324.5 114.6v.7h-.6v-.3c-.2.3-.4.3-.7.3-.5 0-.8-.3-.8-.9v-1.7h.7v1.6c0 .3.1.4.4.4s.4-.2.4-.6v-1.4h.7l-.1 1.9zM324.9 112.8h.4v-.7h.7v.7h.5v.5h-.5v1.3c0 .2 0 .2.2.2h.2v.5h-.4c-.5 0-.7-.2-.7-.7v-1.4h-.4v-.4zM327.2 114.2c0 .3.1.6.5.6.3 0 .4-.2.4-.3h.7c-.1.4-.4.8-1.1.8-.8 0-1.1-.6-1.1-1.3 0-.6.3-1.3 1.2-1.3.8 0 1.1.6 1.1 1.3v.2h-1.7zm1-.4c0-.3-.1-.5-.5-.5s-.5.3-.5.5h1zM329.3 113.6v-.9h.6v.4c.1-.2.3-.5.8-.5v.7c-.5 0-.8.2-.8.7v1.1h-.7l.1-1.5zM333.2 115.3l-1.1-3.3h.7l.4 1.5c.1.4.3.9.3 1.2.1-.3.2-.7.3-1.2l.5-1.5h.7l-1.1 3.3h-.7zM335.4 111.8h.7v.6h-.7v-.6zm0 1h.7v2.5h-.7v-2.5zM338.9 111.8v3.5h-.6v-.3c-.1.2-.3.3-.7.3-.6 0-1-.5-1-1.3s.4-1.3 1.1-1.3c.4 0 .5.1.6.2v-1.2l.6.1zm-1.7 2.2c0 .5.2.8.5.8.4 0 .5-.3.5-.8s-.1-.8-.5-.8c-.3.1-.5.3-.5.8zM340 114.2c0 .3.1.6.5.6.3 0 .4-.2.4-.3h.7c-.1.4-.4.8-1.1.8-.8 0-1.1-.6-1.1-1.3 0-.6.3-1.3 1.2-1.3.8 0 1.1.6 1.1 1.3v.2H340zm1-.4c0-.3-.1-.5-.5-.5s-.5.3-.5.5h1zM344.4 114c0 .7-.4 1.3-1.2 1.3-.9 0-1.2-.6-1.2-1.3 0-.6.4-1.3 1.2-1.3s1.2.6 1.2 1.3zm-1.7 0c0 .5.2.8.5.8s.5-.3.5-.8-.2-.8-.5-.8c-.4.1-.5.4-.5.8zM348.8 115.3h-.5c0-.1 0-.3-.1-.4-.2.3-.5.4-.9.4-.9 0-1.3-.7-1.3-1.7s.5-1.7 1.5-1.7c.8 0 1.2.4 1.3 1h-.7c-.1-.2-.2-.5-.7-.5-.6 0-.8.6-.8 1.2s.2 1.2.8 1.2c.5 0 .6-.4.6-.8h-.7v-.6h1.4c.1 1.3.1 1.8.1 1.9zM351.4 114.7v.7h-.6v-.3c-.1.2-.3.3-.7.3-.6 0-.8-.4-.8-.8 0-.5.3-.8 1.2-.8h.3v-.2c0-.2-.1-.4-.4-.4-.3 0-.4.1-.4.3h-.6c0-.4.3-.8 1-.8.6 0 1 .2 1 .8v1.2zm-.6-.5h-.3c-.5 0-.5.2-.5.4s.1.3.4.3c.3 0 .4-.3.4-.7zM352 113.6v-.8h.6v.3c.1-.2.4-.3.7-.3s.5.2.6.4c.1-.2.4-.4.8-.4s.8.2.8.9v1.7h-.7v-1.6c0-.2-.1-.4-.4-.4-.3 0-.4.2-.4.6v1.4h-.6v-1.6c0-.2-.1-.4-.4-.4s-.4.2-.4.6v1.4h-.6v-1.8zM356.7 114.2c0 .3.1.6.5.6.3 0 .4-.2.4-.3h.7c-.1.4-.4.8-1.1.8-.8 0-1.1-.6-1.1-1.3 0-.6.3-1.3 1.2-1.3.8 0 1.1.6 1.1 1.3v.2h-1.7zm1-.4c0-.3-.1-.5-.5-.5s-.5.3-.5.5h1zM362.7 114.3c-.1.6-.5 1.1-1.3 1.1-1.1 0-1.4-.8-1.4-1.7 0-.9.5-1.7 1.5-1.7.9 0 1.2.6 1.3 1.1h-.8c-.1-.3-.2-.5-.6-.5-.6 0-.7.6-.7 1.2s.2 1.2.7 1.2c.4 0 .6-.3.6-.6l.7-.1zM365.5 114c0 .7-.4 1.3-1.2 1.3-.9 0-1.2-.6-1.2-1.3 0-.6.4-1.3 1.2-1.3s1.2.6 1.2 1.3zm-1.8 0c0 .5.2.8.5.8s.5-.3.5-.8-.2-.8-.5-.8c-.3.1-.5.4-.5.8zM365.9 113.6v-.8h.6v.3c.1-.2.3-.4.7-.4.5 0 .8.3.8.9v1.7h-.7v-1.5c0-.3-.1-.5-.4-.5-.3 0-.4.2-.4.6v1.4h-.7v-1.7h.1zM369.2 114.5c0 .2.2.3.4.3s.4-.1.4-.3-.1-.2-.5-.3c-.7-.2-.8-.4-.8-.8 0-.3.2-.8 1-.8.7 0 1 .3 1 .8h-.6c0-.1-.1-.3-.4-.3-.2 0-.3.1-.3.2s.1.2.5.3c.7.2.9.4.9.8 0 .5-.4.8-1 .8s-1-.3-1.1-.8h.5v.1zM373.3 114c0 .7-.4 1.3-1.2 1.3-.9 0-1.2-.6-1.2-1.3 0-.6.4-1.3 1.2-1.3.9 0 1.2.6 1.2 1.3zm-1.7 0c0 .5.2.8.5.8s.5-.3.5-.8-.2-.8-.5-.8c-.3.1-.5.4-.5.8zM373.8 111.8h.7v3.5h-.7zM375.6 114.2c0 .3.1.6.5.6.3 0 .4-.2.4-.3h.7c-.1.4-.4.8-1.1.8-.8 0-1.1-.6-1.1-1.3 0-.6.3-1.3 1.2-1.3.8 0 1.1.6 1.1 1.3v.2h-1.7zm1-.4c0-.3-.1-.5-.5-.5s-.5.3-.5.5h1zM377.4 115.9c.1-.2.3-.8.3-1.3h.6c0 .5-.2 1-.4 1.3h-.5zM382.2 111.8v3.5h-.6v-.3c-.1.2-.3.3-.7.3-.6 0-1-.5-1-1.3s.4-1.3 1.1-1.3c.4 0 .5.1.6.2v-1.2l.6.1zm-1.7 2.2c0 .5.2.8.5.8.4 0 .5-.3.5-.8s-.1-.8-.5-.8c-.3.1-.5.3-.5.8zM383.3 114.2c0 .3.1.6.5.6.3 0 .4-.2.4-.3h.7c-.1.4-.4.8-1.1.8-.8 0-1.1-.6-1.1-1.3 0-.6.3-1.3 1.2-1.3.8 0 1.1.6 1.1 1.3v.2h-1.7zm1-.4c0-.3-.1-.5-.5-.5s-.5.3-.5.5h1zM385.9 114.5c0 .2.2.3.4.3s.4-.1.4-.3-.1-.2-.5-.3c-.7-.2-.8-.4-.8-.8 0-.3.2-.8 1-.8.7 0 1 .3 1 .8h-.6c0-.1-.1-.3-.4-.3-.2 0-.3.1-.3.2s.1.2.5.3c.7.2.9.4.9.8 0 .5-.4.8-1 .8s-1-.3-1.1-.8h.5v.1zM387.7 111.8h.7v.6h-.7v-.6zm0 1h.7v2.5h-.7v-2.5zM391.2 115.1c0 .8-.3 1.3-1.2 1.3-.8 0-1.1-.4-1.1-.8h.7c0 .2.2.3.5.3.4 0 .5-.2.5-.7v-.2c-.1.2-.4.3-.7.3-.6 0-1-.5-1-1.3s.5-1.3 1.1-1.3c.4 0 .6.1.6.3v-.2h.6v2.3zm-1.6-1.1c0 .4.2.7.5.7.4 0 .5-.2.5-.7s-.1-.7-.5-.7c-.3 0-.5.2-.5.7zM391.8 113.6v-.8h.6v.3c.1-.2.3-.4.7-.4.5 0 .8.3.8.9v1.7h-.7v-1.5c0-.3-.1-.5-.4-.5s-.4.2-.4.6v1.4h-.7l.1-1.7zM395.1 114.2c0 .3.1.6.5.6.3 0 .4-.2.4-.3h.7c-.1.4-.4.8-1.1.8-.8 0-1.1-.6-1.1-1.3 0-.6.3-1.3 1.2-1.3.8 0 1.1.6 1.1 1.3v.2h-1.7zm1-.4c0-.3-.1-.5-.5-.5s-.5.3-.5.5h1zM399.4 111.8v3.5h-.6v-.3c-.1.2-.3.3-.7.3-.6 0-1-.5-1-1.3s.4-1.3 1.1-1.3c.4 0 .5.1.6.2v-1.2l.6.1zm-1.6 2.2c0 .5.2.8.5.8.4 0 .5-.3.5-.8s-.1-.8-.5-.8c-.3.1-.5.3-.5.8zM299.4 121.2v-2h-.3v-.5h.3v-.2c0-.5.2-.8.8-.8h.3v.5h-.2c-.2 0-.2.1-.2.3v.2h.4v.5h-.4v2h-.7zM303.1 119.9c0 .7-.4 1.3-1.2 1.3-.9 0-1.2-.6-1.2-1.3 0-.6.4-1.3 1.2-1.3.8 0 1.2.6 1.2 1.3zm-1.7 0c0 .5.2.8.5.8s.5-.3.5-.8-.2-.8-.5-.8c-.4 0-.5.3-.5.8zM303.6 119.5v-.9h.6v.4c.1-.2.3-.5.8-.5v.7c-.5 0-.8.2-.8.7v1.1h-.7l.1-1.5zM307.1 120.4c0 .2.2.3.4.3s.4-.1.4-.3c0-.2-.1-.2-.5-.3-.7-.2-.8-.4-.8-.8 0-.3.2-.8 1-.8.7 0 1 .3 1 .8h-.6c0-.1-.1-.3-.4-.3-.2 0-.3.1-.3.2s.1.2.5.3c.7.2.9.4.9.8 0 .5-.4.8-1 .8s-1-.3-1.1-.8l.5.1zM309 117.6h.7v.6h-.7v-.6zm0 1h.7v2.5h-.7v-2.5zM310.3 119.4v-.8h.6v.3c.1-.2.4-.3.7-.3.3 0 .5.2.6.4.1-.2.4-.4.8-.4s.8.2.8.9v1.7h-.7v-1.6c0-.2-.1-.4-.4-.4s-.4.2-.4.6v1.4h-.6v-1.6c0-.2-.1-.4-.4-.4s-.4.2-.4.6v1.4h-.7l.1-1.8zM315.1 121v1.2h-.7v-2.8-.7h.6v.3c.1-.2.3-.4.7-.4.5 0 1 .4 1 1.3 0 .8-.5 1.3-1.1 1.3-.2 0-.4-.1-.5-.2zm1-1.1c0-.5-.2-.8-.5-.8-.4 0-.5.2-.5.8 0 .5.1.8.5.8.3 0 .5-.3.5-.8zM317.3 117.7h.7v3.5h-.7zM319.1 120.1c0 .3.1.6.5.6.3 0 .4-.2.4-.3h.7c-.1.4-.4.8-1.1.8-.8 0-1.1-.6-1.1-1.3 0-.6.3-1.3 1.2-1.3.8 0 1.1.6 1.1 1.3v.2h-1.7zm.9-.5c0-.3-.1-.5-.5-.5s-.5.3-.5.5h1zM324.7 119.9c0 .7-.4 1.3-1.2 1.3-.9 0-1.2-.6-1.2-1.3 0-.6.4-1.3 1.2-1.3s1.2.6 1.2 1.3zm-1.8 0c0 .5.2.8.5.8s.5-.3.5-.8-.2-.8-.5-.8-.5.3-.5.8zM325.8 121v1.2h-.7v-2.8-.7h.6v.3c.1-.2.3-.4.7-.4.5 0 1 .4 1 1.3 0 .8-.5 1.3-1.1 1.3-.2 0-.4-.1-.5-.2zm1-1.1c0-.5-.2-.8-.5-.8-.4 0-.5.2-.5.8 0 .5.1.8.5.8.3 0 .5-.3.5-.8zM328.5 120.1c0 .3.1.6.5.6.3 0 .4-.2.4-.3h.7c-.1.4-.4.8-1.1.8-.8 0-1.1-.6-1.1-1.3 0-.6.3-1.3 1.2-1.3.8 0 1.1.6 1.1 1.3v.2h-1.7zm.9-.5c0-.3-.1-.5-.5-.5s-.5.3-.5.5h1zM330.6 119.5v-.9h.6v.4c.1-.2.3-.5.8-.5v.7c-.5 0-.8.2-.8.7v1.1h-.7l.1-1.5zM334.3 120.5v.7h-.6v-.3c-.1.2-.3.3-.7.3-.6 0-.8-.4-.8-.8 0-.5.3-.8 1.2-.8h.3v-.2c0-.2-.1-.4-.4-.4s-.4.1-.4.3h-.6c0-.4.3-.8 1-.8.6 0 1 .2 1 .8v1.2zm-.6-.5h-.3c-.5 0-.5.2-.5.4s.1.3.4.3.4-.3.4-.7zM334.6 118.6h.4v-.6h.7v.7h.5v.5h-.5v1.3c0 .2 0 .2.2.2h.2v.5h-.4c-.5 0-.7-.2-.7-.7v-1.4h-.4v-.5zM336.4 117.6h.7v.6h-.7v-.6zm0 1h.7v2.5h-.7v-2.5zM340 119.9c0 .7-.4 1.3-1.2 1.3-.9 0-1.2-.6-1.2-1.3 0-.6.4-1.3 1.2-1.3s1.2.6 1.2 1.3zm-1.8 0c0 .5.2.8.5.8s.5-.3.5-.8-.2-.8-.5-.8-.5.3-.5.8zM340.4 119.4v-.8h.6v.3c.1-.2.3-.4.7-.4.5 0 .8.3.8.9v1.7h-.7v-1.5c0-.3-.1-.5-.4-.5-.3 0-.4.2-.4.6v1.4h-.7v-1.7h.1zM343 121.7c.1-.2.3-.8.3-1.3h.6c0 .5-.2 1-.4 1.3h-.5zM345.6 117.6h.7v.6h-.7v-.6zm0 1h.7v2.5h-.7v-2.5zM347.3 120.4c0 .2.2.3.4.3s.4-.1.4-.3c0-.2-.1-.2-.5-.3-.7-.2-.8-.4-.8-.8 0-.3.2-.8 1-.8.7 0 1 .3 1 .8h-.8c0-.1-.1-.3-.4-.3-.2 0-.3.1-.3.2s.1.2.5.3c.7.2.9.4.9.8 0 .5-.4.8-1 .8s-1-.3-1.1-.8l.7.1zM352.5 120.9c0 .8-.3 1.3-1.2 1.3-.8 0-1.1-.4-1.1-.8h.7c0 .2.2.3.5.3.4 0 .5-.2.5-.7v-.2c-.1.2-.4.3-.7.3-.6 0-1-.5-1-1.3s.5-1.3 1.1-1.3c.4 0 .6.1.6.3v-.2h.6v2.3zm-1.6-1c0 .4.2.7.5.7.4 0 .5-.2.5-.7s-.1-.7-.5-.7c-.3-.1-.5.2-.5.7zM355.2 120.4v.7h-.6v-.3c-.2.3-.4.3-.7.3-.5 0-.8-.3-.8-.9v-1.7h.7v1.6c0 .3.1.4.4.4s.4-.2.4-.6v-1.4h.7l-.1 1.9zM357.9 120.5v.7h-.6v-.3c-.1.2-.3.3-.7.3-.6 0-.8-.4-.8-.8 0-.5.3-.8 1.2-.8h.3v-.2c0-.2-.1-.4-.4-.4-.3 0-.4.1-.4.3h-.6c0-.4.3-.8 1-.8.6 0 1 .2 1 .8v1.2zm-.7-.5h-.3c-.5 0-.5.2-.5.4s.1.3.4.3.4-.3.4-.7zM358.5 119.5v-.9h.6v.4c.1-.2.3-.5.8-.5v.7c-.5 0-.8.2-.8.7v1.1h-.7l.1-1.5zM362.2 120.5v.7h-.6v-.3c-.1.2-.3.3-.7.3-.6 0-.8-.4-.8-.8 0-.5.3-.8 1.2-.8h.3v-.2c0-.2-.1-.4-.4-.4s-.4.1-.4.3h-.6c0-.4.3-.8 1-.8.6 0 1 .2 1 .8v1.2zm-.6-.5h-.3c-.5 0-.5.2-.5.4s.1.3.4.3.4-.3.4-.7zM362.8 119.4v-.8h.6v.3c.1-.2.3-.4.7-.4.5 0 .8.3.8.9v1.7h-.7v-1.5c0-.3-.1-.5-.4-.5s-.4.2-.4.6v1.4h-.7l.1-1.7zM365.3 118.6h.4v-.6h.7v.7h.5v.5h-.5v1.3c0 .2 0 .2.2.2h.2v.5h-.4c-.5 0-.7-.2-.7-.7v-1.4h-.4v-.5zM367.7 120.1c0 .3.1.6.5.6.3 0 .4-.2.4-.3h.7c-.1.4-.4.8-1.1.8-.8 0-1.1-.6-1.1-1.3 0-.6.3-1.3 1.2-1.3.8 0 1.1.6 1.1 1.3v.2h-1.7zm.9-.5c0-.3-.1-.5-.5-.5s-.5.3-.5.5h1zM370.3 120.1c0 .3.1.6.5.6.3 0 .4-.2.4-.3h.7c-.1.4-.4.8-1.1.8-.8 0-1.1-.6-1.1-1.3 0-.6.3-1.3 1.2-1.3.8 0 1.1.6 1.1 1.3v.2h-1.7zm.9-.5c0-.3-.1-.5-.5-.5s-.5.3-.5.5h1zM374.6 117.6v3.5h-.6v-.3c-.1.2-.3.3-.7.3-.6 0-1-.5-1-1.3s.4-1.3 1.1-1.3c.4 0 .5.1.6.2v-1.2l.6.1zm-1.7 2.3c0 .5.2.8.5.8.4 0 .5-.3.5-.8s-.1-.8-.5-.8c-.3 0-.5.3-.5.8zM376.2 118.6h.4v-.6h.7v.7h.5v.5h-.5v1.3c0 .2 0 .2.2.2h.2v.5h-.4c-.5 0-.7-.2-.7-.7v-1.4h-.4v-.5zM380.2 119.9c0 .7-.4 1.3-1.2 1.3-.9 0-1.2-.6-1.2-1.3 0-.6.4-1.3 1.2-1.3.9 0 1.2.6 1.2 1.3zm-1.7 0c0 .5.2.8.5.8s.5-.3.5-.8-.2-.8-.5-.8-.5.3-.5.8zM384.1 120.9c0 .8-.3 1.3-1.2 1.3-.8 0-1.1-.4-1.1-.8h.7c0 .2.2.3.5.3.4 0 .5-.2.5-.7v-.2c-.1.2-.4.3-.7.3-.6 0-1-.5-1-1.3s.5-1.3 1.1-1.3c.4 0 .6.1.6.3v-.2h.6v2.3zm-1.6-1c0 .4.2.7.5.7.4 0 .5-.2.5-.7s-.1-.7-.5-.7c-.3-.1-.5.2-.5.7zM384.7 117.6h.7v.6h-.7v-.6zm0 1h.7v2.5h-.7v-2.5zM386.4 118.6c.2.9.4 1.5.5 1.9.1-.4.3-1 .5-1.9h.7l-.9 2.5h-.7l-.8-2.5h.7zM388.9 120.1c0 .3.1.6.5.6.3 0 .4-.2.4-.3h.7c-.1.4-.4.8-1.1.8-.8 0-1.1-.6-1.1-1.3 0-.6.3-1.3 1.2-1.3.8 0 1.1.6 1.1 1.3v.2h-1.7zm1-.5c0-.3-.1-.5-.5-.5s-.5.3-.5.5h1zM299.8 124.5c.3 1.1.5 1.7.5 2 .1-.3.3-1.2.5-2h.7l-.9 2.6c-.3.8-.6.9-1 .9h-.3v-.5h.2c.2 0 .3-.1.4-.3l-.9-2.6.8-.1zM304 125.7c0 .7-.4 1.3-1.2 1.3-.9 0-1.2-.6-1.2-1.3 0-.6.4-1.3 1.2-1.3.9 0 1.2.6 1.2 1.3zm-1.7 0c0 .5.2.8.5.8s.5-.3.5-.8-.2-.8-.5-.8c-.3.1-.5.4-.5.8zM306.6 126.3v.7h-.6v-.3c-.2.3-.4.3-.7.3-.5 0-.8-.3-.8-.9v-1.7h.7v1.6c0 .3.1.4.4.4.3 0 .4-.2.4-.6v-1.4h.7v1.9h-.1zM308.1 124.5h.4v-.7h.7v.7h.5v.5h-.5v1.3c0 .2 0 .2.2.2h.2v.5h-.4c-.5 0-.7-.2-.7-.7V125h-.4v-.5zM310.6 123.5v1.3c.1-.2.3-.4.7-.4.5 0 .8.2.8.9v1.7h-.7v-1.6c0-.3-.1-.5-.4-.5s-.4.2-.4.6v1.4h-.6v-3.5h.6v.1zM313.3 125.9c0 .3.1.6.5.6.3 0 .4-.2.4-.3h.7c-.1.4-.4.8-1.1.8-.8 0-1.1-.6-1.1-1.3 0-.6.3-1.3 1.2-1.3.8 0 1.1.6 1.1 1.3v.2h-1.7zm.9-.4c0-.3-.1-.5-.5-.5s-.5.3-.5.5h1zM316.6 125.3v-.8h.6v.3c.1-.2.4-.3.7-.3.3 0 .5.2.6.4.1-.2.4-.4.8-.4s.8.2.8.9v1.7h-.7v-1.6c0-.2-.1-.4-.4-.4s-.4.2-.4.6v1.4h-.6v-1.6c0-.2-.1-.4-.4-.4-.3 0-.4.2-.4.6v1.4h-.7l.1-1.8zM322.7 126.4v.7h-.6v-.3c-.1.2-.3.3-.7.3-.6 0-.8-.4-.8-.8 0-.5.3-.8 1.2-.8h.3v-.2c0-.2-.1-.4-.4-.4s-.4.1-.4.3h-.6c0-.4.3-.8 1-.8.6 0 1 .2 1 .8v1.2zm-.6-.5h-.3c-.5 0-.5.2-.5.4s.1.3.4.3.4-.3.4-.7zM323.8 124.5c.2.5.4.7.4.8.1-.2.2-.4.5-.8h.7l-.8 1.2.8 1.3h-.7c-.2-.4-.4-.7-.4-.8-.1.1-.2.5-.4.8h-.9l.7-1.2-.7-1.3h.8zM325.6 123.5h.7v.6h-.7v-.6zm0 1h.7v2.5h-.7v-2.5zM326.9 125.3v-.8h.6v.3c.1-.2.4-.3.7-.3s.5.2.6.4c.1-.2.4-.4.8-.4s.8.2.8.9v1.7h-.7v-1.6c0-.2-.1-.4-.4-.4s-.4.2-.4.6v1.4h-.6v-1.6c0-.2-.1-.4-.4-.4-.3 0-.4.2-.4.6v1.4h-.7v-1.8h.1zM333.2 126.3v.7h-.6v-.3c-.2.3-.4.3-.7.3-.5 0-.8-.3-.8-.9v-1.7h.7v1.6c0 .3.1.4.4.4s.4-.2.4-.6v-1.4h.7l-.1 1.9zM333.8 125.3v-.8h.6v.3c.1-.2.4-.3.7-.3.3 0 .5.2.6.4.1-.2.4-.4.8-.4s.8.2.8.9v1.7h-.7v-1.6c0-.2-.1-.4-.4-.4s-.4.2-.4.6v1.4h-.6v-1.6c0-.2-.1-.4-.4-.4s-.4.2-.4.6v1.4h-.7l.1-1.8zM339.1 123.5h.7v.6h-.7v-.6zm0 1h.7v2.5h-.7v-2.5zM340.4 125.3v-.8h.6v.3c.1-.2.3-.4.7-.4.5 0 .8.3.8.9v1.7h-.7v-1.5c0-.3-.1-.5-.4-.5-.3 0-.4.2-.4.6v1.4h-.7v-1.7h.1zM346.5 126.8c0 .8-.3 1.3-1.2 1.3-.8 0-1.1-.4-1.1-.8h.7c0 .2.2.3.5.3.4 0 .5-.2.5-.7v-.2c-.1.2-.4.3-.7.3-.6 0-1-.5-1-1.3s.5-1.3 1.1-1.3c.4 0 .6.1.6.3v-.2h.6v2.3zm-1.6-1.1c0 .4.2.7.5.7.4 0 .5-.2.5-.7s-.1-.7-.5-.7c-.3 0-.5.2-.5.7zM349.1 126.4v.7h-.6v-.3c-.1.2-.3.3-.7.3-.6 0-.8-.4-.8-.8 0-.5.3-.8 1.2-.8h.3v-.2c0-.2-.1-.4-.4-.4-.3 0-.4.1-.4.3h-.6c0-.4.3-.8 1-.8.6 0 1 .2 1 .8v1.2zm-.6-.5h-.3c-.5 0-.5.2-.5.4s.1.3.4.3c.3 0 .4-.3.4-.7zM349.7 125.3v-.8h.6v.3c.1-.2.4-.3.7-.3s.5.2.6.4c.1-.2.4-.4.8-.4s.8.2.8.9v1.7h-.7v-1.6c0-.2-.1-.4-.4-.4-.3 0-.4.2-.4.6v1.4h-.6v-1.6c0-.2-.1-.4-.4-.4s-.4.2-.4.6v1.4h-.7v-1.8h.1zM354.4 125.9c0 .3.1.6.5.6.3 0 .4-.2.4-.3h.7c-.1.4-.4.8-1.1.8-.8 0-1.1-.6-1.1-1.3 0-.6.3-1.3 1.2-1.3.8 0 1.1.6 1.1 1.3v.2h-1.7zm1-.4c0-.3-.1-.5-.5-.5s-.5.3-.5.5h1zM358.4 126.8v1.2h-.7v-2.8-.7h.6v.3c.1-.2.3-.4.7-.4.5 0 1 .4 1 1.3 0 .8-.5 1.3-1.1 1.3-.2.1-.4 0-.5-.2zm1-1.1c0-.5-.2-.8-.5-.8-.4 0-.5.2-.5.8 0 .5.1.8.5.8.3 0 .5-.2.5-.8zM360.6 123.5h.7v3.5h-.7zM363.8 126.4v.7h-.6v-.3c-.1.2-.3.3-.7.3-.6 0-.8-.4-.8-.8 0-.5.3-.8 1.2-.8h.3v-.2c0-.2-.1-.4-.4-.4s-.4.1-.4.3h-.6c0-.4.3-.8 1-.8.6 0 1 .2 1 .8v1.2zm-.6-.5h-.3c-.5 0-.5.2-.5.4s.1.3.4.3.4-.3.4-.7zM364.8 124.5c.3 1.1.5 1.7.5 2 .1-.3.3-1.2.5-2h.7l-.9 2.6c-.3.8-.6.9-1 .9h-.3v-.5h.2c.2 0 .3-.1.4-.3l-.9-2.6.8-.1zM368.6 126.2c0 .2.2.3.4.3s.4-.1.4-.3c0-.2-.1-.2-.5-.3-.7-.2-.8-.4-.8-.8 0-.3.2-.8 1-.8.7 0 1 .3 1 .8h-.6c0-.1-.1-.3-.4-.3-.2 0-.3.1-.3.2s.1.2.5.3c.7.2.9.4.9.8 0 .5-.4.8-1 .8s-1-.3-1.1-.8h.5v.1zM372.5 126.4v.7h-.5v-.3c-.1.2-.3.3-.7.3-.6 0-.8-.4-.8-.8 0-.5.3-.8 1.2-.8h.3v-.2c0-.2-.1-.4-.4-.4-.3 0-.4.1-.4.3h-.6c0-.4.3-.8 1-.8.6 0 1 .2 1 .8l-.1 1.2zm-.6-.5h-.3c-.5 0-.5.2-.5.4s.1.3.4.3.4-.3.4-.7zM372.8 124.5h.4v-.7h.7v.7h.5v.5h-.5v1.3c0 .2 0 .2.2.2h.2v.5h-.4c-.5 0-.7-.2-.7-.7V125h-.4v-.5zM374.7 123.5h.7v.6h-.7v-.6zm0 1h.7v2.5h-.7v-2.5zM376.4 126.2c0 .2.2.3.4.3s.4-.1.4-.3c0-.2-.1-.2-.5-.3-.7-.2-.8-.4-.8-.8 0-.3.2-.8 1-.8.7 0 1 .3 1 .8h-.6c0-.1-.1-.3-.4-.3-.2 0-.3.1-.3.2s.1.2.5.3c.7.2.9.4.9.8 0 .5-.4.8-1 .8s-1-.3-1.1-.8h.5v.1zM378.3 127v-2h-.3v-.5h.3v-.2c0-.5.2-.8.8-.8h.3v.5h-.2c-.2 0-.2.1-.2.3v.2h.4v.5h-.4v2h-.7zM381.7 126.4v.7h-.6v-.3c-.1.2-.3.3-.7.3-.6 0-.8-.4-.8-.8 0-.5.3-.8 1.2-.8h.3v-.2c0-.2-.1-.4-.4-.4s-.4.1-.4.3h-.6c0-.4.3-.8 1-.8.6 0 1 .2 1 .8v1.2zm-.6-.5h-.3c-.5 0-.5.2-.5.4s.1.3.4.3.4-.3.4-.7zM384.4 126.1c-.1.5-.4.9-1.1.9-.8 0-1.1-.5-1.1-1.3s.4-1.3 1.2-1.3c.8 0 1 .6 1.1.9h-.7c0-.2-.1-.4-.4-.4-.3 0-.5.3-.5.8 0 .6.2.8.5.8s.4-.2.4-.4h.6zM384.7 124.5h.4v-.7h.7v.7h.5v.5h-.5v1.3c0 .2 0 .2.2.2h.2v.5h-.4c-.5 0-.7-.2-.7-.7V125h-.4v-.5zM386.5 123.5h.7v.6h-.7v-.6zm0 1h.7v2.5h-.7v-2.5zM390 125.7c0 .7-.4 1.3-1.2 1.3-.9 0-1.2-.6-1.2-1.3 0-.6.4-1.3 1.2-1.3.9 0 1.2.6 1.2 1.3zm-1.7 0c0 .5.2.8.5.8s.5-.3.5-.8-.2-.8-.5-.8c-.3.1-.5.4-.5.8zM390.5 125.3v-.8h.6v.3c.1-.2.3-.4.7-.4.5 0 .8.3.8.9v1.7h-.6v-1.5c0-.3-.1-.5-.4-.5-.3 0-.4.2-.4.6v1.4h-.7v-1.7zM393.2 126.2h.6v.8h-.6zM370 144.5c-.1.8-.6 1.5-1.8 1.5-1.4 0-2-1.1-2-2.4s.7-2.4 2-2.4c1.2 0 1.7.8 1.8 1.5h-.9c-.1-.4-.2-.8-.9-.8-.8 0-1 .8-1 1.6 0 .9.2 1.6 1 1.6.6 0 .8-.4.9-.8h.9v.2zM371.6 144.8l-.3 1.1h-.9c.1-.2 1.3-4.4 1.4-4.6h1.2l1.5 4.6h-1l-.3-1.1h-1.6zm1.3-.8c-.3-.9-.5-1.6-.6-2-.1.5-.3 1.2-.6 2h1.2zM375.9 144v1.9h-.9v-4.6h1.9c.9 0 1.5.4 1.5 1.2 0 .6-.3.9-.7 1.1.5.2.6.5.6 1.1v.1c0 .4 0 .8.1 1.1h-.9c-.1-.2-.1-.5-.1-1.1v-.1c0-.5-.2-.7-.8-.7h-.7zm0-.7h.7c.4 0 .8-.1.8-.6 0-.4-.3-.6-.7-.6h-.8v1.2zM379.2 141.3h1.6c1.4 0 2.2.9 2.2 2.2 0 1.5-.8 2.4-2.2 2.4h-1.6v-4.6zm.9 3.9h.6c.8 0 1.2-.6 1.2-1.6 0-.9-.4-1.5-1.2-1.5h-.6v3.1zM300.7 97.1h26v7.6h-26z"/><path fill="#C2AB1E" d="M301 97.4h25.3v6.9H301z"/><path fill="#656565" d="M438.4 99.7h8.2v2.4h-8.2z"/><path fill="#FF4E7B" d="M439.1 100.4h6.9v1h-6.9z"/><path fill="#9F9D8E" d="M81.5 2.3h1.2c.6 0 1.2.3 1.2 1s-.5 1.1-1.2 1.1h-.5v1.3h-.7V2.3zm.7 1.5h.4c.4 0 .6-.1.6-.5 0-.3-.2-.5-.6-.5h-.5v1h.1zM87.3 4c0 1-.5 1.7-1.5 1.7s-1.5-.8-1.5-1.7c0-.8.5-1.7 1.5-1.7s1.5.8 1.5 1.7zM85 3.9c0 .7.3 1.2.8 1.2.6 0 .8-.5.8-1.2 0-.6-.2-1.2-.8-1.2-.6.1-.8.6-.8 1.2zM88.3 5.6l-.8-3.3h.7c.2.8.4 1.9.4 2.6.1-.6.4-1.8.6-2.6h.6c.2.6.5 1.9.6 2.5.1-.7.4-2 .5-2.5h.7l-.8 3.3h-.7c-.2-.7-.4-1.8-.5-2.4-.1.7-.4 1.8-.6 2.4h-.7zM94.2 4.2h-1.5v.9h1.6l-.1.6H92V2.3h2.2v.6h-1.5v.8h1.5zM95.5 4.3v1.4h-.7V2.3h1.4c.6 0 1.1.3 1.1.9 0 .5-.2.7-.5.8.3.1.5.4.5.8v.9h-.7c0-.1-.1-.4-.1-.8v-.1c0-.4-.1-.5-.6-.5h-.4zm0-.6h.5c.3 0 .6-.1.6-.5 0-.3-.2-.4-.5-.4h-.6v.9z"/><path fill="#908A74" d="M218.6 37.8L210.7 25v189l7.9-31.4zM466.7 37.8l8-12.8v189l-8-31.4z"/><path fill="#A59F89" d="M466.7 37.8H218.6L210.7 25h264z"/><path fill="#0E0E0E" d="M291.5 25h166.2v12.8H291.5z"/><path fill="#070707" d="M291.5 37.8h166.2v41.7H291.5z"/><path fill="#A8A7A0" d="M366.6 79.5h16v1.3h-16z"/><path fill="#909293" d="M382.6 80.7h-16l-2.8 2.6h21.6z"/><path fill="#A1A4A7" d="M385.4 79.5v3.8l-2.8-2.6v-1.2zM363.8 79.5v3.8l2.8-2.6v-1.2z"/><path fill="#1E1E1E" d="M300.2 37.8H296v-8.5c0-.6.5-1 1-1h2.2c.6 0 1 .5 1 1v8.5z"/><path fill="#111" d="M300.2 37.8H296V77c0 .6.5 1 1 1h2.2c.6 0 1-.5 1-1V37.8z"/><path fill="#0E0E0E" d="M299.7 37.8h-3.3v-8.5c0-.3.3-.6.6-.6h2.2c.3 0 .6.3.6.6l-.1 8.5z"/><path fill="#070707" d="M299.7 37.8h-3.3V77c0 .3.3.6.6.6h2.2c.3 0 .6-.3.6-.6l-.1-39.2z"/><path fill="#1E1E1E" d="M449 37.8h4.2v-8.5c0-.6-.5-1-1-1H450c-.6 0-1 .5-1 1v8.5z"/><path fill="#111" d="M449 37.8h4.2V77c0 .6-.5 1-1 1H450c-.6 0-1-.5-1-1V37.8z"/><path fill="#0E0E0E" d="M449.5 37.8h3.3v-8.5c0-.3-.3-.6-.6-.6H450c-.3 0-.6.3-.6.6l.1 8.5z"/><path fill="#070707" d="M449.5 37.8h3.3V77c0 .3-.3.6-.6.6H450c-.3 0-.6-.3-.6-.6l.1-39.2z"/><path fill="#AFA795" d="M331.8 151.1h85.6l-4.1 7.5h-77.4z"/><path fill="#9B9483" d="M413.3 182.6v-24l4.1-7.5V214zM335.9 182.6v-24l-4.1-7.5V214z"/><path fill="#A59F89" d="M331.9 182.6H218.6l-7.9 31.4h121.2zM417.4 182.6h49.3l8 31.4h-57.3z"/><path fill="#9F9D8E" d="M119.7 2.3h1.2c1 0 1.6.6 1.6 1.6 0 1.1-.6 1.7-1.6 1.7h-1.1l-.1-3.3zm.7 2.8h.4c.6 0 .9-.4.9-1.2 0-.6-.3-1.1-.9-1.1h-.4v2.3zM125.7 4.6c-.1.6-.5 1.1-1.3 1.1-1.1 0-1.4-.8-1.4-1.7s.5-1.7 1.5-1.7c.9 0 1.2.6 1.3 1.1h-.8c-.1-.3-.2-.5-.6-.5-.6 0-.7.6-.7 1.2s.2 1.2.7 1.2c.4 0 .6-.3.6-.6l.7-.1zM127.5 2.3h.7v3.3h-.7zM128.9 5.6V2.3h.9c1 2 1.2 2.4 1.2 2.5V2.3h.6v3.3h-.8c-1.1-2.2-1.2-2.5-1.2-2.6v2.6h-.7zM132.3 2.3h1.2c.6 0 1.2.3 1.2 1s-.5 1.1-1.2 1.1h-.5v1.3h-.7V2.3zm.7 1.5h.4c.4 0 .6-.1.6-.5 0-.3-.2-.5-.6-.5h-.4v1zM135.9 2.3v2.1c0 .4.1.7.6.7s.6-.3.6-.7V2.3h.7v2.1c0 .7-.3 1.3-1.3 1.3s-1.3-.5-1.3-1.2V2.3h.7zM139.1 2.9h-.9v-.6h2.5v.6h-.9v2.8h-.7zM182.6 2.9h-.9v-.6h2.5v.6h-.9v2.8h-.7zM185.6 5.6l-1.1-3.3h.7l.4 1.5c.1.4.3.9.3 1.2.1-.3.2-.7.3-1.2l.5-1.5h.7l-1.1 3.3h-.7zM203.3 2.3h.7v1.3h1.2V2.3h.7v3.3h-.7V4.2H204v1.5h-.7zM206.6 2.3h.7v3.3h-.7zM207.7 4.1h1.3v.6h-1.3zM209.5 2.3h.7v2.8h1.5l-.1.6h-2.1zM214.9 4c0 1-.5 1.7-1.5 1.7s-1.5-.8-1.5-1.7c0-.8.5-1.7 1.5-1.7s1.5.8 1.5 1.7zm-2.3-.1c0 .7.3 1.2.8 1.2.6 0 .8-.5.8-1.2 0-.6-.2-1.2-.8-1.2-.6.1-.8.6-.8 1.2zM215.9 5.6l-.8-3.3h.7c.2.8.4 1.9.4 2.6.1-.6.4-1.8.6-2.6h.6c.2.6.5 1.9.6 2.5.1-.7.4-2 .5-2.5h.7l-.8 3.3h-.7c-.2-.7-.4-1.8-.5-2.4-.1.6-.4 1.7-.6 2.4h-.7zM237.7 4.2h-1.5v.9h1.6l-.1.6h-2.2V2.3h2.2v.6h-1.5v.8h1.5zM240.2 5.6l-.7-1.2-.7 1.2h-.7l1-1.7-1-1.7h.8l.6 1.1.6-1.1h.7l-1 1.6 1 1.7h-.6zM242 2.9h-.9v-.6h2.5v.6h-.9v2.8h-.7zM248.2 4c0 1-.5 1.7-1.5 1.7s-1.5-.8-1.5-1.7c0-.8.5-1.7 1.5-1.7s1.5.8 1.5 1.7zm-2.3-.1c0 .7.3 1.2.8 1.2.6 0 .8-.5.8-1.2 0-.6-.2-1.2-.8-1.2-.6.1-.8.6-.8 1.2zM249.4 2.3v2.1c0 .4.1.7.6.7s.6-.3.6-.7V2.3h.7v2.1c0 .7-.3 1.3-1.3 1.3s-1.3-.5-1.3-1.2V2.3h.7zM252.7 2.9h-.9v-.6h2.5v.6h-.9v2.8h-.7z"/><path fill="#AFAFA8" d="M24.3 196.5V24.8h9.2c.2 0 .3.1.3.3v171.1c0 .2-.1.3-.3.3h-9.2zM500.6 196.5V24.8h-9.2c-.2 0-.3.1-.3.3v171.1c0 .2.1.3.3.3h9.2z"/><path fill="#1E1E1A" d="M33.8 110.7v83.5c0 1.3-1 2-2.3 2l-7.5.3V24.8l7.5.3c1.3 0 2.3.7 2.3 2v83.6z"/><path fill="#161614" d="M14.6 199h9.3c.1 0 .2-.1.2-.2V22.6c0-.1-.1-.2-.2-.2h-9.3V199z"/><path fill="#D8D2C7" d="M4.6 199h10V22.4h-10c-1.3 0-2.4 1.1-2.4 2.4v171.8c0 1.3 1.1 2.4 2.4 2.4z"/><path fill="#101012" d="M2.2 184H.8c-.4 0-.7-.3-.7-.7v-41.8c0-.4.3-.6.6-.6h1.4V184h.1zM2.1 99.2H.2c-.1 0-.2-.1-.2-.2V79.3c0-.1.1-.2.2-.2h1.9v20.1zM2.2 62.8H.3c-.1 0-.2-.1-.2-.2V42.9c0-.1.1-.2.2-.2h1.9v20.1z"/><path fill="#BCBCB3" d="M373.3 158.6h2.6v55.3h-2.6zM356.3 158.6h2.6v55.3h-2.6zM390.3 158.6h2.6v55.3h-2.6z"/></svg>