<svg viewBox="0 0 274.7 115" xmlns="http://www.w3.org/2000/svg"><path d="m257.2 115h-239.7c-9.6 0-17.5-7.9-17.5-17.5v-80c0-9.6 7.9-17.5 17.5-17.5h239.7c9.6 0 17.5 7.9 17.5 17.5v80c0 9.6-7.9 17.5-17.5 17.5z" fill="#ebeae9"/><path d="m274.7 19.3h-274.7v-1.8c0-9.6 7.9-17.5 17.5-17.5h239.7c9.6 0 17.5 7.9 17.5 17.5zm0 74.1h-10.6l-6.2 10.3h-105.6l-14-10.3h-138.3v4.1c0 9.6 7.9 17.5 17.5 17.5h239.7c9.6 0 17.5-7.9 17.5-17.5z" fill="#d8d2c7"/><path d="m152.3 102.4-14-9 14 10.3h105.6l6.2-10.3-6.1 9z" fill="#70706e"/><path d="m256.4 100.7h-103.3l-13.5-8.9h-82.7v-71.1h199.6c.5 0 .8.4.8.8v78.3c0 .5-.4.9-.9.9z" fill="#94a079"/><path d="m99.8 26.7h150.3v22.7h-150.3z" fill="#0c0c0c"/><g fill="#0058a2"><path d="m101.7 86.3h5.3c2.2 0 3.9-1.8 3.9-3.9 0-2.2-1.8-3.9-3.9-3.9h-1.4c-.1 0-.2-.1-.2-.2s.1-.2.2-.2h5.3v-1.7h-5.3c-1 0-1.9.8-1.9 1.9 0 1 .8 1.9 1.9 1.9h1.4c1.2 0 2.2 1 2.3 2.2 0 1.2-1 2.2-2.3 2.2h-5.3z"/><path d="m101.7 84.2h5.3c1 0 1.8-.9 1.8-1.9s-.8-1.8-1.8-1.8h-1.4c-1.2 0-2.2-1-2.2-2.2 0-1.2 1-2.2 2.2-2.2h5.3v-1.7h-5.3c-2.2 0-3.9 1.8-3.9 3.9 0 2.2 1.8 3.9 3.9 3.9h1.4c.1 0 .2.1.2.2s-.1.2-.2.2h-5.3zm13.4.4c-.9 0-1.7-.7-1.7-1.7v-5.3c0-.9.8-1.6 1.7-1.6h5.7v-1.7h-5.7c-1.8 0-3.3 1.5-3.3 3.3v5.4c0 1.8 1.5 3.3 3.3 3.3h5.6v-1.7z"/><path d="m113.8 77.7c0-.7.6-1.3 1.3-1.3h5.7v1.7h-4.9c-.4 0-.4.4-.4.4h4.1v1.7h-5.7c-.1-.1-.1-2.5-.1-2.5zm1.3 6.5c-.7 0-1.3-.6-1.3-1.3v-2.4h5.7v1.7h-4.1c0 .4.4.4.4.4h4.9v1.7z"/><path d="m124.7 84.6c-.9 0-1.7-.7-1.7-1.7v-5.3c0-.9.7-1.7 1.7-1.7h5.5v-1.7h-5.5c-1.8 0-3.3 1.5-3.3 3.3v5.5c0 1.8 1.5 3.3 3.3 3.3h5.5v-7.8h-4.7v1.7h3v4.5z"/><path d="m123.4 83c0 .7.6 1.3 1.3 1.3h3.4v-3.7h-2.7v1.7h1v.4h-1c-.2 0-.4-.2-.4-.4v-3.7s0-.4.4-.4h4.7v-1.7h-5.5c-.7 0-1.3.6-1.3 1.3z"/><path d="m135.4 76.4c.1-.3.4-.4.7-.3.2.1.3.2.3.3l2.7 7.9h-3.9v-1.9h1.3l-.6-1.7-1.9 5.6h-2s3.4-9.9 3.4-9.9z"/><path d="m139.6 84.6h-4.4v1.7h6.7l-3.5-10.4c-.3-1-1.3-1.8-2.5-1.8s-2.2.7-2.5 1.8l-3.5 10.4h1.8l3.4-10.1c-.2-.5 0-1 .5-1.2s1 0 1.2.5c.1.2.1.5 0 .7z"/></g><circle cx="171" cy="75.2" fill="#cfceca" r="17.9"/><circle cx="171" cy="75.2" fill="#0e0906" r="16.5"/><circle cx="171" cy="75.2" fill="#3c3c3c" r="15.6"/><circle cx="227.7" cy="75.2" fill="#cfceca" r="17.9"/><circle cx="227.7" cy="75.2" fill="#0e0906" r="16.5"/><circle cx="227.7" cy="75.2" fill="#3c3c3c" r="15.6"/><path d="m103.4 56.2.3-2.1c.1-.6.3-.9.6-.9h5.9l-.2 1.3h-5.2l-.2 1.3h4.6c.4 0 .6.3.5.9l-.3 2.1c-.1.6-.3.9-.7.9h-5.9l.2-1.3h5.2l.2-1.3h-4.6c-.3 0-.4-.3-.4-.9zm6.5 2.6.2-1.3h1.2l-.1.9h2.9l.6-3.8h-1.2l.2-1.3h3.2l-.2 1.3h-.7l-.7 4.3c-.1.6-.3.9-.6.9h-4.4c-.4-.1-.5-.4-.4-1zm6.9-3h3.7l-.2 1.3h-3.7zm4.4-1.3.2-1.3h2.2c.3 0 .4.3.4.9l-.7 4.3h1.4l-.2 1.3h-4l.2-1.3h1.4l.6-3.8c0-.1-1.5-.1-1.5-.1zm4.7-1.2h6.4l-.2 1.3h-5.2l-.2 1.3h4.6c.4 0 .6.3.5.9l-.3 2.1c-.1.6-.3.9-.7.9h-5.9l.2-1.3h5.2l.2-1.3h-5.1zm6.3 3.4c.1-.6.4-.9.7-.9h4.6l.2-1.3h-5.1l.2-1.3h5.9c.3 0 .5.3.4.8l-.3 2.2c-.1.6-.3.9-.6.9h-4.7l-.2 1.3h5.2l-.2 1.3h-6c-.3 0-.4-.3-.3-.9z" fill="#f5dece"/><path d="m111.2 42.1.6-2.3h3.6l-.3 1.5h9l1.8-6.8h-3.6l.5-2.3h9.7l-.5 2.3h-2.3l-2 7.6c-.3 1-1 1.5-1.9 1.5h-13.5c-1 .1-1.4-.5-1.1-1.5zm20.3 0 2.2-8.3c.2-1 .9-1.5 1.9-1.5h16.4c1 0 1.4.5 1.2 1.5l-2.2 8.4c-.3 1-1 1.5-2 1.5h-16.5c-1 0-1.3-.6-1-1.6zm5.7-7.5-1.8 6.8h12l1.8-6.8zm25.3 4.5-7.5-6.8h4.5l4.9 4.4 7.1-4.4h6l-10.5 6.8-1.1 4.5h-4.5zm16.5-6.8h18c1 0 1.4.5 1.2 1.5l-.9 3.9c-.3 1-.9 1.5-1.7 1.5h-13.6l.5-2.3h11.2l.6-2.3h-12l-2.4 9.1h-3.9s3-11.4 3-11.4zm17.2 11.4 9-11.4h4.5l6.7 11.4h-4.4l-1.5-2.3h-7.5l1.5-2.3h4.5l-2.2-3.8-6.7 8.3zm24-11.4h17.2c1.5 0 2.1.8 1.7 2.3l-1.7 6.8c-.5 1.5-1.5 2.3-3 2.3h-17.2zm3.2 2.3-1.8 6.8h12l1.8-6.8z" fill="#eedfc3"/><path d="m83.2 91.8h-52.6c-4.8 0-8.8-3.9-8.8-8.8v-53.5c0-4.8 3.9-8.8 8.8-8.8h52.6c4.8 0 8.8 3.9 8.8 8.8v53.5c0 4.9-4 8.8-8.8 8.8zm-52.6-69.1c-3.8 0-6.8 3.1-6.8 6.8v53.5c0 3.8 3.1 6.8 6.8 6.8h52.6c3.8 0 6.8-3.1 6.8-6.8v-53.5c0-3.8-3.1-6.8-6.8-6.8z" fill="#cfceca"/><path d="m83.2 90.3h-52.6c-4 0-7.3-3.3-7.3-7.3v-53.5c0-4 3.3-7.3 7.3-7.3h52.6c4 0 7.3 3.3 7.3 7.3v53.5c0 4.1-3.3 7.3-7.3 7.3zm-52-67.5c-3.4 0-6.2 2.9-6.2 6.4v54c0 3.5 2.8 6.4 6.2 6.4h51.4c3.4 0 6.2-2.9 6.2-6.4v-54c0-3.5-2.8-6.4-6.2-6.4z" fill="#101012"/><path d="m31.2 22.8c-3.4 0-6.2 2.9-6.2 6.4v54c0 3.5 2.8 6.4 6.2 6.4h51.4c3.4 0 6.2-2.9 6.2-6.4v-54c0-3.5-2.8-6.4-6.2-6.4z" fill="#363437"/><circle cx="56.9" cy="56.3" fill="#050505" r="13.9"/><circle cx="56.9" cy="56.3" fill="#1e1e20" r="13.5"/><path d="m39.8 42.5-6-6 8.3 3.7z" fill="#212023"/><path d="m39.8 42.5-6-6 3.7 8.3z" fill="#121113"/><path d="m55.7 40.3c-.5 0-.9-.4-.9-.9v-12c0-.5.4-.9.9-.9h2.4c.5 0 .9.4.9.9v12c0 .5-.4.9-.9.9z" fill="#050505"/><path d="m58.2 40.1h-2.4c-.4 0-.8-.3-.8-.8v-12c0-.4.3-.8.8-.8h2.4c.4 0 .8.3.8.8v12c-.1.5-.4.8-.8.8z" fill="#252627"/><path d="m43.2 73.4-6 6 3.7-8.3z" fill="#212023"/><path d="m43.2 73.4-6 6 8.3-3.7z" fill="#121113"/><path d="m40.9 57.4c0 .5-.4.9-.9.9h-12c-.5 0-.9-.4-.9-.9v-2.4c0-.5.4-.9.9-.9h12c.5 0 .9.4.9.9z" fill="#050505"/><path d="m40.8 55v2.4c0 .4-.3.7-.8.8h-12c-.4 0-.8-.3-.8-.8v-2.4c0-.4.3-.8.8-.8h12c.4.1.8.4.8.8z" fill="#252627"/><path d="m74.1 70 6 6-8.3-3.7z" fill="#212023"/><path d="m74.1 70 6 6-3.7-8.3z" fill="#121113"/><path d="m58.1 72.3c.5 0 .9.4.9.9v12c0 .5-.4.9-.9.9h-2.4c-.5 0-.9-.4-.9-.9v-12c0-.5.4-.9.9-.9z" fill="#050505"/><path d="m55.7 72.4h2.4c.4 0 .8.3.8.8v12c0 .4-.3.7-.8.8h-2.4c-.4 0-.8-.3-.8-.8v-12c0-.5.4-.8.8-.8z" fill="#252627"/><path d="m70.6 39.1 6-6-3.7 8.3z" fill="#212023"/><path d="m70.6 39.1 6-6-8.3 3.7z" fill="#121113"/><path d="m72.9 55.1c0-.5.4-.9.9-.9h12c.5 0 .9.4.9.9v2.4c0 .5-.4.9-.9.9h-12c-.5 0-.9-.4-.9-.9z" fill="#050505"/><path d="m73.1 57.5v-2.4c0-.4.3-.8.8-.8h12c.4 0 .8.3.8.8v2.4c0 .4-.3.7-.8.8h-12c-.5 0-.8-.4-.8-.8z" fill="#252627"/></svg>