<svg xmlns="http://www.w3.org/2000/svg" xmlns:xlink="http://www.w3.org/1999/xlink" viewBox="0 0 884.903 479.333"><g fill="#0e080c"><path d="M294.25 7.167h-4.5V.354c0-.195.159-.354.354-.354h3.792c.195 0 .354.159.354.354v6.813zM302.813 7.167h-4.5V.354c0-.195.159-.354.354-.354h3.792c.195 0 .354.159.354.354v6.813zM311.375 7.167h-4.5V.354c0-.195.159-.354.354-.354h3.792c.195 0 .354.159.354.354v6.813zM319.938 7.167h-4.5V.354c0-.195.159-.354.354-.354h3.792c.195 0 .354.159.354.354v6.813zM328.5 7.167H324V.354c0-.195.159-.354.354-.354h3.792c.195 0 .354.159.354.354v6.813zM337.063 7.167h-4.5V.354c0-.195.159-.354.354-.354h3.792c.195 0 .354.159.354.354v6.813zM345.625 7.167h-4.5V.354c0-.195.159-.354.354-.354h3.792c.195 0 .354.159.354.354v6.813zM354.188 7.167h-4.5V.354c0-.195.159-.354.354-.354h3.792c.195 0 .354.159.354.354v6.813zM362.75 7.167h-4.5V.354c0-.195.159-.354.354-.354h3.792c.195 0 .354.159.354.354v6.813zM371.313 7.167h-4.5V.354c0-.195.159-.354.354-.354h3.792c.195 0 .354.159.354.354v6.813zM379.875 7.167h-4.5V.354c0-.195.159-.354.354-.354h3.792c.195 0 .354.159.354.354v6.813zM388.438 7.167h-4.5V.354c0-.195.159-.354.354-.354h3.792c.195 0 .354.159.354.354v6.813zM397 7.167h-4.5V.354c0-.195.159-.354.354-.354h3.792c.195 0 .354.159.354.354v6.813zM405.563 7.167h-4.5V.354c0-.195.159-.354.354-.354h3.792c.195 0 .354.159.354.354v6.813zM414.125 7.167h-4.5V.354c0-.195.159-.354.354-.354h3.792c.195 0 .354.159.354.354v6.813zM422.688 7.167h-4.5V.354c0-.195.159-.354.354-.354h3.792c.195 0 .354.159.354.354v6.813zM431.25 7.167h-4.5V.354c0-.195.159-.354.354-.354h3.792c.195 0 .354.159.354.354v6.813zM439.813 7.167h-4.5V.354c0-.195.159-.354.354-.354h3.792c.195 0 .354.159.354.354v6.813zM448.375 7.167h-4.5V.354c0-.195.159-.354.354-.354h3.792c.195 0 .354.159.354.354v6.813zM456.938 7.167h-4.5V.354c0-.195.159-.354.354-.354h3.792c.195 0 .354.159.354.354v6.813zM465.5 7.167H461V.354c0-.195.159-.354.354-.354h3.792c.195 0 .354.159.354.354v6.813zM281.188 7.167h4.5V.354a.355.355 0 0 0-.354-.354h-3.792a.355.355 0 0 0-.354.354v6.813zM272.625 7.167h4.5V.354a.355.355 0 0 0-.354-.354h-3.792a.355.355 0 0 0-.354.354v6.813zM264.063 7.167h4.5V.354a.355.355 0 0 0-.354-.354h-3.792a.355.355 0 0 0-.354.354v6.813zM255.5 7.167h4.5V.354a.355.355 0 0 0-.354-.354h-3.792a.355.355 0 0 0-.354.354v6.813zM246.938 7.167h4.5V.354a.355.355 0 0 0-.354-.354h-3.792a.355.355 0 0 0-.354.354v6.813zM238.375 7.167h4.5V.354a.355.355 0 0 0-.354-.354h-3.792a.355.355 0 0 0-.354.354v6.813zM229.813 7.167h4.5V.354a.355.355 0 0 0-.354-.354h-3.792a.355.355 0 0 0-.354.354v6.813zM221.25 7.167h4.5V.354a.355.355 0 0 0-.354-.354h-3.792a.355.355 0 0 0-.354.354v6.813zM212.688 7.167h4.5V.354a.355.355 0 0 0-.354-.354h-3.792a.355.355 0 0 0-.354.354v6.813zM204.125 7.167h4.5V.354a.355.355 0 0 0-.354-.354h-3.792a.355.355 0 0 0-.354.354v6.813zM195.563 7.167h4.5V.354a.355.355 0 0 0-.354-.354h-3.792a.355.355 0 0 0-.354.354v6.813zM187 7.167h4.5V.354a.355.355 0 0 0-.354-.354h-3.792a.355.355 0 0 0-.354.354v6.813zM178.438 7.167h4.5V.354a.355.355 0 0 0-.354-.354h-3.792a.355.355 0 0 0-.354.354v6.813zM169.875 7.167h4.5V.354a.355.355 0 0 0-.354-.354h-3.792a.355.355 0 0 0-.354.354v6.813zM161.313 7.167h4.5V.354a.355.355 0 0 0-.354-.354h-3.792a.355.355 0 0 0-.354.354v6.813zM152.75 7.167h4.5V.354a.355.355 0 0 0-.354-.354h-3.792a.355.355 0 0 0-.354.354v6.813zM144.188 7.167h4.5V.354a.355.355 0 0 0-.354-.354h-3.792a.355.355 0 0 0-.354.354v6.813zM135.625 7.167h4.5V.354a.355.355 0 0 0-.354-.354h-3.792a.355.355 0 0 0-.354.354v6.813zM127.063 7.167h4.5V.354a.355.355 0 0 0-.354-.354h-3.792a.355.355 0 0 0-.354.354v6.813zM118.5 7.167h4.5V.354a.355.355 0 0 0-.354-.354h-3.792a.355.355 0 0 0-.354.354v6.813z"/></g><path d="M0 441.198c0 20.975 17.161 38.135 38.135 38.135h507.729c20.974 0 38.135-17.161 38.135-38.135V46.667C584 21 563 0 537.333 0h-66.937a.396.396 0 0 0-.396.396v6.375a.396.396 0 0 1-.396.396H114.405a.405.405 0 0 1-.405-.405V.402a.402.402 0 0 0-.402-.402H46.667C21 0 0 21 0 46.667v394.531z" fill="#141312"/><path d="M8.253 427.198c0 20.975 16.676 38.135 37.057 38.135h493.378c20.382 0 37.057-17.161 37.057-38.135V56.12c0-24.275-20.406-44.137-45.348-44.137H53.601c-24.941 0-45.348 19.862-45.348 44.137v371.078z" fill="#1c1a19"/><ellipse cx="100.438" cy="471.896" rx="12.812" ry="2.375" fill="#f9673d"/><path d="M488.087 390.493H95.913c-8.019 0-14.58-6.561-14.58-14.58V11.983h421.333v363.93c.001 8.019-6.56 14.58-14.579 14.58z" fill="#232221"/><path d="M502.667 11.983v363.93c0 8.019-6.561 14.58-14.58 14.58H95.913c-8.019 0-14.58-6.561-14.58-14.58V11.983" fill="none" stroke="#0a090a" stroke-width="2" stroke-miterlimit="10"/><path d="M91.167 370.436V31.333a5.5 5.5 0 0 1 5.5-5.5h390.667a5.5 5.5 0 0 1 5.5 5.5v339.103c0 5.532-4.526 10.057-10.057 10.057H101.224c-5.532 0-10.057-4.525-10.057-10.057z" fill="#1e1c1b"/><path d="M262 229.333v-47a6.5 6.5 0 0 1 6.5-6.5h47a6.5 6.5 0 0 1 6.5 6.5v47a6.5 6.5 0 0 1-6.5 6.5h-47a6.5 6.5 0 0 1-6.5-6.5z" fill="#343538"/><path d="M268.5 231.833a2.503 2.503 0 0 1-2.5-2.5v-47c0-1.379 1.122-2.5 2.5-2.5h47c1.378 0 2.5 1.121 2.5 2.5v47c0 1.379-1.122 2.5-2.5 2.5h-47z" fill="#bfb59a"/><path d="M270.369 218.867l.906 3.35h-.341l-.253-1.008h-.98l-.26 1.008h-.315l.902-3.35h.341zm.215 1.967l-.386-1.563h-.006l-.393 1.563h.785zM272.297 218.867c.357 0 .632.132.825.394.193.263.289.664.289 1.202 0 .28-.022.53-.065.747a1.715 1.715 0 0 1-.201.55.94.94 0 0 1-.348.339 1.005 1.005 0 0 1-.5.118h-.795v-3.35h.795zm.026 2.975a.585.585 0 0 0 .296-.068.695.695 0 0 0 .173-.128.808.808 0 0 0 .154-.23c.045-.098.083-.218.112-.365.029-.145.044-.32.044-.527 0-.2-.014-.379-.041-.537-.027-.158-.071-.293-.133-.404s-.141-.195-.238-.253a.706.706 0 0 0-.36-.088h-.519v2.6h.512zM274.348 222.217l-.815-3.35h.331l.662 2.905h.006l.668-2.905h.322l-.825 3.35h-.349zM276.59 218.867l.906 3.35h-.341l-.253-1.008h-.98l-.26 1.008h-.315l.902-3.35h.341zm.215 1.967l-.386-1.563h-.006l-.393 1.563h.785zM278.048 218.867l1.22 2.716h.006v-2.716h.292v3.35h-.338l-1.21-2.688h-.006v2.688h-.292v-3.35h.328zM281.467 219.341a.571.571 0 0 0-.42-.178.57.57 0 0 0-.356.112.86.86 0 0 0-.243.303 1.603 1.603 0 0 0-.141.434c-.03.162-.046.332-.046.507 0 .191.016.371.046.542.03.171.077.319.141.445a.864.864 0 0 0 .245.303c.1.075.219.112.357.112a.514.514 0 0 0 .272-.072.682.682 0 0 0 .205-.203c.057-.086.102-.188.135-.307.032-.118.052-.247.057-.385h.307c-.029.422-.129.751-.302.985a.815.815 0 0 1-.7.352c-.18 0-.336-.045-.47-.134s-.246-.211-.334-.368a1.907 1.907 0 0 1-.2-.555 3.307 3.307 0 0 1-.067-.684c0-.244.024-.474.072-.688.047-.214.117-.401.209-.56.092-.159.207-.286.344-.378a.826.826 0 0 1 .472-.138.853.853 0 0 1 .633.275c.085.091.155.204.211.34.056.136.093.293.111.471h-.309c-.036-.234-.112-.412-.229-.531zM284.009 218.867v.375h-1.291v1.066h1.204v.375h-1.204v1.159h1.302v.375h-1.61v-3.35h1.599zM285.187 218.867c.356 0 .631.132.823.394.192.263.29.664.29 1.202 0 .28-.023.53-.066.747a1.647 1.647 0 0 1-.201.55.95.95 0 0 1-.346.339 1.005 1.005 0 0 1-.5.118h-.796v-3.35h.796zm.026 2.975a1 1 0 0 0 .129-.011.56.56 0 0 0 .165-.057.698.698 0 0 0 .328-.358c.046-.098.083-.218.112-.365.03-.145.045-.32.045-.527 0-.2-.014-.379-.04-.537-.027-.158-.072-.293-.134-.404s-.141-.195-.238-.253a.704.704 0 0 0-.361-.088h-.519v2.6h.513z" fill="#232226"/><g><path d="M282.676 213.451l1.106 2.717h.006v-2.717h.264v3.35h-.305l-1.098-2.688h-.006v2.688h-.264v-3.35h.297zM285.956 213.451v.375h-1.171v1.066h1.092v.375h-1.092v1.159h1.179v.375h-1.458v-3.35h1.45zM286.249 214.467c.042-.211.105-.398.19-.56.085-.162.19-.293.315-.389a.69.69 0 0 1 .438-.145c.167 0 .313.047.438.145.125.096.23.227.315.389.085.162.148.349.19.56a3.45 3.45 0 0 1 0 1.318 2.038 2.038 0 0 1-.19.56c-.085.162-.19.292-.315.388a.705.705 0 0 1-.438.142.703.703 0 0 1-.438-.142 1.158 1.158 0 0 1-.315-.388 2.072 2.072 0 0 1-.19-.56 3.296 3.296 0 0 1-.063-.659c0-.228.02-.448.063-.659zm.257 1.159c.027.164.07.312.129.444a.889.889 0 0 0 .227.316.488.488 0 0 0 .329.119c.128 0 .237-.04.329-.119a.901.901 0 0 0 .227-.316c.059-.132.102-.28.129-.444a3.067 3.067 0 0 0 0-1 1.76 1.76 0 0 0-.129-.442.896.896 0 0 0-.227-.317.488.488 0 0 0-.329-.119.488.488 0 0 0-.329.119.884.884 0 0 0-.227.317 1.786 1.786 0 0 0-.129.442 3.076 3.076 0 0 0 0 1z" fill="#232226"/></g><g><path d="M291.769 216.761a.673.673 0 0 1-.368.115.688.688 0 0 1-.421-.138 1.154 1.154 0 0 1-.315-.373 2.029 2.029 0 0 1-.197-.539 2.933 2.933 0 0 1-.068-.634c0-.244.022-.477.063-.697a2.22 2.22 0 0 1 .188-.58 1.16 1.16 0 0 1 .312-.396.687.687 0 0 1 .437-.147c.113 0 .221.02.322.063a.743.743 0 0 1 .271.198c.079.092.145.207.2.346.053.138.091.306.111.504h-.28a1.28 1.28 0 0 0-.076-.332.727.727 0 0 0-.138-.227.559.559 0 0 0-.41-.179.472.472 0 0 0-.328.122.879.879 0 0 0-.224.32 1.945 1.945 0 0 0-.128.455c-.027.171-.04.345-.04.523 0 .175.014.343.046.506.032.161.078.303.138.427a.868.868 0 0 0 .226.294.465.465 0 0 0 .31.111.506.506 0 0 0 .292-.085.72.72 0 0 0 .213-.231 1.2 1.2 0 0 0 .131-.348c.03-.132.043-.276.039-.43h-.671v-.375h.921v1.764h-.177l-.073-.418a.837.837 0 0 1-.306.381zM294.187 213.451v.375h-1.171v1.066h1.092v.375h-1.092v1.159h1.179v.375h-1.458v-3.35h1.45zM294.479 214.467c.042-.211.105-.398.19-.56.085-.162.19-.293.315-.389a.69.69 0 0 1 .438-.145c.167 0 .313.047.438.145.125.096.23.227.315.389.085.162.148.349.19.56a3.45 3.45 0 0 1 0 1.318 2.038 2.038 0 0 1-.19.56c-.085.162-.19.292-.315.388a.705.705 0 0 1-.438.142.703.703 0 0 1-.438-.142 1.158 1.158 0 0 1-.315-.388 2.072 2.072 0 0 1-.19-.56 3.296 3.296 0 0 1-.063-.659c0-.228.02-.448.063-.659zm.257 1.159c.027.164.07.312.129.444a.889.889 0 0 0 .227.316.488.488 0 0 0 .329.119c.128 0 .237-.04.329-.119a.901.901 0 0 0 .227-.316c.059-.132.102-.28.129-.444a3.067 3.067 0 0 0 0-1 1.76 1.76 0 0 0-.129-.442.896.896 0 0 0-.227-.317.488.488 0 0 0-.329-.119.488.488 0 0 0-.329.119.884.884 0 0 0-.227.317 1.786 1.786 0 0 0-.129.442 3.076 3.076 0 0 0 0 1z" fill="#232226"/></g><g><path d="M298.961 213.925a.494.494 0 0 0-.381-.178.484.484 0 0 0-.322.112c-.089.075-.164.177-.221.303s-.101.271-.128.434a3.47 3.47 0 0 0 0 1.049c.027.171.07.319.128.445s.132.228.223.303c.09.075.198.112.323.112a.433.433 0 0 0 .246-.072c.072-.049.134-.116.185-.203s.092-.188.122-.307c.029-.118.047-.247.053-.385h.279c-.027.422-.118.751-.273.985a.72.72 0 0 1-.635.352.7.7 0 0 1-.427-.134 1.014 1.014 0 0 1-.303-.368 2.033 2.033 0 0 1-.181-.555 3.705 3.705 0 0 1-.06-.684c0-.244.022-.474.065-.688s.106-.401.19-.56.187-.286.312-.378a.702.702 0 0 1 .428-.138c.109 0 .214.023.312.07.098.046.185.115.261.205s.141.204.191.34c.052.136.085.293.101.471h-.28c-.033-.233-.102-.412-.208-.531zM300.535 213.451c.323 0 .573.132.747.394.175.263.261.664.261 1.202 0 .28-.019.53-.059.747a1.794 1.794 0 0 1-.181.55.902.902 0 0 1-.316.339.835.835 0 0 1-.453.118h-.72v-3.35h.721zm.025 2.975a.497.497 0 0 0 .267-.068.636.636 0 0 0 .157-.128.816.816 0 0 0 .141-.23c.04-.098.075-.218.101-.365.027-.145.04-.32.04-.527 0-.2-.013-.379-.037-.537s-.065-.293-.121-.404c-.056-.111-.128-.195-.215-.253s-.197-.088-.326-.088h-.471v2.6h.464z" fill="#232226"/></g><g><path d="M289.553 218.867v.375h-1.345v1.066h1.253v.375h-1.253v1.159h1.355v.375h-1.675v-3.35h1.665zM290.288 218.867l1.27 2.716h.006v-2.716h.305v3.35h-.351l-1.26-2.688h-.007v2.688h-.303v-3.35h.34zM292.131 219.242v-.375h1.926v.375h-.803v2.975h-.32v-2.975h-.803zM295.99 218.867v.375h-1.345v1.066h1.253v.375h-1.253v1.159H296v.375h-1.675v-3.35h1.665zM297.521 218.867c.23 0 .408.079.539.234.129.157.194.371.194.644 0 .203-.033.381-.101.534a.553.553 0 0 1-.319.315v.01c.07.019.126.049.171.093a.466.466 0 0 1 .105.157.883.883 0 0 1 .057.204c.012.076.022.154.029.236l.01.249a2.297 2.297 0 0 0 .056.48.644.644 0 0 0 .075.195h-.358a.35.35 0 0 1-.045-.141 1.866 1.866 0 0 1-.016-.2l-.007-.237a3.666 3.666 0 0 0-.053-.48.656.656 0 0 0-.065-.192.37.37 0 0 0-.115-.132.324.324 0 0 0-.188-.049h-.784v1.431h-.32v-3.35h1.135zm.068 1.52a.408.408 0 0 0 .299-.274.821.821 0 0 0 .045-.297.758.758 0 0 0-.101-.414c-.068-.106-.177-.159-.328-.159h-.797v1.169h.669a.986.986 0 0 0 .213-.025zM298.383 219.242v-.375h1.926v.375h-.803v2.975h-.32v-2.975h-.803zM301.275 218.867l.941 3.35h-.353l-.264-1.008h-1.019l-.27 1.008h-.328l.938-3.35h.355zm.223 1.967l-.402-1.563h-.006l-.409 1.563h.817zM302.788 218.867v3.35h-.32v-3.35h.32zM303.664 218.867l1.27 2.716h.006v-2.716h.305v3.35h-.351l-1.26-2.688h-.007v2.688h-.303v-3.35h.34zM306.21 218.867l.76 2.816.763-2.816h.44v3.35h-.305v-2.787h-.007l-.753 2.787h-.273l-.753-2.787h-.007v2.787h-.303v-3.35h.438zM310.368 218.867v.375h-1.345v1.066h1.253v.375h-1.253v1.159h1.355v.375h-1.675v-3.35h1.665zM311.104 218.867l1.27 2.716h.006v-2.716h.305v3.35h-.351l-1.26-2.688h-.007v2.688h-.303v-3.35h.34zM312.947 219.242v-.375h1.926v.375h-.803v2.975h-.32v-2.975h-.803z" fill="#232226"/></g><g><path d="M286.29 224.933a.545.545 0 0 0-.409-.162.753.753 0 0 0-.2.027.455.455 0 0 0-.174.095.467.467 0 0 0-.121.175.688.688 0 0 0-.046.274c0 .103.022.187.066.251a.493.493 0 0 0 .175.157c.073.042.155.075.249.102.092.026.185.055.282.086.095.032.19.068.282.111a.788.788 0 0 1 .424.442c.043.111.066.247.066.414 0 .178-.029.33-.086.457a.857.857 0 0 1-.523.484 1.082 1.082 0 0 1-.717-.017.862.862 0 0 1-.316-.213c-.092-.096-.164-.218-.217-.366s-.079-.325-.079-.529h.303a1 1 0 0 0 .06.365.723.723 0 0 0 .155.25.59.59 0 0 0 .224.147c.085.03.172.046.263.046a.91.91 0 0 0 .218-.027.495.495 0 0 0 .339-.281.723.723 0 0 0 .053-.3.545.545 0 0 0-.065-.282.544.544 0 0 0-.177-.177 1.076 1.076 0 0 0-.247-.111 12.673 12.673 0 0 1-.282-.086 3.54 3.54 0 0 1-.283-.103.888.888 0 0 1-.247-.155.693.693 0 0 1-.177-.249.978.978 0 0 1-.065-.382c0-.168.024-.315.073-.438a.82.82 0 0 1 .478-.484.973.973 0 0 1 .667.003.74.74 0 0 1 .279.192.96.96 0 0 1 .188.33c.046.134.072.292.076.477h-.303c-.016-.241-.078-.415-.186-.523zM288.267 227.825h-.32v-1.37l-.931-1.98h.381l.723 1.596.705-1.596h.365l-.922 1.98v1.37zM290.665 224.933a.545.545 0 0 0-.409-.162.753.753 0 0 0-.2.027.455.455 0 0 0-.174.095.467.467 0 0 0-.121.175.688.688 0 0 0-.046.274c0 .103.022.187.066.251a.493.493 0 0 0 .175.157c.073.042.155.075.249.102.092.026.185.055.282.086.095.032.19.068.282.111a.788.788 0 0 1 .424.442c.043.111.066.247.066.414 0 .178-.029.33-.086.457a.857.857 0 0 1-.523.484 1.082 1.082 0 0 1-.717-.017.862.862 0 0 1-.316-.213c-.092-.096-.164-.218-.217-.366s-.079-.325-.079-.529h.303a1 1 0 0 0 .06.365.723.723 0 0 0 .155.25.59.59 0 0 0 .224.147c.085.03.172.046.263.046a.91.91 0 0 0 .218-.027.495.495 0 0 0 .339-.281.723.723 0 0 0 .053-.3.545.545 0 0 0-.065-.282.544.544 0 0 0-.177-.177 1.076 1.076 0 0 0-.247-.111 12.673 12.673 0 0 1-.282-.086 3.54 3.54 0 0 1-.283-.103.888.888 0 0 1-.247-.155.693.693 0 0 1-.177-.249.978.978 0 0 1-.065-.382c0-.168.024-.315.073-.438a.82.82 0 0 1 .478-.484.973.973 0 0 1 .667.003.74.74 0 0 1 .279.192.96.96 0 0 1 .188.33c.046.134.072.292.076.477h-.303c-.017-.241-.079-.415-.186-.523zM291.39 224.85v-.375h1.926v.375h-.803v2.975h-.32v-2.975h-.803zM295.247 224.475v.375h-1.345v1.066h1.253v.375h-1.253v1.159h1.355v.375h-1.675v-3.35h1.665zM296.091 224.475l.76 2.816.763-2.816h.44v3.35h-.305v-2.787h-.007l-.753 2.787h-.273l-.753-2.787h-.007v2.787h-.303v-3.35h.438z" fill="#232226"/></g><g><circle cx="289.317" cy="215.052" r=".369" fill="#232226"/></g><g><path d="M289.051 202.165c-.17.466-.311.943-.462 1.416-.392 1.233-1.245 1.96-2.499 2.194-.923.172-1.852.214-2.79-.248.355.552.759.945 1.344 1.12.681.204 1.376.177 2.073.112.423-.04.84-.104 1.183-.382 1.67-1.353 2.036-2.957 1.534-5.014-.144.297-.288.54-.383.802zM284.465 198.095c.189.009.313.003.433.023.157.027.257-.019.334-.161.113-.208.239-.409.368-.607.117-.18.126-.348.006-.532-.159-.243-.324-.485-.451-.744-.133-.272-.327-.323-.615-.339-.391-.022-.644.086-.816.442-.112.232-.382.433-.392.656-.011.233.223.469.317.717.157.417.395.676.816.545zM281.162 198.904c-.638-.4-1.268.001-1.393.679-.006.031.007.08.03.101.291.268.609.487.968.526.16-.001.757-.458.79-.567.004-.014.008-.033.002-.044-.128-.237-.197-.57-.397-.695z" fill="#232226"/><path d="M307.672 195.64c-1.879-1.892-3.764-3.78-5.653-5.662a.497.497 0 0 0-.316-.129c-2.652-.01-5.303-.011-7.955-.019a.49.49 0 0 0-.38.159c-1.59 1.596-3.185 3.187-4.777 4.782-.064.065-.108.15-.161.225l-6.497-6.476c-.036.032-.078.065-.115.102-1.833 1.831-3.666 3.661-5.493 5.496a.461.461 0 0 0-.117.298c-.009 3.027-.013 6.054-.009 9.081a.52.52 0 0 0 .137.335c2.123 2.136 4.254 4.265 6.38 6.398a.459.459 0 0 0 .357.153l9.035.007a.51.51 0 0 0 .397-.171c1.607-1.612 3.218-3.22 4.828-4.829.058-.058.118-.112.143-.135l4.643 4.533c-.017.013.003.002.018-.014 1.854-1.852 3.71-3.703 5.559-5.56a.437.437 0 0 0 .1-.282c.006-2.659.008-5.319.002-7.978a.493.493 0 0 0-.126-.314zm-13.375-.008c.01-.072.105-.134.161-.2.004-.004.015-.003.022-.004l1.023-.239c.412.263.825.524 1.234.791.041.027.057.093.062.102-.06.584-.111 1.117-.175 1.648a.267.267 0 0 1-.137.176c-.322.139-.649.268-.98.387a.273.273 0 0 1-.222-.037c-.363-.281-.72-.569-1.07-.866-.056-.047-.092-.156-.085-.231.047-.513.093-.964.167-1.527zm2.552 9.231c-1.562 1.56-3.122 3.121-4.69 4.675a.53.53 0 0 1-.336.135c-2.813.007-5.626.003-8.439.007a.46.46 0 0 1-.359-.151c-1.99-1.998-3.986-3.992-5.974-5.993a.53.53 0 0 1-.138-.334 1836.04 1836.04 0 0 1 0-8.462c0-.102.038-.233.107-.302 1.599-1.609 3.205-3.211 4.81-4.815.032-.032.068-.059.092-.081l5.955 5.938c-.363.206-.262.555-.263.873-.004 1.295-.003 2.591-.003 3.886 0 .053.006.106.011.186h.251c1.556.001 3.112.004 4.668 0 .158 0 .266.046.38.158 1.372 1.349 2.75 2.691 4.137 4.046-.111.126-.157.182-.209.234zm2.72-10.826c-.023.053-.08.091-.121.137-.523.58-.523.58-1.272.379-.042-.011-.114-.031-.117-.054-.029-.232-.11-.482-.053-.693.081-.301.266-.575.419-.887.042.007.102.017.161.029.75.15.753.149 1.02.871.023.06-.008.15-.037.218zm5.044 7.889c-.018.068-.105.144-.175.167-.27.084-.543.165-.821.214-.18.032-.233.127-.263.285-.089.466-.189.93-.283 1.394-.02.101-.038.178-.175.195-.623.077-1.243.173-1.866.251-.069.009-.162-.036-.218-.085a9.835 9.835 0 0 1-.583-.554.517.517 0 0 1-.123-.235c-.118-.53-.227-1.061-.346-1.622.569-.275 1.124-.548 1.683-.812.127-.06.182-.142.228-.28.233-.69.128-1.374.004-2.061-.014-.075-.023-.151-.032-.227-.005-.045-.005-.09-.009-.161l2.526-.567.382 1.633c.038.164.053.337.114.491.268.667.132 1.321-.043 1.974z" fill="#232226"/></g><g><path d="M751.157 294.148c-28.409 0-51.438 23.03-51.438 51.438 0 28.409 23.03 51.438 51.438 51.438s51.438-23.03 51.438-51.438-23.03-51.438-51.438-51.438zm0 67.857c-9.067 0-16.418-7.351-16.418-16.418s7.351-16.418 16.418-16.418 16.418 7.351 16.418 16.418-7.351 16.418-16.418 16.418z" fill="#e8e8e8"/><path d="M751.157 211.84c-73.866 0-133.747 59.88-133.747 133.747s59.88 133.747 133.747 133.747 133.747-59.88 133.747-133.747S825.023 211.84 751.157 211.84zm0 185.185c-28.409 0-51.438-23.03-51.438-51.438 0-28.409 23.03-51.438 51.438-51.438s51.438 23.03 51.438 51.438-23.03 51.438-51.438 51.438z" fill="#171717"/><path d="M751.157 299.186c25.585 0 46.4 20.815 46.4 46.4 0 25.585-20.815 46.4-46.4 46.4-25.585 0-46.4-20.815-46.4-46.4-.001-25.585 20.814-46.4 46.4-46.4m0-5.038c-28.409 0-51.438 23.03-51.438 51.438 0 28.409 23.03 51.438 51.438 51.438 28.409 0 51.438-23.03 51.438-51.438s-23.03-51.438-51.438-51.438z" fill="#ababab"/><path d="M751.157 304.296c22.768 0 41.291 18.523 41.291 41.291 0 22.768-18.523 41.291-41.291 41.291s-41.291-18.523-41.291-41.291c0-22.768 18.523-41.291 41.291-41.291m0-.144c-22.884 0-41.435 18.551-41.435 41.435 0 22.884 18.551 41.435 41.435 41.435s41.435-18.551 41.435-41.435c-.001-22.884-18.552-41.435-41.435-41.435z" fill="#4a4a4a"/><path d="M751.157 329.226c9.021 0 16.361 7.34 16.361 16.361s-7.339 16.361-16.361 16.361-16.361-7.339-16.361-16.361 7.339-16.361 16.361-16.361m0-.057c-9.067 0-16.418 7.351-16.418 16.418s7.351 16.418 16.418 16.418 16.418-7.351 16.418-16.418c0-9.068-7.351-16.418-16.418-16.418z"/><path d="M751.157 214.378c35.047 0 67.996 13.648 92.778 38.43 24.782 24.782 38.43 57.731 38.43 92.778s-13.648 67.996-38.43 92.778c-24.782 24.782-57.731 38.43-92.778 38.43-35.047 0-67.996-13.648-92.778-38.43-24.782-24.782-38.43-57.731-38.43-92.778s13.648-67.996 38.43-92.778c24.781-24.782 57.731-38.43 92.778-38.43m0-2.538c-73.866 0-133.747 59.88-133.747 133.747s59.88 133.747 133.747 133.747 133.747-59.88 133.747-133.747S825.023 211.84 751.157 211.84z" fill="#ababab"/><defs><path id="a" d="M751.157 214.503c-72.395 0-131.083 58.688-131.083 131.083S678.761 476.67 751.157 476.67 882.24 417.982 882.24 345.587s-58.688-131.084-131.083-131.084zm0 182.522c-28.409 0-51.438-23.03-51.438-51.438 0-28.409 23.03-51.438 51.438-51.438 28.409 0 51.438 23.03 51.438 51.438s-23.03 51.438-51.438 51.438z"/></defs><clipPath id="b"><use xlink:href="#a" overflow="visible"/></clipPath><g clip-path="url(#b)"><path d="M786.934 213.761c.069 0 .058.095.074.141-3.113 1.885-6.563 3.429-8.846 6.138.852.911 1.73 1.793 2.64 2.63-2.882 2.688-5.985 5.139-8.772 7.894 3.849.59 7.473 1.389 11.328 1.968-6.522 4.396-13.337 8.377-20.022 12.574-6.685 4.191-13.368 8.377-20.022 12.575h44.64c.053.305-.348.373-.51.504-15.431 11.603-31.518 23.056-46.975 34.701-.358 3.56.914 8.016-.953 10.298 4.744 2.503 11.792 1.158 16.73-.069 5.228-1.299 10.566-3.004 17.024-2.555.206.278-.304.457-.436.589-1.447 1.297-3.151 2.887-4.602 4.228.431 2.003 3.271 1.214 5.185 1.461-1.257.988-2.724 1.756-4.091 2.624 1.351 1.878 5.233.664 7.673 1.031.142.233-.389.39-.657.59-13.731 9.845-27.694 19.837-41.58 29.657-4.712 3.333-9.334 6.81-14.094 9.934.778-38.919 1.766-77.616 2.555-116.528 22.474-5.559 41.56-14.505 63.711-20.385zM699.189 244.007c2.009-.621 4.139-1.758 6.28-2.482v2.482c1.998-.926 4.286-2.578 6.284-3.508v100.24c-.362.141-.588-.28-.804-.438-18.124-12.784-32.934-29.325-52.013-41.206-6.964 16.298-13.927 32.592-20.827 48.948a9887.533 9887.533 0 0 1 3.441-76.275c.041-.884-.043-1.951.136-2.414.163-.388.884-.662 1.394-1.015 3.225-2.236 5.827-5.548 8.547-7.967 12.106 9.135 24.003 18.469 36.099 27.621 4.723-16.435 8.062-34.265 10.15-53.338.204 3.25 2.176 5.749 1.313 9.352z" fill-rule="evenodd" clip-rule="evenodd" fill="#3b3b3b"/><path d="M803.301 245.174c12.938 3.387 25.654 6.974 38.571 10.382.005.073.094.062.147.073 7.184 10.623 15.493 19.974 22.215 31.272 3.255 5.469 6.279 11.391 8.104 18.627 1.278 5.05 1.929 11.844 1.099 18.04-.116.874-.31 1.852-.511 2.856-.184.882-.216 2.13-.588 2.771-.284.48-1.231 1.032-1.752 1.457-6.421 5.254-9.646 13.774-14.321 21.041-1.656 2.588-3.613 5.202-5.843 6.943-2.661 2.072-5.943 3.093-9.866 2.125-1.651-.411-3.141-1.042-4.597-1.831-.726-.39-1.368-.82-2.119-1.094-7.19-2.557-12.149-6.943-16.661-12.207-7.873-9.166-13.217-20.937-19.796-31.561-1.661-2.671-3.708-5.123-4.823-8.037-3.482-9.046-7.126-18.638-10.739-27.758.653-1.519 1.747-2.792 2.63-4.17 4.386-6.821 8.967-13.679 13.369-20.601 1.762-2.763 3.734-5.804 5.481-8.328zm26.443 28.862c-1.799 1.609-3.829 3.535-4.086 6.501-.058.61-.147 1.519.068 2.26.4 1.378 2.313 2.705 3.949 2.852.752.073 1.515-.212 2.335-.137.595.041 1.378.484 2.193.21 1.178-.378 1.683-2.099 1.683-3.796-.005-.517-.221-1.115-.147-1.683.11-.847.873-1.872.516-3.062-.321-1.05-1.678-1.746-2.64-2.124-1.294-.517-2.345-.61-3.65-1.169-.084.038-.168.075-.221.148zm-25.202 19.511c.074.674.537 1.673 1.461 1.893.684.17 2.009.064 2.851 0 1.231-.083 2.457-.494 3.14-1.019.389-.305 1.126-1.156 1.236-1.756.473-2.489-1.893-2.242-3.645-2.925-.589-.222-.909-.61-1.393-.579-1.599.117-3.881 2.41-3.65 4.386zm45.513 29.589c-.653 1.316-1.347 3.004-2.114 4.019-3.808 4.969-12.286 6.289-20.68 5.911 3.34 1.605 6.301 3.512 10.592 3.882 4.497.378 8.315-1.673 10.818-3.587 5.464-4.183 7.568-12.066 7.379-21.699-.011-.044-.017-.085-.074-.075-1.866 3.892-4.048 7.763-5.921 11.549zM778.161 403.57c-14.494-.672-29.277-1.698-43.83-2.555 6.911 16.998 14.316 34.143 21.332 51.288h-5.26v2.997c0 1.032-.221 2.366 0 2.987.179.494.794.347.946.805-1.83-.72-3.539-1.567-4.528-3.134-1.941 1.287-.71 5.127-1.089 7.599-.184.116-.415-.39-.589-.662-11.95-18.934-24.056-38.199-36.015-57.137 17.86-24.676 35.899-49.183 53.843-73.786 11.434 8.257 22.652 16.744 34.048 25.066-2.277-.801-3.854 1.187-4.754 2.696 1.147 3.724 4.975 4.76 6.285 8.332-.878.573-1.857.731-2.925.504-1.835-.374-4.391-2.709-5.48-.648-.158.295-.478 1.063-.442 1.453.079.735 1.236 1.447 1.826 2.051.715.704 1.409 1.399 1.688 1.82a4927.988 4927.988 0 0 1-36.387-13.513c6.921 14.506 14.232 29.27 21.331 43.837z" fill-rule="evenodd" clip-rule="evenodd" fill="#3b3b3b"/><path d="M712.779 378.515c-3.986-1.331-7.105-3.734-10.229-5.995-3.081-2.229-6.2-4.512-9.577-6.574-4.607-2.829-10.771-6.175-18.549-5.623-2.298.154-4.77.531-6.579 1.457-1.473.758-2.813 2.198-3.945 3.429-3.486 3.834-6.08 8.668-6.868 15.125-1.13 9.341 1.956 17.45 5.044 23.893 3.145 6.563 7.484 12.164 12.348 17.025 4.902 4.901 10.772 8.981 17.318 12.053-2.035-9.2-.242-22.231-9.282-24.551-2.908-.745-6.81-.336-10.807-.44-.137-.328.616-.706 1.015-.936 1.325-.805 3.177-1.384 3.949-2.715-2.051-1.241-4.149-2.429-6.211-3.649 3.266-1.289 4.833-4.272 7.304-6.354-1.209-.816-2.697-1.735-3.58-2.63 8.761-2.04 17.392-4.197 26.159-6.221 3.76 28.825 7.631 57.55 11.465 86.288a165.03 165.03 0 0 1-32.433-17.672c-9.735-6.835-18.665-14.704-25.497-24.628-5.112-7.41-9.351-15.709-10.961-26.67-.547-3.68-.294-7.763-.294-12.19 0-14.326 2.209-26.986 7.599-36.32.763-1.314 1.478-2.746 2.409-3.792.7-.789 1.741-1.509 2.635-2.267 4.344-3.68 8.777-7.458 14.609-9.855 2.262-.946 4.922-1.841 7.669-2.051a23.326 23.326 0 0 1 15.199 4.087c11.349 7.957 13.285 25.417 20.09 37.776z" fill-rule="evenodd" clip-rule="evenodd" fill="#3b3b3b"/><g fill="#a8a8a8"><path d="M650.671 366.058l1.08 2.88 1.085-2.88h.624v3.428h-.432v-2.853h-.01l-1.07 2.853h-.39l-1.07-2.853h-.01v2.853h-.431v-3.428h.624zM655.559 366.058l1.34 3.428h-.504l-.374-1.033h-1.45l-.384 1.033h-.466l1.336-3.428h.502zm.318 2.012l-.572-1.599h-.009l-.581 1.599h1.162zM658.316 366.058c.527 0 .934.134 1.219.402.285.269.427.68.427 1.229 0 .288-.032.545-.096.765a1.439 1.439 0 0 1-.298.563 1.31 1.31 0 0 1-.514.348 2.06 2.06 0 0 1-.739.12h-1.177v-3.428h1.178zm.037 3.045c.051 0 .116-.005.193-.012a1.107 1.107 0 0 0 .502-.19.873.873 0 0 0 .228-.236c.068-.098.122-.223.166-.372.043-.149.064-.329.064-.539 0-.205-.02-.389-.06-.55a1.028 1.028 0 0 0-.197-.414.876.876 0 0 0-.353-.259 1.391 1.391 0 0 0-.533-.089h-.769v2.661h.759zM662.79 366.058v.384h-1.911v1.091h1.782v.384h-1.782v1.187h1.925v.384h-2.382v-3.428h2.368zM664.976 366.058v3.428h-.456v-3.428h.456zM666.127 366.058l1.806 2.779h.009v-2.779h.432v3.428h-.499l-1.791-2.752h-.009v2.752h-.432v-3.428h.484zM671.949 368.973a.777.777 0 0 1-.48.512c-.13.051-.291.079-.483.079-.32 0-.567-.084-.74-.252-.173-.17-.259-.416-.259-.743v-.211h.456v.144c0 .099.008.19.024.274a.581.581 0 0 0 .084.216c.04.062.097.108.169.142.072.034.164.05.276.05.208 0 .351-.055.43-.168.079-.111.118-.262.118-.45v-2.507H672v2.574c0 .114-.016.229-.051.34zM674.089 366.058l1.34 3.428h-.504l-.374-1.033h-1.45l-.384 1.033h-.466l1.336-3.428h.502zm.317 2.012l-.572-1.599h-.009l-.581 1.599h1.162zM677.172 366.058c.346 0 .607.089.785.265.177.178.266.428.266.747 0 .32-.089.57-.266.75-.178.18-.439.267-.785.264h-1.047v1.402h-.456v-3.428h1.503zm-.154 1.643c.259.003.45-.05.569-.159.12-.108.18-.265.18-.471 0-.204-.06-.36-.18-.467-.12-.108-.31-.161-.569-.161h-.893v1.259h.893zM679.764 366.058l1.34 3.428h-.504l-.374-1.033h-1.45l-.384 1.033h-.466l1.336-3.428h.502zm.318 2.012l-.572-1.599h-.009l-.581 1.599h1.162zM681.824 366.058l1.806 2.779h.009v-2.779h.432v3.428h-.499l-1.791-2.752h-.009v2.752h-.432v-3.428h.484zM655.545 372.286l1.539 4.115h-.939l-.311-.916h-1.539l-.323.916h-.91l1.556-4.115h.927zm.052 2.524l-.519-1.509h-.011l-.536 1.509h1.066zM659.101 372.286c.265 0 .512.043.741.127.229.086.426.212.593.38.168.17.298.382.392.635s.141.551.141.892c0 .3-.039.577-.116.83a1.825 1.825 0 0 1-.348.656c-.156.185-.349.33-.582.435a1.962 1.962 0 0 1-.821.159h-1.775v-4.115h1.775zm-.063 3.355c.131 0 .258-.021.38-.063a.848.848 0 0 0 .329-.211c.096-.098.173-.226.23-.384.058-.158.086-.349.086-.575 0-.207-.02-.396-.06-.562a1.11 1.11 0 0 0-.2-.43.869.869 0 0 0-.366-.274 1.47 1.47 0 0 0-.562-.094h-.646v2.592h.809zM664.12 373.384a.949.949 0 0 0-.202-.228.958.958 0 0 0-.593-.207c-.204 0-.377.039-.519.118a.982.982 0 0 0-.345.317 1.381 1.381 0 0 0-.193.454 2.25 2.25 0 0 0-.061.524c0 .173.021.341.061.503.04.164.104.31.193.442.088.13.203.235.345.313.142.079.315.118.519.118.277 0 .492-.084.648-.253s.251-.392.285-.668h.876c-.023.257-.082.49-.178.697s-.223.384-.38.529a1.61 1.61 0 0 1-.554.336 2.067 2.067 0 0 1-.697.115c-.315 0-.598-.055-.85-.164s-.463-.26-.636-.452a1.995 1.995 0 0 1-.398-.678 2.483 2.483 0 0 1-.138-.837c0-.308.046-.592.138-.856.092-.264.225-.493.398-.688.173-.197.384-.349.636-.461s.535-.168.85-.168c.227 0 .441.033.642.098.202.065.383.161.542.286.159.125.291.279.395.464.104.183.17.396.196.634h-.876a.743.743 0 0 0-.104-.288zM667.41 372.286c.265 0 .512.043.741.127.229.086.426.212.593.38.168.17.298.382.392.635s.141.551.141.892c0 .3-.039.577-.116.83a1.825 1.825 0 0 1-.348.656c-.156.185-.349.33-.582.435a1.962 1.962 0 0 1-.821.159h-1.775v-4.115h1.775zm-.063 3.355c.131 0 .258-.021.38-.063a.848.848 0 0 0 .329-.211c.096-.098.173-.226.23-.384.058-.158.086-.349.086-.575 0-.207-.02-.396-.06-.562a1.123 1.123 0 0 0-.199-.43.869.869 0 0 0-.366-.274 1.47 1.47 0 0 0-.562-.094h-.646v2.592h.808zM671.432 374.476v.704h-1.735v-.704h1.735zM671.861 373.379c.079-.267.186-.481.32-.642.134-.161.291-.277.469-.346.179-.07.368-.104.568-.104.204 0 .395.034.574.104.179.069.336.185.473.346.136.161.244.375.323.642.079.267.118.596.118.988 0 .404-.039.741-.118 1.012a1.75 1.75 0 0 1-.323.647 1.174 1.174 0 0 1-.473.346 1.56 1.56 0 0 1-.574.104c-.2 0-.389-.034-.568-.104a1.149 1.149 0 0 1-.469-.346 1.787 1.787 0 0 1-.32-.647c-.079-.271-.118-.608-.118-1.012 0-.392.039-.721.118-.988zm.712 1.405c.008.163.033.32.073.473.04.152.104.281.193.389.088.108.215.161.38.161.169 0 .299-.053.39-.161a.984.984 0 0 0 .195-.389c.041-.152.064-.31.073-.473a10.088 10.088 0 0 0 .008-.668 2.883 2.883 0 0 0-.081-.611.973.973 0 0 0-.112-.274.61.61 0 0 0-.19-.195.508.508 0 0 0-.283-.075.498.498 0 0 0-.279.075.617.617 0 0 0-.185.195 1.07 1.07 0 0 0-.112.274 2.141 2.141 0 0 0-.057.308 3.591 3.591 0 0 0-.021.303l-.003.25c-.001.115.003.256.011.418zM674.949 373.379c.079-.267.186-.481.32-.642.134-.161.291-.277.469-.346.179-.07.368-.104.568-.104.204 0 .395.034.574.104.179.069.336.185.473.346.136.161.244.375.323.642.079.267.118.596.118.988 0 .404-.039.741-.118 1.012a1.75 1.75 0 0 1-.323.647 1.174 1.174 0 0 1-.473.346 1.56 1.56 0 0 1-.574.104c-.199 0-.389-.034-.568-.104a1.149 1.149 0 0 1-.469-.346 1.787 1.787 0 0 1-.32-.647c-.079-.271-.118-.608-.118-1.012 0-.392.04-.721.118-.988zm.712 1.405c.008.163.033.32.073.473.04.152.104.281.193.389.088.108.215.161.38.161.17 0 .299-.053.39-.161a.984.984 0 0 0 .195-.389c.041-.152.064-.31.073-.473a10.088 10.088 0 0 0 .008-.668 2.883 2.883 0 0 0-.081-.611.973.973 0 0 0-.112-.274.61.61 0 0 0-.19-.195.508.508 0 0 0-.283-.075.498.498 0 0 0-.279.075.617.617 0 0 0-.185.195 1.07 1.07 0 0 0-.112.274 2.012 2.012 0 0 0-.057.308 3.591 3.591 0 0 0-.021.303l-.003.25c0 .115.003.256.011.418zM679.394 373.998c.1-.009.193-.031.28-.067s.158-.089.213-.158a.431.431 0 0 0 .083-.277c0-.173-.057-.305-.173-.397a.618.618 0 0 0-.397-.139c-.207 0-.364.068-.47.204a.8.8 0 0 0-.152.517h-.777c.007-.207.044-.397.112-.568.067-.171.161-.317.283-.44a1.24 1.24 0 0 1 .435-.286c.169-.067.357-.101.564-.101.162 0 .323.024.485.072.161.048.306.122.435.217.128.096.233.212.314.351a.94.94 0 0 1 .121.478c0 .197-.047.37-.141.519a.706.706 0 0 1-.424.305v.012c.223.05.398.158.525.324.127.164.19.363.19.592 0 .212-.041.399-.124.565a1.233 1.233 0 0 1-.331.414 1.44 1.44 0 0 1-.478.253 1.839 1.839 0 0 1-.565.087c-.227 0-.433-.033-.619-.098a1.322 1.322 0 0 1-.476-.286 1.263 1.263 0 0 1-.302-.459 1.628 1.628 0 0 1-.101-.622h.778c.003.108.021.211.051.308a.744.744 0 0 0 .133.253c.057.072.13.128.216.17a.684.684 0 0 0 .309.063c.184 0 .34-.057.467-.17s.19-.267.19-.464c0-.152-.03-.271-.09-.351a.518.518 0 0 0-.227-.176.972.972 0 0 0-.303-.063 6.978 6.978 0 0 0-.314-.009v-.575c.087.009.181.009.28.002z"/></g><path d="M812.21 370.621h51.219c-1.225 16.088-2.366 32.191-3.582 48.517-.047.563.037 1.314-.074 1.598-.126.332-1.072.837-1.672 1.252-13.075 8.952-21.584 22.741-33.102 33.24-5.974 5.447-12.737 10.617-22.498 12.053-3.408.494-7.311.409-10.745-.222-9.551-1.766-16.719-6.372-17.897-16.659-1.147-9.972 2.598-19.671 1.168-29.663-.115-.768-.568-1.719-.516-2.335.063-.673 1.815-2.493 2.262-3.07a15379.078 15379.078 0 0 1 30.546-38.572c1.635-2.062 3.176-4.182 4.891-6.139zm17.239 24.109c.684-.978 1.515-2.404 1.541-3.724.026-1.331-.631-2.802-1.099-3.581-1.93-3.219-6.816-3.251-11.465-2.715-1.346 4.197-4.408 11.929.069 14.768 4.485-.73 8.782-1.577 10.954-4.748zm17.903 13.29c.789-3.03-1.767-5.133-4.818-4.818-2.409.247-4.88 2.298-4.312 4.975.484 2.25 3.05 4.911 6.285 3.859.693-1.434 2.425-2.386 2.845-4.016zm-57.788 20.61c-.579.863-1.505 2.657-1.536 3.792-.048 1.735.946 3.94 1.972 5.27 2.709 3.514 7.768 4.471 11.323 6.785.694.463 1.273 1.208 2.047 1.619 1.435.752 3.576 1.036 5.411 1.094 6.458.179 10.992-2.534 14.904-4.828-2.02-3.923-1.525-10.36-5.19-12.633-.752.484-1.236.915-1.973 1.304-6.563 3.493-14.988-1.492-15.856-7.582h-.142c-4.618.82-8.698 1.797-10.96 5.179z" fill-rule="evenodd" clip-rule="evenodd" fill="#3b3b3b"/></g><g><path d="M648.978 352.971c.044.055.093.107.173.198v-1.903c0-.187.007-.375-.009-.562-.039-.447-.173-.582-.616-.66-.054-.01-.104-.048-.155-.073l.027-.063h6.076v1.592c-.065-.04-.119-.06-.152-.098-.026-.031-.027-.084-.039-.127-.179-.696-.489-.98-1.193-1.042-.332-.029-.669-.005-1.009-.005v2.129c.513.042.812-.14.975-.606.056-.161.074-.335.121-.5.015-.055.064-.101.098-.151l.057.033v2.757l-.062.031c-.034-.058-.081-.113-.101-.176-.051-.163-.078-.335-.137-.494-.16-.431-.483-.608-.945-.567 0 .645-.012 1.295.013 1.943.004.095.171.252.277.264 1.15.133 1.928-.142 2.303-1.213.022-.062.082-.11.125-.165l.06.038-.234 1.651h-4.574l-.021-.058c.049-.023.098-.062.149-.066.502-.039.594-.127.595-.634.004-1.289.002-2.577-.001-3.866-.001-.351-.127-.485-.472-.529-.588-.076-.86.172-.866.813-.008.884-.002 1.768-.002 2.652v1.872c-.106-.078-.185-.114-.234-.174-1.084-1.338-2.166-2.678-3.248-4.018-.06-.074-.122-.146-.208-.247-.006.097-.013.159-.013.222v3.057c0 .619.105.74.723.854.038.007.069.055.153.125h-1.952v-.135c.56.009.761-.182.777-.737.002-.067.001-.135.001-.202 0-1.1-.007-2.199.006-3.299a.748.748 0 0 0-.221-.556c-.156-.169-.354-.21-.562-.241v-.135c.554.001 1.109.009 1.663-.001a.39.39 0 0 1 .355.17M658.238 347.749a.45.45 0 0 1-.349-.149c-2.078-2.085-4.16-4.166-6.236-6.254a.509.509 0 0 1-.133-.328c-.004-2.959-.001-5.918.008-8.877 0-.098.046-.223.114-.291 1.786-1.794 3.578-3.583 5.37-5.373.036-.036.077-.068.112-.099l6.35 6.33c.052-.074.095-.157.158-.22 1.556-1.559 3.115-3.114 4.67-4.674a.479.479 0 0 1 .371-.156c2.592.008 5.184.009 7.775.019a.48.48 0 0 1 .309.126c1.847 1.84 3.689 3.685 5.526 5.534a.484.484 0 0 1 .124.308c.006 2.599.004 5.199-.002 7.798a.425.425 0 0 1-.098.276c-1.808 1.815-3.621 3.625-5.433 5.435-.015.015-.035.026-.018.014l-4.538-4.431c-.024.023-.083.076-.14.132-1.574 1.573-3.148 3.144-4.719 4.72a.497.497 0 0 1-.388.167M660.718 352.549c-.004 1.795-1.405 2.986-3.239 2.753-1.15-.146-1.991-.853-2.289-1.925-.324-1.165.038-2.317.944-3.025.625-.488 1.347-.579 2.103-.516 1.502.126 2.484 1.204 2.481 2.713zm-4.22 0c.019.675.046 1.351.425 1.946a1.152 1.152 0 0 0 1.942.032 2.17 2.17 0 0 0 .271-.586c.224-.761.22-1.541.099-2.314a3.277 3.277 0 0 0-.341-1.007c-.232-.437-.73-.614-1.215-.515-.485.099-.751.433-.929.859-.213.507-.236 1.046-.252 1.585zM676.364 349.813c1.369.017 2.449.859 2.682 2.101.264 1.409-.396 2.749-1.609 3.215-1.134.435-2.951.303-3.712-1.344-.727-1.573.065-3.418 1.66-3.863.101-.028.203-.055.307-.065.223-.022.448-.031.672-.044zm1.33 2.688c-.013-.218-.02-.48-.047-.741-.042-.405-.135-.796-.359-1.144a1.153 1.153 0 0 0-1.224-.512c-.523.107-.797.478-.962.941-.221.616-.237 1.259-.204 1.906.026.497.101.982.338 1.428.148.28.354.499.668.596.632.195 1.182-.054 1.483-.676.268-.555.29-1.153.307-1.798zM666.732 354.862c0-.392.002-.788-.001-1.185-.003-.386-.133-.518-.521-.55-.058-.005-.113-.038-.169-.058l.02-.069h2.55l.035.044c-.042.03-.081.079-.127.088-.427.088-.489.155-.498.598-.006.329.005.659-.009.988-.003.074-.065.184-.128.21-.927.382-1.89.526-2.877.328-1.296-.26-2.167-1.29-2.192-2.538-.027-1.348.811-2.494 2.08-2.82.689-.177 1.377-.166 2.051.089.126.048.252.093.379.136.26.087.355.044.493-.197.032-.056.095-.093.143-.139.019.065.054.13.055.196.004.552.003 1.104.003 1.656l-.069.037c-.046-.061-.106-.117-.135-.185-.197-.476-.485-.874-.937-1.14-1.009-.594-2.12-.18-2.459.933a4.502 4.502 0 0 0-.033 2.546c.291 1.06 1.333 1.517 2.346 1.032z" fill="#828282"/><path d="M670.462 352.683c0 .631-.001 1.244.001 1.857.001.198.096.337.298.359.526.057 1.048.05 1.529-.213.405-.222.618-.593.773-1.01.023-.061.081-.109.123-.163l.061.038-.234 1.651c-.068.004-.133.012-.198.012h-4.178c-.037 0-.078.008-.112-.003-.035-.011-.063-.042-.094-.064.029-.025.055-.065.088-.072.644-.125.646-.124.646-.789 0-1.22 0-2.441-.003-3.661-.001-.424-.132-.555-.557-.588-.063-.005-.124-.034-.185-.053l.019-.075h4.412v1.59c-.065-.047-.109-.078-.151-.112-.01-.008-.011-.027-.014-.042-.16-.81-.601-1.131-1.494-1.133h-.726v2.133c.444.066.768-.1.933-.505.072-.178.098-.374.153-.559.019-.066.061-.125.092-.188l.069.027v2.753l-.045.037c-.039-.049-.095-.093-.113-.15-.055-.17-.076-.351-.143-.515-.182-.442-.417-.576-.95-.562zM684.301 355.111v-.518h.305c.325-.005.366-.042.367-.361.003-.712.001-1.423.001-2.135 0-.457.004-.914-.002-1.371-.006-.424-.025-.438-.474-.427v1.549h-.519c-.051-.154-.095-.318-.159-.475-.228-.562-.725-.902-1.281-.884-.548.018-1.008.376-1.203.952-.25.737-.217 1.478.027 2.205.275.816 1.187 1.109 1.973.635.221-.133.41-.324.597-.505.156-.15.287-.325.466-.531 0 .379.004.716-.005 1.054-.001.047-.064.096-.105.137-.89.898-1.956.997-3.094.635-.936-.298-1.492-.981-1.688-1.928-.371-1.791 1.076-3.479 2.905-3.385.381.02.756.156 1.133.243.106.024.208.064.334.103l.09-.384c1.157.027 2.321-.003 3.474.096 1.132.096 1.954.983 2.124 2.11.095.629.048 1.239-.224 1.821-.398.85-1.121 1.284-2.005 1.35-1.003.071-2.017.014-3.037.014zm.189-5.101l.022.056c.044.003.088.008.131.01.405.013.526.112.53.52.012 1.235.013 2.471.006 3.706-.002.381-.119.478-.503.505-.062.004-.122.035-.184.054l.016.072c.448 0 .896.006 1.343-.001.501-.008 1.008.015 1.501-.052.938-.127 1.647-.6 1.913-1.553.1-.36.127-.754.111-1.13-.037-.87-.644-2.052-1.906-2.169-.951-.088-1.913-.058-2.87-.077-.035 0-.073.038-.11.059zm-.314 3.871c-.232.19-.444.403-.691.561-.81.515-1.869.292-2.223-.498-.409-.911-.441-1.864-.041-2.788.393-.907 1.528-1.158 2.305-.546.287.226.458.526.567.868.021.066.07.124.106.185l.057-.03v-1.673a.217.217 0 0 0-.147.127c-.081.192-.217.258-.414.191a17.117 17.117 0 0 1-.38-.134 2.949 2.949 0 0 0-1.366-.163c-1.423.168-2.514 1.627-2.248 3.022.175.919.678 1.585 1.579 1.868.967.304 1.902.264 2.72-.451a.504.504 0 0 0 .176-.539zM661.787 351.687a.756.756 0 1 1-.005 1.512.752.752 0 0 1-.761-.772.744.744 0 0 1 .766-.74z" fill="#828282"/><path d="M657.115 327.377l5.821 5.805c-.354.201-.256.543-.257.853-.004 1.266-.003 2.532-.003 3.798 0 .052.006.103.01.182h.246c1.521.001 3.042.004 4.563 0 .154 0 .26.045.372.154 1.341 1.318 2.688 2.631 4.044 3.955-.11.122-.155.177-.206.227-1.526 1.525-3.052 3.051-4.584 4.57a.519.519 0 0 1-.328.132c-2.749.006-5.499.003-8.248.006a.452.452 0 0 1-.351-.147c-1.946-1.953-3.896-3.902-5.839-5.858a.507.507 0 0 1-.134-.327 1754.09 1754.09 0 0 1 0-8.271c0-.1.037-.227.104-.295 1.563-1.573 3.133-3.139 4.702-4.706.029-.03.065-.057.088-.078zm7.341 11.554c-.14.29-.281.528-.374.784-.166.456-.305.921-.452 1.384-.384 1.206-1.217 1.916-2.442 2.145-.902.168-1.81.209-2.727-.242.346.54.742.924 1.314 1.095.666.199 1.345.173 2.026.109.414-.039.822-.102 1.156-.373 1.632-1.324 1.99-2.892 1.499-4.902zm-4.857-3.195c.185.009.306.003.423.023.153.026.251-.018.327-.157.111-.203.234-.4.36-.594.114-.176.123-.341.005-.52-.155-.237-.317-.474-.441-.728-.13-.266-.32-.316-.601-.331-.382-.021-.63.084-.798.433-.11.227-.373.423-.383.641-.011.228.218.459.309.701.155.407.388.66.799.532zm-3.615 2.068c.156-.001.74-.448.772-.554.004-.014.008-.032.002-.043-.125-.233-.193-.558-.388-.68-.624-.391-1.24.001-1.362.664-.006.031.007.078.029.098.286.262.596.476.947.515zM674.551 339.49c.556-.269 1.099-.535 1.646-.794.124-.059.177-.139.223-.273.228-.675.125-1.343.004-2.015a3.383 3.383 0 0 1-.031-.222c-.005-.044-.005-.088-.009-.157l2.469-.554.373 1.596c.037.16.051.329.112.48.26.652.127 1.292-.043 1.93-.018.066-.102.141-.171.163a6.432 6.432 0 0 1-.802.209c-.176.031-.228.124-.257.278-.087.455-.184.909-.276 1.363-.02.098-.037.174-.171.19-.609.075-1.215.169-1.824.245-.067.008-.158-.035-.213-.083a9.712 9.712 0 0 1-.57-.541.497.497 0 0 1-.12-.229c-.118-.518-.225-1.037-.34-1.586zM671.656 333.769c-.059.571-.108 1.092-.171 1.611a.26.26 0 0 1-.134.172c-.315.136-.635.262-.958.378a.269.269 0 0 1-.217-.036 30.414 30.414 0 0 1-1.046-.846.301.301 0 0 1-.083-.226c.045-.501.09-.942.162-1.492.009-.071.102-.131.157-.195.004-.004.014-.003.022-.004l1-.233c.403.257.807.512 1.206.773.042.025.057.089.062.098zM673.246 330.676c.041.007.099.016.157.028.733.147.736.146.997.852.022.06-.009.148-.037.214-.022.052-.078.089-.118.133-.511.567-.511.567-1.244.371-.041-.011-.111-.031-.114-.053-.029-.226-.107-.471-.052-.678.08-.295.261-.563.411-.867z" fill="#171717"/><path d="M686.378 350.237c.668-.092 1.061.096 1.384.662.268.469.333.985.337 1.513.004.526-.029 1.047-.245 1.537-.222.505-.611.74-1.155.712-.245-.013-.332-.083-.333-.323-.006-1.354-.004-2.708-.004-4.062 0-.012.01-.025.016-.039zm.203 4.183c.552.079.896-.109 1.093-.601.207-.517.232-1.062.205-1.611-.026-.508-.131-.99-.439-1.412-.219-.3-.518-.366-.859-.349v3.973z" fill="#828282"/></g><g><path d="M761.786 457.041a3.652 3.652 0 0 1-.007.166c-.02.177 0 .261-.51.261s-.49-.084-.51-.261a11.018 11.018 0 0 1 0-1.04c.02-.177 0-.261.51-.261s.49.084.51.261c.003.024.005.094.007.177h.698a4.655 4.655 0 0 0-.02-.359c-.04-.354.099-.693-1.195-.693s-1.154.339-1.195.693c-.013.115-.025.408-.024.702s.011.587.024.702c.04.354-.099.693 1.195.693s1.154-.339 1.195-.693c.008-.067.014-.195.018-.348h-.696zM753.511 455.363l-.68 1.989-.681-1.989-1.019-.006v2.67h.681v-1.989l.681 1.989h.681l.675-1.989v1.989h.681v-2.67zM762.636 455.357h1.957v.681h-.638v1.989h-.681v-1.989h-.638zM757.388 458.027l.781-2.672h1.015l.782 2.672h-.68l-.161-.552h-.894l.127-.434h.638l-.316-1.089-.611 2.075zM749.491 455.906c.51 0 .49.084.51.261a11.018 11.018 0 0 1 0 1.04c-.02.177 0 .261-.51.261s-.49-.084-.51-.261a11.018 11.018 0 0 1 0-1.04c.02-.177 0-.261.51-.261l.001-.614c-1.294 0-1.154.339-1.194.693a7.886 7.886 0 0 0-.024.702c.001.295.011.587.024.702.04.354-.099.693 1.194.693 1.294 0 1.154-.339 1.195-.693.013-.115.023-.408.024-.702a7.87 7.87 0 0 0-.024-.702c-.04-.354.099-.693-1.195-.693l-.001.614zM747.193 457.041a3.652 3.652 0 0 1-.007.166c-.02.177 0 .261-.51.261s-.49-.084-.51-.261a11.018 11.018 0 0 1 0-1.04c.02-.177 0-.261.51-.261s.49.084.51.261c.003.024.005.094.007.177h.698a5.24 5.24 0 0 0-.02-.359c-.04-.354.099-.693-1.195-.693s-1.154.339-1.194.693a7.886 7.886 0 0 0-.024.702c.001.295.011.587.024.702.04.354-.099.693 1.194.693s1.154-.339 1.195-.693c.008-.067.014-.195.018-.348h-.696zM756.188 457.417h-.413v-.609l.413-.002c.51 0 .494-.084.514-.261.007-.058.005-.01.005-.158-.001-.147.002-.097-.005-.154-.02-.177-.004-.261-.514-.261l-.413.001.001 2.052h-.682v-2.667h1.095c1.294 0 1.152.34 1.199.693a5.3 5.3 0 0 1 .006.339c0 .084 0 .277-.006.338-.033.353.094.689-1.2.689zM742.947 468.081l-4.262-.005c-.617 0-1.117-.5-1.117-1.117v-6.487c0-.617.5-1.117 1.117-1.117l2.667-.003c.32 0 .58-.26.58-.58l.008-2.594c0-.134.109-.243.243-.243h1.564c.134 0 .243.109.243.243l.016 11.66a.243.243 0 0 1-.243.243h-.816l-.02.579h1.067c.32 0 .58-.26.58-.58v-12.149a.58.58 0 0 0-.58-.58h-2.052a.58.58 0 0 0-.58.58l.003 2.6a.243.243 0 0 1-.243.243l-2.437-.004c-.94 0-1.702.762-1.702 1.702v6.487c0 .94.762 1.702 1.702 1.702l4.242-.001.02-.579z" fill="#828282"/><path d="M741.362 465.693v-4.197a.637.637 0 1 0-1.274 0v4.53a.637.637 0 1 0 1.274 0v-.333l.579.02v.314a1.216 1.216 0 0 1-2.432 0v-4.53a1.216 1.216 0 0 1 2.432 0v4.217l-.579-.021zM746.998 468.081h-.798a.243.243 0 0 1-.243-.243l.01-8.234c0-.134.109-.243.243-.243h1.564c.134 0 .243.109.243.243l.016 8.234a.243.243 0 0 1-.243.243h-.792v.577l1.022.001c.32 0 .58-.26.58-.58v-8.723a.58.58 0 0 0-.58-.58h-2.052a.58.58 0 0 0-.58.58l-.001 8.72c0 .32.258.58.578.58l1.032.001v-.576h.001zM754.364 460.981l-1.718-.002a.957.957 0 0 0 0 1.914l2.354.006c.617 0 1.117.5 1.117 1.117l-.008 2.93c0 .617-.5 1.117-1.117 1.117l-4.672.008a.243.243 0 0 1-.243-.243v-1.135c0-.134.109-.243.243-.243l3.184-.01a.957.957 0 0 0 0-1.914l-2.305-.009c-.617 0-1.117-.5-1.117-1.117v-2.927c0-.617.5-1.117 1.117-1.117l4.331-.02c.134 0 .243.109.243.243v1.161a.243.243 0 0 1-.243.243l-1.166-.002-.02.571h1.424c.32 0 .58-.258.58-.578l.002-1.626a.58.58 0 0 0-.58-.58l-4.572.002c-.94 0-1.702.762-1.702 1.702v2.927c0 .94.762 1.702 1.702 1.702l2.305-.004a.385.385 0 1 1 0 .77l-3.432-.001a.58.58 0 0 0-.58.58v1.623c0 .32.26.58.58.58l4.92-.001c.94 0 1.702-.762 1.702-1.702l.008-2.93c0-.94-.762-1.702-1.702-1.702l-2.354.007a.385.385 0 0 1 0-.77h1.698l.021-.57zM763.022 462.59h.738a.243.243 0 0 0 .243-.243l-.003-1.875c0-.617-.5-1.116-1.117-1.116h-3.691c-.617 0-1.117.5-1.117 1.117v6.487c0 .617.5 1.117 1.117 1.117h3.691c.617 0 1.117-.5 1.117-1.117l.003-1.783a.243.243 0 0 0-.243-.243h-1.392a.243.243 0 0 0-.243.243l.008.85c0 .671-.423 1.216-1.094 1.216-.672 0-1.094-.544-1.094-1.216v-4.53c0-.671.423-1.216 1.094-1.216s1.094.544 1.094 1.216l-.008.851c0 .134.109.243.243.243h.654l-.02.585h-.876a.58.58 0 0 1-.58-.58l.007-1.099c0-.352-.164-.637-.515-.637-.352 0-.515.285-.515.637v4.53c0 .352.164.637.515.637.352 0 .515-.285.515-.637l-.007-1.098c0-.32.26-.58.58-.58h1.88c.32 0 .58.26.58.58l-.001 2.031c0 .94-.762 1.702-1.702 1.702h-3.691c-.94 0-1.702-.762-1.702-1.702v-6.487c0-.94.762-1.702 1.702-1.702h3.691c.94 0 1.702.762 1.702 1.702l.001 2.123c0 .32-.26.58-.58.58h-1.004l.02-.586z" fill="#828282"/></g></g></svg>