<svg viewBox="0 0 199.8 210.1" xmlns="http://www.w3.org/2000/svg"><path d="m59.7 142.2c0 .1-.1.2-.3.5s-.4.7-.7 1.3c-.2.4-.4.8-.7 1.2-.1.2-.2.3-.3.5-.3.6-.7 1.3-1.1 2.1-.1.2-.2.3-.2.5-.1.1-.1.2-.1.2-.2.3-.3.6-.5.9-.1.2-.2.5-.3.7-.2.3-.3.7-.6 1.1-.1.1-.1.3-.2.4-.3.6-.6 1.3-1 2-.1.3-.3.6-.4.8v.1c-.2.4-.4.8-.6 1.3-.2.3-.3.6-.5 1-.6 1.2-1.2 2.5-1.8 3.8-.1.2-.2.4-.3.6-.2.5-.5 1-.7 1.5-.1.2-.2.4-.3.6-.1.3-.3.6-.4 1-.2.4-.3.8-.5 1.2-.1.3-.3.6-.4 1-1.3 3-2.6 6.1-3.8 9.3-.1.3-.3.7-.4 1.1-.1.3-.2.6-.3.9-.2.5-.3 1-.5 1.4-.2.6-.4 1.1-.6 1.7-.2.5-.4 1-.6 1.5-.1.1-.1.2-.1.3-.4 1.2-.8 2.4-1.2 3.6-.1.2-.2.4-.2.6-2.6 7.8-4.6 15.7-5.7 23.1-.3.1-.6.1-1 0-2.4-.6-4.1-2-5.7-3.8-5.1-6.3-8.3-13.7-11.1-21.2-3.8-10.1-6.7-20.5-9.2-30.9-1.4-5.8-2.5-11.6-3.6-17.5-.7-4.1-1.4-8.3-1.9-12.4-.4-3.4-.9-7-1.2-10.4-.4-4.7-.7-9.3-.9-14-.1-2.5-.2-5.1-.1-7.7.2-4.2.4-8.4.8-12.5.2-2.7.5-5.5.7-8.2.3-3.3.8-6.5 1.4-9.7.7-4.1 1.8-8.2 3.3-12.1 1.1-2.9 2.7-5.6 4.5-8.1.5-.6 1.1-.9 1.8-1.1 3.8-1.4 7.9-2.3 11.8-3.2 3.7-.9 7.5-1.8 11.2-2.6.3-.1.8-.2 1.2-.2v.1c-.5.7-.9 1.4-1.4 2.1-1.8 2.9-3.4 5.9-4.9 9.1-4.4 9.6-6.7 20.3-6.7 31.5 0 8.4 1.4 16.5 3.8 24.1.1.2.1.4.2.6 3.7 11.1 10 21.1 18.1 29.3 4.5 4.1 9.1 7.9 14.2 11m140.1-40.5c-.1 3.7-.4 7.4-.8 11.1-.3 2.9-.6 5.9-1 8.8-.4 3.2-.8 6.3-1.4 9.4-.8 5-1.7 10.1-2.8 15.1-1.4 6.3-2.8 12.6-4.5 18.8-1.2 4.3-2.4 8.5-3.8 12.8-1.6 4.9-3.3 9.6-5.5 14.3-1.8 3.9-3.6 7.8-6.1 11.4-1.7 2.4-3.6 4.7-6.3 6.2-.6.3-1.2.6-1.9.5-.1.1-.2.1-.3.1-.1-.4-.1-.8-.2-1.2-.1-.5-.1-.9-.2-1.4-.1-.6-.2-1.2-.3-1.8v-.2c-.1-.4-.2-.8-.2-1.2-.1-.4-.2-.8-.2-1.2-5.2-26.1-20.3-55.8-22.7-60.3l-.3-.6c11.6-7.3 21.1-17.6 27.4-29.8 2.4-4.6 4.4-9.6 5.8-14.8v-.1c1.8-6.5 2.8-13.4 2.8-20.5 0-1.5-.1-2.9-.1-4.3v-.2c-.2-2.7-.5-5.3-.9-7.9-1.8-11.3-6-21.6-12-30.5.3.1.6.3.8.6 2.6.3 5.1 1 7.7 1.6 4.2 1 8.5 2.2 12.7 3.2 2.9.7 4.2 2.7 5.6 5 2.9 4.9 4.4 10.3 5.5 15.8.9 4.4 1.5 8.8 1.9 13.2.3 3.2.4 6.3.7 9.5.8 6.1.6 12.3.6 18.6" fill="#dedfde"/><path d="m137.1 76.2c-.2 8.1-2.8 15.3-7.9 21.6-5.1 6.4-11.6 10.7-19.6 12.5-11 2.6-21.2.6-30.3-6.1-7.7-5.6-12.4-13.2-14.1-22.6-.5-2.4-.6-4.8-.6-7.2v-64.2c.1 0 .1-.1.1-.1.5-.2.9-.5 1.4-.7v65.2c0 6 1.2 11.7 4.1 17 3.2 6 7.9 10.6 13.8 14 6.2 3.4 12.8 4.8 19.8 4.2 7.6-.6 14.4-3.5 20.1-8.6 6-5.3 9.7-11.9 11.1-19.7.3-1.8.6-3.5.5-5.3-.1-3.3.1-6.6-.1-9.9-.2-4.9 0-9.8-.2-14.8-.2-4.8 0-9.7-.2-14.5-.2-5 0-10-.2-15-.2-3.3-.1-9.2-.2-12.6.5.3 1 .5 1.5.8v1.9c0 2.7-.1 5.3.1 8 .3 5.1 0 10.2.2 15.2.2 4.7 0 9.5.2 14.2.2 5 0 10 .2 15 .3 3.9.3 7.8.3 11.7m28.4 133.8s0 .1 0 0c-.6.2-1 0-1.4-.7-2.1-3.7-3.5-7.7-4.8-11.8-1.6-5-3.1-10.1-4-15.3-.3-1.8-1.2-2.4-2.8-2.9-6-1.5-12.2-2.9-18.3-3.8-4.2-.7-8.4-1.2-12.7-1.6-3.7-.3-7.3-.7-11-.9-3.6-.2-7.2-.3-10.9-.3-4 0-8 .2-12 .5-4.6.3-9.2.7-13.7 1.3-7.6 1-15 2.1-22.4 4-1.9.5-3.7 1-5.5 1.4-.1 0-.2.1-.3.1l-1.8 4.9c-1.3 5.7-2.8 11.4-4.7 17-.8 2.4-1.8 4.7-3.1 6.9-.4.7-.9 1.1-1.5 1.2 1-7.3 3.1-15.3 5.7-23.1.1-.2.1-.4.2-.6.4-1.2.8-2.4 1.2-3.6.1-.1.1-.2.1-.3.2-.5.3-1 .6-1.5.2-.6.4-1.1.6-1.7.2-.5.3-1 .5-1.4.1-.3.2-.6.3-.9s.3-.7.4-1.1c1.2-3.2 2.5-6.4 3.8-9.4.1-.3.3-.6.4-1 .2-.4.3-.8.5-1.2.2-.3.3-.6.4-1 .1-.2.2-.5.3-.6.2-.5.5-1 .7-1.5.1-.2.2-.4.3-.6.3-.7.6-1.3.9-1.9.1-.2.2-.3.2-.5.2-.3.3-.6.5-.9.1-.2.2-.3.2-.5.2-.3.3-.7.5-1 .2-.5.4-.8.6-1.3v-.1c.1-.3.3-.6.4-.8.3-.7.7-1.4 1-2 .1-.1.1-.3.2-.4.2-.4.4-.7.6-1.1.1-.2.2-.5.3-.7.2-.3.3-.6.5-.9.1-.1.1-.2.1-.2.1-.2.2-.3.2-.5.4-.8.7-1.5 1.1-2.1.1-.2.2-.3.3-.5.2-.5.5-.9.7-1.2.3-.6.5-1 .7-1.3s.2-.5.3-.5c.4.3.8.5 1.2.7-.6 1.1-9.2 17.6-15 34.1 0 0 28.6-6.7 53.6-6.7l-.1.1c25.1 0 55.2 6.7 55.2 6.7-5.8-16.4-14-32.9-14.6-34.1l1.4-.8c.1.2.2.3.3.6 3.2 6.1 17.7 35 22.8 60.3.1.4.2.8.2 1.2.1.4.2.8.2 1.2v.2c.1.6.2 1.2.3 1.8.1.5.1.9.2 1.4-.2.4-.1.8-.1 1.2" fill="#a7a8a8"/><path d="m99.4 170.4.1-.1c-25 .1-53.6 6.7-53.6 6.7 5.8-16.5 14.4-32.9 15-34.1.3.2.5.3.8.5 8 4.7 16.9 8 26.4 9.5l.3-.8.1-.3c.3.1.6.1.8.1s.3.1.5.1h.2c.3.1.6.1.8.1.4.1.7.1 1.1.1.3.1.7.1 1 .1h.2c.3.1.7.1 1 .1-.2.3-.4.7-.6 1.1-1.1 2.1-2.2 4.2-3.2 6.4-.6 1.3-.4 1.7 1 1.8 3.1.2 6.1.5 9.2.5 3.1.1 6.2-.3 9.3-.5 1.4-.1 1.6-.5 1.1-1.8-.9-2.3-2-4.4-3.1-6.6-.2-.3-.4-.7-.6-1.1l1.9-.2c.2 0 .5-.1.7-.1.6-.1 1.1-.2 1.7-.2.2 0 .3-.1.6-.1.1 0 .1 0 .2-.1l.2.3.3.7c9.5-1.5 18.4-4.7 26.3-9.3.3-.2.7-.4 1.1-.6.6 1.2 8.8 17.7 14.6 34.1-.2.4-30.3-6.3-55.4-6.3" fill="#e4e5e4"/><path d="m177.3 77c0 7.1-1 14-2.8 20.5v.1c-1.4 5.1-3.4 10.1-5.8 14.8-6.3 12.2-15.8 22.5-27.4 29.8-8.6 5.4-18.3 9.2-28.8 10.8l-.3-.7-.2-.3 3.1-.5c.3-.1.6-.1.9-.2.4-.1.7-.2 1.1-.2.2-.1.3-.1.5-.1.1 0 .1-.1.2-.1.3-.1.6-.2.9-.2.3-.1.5-.1.8-.2.2-.1.3-.1.5-.1.1-.1.3-.1.4-.1.3-.1.7-.2 1-.3.2-.1.4-.1.6-.2.3-.1.5-.2.8-.2.2-.1.5-.2.7-.2l.9-.3c.2-.1.5-.2.7-.2.6-.2 1.1-.4 1.6-.6.2-.1.5-.2.7-.3h.1c.3-.1.5-.2.8-.3s.6-.2.8-.3c.1-.1.2-.1.3-.1.2-.1.3-.1.5-.2s.5-.2.7-.3.5-.2.7-.3c.6-.2 1.1-.5 1.7-.8l1-.5 1-.5.7-.3.3-.2h.1c.2-.1.3-.2.5-.2 1.5-.8 3-1.7 4.4-2.6.1-.1.2-.2.4-.2.2-.2.5-.3.7-.5l1-.7c.1 0 .1-.1.1-.1.1-.1.2-.2.3-.2.1-.1.2-.2.3-.2.2-.1.4-.3.6-.5l1.2-.8c.2-.1.3-.2.5-.3l.1-.1c.1-.1.2-.2.3-.2l.3-.3c.4-.3.8-.6 1.1-.9.4-.3.7-.6 1.1-.9.2-.2.4-.3.6-.5s.4-.3.6-.5.3-.3.5-.5c.3-.3.6-.5.8-.8.2-.2.4-.3.6-.5l.3-.3c.5-.5 1-.9 1.4-1.4l.1-.1c5.4-5.4 10.1-11.6 13.6-18.5 2.5-4.8 4.6-9.9 6-15.3 1.7-6.3 2.7-13 2.7-19.9 0-1 0-1.9-.1-2.9-.2-3.8-.6-7.5-1.2-11.1-2-10.7-6.3-20.7-12.3-29.3s-13.7-15.9-22.7-21.4c-1.2-.7-2.4-1.5-3.7-2.1-.5-.3-1-.6-1.5-.8-10.3-5.3-21.9-8.2-34.2-8.2s-24 2.9-34.2 8.2c-.5.2-.9.5-1.4.7-.1 0-.1.1-.1.1-.3.2-.6.3-.8.5-.2.1-.4.2-.6.3s-.4.2-.6.3c-.1.1-.2.1-.3.2-.2.1-.5.2-.7.4-.1.1-.2.2-.4.2-.3.2-.6.4-1 .6-.3.2-.6.4-1 .6-.1.1-.1.1-.2.1-.3.2-.6.4-.9.6l-1 .7c-.3.2-.7.5-1 .7-.1.1-.1.1-.2.1-.2.1-.4.3-.6.4l-.7.5c-.2.1-.3.3-.5.4-.2.2-.4.3-.6.5-.4.3-.8.6-1.1.9-.2.2-.4.3-.6.5s-.4.3-.6.5c-.6.5-1.1 1-1.7 1.5-.2.2-.3.3-.5.5-.7.6-1.4 1.3-2 1.9l-.6.6c-.3.3-.6.6-.8.9-.3.3-.6.6-.8.9-.3.3-.6.6-.8.9s-.6.6-.8.9c-.2.2-.5.5-.6.7-.5.5-.8 1-1.2 1.5-.2.3-.4.5-.6.8-3.7 4.7-6.9 10-9.4 15.5-4.2 9.5-6.6 20-6.6 31 0 5 .5 9.9 1.4 14.8 2.9 14.5 9.9 27.5 19.7 37.8 4.6 4.7 9.7 8.9 15.4 12.3.9.6 1.9 1.1 2.8 1.6.2.1.3.2.5.2.2.1.3.2.5.2.3.2.6.3 1 .5s.6.3 1 .5c.3.1.6.3.8.4.1.1.3.1.4.2.2.1.4.2.6.3.1.1.2.1.3.1.2.1.4.2.6.3l2.1.9c.2.1.4.2.6.2.2.1.4.2.6.2.5.2.8.3 1.3.5.1.1.2.1.4.1.7.3 1.5.5 2.3.8l1 .3c.2.1.4.1.6.2l.5.2c.3.1.6.2 1 .3.1 0 .2.1.3.1.2.1.4.1.6.2 1.1.3 2.2.6 3.3.8.2.1.4.1.6.1h.1c.1 0 .2.1.3.1.2.1.3.1.5.1.2.1.5.1.7.1.1 0 .1 0 .2.1.2 0 .3.1.5.1.2.1.5.1.7.1.3.1.6.1.9.2l-.1.3-.3.8c-10.3-1.6-19.9-5.4-28.4-10.7-5-3.2-9.7-6.9-13.8-11.1-8.1-8.2-14.4-18.3-18.2-29.4-.1-.2-.1-.4-.2-.6-2.5-7.6-3.8-15.7-3.8-24.1 0-11.2 2.4-21.9 6.7-31.5 1.4-3.2 3.1-6.2 4.9-9.1.5-.7 1-1.4 1.4-2.1v-.1c13.3-20.8 36.7-34.3 63.3-34.3s50.1 13.5 63.9 34.1c6 8.9 10.2 19.2 12 30.3.5 2.6.7 5.3.9 7.9v.2c-.1 1.6-.1 3.1-.1 4.5" fill="#a7a8a8"/><path d="m135.6 76.2c0 1.8-.2 3.6-.5 5.3-1.5 7.8-5.1 14.5-11.1 19.7-5.8 5.1-12.5 8-20.1 8.6-7 .6-13.6-.8-19.8-4.2-5.9-3.3-10.5-8-13.8-14-2.9-5.3-4.1-11-4.1-17v-65.2c10.3-5.3 21.9-8.2 34.2-8.2s24 2.9 34.2 8.2c.1 3.4 0 9.2.2 12.6.2 5 0 10 .2 15 .2 4.8 0 9.6.2 14.5s-.1 9.8.2 14.8c.3 3.3.1 6.5.2 9.9" fill="#c1c3c2"/><path d="m176.2 77c0 21-8.5 40-22.3 53.7-11.1 11.1-25.6 18.7-41.8 21.2-1.6.3-3.3.5-5 .6-1.6-2.7-3.3-5.3-5.2-7.9-1.1-1.4-1.3-1.4-2.4 0-2 2.5-3.8 5.1-5.4 7.9-1.9-.2-3.7-.4-5.6-.7-9.8-1.6-19-5-27.2-9.9-5.7-3.4-10.9-7.6-15.4-12.3-9.9-10.2-16.9-23.3-19.7-37.8-1-4.7-1.4-9.7-1.4-14.8 0-11.1 2.4-21.6 6.6-31 2.5-5.6 5.7-10.8 9.4-15.5 6.4-8.3 14.6-15.1 23.9-20.1v64.1c0 2.4.2 4.9.6 7.2 1.8 9.4 6.4 17.1 14.1 22.7 9.1 6.7 19.3 8.6 30.3 6.1 8-1.9 14.5-6.2 19.6-12.5s7.7-13.5 7.9-21.6c.1-3.9.1-7.8-.1-11.8-.2-5 0-10-.2-15-.2-4.7 0-9.5-.2-14.2-.2-5.1.1-10.1-.2-15.2-.2-2.7-.1-5.3-.1-8v-1.9c1.2.7 2.5 1.4 3.7 2.1 21.6 13.3 36.1 37.3 36.1 64.6" fill="#dedfde"/><path d="m100.4 161.8c2.7-.1 5.3-.3 7.9-.4 1.6-.1 1.9-.4 1.2-1.9-2-5.1-4.9-9.8-8.1-14.2-.6-.8-.8-.8-1.5 0-3.7 4.4-6.3 9.4-8.6 14.5-.5 1.1-.4 1.5.9 1.6 2.7.1 5.5.3 8.2.4m.1.5c-3.1.1-6.2-.3-9.2-.5-1.4-.1-1.6-.5-1-1.8 2.5-5.4 5.3-10.7 9.2-15.4 1.1-1.4 1.4-1.4 2.4 0 3.6 4.8 6.7 9.9 8.9 15.5.5 1.2.3 1.6-1.1 1.8-3 .1-6.1.4-9.2.4" fill="#a7a8a8"/><path d="m100.4 161.8c-2.7-.2-5.5-.2-8.2-.5-1.3-.1-1.4-.5-.9-1.6 2.4-5.1 5-10.1 8.6-14.5.7-.8.9-.8 1.5 0 3.2 4.4 6.1 9 8.1 14.2.6 1.5.4 1.8-1.2 1.9-2.6.2-5.2.4-7.9.5" fill="#c1c3c2"/><path d="m100.7 41.9c-5.9 0-11.9.1-17.9-.1-2.5-.1-4.6 2.1-4.6 4.5.1 10.6.1 21.2 0 31.8 0 2.7 2.3 4.5 4.6 4.5 11.9-.1 23.8-.1 35.7 0 2.5 0 4.7-1.8 4.7-4.7-.1-10.5-.1-21 0-31.5 0-2.4-2-4.6-4.6-4.6-6 .2-11.9.1-17.9.1m26.2 19.7v17.7c0 2.8-1.2 4.4-4 5.1-2.1.6-12.1 1.8-22 1.8-10.4-.1-20.7-1.5-22.3-1.9-2.4-.7-3.7-2.3-3.7-4.7v-37.7c0-2.3 10.3-5 25.9-5 15.4 0 26.1 2.9 26.1 5z" fill="#a7a8a8"/><path d="m100.7 81.6h17c2.7 0 4.2-1.6 4.2-4.2v-30.2c0-2.7-1.6-4.2-4.3-4.2h-34c-2.7 0-4.3 1.6-4.3 4.2v30.1c0 2.6 1.7 4.2 4.3 4.2h17.1m0-39.6c6 0 12 .1 18-.1 2.6-.1 4.6 2.2 4.6 4.6-.1 10.5-.1 21 0 31.5 0 2.9-2.2 4.7-4.7 4.7-11.9-.1-23.8-.1-35.7 0-2.3 0-4.6-1.8-4.6-4.5.1-10.6.1-21.2 0-31.8 0-2.5 2-4.6 4.6-4.5 5.9.2 11.8.1 17.8.1" fill="#c1c3c2"/><path d="m100.7 81.6h-17c-2.6 0-4.3-1.6-4.3-4.2v-30.2c0-2.7 1.6-4.2 4.3-4.2h34c2.7 0 4.3 1.6 4.3 4.2v30.1c0 2.7-1.6 4.2-4.2 4.2h-17.1" fill="#4a4a4c"/><path d="m160.6 69.3c0-4.7 3.8-8.5 8.5-8.5s8.5 3.8 8.5 8.5-3.8 8.5-8.5 8.5c-4.6 0-8.5-3.8-8.5-8.5" fill="#6d6d6d"/><path d="m161.3 69.3c0-4.4 3.6-7.9 7.9-7.9s7.9 3.6 7.9 7.9c0 4.4-3.6 7.9-7.9 7.9-4.4 0-7.9-3.5-7.9-7.9" fill="#02aa46"/><path d="m160.6 103.9c0-4.7 3.8-8.5 8.5-8.5s8.5 3.8 8.5 8.5-3.8 8.5-8.5 8.5c-4.6 0-8.5-3.8-8.5-8.5" fill="#6d6d6d"/><path d="m161.3 103.9c0-4.4 3.6-7.9 7.9-7.9s7.9 3.6 7.9 7.9c0 4.4-3.6 7.9-7.9 7.9-4.4 0-7.9-3.6-7.9-7.9" fill="#e23434"/><path d="m142.6 86.6c0-4.7 3.8-8.5 8.5-8.5s8.5 3.8 8.5 8.5-3.8 8.5-8.5 8.5-8.5-3.8-8.5-8.5" fill="#6d6d6d"/><path d="m143.2 86.6c0-4.4 3.6-8 8-8s8 3.6 8 8-3.6 8-8 8-8-3.6-8-8" fill="#f2e825"/><path d="m178.1 86.6c0-4.7 3.8-8.5 8.5-8.5s8.5 3.8 8.5 8.5-3.8 8.5-8.5 8.5-8.5-3.8-8.5-8.5" fill="#6d6d6d"/><path d="m178.8 86.6c0-4.3 3.4-7.7 7.7-7.7s7.7 3.4 7.7 7.7-3.4 7.7-7.7 7.7c-4.2.1-7.7-3.4-7.7-7.7" fill="#3f6c9e"/><path d="m3.6 68.4c0-12.8 10.4-23.2 23.2-23.2s23.2 10.4 23.2 23.2-10.5 23.2-23.2 23.2-23.2-10.3-23.2-23.2" fill="#e4e5e4"/><path d="m10.7 68.4c0-8.9 7.2-16.1 16.1-16.1s16.1 7.2 16.1 16.1-7.2 16.1-16.1 16.1-16.1-7.1-16.1-16.1" fill="#a7a8a8"/><path d="m13 68.4c0-7.6 6.2-13.7 13.7-13.7 7.6 0 13.7 6.2 13.7 13.7s-6.2 13.7-13.7 13.7-13.7-6-13.7-13.7" fill="#c1c3c2"/><path d="m117.1 23.2v4.4c0 1-.8 1.8-1.8 1.8h-29c-1 0-1.8-.8-1.8-1.8v-4.4c0-1 .8-1.8 1.8-1.8h3.6c.9 0 1.6-.7 1.6-1.6v-4.2c0-5.3 4-9.7 9.3-10 5.6-.2 10.2 4.2 10.2 9.7v4.5c0 .9.7 1.6 1.6 1.6h2.8c.8.1 1.7.9 1.7 1.8" fill="#dedfde"/><path d="m98.3 26.9s-.1.1-.1.1c-.1 0-.2.1-.2.1h-.2c-.1 0-.2-.1-.3-.1-.1-.1-.1 0-.2-.1s-.2-.2-.2-.3v-.2c0-.1.1-.1.1-.2l.2-.2c.1-.1.2-.1.3-.1s.2-.1.3-.1.2 0 .3-.1c.1 0 .1 0 .2-.1.1 0 .1-.1.1-.1l.1-.1v.6s0 .3-.1.4c-.2.4-.3.5-.3.5m-1.4-2.1c.2-.1.2-.1.3-.2.1 0 .2-.1.3-.1s.2-.1.3-.1.3.1.4.1.2.1.2.2c.1.1.1.1.1.2v.1c0 .1-.1.1-.1.1 0 .1-.1.1-.1.1s-.1.1-.1.1c-.1 0-.1.1-.2.1s-.1 0-.2.1c-.3.1-.5.1-.6.1-.1.1-.2.1-.3.1-.1.1-.1.1-.2.2l-.2.2c-.1.1-.1.1-.1.2s-.1.2-.1.3c0 .2 0 .3.1.5.1.1.2.2.3.3.2.1.3.2.6.2h.2c.1 0 .2-.1.3-.1.1-.1.2-.1.3-.2l.2-.2v.2h.6c.1-.1.1-.2.1-.3v-1.6c0-.1-.1-.3-.1-.4-.1-.1-.1-.2-.2-.3s-.3-.2-.4-.3c-.2-.1-.3-.1-.5-.1h-.6c-.2 0-.3.1-.5.1.2.2.2.4.2.4m12.2 2.1c-.1 0-.1.1-.2.1s-.2.1-.2.1h-.2c-.1 0-.2-.1-.3-.1-.1-.1-.1 0-.2-.1s-.2-.2-.2-.3v-.2c0-.1.1-.1.1-.2l.2-.2c.1-.1.2-.1.3-.1s.2-.1.3-.1.2 0 .3-.1c.1 0 .1 0 .1-.1.1 0 .1-.1.1-.1l.1-.1v.8s0 .2-.1.4c0 .2-.1.3-.1.3m-1.4-2.1.3-.2c.1 0 .2-.1.3-.1s.2-.1.3-.1.3.1.4.1.2.1.2.2c.1.1.1.1.1.2v.1c0 .1 0 0-.1.1 0 .1-.1.1-.1.1s-.1.1-.1.1c-.1 0-.1.1-.2.1s-.1 0-.2.1c-.3.1-.5.1-.6.1-.1.1-.2.1-.3.1-.1.1-.1.1-.2.2l-.2.2c-.1.1-.1.2-.1.2 0 .1-.1.2-.1.3 0 .2 0 .3.1.5.1.1.2.2.3.3.2.1.3.2.6.2h.2c.1 0 .2-.1.3-.1.1-.1.2-.1.3-.2l.2-.2v.3h.6c-.1-.2-.1-.3-.1-.5v-1.6c0-.1-.1-.3-.1-.4-.1-.1-.1-.2-.2-.3s-.2-.2-.4-.3-.2-.1-.4-.1-.4 0-.6.1c-.2 0-.3.1-.5.1.3.2.3.3.3.4m-8.1 2.6.1-.2v-.6l-.1-1.8c0-.2-.1-.3-.1-.4.1 0 .3 0 .4-.1h.2v.4c.1-.1.2-.1.2-.2.1-.1.1-.1.2-.1.1-.1.1-.1.2-.1h.3c.1 0 .2 0 .2.1.1 0 .2.1.2.1.1 0 .1.1.2.1.1.1.1.1.2.2 0 0 .1-.2.3-.2.2-.1.4-.2.6-.2.1 0 .5 0 .6.1s.3.1.4.2.1.1.2.2.1.3.1.4v1.9c0 .2.1.2.1.3h-.6c.1-.2.1-.2.1-.3v-1.8c0-.1-.1-.3-.1-.3 0-.1-.2-.2-.2-.2-.1-.1-.1-.1-.2-.1-.1-.1-.2-.1-.3-.1h-.2c-.1 0-.1.1-.2.1-.1.1-.1.1-.2.1-.1.1-.1.1-.1.2s0 .2-.1.3v1.6l.1.3h-.6c0-.3.1 0 .1-.3v-1.8c0-.1 0-.2-.1-.2 0-.1-.1-.2-.1-.2l-.2-.2c-.1-.1-.2-.1-.3-.1s-.2 0-.2.1c-.1.1-.2.1-.2.1-.1.1-.1.1-.2.2s-.1.1-.1.2c0 .2-.1.8-.1 1.2v.7c0 .1.1.2.1.3h-.3c.1.1-.1.1-.3.1m7.6-.6v.2c0 .1-.1.2-.1.3-.1.1-.3.1-.4.1h-.6c-.2 0-.5-.1-.6-.1-.2-.1-.4-.2-.5-.3s-.3-.3-.3-.5c-.1-.2-.1-.4-.1-.6 0-.3.1-.4.1-.7.1-.3.3-.5.5-.6.2-.2.7-.3 1-.3s.6.1.8.1c0 .2 0 .3.1.4-.2-.1-.3-.2-.5-.2s-.3-.1-.3-.1c-.2 0-.5.1-.6.2s-.2.2-.3.3-.2.3-.2.5c-.1.2-.1.2-.1.4s.1.5.1.6c.1.2.2.3.4.5.2.1.3.2.6.2.1-.1.5-.2 1-.4m3.2.5-.1-.2s-.1-.2-.1-.3c.3.2.7.3 1 .3.1 0 .3-.1.4-.1.1-.1.2-.1.2-.2.1-.1.1-.2.1-.2v-.2c0-.1 0-.2-.1-.2 0-.1-.1-.1-.2-.2s-.2-.1-.4-.2-.5-.2-.5-.2c-.1-.1-.2-.2-.3-.2-.1-.1-.1-.2-.2-.2v-.2c0-.1.1-.3.2-.4s.2-.2.4-.3.3-.1.6-.1.5.1.7.1v.4c-.2-.1-.5-.2-.7-.2-.1 0-.2 0-.3.1s-.2.1-.3.2-.1.1-.1.2 0 .1.1.2c0 .1.1.2.2.2.1.1.1 0 .1.1.1 0 .3.1.5.2s.4.2.5.3.2.2.2.3c.1.1.1.2.1.2v.2c0 .2 0 .2-.1.3s-.2.2-.4.3-.3.1-.6.1h-.4c-.1 0-.2-.1-.3-.1s-.1 0-.2 0m3.8-.3c0 .1-.1.2-.1.3-.1.1-.2.1-.3.1h-.2c-.2 0-.3 0-.4-.1s-.2-.1-.2-.2c-.1-.1-.1-.4-.1-.6v-1.9h-.4v-.3h.4v-.6c0-.1-.1-.2-.1-.2.2-.1.5-.1.6-.2v.9h.8v.3h-.8v1.9c0 .2 0 .3.1.5 0 .1.1.1.2.2.1 0 .1.1.2.1h.2c-.1-.1 0-.2.1-.2m-18-.2c0 .1-.1.3-.1.5-.2.1-.5.2-.6.2h-.4c-.2 0-.5-.1-.7-.1-.2-.1-.4-.2-.5-.3-.2-.2-.3-.3-.3-.5-.1-.2-.1-.4-.1-.6 0-.3.1-.5.1-.7.1-.3.3-.5.5-.6.2-.2.5-.2.8-.2.2 0 .4 0 .5.1.2.1.3.1.4.2s.2.2.3.4.1.2.1.4v.3h-2.2v.2c0 .2.1.5.1.6.1.2.2.3.4.4s.4.2.6.2c.3-.2.8-.3 1.1-.5m-2-1.4h1.6v-.2c0-.1-.1-.1-.1-.2l-.2-.2c-.1-.1-.1-.1-.2-.2-.1 0-.2-.1-.3-.1s-.2 0-.3.1-.2.1-.2.2c-.1.1-.1.1-.2.2s-.1.2-.1.2zm-2.6 2c0-.1.1-.2.1-.2v-2.7l-.1-.2c.1 0 .2 0 .3-.1.1 0 .2-.1.3-.1v.6c.1-.1.1-.1.1-.2.1-.1.1-.2.2-.2.1-.1.1-.1.2-.1s.2-.1.2-.1h.3c.2 0 .3.1.3.1 0 .1-.1.4-.1.4s-.2 0-.3-.1h-.3c-.1 0-.2 0-.3.1s-.2.1-.2.2c-.1.1-.1.2-.2.3s0 0-.1.2v1.9l.1.2h-.3c.1 0-.1 0-.2 0m-4.6.1.1-.3v-3.7c0-.1-.1-.2-.1-.4h2c.3 0 .4.1.7.1.2.1.5.2.7.3s.3.2.4.4.2.2.3.4c.1.3.2.6.2.8 0 .4 0 .7-.1 1s-.3.6-.6.8c-.2.2-.5.4-.8.5s-.6.1-1 .1h-.8zm.8-.4h1.2c.2 0 .3-.1.5-.2s.3-.1.4-.3c.2-.1.2-.3.3-.5s.2-.3.2-.6c.1-.2.1-.4.1-.6s-.1-.4-.2-.6-.2-.5-.3-.6c-.2-.2-.3-.3-.5-.3-.2-.1-.5-.1-.8-.1h-1z"/><path d="m101.2 16.6c0-.5-.2-.5-.4-.5s-.6.1-1 0c-.5-.1-.7-.7-.6-1.1.2-.9.8-1 1.2-1 .3 0 .9.1 1.6.7.3.3.5 1.1.6 1.5 0 .6 0 1.1-.3 1.5-.5.6-1.9 1-2.7 1-3-.3-2.9-3.1-2.9-3.1s-.2-1.2.8-2.5c.1-.1.2-.3.3-.5.1-.1.2-.2.3-.2.1-.1.2-.2.4-.2.3-.2.7-.4 1-.5.5-.2 1-.2 1.4-.2 1.2.1 2.6.7 3.3 1.8.1.2.2.2.3.4s.2.4.3.7c.2.5.1.3.3 1 .1.5.2.8.2 1.1 0 .2 0 .3.1.5 0 .6.1.7-.1 1.1-.2.7-.6 1.4-1 1.8-.7.6-1.2.8-1.6 1-.3.2-.5.2-1 .4s-.7.2-1.5.2-1.5-.1-1.6-.1c-1.4-.4-2-.7-2.5-1.2-1.6-1.2-1.9-3.7-1.9-3.7s-.2-1.5.1-2.8c.2-.7.8-2 1.2-2.5.3-.5 1.1-1.1 1.6-1.4s1.1-.7 1.9-1c.4-.1.7-.2 1.5-.2 1-.1 2.5.2 3.3.5.9.3 1.8.8 2.1 1.4.5.5 1.4 1.9 1.6 2.1.2.3.6 1.8.7 2s.1.9.8.8c.6-.1.5-.8.5-.9s-.2-1.4-.3-1.6c-.1-.3-.6-1.2-.7-1.4-.1-.1-.5-.8-1-1.4-.3-.4-.6-.8-1-1.1-.7-.5-1.5-.8-1.5-.8s-1.5-.5-2.2-.6-1.4-.2-2.5-.2-1.8.6-2.3.8c-.4.2-1.4.6-2.1 1.2s-.5.3-.9.7c-.4.5-.5.6-.8.9-.3.4-.8 1.5-1 2.3-.1.3-.2.8-.3 1.2s-.1.7 0 1.1c.1.6.1.7.1.7s.3 1.2.5 1.8c.2.5.4 1.2 1.4 2.4 1 1.1 2 1.4 2.3 1.6.3.1 1.6.6 3.2.6 1.8.1 2.3-.4 2.7-.5.3-.2 1.5-.6 2.4-1.5.9-.8 1.2-1.8 1.2-1.8.2-.7.3-1.9.1-2.9-.2-.7-.3-1.4-.4-1.9-.3-.8-.6-1.2-.8-1.6-.2-.3-.8-.8-1.3-1.1-.2-.1-.4-.3-.6-.4-.3-.1-.6-.2-1-.3s-.9-.2-1.3-.2h-.8c-.2 0-.8.1-1.6.6-.5.2-1 .6-1.5 1.1-.2.2-.3.4-.5.6-1.2 1.7-.8 3.6-.8 3.6s.2 2.6 2.5 3.3c.8.2 1.5.3 2.1.2 1-.1 1.7-.6 2.2-.8.5-.3.8-.7 1.1-1.1.2-.4.2-.8.2-1.2 0-.2 0-.5-.1-.8-.1-.7-.4-1.5-1-2l-.2-.1-.3-.2c-.6-.3-1.1-.4-1.9-.5-.3 0-.7.1-.9.2-.9.5-1.4 1.2-1.4 2.3.1 1 1 1.5 1.1 1.6-.4-.3 1.6.2 1.6-.7" fill="#ee5507"/><path d="m54 110.7v8.6c0 .5-.5 1-1 1h-10.1v10.2c0 .5-.5 1-1 1h-8.6c-.5 0-1-.5-1-1v-10.2h-10.1c-.5 0-1-.5-1-1v-8.6c0-.5.5-1 1-1h10.2v-10.1c0-.5.5-1 1-1h8.6c.5 0 1 .5 1 1v10.2h10.2c.4 0 .8.4.8.9" fill="#a7a8a8"/><path d="m53.1 111.2v7.7c0 .5-.4.8-.8.8h-9.9v9.9c0 .5-.4.8-.8.8h-7.7c-.5 0-.8-.4-.8-.8v-9.9h-10.1c-.5 0-.8-.4-.8-.8v-7.7c0-.5.4-.8.8-.8h10v-9.9c0-.5.4-.8.8-.8h7.6c.5 0 .8.4.8.8v9.9h9.9c.6-.1 1 .3 1 .8" fill="#c1c3c2"/><path d="m94.5 165.4c.2.1.5.2.7.2.5 0 .7-.2.7-.5s-.2-.5-.6-.6c-.5-.2-.8-.4-.8-.8 0-.5.5-.8 1.1-.8.3 0 .6.1.7.2l-.1.3c-.1-.1-.3-.1-.6-.1-.5 0-.6.2-.6.5s.2.4.7.6c.6.2.8.5.8.8 0 .5-.4.8-1.1.8-.3 0-.7-.1-.8-.2zm3.1-2.1h-1v-.3h2.4v.3h-1v2.6h-.5zm3.1 1.4-.3-.8-.2-.5-.2.5-.3.8zm-1.1.3-.3.9h-.5l1.1-2.9h.5l1.1 2.9h-.5l-.3-.9zm2.9-.6h.5c.5 0 .7-.2.7-.6s-.3-.6-.7-.6c-.2 0-.3 0-.4.1zm-.4-1.4c.2-.1.5-.1.8-.1.5 0 .7.1 1 .2.2.1.3.3.3.6 0 .4-.3.6-.6.7.3.1.4.3.5.6.1.4.2.7.2.8h-.5c-.1-.1-.1-.3-.2-.7s-.3-.6-.7-.6h-.4v1.2h-.5zm3.3.3h-1v-.3h2.4v.3h-1v2.6h-.5z" fill="#7f7f7f"/><path d="m21.6 57.6c.1.2.3.3.6.2.2-.1.3-.3.2-.6-.1-.2-.3-.2-.6-.2-.2.1-.3.4-.2.6m1 2.3c.1.2.3.3.6.2.2-.1.3-.3.2-.6-.1-.2-.3-.3-.6-.2-.2.2-.3.4-.2.6m1 2.4c.1.2.3.3.6.2.2-.1.3-.3.2-.6-.1-.2-.3-.3-.6-.2-.2.2-.2.5-.2.6m1.3 2c.2-.1.5 0 .6.2s0 .5-.2.6-.5 0-.6-.2c0-.3 0-.5.2-.6m7 15c-.1-.2-.3-.3-.6-.2-.2.1-.3.3-.2.6.1.2.3.3.6.2.2-.1.3-.3.2-.6m-1-2.3c-.1-.2-.3-.3-.6-.2-.2.1-.3.3-.2.6.1.2.3.3.6.2.2-.1.3-.3.2-.6m-1-2.5c-.1-.2-.3-.3-.6-.2-.2.1-.3.3-.2.6.1.2.3.3.6.2.2 0 .3-.3.2-.6m-1.3-1.9c-.2.1-.5 0-.6-.2s0-.5.2-.6.5 0 .6.2c.1.3 0 .6-.2.6m9.1-9.3c-.2.1-.3.3-.2.6.1.2.3.3.6.2.2-.1.3-.3.2-.6-.1-.2-.5-.3-.6-.2m-2.4 1c-.2.1-.3.3-.2.6.1.2.3.3.6.2.2-.1.3-.3.2-.6-.1-.2-.3-.3-.6-.2m-2.4 1c-.2.1-.3.3-.2.6.1.2.3.3.6.2.2-.1.3-.3.2-.6-.2-.1-.4-.2-.6-.2m-2 1.3c.1.2 0 .5-.2.6s-.5 0-.6-.2 0-.5.2-.6c.3-.1.5.1.6.2m-15 7c.2-.1.3-.3.2-.6-.1-.2-.3-.3-.6-.2-.2.1-.3.3-.2.6.1.2.4.4.6.2m2.3-1c.2-.1.3-.3.2-.6-.1-.2-.3-.3-.6-.2-.2.1-.3.3-.2.6.1.2.4.3.6.2m2.4-1.1c.2-.1.3-.3.2-.6-.1-.2-.3-.3-.6-.2-.2.1-.3.3-.2.6.2.2.4.4.6.2m2-1.3c-.1-.2 0-.5.2-.6s.5 0 .6.2 0 .5-.2.6c-.3.2-.5.1-.6-.2m-4.7-10c.2.2.5.2.6 0 .2-.2.2-.5 0-.6-.2-.2-.5-.2-.6 0s-.1.5 0 .6m1.8 1.8c.2.2.5.2.6 0 .2-.2.2-.5 0-.6-.2-.2-.5-.2-.6 0s-.1.4 0 .6m1.9 1.9c.2.2.5.2.6 0 .2-.2.2-.5 0-.6-.2-.2-.5-.2-.6 0s-.1.4 0 .6m14 12.8c-.2-.2-.5-.2-.6 0-.2.2-.2.5 0 .6.2.2.5.2.6 0s.1-.4 0-.6m-1.8-1.8c-.2-.2-.5-.2-.6 0-.2.2-.2.5 0 .6.2.2.5.2.6 0 .2-.2.2-.4 0-.6m-1.9-1.9c-.2-.2-.5-.2-.6 0-.2.2-.2.5 0 .6.2.2.5.2.6 0 .2-.2.2-.4 0-.6m3.1-13.3c-.2.2-.2.5 0 .6.2.2.5.2.6 0 .2-.2.2-.5 0-.6-.2-.2-.5-.2-.6 0m-1.8 1.7c-.2.2-.2.5 0 .6.2.2.5.2.6 0 .2-.2.2-.5 0-.6s-.4-.1-.6 0m-1.9 2c-.2.2-.2.5 0 .6.2.2.5.2.6 0 .2-.2.2-.5 0-.6-.2-.2-.5-.2-.6 0m-12.7 13.9c.2-.2.2-.5 0-.6-.2-.2-.5-.2-.6 0-.2.2-.2.5 0 .6.1.1.4.1.6 0m1.7-1.8c.2-.2.2-.5 0-.6-.2-.2-.5-.2-.6 0-.2.2-.2.5 0 .6.2.2.4.2.6 0m1.9-1.9c.2-.2.2-.5 0-.6-.2-.2-.5-.2-.6 0-.2.2-.2.5 0 .6.2.2.5.2.6 0m-6.7-9.4c.2.1.5 0 .6-.2s0-.5-.2-.6-.5 0-.6.2c-.1.3 0 .5.2.6m2.3 1c.2.1.5 0 .6-.2s0-.5-.2-.6-.5 0-.6.2 0 .4.2.6m2.5 1c.2.1.5 0 .6-.2s0-.5-.2-.6-.5 0-.6.2 0 .5.2.6m2.3.5c.1-.2.3-.3.6-.2.2.1.3.3.2.6-.1.2-.3.3-.6.2s-.3-.4-.2-.6m15.4 6c-.2-.1-.5 0-.6.2s0 .5.2.6.5 0 .6-.2 0-.5-.2-.6m-2.3-.9c-.2-.1-.5 0-.6.2s0 .5.2.6.5 0 .6-.2c.1-.3 0-.5-.2-.6m-2.5-1.1c-.2-.1-.5 0-.6.2s0 .5.2.6.5 0 .6-.2c.1-.3 0-.5-.2-.6m-2.3-.5c-.1.2-.3.3-.6.2s-.3-.3-.2-.6.3-.3.6-.2c.2.2.3.4.2.6m.1-13c-.1.2 0 .5.2.6s.5 0 .6-.2 0-.5-.2-.6-.5 0-.6.2m-.9 2.3c-.1.2 0 .5.2.6s.5 0 .6-.2 0-.5-.2-.6c-.3-.1-.6 0-.6.2m-1.1 2.5c-.1.2 0 .5.2.6s.5 0 .6-.2 0-.5-.2-.6-.5 0-.6.2m-.5 2.3c.2.1.3.3.2.6s-.3.3-.6.2c-.2-.1-.3-.3-.2-.6.1-.2.4-.3.6-.2m-6 15.4c.1-.2 0-.5-.2-.6s-.5 0-.6.2 0 .5.2.6c.3.1.5 0 .6-.2m1-2.3c.1-.2 0-.5-.2-.6s-.5 0-.6.2 0 .5.2.6.5 0 .6-.2m1-2.5c.1-.2 0-.5-.2-.6s-.5 0-.6.2 0 .5.2.6.5.1.6-.2m.5-2.2c-.2-.1-.3-.3-.2-.6.1-.2.3-.3.6-.2.2.1.3.3.2.6-.2.1-.4.2-.6.2m2.2 7.8c0-.2-.2-.4-.4-.4s-.4.2-.4.4.2.4.4.4.4-.2.4-.4m0-2.5c0-.2-.2-.4-.4-.4s-.4.2-.4.4.2.4.4.4.4-.2.4-.4m0-2.7c0-.2-.2-.4-.4-.4s-.4.2-.4.4.2.4.4.4.4-.2.4-.4m-.8-18.9c0 .2.2.4.4.4s.4-.2.4-.4-.2-.4-.5-.4-.3.2-.3.4m0 2.5c0 .2.2.4.4.4s.4-.2.4-.4-.2-.4-.4-.4-.4.2-.4.4m0 2.7c0 .2.2.4.4.4s.4-.2.4-.4-.2-.4-.4-.4-.4.2-.4.4m-11.7 7.3c.2 0 .4-.2.4-.4s-.2-.4-.4-.4-.4.2-.4.4.2.4.4.4m2.6 0c.2 0 .4-.2.4-.4s-.2-.4-.4-.4-.4.2-.4.4c-.1.2.1.4.4.4m2.6 0c.2 0 .4-.2.4-.4s-.2-.4-.4-.4-.4.2-.4.4.2.4.4.4m18.9-.9c-.2 0-.4.2-.4.4s.2.4.4.4.4-.2.4-.4-.2-.4-.4-.4m-2.5 0c-.2 0-.4.2-.4.4s.2.4.4.4.4-.2.4-.4-.2-.4-.4-.4m-2.7 0c-.2 0-.4.2-.4.4s.2.4.4.4.4-.2.4-.4-.2-.4-.4-.4" fill="#b1b2b5"/><path d="m152.9 90.4-1-1.6c-.4-.6-.6-1-.8-1.5-.2.5-.4.8-.8 1.5l-.9 1.6h-1.1l2.3-3.8-2.2-3.7h1.1l1 1.8c.3.5.5.8.7 1.2h.1c.2-.5.4-.8.7-1.2l1-1.8h1.1l-2.3 3.6 2.3 3.8h-1.2z" fill="#b5aa1d"/><path d="m168.5 72.9v-3.2l-2.4-4.3h1.1l1.1 2c.3.6.5 1 .7 1.5.2-.5.5-1 .7-1.5l1.1-2h1.1l-2.5 4.3v3.2z" fill="#036d2e"/><path d="m170.2 104.5-.7-2.1c-.2-.5-.3-.9-.4-1.4-.1.5-.2.9-.4 1.4l-.7 2.1zm-2.4.7-.8 2.3h-1l2.5-7.5h1.1l2.5 7.5h-1l-.8-2.3z" fill="#a02727"/><path d="m185.2 89.6c.2.1.5.1.8.1 1 0 1.9-.3 1.9-1.5 0-1-.8-1.4-1.9-1.4h-.8zm0-3.6h.8c1 0 1.6-.5 1.6-1.2 0-.8-.7-1.2-1.6-1.2-.5 0-.7.1-.8.1zm-1-3c.4-.1 1.1-.2 1.8-.2 1 0 1.6.2 2 .6.4.3.6.7.6 1.3 0 .7-.5 1.4-1.2 1.6.7.2 1.5.7 1.5 1.9 0 .6-.3 1.1-.6 1.5-.5.5-1.4.7-2.5.7-.7 0-1.2-.1-1.5-.1z" fill="#264560"/><path d="m33 115c0-2.5 2-4.5 4.5-4.5s4.5 2 4.5 4.5-2 4.5-4.5 4.5c-2.4.1-4.5-1.9-4.5-4.5" fill="#a7a8a8"/></svg>