<svg viewBox="0 0 294.8 176.7" xmlns="http://www.w3.org/2000/svg" xmlns:xlink="http://www.w3.org/1999/xlink"><linearGradient id="a" gradientTransform="matrix(0 -1 1 0 290.119 535.497)" gradientUnits="userSpaceOnUse" x1="448.068" x2="448.068" y1="4.633" y2="-112.556"><stop offset=".031" stop-color="#261c19"/><stop offset=".156" stop-color="#261c19"/><stop offset=".885" stop-color="#261c19"/><stop offset=".936" stop-color="#231917"/><stop offset=".977" stop-color="#191110"/><stop offset=".987" stop-color="#150e0d"/><stop offset=".988" stop-color="#1d1513"/><stop offset=".991" stop-color="#241a18"/><stop offset="1" stop-color="#261c19"/></linearGradient><linearGradient id="b" gradientTransform="matrix(0 -1 1 0 290.119 535.497)" gradientUnits="userSpaceOnUse" x1="428.943" x2="467.194" y1="-17.155" y2="-17.155"><stop offset="0" stop-color="#150e0d"/><stop offset=".061" stop-color="#1f1615"/><stop offset=".156" stop-color="#261b1a"/><stop offset=".413" stop-color="#281d1b"/><stop offset=".498" stop-color="#241d1c"/><stop offset=".645" stop-color="#261d1c"/><stop offset=".669" stop-color="#281d1b"/><stop offset=".827" stop-color="#251a19"/><stop offset=".954" stop-color="#1b1311"/><stop offset="1" stop-color="#150e0d"/></linearGradient><linearGradient id="c" gradientTransform="matrix(0 -1 1 0 290.119 535.497)" gradientUnits="userSpaceOnUse" x1="448.068" x2="448.068" y1="-112.556" y2="-111.019"><stop offset=".031" stop-color="#261c19"/><stop offset=".052" stop-color="#3c312f"/><stop offset=".083" stop-color="#564a49"/><stop offset=".115" stop-color="#685c5c"/><stop offset=".148" stop-color="#736767"/><stop offset=".184" stop-color="#776a6b"/><stop offset=".201" stop-color="#6e6162"/><stop offset=".259" stop-color="#534949"/><stop offset=".323" stop-color="#3e3535"/><stop offset=".394" stop-color="#2f2727"/><stop offset=".479" stop-color="#271f1f"/><stop offset=".611" stop-color="#241d1c"/><stop offset=".652" stop-color="#1e1716"/><stop offset=".744" stop-color="#17100f"/><stop offset="1" stop-color="#150e0d"/></linearGradient><linearGradient id="d" gradientTransform="matrix(0 -1 1 0 290.119 535.497)" gradientUnits="userSpaceOnUse" x1="448.068" x2="448.068" y1="4.633" y2="1.971"><stop offset=".031" stop-color="#261c19"/><stop offset=".14" stop-color="#241815"/><stop offset=".389" stop-color="#221412"/><stop offset="1" stop-color="#261c19"/></linearGradient><path d="m.4 115 .8 49c0 6.6.1 8.9 6.7 8.9 0 0 50.1 3.8 139.1 3.8s139.1-3.8 139.1-3.8c6.6 0 6.7-2.3 6.7-8.9l1.3-75.6-1.3-75.6c0-6.6-.1-8.9-6.7-8.9 0-.1-50.1-3.9-139.1-3.9s-139.1 3.8-139.1 3.8c-6.6 0-6.7 2.3-6.7 8.9l-.7 47.9-.5 27.8z" fill="#2b201d"/><path d="m8.8 48.8v-28.9c0-2.6 2.1-4.7 4.7-4.7h267.5c2.6 0 4.7 2.1 4.7 4.7v28.9c0 2.6-2.1 4.7-4.7 4.7h-267.5c-2.6 0-4.7-2.1-4.7-4.7z" fill="#2e2b24"/><path d="m13.4 52.2c-1.7 0-3.2-1.4-3.2-3.2v-28c0-1.7 1.4-3.2 3.2-3.2h267.6c1.7 0 3.2 1.4 3.2 3.2v28c0 1.7-1.4 3.2-3.2 3.2z" fill="#d4c1a0"/><path d="m281.1 50.4h-267.7c-.7 0-1.3-.6-1.3-1.3v-28c0-.7.6-1.3 1.3-1.3h267.6c.7 0 1.3.6 1.3 1.3v28c.1.7-.5 1.3-1.2 1.3zm-267.7-30.4c-.6 0-1.1.5-1.1 1.1v28c0 .6.5 1.1 1.1 1.1h267.6c.6 0 1.1-.5 1.1-1.1v-28c0-.6-.5-1.1-1.1-1.1z"/><path d="m124.4 80.3c-.9 0-1.5-.6-1.5-1.4v-17.7c0-.8.6-1.4 1.4-1.4h.1c.8 0 1.4.6 1.4 1.4v17.7c0 .8-.6 1.4-1.4 1.4zm4.4 0c-.9 0-1.5-.6-1.5-1.4v-17.7c0-.8.6-1.4 1.4-1.4h.1c.8 0 1.4.6 1.4 1.4v17.7c0 .8-.6 1.4-1.4 1.4zm4.4 0c-.9 0-1.5-.6-1.5-1.4v-17.7c0-.8.6-1.4 1.4-1.4h.1c.8 0 1.4.6 1.4 1.4v17.7c0 .8-.6 1.4-1.4 1.4zm4.4 0c-.9 0-1.5-.6-1.5-1.4v-17.7c0-.8.6-1.4 1.4-1.4h.1c.8 0 1.4.6 1.4 1.4v17.7c0 .8-.6 1.4-1.4 1.4zm4.4 0c-.9 0-1.5-.6-1.5-1.4v-17.7c0-.8.6-1.4 1.4-1.4h.1c.8 0 1.4.6 1.4 1.4v17.7c0 .8-.7 1.4-1.4 1.4zm4.3 0c-.9 0-1.5-.6-1.5-1.4v-17.7c0-.8.6-1.4 1.4-1.4h.1c.8 0 1.4.6 1.4 1.4v17.7c.1.8-.6 1.4-1.4 1.4zm4.4 0c-.9 0-1.5-.6-1.5-1.4v-17.7c0-.8.6-1.4 1.4-1.4h.1c.8 0 1.4.6 1.4 1.4v17.7c.1.8-.6 1.4-1.4 1.4zm4.4 0c-.9 0-1.5-.6-1.5-1.4v-17.7c0-.8.6-1.4 1.4-1.4h.1c.8 0 1.4.6 1.4 1.4v17.7c.1.8-.6 1.4-1.4 1.4zm4.4 0c-.9 0-1.5-.6-1.5-1.4v-17.7c0-.8.6-1.4 1.4-1.4h.1c.8 0 1.4.6 1.4 1.4v17.7c.1.8-.6 1.4-1.4 1.4zm4.4 0c-.9 0-1.5-.6-1.5-1.4v-17.7c0-.8.6-1.4 1.4-1.4h.1c.8 0 1.4.6 1.4 1.4v17.7c.1.8-.6 1.4-1.4 1.4zm4.4 0c-.9 0-1.5-.6-1.5-1.4v-17.7c0-.8.6-1.4 1.4-1.4h.1c.8 0 1.4.6 1.4 1.4v17.7c.1.8-.6 1.4-1.4 1.4zm-43.9 34.7c-.9 0-1.5-.6-1.5-1.4v-17.8c0-.8.6-1.4 1.4-1.4h.1c.8 0 1.4.6 1.4 1.4v17.7c0 .9-.6 1.5-1.4 1.5zm4.4 0c-.9 0-1.5-.6-1.5-1.4v-17.8c0-.8.6-1.4 1.4-1.4h.1c.8 0 1.4.6 1.4 1.4v17.7c0 .9-.6 1.5-1.4 1.5zm4.4 0c-.9 0-1.5-.6-1.5-1.4v-17.8c0-.8.6-1.4 1.4-1.4h.1c.8 0 1.4.6 1.4 1.4v17.7c0 .9-.6 1.5-1.4 1.5zm4.4 0c-.9 0-1.5-.6-1.5-1.4v-17.8c0-.8.6-1.4 1.4-1.4h.1c.8 0 1.4.6 1.4 1.4v17.7c0 .9-.6 1.5-1.4 1.5zm4.4 0c-.9 0-1.5-.6-1.5-1.4v-17.8c0-.8.6-1.4 1.4-1.4h.1c.8 0 1.4.6 1.4 1.4v17.7c0 .9-.7 1.5-1.4 1.5zm4.3 0c-.9 0-1.5-.6-1.5-1.4v-17.8c0-.8.6-1.4 1.4-1.4h.1c.8 0 1.4.6 1.4 1.4v17.7c.1.9-.6 1.5-1.4 1.5zm4.4 0c-.9 0-1.5-.6-1.5-1.4v-17.8c0-.8.6-1.4 1.4-1.4h.1c.8 0 1.4.6 1.4 1.4v17.7c.1.9-.6 1.5-1.4 1.5zm4.4 0c-.9 0-1.5-.6-1.5-1.4v-17.8c0-.8.6-1.4 1.4-1.4h.1c.8 0 1.4.6 1.4 1.4v17.7c.1.9-.6 1.5-1.4 1.5zm4.4 0c-.9 0-1.5-.6-1.5-1.4v-17.8c0-.8.6-1.4 1.4-1.4h.1c.8 0 1.4.6 1.4 1.4v17.7c.1.9-.6 1.5-1.4 1.5zm4.4 0c-.9 0-1.5-.6-1.5-1.4v-17.8c0-.8.6-1.4 1.4-1.4h.1c.8 0 1.4.6 1.4 1.4v17.7c.1.9-.6 1.5-1.4 1.5zm4.4 0c-.9 0-1.5-.6-1.5-1.4v-17.8c0-.8.6-1.4 1.4-1.4h.1c.8 0 1.4.6 1.4 1.4v17.7c.1.9-.6 1.5-1.4 1.5z" fill="#0e0f0d"/><path d="m122.9 69.5h2.9v1.1h-2.9zm4.4 0h2.9v1.1h-2.9zm4.4 0h2.9v1.1h-2.9zm4.4 0h2.9v1.1h-2.9zm4.3 0h2.9v1.1h-2.9zm4.4 0h2.9v1.1h-2.9zm4.4 0h2.9v1.1h-2.9zm4.4 0h2.9v1.1h-2.9zm4.4 0h2.9v1.1h-2.9zm4.4 0h2.9v1.1h-2.9zm4.4 0h2.9v1.1h-2.9zm-43.9 34.7h2.9v1.1h-2.9zm4.4 0h2.9v1.1h-2.9zm4.4 0h2.9v1.1h-2.9zm4.4 0h2.9v1.1h-2.9zm4.3 0h2.9v1.1h-2.9zm4.4 0h2.9v1.1h-2.9zm4.4 0h2.9v1.1h-2.9zm4.4 0h2.9v1.1h-2.9zm4.4 0h2.9v1.1h-2.9zm4.4 0h2.9v1.1h-2.9zm4.4 0h2.9v1.1h-2.9z" fill="#3a2d29"/><path d="m285.4 126.8v28.9c0 2.6-2.1 4.7-4.7 4.7h-267.4c-2.6 0-4.7-2.1-4.7-4.7v-28.9c0-2.6 2.1-4.7 4.7-4.7h267.5c2.5 0 4.6 2.1 4.6 4.7z" fill="#2e2b24"/><path d="m280.8 123.4c1.7 0 3.2 1.4 3.2 3.2v28c0 1.7-1.4 3.2-3.2 3.2h-267.6c-1.7 0-3.2-1.4-3.2-3.2v-28c0-1.7 1.4-3.2 3.2-3.2z" fill="#d4c1a0"/><path d="m13.2 125.3h267.6c.7 0 1.3.6 1.3 1.3v28c0 .7-.6 1.3-1.3 1.3h-267.6c-.7 0-1.3-.6-1.3-1.3v-28c0-.8.6-1.3 1.3-1.3zm267.6 30.3c.6 0 1.1-.5 1.1-1.1v-28c0-.6-.5-1.1-1.1-1.1h-267.6c-.6 0-1.1.5-1.1 1.1v28c0 .6.5 1.1 1.1 1.1z"/><path d="m26.7 149.9c-.1 0-.2.1-.2.2v2.1c0 .1.1.2.2.2h1c.1 0 .2-.1.2-.2v-.4c0-.1-.1-.2-.2-.2h-.6c-.1 0-.2-.1-.2-.2v-1.4c-.1 0-.1-.1-.2-.1zm4.8 0c-.1 0-.1 0 0 0-.1 0-.2.1-.2.2v2.1c0 .1 0 .1.1.1h1c.1 0 .2-.1.2-.2v-.4c0-.1-.1-.2-.2-.2h-.6c-.1 0-.2-.1-.2-.2v-1.4c0 .1 0 0-.1 0zm-15.3 0c-.1 0-.2.1-.2.2v2.1c0 .1.1.2.2.2s.1-.1.1-.2v-1.4c0-.1.1-.2.2-.2h.1c.1 0 .2.1.2.2l.1.7c0 .1.1.2.2.2h.3c.1 0 .1-.1.2-.2l.4-1c0-.1.1-.1.1 0v1.6c0 .1.1.2.2.2h.4c.1 0 .1-.1.1-.2l.3-.7c0-.1.1-.2.2-.2h.7c.1 0 .2.1.2.2v.7c0 .1 0 .1.1.1h.4c.1 0 .2-.1.2-.2v-2.2c0-.1-.1-.2-.2-.2h-1.1c-.1 0-.2.1-.2.2l-.7 1.8s-.1 0-.1-.1v-1.7c0-.1 0-.2-.1-.2h-.4c-.1 0-.1.1-.2.2 0 0-.4 1.1-.5 1.1h-.1c0-.1-.2-1.2-.2-1.2 0-.1-.1-.2-.2-.2zm19.2 0c-.1 0-.2.1-.2.2v2.3l.1.1h1.1c.1 0 .1-.1.1-.1 0-.1-.1-.2-.2-.2h-.8c-.1 0-.2-.1-.2-.2v-1.1c0-.1.1-.2.2-.2h.8c.1 0 .2-.1.2-.2v-.4c0-.1-.1-.2-.2-.2zm3.5 0c-.1 0-.2.1-.2.2v2.3l.1.1h.4c.1 0 .1-.1.2-.2v-.7c0-.1.1-.2.2-.2h.5c.1 0 .2.1.2.2v.7c0 .1.1.2.2.2s.1-.1.1-.2v-.9c0-.2-.1-.2-.2-.3h-.1v-.1-.9c0-.1-.1-.2-.2-.2zm2.4 0c-.1 0-.2.1-.2.2v2.2c0 .1 0 .1.1.1h1.5c.1 0 .2-.1.2-.2v-2.2c0-.1-.1-.2-.2-.2zm2.1 0h-.1c-.1 0-.1.1-.1.1v2.1c0 .1 0 .2.1.2s.1-.1.1-.2v-1.4c0-.1.1-.2.2-.2h.7c.1 0 .2.1.2.2v1.4c0 .1.1.2.2.2s.1-.1.1-.2v-2.1c0-.1-.1-.2-.2-.2zm3.4 0c-.1 0-.2 0-.2.1v2.4s.1.1.2.1h1.2c.1 0 .2-.1.2-.2s-.1-.2-.2-.2h-.8c-.1 0-.2-.1-.2-.2v-1.1c0-.1.1-.2.2-.2h.8c.1 0 .2-.1.2-.2v-.4c0-.1-.1-.2-.2-.2zm-.9 0c-.1 0-.1 0-.1.1v1.5c0 .1 0 .1-.1.1h-.1c-.1 0-.2.1-.2.2v.4c0 .1 0 .1.1.1h.8c.1 0 .2-.1.2-.2v-.4c0-.1-.1-.1-.1-.1h-.1l-.1-.1v-1.4c-.2-.1-.2-.2-.3-.2zm-24.5 0c-.1 0-.2.1-.2.2v.4c0 .1.1.2.2.2h.2c.1 0 .2.1.2.2v1.4c0 .1.1.2.2.2s.1-.1.1-.2v-1.4c0-.1.1-.1.2-.2h.7c.1 0 .2.1.2.2v1.4c0 .1.1.2.2.2s.1-.1.1-.2v-1.4c0-.1.1-.1.2-.2h.3c.1 0 .2-.1.2-.2v-.4c0-.1-.1-.2-.2-.2zm15.7 0h-.1c-.1 0-.1.1-.1.1v.4c0 .1.1.2.2.2h.2c.1 0 .2.1.2.2v1.5h.1c.1 0 .1-.1.1-.2v-1.4c0-.1.1-.1.2-.2h.2c.1 0 .2-.1.2-.2v-.4c0-.1-.1-.2-.2-.2h-1zm12.8 0h-1.2c-.1 0-.2.1-.2.2v1.1c0 .1.1.2.2.2h.6c.1 0 .2.1.2.2v.5l-.1.1h-.8c-.1 0-.2.1-.2.2s0 .1.1.1h1.6l.1-.1v-1.1c0-.1-.1-.2-.2-.2h-.9c-.1 0-.2-.1-.2-.2v-.5c0-.1.1-.2.2-.2h.8c.1 0 .2-.1.2-.2s-.1-.1-.2-.1zm-25 .1c-.1 0-.2.1-.2.2v.7c0 .1-.1.2-.2.2h-.2c-.1 0-.2.1-.2.2v1c0 .1.1.1.1.2h1.6c.1 0 .2-.1.2-.2s-.1-.2-.2-.2h-1.3c-.1 0-.2-.1-.2-.2v-.4c0-.1.1-.2.2-.2h1.2c.1 0 .1-.1.1-.1 0-.1-.1-.1-.2-.2h-.3c-.1 0-.1 0-.1-.1v-.6c0-.1.1-.2.2-.2h.3c.1 0 .2-.1.2-.2s-.1-.2-.2-.2zm4.8 0c-.1 0-.1 0-.2.1v.8c0 .1-.1.2-.2.2h-.2c-.1 0-.2.1-.2.2v1.1s.1 0 .1.1h1.6c.1 0 .2-.1.2-.2s-.1-.2-.2-.2h-1.3c-.1 0-.2-.1-.2-.2v-.4c0-.1.1-.2.2-.2h1.2c.1 0 .1-.1.1-.1 0-.1-.1-.1-.2-.2h-.3c-.1 0-.1 0-.1-.1v-.6c0-.1.1-.2.2-.2h.3c.1 0 .2-.1.2-.2s-.1-.2-.2-.2zm4 0c-.1 0-.1 0-.2.1v.8c0 .1-.1.2-.2.2h-.2c-.1 0-.2.1-.2.2v1.1l.1.1h1.6c.1 0 .2-.1.2-.2s-.1-.2-.2-.2h-1.3c-.1 0-.2-.1-.2-.2v-.4c0-.1.1-.2.2-.2h1.2c.1 0 .1-.1.1-.1 0-.1-.1-.1-.2-.2h-.3c-.1 0-.1 0-.1-.1v-.6c0-.1.1-.2.2-.2h.3c.1 0 .2-.1.2-.2s-.1-.2-.2-.2zm-13.8.3h.4c.1 0 .2.1.2.2v.5c0 .1-.1.2-.2.2h-.7c-.2 0-.2-.2-.2-.2l.2-.4c.2-.3.2-.3.3-.3zm19.4 0h.5c.1 0 .2.1.2.2v.5c0 .1-.1.2-.2.2h-.6c-.1 0-.2-.1-.2-.2v-.5c.1-.2.2-.2.3-.2zm2.3 0h.7c.1 0 .2.1.2.2v1.1c0 .1-.1.2-.2.2h-.7c-.1 0-.2-.1-.2-.2v-1.1c0-.2.1-.2.2-.2zm35.6-3.9s-1.1 4.4-1.2 4.5c0 .1-.2.2-.2 0-.1-.2-.9-3.1-.9-3.1h-1.6s1.2 3.8 1.2 4c.6 1.2 1.8.7 2-.2.3-.9 1.4-5.2 1.4-5.2zm-16.2.3-2.4 1.6v-.5h-.8v2.1c0 .1-.1.2-.2 0 0 0-1-1.5-1.4-1.9-.3-.4-1.4-.4-1.4.5v3.8h.8v-2.7c0-.1.1-.1.2 0 0 0 1.7 2.6 1.8 2.7.2.2 1 .4 1-.5v-3.4h.8c.1 0 .2.1.2.1v2.7c0 .7.6 1.2 1.2 1.2h1.4v-.7h-.6c-.2 0-.4-.2-.4-.4v-2.6c0-.1.1-.3.3-.3h.7v-.6h-1c-.1 0-.1-.1-.1-.1zm-8.2 0v5.7h1.5v-5.7zm35 1c-.7 0-1.4.3-1.8.8l-.1.1c-.4.4-.6.9-.6 1.5 0 .3.1.6.2.9v.1c.3.6.8 1 1.5 1.2h.1c.2 0 .4.1.6.1 1.4 0 2.5-1.1 2.5-2.4.1-1.2-1-2.3-2.4-2.3zm-6.5 0c-.9 0-1.6.6-1.6 1.6 0 .9 1 1.2 1.6 1.3.3 0 .7.3.7.6s-.2.5-.5.5h-1.6v.7h1.9c.9 0 1.5-.7 1.5-1.6v-.4-.1c-.2-.7-.7-.9-1.6-1.1 0 0-.5-.1-.5-.4 0-.2.1-.3.2-.4h1.3v-.7zm-9.8 0v.8h1.5v-.8zm6.3 0v.8h1.5v-.8zm5.8 0v.8h1.5v-.8zm-20.1 0c-.4 0-.7.2-.9.6v.1c0 .1-.1.3-.1.5v2.3c0 .7.4 1.2 1 1.2h2.2v-.7h-1.3c-.2 0-.4-.2-.4-.4v-.9h1.5v-.7h-1.5v-.9c0-.2.2-.4.4-.4h1.3v-.7zm2.5.1v3.5c0 .1 0 .3.1.4v.1c.2.4.5.6.9.7h1.5v-.7h-.6c-.2 0-.4-.2-.4-.4v-3.6zm2.7 0v3.5c0 .7.5 1.1 1 1.2h1.5v-.7h-.6c-.2 0-.4-.2-.4-.4v-3.6zm24.8 0v2.1c0 .1-.1.2-.2 0 0 0-1-1.5-1.4-1.9-.3-.4-1.4-.4-1.4.5v3.8h.8v-2.7c0-.1.1-.1.2 0 0 0 1.7 2.6 1.8 2.7 0 0 .1.1.2.1h.1c.3.1.8 0 .8-.6v-4.1h-.9zm-5.7.5c.6 0 .8.8.8 1.8s-.3 1.8-.8 1.8c-.2 0-.3 0-.4-.1l-.1-.1v-.1c-.2-.3-.3-.9-.3-1.5v-.2c0-.6.1-1 .3-1.3.1-.2.3-.3.5-.3zm-16.3.5v3.6h1.5v-3.6zm6.3 0v3.6h1.5v-3.6zm5.8 0v3.6h1.5v-3.6z"/><g clip-rule="evenodd" fill-rule="evenodd"><path d="m50.7 150.4-.1-.4h.2c.1 0 .2 0 .2.1s0 .1-.1.1l.1.2h-.1l-.1-.2h-.1zm.1-.3c.1 0 .1 0 .1-.1s0-.1-.1-.1h-.1z"/><path d="m50.4 150.2c0-.2.2-.4.4-.4s.4.2.4.4-.2.4-.4.4c-.2-.1-.4-.2-.4-.4zm.4.3c.2 0 .3-.1.3-.3s-.1-.3-.3-.3-.3.1-.3.3c0 .1.1.3.3.3z"/></g><path d="m94.9 147.9h-.1v.4h-.1v-.4h-.1v-.1z"/><path d="m95.3 148.2-.1-.3-.1.3h-.1l-.1-.3v.3h-.1v-.4h.2l.1.3.1-.3h.1zm.4 4.1h-.3v-2.5h.3zm1.9 0h-.3v-1.3c0-.1 0-.1-.1-.2s-.2-.1-.3-.1-.3.1-.3.2c-.1.1-.1.2-.1.4v1h-.3v-1.8h.3v.2c.1-.2.3-.3.5-.3s.4.1.5.2.1.2.1.3zm1.1 0h-.2c-.1 0-.2 0-.2-.1-.1-.1-.1-.1-.1-.2v-1.4h-.2v-.3h.2v-.3h.3v.5h.3v.3h-.3v1.3c0 .1 0 .1.1.1h.2v.1zm1.8-.9v.1h-1.3v.1c0 .1 0 .3.1.4s.2.2.3.2c.2 0 .4-.1.5-.4h.3c-.1.4-.3.6-.7.6-.5 0-.8-.3-.8-1 0-.3.1-.5.2-.7s.3-.3.6-.3c.2 0 .4.1.5.2.2.2.3.5.3.8zm-.3-.2c0-.4-.2-.6-.5-.6s-.5.2-.5.6zm1 1.1h-.3v-2.5h.3zm.7 0h-.3v-2.5h.3zm.7-2.2h-.3v-.4h.3zm0 2.2h-.3v-1.8h.3zm1.9-.2c0 .4-.1.6-.3.8-.1.1-.3.1-.4.1-.2 0-.4-.1-.5-.2s-.2-.2-.2-.4h.3c0 .1.1.2.2.2s.2.1.2.1c.3 0 .5-.2.5-.6v-.1-.1c-.2.2-.4.3-.6.3s-.3-.1-.5-.2c-.1-.2-.2-.4-.2-.7s.1-.5.2-.7.3-.3.5-.3.4.1.5.3v-.2h.3zm-.3-.7c0-.5-.2-.7-.5-.7-.1 0-.2.1-.3.2s-.1.3-.1.5 0 .3.1.5c.1.1.2.2.4.2.1 0 .3-.1.3-.2.1-.1.1-.3.1-.5zm2.3 0v.1h-1.3v.1c0 .1 0 .3.1.4s.2.2.3.2c.2 0 .4-.1.5-.4h.3c-.1.4-.3.6-.7.6-.5 0-.8-.3-.8-1 0-.3.1-.5.2-.7s.3-.3.6-.3c.2 0 .4.1.5.2.2.2.3.5.3.8zm-.3-.2c0-.4-.2-.6-.5-.6s-.5.2-.5.6zm2 1.1h-.3v-1.3c0-.1 0-.1-.1-.2s-.2-.1-.3-.1-.3.1-.3.2c-.1.1-.1.2-.1.4v1h-.3v-1.8h.3v.2c.1-.2.3-.3.5-.3s.4.1.5.2.1.2.1.3zm1.1 0h-.2c-.1 0-.2 0-.2-.1-.1-.1-.1-.1-.1-.2v-1.4h-.2v-.3h.2v-.3h.3v.5h.3v.3h-.4v1.3c0 .1 0 .1.1.1h.2zm3-2.2h-.8v2.2h-.3v-2.2h-.8v-.3h1.9zm1.8 1.3v.1h-1.3v.1c0 .1 0 .3.1.4s.2.2.3.2c.2 0 .4-.1.5-.4h.3c-.1.4-.3.6-.7.6-.5 0-.8-.3-.8-1 0-.3.1-.5.2-.7s.3-.3.6-.3c.2 0 .4.1.5.2.2.2.3.5.3.8zm-.3-.2c0-.4-.2-.6-.5-.6s-.5.2-.5.6zm.9 1.1h-.3v-2.5h.3zm2-.9v.1h-1.3v.1c0 .1 0 .3.1.4s.2.2.3.2c.2 0 .4-.1.5-.4h.3c-.1.4-.3.6-.7.6-.5 0-.8-.3-.8-1 0-.3.1-.5.2-.7s.3-.3.6-.3c.2 0 .4.1.5.2.2.2.3.5.3.8zm-.3-.2c0-.4-.2-.6-.5-.6s-.5.2-.5.6zm2-.7-.7 1.8h-.3l-.6-1.8h.3l.5 1.5.5-1.5zm.6-.4h-.3v-.4h.3zm0 2.2h-.3v-1.8h.3zm1.8-.5c0 .2-.1.3-.2.4s-.3.2-.5.2c-.3 0-.4-.1-.6-.2-.1-.1-.1-.2-.2-.4h.3c0 .1 0 .2.1.3s.2.1.3.1.2 0 .3-.1c.1 0 .1-.1.1-.2s-.1-.2-.2-.2l-.4-.1c-.2 0-.3-.1-.4-.2s-.1-.2-.1-.3c0-.2.1-.3.2-.4s.3-.1.5-.1.3 0 .5.1c.1.1.2.2.2.4h-.3c0-.2-.1-.3-.4-.3-.1 0-.2 0-.3.1s-.1.1-.1.2.1.2.2.2l.5.1c.3 0 .5.1.5.4zm.6-1.7h-.3v-.4h.3zm0 2.2h-.3v-1.8h.3zm1.9-.9c0 .3-.1.5-.2.7s-.3.3-.6.3-.5-.1-.6-.3-.2-.4-.2-.7.1-.5.2-.7.3-.2.6-.2.4.1.6.2.2.4.2.7zm-.2 0c0-.2-.1-.4-.2-.5s-.2-.2-.4-.2c-.1 0-.3.1-.4.2s-.2.3-.2.5 0 .4.1.5.2.2.4.2.3-.1.4-.2c.2-.2.3-.3.3-.5zm2 .9h-.3v-1.3c0-.1 0-.1-.1-.2s-.2-.1-.3-.1-.3.1-.3.2c-.1.1-.1.2-.1.4v1h-.3v-1.8h.3v.2c.1-.2.3-.3.5-.3s.4.1.5.2.1.2.1.3z"/><path d="m220 135.7h-.5c0-.1-.1-.1-.1-.2v-.2-.1s-.1-.1-.2-.1h-.5v.6h-.4v-1.5h1.2c.1 0 .2 0 .3.1s.2.2.2.3c0 .2-.1.3-.3.4.1.1.2.1.2.2v.4zm-.5-1.1c0-.1-.1-.2-.2-.2h-.6v.4h.6c.1 0 .1 0 .2-.1zm2.4 1.1h-1.6v-1.5h1.5v.3h-1.1v.4h1v.3h-1v.4h1.1v.1zm1.9-.4c0 .2-.1.3-.2.4-.2.1-.4.1-.6.1s-.4 0-.6-.1c-.1-.1-.2-.2-.3-.4h.4c0 .2.2.2.5.2.1 0 .2 0 .3-.1.1 0 .1-.1.1-.1 0-.1-.1-.2-.3-.2l-.5-.1c-.1 0-.3-.1-.3-.1-.1-.1-.1-.2-.1-.3 0-.2.1-.3.2-.4s.3-.1.6-.1.5 0 .6.1.2.2.2.4h-.4c0-.1 0-.1-.1-.2-.1 0-.2-.1-.3-.1-.2 0-.4.1-.4.2s.1.1.2.2l.4.1c.2 0 .3.1.4.1.2.1.2.2.2.4zm1.9.4h-1.6v-1.5h1.5v.3h-1.1v.4h1v.3h-1v.4h1.1v.1zm1.8-1.3h-.6v1.3h-.4v-1.3h-.6v-.3h1.7v.3z"/><path d="m252 135.2c0 .2-.1.3-.2.4-.2.1-.4.1-.6.1s-.4 0-.6-.1c-.1-.1-.2-.2-.3-.4h.4c0 .2.2.2.5.2.1 0 .2 0 .3-.1.1 0 .1-.1.1-.1 0-.1-.1-.2-.3-.2l-.5-.1c-.1 0-.3-.1-.3-.1-.1-.1-.1-.2-.1-.3 0-.2.1-.3.2-.4s.3-.1.6-.1.5 0 .6.1.2.2.2.4h-.4c0-.1 0-.1-.1-.2-.1 0-.2-.1-.3-.1-.2 0-.4.1-.4.2s.1.1.2.2l.4.1c.2 0 .3.1.4.1.1.2.2.3.2.4zm1.8-.8h-.6v1.3h-.4v-1.3h-.6v-.3h1.7v.3zm2 1.3h-.4l-.1-.3h-.8l-.1.3h-.4l.7-1.5h.5zm-.6-.6-.3-.6-.3.6zm2.6.6h-.4l-.8-1.1v1.1h-.4v-1.5h.4l.8 1.1v-1.1h.4zm2.1-.9c0 .2-.1.4-.2.6s-.3.2-.5.2h-1v-1.5h1c.2 0 .3.1.5.2.1.1.2.3.2.5zm-.4.1c0-.1 0-.2-.1-.3s-.2-.1-.3-.1h-.5v1h.4c.1 0 .3 0 .3-.1.1-.2.2-.4.2-.5zm1.4.3h-.8v-.3h.8zm2 0c0 .1-.1.2-.2.3s-.3.1-.5.1h-1v-1.5h.9c.2 0 .4 0 .5.1s.2.2.2.3-.1.2-.2.3c.2.1.3.3.3.4zm-.5-.6c0-.1-.1-.2-.3-.2h-.5v.3h.5c.2 0 .3 0 .3-.1zm.1.6c0-.1-.1-.2-.3-.2h-.5v.4h.5c.2 0 .3-.1.3-.2zm2.4-1.1-.7 1v.6h-.4v-.6l-.7-1h.5l.4.7.4-.7z"/><path d="m273.4 134.9c0 .2-.1.4-.3.6-.2.1-.4.2-.7.2s-.6-.1-.7-.2c-.2-.1-.3-.3-.3-.6 0-.2.1-.4.2-.6.2-.2.4-.2.8-.2.3 0 .6.1.7.2.3.2.3.4.3.6zm-.4 0c0-.2-.1-.3-.2-.4s-.3-.1-.4-.1c-.2 0-.3 0-.4.1s-.2.2-.2.4.1.3.2.4.3.1.5.1.3 0 .4-.1.1-.2.1-.4zm2.4.8h-.4l-.8-1.1v1.1h-.4v-1.5h.4l.8 1.1v-1.1h.4z"/><path d="m277.6 151.7h-61.9c-2.2 0-3.9-1.8-3.9-3.9v-6.6c0-2.2 1.8-3.9 3.9-3.9h61.9c2.2 0 3.9 1.8 3.9 3.9v6.6c0 2.2-1.7 3.9-3.9 3.9z" fill="#2e2b24"/><path d="m215.7 138.1c-1.7 0-3.2 1.4-3.2 3.2v6.6c0 1.7 1.4 3.2 3.2 3.2h61.9c1.7 0 3.2-1.4 3.2-3.2v-6.6c0-1.7-1.4-3.2-3.2-3.2z" fill="#2b201d"/><path d="m232.4 149.8h-16.2c-.9 0-1.7-.8-1.7-1.7v-7.1c0-.9.8-1.7 1.7-1.7h16.2c.9 0 1.7.8 1.7 1.7v7.1c0 .9-.7 1.7-1.7 1.7zm44.6 0h-16.6c-.9 0-1.7-.8-1.7-1.7v-7.1c0-.9.8-1.7 1.7-1.7h16.6c.9 0 1.7.8 1.7 1.7v7.1c0 .9-.7 1.7-1.7 1.7z" fill="#191210"/><path d="m267 139.3h3.5v10.5h-3.5z" fill="#140e0c"/><path d="m.5 60.6h56.3v-1.7h31.2v1.7h29.9v54.4h-29.9v1.7h-31.2v-1.7h-56.4l-.4-26.6z" fill="#1e1615"/><path d="m29.2 108.3h88.7v-41h-88.7c-.2 0-.3.1-.3.3v40.4c0 .2.1.3.3.3z" fill="#110d0c"/><path d="m293.5 60.5h-56.2v-1.7h-31.3v1.7h-29.9v54.5h29.9v1.7h31.3v-1.7h56.3l.4-26.7z" fill="#1e1615"/><path d="m264.8 108.2h-88.7v-41h88.7c.2 0 .3.1.3.3v40.5c0 .1-.1.2-.3.2z" fill="#110d0c"/><path d="m221.9 113.9v.2c0 .3-.2.5-.5.5h-9.5c-.3 0-.5-.2-.5-.5v-.2zm12.1 0v.2c0 .3-.2.5-.5.5h-9.5c-.3 0-.5-.2-.5-.5v-.2zm-22.6-52.9v-.2c0-.3.2-.5.5-.5h9.5c.3 0 .5.2.5.5v.2zm12.1 0v-.2c0-.3.2-.5.5-.5h9.5c.3 0 .5.2.5.5v.2z" fill="#1b1e20"/><path d="m292.1 113.9h-111.3c-.9 0-1.7-.8-1.7-1.7v-2.8h-1.2c-.2 0-.3-.1-.3-.3v-43.3c0-.2.1-.3.3-.3h1.2v-2.8c0-.9.8-1.7 1.7-1.7h111.6c1.1 0 2 .7 2.3 1.7.1.2.1.4.1.7v48.2c0 .2 0 .5-.1.7-.3 1-1.2 1.7-2.3 1.7h-.3z" fill="url(#a)"/><circle cx="273" cy="87.4" fill="url(#b)" r="19.1"/><circle cx="273" cy="87.4" fill="#2a201f" r="15.9"/><circle cx="273" cy="87.4" fill="#020101" r="14.3"/><circle cx="273" cy="87.4" fill="#1e1514" r="13.9"/><path d="m200.3 111.7c-4.3 0-8.2-3.5-8.2-7.8v-33c0-4.3 3.9-7.8 8.2-7.8m45.2 0c4.3 0 8.2 3.5 8.2 7.8v33.1c0 4.3-3.9 7.8-8.2 7.8" fill="#211715"/><path d="m200.3 63.1c-4.3 0-7.8 3.5-7.8 7.8v33.1c0 4.3 3.5 7.8 7.8 7.8h45.1c4.3 0 7.8-3.5 7.8-7.8v-33.1c0-4.3-3.5-7.8-7.8-7.8z" fill="#3b3130"/><path d="m252.2 70.8v33.2c0 3.4-2.8 6.1-6.1 6.1h-46.5c-3.4 0-6.1-2.8-6.1-6.1v-33.2c0-3.4 2.8-6.1 6.1-6.1h46.5c3.4 0 6.1 2.8 6.1 6.1z" fill="#4a3937"/><path d="m251 71.4v32c0 3-2.4 5.4-5.4 5.4h-45.4c-3 0-5.4-2.4-5.4-5.4v-32c0-3 2.4-5.4 5.4-5.4h45.4c3 0 5.4 2.4 5.4 5.4z" fill="#2d2223"/><path d="m248.2 71.6v31.7c0 1.5-1.2 2.7-2.7 2.7h-45.2c-1.5 0-2.7-1.2-2.7-2.7v-31.7c0-1.5 1.2-2.7 2.7-2.7h45.2c1.5 0 2.7 1.2 2.7 2.7z" fill="#d4c1a0"/><path d="m248.2 71.6v31.7c0 1.5-1.2 2.7-2.7 2.7h-45.2c-1.5 0-2.7-1.2-2.7-2.7v-31.7c0-1.5 1.2-2.7 2.7-2.7h45.2c1.5-.1 2.7 1.2 2.7 2.7zm-50.5 31.7c0 1.5 1.2 2.6 2.6 2.6h45.2c1.5 0 2.6-1.2 2.6-2.6v-31.7c0-1.5-1.2-2.6-2.6-2.6h-45.2c-1.5 0-2.6 1.2-2.6 2.6z" fill="#682c00"/><path d="m209.8 95.9v7.7c0 .8-.6 1.4-1.4 1.4h-7.7c-.8 0-1.4-.6-1.4-1.4v-7.7c0-.8.6-1.4 1.4-1.4h7.7c.7 0 1.4.6 1.4 1.4z" fill="#2e251a"/><path d="m208.9 99.8c0-1.7-.3-3-.6-3.7-.3-.6-1.5-.7-3.8-.7s-3.5.1-3.8.7c-.4.7-.6 2-.6 3.7s.3 3 .6 3.7c.3.6 1.5.7 3.8.7s3.5-.1 3.8-.7c.3-.7.6-2 .6-3.7z" fill="#d3c09e"/><path d="m204.3 103.4h.1c2 0 3.6-1.6 3.6-3.6s-1.6-3.6-3.6-3.6h-.1c-1.9.1-3.5 1.7-3.5 3.6.1 1.9 1.6 3.5 3.5 3.6z" fill="#d2b892"/><path d="m209.8 83.7v7.7c0 .8-.6 1.4-1.4 1.4h-7.7c-.8 0-1.4-.6-1.4-1.4v-7.7c0-.8.6-1.4 1.4-1.4h7.7c.7 0 1.4.6 1.4 1.4z" fill="none" stroke="#682c00" stroke-miterlimit="10" stroke-width=".113"/><path d="m209.8 83.7v7.7c0 .8-.6 1.4-1.4 1.4h-7.7c-.8 0-1.4-.6-1.4-1.4v-7.7c0-.8.6-1.4 1.4-1.4h7.7c.7 0 1.4.6 1.4 1.4z" fill="#2c2316"/><path d="m208.9 87.6c0-1.7-.3-3-.6-3.7-.3-.6-1.5-.7-3.8-.7s-3.5.1-3.8.7c-.4.7-.6 2-.6 3.7s.3 3 .6 3.7c.3.6 1.5.7 3.8.7s3.5-.1 3.8-.7c.3-.7.6-2 .6-3.7z" fill="#d3c09e"/><circle cx="204.5" cy="87.6" fill="#d2b892" r="3.6"/><path d="m209.8 71.5v7.7c0 .8-.6 1.4-1.4 1.4h-7.7c-.8 0-1.4-.6-1.4-1.4v-7.7c0-.8.6-1.4 1.4-1.4h7.7c.7 0 1.4.6 1.4 1.4z" fill="#2c2316"/><path d="m208.9 75.4c0-1.7-.3-3-.6-3.7-.3-.6-1.5-.7-3.8-.7s-3.5.1-3.8.7c-.4.7-.6 2-.6 3.7s.3 3 .6 3.7c.3.6 1.5.7 3.8.7s3.5-.1 3.8-.7c.3-.7.6-2 .6-3.7z" fill="#d3c09e"/><circle cx="204.5" cy="75.4" fill="#d2b892" r="3.6"/><path d="m222 95.9v7.7c0 .8-.6 1.4-1.4 1.4h-7.7c-.8 0-1.4-.6-1.4-1.4v-7.7c0-.8.6-1.4 1.4-1.4h7.7c.7 0 1.4.6 1.4 1.4z" fill="#2c2316"/><path d="m221.1 99.8c0-1.7-.3-3-.6-3.7-.3-.6-1.5-.7-3.8-.7s-3.5.1-3.8.7c-.4.7-.6 2-.6 3.7s.3 3 .6 3.7c.3.6 1.5.7 3.8.7s3.5-.1 3.8-.7c.3-.7.6-2 .6-3.7z" fill="#d3c09e"/><circle cx="216.7" cy="99.8" fill="#d2b892" r="3.6"/><path d="m222 83.7v7.7c0 .8-.6 1.4-1.4 1.4h-7.7c-.8 0-1.4-.6-1.4-1.4v-7.7c0-.8.6-1.4 1.4-1.4h7.7c.7 0 1.4.6 1.4 1.4z" fill="#2c2316"/><path d="m221.1 87.6c0-1.7-.3-3-.6-3.7-.3-.6-1.5-.7-3.8-.7s-3.5.1-3.8.7c-.4.7-.6 2-.6 3.7s.3 3 .6 3.7c.3.6 1.5.7 3.8.7s3.5-.1 3.8-.7c.3-.7.6-2 .6-3.7z" fill="#d3c09e"/><circle cx="216.7" cy="87.6" fill="#d2b892" r="3.6"/><path d="m222 71.5v7.7c0 .8-.6 1.4-1.4 1.4h-7.7c-.8 0-1.4-.6-1.4-1.4v-7.7c0-.8.6-1.4 1.4-1.4h7.7c.7 0 1.4.6 1.4 1.4z" fill="#2c2316"/><path d="m221.1 75.4c0-1.7-.3-3-.6-3.7-.3-.6-1.5-.7-3.8-.7s-3.5.1-3.8.7c-.4.7-.6 2-.6 3.7s.3 3 .6 3.7c.3.6 1.5.7 3.8.7s3.5-.1 3.8-.7c.3-.7.6-2 .6-3.7z" fill="#d3c09e"/><circle cx="216.7" cy="75.4" fill="#d2b892" r="3.6"/><path d="m234.2 95.9v7.7c0 .8-.6 1.4-1.4 1.4h-7.8c-.8 0-1.4-.6-1.4-1.4v-7.7c0-.8.6-1.4 1.4-1.4h7.7c.8 0 1.5.6 1.5 1.4z" fill="#2c2316"/><path d="m233.3 99.8c0-1.7-.3-3-.6-3.7-.3-.6-1.5-.7-3.8-.7s-3.5.1-3.8.7c-.4.7-.6 2-.6 3.7s.3 3 .6 3.7c.3.6 1.5.7 3.8.7s3.5-.1 3.8-.7c.4-.7.6-2 .6-3.7z" fill="#d3c09e"/><circle cx="228.9" cy="99.8" fill="#d2b892" r="3.6"/><path d="m234.2 83.7v7.7c0 .8-.6 1.4-1.4 1.4h-7.8c-.8 0-1.4-.6-1.4-1.4v-7.7c0-.8.6-1.4 1.4-1.4h7.7c.8 0 1.5.6 1.5 1.4z" fill="#2c2316"/><path d="m233.3 87.6c0-1.7-.3-3-.6-3.7-.3-.6-1.5-.7-3.8-.7s-3.5.1-3.8.7c-.4.7-.6 2-.6 3.7s.3 3 .6 3.7c.3.6 1.5.7 3.8.7s3.5-.1 3.8-.7c.4-.7.6-2 .6-3.7z" fill="#d3c09e"/><circle cx="228.9" cy="87.6" fill="#d2b892" r="3.6"/><path d="m234.2 71.5v7.7c0 .8-.6 1.4-1.4 1.4h-7.8c-.8 0-1.4-.6-1.4-1.4v-7.7c0-.8.6-1.4 1.4-1.4h7.7c.8 0 1.5.6 1.5 1.4z" fill="#2c2316"/><path d="m233.3 75.4c0-1.7-.3-3-.6-3.7-.3-.6-1.5-.7-3.8-.7s-3.5.1-3.8.7c-.4.7-.6 2-.6 3.7s.3 3 .6 3.7c.3.6 1.5.7 3.8.7s3.5-.1 3.8-.7c.4-.7.6-2 .6-3.7z" fill="#d3c09e"/><circle cx="228.9" cy="75.4" fill="#d2b892" r="3.6"/><path d="m246.4 95.9v7.7c0 .8-.6 1.4-1.4 1.4h-7.7c-.8 0-1.4-.6-1.4-1.4v-7.7c0-.8.6-1.4 1.4-1.4h7.7c.7 0 1.4.6 1.4 1.4z" fill="#2c2316"/><path d="m245.5 99.8c0-1.7-.3-3-.6-3.7-.3-.6-1.5-.7-3.8-.7s-3.5.1-3.8.7c-.4.7-.6 2-.6 3.7s.3 3 .6 3.7c.3.6 1.5.7 3.8.7s3.5-.1 3.8-.7c.4-.7.6-2 .6-3.7z" fill="#d3c09e"/><circle cx="241.1" cy="99.8" fill="#d2b892" r="3.6"/><path d="m246.4 83.7v7.7c0 .8-.6 1.4-1.4 1.4h-7.7c-.8 0-1.4-.6-1.4-1.4v-7.7c0-.8.6-1.4 1.4-1.4h7.7c.7 0 1.4.6 1.4 1.4z" fill="#2c2316"/><path d="m245.5 87.6c0-1.7-.3-3-.6-3.7-.3-.6-1.5-.7-3.8-.7s-3.5.1-3.8.7c-.4.7-.6 2-.6 3.7s.3 3 .6 3.7c.3.6 1.5.7 3.8.7s3.5-.1 3.8-.7c.4-.7.6-2 .6-3.7z" fill="#d3c09e"/><circle cx="241.1" cy="87.6" fill="#d2b892" r="3.6"/><path d="m246.4 71.5v7.7c0 .8-.6 1.4-1.4 1.4h-7.7c-.8 0-1.4-.6-1.4-1.4v-7.7c0-.8.6-1.4 1.4-1.4h7.7c.7 0 1.4.6 1.4 1.4z" fill="#2c2316"/><path d="m245.5 75.4c0-1.7-.3-3-.6-3.7-.3-.6-1.5-.7-3.8-.7s-3.5.1-3.8.7c-.4.7-.6 2-.6 3.7s.3 3 .6 3.7c.3.6 1.5.7 3.8.7s3.5-.1 3.8-.7c.4-.7.6-2 .6-3.7z" fill="#d3c09e"/><circle cx="241.1" cy="75.4" fill="#d2b892" r="3.6"/><path d="m204.3 102.4c0-.9-.1-2.2-.1-2.6 0-.5 0-1.7.1-2.6 0-.4 0-.8.1-1h.1c2 0 3.6 1.6 3.6 3.6s-1.6 3.6-3.6 3.6h-.1c-.1-.2-.1-.6-.1-1z" fill="#c8ab7a"/><path d="m204.3 102.4c1.5 0 2.7-1.2 2.7-2.6 0-1.5-1.2-2.6-2.7-2.6 0 .9-.1 2.2-.1 2.6s0 1.7.1 2.6" fill="#cdb487"/><path d="m203.3 100.1v-1h2.3v.6h-1.8v.2l.6.7-.4.4z" fill="#312a20"/><path d="m204.3 90.2c0-.9-.1-2.2-.1-2.6 0-.5 0-1.7.1-2.6 0-.4 0-.8.1-1h.1c2 0 3.6 1.6 3.6 3.6s-1.6 3.6-3.6 3.6h-.1c-.1-.2-.1-.6-.1-1z" fill="#c8ab7a"/><path d="m204.3 90.2c1.5 0 2.7-1.2 2.7-2.6 0-1.5-1.2-2.6-2.7-2.6 0 .9-.1 2.2-.1 2.6s0 1.7.1 2.6" fill="#cdb487"/><path d="m204.3 87.1v-.2s-.1-.1-.2-.1-.1 0-.2.1v1c0 .1 0 .2.1.2 0 .1.1.1.2.1v.6h-.2c-.1 0-.3-.1-.4-.2s-.1-.3-.1-.4v-1.4c0-.2 0-.3.1-.4s.2-.2.4-.2h.2c.2 0 .4.1.5.2s.1.3.1.4v1.2c0 .1 0 .1.1.2 0 0 .1.1.2.1h.2v-2h.5v2.6h-.8c-.2 0-.3-.1-.4-.2s-.1-.3-.1-.5v-1.1z" fill="#312a20"/><path d="m204.3 78c0-.9-.1-2.2-.1-2.6 0-.5 0-1.7.1-2.6 0-.4 0-.8.1-1h.1c2 0 3.6 1.6 3.6 3.6s-1.6 3.6-3.6 3.6h-.1c-.1-.2-.1-.6-.1-1z" fill="#c8ab7a"/><path d="m204.3 78c1.5 0 2.7-1.2 2.7-2.6 0-1.5-1.2-2.6-2.7-2.6 0 .9-.1 2.2-.1 2.6s0 1.7.1 2.6" fill="#cdb487"/><path d="m204.3 74.3c.1 0 .1.1.2.1 0-.1.1-.1.2-.1h.5c.1 0 .3.1.4.2s.1.3.1.4v1.4c0 .2 0 .3-.1.4s-.2.2-.4.2h-.3v-.6c.1 0 .1 0 .2-.1s.1-.1.1-.2v-.8-.2s-.1-.1-.2-.1h-.1v.7h-.4v-.6-.2s-.1-.1-.2-.1-.1 0-.2.1v1c0 .1 0 .2.1.2s.1.1.2.1v.6h-.2c-.1 0-.3-.1-.4-.2s-.1-.3-.1-.4v-1.4c0-.2 0-.3.1-.4s.2-.2.4-.2h.2c-.2.1-.1.1-.1.2z" fill="#312a20"/><path d="m216.5 102.4c0-.9-.1-2.2-.1-2.6 0-.5 0-1.7.1-2.6 0-.4 0-.8.1-1h.1c2 0 3.6 1.6 3.6 3.6s-1.6 3.6-3.6 3.6h-.1c0-.2-.1-.6-.1-1z" fill="#c8ab7a"/><path d="m216.5 102.4c1.5 0 2.7-1.2 2.7-2.6 0-1.5-1.2-2.6-2.7-2.6 0 .9-.1 2.2-.1 2.6s.1 1.7.1 2.6" fill="#cdb487"/><path d="m216.6 101.2-1-1.4v-1h1.3v-.4h.5v.4h.5v.6h-.5v1.8zm.2-1.8h-.8v.1l.7 1.1h.1z" fill="#312a20"/><path d="m216.5 90.2c0-.9-.1-2.2-.1-2.6s0-1.7.1-2.6c0-.4 0-.8.1-1h.1c2 0 3.6 1.6 3.6 3.6s-1.6 3.6-3.6 3.6h-.1c-.1-.2-.1-.6-.1-1z" fill="#c8ab7a"/><path d="m216.5 90.2c1.5 0 2.7-1.2 2.7-2.6s-1.2-2.6-2.7-2.6c0 .9-.1 2.2-.1 2.6s0 1.7.1 2.6" fill="#cdb487"/><path d="m216.9 88.9h-1.4v-2.6h.5v2h.4l-.1-.1v-1.2c0-.2 0-.3.1-.4s.3-.2.5-.2h.3c.1 0 .3.1.4.2s.1.3.1.4v1.4c0 .2 0 .4-.1.5s-.2.2-.4.2h-.1v-.6s.1 0 .1-.1v-1.1c0-.1 0-.1-.1-.2h-.2c-.1 0-.1 0-.2.1l-.1.1v.8l.1.1v.7z" fill="#312a20"/><path d="m216.5 78c0-.9-.1-2.2-.1-2.6 0-.5 0-1.7.1-2.6 0-.4 0-.8.1-1h.1c2 0 3.6 1.6 3.6 3.6s-1.6 3.6-3.6 3.6h-.1c0-.2-.1-.6-.1-1z" fill="#c8ab7a"/><path d="m216.5 78c1.5 0 2.7-1.2 2.7-2.6 0-1.5-1.2-2.6-2.7-2.6 0 .9-.1 2.2-.1 2.6s.1 1.7.1 2.6" fill="#cdb487"/><path d="m216.1 74.9v1.3s.1.1.2.1h.3l-.1-.1v-1.2c0-.2 0-.3.1-.4s.3-.2.5-.2h.3c.1 0 .3.1.4.2s.1.3.1.4v1.4c0 .2 0 .4-.1.5s-.2.2-.4.2h-1.3c-.2 0-.3-.1-.4-.2s-.1-.3-.1-.5v-1.4c0-.2 0-.3.1-.4s.2-.2.4-.2h.1zm.8 0-.1.1v1c0 .1 0 .1.1.2 0 0 .1.1.2.1s.1 0 .2-.1c0 0 .1-.1.1-.2v-1c0-.1 0-.1-.1-.1 0 0-.1-.1-.2-.1s-.1.1-.2.1z" fill="#312a20"/><path d="m228.6 102.4c0-.9-.1-2.2-.1-2.6 0-.5 0-1.7.1-2.6 0-.4 0-.8.1-1h.1c2 0 3.6 1.6 3.6 3.6s-1.6 3.6-3.6 3.6h-.1c0-.2-.1-.6-.1-1z" fill="#c8ab7a"/><path d="m228.6 102.4c1.5 0 2.7-1.2 2.7-2.6 0-1.5-1.2-2.6-2.7-2.6 0 .9-.1 2.2-.1 2.6.1.4.1 1.7.1 2.6" fill="#cdb487"/><path d="m227.6 98.5.5-.1 1.8 1.3v.8l-1.8-1.3v1.8h-.5z" fill="#312a20"/><path d="m228.8 90.2c0-.9-.1-2.2-.1-2.6 0-.5 0-1.7.1-2.6 0-.4 0-.8.1-1h.1c2 0 3.6 1.6 3.6 3.6s-1.6 3.6-3.6 3.6h-.1c0-.2-.1-.6-.1-1z" fill="#c8ab7a"/><path d="m228.8 90.2c1.5 0 2.7-1.2 2.7-2.6 0-1.5-1.2-2.6-2.7-2.6 0 .9-.1 2.2-.1 2.6s.1 1.7.1 2.6" fill="#cdb487"/><path d="m228.6 88.8c-.1.1-.1.1-.2.1h-.3c-.1 0-.3-.1-.4-.2s-.1-.3-.1-.4v-1.4c0-.2 0-.4.1-.5s.2-.2.4-.2h.2c.1 0 .2 0 .3.1 0 0 .1.1.1.2.1-.1.1-.2.2-.2h.5c.2 0 .3.1.4.2s.1.3.1.5v1.4c0 .2 0 .3-.1.4s-.2.2-.4.2h-.3c-.1 0-.2 0-.3-.1 0 0 0-.1-.1-.1 0-.1 0 0-.1 0zm.7-.6v-1.1c0-.1 0-.1-.1-.2 0 0-.1-.1-.2-.1s-.1 0-.2.1v1.3h.2c.3.1.3 0 .3 0zm-.7-.2v-.9c0-.1 0-.1-.1-.2 0 0-.1-.1-.2-.1s-.1 0-.2.1c0 0-.1.1-.1.2v.9c0 .1 0 .1.1.2h.2c.2 0 .3 0 .3-.2z" fill="#312a20"/><path d="m228.6 78c0-.9-.1-2.2-.1-2.6 0-.5 0-1.7.1-2.6 0-.4 0-.8.1-1h.1c2 0 3.6 1.6 3.6 3.6s-1.6 3.6-3.6 3.6h-.1c0-.2-.1-.6-.1-1z" fill="#c8ab7a"/><path d="m228.6 78c1.5 0 2.7-1.2 2.7-2.6 0-1.5-1.2-2.6-2.7-2.6 0 .9-.1 2.2-.1 2.6.1.4.1 1.7.1 2.6" fill="#cdb487"/><path d="m229.4 76.1v-1.1c0-.1 0-.1-.1-.2 0 0-.1-.1-.2-.1h-.3l.1.1v1.2c0 .2 0 .3-.1.4s-.3.2-.5.2h-.3c-.1 0-.3-.1-.4-.2s-.1-.3-.1-.4v-1.4c0-.2 0-.4.1-.5s.2-.2.4-.2h1.3c.2 0 .3.1.4.2s.1.3.1.5v1.4c0 .2 0 .3-.1.4s-.2.2-.4.2h-.1l.2-.5c-.1 0-.1 0 0 0zm-.9 0 .1-.1v-1c0-.1 0-.1-.1-.2 0 0-.1-.1-.2-.1s-.1 0-.2.1c0 0-.1.1-.1.2v1c0 .1 0 .1.1.1 0 0 .1.1.2.1s.2-.1.2-.1z" fill="#312a20"/><path d="m240.8 102.4c0-.9-.1-2.2-.1-2.6 0-.5 0-1.7.1-2.6 0-.4 0-.8.1-1h.1c2 0 3.6 1.6 3.6 3.6s-1.6 3.6-3.6 3.6h-.1c0-.2 0-.6-.1-1z" fill="#c8ab7a"/><path d="m240.9 102.4c1.5 0 2.7-1.2 2.7-2.6 0-1.5-1.2-2.6-2.7-2.6 0 .9-.1 2.2-.1 2.6s0 1.7.1 2.6" fill="#cdb487"/><path d="m241.2 101.4h.2c.1 0 .1 0 .2.1s.1.1.1.2v.8c0 .1 0 .1-.1.2-.1 0-.1.1-.2.1h-.7c-.1 0-.1 0-.2-.1s-.1-.1-.1-.2v-.8c0-.1 0-.1.1-.2.1 0 .1-.1.2-.1h.2v.3h-.1v.5h.5v-.4-.1h-.1zm-1.5-.5h1.9v.3h-1.9zm1.5-.6s.1 0 0 0c.1 0 .1-.1.1-.1v-.3-.1h-.1v-.3h.2c.1 0 .1 0 .2.1s.1.1.1.2v.8c0 .1 0 .1-.1.2-.1 0-.1.1-.2.1h-.7c-.1 0-.1 0-.2-.1s-.1-.1-.1-.2v-.8c0-.1 0-.1.1-.2.1 0 .1-.1.2-.1h.4v.9h.1zm-.3-.6h-.1v.6h.1zm.7-1.3v.6c0 .1 0 .1-.1.2-.1 0-.1.1-.2.1h-.2c-.1 0-.2 0-.2-.1-.1 0-.1-.1-.1-.2v-.5-.1l.1-.1h-.2-.1v.6h.1v.3h-.1c-.1 0-.1 0-.2-.1s-.1-.1-.1-.2v-.7c0-.1 0-.1.1-.2s.1-.1.2-.1h1v.5l-.1-.1c.1 0 .1.1.1.1zm-.4.4s0 .1 0 0l.1.1h.1v-.4-.1h-.1-.1zm-.3-1.8c-.1 0-.1 0-.1.1v.1s0 .1.1.1h.9v.3h-1.3v-.3h.2l-.1-.1v-.4c0-.1 0-.1.1-.2s.1-.1.2-.1h.3z" fill="#312a20"/><path d="m240.8 90.2c0-.9-.1-2.2-.1-2.6 0-.5 0-1.7.1-2.6 0-.4 0-.8.1-1h.1c2 0 3.6 1.6 3.6 3.6s-1.6 3.6-3.6 3.6h-.1c0-.2 0-.5-.1-1z" fill="#c8ab7a"/><path d="m240.9 90.2c1.5 0 2.7-1.2 2.7-2.6 0-1.5-1.2-2.6-2.7-2.6 0 .9-.1 2.2-.1 2.6s0 1.7.1 2.6" fill="#cdb487"/><path d="m241.5 86.2c.1 0 .3.1.4.2s.1.3.1.4v1.5c0 .2 0 .3-.1.5-.1.1-.2.2-.4.2h-1.3c-.1 0-.2-.1-.3-.2s-.2-.3-.2-.4v-1.5c0-.2 0-.3.1-.5.1-.1.2-.2.4-.2zm-1.2.7c-.1.1-.1.2-.1.3v.8c0 .1 0 .2.1.3s.1.1.2.1h.7c.1 0 .1 0 .2-.1 0-.1.1-.2.1-.3v-.8c0-.1 0-.2-.1-.3s-.1-.1-.2-.1h-.8c.1 0 0 .1-.1.1z" fill="#312a20"/><path d="m240.8 78c0-.9-.1-2.2-.1-2.6 0-.5 0-1.7.1-2.6 0-.4 0-.8.1-1h.1c2 0 3.6 1.6 3.6 3.6s-1.6 3.6-3.6 3.6h-.1c0-.2 0-.6-.1-1z" fill="#c8ab7a"/><path d="m240.9 78c1.5 0 2.7-1.2 2.7-2.6 0-1.5-1.2-2.6-2.7-2.6 0 .9-.1 2.2-.1 2.6s0 1.7.1 2.6" fill="#cdb487"/><path d="m241.2 78.1h.1v-.4-.1h-.1v-.3h.2c.1 0 .2 0 .2.1.1 0 .1.1.1.2v.7c0 .1 0 .1-.1.2-.1 0-.1.1-.2.1h-.8c-.1 0-.2 0-.2-.1-.1 0-.1-.1-.1-.2v-.7c0-.1 0-.1.1-.2.1 0 .1-.1.2-.1h.4v.8zm-.4-.5h-.1v.4s0 .1.1.1h.1v-.5zm0-1.3h-.1v.4c0 .1 0 .1.1.1h.9v.3h-1.4v-.3h.2c-.1 0-.1 0-.1-.1v-.5c0-.1 0-.1.1-.2.1 0 .1-.1.2-.1h1.1v.3h-1zm-.9-.9h.4v-.5h.4v.5h.6v-.1-.1h-.2v-.3h.1c.2 0 .3 0 .4.1s.1.1.1.2v.3c0 .1 0 .2-.1.2-.1.1-.2.1-.4.1h-.5v.1h-.4v-.1h-.4zm1.3-1.1h.1v-.4-.1h-.1v-.3h.2c.1 0 .2 0 .2.1.1 0 .1.1.1.2v.7c0 .1 0 .1-.1.2-.1 0-.1.1-.2.1h-.8c-.1 0-.2 0-.2-.1-.1 0-.1-.1-.1-.2v-.7c0-.1 0-.1.1-.2.1 0 .1-.1.2-.1h.4v.8zm-.4-.5h-.1v.4s0 .1.1.1h.1v-.5zm0-1.1c-.1 0-.1 0-.1.1v.1s0 .1.1.1h1v.3h-1.4v-.3h.2c-.1 0-.1 0-.1-.1v-.3c0-.1 0-.1.1-.2.1 0 .1-.1.2-.1h.3z" fill="#312a20"/><path d="m179.1 109.4h-1.2c-.2 0-.3-.1-.3-.3v-43.3c0-.2.1-.3.3-.3h1.2" fill="url(#c)"/><path d="m292.1 113.9v-53h.3c1.1 0 2 .7 2.3 1.7.1.2.1.4.1.7v48.2c0 .2 0 .5-.1.7-.3 1-1.2 1.7-2.3 1.7z" fill="url(#d)"/><circle cx="273" cy="87.4" fill="#d4c1a0" r="12.8"/></svg>