<svg viewBox="0 0 260.4 117.7" xmlns="http://www.w3.org/2000/svg" xmlns:xlink="http://www.w3.org/1999/xlink"><linearGradient id="a" gradientTransform="matrix(0 -1 -1 0 190.65 189.05)" gradientUnits="userSpaceOnUse" x1="130.2" x2="130.2" y1="-69.75" y2="190.65"><stop offset=".031" stop-color="#261c19"/><stop offset=".156" stop-color="#261c19"/><stop offset=".885" stop-color="#261c19"/><stop offset=".936" stop-color="#231917"/><stop offset=".977" stop-color="#191110"/><stop offset=".987" stop-color="#150e0d"/><stop offset=".988" stop-color="#1d1513"/><stop offset=".991" stop-color="#241a18"/><stop offset="1" stop-color="#261c19"/></linearGradient><linearGradient id="b" gradientTransform="matrix(0 -1 -1 0 190.65 189.05)" gradientUnits="userSpaceOnUse" x1="87.65" x2="172.65" y1="-21.35" y2="-21.35"><stop offset="0" stop-color="#150e0d"/><stop offset=".061" stop-color="#1f1615"/><stop offset=".156" stop-color="#261b1a"/><stop offset=".413" stop-color="#281d1b"/><stop offset=".498" stop-color="#241d1c"/><stop offset=".645" stop-color="#261d1c"/><stop offset=".669" stop-color="#281d1b"/><stop offset=".827" stop-color="#251a19"/><stop offset=".954" stop-color="#1b1311"/><stop offset="1" stop-color="#150e0d"/></linearGradient><linearGradient id="c" gradientTransform="matrix(0 -1 -1 0 190.65 189.05)" gradientUnits="userSpaceOnUse" x1="130.15" x2="130.15" y1="190.65" y2="187.233"><stop offset=".031" stop-color="#261c19"/><stop offset=".052" stop-color="#3c312f"/><stop offset=".08299999" stop-color="#564a49"/><stop offset=".115" stop-color="#685c5c"/><stop offset=".148" stop-color="#736767"/><stop offset=".184" stop-color="#776a6b"/><stop offset=".201" stop-color="#6e6162"/><stop offset=".259" stop-color="#534949"/><stop offset=".323" stop-color="#3e3535"/><stop offset=".394" stop-color="#2f2727"/><stop offset=".479" stop-color="#271f1f"/><stop offset=".611" stop-color="#241d1c"/><stop offset=".652" stop-color="#1e1716"/><stop offset=".744" stop-color="#17100f"/><stop offset="1" stop-color="#150e0d"/></linearGradient><linearGradient id="d" gradientTransform="matrix(0 -1 -1 0 190.65 189.05)" gradientUnits="userSpaceOnUse" x1="130.2" x2="130.2" y1="-69.767" y2="-63.85"><stop offset=".031" stop-color="#261c19"/><stop offset=".14" stop-color="#241815"/><stop offset=".389" stop-color="#221412"/><stop offset="1" stop-color="#261c19"/></linearGradient><g opacity=".5"><circle cx="212" cy="58.9" fill="#fff" r="28.3"/><circle cx="212" cy="58.9" fill="#fefefe" r="28.3"/><circle cx="212" cy="58.9" fill="#fdfdfd" r="28.3"/><circle cx="212" cy="58.9" fill="#fcfcfc" r="28.3"/><circle cx="211.9" cy="58.9" fill="#fbfbfb" r="28.3"/><circle cx="211.9" cy="58.9" fill="#fafafa" r="28.3"/><circle cx="211.9" cy="58.9" fill="#f9f9f9" r="28.3"/><circle cx="211.9" cy="58.9" fill="#f8f8f8" r="28.2"/><circle cx="211.9" cy="58.9" fill="#f7f7f7" r="28.2"/><circle cx="211.9" cy="58.9" fill="#f6f6f6" r="28.2"/><circle cx="211.9" cy="58.9" fill="#f5f5f5" r="28.2"/><circle cx="211.8" cy="58.9" fill="#f4f4f4" r="28.2"/><circle cx="211.8" cy="58.9" fill="#f3f3f3" r="28.2"/><circle cx="211.8" cy="58.9" fill="#f2f2f2" r="28.2"/><circle cx="211.8" cy="58.9" fill="#f1f1f1" r="28.1"/><circle cx="211.8" cy="58.9" fill="#f0f0f0" r="28.1"/><circle cx="211.8" cy="58.9" fill="#efefef" r="28.1"/><circle cx="211.8" cy="58.9" fill="#eee" r="28.1"/><circle cx="211.7" cy="58.9" fill="#ededed" r="28.1"/><circle cx="211.7" cy="58.9" fill="#ececed" r="28.1"/><circle cx="211.7" cy="58.9" fill="#ebebec" r="28.1"/><circle cx="211.7" cy="58.9" fill="#eaeaeb" r="28"/><circle cx="211.7" cy="58.9" fill="#e9e9ea" r="28"/><circle cx="211.7" cy="58.9" fill="#e8e8e9" r="28"/><circle cx="211.7" cy="58.9" fill="#e7e7e8" r="28"/><circle cx="211.6" cy="58.9" fill="#e6e6e7" r="28"/><circle cx="211.6" cy="58.9" fill="#e5e5e6" r="28"/><circle cx="211.6" cy="58.9" fill="#e4e4e5" r="28"/><circle cx="211.6" cy="58.9" fill="#e3e3e4" r="27.9"/><circle cx="211.6" cy="58.9" fill="#e2e2e3" r="27.9"/><circle cx="211.6" cy="58.9" fill="#e1e1e2" r="27.9"/><circle cx="211.6" cy="58.9" fill="#e0e0e1" r="27.9"/><circle cx="211.5" cy="58.9" fill="#dfdfe0" r="27.9"/><circle cx="211.5" cy="58.9" fill="#dededf" r="27.9"/><circle cx="211.5" cy="58.9" fill="#ddddde" r="27.9"/><circle cx="211.5" cy="58.9" fill="#dcdcdd" r="27.8"/><circle cx="211.5" cy="58.9" fill="#dbdbdc" r="27.8"/><circle cx="211.5" cy="58.9" fill="#dadadb" r="27.8"/><circle cx="211.5" cy="58.9" fill="#d9d9da" r="27.8"/><circle cx="211.4" cy="58.9" fill="#d8d8d9" r="27.8"/><circle cx="211.4" cy="58.9" fill="#d7d7d8" r="27.8"/><circle cx="211.4" cy="58.9" fill="#d6d6d7" r="27.8"/><circle cx="211.4" cy="58.9" fill="#d5d5d6" r="27.7"/><circle cx="211.4" cy="58.9" fill="#d4d4d5" r="27.7"/><circle cx="211.4" cy="58.9" fill="#d3d3d4" r="27.7"/><circle cx="211.4" cy="58.9" fill="#d2d2d3" r="27.7"/><circle cx="211.3" cy="58.9" fill="#d1d1d2" r="27.7"/><circle cx="211.3" cy="58.9" fill="#d0d0d1" r="27.7"/><circle cx="211.3" cy="58.9" fill="#cfcfd0" r="27.7"/><circle cx="211.3" cy="58.9" fill="#cececf" r="27.6"/><circle cx="211.3" cy="58.9" fill="#cdcdce" r="27.6"/><circle cx="211.3" cy="58.9" fill="#cccccd" r="27.6"/><circle cx="211.3" cy="58.9" fill="#cbcbcc" r="27.6"/><circle cx="211.2" cy="58.9" fill="#cacacb" r="27.6"/><circle cx="211.2" cy="58.9" fill="#c9c9ca" r="27.6"/><circle cx="211.2" cy="58.9" fill="#c8c8ca" r="27.6"/><circle cx="211.2" cy="58.9" fill="#c7c7c9" r="27.5"/><circle cx="211.2" cy="58.9" fill="#c6c6c8" r="27.5"/><circle cx="211.2" cy="58.9" fill="#c5c5c7" r="27.5"/><circle cx="211.2" cy="58.9" fill="#c4c4c6" r="27.5"/><circle cx="211.1" cy="58.9" fill="#c3c3c5" r="27.5"/><circle cx="211.1" cy="58.9" fill="#c2c2c4" r="27.5"/><circle cx="211.1" cy="58.9" fill="#c1c1c3" r="27.5"/><circle cx="211.1" cy="58.9" fill="#c0c0c2" r="27.4"/><circle cx="211.1" cy="58.9" fill="#bfbfc1" r="27.4"/><circle cx="211.1" cy="58.9" fill="#bebec0" r="27.4"/><circle cx="211.1" cy="58.9" fill="#bdbdbf" r="27.4"/><circle cx="211" cy="58.9" fill="#bcbcbe" r="27.4"/><circle cx="211" cy="58.9" fill="#bbbbbd" r="27.4"/><circle cx="211" cy="58.9" fill="#bababc" r="27.4"/><circle cx="211" cy="58.9" fill="#b9b9bb" r="27.3"/><circle cx="211" cy="58.9" fill="#b8b8ba" r="27.3"/><circle cx="211" cy="58.9" fill="#b7b7b9" r="27.3"/><circle cx="211" cy="58.9" fill="#b6b7b8" r="27.3"/><circle cx="210.9" cy="58.9" fill="#b5b6b7" r="27.3"/><circle cx="210.9" cy="58.9" fill="#b4b5b6" r="27.3"/><circle cx="210.9" cy="58.9" fill="#b3b4b5" r="27.3"/><circle cx="210.9" cy="58.9" fill="#b2b3b4" r="27.2"/><circle cx="210.9" cy="58.9" fill="#b1b2b3" r="27.2"/><circle cx="210.9" cy="58.9" fill="#b0b1b2" r="27.2"/><circle cx="210.8" cy="58.9" fill="#afb0b1" r="27.2"/><circle cx="210.8" cy="58.9" fill="#aeafb0" r="27.2"/><circle cx="210.8" cy="58.9" fill="#adaeaf" r="27.2"/><circle cx="210.8" cy="58.9" fill="#acadae" r="27.1"/><circle cx="210.8" cy="58.9" fill="#abacad" r="27.1"/><circle cx="210.8" cy="58.9" fill="#aaabac" r="27.1"/><circle cx="210.8" cy="58.9" fill="#a9aaab" r="27.1"/><circle cx="210.7" cy="58.9" fill="#a8a9aa" r="27.1"/><circle cx="210.7" cy="58.9" fill="#a7a8a9" r="27.1"/><circle cx="210.7" cy="58.9" fill="#a6a7a8" r="27.1"/><circle cx="210.7" cy="58.9" fill="#a5a6a7" r="27"/><circle cx="210.7" cy="58.9" fill="#a4a5a6" r="27"/><circle cx="210.7" cy="58.9" fill="#a3a4a6" r="27"/><circle cx="210.7" cy="58.9" fill="#a2a3a5" r="27"/><circle cx="210.6" cy="58.9" fill="#a1a2a4" r="27"/><circle cx="210.6" cy="58.9" fill="#a0a1a3" r="27"/><circle cx="210.6" cy="58.9" fill="#9fa0a2" r="27"/><circle cx="210.6" cy="58.9" fill="#9e9fa1" r="26.9"/><circle cx="210.6" cy="58.9" fill="#9d9ea0" r="26.9"/><circle cx="210.6" cy="58.9" fill="#9c9d9f" r="26.9"/><circle cx="210.6" cy="58.9" fill="#9b9c9e" r="26.9"/><circle cx="210.5" cy="58.9" fill="#9a9b9d" r="26.9"/><circle cx="210.5" cy="58.9" fill="#999a9c" r="26.9"/><circle cx="210.5" cy="58.9" fill="#98999b" r="26.9"/><circle cx="210.5" cy="58.9" fill="#97989a" r="26.8"/><circle cx="210.5" cy="58.9" fill="#969799" r="26.8"/><circle cx="210.5" cy="58.9" fill="#959698" r="26.8"/><circle cx="210.5" cy="58.9" fill="#949597" r="26.8"/><circle cx="210.4" cy="58.9" fill="#939496" r="26.8"/><circle cx="210.4" cy="58.9" fill="#929395" r="26.8"/><circle cx="210.4" cy="58.9" fill="#919294" r="26.8"/><circle cx="210.4" cy="58.9" fill="#909193" r="26.7"/><circle cx="210.4" cy="58.9" fill="#8f9092" r="26.7"/><circle cx="210.4" cy="58.9" fill="#8e8f91" r="26.7"/><circle cx="210.4" cy="58.9" fill="#8d8e90" r="26.7"/><circle cx="210.3" cy="58.9" fill="#8c8d8f" r="26.7"/><circle cx="210.3" cy="58.9" fill="#8b8c8e" r="26.7"/><circle cx="210.3" cy="58.9" fill="#8a8b8d" r="26.7"/><circle cx="210.3" cy="58.9" fill="#898a8c" r="26.6"/><circle cx="210.3" cy="58.9" fill="#88898b" r="26.6"/><circle cx="210.3" cy="58.9" fill="#87888a" r="26.6"/><circle cx="210.3" cy="58.9" fill="#868789" r="26.6"/><circle cx="210.2" cy="58.9" fill="#858688" r="26.6"/><circle cx="210.2" cy="58.9" fill="#848587" r="26.6"/><circle cx="210.2" cy="58.9" fill="#838486" r="26.6"/><circle cx="210.2" cy="58.9" fill="#828385" r="26.5"/><circle cx="210.2" cy="58.9" fill="#818284" r="26.5"/><circle cx="210.2" cy="58.9" fill="#808183" r="26.5"/><circle cx="210.2" cy="58.9" fill="#7f8083" r="26.5"/><circle cx="210.1" cy="58.9" fill="#7e7f82" r="26.5"/><circle cx="210.1" cy="58.9" fill="#7d7e81" r="26.5"/><circle cx="210.1" cy="58.9" fill="#7c7d80" r="26.5"/><circle cx="210.1" cy="58.9" fill="#7b7c7f" r="26.4"/><circle cx="210.1" cy="58.9" fill="#7a7b7e" r="26.4"/><circle cx="210.1" cy="58.9" fill="#797a7d" r="26.4"/><circle cx="210.1" cy="58.9" fill="#78797c" r="26.4"/><circle cx="210" cy="58.9" fill="#77787b" r="26.4"/><circle cx="210" cy="58.9" fill="#76777a" r="26.4"/><circle cx="210" cy="58.9" fill="#757679" r="26.4"/><circle cx="210" cy="58.9" fill="#747578" r="26.3"/><circle cx="210" cy="58.9" fill="#737477" r="26.3"/><circle cx="210" cy="58.9" fill="#727376" r="26.3"/><circle cx="210" cy="58.9" fill="#717275" r="26.3"/><circle cx="209.9" cy="58.9" fill="#707174" r="26.3"/><circle cx="209.9" cy="58.9" fill="#6f7073" r="26.3"/><circle cx="209.9" cy="58.9" fill="#6e6f72" r="26.3"/><circle cx="209.9" cy="58.9" fill="#6d6e71" r="26.2"/></g><path d="m98.5 117.7v.4c0 .6-.5 1.1-1.1 1.1h-21.1c-.6 0-1.1-.5-1.1-1.1v-.4zm26.9 0v.4c0 .6-.5 1.1-1.1 1.1h-21.1c-.6 0-1.1-.5-1.1-1.1v-.4zm-50.2-117.7v-.4c0-.6.5-1.1 1.1-1.1h21.1c.6 0 1.1.5 1.1 1.1v.4zm26.9 0v-.4c0-.6.5-1.1 1.1-1.1h21.1c.6 0 1.1.5 1.1 1.1v.4z" fill="#1b1e20"/><path d="m254.5 117.7h-247.3c-2.1 0-3.7-1.7-3.7-3.7v-6.3h-2.8c-.4 0-.7-.3-.7-.7v-96.2c0-.4.3-.7.7-.7h2.7v-6.3c0-2.1 1.7-3.8 3.8-3.8h248c2.4 0 4.4 1.6 5 3.7.1.5.2 1 .2 1.5v107.2c0 .5-.1 1-.2 1.5-.6 2.2-2.7 3.7-5 3.7z" fill="url(#a)"/><circle cx="212" cy="58.9" fill="url(#b)" r="42.5"/><circle cx="212" cy="58.9" fill="#2a201f" r="35.3"/><circle cx="212" cy="58.9" fill="#020101" r="31.7"/><circle cx="212" cy="58.9" fill="#1e1514" r="30.8"/><path d="m50.5 112.8c-9.5 0-18.3-7.8-18.3-17.3v-73.5c0-9.5 8.8-17.3 18.3-17.3m100.5.2c9.5 0 18.3 7.8 18.3 17.3v73.4c0 9.5-8.8 17.3-18.3 17.3" fill="#211715"/><path d="m50.5 4.9c-9.5 0-17.3 7.8-17.3 17.3v73.4c0 9.5 7.8 17.3 17.3 17.3h100.2c9.5 0 17.3-7.8 17.3-17.3v-73.5c0-9.5-7.8-17.3-17.3-17.3z" fill="#3b3130"/><path d="m165.9 22v73.8c0 7.5-6.1 13.6-13.6 13.6h-103.3c-7.5 0-13.6-6.1-13.6-13.6v-73.8c0-7.5 6.1-13.6 13.6-13.6h103.3c7.5 0 13.6 6.1 13.6 13.6z" fill="#4a3937"/><path d="m163.2 23.3v71.2c0 6.6-5.4 12-12 12h-100.9c-6.6 0-12-5.4-12-12v-71.2c0-6.6 5.4-12 12-12h100.9c6.6 0 12 5.4 12 12z" fill="#2d2223"/><path d="m156.9 23.6v70.5c0 3.3-2.7 6-6 6h-100.3c-3.3 0-6-2.7-6-6v-70.5c0-3.3 2.7-6 6-6h100.4c3.2 0 5.9 2.7 5.9 6z" fill="#d4c1a0"/><path d="m157.1 23.6v70.5c0 3.4-2.7 6.1-6.1 6.1h-100.4c-3.4 0-6.1-2.7-6.1-6.1v-70.5c0-3.4 2.7-6.1 6.1-6.1h100.4c3.3 0 6.1 2.8 6.1 6.1zm-112.3 70.5c0 3.2 2.6 5.9 5.9 5.9h100.3c3.2 0 5.9-2.6 5.9-5.9v-70.5c0-3.2-2.6-5.9-5.9-5.9h-100.4c-3.2 0-5.9 2.6-5.9 5.9v70.5z" fill="#682c00"/><path d="m71.5 77.7v17.1c0 1.7-1.4 3.2-3.2 3.2h-17c-1.7 0-3.2-1.4-3.2-3.2v-17.1c0-1.7 1.4-3.2 3.2-3.2h17.1c1.7.1 3.1 1.5 3.1 3.2z" fill="#2e251a"/><path d="m69.7 86.3c0-3.8-.6-6.7-1.4-8.3-.6-1.4-3.2-1.5-8.4-1.5s-7.8.2-8.4 1.5c-.8 1.5-1.4 4.5-1.4 8.2 0 3.8.6 6.7 1.4 8.2.7 1.3 3.3 1.5 8.4 1.5s7.8-.2 8.4-1.5c.8-1.4 1.4-4.3 1.4-8.1z" fill="#d3c09e"/><path d="m59.5 94.3h.3c4.4 0 8-3.6 8-8s-3.6-8-8-8h-.3c-4.3.2-7.7 3.7-7.7 8s3.4 7.8 7.7 8z" fill="#d2b892"/><path d="m71.5 50.6v17.1c0 1.7-1.4 3.2-3.2 3.2h-17c-1.7 0-3.2-1.4-3.2-3.2v-17.1c0-1.7 1.4-3.2 3.2-3.2h17.1c1.7.1 3.1 1.5 3.1 3.2z" fill="none" stroke="#682c00" stroke-miterlimit="10" stroke-width=".25"/><path d="m71.5 50.6v17.1c0 1.7-1.4 3.2-3.2 3.2h-17c-1.7 0-3.2-1.4-3.2-3.2v-17.1c0-1.7 1.4-3.2 3.2-3.2h17.1c1.7.1 3.1 1.5 3.1 3.2z" fill="#2c2316"/><path d="m69.7 59.2c0-3.8-.6-6.7-1.4-8.3-.6-1.4-3.2-1.5-8.4-1.5s-7.8.2-8.4 1.5c-1 1.6-1.5 4.5-1.5 8.3s.6 6.7 1.4 8.2c.7 1.3 3.3 1.5 8.4 1.5s7.8-.2 8.4-1.5c.9-1.5 1.5-4.4 1.5-8.2z" fill="#d3c09e"/><circle cx="59.8" cy="59.2" fill="#d2b892" r="8"/><path d="m71.5 23.5v17.1c0 1.7-1.4 3.2-3.2 3.2h-17c-1.7 0-3.2-1.4-3.2-3.2v-17.1c0-1.7 1.4-3.2 3.2-3.2h17.1c1.7 0 3.1 1.5 3.1 3.2z" fill="#2c2316"/><path d="m69.7 32.1c0-3.8-.6-6.7-1.4-8.3-.6-1.4-3.2-1.5-8.4-1.5s-7.8.2-8.4 1.5c-.8 1.5-1.4 4.5-1.4 8.2 0 3.8.6 6.7 1.4 8.2.7 1.3 3.3 1.5 8.4 1.5s7.8-.2 8.4-1.5c.8-1.4 1.4-4.3 1.4-8.1z" fill="#d3c09e"/><circle cx="59.8" cy="32.1" fill="#d2b892" r="8"/><path d="m98.6 77.7v17.1c0 1.7-1.4 3.2-3.2 3.2h-17c-1.7 0-3.2-1.4-3.2-3.2v-17.1c0-1.7 1.4-3.2 3.2-3.2h17.1c1.7.1 3.1 1.5 3.1 3.2z" fill="#2c2316"/><path d="m96.8 86.3c0-3.8-.6-6.7-1.4-8.3-.6-1.4-3.2-1.5-8.4-1.5s-7.8.2-8.4 1.5c-.8 1.5-1.4 4.5-1.4 8.2 0 3.8.6 6.7 1.4 8.2.7 1.3 3.3 1.5 8.4 1.5s7.8-.2 8.4-1.5c.8-1.4 1.4-4.3 1.4-8.1z" fill="#d3c09e"/><circle cx="86.9" cy="86.3" fill="#d2b892" r="8"/><path d="m98.6 50.6v17.1c0 1.7-1.4 3.2-3.2 3.2h-17c-1.7 0-3.2-1.4-3.2-3.2v-17.1c0-1.7 1.4-3.2 3.2-3.2h17.1c1.7.1 3.1 1.5 3.1 3.2z" fill="#2c2316"/><path d="m96.8 59.2c0-3.8-.6-6.7-1.4-8.3-.6-1.4-3.2-1.5-8.4-1.5s-7.8.2-8.4 1.5c-.8 1.5-1.4 4.5-1.4 8.2 0 3.8.6 6.7 1.4 8.2.7 1.3 3.3 1.5 8.4 1.5s7.8-.2 8.4-1.5c.8-1.4 1.4-4.3 1.4-8.1z" fill="#d3c09e"/><circle cx="86.9" cy="59.2" fill="#d2b892" r="8"/><path d="m98.6 23.5v17.1c0 1.7-1.4 3.2-3.2 3.2h-17c-1.7 0-3.2-1.4-3.2-3.2v-17.1c0-1.7 1.4-3.2 3.2-3.2h17.1c1.7 0 3.1 1.5 3.1 3.2z" fill="#2c2316"/><path d="m96.8 32.1c0-3.8-.6-6.7-1.4-8.3-.6-1.4-3.2-1.5-8.4-1.5s-7.8.2-8.4 1.5c-.8 1.5-1.4 4.5-1.4 8.2 0 3.8.6 6.7 1.4 8.2.7 1.3 3.3 1.5 8.4 1.5s7.8-.2 8.4-1.5c.8-1.4 1.4-4.3 1.4-8.1z" fill="#d3c09e"/><circle cx="86.9" cy="32.1" fill="#d2b892" r="8"/><path d="m125.8 77.7v17.1c0 1.7-1.4 3.2-3.2 3.2h-17.1c-1.7 0-3.2-1.4-3.2-3.2v-17.1c0-1.7 1.4-3.2 3.2-3.2h17.1c1.8.1 3.2 1.5 3.2 3.2z" fill="#2c2316"/><path d="m123.9 86.3c0-3.8-.6-6.7-1.4-8.3-.6-1.4-3.2-1.5-8.4-1.5s-7.8.2-8.4 1.5c-.8 1.5-1.4 4.5-1.4 8.2 0 3.8.6 6.7 1.4 8.2.7 1.3 3.3 1.5 8.4 1.5s7.8-.2 8.4-1.5c.8-1.4 1.4-4.3 1.4-8.1z" fill="#d3c09e"/><circle cx="114.1" cy="86.3" fill="#d2b892" r="8"/><path d="m125.8 50.6v17.1c0 1.7-1.4 3.2-3.2 3.2h-17.1c-1.7 0-3.2-1.4-3.2-3.2v-17.1c0-1.7 1.4-3.2 3.2-3.2h17.1c1.8.1 3.2 1.5 3.2 3.2z" fill="#2c2316"/><path d="m123.9 59.2c0-3.8-.6-6.7-1.4-8.3-.6-1.4-3.2-1.5-8.4-1.5s-7.8.2-8.4 1.5c-.8 1.5-1.4 4.5-1.4 8.2 0 3.8.6 6.7 1.4 8.2.7 1.3 3.3 1.5 8.4 1.5s7.8-.2 8.4-1.5c.8-1.4 1.4-4.3 1.4-8.1z" fill="#d3c09e"/><circle cx="114.1" cy="59.2" fill="#d2b892" r="8"/><path d="m125.8 23.5v17.1c0 1.7-1.4 3.2-3.2 3.2h-17.1c-1.7 0-3.2-1.4-3.2-3.2v-17.1c0-1.7 1.4-3.2 3.2-3.2h17.1c1.8 0 3.2 1.5 3.2 3.2z" fill="#2c2316"/><path d="m123.9 32.1c0-3.8-.6-6.7-1.4-8.3-.6-1.4-3.2-1.5-8.4-1.5s-7.8.2-8.4 1.5c-.8 1.5-1.4 4.5-1.4 8.2 0 3.8.6 6.7 1.4 8.2.7 1.3 3.3 1.5 8.4 1.5s7.8-.2 8.4-1.5c.8-1.4 1.4-4.3 1.4-8.1z" fill="#d3c09e"/><circle cx="114.1" cy="32.1" fill="#d2b892" r="8"/><path d="m152.9 77.7v17.1c0 1.7-1.4 3.2-3.2 3.2h-17.1c-1.7 0-3.2-1.4-3.2-3.2v-17.1c0-1.7 1.4-3.2 3.2-3.2h17.1c1.8.1 3.2 1.5 3.2 3.2z" fill="#2c2316"/><path d="m151 86.3c0-3.8-.6-6.7-1.4-8.3-.6-1.4-3.2-1.5-8.4-1.5s-7.8.2-8.4 1.5c-.8 1.5-1.4 4.5-1.4 8.2 0 3.8.6 6.7 1.4 8.2.7 1.3 3.3 1.5 8.4 1.5s7.8-.2 8.4-1.5c.9-1.4 1.4-4.3 1.4-8.1z" fill="#d3c09e"/><circle cx="141.2" cy="86.3" fill="#d2b892" r="8"/><path d="m152.9 50.6v17.1c0 1.7-1.4 3.2-3.2 3.2h-17.1c-1.7 0-3.2-1.4-3.2-3.2v-17.1c0-1.7 1.4-3.2 3.2-3.2h17.1c1.8.1 3.2 1.5 3.2 3.2z" fill="#2c2316"/><path d="m151 59.2c0-3.8-.6-6.7-1.4-8.3-.6-1.4-3.2-1.5-8.4-1.5s-7.8.2-8.4 1.5c-.8 1.5-1.4 4.5-1.4 8.2 0 3.8.6 6.7 1.4 8.2.7 1.3 3.3 1.5 8.4 1.5s7.8-.2 8.4-1.5c.9-1.4 1.4-4.3 1.4-8.1z" fill="#d3c09e"/><circle cx="141.2" cy="59.2" fill="#d2b892" r="8"/><path d="m152.9 23.5v17.1c0 1.7-1.4 3.2-3.2 3.2h-17.1c-1.7 0-3.2-1.4-3.2-3.2v-17.1c0-1.7 1.4-3.2 3.2-3.2h17.1c1.8 0 3.2 1.5 3.2 3.2z" fill="#2c2316"/><path d="m151 32.1c0-3.8-.6-6.7-1.4-8.3-.6-1.4-3.2-1.5-8.4-1.5s-7.8.2-8.4 1.5c-.8 1.5-1.4 4.5-1.4 8.2 0 3.8.6 6.7 1.4 8.2.7 1.3 3.3 1.5 8.4 1.5s7.8-.2 8.4-1.5c.9-1.4 1.4-4.3 1.4-8.1z" fill="#d3c09e"/><circle cx="141.2" cy="32.1" fill="#d2b892" r="8"/><path d="m59.3 92.2c-.1-2.1-.1-4.9-.1-5.9s.1-3.8.1-5.9c0-1 .1-1.8.2-2.1h.3c4.4 0 8 3.6 8 8s-3.6 8-8 8h-.3c-.1-.4-.1-1.2-.2-2.1z" fill="#c8ab7a"/><path d="m59.4 92.2c3.2 0 5.9-2.6 5.9-5.9s-2.7-5.9-5.9-5.9c-.1 2.1-.1 4.9-.1 5.9s0 3.8.1 5.9" fill="#cdb487"/><path d="m57.3 87v-2.3h5v1.4h-3.9v.3l1.3 1.6-.8.8z" fill="#312a20"/><path d="m59.3 65c-.1-2.1-.1-4.9-.1-5.9s.1-3.8.1-5.9c0-1 .1-1.8.2-2.1h.3c4.4 0 8 3.6 8 8s-3.6 8-8 8h-.3c-.1-.3-.1-1.1-.2-2.1z" fill="#c8ab7a"/><path d="m59.4 65c3.2 0 5.9-2.6 5.9-5.9s-2.7-5.9-5.9-5.9c-.1 2.1-.1 4.9-.1 5.9s0 3.9.1 5.9" fill="#cdb487"/><path d="m59.3 58.2c0-.1 0-.3-.1-.3-.1-.1-.2-.2-.4-.2s-.3 0-.4.1-.1.2-.1.4v1.8c0 .2.1.4.2.6.1.1.2.2.4.2v1.3h-.6c-.3 0-.6-.1-.8-.4-.2-.2-.3-.6-.3-1v-3c0-.4.1-.7.3-1s.5-.4.8-.4h.7c.5 0 .8.1 1.1.4.2.2.3.6.3 1v2.5c0 .1 0 .3.1.3.1.1.2.1.3.1h.4v-4.4h1.1v5.8h-1.8c-.3 0-.6-.1-.8-.4s-.3-.6-.3-1.1v-2.3z" fill="#312a20"/><path d="m59.3 37.9c-.1-2.1-.1-4.9-.1-5.9s.1-3.8.1-5.9c0-1 .1-1.8.2-2.1h.3c4.4 0 8 3.6 8 8s-3.6 8-8 8h-.3c-.1-.3-.1-1.1-.2-2.1z" fill="#c8ab7a"/><path d="m59.4 37.9c3.2 0 5.9-2.6 5.9-5.9s-2.7-5.9-5.9-5.9c-.1 2.1-.1 4.9-.1 5.9s0 3.9.1 5.9" fill="#cdb487"/><path d="m59.5 29.6c.2.1.3.2.3.3.1-.1.2-.2.4-.3.1 0 .3-.1.4-.1h.6c.3 0 .6.1.8.4s.3.6.3 1v3c0 .4-.1.8-.3 1s-.5.4-.8.4h-.6v-1.3c.2 0 .3-.1.4-.2s.2-.3.2-.5v-1.8c0-.1 0-.3-.1-.4s-.2-.1-.4-.1c-.1 0-.3 0-.3.1-.1.1-.1.2-.1.3v1.4h-1v-1.3c0-.1 0-.3-.1-.3-.1-.1-.2-.1-.4-.1s-.3 0-.4.1-.1.2-.1.4v1.6c0 .2.1.4.2.5s.2.2.4.2v1.3h-.6c-.3 0-.6-.1-.8-.4-.2-.2-.3-.6-.3-1v-3c0-.4.1-.7.3-1s.5-.4.8-.4h.7c.2.1.3.1.5.2z" fill="#312a20"/><path d="m86.6 92.2c-.1-2.1-.1-4.9-.1-5.9s.1-3.8.1-5.9c0-1 .1-1.8.2-2.1h.3c4.4 0 8 3.6 8 8s-3.6 8-8 8h-.3c-.1-.4-.2-1.2-.2-2.1z" fill="#c8ab7a"/><path d="m86.6 92.2c3.2 0 5.9-2.6 5.9-5.9s-2.7-5.9-5.9-5.9c-.1 2.1-.1 4.9-.1 5.9s0 3.8.1 5.9" fill="#cdb487"/><path d="m86.7 89.4-2.3-3.2v-2.2h2.9v-.8h1v.8h1.1v1.4h-1.1v4zm.6-4h-1.8v.2l1.6 2.5h.2z" fill="#312a20"/><path d="m86.5 65c-.1-2.1-.1-4.9-.1-5.9s.1-3.8.1-5.9c0-1 .1-1.8.2-2.1h.3c4.4 0 8 3.6 8 8s-3.6 8-8 8h-.3c-.1-.3-.2-1.1-.2-2.1z" fill="#c8ab7a"/><path d="m86.5 65c3.2 0 5.9-2.6 5.9-5.9s-2.7-5.9-5.9-5.9c-.1 2.1-.1 4.9-.1 5.9s0 3.9.1 5.9" fill="#cdb487"/><path d="m87.5 62.1h-3.1v-5.8h1.1v4.4h.9c-.1-.1-.1-.1-.1-.2v-2.8c0-.4.1-.7.3-1s.6-.4 1-.4h.8c.3 0 .6.1.8.4.2.2.3.6.3 1v3c0 .4-.1.8-.3 1-.2.3-.5.4-.8.4h-.2v-1.4c.1 0 .1 0 .2-.1v-2.5c0-.2 0-.3-.1-.4-.1 0-.2-.1-.4-.1s-.3 0-.4.1-.2.2-.2.3v2.2c0 .1 0 .2.1.3l.2.2v1.4z" fill="#312a20"/><path d="m86.6 37.9c-.1-2.1-.1-4.9-.1-5.9s.1-3.8.1-5.9c0-1 .1-1.8.2-2.1h.3c4.4 0 8 3.6 8 8s-3.6 8-8 8h-.3c-.1-.3-.2-1.1-.2-2.1z" fill="#c8ab7a"/><path d="m86.6 37.9c3.2 0 5.9-2.6 5.9-5.9s-2.7-5.9-5.9-5.9c-.1 2.1-.1 4.9-.1 5.9s0 3.9.1 5.9" fill="#cdb487"/><path d="m85.6 31.1c0 .1-.1.2-.1.3v2.1c0 .1 0 .3.1.3.1.1.2.1.3.1h.6c-.1-.1-.1-.1-.1-.2v-2.8c0-.4.1-.7.3-1s.6-.4 1-.4h.6c.3 0 .6.1.8.4.2.2.3.6.3 1v3c0 .5-.1.8-.3 1.1-.2.2-.5.4-.8.4h-2.8c-.4 0-.7-.1-.8-.4-.2-.2-.3-.6-.3-1.1v-3c0-.4.1-.7.3-1s.5-.4.8-.4h.3v1.4c-.1 0-.2.1-.2.2zm1.9-.1c-.1.1-.1.2-.1.3v2.1c0 .1 0 .2.1.3s.2.1.4.1.3 0 .4-.1.1-.2.1-.4v-2.1c0-.1 0-.2-.1-.3s-.2-.1-.4-.1c-.2.1-.3.1-.4.2z" fill="#312a20"/><path d="m113.5 92.2c-.1-2.1-.1-4.9-.1-5.9s.1-3.8.1-5.9c0-1 .1-1.8.2-2.1h.3c4.4 0 8 3.6 8 8s-3.6 8-8 8h-.3c-.1-.4-.2-1.2-.2-2.1z" fill="#c8ab7a"/><path d="m113.5 92.2c3.2 0 5.9-2.6 5.9-5.9s-2.7-5.9-5.9-5.9c-.1 2.1-.1 4.9-.1 5.9s0 3.8.1 5.9" fill="#cdb487"/><path d="m111.3 83.6v-.2h1.1l3.9 2.9v1.9l-3.9-3v4h-1.1z" fill="#312a20"/><path d="m113.9 65.1c-.1-2.1-.1-4.9-.1-5.9s.1-3.8.1-5.9c0-1 .1-1.8.2-2.1h.3c4.4 0 8 3.6 8 8s-3.6 8-8 8h-.3c-.1-.4-.2-1.2-.2-2.1z" fill="#c8ab7a"/><path d="m113.9 65.1c3.2 0 5.9-2.6 5.9-5.9s-2.7-5.9-5.9-5.9c-.1 2.1-.1 4.9-.1 5.9s0 3.8.1 5.9" fill="#cdb487"/><path d="m113.5 61.9c-.1.1-.3.2-.5.2h-.6c-.3 0-.6-.1-.8-.4-.2-.2-.3-.6-.3-1v-3c0-.5.1-.8.3-1.1.2-.2.5-.4.8-.4h.6c.3 0 .5.1.6.2s.2.2.3.4c.1-.3.2-.4.3-.5s.3-.1.4-.1h.6c.4 0 .7.1.8.4.2.2.3.6.3 1.1v3c0 .4-.1.7-.3 1s-.5.4-.8.4h-.6c-.2 0-.4-.1-.6-.3 0 0-.1-.1-.2-.3-.1.2-.2.3-.3.4zm1.6-1.3c.1-.1.1-.2.1-.4v-2c0-.1 0-.3-.1-.4s-.2-.1-.3-.1c-.2 0-.3 0-.4.1s-.1.2-.1.3v2.1c0 .2 0 .3.1.4s.2.1.3.1c.2 0 .3 0 .4-.1zm-1.8-.4v-2.1c0-.1 0-.3-.1-.3-.1-.1-.2-.1-.3-.1-.2 0-.3 0-.4.1s-.1.2-.1.4v2c0 .2 0 .3.1.3.1.1.2.1.4.1.3.1.4-.1.4-.4z" fill="#312a20"/><path d="m113.5 37.9c-.1-2.1-.1-4.9-.1-5.9s.1-3.8.1-5.9c0-1 .1-1.8.2-2.1h.3c4.4 0 8 3.6 8 8s-3.6 8-8 8h-.3c-.1-.3-.2-1.1-.2-2.1z" fill="#c8ab7a"/><path d="m113.5 37.9c3.2 0 5.9-2.6 5.9-5.9s-2.7-5.9-5.9-5.9c-.1 2.1-.1 4.9-.1 5.9s0 3.9.1 5.9" fill="#cdb487"/><path d="m115.1 33.7c0-.1.1-.2.1-.3v-2.1c0-.1 0-.3-.1-.3s-.2-.1-.4-.1h-.6l.2.2v2.8c0 .4-.1.7-.3 1s-.6.4-1 .4h-.6c-.3 0-.6-.1-.8-.4-.2-.2-.3-.6-.3-1v-3c0-.5.1-.8.3-1.1.2-.2.5-.4.8-.4h2.8c.4 0 .7.1.8.4.2.2.3.6.3 1.1v3c0 .4-.1.7-.3 1s-.5.4-.8.4h-.3v-1.4s.2-.2.2-.2zm-1.9 0c.1-.1.1-.2.1-.3v-2.1c0-.1 0-.2-.1-.3s-.2-.1-.3-.1c-.2 0-.3 0-.4.1s-.1.2-.1.4v2.1c0 .1 0 .2.1.3s.2.1.4.1c.1-.1.2-.1.3-.2z" fill="#312a20"/><path d="m140.6 92.2c-.1-2.1-.1-4.9-.1-5.9s.1-3.8.1-5.9c0-1 .1-1.8.2-2.1h.3c4.4 0 8 3.6 8 8s-3.6 8-8 8h-.3c-.1-.4-.1-1.2-.2-2.1z" fill="#c8ab7a"/><path d="m140.6 92.2c3.2 0 5.9-2.6 5.9-5.9s-2.7-5.9-5.9-5.9c-.1 2.1-.1 4.9-.1 5.9s0 3.8.1 5.9" fill="#cdb487"/><path d="m141.4 89.8h.4c.2 0 .3.1.4.2s.2.2.2.4v1.7c0 .2-.1.3-.2.4s-.3.2-.4.2h-1.6c-.2 0-.3-.1-.4-.2s-.2-.2-.2-.4v-1.7c0-.2.1-.3.2-.4s.3-.2.5-.2h.4v.8c-.1 0-.1 0-.2.1 0 0-.1.1-.1.2v.8c0 .1 0 .2.1.2 0 0 .1.1.2.1h.7c.1 0 .2 0 .2-.1 0 0 .1-.1.1-.2v-.8c0-.1 0-.2-.1-.2s-.1-.1-.2-.1zm-3.2-1h4.3v.8h-4.3zm3.2-1.3c.1 0 .2 0 .2-.1 0 0 .1-.1.1-.2v-.8c0-.1 0-.2-.1-.2 0 0-.1-.1-.2-.1v-.8h.4c.2 0 .3.1.5.2.1.1.2.2.2.4v1.7c0 .2-.1.3-.2.4s-.3.2-.4.2h-1.6c-.2 0-.3-.1-.4-.2s-.2-.2-.2-.4v-1.7c0-.2.1-.3.2-.4s.3-.2.5-.2h.9v2.1zm-.7-1.3c-.1 0-.2 0-.3.1-.1 0-.1.1-.1.2v.8c0 .1 0 .2.1.2s.2.1.3.1zm1.7-3c.1.1.1.2.1.3v1.1c0 .2-.1.3-.2.4s-.3.1-.5.1h-.4c-.2 0-.4-.1-.5-.2s-.2-.2-.2-.4v-1.3c0-.1.1-.1.2-.2h-.5c-.1 0-.2 0-.2.1 0 0-.1.1-.1.2v1l.1.1v.7h-.2c-.2 0-.3-.1-.4-.2s-.2-.3-.2-.5v-1.5c0-.2.1-.3.2-.4s.3-.2.5-.2h2.2v.8h-.3c.3 0 .3.1.4.1zm-1.1.9c0 .1 0 .1.1.1s.1.1.2.1.1 0 .2-.1l.1-.1v-.8c0-.1 0-.2-.1-.2-.1-.1-.1-.1-.2-.1s-.1 0-.2.1-.1.1-.1.2zm-.6-3.9c-.2 0-.3.1-.3.3v.3c0 .1 0 .2.1.2.1.1.2.1.4.1h1.5v.8h-2.9v-.8h.4c-.1 0-.2-.1-.3-.2s-.1-.2-.1-.3v-.6c0-.2.1-.3.2-.4s.3-.2.5-.2h.6z" fill="#312a20"/><path d="m140.6 65.1c-.1-2.1-.1-4.9-.1-5.9s.1-3.8.1-5.9c0-1 .1-1.8.2-2.1h.3c4.4 0 8 3.6 8 8s-3.6 8-8 8h-.3c-.1-.4-.1-1.2-.2-2.1z" fill="#c8ab7a"/><path d="m140.6 65.1c3.2 0 5.9-2.6 5.9-5.9s-2.7-5.9-5.9-5.9c-.1 2.1-.1 4.9-.1 5.9s0 3.8.1 5.9" fill="#cdb487"/><path d="m142.1 56.1c.3 0 .6.1.8.4s.3.6.3 1v3.4c0 .4-.1.7-.3 1s-.5.4-.8.4h-2.8c-.3 0-.5-.1-.8-.4s-.3-.6-.3-1v-3.4c0-.4.1-.8.3-1 .2-.3.5-.4.8-.4zm-2.6 1.7c-.1.2-.2.4-.2.6v1.7c0 .2.1.4.2.6s.3.3.4.3h1.7c.2 0 .3-.1.4-.2.1-.2.2-.4.2-.6v-1.7c0-.2-.1-.4-.2-.6s-.2-.2-.4-.2h-1.7c-.1-.2-.3-.1-.4.1z" fill="#312a20"/><path d="m140.6 37.9c-.1-2.1-.1-4.9-.1-5.9s.1-3.8.1-5.9c0-1 .1-1.8.2-2.1h.3c4.4 0 8 3.6 8 8s-3.6 8-8 8h-.3c-.1-.3-.1-1.1-.2-2.1z" fill="#c8ab7a"/><path d="m140.6 37.9c3.2 0 5.9-2.6 5.9-5.9s-2.7-5.9-5.9-5.9c-.1 2.1-.1 4.9-.1 5.9s0 3.9.1 5.9" fill="#cdb487"/><path d="m141.3 38.2c.1 0 .2 0 .2-.1 0 0 .1-.1.1-.2v-.7c0-.1 0-.1-.1-.2-.1 0-.1-.1-.2-.1v-.7h.5c.2 0 .4.1.5.2s.2.2.2.4v1.5c0 .1-.1.3-.2.4s-.3.1-.5.1h-1.8c-.2 0-.3-.1-.5-.2-.1-.1-.2-.2-.2-.4v-1.5c0-.2.1-.3.2-.4s.3-.1.5-.1h1v2zm-.8-1.2c-.2 0-.3 0-.3.1-.1 0-.1.1-.1.2v.7c0 .1 0 .1.1.2.1 0 .2.1.3.1zm0-2.8c-.1 0-.2 0-.2.1 0 0-.1.1-.1.2v.7c0 .2.1.2.3.2h2v.7h-3.2v-.7h.4c-.1 0-.2-.1-.3-.2s-.1-.2-.1-.3v-.9c0-.1.1-.3.2-.4s.3-.2.5-.2h2.5v.8zm-2-2.1h.8v-1.1h.9v1.1h1.1c.1 0 .2 0 .2-.1 0 0 .1-.1.1-.2s0-.2-.1-.2c0 0-.1-.1-.2-.1h-.2v-.7h.2c.4 0 .7.1.9.2s.3.3.3.5v.6c0 .2-.1.4-.3.5s-.5.2-.9.2h-1.1v.3h-.9v-.3h-.8zm2.8-2.4c.1 0 .2 0 .2-.1 0 0 .1-.1.1-.2v-.7c0-.1 0-.1-.1-.2-.1 0-.1-.1-.2-.1v-.7h.5c.2 0 .4.1.5.2s.2.2.2.4v1.5c0 .1-.1.3-.2.4s-.3.1-.5.1h-1.8c-.2 0-.3-.1-.5-.2-.1-.1-.2-.2-.2-.4v-1.5c0-.2.1-.3.2-.4s.3-.1.5-.1h1v1.9zm-.8-1.1c-.2 0-.3 0-.3.1-.1 0-.1.1-.1.2v.7c0 .1 0 .1.1.2.1 0 .2.1.3.1zm0-2.6c-.2 0-.3.1-.3.2v.3c0 .1.1.2.2.2.1.1.3.1.4.1h1.7v.7h-3.2v-.7h.4c-.1 0-.2-.1-.3-.2s-.1-.2-.1-.3v-.5c0-.1.1-.3.2-.4s.3-.2.5-.2h.7v.7h-.2z" fill="#312a20"/><path d="m3.4 107.7h-2.7c-.4 0-.7-.3-.7-.7v-96.2c0-.4.3-.7.7-.7h2.7" fill="url(#c)"/><path d="m254.5 117.7v-117.7h.7c2.4 0 4.4 1.6 5 3.7.1.5.2 1 .2 1.5v107.2c0 .5-.1 1-.2 1.5-.6 2.2-2.7 3.7-5 3.7 0 .1-.7.1-.7.1z" fill="url(#d)"/><circle cx="212" cy="58.9" fill="#d4c1a0" r="28.3"/></svg>