<?xml version="1.0" encoding="utf-8"?>
<!-- Generator: Adobe Illustrator 21.1.0, SVG Export Plug-In . SVG Version: 6.00 Build 0)  -->
<svg version="1.0" id="Layer_1" xmlns="http://www.w3.org/2000/svg" xmlns:xlink="http://www.w3.org/1999/xlink" x="0px" y="0px"
	 viewBox="0 0 67.8 26.5" enable-background="new 0 0 67.8 26.5" xml:space="preserve">
<path fill="#131413" d="M34.6,0.8l33,1c0.1,0,0.2,0.1,0.2,0.2v22.5c0,0.1-0.1,0.2-0.2,0.2l-33,1H0.2c-0.1,0-0.2-0.1-0.2-0.2L0,1
	c0-0.1,0.1-0.2,0.2-0.2H34.6z"/>
<linearGradient id="SVGID_1_" gradientUnits="userSpaceOnUse" x1="21.8" y1="16.791" x2="46.03" y2="16.791" gradientTransform="matrix(4.489659e-11 -1 -1 -4.489659e-11 49.353 47.166)">
	<stop  offset="0" style="stop-color:#5D5B69"/>
	<stop  offset="6.000000e-03" style="stop-color:#76757A"/>
	<stop  offset="1.000000e-02" style="stop-color:#818182"/>
	<stop  offset="1.100000e-02" style="stop-color:#7D7C7E"/>
	<stop  offset="2.300000e-02" style="stop-color:#615E61"/>
	<stop  offset="3.300000e-02" style="stop-color:#504C4F"/>
	<stop  offset="4.000000e-02" style="stop-color:#4A4549"/>
	<stop  offset="0.5" style="stop-color:#514D50"/>
	<stop  offset="0.96" style="stop-color:#504C4F"/>
	<stop  offset="0.968" style="stop-color:#585557"/>
	<stop  offset="0.981" style="stop-color:#6E6C6E"/>
	<stop  offset="0.99" style="stop-color:#818182"/>
	<stop  offset="1" style="stop-color:#5D5B69"/>
</linearGradient>
<path fill="url(#SVGID_1_)" d="M30.5,1.3v23.9c0,0.1,0.1,0.2,0.2,0.2h3.8c0.1,0,0.2-0.1,0.2-0.2V1.3c0-0.1-0.1-0.2-0.2-0.2l0,0h-3.8
	C30.6,1.1,30.5,1.2,30.5,1.3z"/>
<path fill="#161413" d="M35.5,2.1v22.4L66,23.6c0.1,0,0.2-0.1,0.2-0.2c0,0,0,0,0,0v-2.6h-0.5c0,0-0.1,0-0.1-0.1v-1.8
	c0,0,0-0.1,0.1-0.1h0.5V7.7h-0.5c0,0-0.1,0-0.1-0.1V5.8c0,0,0-0.1,0.1-0.1h0.5V3.2C66.2,3,66.1,3,66,3c0,0,0,0,0,0L35.5,2.1z"/>
<path fill="#0C0C0C" d="M35.5,2l0.6,1.1v4.6h0.4v3h-0.4v5.1h0.4v3h-0.4v4.6l-0.6,1.1V2L35.5,2z"/>
<linearGradient id="SVGID_2_" gradientUnits="userSpaceOnUse" x1="23.256" y1="-16.8" x2="23.256" y2="13.894" gradientTransform="matrix(4.489659e-11 -1 -1 -4.489659e-11 49.353 47.166)">
	<stop  offset="0" style="stop-color:#131413"/>
	<stop  offset="0.5" style="stop-color:#1F1E1F"/>
	<stop  offset="1" style="stop-color:#232223"/>
</linearGradient>
<path fill="url(#SVGID_2_)" d="M66.2,23.4c0,0.1-0.1,0.2-0.2,0.2c0,0,0,0,0,0l-30.5,0.9l0.6-1.1H66.2z"/>
<linearGradient id="SVGID_3_" gradientUnits="userSpaceOnUse" x1="44.555" y1="-16.8" x2="44.555" y2="13.894" gradientTransform="matrix(4.489659e-11 -1 -1 -4.489659e-11 49.353 47.166)">
	<stop  offset="0" style="stop-color:#131413"/>
	<stop  offset="0.5" style="stop-color:#1F1E1F"/>
	<stop  offset="1" style="stop-color:#232223"/>
</linearGradient>
<path fill="url(#SVGID_3_)" d="M66.2,3.2C66.2,3.1,66.1,3,66,3c0,0,0,0,0,0L35.5,2.1l0.6,1.1H66.2z"/>
<path fill="#BD4C46" d="M9.8,25.7H3.5v0.5c0,0.2,0.1,0.3,0.2,0.3h5.8c0.1,0,0.2-0.1,0.2-0.3V25.7z M9.8,0.8H3.5V0.3
	C3.5,0.1,3.6,0,3.7,0l5.8,0c0.1,0,0.2,0.1,0.2,0.3V0.8z"/>
<path fill="#111111" d="M66.2,3.2v2.6h-0.5c0,0-0.1,0-0.1,0.1v1.8c0,0,0,0.1,0.1,0.1c0,0,0,0,0,0h0.5v11.1h-0.5c0,0-0.1,0-0.1,0.1
	v1.8c0,0,0,0.1,0.1,0.1c0,0,0,0,0,0h0.5v2.6l1.7,1.1V2L66.2,3.2z"/>
<path fill="#191819" d="M67.8,9.5v8h-2.7c-0.4,0-0.7-0.3-0.7-0.7v-6.5c0-0.4,0.3-0.7,0.7-0.7L67.8,9.5L67.8,9.5z"/>
<path fill="#514F51" stroke="#727172" stroke-width="5.000000e-02" stroke-miterlimit="10" d="M31,17.1c-0.1-0.1-0.1-0.2,0-0.3
	c0,0,0.1-0.1,0.1-0.1l1.6-0.5v0.3l-0.5,0.1v0.6l0.5,0.1v0.3l-1.6-0.5C31.1,17.1,31.1,17.1,31,17.1 M31.4,16.9l0.7,0.2v-0.4
	L31.4,16.9z M31,15c-0.1-0.1-0.1-0.2-0.1-0.2c0-0.1,0.1-0.1,0.2-0.2l1.6-0.5v0.3l-0.5,0.1v0.6l0.5,0.1v0.3L31.2,15
	C31.1,15,31.1,15,31,15 M32,15v-0.4l-0.7,0.2L32,15z M31,16.4v-1.1h0.3v0.4h1.5V16h-1.5v0.4H31z M31,13.7C31,13.7,30.9,13.6,31,13.7
	l0-0.4c0-0.2,0.1-0.4,0.3-0.5c0.1-0.1,0.2-0.1,0.3-0.1c0.1,0,0.2,0.1,0.3,0.2c0,0.1,0.1,0.1,0.1,0.2c0,0,0.1,0,0.1,0
	c0.2-0.2,0.4-0.3,0.7-0.5V13l-0.6,0.4c-0.1,0-0.1,0.1-0.2,0c-0.1,0-0.1-0.1-0.1-0.1c0-0.1-0.1-0.2-0.2-0.3c-0.1,0-0.2,0-0.2,0
	c-0.1,0-0.2,0.1-0.2,0.2v0.2c0,0,0,0.1,0.1,0.1h1.5v0.3h-1.6C31.1,13.9,31,13.8,31,13.7z M31,12.5v-0.3h1.8v0.3H31z"/>
<path fill="#514F51" stroke="#727172" stroke-width="5.000000e-02" stroke-miterlimit="10" d="M31,21h0.3c0.3,0,0.5,0,0.8,0.1
	c0.2,0,0.4,0.1,0.6,0.2c0.3,0.2,0.6,0.4,0.7,0.8c0.1,0.1,0.1,0.3,0.1,0.4h0.4c0-0.1,0-0.3-0.1-0.4c-0.1-0.2-0.2-0.4-0.3-0.6
	c-0.1-0.2-0.3-0.4-0.5-0.5c-0.1-0.1-0.3-0.1-0.4-0.1c-0.2,0-0.4-0.1-0.6-0.1c-0.1,0-0.3,0-0.4,0H31L31,21z M31,20.7h2
	c0.3,0,0.6,0,0.9,0v-0.5H31L31,20.7z M31,20.1h0.5c0.3,0,0.6,0,0.8,0c0.1,0,0.3,0,0.4-0.1c0.1,0,0.2-0.1,0.4-0.2
	c0.1-0.1,0.3-0.2,0.4-0.4c0.1-0.1,0.1-0.2,0.2-0.3c0.1-0.2,0.2-0.5,0.3-0.8h-0.4c0,0.3-0.2,0.6-0.4,0.8c-0.2,0.2-0.3,0.3-0.5,0.4
	c-0.2,0.1-0.4,0.2-0.7,0.2c-0.3,0-0.6,0.1-0.9,0V20.1z M32.6,7.9h0.2V9h-0.2l-0.8-0.8c-0.1-0.1-0.2-0.2-0.3-0.2
	c-0.2,0-0.3,0.2-0.3,0.3c0,0.2,0.1,0.3,0.3,0.3V9C31.2,9,31,8.8,31,8.5c0-0.3,0.2-0.6,0.5-0.6c0.1,0,0.3,0,0.4,0.1l0.7,0.7L32.6,7.9
	z M31,6.8c0,0.5,0.4,0.9,0.9,0.9c0.5,0,0.9-0.4,0.9-0.9c0-0.5-0.4-0.9-0.9-0.9C31.4,5.9,31,6.3,31,6.8z M32,6.1
	c0.4,0,0.7,0.3,0.7,0.7c0,0.4-0.3,0.7-0.7,0.7c-0.4,0-0.7-0.3-0.7-0.7C31.2,6.4,31.6,6.1,32,6.1z M31,4.8c0,0.5,0.4,0.9,0.9,0.9
	c0.5,0,0.9-0.4,0.9-0.9c0-0.5-0.4-0.9-0.9-0.9C31.4,3.8,31,4.3,31,4.8z M32,4.1c0.4,0,0.7,0.3,0.7,0.7c0,0.4-0.3,0.7-0.7,0.7
	c-0.4,0-0.7-0.3-0.7-0.7C31.2,4.4,31.6,4.1,32,4.1z M32.5,10.5l-0.1-0.2c0.2-0.1,0.3-0.3,0.3-0.5c0-0.1,0-0.3-0.1-0.3
	c-0.1-0.1-0.2-0.1-0.3-0.1c-0.1,0-0.2,0-0.3,0.1c-0.1,0.1-0.1,0.2-0.1,0.3c0,0.2,0,0.2,0.2,0.3l-0.1,0.2l-0.8-0.2V9.4l0.2,0v0.7
	l0.4,0.1c0-0.1,0-0.2,0-0.3c0-0.2,0.1-0.3,0.2-0.4c0.1-0.1,0.3-0.2,0.4-0.2c0.4,0,0.6,0.3,0.6,0.6c0,0,0,0,0,0c0,0.1,0,0.3-0.1,0.4
	S32.6,10.5,32.5,10.5z"/>
<linearGradient id="SVGID_4_" gradientUnits="userSpaceOnUse" x1="29.525" y1="15.643" x2="43.321" y2="15.643" gradientTransform="matrix(4.489659e-11 -1 -1 -4.489659e-11 49.353 47.166)">
	<stop  offset="1.600000e-02" style="stop-color:#FCDC05"/>
	<stop  offset="2.500000e-02" style="stop-color:#F9BF0D"/>
	<stop  offset="3.900000e-02" style="stop-color:#F59917"/>
	<stop  offset="5.300000e-02" style="stop-color:#F27E1E"/>
	<stop  offset="6.400000e-02" style="stop-color:#F16E22"/>
	<stop  offset="7.300000e-02" style="stop-color:#F06824"/>
	<stop  offset="7.800000e-02" style="stop-color:#EF5F25"/>
	<stop  offset="9.300000e-02" style="stop-color:#ED4926"/>
	<stop  offset="0.111" style="stop-color:#EB3827"/>
	<stop  offset="0.134" style="stop-color:#EA2D28"/>
	<stop  offset="0.165" style="stop-color:#E92629"/>
	<stop  offset="0.252" style="stop-color:#E92429"/>
	<stop  offset="0.255" style="stop-color:#E5242B"/>
	<stop  offset="0.295" style="stop-color:#B42B45"/>
	<stop  offset="0.336" style="stop-color:#89305C"/>
	<stop  offset="0.377" style="stop-color:#66346E"/>
	<stop  offset="0.419" style="stop-color:#4B387D"/>
	<stop  offset="0.461" style="stop-color:#383A87"/>
	<stop  offset="0.504" style="stop-color:#2D3C8D"/>
	<stop  offset="0.55" style="stop-color:#293C8F"/>
	<stop  offset="0.588" style="stop-color:#294092"/>
	<stop  offset="0.623" style="stop-color:#294B9A"/>
	<stop  offset="0.657" style="stop-color:#285EA8"/>
	<stop  offset="0.69" style="stop-color:#2878BC"/>
	<stop  offset="0.723" style="stop-color:#279AD5"/>
	<stop  offset="0.734" style="stop-color:#27A7DF"/>
	<stop  offset="0.736" style="stop-color:#25A7D9"/>
	<stop  offset="0.748" style="stop-color:#1BA5B3"/>
	<stop  offset="0.761" style="stop-color:#13A493"/>
	<stop  offset="0.775" style="stop-color:#0CA379"/>
	<stop  offset="0.79" style="stop-color:#07A264"/>
	<stop  offset="0.807" style="stop-color:#03A156"/>
	<stop  offset="0.828" style="stop-color:#01A14E"/>
	<stop  offset="0.863" style="stop-color:#00A14B"/>
	<stop  offset="1" style="stop-color:#89BE6A"/>
</linearGradient>
<path fill="url(#SVGID_4_)" stroke="#727172" stroke-width="0.1" stroke-miterlimit="10" d="M34.2,3.9v13.6c0,0,0,0.1-0.1,0.1l0,0
	h-0.7c0,0-0.1,0-0.1-0.1V3.9c0,0,0-0.1,0.1-0.1L34.2,3.9C34.1,3.8,34.2,3.9,34.2,3.9L34.2,3.9z"/>
<path fill="#181818" d="M3.9,2.1H7c0,0,0.1,0,0.1,0.1v22.3c0,0,0,0.1-0.1,0.1l0,0l-6.1,0c0,0-0.1,0-0.1-0.1V2.1c0,0,0-0.1,0.1-0.1
	H3.9"/>
<path fill="#262827" d="M0.8,2.1L1.5,3v20.5l-0.7,0.9V2.1z M7.1,24.4l-0.7-0.9V3l0.7-0.9V24.4z"/>
<path fill="#111111" d="M6.2,23.6H1.6c-0.1,0-0.1,0-0.1-0.1V3c0-0.1,0-0.1,0.1-0.1h4.6c0.1,0,0.1,0,0.1,0.1L6.2,23.6
	C6.3,23.6,6.3,23.6,6.2,23.6C6.2,23.6,6.2,23.6,6.2,23.6z"/>
<path fill="#161615" d="M1.5,16.9v-0.4l4.8,0v0.4L1.5,16.9z M1.5,10V9.6h4.8V10H1.5z"/>
<path fill="#161615" d="M1.5,16.9L2.3,18v4.3l-0.8,1.2V16.9z M6.3,16.9L5.5,18v4.3l0.8,1.2V16.9z M1.5,9.6l0.8-1.1V4.2L1.5,3V9.6z
	 M6.3,9.6L5.5,8.5V4.2L6.3,3V9.6z M1.5,16.5l0.8-1.1v-4.3L1.5,10V16.5z M6.3,16.5l-0.8-1.1v-4.3L6.3,10V16.5z"/>
<path fill="#0F0F0F" stroke="#000000" stroke-width="0.15" stroke-miterlimit="10" d="M5.5,4.2v4.3c0,0.2-0.1,0.3-0.3,0.3H2.6
	c-0.2,0-0.3-0.1-0.3-0.3V4.2c0-0.2,0.1-0.3,0.3-0.3h2.6C5.4,3.9,5.5,4,5.5,4.2z"/>
<path fill="#973E3A" d="M4.4,8v0.2H3.8c-0.1,0-0.2,0-0.3-0.1C3.5,8,3.4,8,3.4,7.9c0-0.1,0-0.2,0.1-0.2c0.1-0.1,0.1-0.1,0.2-0.1
	c0.1,0,0.2,0,0.2,0.1c0,0,0-0.1,0.1-0.1c0,0,0.1,0,0.1,0h0.3v0.2H4.2c-0.1,0-0.1,0-0.1,0c0,0,0,0.1,0,0.1v0.1H3.9v0c0,0,0-0.1,0-0.1
	s0,0-0.1,0c0,0-0.1,0-0.1,0s0,0,0,0.1c0,0.1,0,0.1,0.1,0.1c0,0,0.1,0,0.1,0H4.4z M4.2,6.7h0.2v0.1c0,0.1,0,0.3-0.2,0.4
	C4.2,7.3,4.1,7.4,3.9,7.4c-0.3,0-0.5-0.2-0.5-0.5c0,0,0,0,0,0V6.7h0.2v0.1c0,0.2,0.1,0.2,0.2,0.3V6.7H4v0.4c0.1,0,0.1,0,0.1-0.1
	c0-0.1,0.1-0.1,0.1-0.2L4.2,6.7z M4.4,6.6H4.2V6.4c0-0.1,0-0.1,0-0.1c0,0,0-0.1,0-0.1c0,0-0.1,0-0.1,0.1L3.9,6.5
	c0,0.1-0.1,0.1-0.2,0.1c-0.1,0-0.1,0-0.2-0.1c0-0.1-0.1-0.2-0.1-0.2V6h0.2v0.2c0,0,0,0.1,0,0.1c0,0,0,0,0,0c0,0,0,0,0,0
	c0,0,0,0,0.1-0.1L4,6.1C4,6,4.1,5.9,4.1,5.9c0.1,0,0.1,0,0.2,0c0,0,0.1,0.1,0.1,0.1s0,0.1,0,0.2V6.6z M4.2,5.2h0.2v0.1
	c0,0.1,0,0.3-0.2,0.4C4.2,5.8,4.1,5.9,3.9,5.9c-0.3,0-0.5-0.2-0.5-0.5c0,0,0,0,0,0V5.2h0.2v0.1c0,0.2,0.1,0.2,0.2,0.3V5.2H4v0.4
	c0.1,0,0.1,0,0.1-0.1c0-0.1,0.1-0.1,0.1-0.2L4.2,5.2z M4.4,4.7v0.2H3.7v0.2H3.4V4.5h0.2v0.2L4.4,4.7z"/>
<path fill="#0F0F0F" stroke="#000000" stroke-width="0.15" stroke-miterlimit="10" d="M5.5,18v4.3c0,0.2-0.1,0.3-0.3,0.3H2.6
	c-0.2,0-0.3-0.1-0.3-0.3V18c0-0.2,0.1-0.3,0.3-0.3h2.6C5.4,17.7,5.5,17.8,5.5,18z"/>
<path fill="#1E6547" d="M4.4,22H4.2v-0.2c0-0.1,0-0.1,0-0.1c0,0,0-0.1,0-0.1c0,0-0.1,0-0.1,0.1l-0.1,0.2C3.9,22,3.8,22,3.7,22
	c-0.1,0-0.1,0-0.2-0.1c0-0.1-0.1-0.2-0.1-0.2v-0.3h0.2v0.2c0,0,0,0.1,0,0.1c0,0,0,0,0,0c0,0,0,0,0,0c0,0,0,0,0.1-0.1l0.2-0.2
	c0-0.1,0.1-0.1,0.2-0.1c0.1,0,0.1,0,0.2,0c0,0,0.1,0.1,0.1,0.1s0,0.1,0,0.2V22z M4.4,20.9v0.2l-0.8,0v0.2H3.4v-0.6h0.2v0.2H4.4z
	 M4.4,19.9v0.2H4.1v0.2H3.9v-0.2H3.8c0,0-0.1,0-0.1,0c0,0-0.1,0.1,0,0.1c0,0,0,0.1,0.1,0.1c0,0,0.1,0,0.1,0h0.6v0.2H3.8
	c-0.1,0-0.2,0-0.3-0.1c-0.1-0.1-0.1-0.2-0.1-0.3c0-0.1,0-0.2,0.1-0.3c0.1-0.1,0.2-0.1,0.3-0.1H4.4z M4.4,19.5v0.2H3.8
	c-0.1,0-0.2,0-0.3-0.1c-0.1-0.1-0.1-0.2-0.1-0.3c0-0.1,0-0.2,0.1-0.2C3.6,19,3.6,19,3.7,19c0.1,0,0.2,0,0.2,0.1c0,0,0-0.1,0.1-0.1
	c0,0,0.1,0,0.1,0h0.3v0.2H4.2c-0.1,0-0.1,0-0.1,0c0,0,0,0.1,0,0.1v0.1H3.9v0c0,0,0-0.1,0-0.1c0,0,0,0-0.1,0c0,0-0.1,0-0.1,0
	c0,0,0,0,0,0.1c0,0.1,0,0.1,0.1,0.1c0,0,0.1,0,0.1,0H4.4z M4.4,18.5v0.2H3.7v0.2H3.4v-0.6h0.2v0.2L4.4,18.5z"/>
<path fill="#0F0F0F" stroke="#000000" stroke-width="0.15" stroke-miterlimit="10" d="M5.5,11.1v4.3c0,0.2-0.1,0.3-0.3,0.3H2.6
	c-0.2,0-0.3-0.1-0.3-0.3v-4.3c0-0.2,0.1-0.3,0.3-0.3h2.6C5.4,10.8,5.5,10.9,5.5,11.1z"/>
<path fill="#CFA634" d="M4.4,15v0.2H3.8c-0.1,0-0.2,0-0.3-0.1c-0.1-0.1-0.1-0.2-0.1-0.3c0-0.1,0-0.2,0.1-0.3
	c0.1-0.1,0.2-0.1,0.2-0.1c0.1,0,0.2,0,0.3,0.1c0.1,0.1,0.1,0.1,0.1,0.2V15H3.9v-0.1c0,0,0-0.1,0-0.1s-0.1,0-0.1,0
	c-0.1,0-0.1,0.1-0.1,0.1c0,0,0,0,0,0C3.6,15,3.7,15,3.8,15L4.4,15z M4.4,13.7v0.2H4.1v0.2H3.9v-0.2H3.8c0,0-0.1,0-0.1,0
	c0,0,0,0.1,0,0.1c0,0,0,0.1,0.1,0.1c0,0,0.1,0,0.1,0h0.6v0.2H3.8c-0.1,0-0.2,0-0.3-0.1c-0.1-0.1-0.1-0.2-0.1-0.3
	c0-0.1,0-0.2,0.1-0.3c0.1-0.1,0.2-0.1,0.3-0.1L4.4,13.7z M3.4,13v-0.2h0.6c0.1,0,0.2,0,0.3,0.1c0.1,0.1,0.1,0.2,0.1,0.3
	c0,0.1,0,0.2-0.1,0.3c-0.1,0.1-0.2,0.1-0.2,0.1H3.4v-0.2H4c0.1,0,0.2,0,0.2-0.1c0,0,0-0.1-0.1-0.1c0,0-0.1,0-0.1,0L3.4,13L3.4,13z
	 M4.4,12.7H4.2v-0.2c0-0.1,0-0.1,0-0.1c0,0,0-0.1,0-0.1c0,0-0.1,0-0.1,0.1l-0.1,0.2c0,0.1-0.1,0.1-0.2,0.1c-0.1,0-0.1,0-0.2-0.1
	c0-0.1-0.1-0.2-0.1-0.2v-0.3h0.2v0.2c0,0,0,0.1,0,0.1c0,0,0,0,0,0c0,0,0,0,0,0c0,0,0,0,0.1-0.1l0.2-0.2C4,12,4,12,4.1,12
	c0.1,0,0.1,0,0.2,0c0,0,0.1,0.1,0.1,0.1s0,0.1,0,0.2V12.7z M4.2,11.3h0.2v0.1c0,0.1,0,0.3-0.2,0.4c-0.1,0.1-0.2,0.1-0.3,0.1
	c-0.3,0-0.5-0.2-0.5-0.5c0,0,0,0,0,0v-0.2h0.2v0.1c0,0.2,0.1,0.2,0.2,0.3v-0.4H4v0.4c0.1,0,0.1,0,0.1-0.1c0-0.1,0.1-0.1,0.1-0.2
	L4.2,11.3z"/>
<path fill="#232624" d="M0,1l0.8,1.1v22.3L0,25.5L0,1z"/>
<path fill="#181918" d="M44.2,16.5v5.2c0,0,0,0.1-0.1,0.1l0,0h-4.2c0,0-0.1,0-0.1-0.1v-5.2c0,0,0-0.1,0.1-0.1L44.2,16.5
	C44.2,16.4,44.2,16.5,44.2,16.5z M44.2,10.6v5.2c0,0,0,0.1-0.1,0.1l0,0h-4.2c0,0-0.1,0-0.1-0.1v-5.2c0,0,0-0.1,0.1-0.1L44.2,10.6
	C44.2,10.6,44.2,10.6,44.2,10.6C44.2,10.6,44.2,10.6,44.2,10.6z M44.2,4.7V10c0,0,0,0.1-0.1,0.1l0,0h-4.2c0,0-0.1,0-0.1-0.1V4.7
	c0,0,0-0.1,0.1-0.1L44.2,4.7C44.2,4.7,44.2,4.7,44.2,4.7C44.2,4.7,44.2,4.7,44.2,4.7z M50.2,16.5v5.2c0,0,0,0.1-0.1,0.1l0,0h-4.2
	c0,0-0.1,0-0.1-0.1v-5.2c0,0,0-0.1,0.1-0.1L50.2,16.5C50.1,16.4,50.2,16.5,50.2,16.5z M50.2,10.6v5.2c0,0,0,0.1-0.1,0.1l0,0h-4.2
	c0,0-0.1,0-0.1-0.1v-5.2c0,0,0-0.1,0.1-0.1L50.2,10.6C50.1,10.6,50.2,10.6,50.2,10.6L50.2,10.6z M50.2,4.7V10c0,0,0,0.1-0.1,0.1l0,0
	h-4.2c0,0-0.1,0-0.1-0.1V4.7c0,0,0-0.1,0.1-0.1L50.2,4.7C50.1,4.7,50.2,4.7,50.2,4.7L50.2,4.7z M56.1,16.5v5.2c0,0,0,0.1-0.1,0.1
	l0,0h-4.2c0,0-0.1,0-0.1-0.1v-5.2c0,0,0-0.1,0.1-0.1L56.1,16.5C56.1,16.4,56.1,16.5,56.1,16.5z M56.1,10.6v5.2c0,0,0,0.1-0.1,0.1
	l0,0h-4.2c0,0-0.1,0-0.1-0.1v-5.2c0,0,0-0.1,0.1-0.1L56.1,10.6C56.1,10.6,56.1,10.6,56.1,10.6L56.1,10.6z M56.1,4.7V10
	c0,0,0,0.1-0.1,0.1l0,0h-4.2c0,0-0.1,0-0.1-0.1V4.7c0,0,0-0.1,0.1-0.1L56.1,4.7C56.1,4.7,56.1,4.7,56.1,4.7L56.1,4.7z M62.1,16.5
	v5.2c0,0,0,0.1-0.1,0.1l0,0h-4.2c0,0-0.1,0-0.1-0.1v-5.2c0,0,0-0.1,0.1-0.1L62.1,16.5C62,16.4,62.1,16.5,62.1,16.5z M62.1,10.6v5.2
	c0,0,0,0.1-0.1,0.1l0,0h-4.2c0,0-0.1,0-0.1-0.1v-5.2c0,0,0-0.1,0.1-0.1L62.1,10.6C62,10.6,62.1,10.6,62.1,10.6
	C62.1,10.6,62.1,10.6,62.1,10.6z M62.1,4.7V10c0,0,0,0.1-0.1,0.1l0,0h-4.2c0,0-0.1,0-0.1-0.1V4.7c0,0,0-0.1,0.1-0.1L62.1,4.7
	C62,4.7,62.1,4.7,62.1,4.7C62.1,4.7,62.1,4.7,62.1,4.7z"/>
<path fill="#30302F" d="M43.3,17.3V21c0,0.1,0,0.1-0.1,0.1h-2.4c-0.1,0-0.1,0-0.1-0.1v-3.7c0-0.1,0-0.1,0.1-0.1L43.3,17.3
	C43.3,17.2,43.3,17.2,43.3,17.3C43.3,17.3,43.3,17.3,43.3,17.3z M43.3,11.4v3.7c0,0.1,0,0.1-0.1,0.1h-2.4c-0.1,0-0.1,0-0.1-0.1v-3.7
	c0-0.1,0-0.1,0.1-0.1L43.3,11.4C43.3,11.3,43.3,11.4,43.3,11.4z M43.3,5.5v3.7c0,0.1,0,0.1-0.1,0.1h-2.4c-0.1,0-0.1,0-0.1-0.1V5.5
	c0-0.1,0-0.1,0.1-0.1L43.3,5.5C43.3,5.4,43.3,5.5,43.3,5.5z M49.3,17.3V21c0,0.1,0,0.1-0.1,0.1h-2.4c-0.1,0-0.1,0-0.1-0.1v-3.7
	c0-0.1,0-0.1,0.1-0.1L49.3,17.3C49.3,17.2,49.3,17.2,49.3,17.3C49.3,17.3,49.3,17.3,49.3,17.3z M49.3,11.4v3.7c0,0.1,0,0.1-0.1,0.1
	h-2.4c-0.1,0-0.1,0-0.1-0.1v-3.7c0-0.1,0-0.1,0.1-0.1L49.3,11.4C49.2,11.3,49.3,11.4,49.3,11.4z M49.3,5.5v3.7c0,0.1,0,0.1-0.1,0.1
	h-2.4c-0.1,0-0.1,0-0.1-0.1V5.5c0-0.1,0-0.1,0.1-0.1L49.3,5.5C49.3,5.4,49.3,5.5,49.3,5.5L49.3,5.5z M55.3,17.3V21
	c0,0.1,0,0.1-0.1,0.1h-2.4c-0.1,0-0.1,0-0.1-0.1v-3.7c0-0.1,0-0.1,0.1-0.1L55.3,17.3C55.2,17.2,55.3,17.2,55.3,17.3
	C55.3,17.3,55.3,17.3,55.3,17.3z M55.3,11.4v3.7c0,0.1,0,0.1-0.1,0.1h-2.4c-0.1,0-0.1,0-0.1-0.1v-3.7c0-0.1,0-0.1,0.1-0.1L55.3,11.4
	C55.2,11.3,55.3,11.4,55.3,11.4z M55.3,5.5v3.7c0,0.1,0,0.1-0.1,0.1h-2.4c-0.1,0-0.1,0-0.1-0.1V5.5c0-0.1,0-0.1,0.1-0.1L55.3,5.5
	C55.2,5.4,55.3,5.5,55.3,5.5L55.3,5.5z M61.2,17.3V21c0,0.1,0,0.1-0.1,0.1h-2.4c-0.1,0-0.1,0-0.1-0.1v-3.7c0-0.1,0-0.1,0.1-0.1
	L61.2,17.3C61.2,17.2,61.2,17.2,61.2,17.3C61.2,17.3,61.2,17.3,61.2,17.3z M61.2,11.4v3.7c0,0.1,0,0.1-0.1,0.1h-2.4
	c-0.1,0-0.1,0-0.1-0.1v-3.7c0-0.1,0-0.1,0.1-0.1L61.2,11.4C61.2,11.3,61.2,11.4,61.2,11.4z M61.2,5.5v3.7c0,0.1,0,0.1-0.1,0.1h-2.4
	c-0.1,0-0.1,0-0.1-0.1V5.5c0-0.1,0-0.1,0.1-0.1L61.2,5.5C61.2,5.4,61.2,5.5,61.2,5.5z"/>
<path fill="#AD9A3B" d="M42.9,19.1h-1.2v0.4h-0.2c0-0.1,0-0.3-0.1-0.3c-0.1-0.1-0.1-0.1-0.2-0.1v-0.2h1.7L42.9,19.1L42.9,19.1z
	 M42.9,13.8L42.9,13.8c-0.2,0-0.3,0-0.4-0.1c-0.1-0.1-0.2-0.2-0.3-0.4L42,13.2c0-0.1-0.1-0.1-0.2-0.2s-0.1-0.1-0.2-0.1
	c-0.1,0-0.2,0-0.2,0.1c-0.1,0.1-0.1,0.2-0.1,0.2c0,0.1,0,0.2,0.1,0.2c0.1,0.1,0.2,0.1,0.3,0.1h0v0.2h0c-0.2,0-0.3-0.1-0.4-0.2
	c-0.1-0.1-0.2-0.3-0.2-0.4c0-0.2,0-0.3,0.1-0.4c0.1-0.1,0.2-0.2,0.4-0.2c0.1,0,0.2,0,0.3,0.1c0.1,0.1,0.2,0.2,0.2,0.3l0.1,0.1
	c0.1,0.1,0.1,0.2,0.2,0.3c0.1,0.1,0.1,0.1,0.2,0.1v-0.9h0.2L42.9,13.8L42.9,13.8z M42.3,8V7.7c0.1,0,0.2,0,0.3-0.1
	c0.1-0.1,0.1-0.1,0.1-0.3c0-0.1,0-0.2-0.1-0.3C42.6,7,42.5,7,42.4,7c-0.1,0-0.2,0-0.2,0.1c-0.1,0.1-0.1,0.2-0.1,0.3l0,0l0,0.1h-0.2
	l0,0v0c0-0.1,0-0.2-0.1-0.2s-0.1-0.1-0.2-0.1c-0.1,0-0.2,0-0.2,0.1c0,0.1-0.1,0.1-0.1,0.2c0,0.1,0,0.2,0.1,0.2s0.2,0.1,0.3,0.1v0.2
	h0c-0.2,0-0.3,0-0.4-0.1c-0.1-0.1-0.2-0.2-0.1-0.4c0-0.2,0-0.3,0.1-0.4c0.1-0.1,0.2-0.1,0.3-0.1c0.1,0,0.1,0,0.2,0.1
	c0.1,0,0.1,0.1,0.1,0.2C42,7,42,6.9,42.1,6.8s0.2-0.1,0.3-0.1c0.1,0,0.3,0.1,0.4,0.2c0.1,0.1,0.2,0.3,0.1,0.4c0,0.2,0,0.3-0.2,0.4
	C42.6,7.9,42.5,8,42.3,8L42.3,8z M48.8,19h-0.4v0.7h-0.2l-1-0.7v-0.2h1v-0.2h0.2v0.2h0.4V19z M48.2,19.5V19h-0.8L48.2,19.5z
	 M48.3,13.8v-0.2c0.1,0,0.2-0.1,0.2-0.1s0.1-0.1,0.1-0.2c0-0.1,0-0.2-0.1-0.3c-0.1-0.1-0.2-0.1-0.3-0.1c-0.1,0-0.2,0-0.3,0.1
	s-0.1,0.2-0.1,0.3c0,0.1,0.1,0.2,0.2,0.3v0.2l-0.9-0.1v-0.9h0.2v0.7l0.5,0.1c0,0-0.1-0.1-0.1-0.1c0-0.1,0-0.1,0-0.2
	c0-0.2,0-0.3,0.2-0.4c0.1-0.1,0.3-0.2,0.4-0.2c0.2,0,0.3,0.1,0.4,0.2c0.1,0.1,0.2,0.3,0.2,0.4c0,0.1,0,0.3-0.1,0.4
	C48.6,13.8,48.5,13.8,48.3,13.8z M47.6,6.8V7c-0.1,0-0.2,0-0.2,0.1s-0.1,0.1-0.1,0.2c0,0.1,0.1,0.2,0.2,0.3c0.1,0.1,0.3,0.1,0.5,0.1
	c-0.1,0-0.1-0.1-0.1-0.2c0-0.1,0-0.2,0-0.2c0-0.2,0.1-0.3,0.2-0.4c0.1-0.1,0.2-0.1,0.4-0.1s0.3,0.1,0.4,0.2s0.2,0.2,0.2,0.4
	c0,0.2-0.1,0.3-0.2,0.5S48.3,8,48.1,8c-0.3,0-0.5-0.1-0.7-0.2c-0.2-0.1-0.3-0.3-0.2-0.5c0-0.2,0-0.3,0.1-0.4
	C47.3,6.8,47.4,6.8,47.6,6.8z M48.3,7c-0.1,0-0.2,0-0.3,0.1s-0.1,0.1-0.1,0.2c0,0.1,0,0.2,0.1,0.3c0.1,0.1,0.2,0.1,0.3,0.1
	c0.1,0,0.2,0,0.3-0.1s0.1-0.1,0.1-0.3c0-0.1,0-0.2-0.1-0.2C48.5,7,48.4,7,48.3,7z M54.8,19.5c-0.5-0.1-1-0.3-1.4-0.7v0.9h-0.2v-1.2
	h0.2c0.4,0.4,0.9,0.6,1.4,0.7V19.5z M53.9,13.6c0,0.1-0.1,0.1-0.1,0.2c-0.1,0-0.1,0.1-0.2,0.1c-0.1,0-0.2,0-0.3-0.1
	s-0.1-0.2-0.1-0.4c0-0.2,0-0.3,0.1-0.4c0.1-0.1,0.2-0.1,0.3-0.1c0.1,0,0.2,0,0.2,0.1c0.1,0,0.1,0.1,0.1,0.2c0-0.1,0.1-0.2,0.2-0.2
	c0.1,0,0.2-0.1,0.3-0.1c0.1,0,0.3,0.1,0.4,0.2c0.1,0.1,0.2,0.3,0.1,0.4c0,0.2,0,0.3-0.1,0.4c-0.1,0.1-0.2,0.2-0.4,0.2
	c-0.1,0-0.2,0-0.3-0.1S53.9,13.6,53.9,13.6z M54.3,13.6c0.1,0,0.2,0,0.2-0.1s0.1-0.1,0.1-0.3s0-0.2-0.1-0.3s-0.1-0.1-0.2-0.1
	c-0.1,0-0.2,0-0.2,0.1S54,13.1,54,13.2c0,0.1,0,0.2,0.1,0.3S54.2,13.6,54.3,13.6z M53.5,13.5c0.1,0,0.1,0,0.2-0.1
	c0.1-0.1,0.1-0.1,0.1-0.2c0-0.1,0-0.2-0.1-0.2c0-0.1-0.1-0.1-0.2-0.1s-0.1,0-0.2,0.1c0,0.1-0.1,0.1-0.1,0.2c0,0.1,0,0.2,0.1,0.2
	C53.4,13.5,53.5,13.5,53.5,13.5z M54.3,8V7.7c0.1,0,0.2,0,0.2-0.1s0.1-0.1,0.1-0.2c0-0.1,0-0.2-0.2-0.3S54.2,7,54,7
	c0.1,0,0.1,0.1,0.1,0.2c0,0.1,0,0.1,0,0.2c0,0.1,0,0.3-0.2,0.4C53.9,7.9,53.8,8,53.6,8c-0.2,0-0.3-0.1-0.4-0.2s-0.2-0.2-0.2-0.4
	c0-0.2,0.1-0.3,0.2-0.5s0.3-0.2,0.6-0.2c0.3,0,0.5,0.1,0.7,0.2s0.2,0.3,0.2,0.5c0,0.2,0,0.3-0.1,0.4S54.5,8,54.3,8z M53.6,7.7
	c0.1,0,0.2,0,0.3-0.1C54,7.6,54,7.5,54,7.4c0-0.1,0-0.2-0.1-0.3C53.8,7.1,53.7,7,53.6,7c-0.1,0-0.2,0-0.3,0.1
	c-0.1,0.1-0.1,0.2-0.1,0.3c0,0.1,0,0.2,0.1,0.2C53.4,7.7,53.5,7.7,53.6,7.7z M60.1,18.5C60.1,18.5,60.1,18.5,60.1,18.5
	c0.1,0,0.1,0,0.2,0c0.1,0,0.1,0.1,0.1,0.1c0,0,0,0,0,0.1L60.1,19l0.5-0.1c0,0,0,0,0,0s0,0.1,0,0.1c0,0.1,0,0.1,0,0.1s0,0,0,0
	l-0.5-0.1l0.3,0.4c0,0,0,0,0,0.1c0,0,0,0-0.1,0.1c-0.1,0-0.1,0-0.1,0s0,0,0,0l-0.2-0.5l-0.2,0.5c0,0,0,0,0,0s-0.1,0-0.1,0
	c0,0-0.1-0.1-0.1-0.1c0,0,0,0,0-0.1l0.3-0.4l-0.5,0.1c0,0,0,0,0,0s0-0.1,0-0.1c0-0.1,0-0.1,0-0.1s0,0,0,0l0.5,0.1l-0.3-0.4
	c0,0,0,0,0-0.1c0,0,0,0,0.1-0.1c0,0,0.1,0,0.1,0c0,0,0,0,0,0l0.2,0.5L60.1,18.5z M59.9,13.8c-0.3,0-0.5-0.1-0.7-0.1
	c-0.1-0.1-0.2-0.3-0.2-0.4c0-0.2,0.1-0.3,0.2-0.4s0.4-0.1,0.7-0.1s0.5,0,0.7,0.1c0.1,0.1,0.2,0.3,0.2,0.4c0,0.2-0.1,0.3-0.2,0.4
	C60.4,13.8,60.2,13.8,59.9,13.8z M59.9,13.6c0.2,0,0.4,0,0.5-0.1c0.1,0,0.2-0.2,0.2-0.3c0-0.1-0.1-0.2-0.2-0.3
	c-0.1-0.1-0.3-0.1-0.5-0.1s-0.4,0-0.5,0.1s-0.2,0.1-0.2,0.3c0,0.1,0.1,0.2,0.2,0.3C59.5,13.6,59.7,13.6,59.9,13.6z M59,7.5V7.4
	l0.5,0.1V7.1L59,7V6.8L59.6,7V6.8h0.2V7L60,7.1V6.9h0.2v0.2l0.5,0.1v0.2l-0.5-0.1v0.3l0.5,0.1v0.2l-0.5-0.1V8H60V7.7l-0.3-0.1v0.2
	h-0.2V7.6L59,7.5z M59.7,7.5l0.3,0.1V7.2l-0.3-0.1V7.5z"/>
<ellipse fill="#0F0F0F" cx="18.9" cy="13.3" rx="9.8" ry="10.2"/>
<ellipse fill="#0A0A0A" cx="18.2" cy="13.3" rx="8.2" ry="8.6"/>
<circle fill="#0F0F0F" cx="18.5" cy="13.3" r="7.2"/>
<circle fill="none" stroke="#000000" stroke-width="0.144" stroke-miterlimit="10" cx="13.5" cy="13.3" r="2.2"/>
<ellipse fill="#080808" cx="18.3" cy="13.3" rx="5.7" ry="6.5"/>
<path fill="#0C0C0C" d="M13.8,18.3c-2.6,0-4.7-2.3-4.7-5.1s2.1-5.1,4.7-5.1l4.7-0.6c2.9,0,5.3,2.5,5.3,5.6s-2.4,5.6-5.3,5.6
	L13.8,18.3z"/>
<path fill="#161616" d="M13.7,18.3c2.6,0,4.7-2.3,4.7-5.1s-2.1-5.1-4.7-5.1h0c-2.6,0-4.7,2.3-4.7,5.1S11.2,18.3,13.7,18.3"/>
<g>
	<ellipse fill="none" stroke="#0F0C0D" stroke-width="0.491" stroke-miterlimit="10" cx="13.6" cy="13.3" rx="3.6" ry="3.8"/>
	<ellipse fill="none" stroke="#0F0C0D" stroke-width="0.172" stroke-miterlimit="10" cx="13.5" cy="13.3" rx="2.6" ry="2.7"/>
	<circle fill="none" stroke="#0F0C0D" stroke-width="0.122" stroke-miterlimit="10" cx="13.5" cy="13.3" r="1.9"/>
	<circle fill="none" stroke="#0F0C0D" stroke-width="0.104" stroke-miterlimit="10" cx="13.5" cy="13.3" r="1.6"/>
	<path fill="none" stroke="#0F0C0D" stroke-width="5.700000e-02" stroke-miterlimit="10" d="M14.4,13.3c0,0.5-0.4,0.9-0.9,0.8
		c-0.4,0-0.8-0.4-0.8-0.8c0-0.5,0.4-0.9,0.9-0.8C14,12.5,14.4,12.8,14.4,13.3z"/>
</g>
<g>
	<ellipse fill="#0F0C0D" cx="13.6" cy="13.7" rx="0.2" ry="0.1"/>
	<ellipse fill="#0F0C0D" cx="13.6" cy="12.9" rx="0.2" ry="0.1"/>
</g>
<path fill="#0A0A0A" d="M23.3,11l-5.2,0.4L18,11.5c-0.1,0-0.2,0.1-0.2,0.2s0.1,0.2,0.2,0.2l0.3-0.1l5.2-0.4 M22,9.1l-4.7,0.8
	L17.2,10c-0.1,0.1-0.1,0.3,0,0.3c0.1,0.1,0.2,0.1,0.3,0l0.1-0.1l4.8-0.8 M19.6,7.8l-3.7,1l-0.1,0.1c-0.1,0.1,0,0.3,0.1,0.3
	c0.1,0.1,0.2,0,0.3-0.1L16.3,9l4-1 M23.8,13.1h-5.5c-0.1,0-0.2,0.1-0.2,0.2c0,0,0,0,0,0c0,0.1,0.1,0.2,0.2,0.2c0,0,0,0,0,0h5.5
	C23.8,13.3,23.8,13.2,23.8,13.1z M15.9,8l-1.1,0.1l-0.5,0.2l0,0.1c0,0.2,0,0.3,0.1,0.3c0.1,0,0.2-0.1,0.2-0.2l0-0.2L15.9,8z
	 M23.3,15.6l-5.2-0.4L18,15.1c-0.1,0-0.2-0.1-0.2-0.2s0.1-0.2,0.2-0.2l0.3,0.1l5.2,0.4 M22,17.4l-4.7-0.8l-0.1-0.1
	c-0.1-0.1-0.1-0.3,0-0.3c0.1-0.1,0.2-0.1,0.3,0l0.1,0.1l4.8,0.8 M19.6,18.7l-3.7-1l-0.1-0.1c-0.1-0.1,0-0.3,0.1-0.3
	c0.1-0.1,0.2,0,0.3,0.1l0.1,0.1l4,1 M15.9,18.6l-1.1-0.1l-0.5-0.2l0-0.1c0-0.2,0-0.3,0.1-0.3c0.1,0,0.2,0.1,0.2,0.2l0,0.2L15.9,18.6
	z M10,10.2l0.2,0.1c0.1,0.1,0.2,0.1,0.3,0c0.1-0.1,0.1-0.2,0-0.3c0,0-0.2-0.1-0.1-0.1C10.2,10,10.1,10.1,10,10.2z M11.2,9l0.1,0.2
	c0,0.1,0.2,0.1,0.3,0.1c0.1,0,0.1-0.2,0.1-0.3l-0.1-0.1C11.5,8.9,11.4,8.9,11.2,9 M9.1,13.4h0.2c0.1,0,0.2-0.1,0.2-0.2c0,0,0,0,0,0
	c0-0.1-0.1-0.2-0.2-0.2c0,0,0,0,0,0H9.1C9.1,13.2,9.1,13.3,9.1,13.4 M12.9,8.3l0,0.2c0,0.1,0.1,0.2,0.2,0.2c0.1,0,0.2-0.1,0.1-0.3
	l0-0.1C13.1,8.2,13,8.3,12.9,8.3z M9.3,11.8c0-0.1,0.1-0.2,0.1-0.4l0.2,0.1c0.1,0,0.2,0.1,0.2,0.2s-0.1,0.2-0.2,0.2L9.3,11.8z
	 M10,16.3l0.2-0.1c0.1-0.1,0.2-0.1,0.3,0c0.1,0.1,0.1,0.2,0,0.3c0,0-0.2,0.1-0.1,0.1C10.2,16.5,10.1,16.4,10,16.3z M11.2,17.5
	l0.1-0.2c0-0.1,0.2-0.1,0.3-0.1c0.1,0,0.1,0.2,0.1,0.3l-0.1,0.1C11.5,17.6,11.4,17.6,11.2,17.5 M12.9,18.2l0-0.2
	c0-0.1,0.1-0.2,0.2-0.2c0.1,0,0.2,0.1,0.1,0.3l0,0.1C13.1,18.3,13,18.2,12.9,18.2z M9.3,14.7c0,0.1,0.1,0.2,0.1,0.4l0.2-0.1
	c0.1,0,0.2-0.1,0.2-0.2s-0.1-0.2-0.2-0.2L9.3,14.7z"/>
</svg>
