<?xml version="1.0" encoding="utf-8"?>
<!-- Generator: Adobe Illustrator 23.0.3, SVG Export Plug-In . SVG Version: 6.00 Build 0)  -->
<svg version="1.1" id="Layer_1" xmlns="http://www.w3.org/2000/svg" xmlns:xlink="http://www.w3.org/1999/xlink" x="0px" y="0px"
	 viewBox="0 0 362.5 123.2" style="enable-background:new 0 0 362.5 123.2;" xml:space="preserve">
<style type="text/css">
	.st0{fill:url(#SVGID_1_);}
	.st1{fill:url(#SVGID_2_);}
	.st2{fill:#171614;}
	.st3{fill:#1B1E22;}
	.st4{fill:#151314;}
	.st5{fill:url(#SVGID_3_);}
	.st6{fill:#212122;}
</style>
<path d="M28.5,118.4V20h2.1v98.4H28.5z"/>
<linearGradient id="SVGID_1_" gradientUnits="userSpaceOnUse" x1="173.674" y1="215.831" x2="173.674" y2="244.3069" gradientTransform="matrix(4.489659e-11 -1 -1 -4.489659e-11 244.3069 242.845)">
	<stop  offset="0" style="stop-color:#2B2724"/>
	<stop  offset="1" style="stop-color:#171517"/>
</linearGradient>
<path class="st0" d="M28.5,122.9V15.5c-0.7,0-1.4,0.1-2.1,0.1c-5.3,0.6-8.8,3.5-11.4,5.8C8.4,27,5.9,33.8,3.9,39.4
	c-3.1,8.4-3.5,15.5-3.8,21.1C0,62.9-0.2,69.1,0.9,77.4c1.1,8.5,2.5,19.4,9.5,30.5c4.2,6.7,9.1,12.9,17,14.8
	C27.6,122.7,28,122.8,28.5,122.9z"/>
<linearGradient id="SVGID_2_" gradientUnits="userSpaceOnUse" x1="173.4849" y1="213.713" x2="173.4849" y2="174.08" gradientTransform="matrix(4.489659e-11 -1 -1 -4.489659e-11 244.3069 242.845)">
	<stop  offset="0" style="stop-color:#2B2724"/>
	<stop  offset="1" style="stop-color:#171517"/>
</linearGradient>
<path class="st1" d="M70.2,74.6c-2.7,0.3-6.4,1.2-10,3.6c-4.3,2.9-6.3,6.7-7.8,9.4c-1.7,3.2-2.5,5.8-3.5,9.5
	c-2.1,7.4-1.2,8.5-3.1,13.8c-1.6,4.3-2.8,7.7-6.1,10c-3.1,2.1-6.6,2.4-9.1,2.2V15.6h0c4.8,0.4,9.3,2.7,12.1,6.4
	c2,2.6,1.4,3.5,3.6,7.1c4.5,7.3,11.8,10.2,14,11c2,0.7,5.9,1.6,10,1.6L70.2,74.6L70.2,74.6z"/>
<path class="st2" d="M70.2,71.3V45.9h9.9v25.4H70.2z"/>
<path class="st3" d="M94,94.7v5.6c0,7.8,6.4,14.2,14.2,14.2h238.2c7.8,0,14.2-6.4,14.2-14.2V14.2c0-7.8-6.4-14.2-14.2-14.2L108.1,0
	C100.4,0,94,6.4,94,14.2V19c0,1.1-0.9,2-2,2l0,0h-9.9c-1.1,0-2,0.9-2,2v67.8c0,1.1,0.9,2,2,2H92C93.1,92.7,94,93.6,94,94.7z"/>
<path class="st4" d="M362.5,25.3v17.9c0,0.2-0.2,0.4-0.4,0.4h-1.7V24.9h1.7C362.4,24.9,362.5,25,362.5,25.3z"/>
<linearGradient id="SVGID_3_" gradientUnits="userSpaceOnUse" x1="185.97" y1="164.206" x2="185.97" y2="-116.169" gradientTransform="matrix(4.489659e-11 -1 -1 -4.489659e-11 244.3069 242.845)">
	<stop  offset="0" style="stop-color:#222224"/>
	<stop  offset="8.500000e-02" style="stop-color:#191D21"/>
	<stop  offset="0.871" style="stop-color:#181C20"/>
	<stop  offset="0.919" style="stop-color:#181C20"/>
	<stop  offset="1" style="stop-color:#232325"/>
</linearGradient>
<path class="st5" d="M82.1,92.8h278.4V21H82.1c-1.1,0-2,0.9-2,2v67.8C80.1,91.9,81,92.8,82.1,92.8z"/>
<g>
	<path class="st6" d="M117.1,92.8V21h4.4v71.8H117.1z M126.7,92.8V21h4.4v71.8H126.7z M136.4,92.8V21h4.4v71.8H136.4z M146,92.8V21
		h4.4v71.8H146z M155.6,92.8V21h4.4v71.8H155.6z M165.2,92.8V21h4.4v71.8H165.2z M174.9,92.8V21h4.4v71.8H174.9z M184.5,92.8V21h4.4
		v71.8H184.5z M194.1,92.8V21h4.4v71.8H194.1z M203.7,92.8V21h4.4v71.8H203.7z M213.4,92.8V21h4.4v71.8H213.4z M223,92.8V21h4.4
		v71.8H223z M232.6,92.8V21h4.4v71.8H232.6z M242.2,92.8V21h4.4v71.8H242.2z M251.9,92.8V21h4.4v71.8H251.9z M261.5,92.8V21h4.4
		v71.8H261.5z M271.1,92.8V21h4.4v71.8H271.1z M280.7,92.8V21h4.4v71.8H280.7z M290.4,92.8V21h4.4v71.8H290.4z M300,92.8V21h4.4
		v71.8H300z M309.6,92.8V21h4.4v71.8H309.6z M319.2,92.8V21h4.4v71.8H319.2z M328.9,92.8V21h4.4v71.8H328.9z"/>
</g>
</svg>
