<svg enable-background="new 0 0 200 93.6" viewBox="0 0 200 93.6" xmlns="http://www.w3.org/2000/svg"><path d="m0 0h200v93.6h-200z" fill="none"/><g transform="matrix(.60510344 0 0 -.60510344 0 200)"><path d="m330.5 183.2c0-4.1-3.3-7.4-7.4-7.4h-315.7c-4.1 0-7.4 3.3-7.4 7.4v119.6c0 4.1 3.3 7.8 7.3 8.2l153.8 17.3c4 .5 10.6.4 14.7 0l147.4-17.3c4-.5 7.3-4.2 7.3-8.2z" fill="#444141"/><path d="m324.5 184.8c0-3.9-3.2-7.1-7.1-7.1h-304.3c-3.9 0-7.1 3.2-7.1 7.1v115.2c0 3.9 3.2 7.5 7.1 7.9l148.2.4c3.9.4 10.3.4 14.1 0l142-.4c3.9-.5 7.1-4 7.1-7.9z" fill="#4f4c4d"/><path d="m80.2 221.7c0-16.9-13.7-30.7-30.7-30.7-16.9 0-30.7 13.7-30.7 30.7 0 16.9 13.7 30.7 30.7 30.7 16.9 0 30.7-13.8 30.7-30.7" fill="#5a5758"/><path d="m90.9 185.5h-14.7c-5.1 0-6.8.4-6.8 2.7 0 2.2 2.1 3 5.4 6.5 6.7 7.2 11.7 16.3 11.7 26.9 0 20.4-16.5 37-37 37-9.7 0-17.5-4.4-17.5-4.4-3.5-1.8-6.1-.8-6.1 3.3v33.3c0 4.1 3.3 7.4 7.4 7.4h64.6c4.1 0 7.4-2.8 7.4-6.2v-6.4c0-34.7 28.1-63 62.8-63s62.8 27.8 62.8 62.5v6.5c0 3.7 3.3 6.7 7.4 6.7h61.9c4.1 0 7.4-3.3 7.4-7.4v-67c2.8-3.9 4.5-8.8 4.5-14 0-13.5-10.9-24.2-24.4-24.2z" fill="#110f0d"/><path d="m287.9 220.4c-6.1 0-11.1-4.9-11.1-11s5-11 11.1-11 11.1 4.9 11.1 11-5 11-11.1 11m0-26.6c-8.7 0-15.7 7-15.7 15.6s7 15.6 15.7 15.6 15.7-7 15.7-15.6-7.1-15.6-15.7-15.6" fill="#4f4c4d"/><path d="m287.9 196.1c7.4 0 13.4 5.9 13.4 13.3s-6 13.3-13.4 13.3-13.4-5.9-13.4-13.3c0-7.3 6-13.3 13.4-13.3" fill="#656263"/><path d="m196.2 203.1h-15.7c-3.8 0-6.9 3.1-6.9 6.9s3.1 6.9 6.9 6.9h15.7c3.8 0 6.9-3.1 6.9-6.9s-3.1-6.9-6.9-6.9" fill="#4f4c4d"/><path d="m196.2 205.4h-15.7c-2.5 0-4.6 2.1-4.6 4.6 0 2.6 2.1 4.6 4.6 4.6h15.7c2.6 0 4.6-2.1 4.6-4.6s-2.1-4.6-4.6-4.6" fill="#656263"/><path d="m155.7 203.1h-15.7c-3.8 0-6.9 3.1-6.9 6.9s3.1 6.9 6.9 6.9h15.7c3.8 0 6.9-3.1 6.9-6.9s-3.1-6.9-6.9-6.9" fill="#4f4c4d"/><path d="m155.7 205.4h-15.7c-2.5 0-4.6 2.1-4.6 4.6 0 2.6 2.1 4.6 4.6 4.6h15.7c2.5 0 4.6-2.1 4.6-4.6s-2.1-4.6-4.6-4.6" fill="#656263"/><path d="m52.3 290.6c-.6-.5-1.1-1.1-1.4-1.8s-.5-1.5-.5-2.1c0-.7.1-1.3.4-1.9s.7-1.1 1.2-1.5 1.1-.5 1.7-.6 1.1-.1 1.5 0 .7.2 1 .3l1.6 3.3c-.4-.2-.8-.4-1.3-.5-.4-.2-.9-.4-1.4-.4-.5-.1-1 0-1.4.3s-.8.7-1 1.3c-.2.5-.2 1.1-.1 1.6s.4 1 .8 1.4.8.8 1.2 1 .8.3 1.1.4l1.2-1.7 1.4.5-1 2.4c-.3 0-.5 0-.9 0-.3 0-.7-.1-1.1-.2s-.8-.2-1.3-.5c-.5-.5-1.1-.8-1.7-1.3m-9 .9c.1-.2.3-.4.3-.6l-.6-2.9c0-.2-.2-.4-.4-.5s-.4-.1-.5-.2c.2-.1.3-.1.4-.3.1-.1.3-.3.2-.5l-.6-2.8c-.1-.3-.3-.4-.5-.6-.2-.1-.4-.2-.6-.3h7.6l.5 2.8c-.3-.6-.6-1.2-1.1-1.6s-1.2-.7-1.9-.7h-1.4l.7 3.5c.2.1.5.1.8 0s.5-.4.7-.6c.2-.3.4-.5.5-.8l.7 3.7c-.2-.3-.5-.5-.8-.7s-.6-.4-.9-.5-.6-.1-.8 0l.7 3.5h1.1c.5 0 1 .1 1.4-.3.4-.3.7-1 1-1.7l.6 2.5h-7.7c.2-.2.4-.3.6-.4m-4-4.5-4.5 5.4-2-2.3 1-.9-1.2-6.5 2.3 1-1.2 1.1.7 3.4 4.7-5.4 1.6 7.4 1.7 1-2 1.2z" fill="#0a93b2"/><path d="m257.4 232c4.2 0 7.6 3.3 7.6 7.6 0 4.2-3.4 7.6-7.6 7.6h-13.9c-4.2 0-7.6-3.3-7.6-7.6 0-4.2 3.4-7.6 7.6-7.6z" fill="#0a93b2"/><g fill="#4f4c4d"><path d="m243.1 259.2c0-3.3 2.6-6 6-6 3.3 0 6 2.7 6 6v17c0 3.3-2.6 6-6 6-3.3 0-6-2.7-6-6z"/><path d="m237.8 277.6c-1.1 0-2-.9-2-1.9s.9-1.9 2-1.9h5.5c1.1 0 2 .9 2 1.9s-.9 1.9-2 1.9zm0-15.8c-1.1 0-2-.9-2-1.9s.9-1.9 2-1.9h5.5c1.1 0 2 .9 2 1.9s-.9 1.9-2 1.9zm0 7.9c-1.1 0-2-.9-2-1.9 0-1.1.9-1.9 2-1.9h5.5c1.1 0 2 .9 2 1.9 0 1.1-.9 1.9-2 1.9zm57.4-10.5c0-3.3-2.6-6-6-6-3.3 0-6 2.7-6 6v17c0 3.3 2.6 6 6 6 3.3 0 6-2.7 6-6z"/><path d="m300.5 277.6c1.1 0 2-.9 2-1.9s-.9-1.9-2-1.9h-5.5c-1.1 0-2 .9-2 1.9s.9 1.9 2 1.9zm0-15.8c1.1 0 2-.9 2-1.9s-.9-1.9-2-1.9h-5.5c-1.1 0-2 .9-2 1.9s.9 1.9 2 1.9zm0 7.9c1.1 0 2-.9 2-1.9 0-1.1-.9-1.9-2-1.9h-5.5c-1.1 0-2 .9-2 1.9 0 1.1.9 1.9 2 1.9z"/></g><path d="m294.8 232c4.2 0 7.6 3.3 7.6 7.6 0 4.2-3.4 7.6-7.6 7.6h-13.9c-4.2 0-7.6-3.3-7.6-7.6 0-4.2 3.4-7.6 7.6-7.6z" fill="#0a93b2"/><path d="m250.4 220.4c-6.1 0-11.1-4.9-11.1-11s5-11 11.1-11 11.1 4.9 11.1 11-5 11-11.1 11m0-26.6c-8.7 0-15.7 7-15.7 15.6s7 15.6 15.7 15.6 15.7-7 15.7-15.6-7-15.6-15.7-15.6" fill="#4f4c4d"/><path d="m250.4 196.1c7.4 0 13.4 5.9 13.4 13.3s-6 13.3-13.4 13.3-13.4-5.9-13.4-13.3c0-7.3 6-13.3 13.4-13.3" fill="#656263"/><path d="m124.2 330.5c-1.5 0-2.8-1.2-2.8-2.8v-45.5c0-26.2 20.9-47.5 47.1-47.5s47.1 21.2 47.1 47.4v45.6c0 1.5-1.2 2.8-2.8 2.8z" fill="#444141"/><path d="m57.8 251.7c0 .5-.4 1.1-.9 1.2 0 0-2.9.9-7.4.9-4.3 0-7.4-.9-7.4-.9-.5-.1-.9-.6-.9-1.2v-20.7c0-.5-.4-1-1-1h-20.7c-.5 0-1.1-.4-1.2-.9 0 0-.9-2.9-.9-7.4 0-3.8.9-7.4.9-7.4.1-.5.6-.9 1.2-.9h20.6c.5 0 1-.4 1-1v-20.6c0-.5.4-1.1.9-1.2 0 0 2.5-.9 7.4-.9 5 0 7.4.9 7.4.9.5.1.9.6.9 1.2v20.6c0 .5.4 1 1 1h20.6c.5 0 1.1.4 1.2.9 0 0 .9 2.5.9 7.4 0 5.2-.9 7.4-.9 7.4-.1.5-.6.9-1.2.9h-20.5c-.5 0-1 .4-1 1z" fill="#656263"/><path d="m56.5 221.7c0-3.9-3.2-7-7-7-3.9 0-7 3.2-7 7 0 3.9 3.2 7 7 7 3.9.1 7-3.1 7-7" fill="#444141"/><path d="m88.7 235c.2-.6.9-1.1 1.5-1.1h13c.6 0 1 .5.8 1.1 0 0-.7 2.2-1.3 3.8-.5 1.3-1.2 2.8-1.2 2.8-.3.6-1 1-1.6 1h-13.5c-.6 0-.9-.4-.6-1 0 0 1-1.8 1.6-3.2.7-1.4 1.3-3.4 1.3-3.4m-6.3-38.1c-.4-.5-.1-.9.5-.9h14.4c.6 0 1.4.4 1.8.9 0 0 2.9 4.2 4.2 7.8 1.1 3.4 2.2 10 2.2 10 .1.6-.3 1.1-1 1.1h-12.9c-.6 0-1.2-.5-1.4-1.1 0 0-1.2-5.7-2.6-8.9-1.4-3.5-5.2-8.9-5.2-8.9m22.8 33.1c-.1.6-.7 1.1-1.3 1.1h-12.9c-.6 0-1-.5-.9-1.1 0 0 .5-2.4.7-4.2.1-1.3.2-2.6.2-4 0-1.1-.1-2.3-.1-2.3 0-.6.4-1.1 1.1-1.1h12.8c.6 0 1.2.5 1.2 1.1 0 0 .1 1.2.1 2.3 0 1.2 0 2.3-.1 3.5-.3 2-.8 4.7-.8 4.7m-17.7 28.9c-.5.4-1.4.7-2 .7h-18.8c-.6 0-.7-.2-.1-.5 0 0 2.5-1.1 4.1-2.1s3.8-2.6 3.8-2.6c.5-.4 1.4-.7 2-.7h15.5c.6 0 .8.4.3.8 0 0-1.2 1.2-2.3 2.2-1.1 1.1-2.5 2.2-2.5 2.2m11-13.7c.6 0 .9.4.5 1 0 0-.9 1.4-1.7 2.6-.6.9-1.2 1.6-1.2 1.6-.4.5-1.2.9-1.8.9h-14.8c-.6 0-.8-.4-.3-.8 0 0 .9-.9 1.6-1.7 1-1.1 2.1-2.6 2.1-2.6.4-.5 1.2-.9 1.8-.9 0-.1 13.8-.1 13.8-.1zm-17.7 17.6c-4.3 2.5-7 3.8-12.5 5.2-5.2 1.3-10.9 2-17.1 2-.6 0-1.6.1-2.3.1h-15.4c-.6 0-1.1-.5-1.1-1.1v-5.5c0-.6.5-1.1 1.1-1.1h47.2c.6-.1.6.1.1.4m182.5 12.8c0-1.2-1-2.2-2.2-2.2s-2.2 1-2.2 2.2 1 2.2 2.2 2.2 2.2-.9 2.2-2.2" fill="#0a93b2"/><path d="m255.1 259.2c0-3.3-2.7-6-6-6s-6 2.7-6 6 2.7 6 6 6 6-2.7 6-6m40 0c0-3.3-2.7-6-6-6s-6 2.7-6 6 2.7 6 6 6c3.4 0 6-2.7 6-6" fill="#656263"/><path d="m271.7 275.6c0-1.2-1-2.2-2.2-2.2s-2.2 1-2.2 2.2 1 2.2 2.2 2.2 2.2-.9 2.2-2.2m8.4 0c0-1.2-1-2.2-2.2-2.2s-2.2 1-2.2 2.2 1 2.2 2.2 2.2 2.2-.9 2.2-2.2m-12.6-7.9c0-1.2-1-2.2-2.2-2.2s-2.2 1-2.2 2.2 1 2.2 2.2 2.2 2.2-.9 2.2-2.2m8.4 0c0-1.2-1-2.2-2.2-2.2s-2.2 1-2.2 2.2 1 2.2 2.2 2.2 2.2-.9 2.2-2.2m-4.2-7.8c0-1.2-1-2.2-2.2-2.2s-2.2 1-2.2 2.2 1 2.2 2.2 2.2 2.2-1 2.2-2.2" fill="#0a93b2"/></g></svg>