<svg enable-background="new 0 0 200 52.6" viewBox="0 0 200 52.6" xmlns="http://www.w3.org/2000/svg"><path d="m0 0h200v52.6h-200z" fill="none"/><g transform="matrix(.43553592 0 0 -.43553592 -.000014 200.00005)"><path d="m329.2 389.4c1.2-1.5 1.8-4.7-2.1-4.4-8 0-16.2-.9-24 .4-3.6.6-7.1 5.5-9.6 9.3-1.2 1.9-1 7.8-.1 8.3 3.9 1.9 9.1 4.4 12.2 2.8 3.3-1.7 5.3-6.8 8.1-11.5.4-.7 1.3-.5 1.5.2l3.4 9.8c.3.7 1.1.8 1.5.2.1.1 9.1-15.1 9.1-15.1zm-27.1 59.3c-15.1 0-32.8 0-48.3 0-.4 0-.8.3-.9.8l-1.1 6.5c-.1.5-.4.8-.9.8h-235c-.5 0-.8-.4-.9-.9l-.6-8c0-.5-.4-.8-.8-.9l-12.9-.9c-.5 0-.8-.5-.8-1v-19.2c0-.5.3-.9.8-1l7.1-.7c.4 0 .7-.4.8-.9.9-9.2 1-17.8 3.1-25.7 1-3.5 6.4-7.8 9.8-7.9 34.6-.6 69.2-.4 103.9-.3 11.1 0 10.9 9.2 11.2 18.3 0 .5.4.9.9.9h38.7c.4 0 .8-.4.9-.9.2-2.6-.2-7.3.3-9.1.1-.3 1-.5 1.5.1 8.6 9.7 23.6 7.8 37 7.8 17.6 0 34.8.4 52.9.5 8.5 0 14.5-2.7 16.9-12.3 3.5-13.7 11.3-19.2 23.8-16.6 3.2.6 6.5.1 9.8.1 19.9 0 19.7-.1 26.8-19.5 2.4-6.5 6.1-12.5 9.6-18.4.8-1.3 3.5-1.7 5.3-1.7 9.4-.1 19.1 16.3 14.8 25.7-4.5 10-9.9 19.4-14.5 29.2-2.6 5.4-6.5 14.4-6 16.3 1.7 6.2 7 34.7 2 35.6"/><path d="m184.8 407.9h168.2c1.2 0 2.2.9 2.5 2.2l3.5 18.2c.9 6.5-2.7 10.9-7.8 10.9h-166.4c-1.4 0-2.5-1.3-2.5-2.8v-25.7c0-1.6 1.1-2.8 2.5-2.8" fill="#212121"/><path d="m359 349.8c1.8-3.3 3.6-5.9 7.2-2.3 3.2 3.2 6.9 6.5 5.1 11.9-1.4 4.3-3.1 9.2-6.1 11.9-10 9.3-12.5 22-14.3 35.2-7.6 6.9-12.8 6.3-19.6-2.2" fill="#292828"/><path d="m359 437.5v9c0 1.2-1.1 2.1-2.4 2.1h-177.6c-1.3 0-2.4-.9-2.4-2.1v-9" fill="#3b3b3b"/><path d="m394.7 425.4c15.8-5.8 31.9-9.8 48-13.8 6.5-1.6 12.3 1.8 10.7 8.5-3 12.6-4.6 21.2-7.7 36.5-20.5.1-41.5.2-62 .4-1 0-2.2.4-2.9-.1-12.4-10.3-24.5-2.9-37.1.2-9.6 2.3-18.5 2.4-27.8 1.8 0-7.8 5.9-7.9 10.3-9.2" fill="#6e4428"/><path d="m445.7 456.7c1.8-10.8 3.6-21.5 5.4-32.3 1.3-8-.2-11.6-8.7-9.5-22.6 5.5-44.9 11.8-66 22.7-1.2.6-2.9 1.9-3.6 1.4-9.9-7.1-15.5 3.4-23 6.6-7.6 3.2-14.9 7.3-23.3 7.6-3.6.2-7.9 1.3-10.2 5.6-5.6-.1-10.1.4-13.7-3.5-1.5-1.6-1.9-4.2-.9-6.2 1.8-3.3 5.5-3.5 8.6-3.8 4.4-.4 8.2-.4 12.3-.5 7.7-.5 15.3-2.5 23-3.4 6.2-.5 11.8-1.9 11.8-10.9 1.2-4 2.9-6.9 6.8-3.3 4.7 4.3 9.8 3.3 14.8 1.2 8.4-3.5 17.3-5.1 25.5-9.4 14.4-6.4 29.7-8.7 44.6-12.7 10.5-2.9 11.6-.4 9 11.8-2.4 11.1-4.8 22.2-6.2 33.5-.7 5.6-2.6 6-6.2 5.1" fill="#4f2f1b"/><path d="m404.4 419.2c-9 8.2-21 8.7-30.7 15-3.5 2.3-6.9-.3-9.3-3.6-2.5-3.5-4.6-3.1-7 0 .1-3 .1-6.1.2-9.1 12.9 9 25.7 3 38.4-.7 2.9-.8 5.7-.7 8.4-1.6" fill="#361e10"/><path d="m178.1 398.4h-.3c-.7 0-1.3.6-1.3 1.3v38.2c0 .7.6 1.3 1.3 1.3h.3c.7 0 1.3-.6 1.3-1.3v-38.2c0-.8-.6-1.3-1.3-1.3" fill="#212121"/><path d="m241.4 435.1h102.6l-3.9 2.4h-102.6zm-59.1-19.3h114.4l-3.9 2.4h-110.5z"/><path d="m182.3 410.4h127.3l-4.4 4.5h-122.9z" fill="#383838"/><path d="m191.4 421.6h35.5c2.3 0 4.2 1.9 4.2 4.2v12.9c0 2.3-1.9 4.2-4.2 4.2h-35.5c-2.3 0-4.2-1.9-4.2-4.2v-12.9c0-2.3 1.9-4.2 4.2-4.2"/><path d="m189 437.6v-10.7c0-2.2 1.6-4 3.5-4h33.6c1.9 0 3.5 1.8 3.5 4v10.7" fill="#3d3d3d"/><path d="m229.7 437.6c0 2.2-1.6 4-3.5 4h-33.7c-1.9 0-3.5-1.8-3.5-4" fill="#6c6c6c"/><path d="m189 430.9v1.9h25.8v-1.9z"/><path d="m174 408.6v6.8c0 2.4-1.8 4.4-3.9 4.4h-34.3c-2.2 0-3.9-2-3.9-4.4v-6.8" fill="#3e3e3e"/><path d="m21.8 448.6h148.1c2.3 0 4.2-1.9 4.2-4.2v-16.8c0-2.3-1.9-4.2-4.2-4.2h-148.1c-2.3 0-4.2 1.9-4.2 4.2v16.8c0 2.4 1.9 4.2 4.2 4.2" fill="#252525"/><path d="m174 437.6v6.6h-156.4v-6.6z" fill="#6c6c6c"/><path d="m17.6 432.7v4.9h156.4v-4.9z" fill="#3d3d3d"/><path d="m22.4 432.7h111.4c4.6 0 8.3-3.7 8.3-8.3v-26.4c0-4.6-3.7-8.3-8.3-8.3h-111.4c-4.6 0-8.3 3.7-8.3 8.3v26.4c0 4.5 3.7 8.3 8.3 8.3" fill="#5f3a22"/><g fill="#361e10"><path d="m127.3 394.2v24.7c0 1.8-1.3 3.3-3 3.3s-3-1.5-3-3.3v-24.7m-9.7 0v24.7c0 1.8-1.3 3.3-3 3.3s-3-1.5-3-3.3v-24.7m-9.7 0v24.7c0 1.8-1.3 3.3-3 3.3s-3-1.5-3-3.3v-24.7m-11.8 0v24.7c0 1.8-1.3 3.3-3 3.3s-3-1.5-3-3.3v-24.7m-9.6 0v24.7c0 1.8-1.3 3.3-3 3.3s-3-1.5-3-3.3v-24.7m-9.7 0v24.7c0 1.8-1.3 3.3-3 3.3s-3-1.5-3-3.3v-24.7"/><path d="m134.2 391.9c0 1.2-.9 2.3-2 2.3h-110.3c-1.1 0-2-1-2-2.3s.9-2.3 2-2.3h110.3c1.1 0 2 1.1 2 2.3"/><path d="m31.4 394.2v24.7c0 1.8-1.3 3.3-3 3.3s-3-1.5-3-3.3v-24.7"/></g><path d="m124.3 395.4c.4 0 .7.3.7.7v21.6c0 .4-.3.7-.7.7s-.7-.3-.7-.7v-21.6c0-.4.3-.7.7-.7m-15.7 0c.4 0 .7.3.7.7v21.6c0 .4-.3.7-.7.7s-.7-.3-.7-.7v-21.6c.1-.4.4-.7.7-.7m-15.6 0c.4 0 .7.3.7.7v21.6c0 .4-.3.7-.7.7s-.7-.3-.7-.7v-21.6c0-.4.3-.7.7-.7m-17.8 0c.4 0 .7.3.7.7v21.6c0 .4-.3.7-.7.7s-.7-.3-.7-.7v-21.6c0-.4.3-.7.7-.7m-15.7 0c.4 0 .7.3.7.7v21.6c0 .4-.3.7-.7.7s-.7-.3-.7-.7v-21.6c.1-.4.4-.7.7-.7m-15.7 0c.4 0 .7.3.7.7v21.6c0 .4-.3.7-.7.7s-.7-.3-.7-.7v-21.6c.1-.4.4-.7.7-.7m-15.3 0c.4 0 .7.3.7.7v21.6c0 .4-.3.7-.7.7s-.7-.3-.7-.7v-21.6c0-.4.3-.7.7-.7"/></g></svg>