<svg enable-background="new 0 0 400 233.8" viewBox="0 0 400 233.8" xmlns="http://www.w3.org/2000/svg"><path d="m252.2 0h-246.5c-3.1 0-5.7 2.5-5.7 5.7v222.1c0 3.2 2.6 5.7 5.7 5.7h246.5c3.2 0 5.7-2.6 5.7-5.7v-222.1c0-3.2-2.5-5.7-5.7-5.7z" fill="#a29583"/><path d="m47.5 57.2h-32c-3.2 0-5.7 2.6-5.7 5.7v29.6c0 3.2 2.6 5.7 5.7 5.7h32c3.2 0 5.7-2.6 5.7-5.7v-29.5c0-3.2-2.6-5.8-5.7-5.8zm56.3-49.6h-32c-3.2 0-5.7 2.6-5.7 5.7v29.6c0 3.2 2.6 5.7 5.7 5.7h32c3.2 0 5.7-2.6 5.7-5.7v-29.6c.1-3.2-2.5-5.7-5.7-5.7z" fill="#d7250b"/><path d="m61.3 233.5h190.9c3.2 0 5.7-2.6 5.7-5.7v-170.6c0-3.2-2.6-5.7-5.7-5.7h-190.9c-3.2 0-5.7 2.6-5.7 5.7v170.6c0 3.2 2.6 5.7 5.7 5.7z" fill="#a29583"/><path d="m252.2 233.8h-190.9c-3.3 0-6-2.7-6-6v-170.6c0-3.3 2.7-6 6-6h190.9c3.3 0 6 2.7 6 6v170.6c0 3.3-2.7 6-6 6zm-190.9-182.1c-3 0-5.5 2.5-5.5 5.5v170.6c0 3 2.5 5.5 5.5 5.5h190.9c3 0 5.5-2.5 5.5-5.5v-170.6c0-3-2.5-5.5-5.5-5.5z" fill="#2d241a"/><path d="m226.9 209.8h-140.3c-3.2 0-5.7-2.6-5.7-5.7v-125.1c0-3.2 2.6-5.7 5.7-5.7h140.3c3.2 0 5.7 2.6 5.7 5.7v125.1c0 3.1-2.6 5.7-5.7 5.7z" fill="#685646"/><path d="m29.8 215.3h-19.1c-3.2 0-5.7-2.6-5.7-5.7v-19.1c0-3.2 2.6-5.7 5.7-5.7h19.1c3.2 0 5.7 2.6 5.7 5.7v19.1c0 3.2-2.5 5.7-5.7 5.7z" fill="#847863"/><path d="m11.9 197.2c1.1-1.8 2.9-2.8 4.5-2.8 1.7 0 2.7.9 4.2.9 1.3 0 2.2-.9 4.1-.9 1.5 0 3.1.8 4.2 2.2-.3.2-.6.4-.8.6z" fill="#a29583"/><path d="m23.3 192.8c.7-.9 1.2-2.2 1.1-3.5-1.1.1-2.5.8-3.3 1.8-.7.9-1.3 2.1-1.1 3.4 1.2.1 2.5-.7 3.3-1.7zm-11.4 4.3c-.5.8-.8 1.9-.9 2.8h15.6c.2-1.1.7-2.1 1.6-2.8zm-.8 5.6c-.1-1-.2-1.9-.1-2.8h15.5c-.1 1 0 1.9.4 2.8zm.8 2.8c-.4-.9-.6-1.9-.8-2.8h15.8c.5 1.1 1.4 2.1 2.7 2.5 0 .1-.1.1-.1.2h-17.6zm17.5 0c-.4 1-.7 1.5-1.3 2.4-.1.1-.1.2-.2.4h-14.5s-.1-.1-.1-.2c-.5-.8-1-1.7-1.3-2.6zm-1.5 2.8c-.9 1.3-2.1 2.8-3.5 2.8s-1.8-.9-3.7-.9-2.3.9-3.7.9c-1.5 0-2.7-1.4-3.6-2.8z" fill="#a29583"/><g fill="#6d5a4b"><path d="m230.4 74.4.3.4-73.6 66.8-.3-.4z"/><path d="m83.1 74.5 73.9 66.7-.3.4-73.9-66.8z"/><path d="m156.7 141.2.3.4-74.2 67-.3-.4z"/><path d="m157 141.2 73.7 66.9-.3.4-73.7-66.9z"/></g><circle cx="156.9" cy="141.6" fill="#463a2d" r="17.4"/><path d="m156.9 159.3c-9.7 0-17.7-7.9-17.7-17.7s7.9-17.7 17.7-17.7 17.7 7.9 17.7 17.7c0 9.7-7.9 17.7-17.7 17.7zm0-34.9c-9.5 0-17.2 7.7-17.2 17.2s7.7 17.2 17.2 17.2 17.2-7.7 17.2-17.2-7.7-17.2-17.2-17.2z" fill="#606060"/><ellipse cx="169.7" cy="47.2" fill="#3f3126" rx="15.1" ry="11.7"/><path d="m169.7 59.1c-8.5 0-15.3-5.3-15.3-11.9s6.9-11.9 15.3-11.9 15.3 5.3 15.3 11.9-6.9 11.9-15.3 11.9zm0-23.4c-8.2 0-14.9 5.2-14.9 11.5s6.6 11.5 14.9 11.5 14.9-5.2 14.9-11.5-6.7-11.5-14.9-11.5z" fill="#606060"/><path d="m168.1 120.4-3 21.1c0 4.2-3.7 7.6-8.3 7.6-4.5 0-8.3-3.4-8.3-7.6l3.1-21.9" fill="#372e24"/><path d="m156.9 149.5c-4.7 0-8.5-3.5-8.5-7.9l3.1-21.9h.5l-3.1 21.9c0 4.1 3.6 7.4 8 7.4s8-3.3 8-7.4l3-21.2h.5l-3 21.1c0 4.4-3.8 8-8.5 8z" fill="#606060"/><path d="m168.1 120.4c-2 1.6-4.7 2.6-7.8 2.6-3.5 0-6.6-1.3-8.6-3.4" fill="#372e24"/><path d="m160.3 123.3c-3.4 0-6.6-1.2-8.7-3.4l.3-.3c2.1 2.1 5.1 3.3 8.4 3.3 2.9 0 5.6-.9 7.6-2.6l.3.4c-2.1 1.7-4.9 2.6-7.9 2.6z" fill="#606060"/><path d="m184.8 47.2c0 6.4-6.7 11.7-15.1 11.7-8.3 0-15.1-5.3-15.1-11.7v.3l-6.6 30.6 1.6 36.3c0 4.8 5 8.7 11.1 8.7 6.2 0 10.6-4.8 11.7-8.6l10.4-35.6 2-32.1" fill="#403124"/><path d="m160.7 123.3c-6.3 0-11.4-4-11.4-9v-.2l-1.6-36.1 6.6-30.5v-.2h.5c0 6.3 6.6 11.5 14.9 11.5 7.5 0 13.8-4.4 14.7-10l.1-1.9h.5v.4c0 .5 0 1-.1 1.5l-1.9 30.3-10.4 35.6c-1 3.5-5.4 8.6-11.9 8.6zm-10.9-8.7c.1 4.6 5 8.3 10.9 8.3 6.2 0 10.4-4.9 11.5-8.5l10.4-35.5 1.7-28c-2 4.8-7.8 8.3-14.6 8.3-7.7 0-14-4.4-15.1-10.2l-6.3 29.1c0 .1 1.5 36.5 1.5 36.5z" fill="#606060"/><path d="m344.6 54.5c-1.4 0-2.6-1-2.8-2.4-3.1-18.1 2.1-27.6 5.4-31.7 8.8-10.7 20.5-13.6 32.8-16.7 4.3-1.1 8.6-2.1 13-3.6 1.5-.5 3.2.3 3.6 1.8.5 1.5-.3 3.2-1.8 3.6-4.5 1.5-9.1 2.6-13.4 3.7-11.9 3-22.2 5.5-29.7 14.7-2.2 2.7-7 10.7-4.3 27.1.3 1.6-.8 3.1-2.3 3.3-.2.2-.4.2-.5.2z" fill="#919d9c"/><path d="m325.8 47.5h37.6c.8 0 1.4.6 1.4 1.4v.9c0 .8-.6 1.4-1.4 1.4h-37.6c-.8 0-1.4-.6-1.4-1.4v-.8c0-.8.7-1.5 1.4-1.5z" fill="#979577"/><path d="m331.7 44.4h25.9l1.8 3.6h-29.3m2.6-9.4h24.1l1.7 4.2h-27.3m3.6-10.5h19.8l1.4 4.8h-22.4m3.3-10.5h15.7l1.1 4.7h-17.8" fill="#919d9c"/><path d="m298.3 49.5h92.8c4.9 0 8.9 4 8.9 8.9v151.6c0 4.9-4 8.9-8.9 8.9h-92.8c-4.9 0-12.8-4-12.8-8.9l3.9-151.6c-.1-4.8 3.9-8.9 8.9-8.9" fill="none"/><path d="m298.3 49.5h92.8c4.9 0 8.9 4 8.9 8.9v151.6c0 4.9-4 8.9-8.9 8.9h-92.8c-4.9 0-12.8-4-12.8-8.9l3.9-151.6c-.1-4.8 3.9-8.9 8.9-8.9z" fill="#9e9a7b"/><path d="m304.8 76h78.4c3.8 0 6.9 3.1 6.9 6.9v102.7c0 3.8-3.1 6.9-6.9 6.9h-78.4c-3.8 0-6.9-3.1-6.9-6.9v-102.7c.1-3.8 3.1-6.9 6.9-6.9z" fill="#aaa584"/><path d="m311.2 58.5h64.1c1.9 0 3.4 1.5 3.4 3.4v43.1c0 1.9-1.5 3.4-3.4 3.4h-64.1c-1.9 0-3.4-1.5-3.4-3.4v-43.1c-.1-1.9 1.5-3.4 3.4-3.4z" fill="#525b55"/><path d="m310.6 76.3h65.5c.8 0 1.4.6 1.4 1.4v28.5c0 .8-.6 1.4-1.4 1.4h-65.5c-.8 0-1.4-.6-1.4-1.4v-28.4c-.1-.8.6-1.5 1.4-1.5z" fill="#6e766f"/><path d="m310.6 59.6h65.5c.8 0 1.4.6 1.4 1.4v14.1c0 .8-.6 1.4-1.4 1.4h-65.5c-.8 0-1.4-.6-1.4-1.4v-14c-.1-.8.6-1.5 1.4-1.5z" fill="#949f94"/><path d="m310.6 105.4h65.5c.8 0 1.4.5 1.4 1.1s-.6 1.1-1.4 1.1h-65.5c-.8 0-1.4-.5-1.4-1.1-.1-.6.6-1.1 1.4-1.1z" fill="#4e453d"/><path d="m312.3 162.9h12.4c1.9 0 3.4 1.5 3.4 3.4v12.7c0 1.9-1.5 3.4-3.4 3.4h-12.4c-1.9 0-3.4-1.5-3.4-3.4v-12.7c0-1.9 1.5-3.4 3.4-3.4z" fill="#a19b7e"/><path d="m298.7 51.3c1.8 5.3 3.5 10.5 5.3 15.8.8 2.5 1.7 4.9 2.4 7.4.1.4.3.8.2 1.2-.3.5-.8.4-1.3.4-2.6-.1-4.6 1-6.1 3-.1.2-.3.5-.7.5-1.4-1.8-2.3-3.9-3.3-5.9-1.8-3.4-3.5-6.8-5.1-10.3-.2-.5-.4-1.1-.8-1.4v-5.5c.3-.1.3-.4.4-.6 1.4-4 4.4-6.2 8.6-6.4" fill="#a7a488"/><path d="m285.5 205.5c1.4-1.9 2.9-3.8 4.3-5.8 2.4-3.3 4.9-6.6 7.3-10 .2-.2.3-.5.7-.6.7 0 .9.4 1.2.7 1.9 1.8 4.5 2.6 7.5 2.6.7 0 1.5-.1 2.1.2.3.4.1.9-.1 1.3-3.6 7.8-7.4 15.6-11.4 23.3 0 .1-.2.2-.3.4-.1.1-.2.1-.3.2h-.5c-4.1-.2-7-1.7-9.2-4.1-.8-.9-1.1-1.9-1.4-2.8.1-1.8.1-3.6.1-5.4z" fill="#979378"/><path d="m391.5 49.6c2.7.2 5.1 1.3 6.8 3.7 1.4 1.9 1.8 4.1 1.6 6.4-1.5 3.6-2.9 7.2-4.4 10.7-1.5 3.6-3.1 7.2-4.6 10.7-.1.4-.4.7-.6 1-.3-.3-.4-.7-.5-1.1-.8-2.6-2.5-4.1-5.1-4.7-.3-.1-.7-.1-1-.4 2.5-8.7 5.1-17.4 7.8-26.2" fill="#a7a488"/><path d="m390.1 188.5c1.2 2.3 2.4 4.6 3.6 6.9 1.9 4 3.9 7.8 5.7 11.9.1.3.3.6.5 1 .2 2.9-.1 5.7-2.2 7.9-1.5 1.6-3.3 2.6-5.4 2.9-.2 0-.4 0-.7 0-1-1.3-1.2-3-1.8-4.4-2.3-6.7-4.5-13.5-6.7-20.3-.1-.4-.4-.9-.1-1.4.2-.3.6-.3.9-.3 2.4-.2 4.3-1.2 5.6-3.4.1-.5.3-.8.6-.8z" fill="#979378"/><path d="m313 169.6c.8-1.2 2-1.9 3.2-1.9 1.1 0 1.9.6 2.9.6s1.5-.6 2.9-.6c1 0 2.1.6 2.9 1.5-.2.1-.4.2-.6.4z" fill="#aaa584"/><path d="m320.9 166.6c.5-.6.9-1.5.7-2.4-.8 0-1.7.6-2.3 1.2-.5.6-.9 1.5-.8 2.4 1 .1 1.9-.5 2.4-1.2zm-7.9 3c-.3.5-.6 1.3-.6 1.9h10.8c.1-.7.5-1.4 1.1-1.9zm-.6 3.9c-.1-.7-.1-1.3 0-1.9h10.7c-.1.7 0 1.3.2 1.9zm.6 1.9c-.2-.6-.4-1.3-.5-1.9h10.9c.3.8 1 1.4 1.9 1.8 0 0 0 .1-.1.2z" fill="#aaa584"/><path d="m325.1 175.4c-.3.7-.5 1-.9 1.7 0 .1-.1.2-.2.2h-10s0-.1-.1-.1c-.4-.6-.7-1.2-.9-1.8zm-1 1.9c-.6.9-1.4 1.9-2.4 1.9s-1.2-.6-2.6-.6-1.6.6-2.6.6c-1.1 0-1.9-1-2.5-1.9z" fill="#aaa584"/></svg>