<?xml version="1.0" encoding="utf-8"?>
<!-- Generator: Adobe Illustrator 23.0.3, SVG Export Plug-In . SVG Version: 6.00 Build 0)  -->
<svg version="1.1" id="Layer_1" xmlns="http://www.w3.org/2000/svg" xmlns:xlink="http://www.w3.org/1999/xlink" x="0px" y="0px"
	 viewBox="0 0 396.1 207.1" style="enable-background:new 0 0 396.1 207.1;" xml:space="preserve">
<style type="text/css">
	.st0{fill:#9FA5A3;}
	.st1{fill-rule:evenodd;clip-rule:evenodd;fill:#A19C7D;}
	.st2{fill-rule:evenodd;clip-rule:evenodd;fill:#9FA5A3;}
	.st3{fill-rule:evenodd;clip-rule:evenodd;fill:#A6A07E;}
	.st4{fill-rule:evenodd;clip-rule:evenodd;fill:#B4AE8B;}
	.st5{fill-rule:evenodd;clip-rule:evenodd;fill:#5A5F57;}
	.st6{fill-rule:evenodd;clip-rule:evenodd;fill:#777A72;}
	.st7{fill-rule:evenodd;clip-rule:evenodd;fill:#A2A79B;}
	.st8{fill-rule:evenodd;clip-rule:evenodd;fill:#514A3C;}
	.st9{fill-rule:evenodd;clip-rule:evenodd;fill:#AAA384;}
	.st10{fill:#AFAA8C;}
	.st11{fill:#9F997B;}
	.st12{fill:#B4AE8B;}
</style>
<path class="st0" d="M0.3,12.6c2.4,7.3,4.3,14.8,6.2,22.1c2.8,11.1,5.4,22,9.8,32.4c2.2,5.2,4.9,10.2,8.3,15
	c3.5,5,7.7,9.5,12.4,13.3c3.2,2.6,7.8,5.5,14.2,7.7c6.4,2.2,14.5,3.8,24.5,3.8c5.6,0,11.9-0.5,18.7-1.7c2.8-0.5,4.7-3.2,4.3-6
	c0,0,0,0,0,0c-0.5-2.8-3.2-4.7-6-4.3c0,0,0,0,0,0c-6.3,1.1-12,1.5-17,1.5c-8.9,0-15.8-1.4-21-3.2c-5.2-1.8-8.8-4.1-11.1-6
	c-5.7-4.6-9.9-9.8-13.2-15.4c-5.1-8.5-8.2-18.2-11-28.8C16.5,32.5,14.1,21,10.2,9.3C9.3,6.6,6.4,5,3.7,5.9s-4.3,3.8-3.4,6.5
	C0.3,12.5,0.3,12.5,0.3,12.6L0.3,12.6z"/>
<path class="st1" d="M86.1,134.1V66c0-1.4,1.2-2.6,2.6-2.6h1.6c1.4,0,2.6,1.2,2.6,2.6v68.1c0,1.4-1.2,2.6-2.6,2.6h-1.6
	C87.2,136.7,86.1,135.5,86.1,134.1z"/>
<path class="st2" d="M80.3,123.5V76.6l6.5-3.3v53L80.3,123.5z M69.9,121.6V77.9l7.6-3.1v49.4L69.9,121.6z M58.5,117.9V82l8.6-2.5
	V120L58.5,117.9z M48.1,114.2V85.7l8.6-2v32.2L48.1,114.2z"/>
<path class="st3" d="M89.7,184V16.1C89.7,7.2,96.9,0,105.8,0L380,0c8.9,0,16.1,7.2,16.1,16.1V184c0,8.9-7.2,23.1-16.1,23.1l-274.2-7
	C96.9,200.1,89.7,192.9,89.7,184L89.7,184z"/>
<path class="st4" d="M137.6,172V30.1c0-6.9,5.6-12.5,12.5-12.5h185.7c6.9,0,12.5,5.6,12.5,12.5V172c0,6.9-5.6,12.5-12.5,12.5H150.1
	C143.2,184.5,137.6,178.9,137.6,172L137.6,172z"/>
<path class="st5" d="M105.8,160.6V44.7c0-3.4,2.8-6.2,6.2-6.2h78c3.4,0,6.2,2.8,6.2,6.2v115.9c0,3.4-2.8,6.2-6.2,6.2h-78
	C108.6,166.8,105.8,164,105.8,160.6z"/>
<path class="st6" d="M138.1,161.6V43.1c0-1.4,1.2-2.6,2.6-2.6h51.5c1.4,0,2.6,1.2,2.6,2.6v118.5c0,1.4-1.2,2.6-2.6,2.6c0,0,0,0,0,0
	h-51.5C139.3,164.2,138.1,163.1,138.1,161.6z"/>
<path class="st7" d="M107.9,161.6V43.1c0-1.4,1.2-2.6,2.6-2.6c0,0,0,0,0,0H136c1.4,0,2.6,1.2,2.6,2.6c0,0,0,0,0,0v118.5
	c0,1.4-1.2,2.6-2.6,2.6l0,0h-25.5C109.1,164.2,107.9,163.1,107.9,161.6z"/>
<path class="st8" d="M190.6,161.6V43.1c0-1.4,0.9-2.6,2.1-2.6c1.1,0,2.1,1.2,2.1,2.6v118.5c0,1.4-0.9,2.6-2.1,2.6
	C191.6,164.2,190.6,163.1,190.6,161.6z"/>
<path class="st9" d="M294.7,158.5v-22.3c0-3.4,2.8-6.2,6.2-6.2h22.9c3.4,0,6.2,2.8,6.2,6.2v22.3c0,3.4-2.8,6.2-6.2,6.2h-22.9
	C297.5,164.7,294.7,161.9,294.7,158.5z"/>
<path class="st10" d="M92.9,183c9.5-3.2,19-6.3,28.5-9.5c4.5-1.5,8.9-3.1,13.4-4.3c0.7-0.2,1.4-0.5,2.1-0.3c0.9,0.5,0.8,1.5,0.7,2.3
	c-0.2,4.7,1.7,8.3,5.4,11.1c0.4,0.3,1,0.5,0.8,1.2c-3.3,2.5-7,4.2-10.6,6c-6.2,3.2-12.3,6.4-18.7,9.2c-0.9,0.4-1.9,0.7-2.6,1.5h-10
	c-0.2-0.5-0.7-0.6-1.1-0.7c-7.3-2.6-11.3-8-11.5-15.6"/>
<path class="st11" d="M371.6,207.1c-3.5-2.6-6.9-5.3-10.4-7.8c-6-4.4-12-8.8-18-13.2c-0.4-0.3-0.9-0.6-1.1-1.3
	c-0.1-1.2,0.6-1.6,1.2-2.2c3.2-3.4,4.7-8.1,4.8-13.7c0-1.3-0.2-2.7,0.4-3.8c0.8-0.6,1.6-0.1,2.4,0.2c14.2,6.5,28.2,13.4,42.1,20.5
	c0.2,0.1,0.5,0.3,0.7,0.5c0.1,0.2,0.3,0.4,0.4,0.6v1.1c-0.4,7.3-3.1,12.7-7.4,16.6c-1.6,1.4-3.3,1.9-5.1,2.5H371.6L371.6,207.1z"/>
<path class="st10" d="M89.8,15.2c0.4-5,2.5-9.1,6.7-12.2c3.4-2.5,7.3-3.3,11.5-2.9c6.4,2.6,12.9,5.2,19.3,8
	c6.5,2.7,12.9,5.6,19.4,8.4c0.7,0.3,1.2,0.7,1.8,1.1c-0.5,0.6-1.2,0.7-1.9,1c-4.6,1.4-7.4,4.6-8.6,9.2c-0.2,0.6-0.1,1.3-0.7,1.8
	c-15.8-4.5-31.5-9.2-47.4-14.2"/>
<path class="st11" d="M340.9,17.8c4.2-2.2,8.3-4.4,12.5-6.4c7.1-3.5,14.2-7.1,21.5-10.3c0.6-0.3,1.1-0.6,1.7-1
	c5.3-0.4,10.3,0.2,14.4,4c3,2.7,4.7,5.9,5.2,9.8l-0.1,1.2c-2.4,1.8-5.3,2.2-8,3.2c-12.2,4.1-24.4,8.2-36.6,12.1
	c-0.8,0.3-1.6,0.7-2.5,0.3c-0.5-0.4-0.5-1-0.6-1.6c-0.4-4.3-2.3-7.8-6.2-10.1C341.6,18.7,341.1,18.4,340.9,17.8L340.9,17.8z"/>
<path class="st12" d="M306.9,157.2L306.9,157.2c-2.2-1.4-3.5-3.6-3.5-5.7c0-2.1,1.2-3.4,1.2-5.2c0-1.7-1.2-2.7-1.2-5.2
	c0-1.8,1-3.8,2.8-5.2c0.2,0.4,0.4,0.7,0.7,1L306.9,157.2z"/>
<path class="st12" d="M301.5,143c-1.1-0.9-2.8-1.6-4.4-1.3c0.1,1.5,1,3.1,2.2,4.1c1.1,0.9,2.7,1.6,4.3,1.4
	C303.6,145.6,302.7,144,301.5,143z M306.9,157.3c0.9,0.6,2.3,1,3.5,1.1v-19.5c-1.3-0.2-2.5-0.9-3.5-2L306.9,157.3L306.9,157.3
	C306.9,157.3,306.9,157.3,306.9,157.3z M313.8,158.3c-1.1,0.2-2.3,0.2-3.5,0.1l0-19.4c1.2,0.2,2.4,0,3.5-0.4L313.8,158.3
	L313.8,158.3z"/>
<path class="st12" d="M317.3,157.3c-1.1,0.4-2.3,0.8-3.5,0.9l0-19.7c1.5-0.6,2.6-1.8,3.2-3.3l0.3,0.1L317.3,157.3L317.3,157.3z"/>
<path class="st12" d="M317.3,135.3c1.2,0.5,1.8,0.9,3,1.6c0.2,0.1,0.3,0.2,0.5,0.3l0,18.2l-0.3,0.2c-1,0.7-2.1,1.2-3.2,1.7
	L317.3,135.3L317.3,135.3z"/>
<path class="st12" d="M320.8,137.3c1.6,1.1,3.4,2.6,3.5,4.4c0,1.8-1.2,2.2-1.1,4.6c0,2.4,1.2,2.9,1.1,4.7c0,1.9-1.8,3.4-3.5,4.5
	L320.8,137.3z"/>
</svg>
