<svg viewBox="0 0 200 117.6" xmlns="http://www.w3.org/2000/svg"><path d="m101.5 83.9c-.9-.1-2.2-.1-3.1 0 0 0-6 .3-9.9 1-6 1-12 2.8-17.6 5.4-7.1 3.4-11.6 9.4-14.6 16.6-1.2 3-2.8 5.8-5.7 7.7-5.8 3.6-11.7 3.9-17.8.9-5.2-2.5-9.5-6.3-13.3-10.5-9.5-10.2-15.8-22.1-18.4-35.8-2.1-10.6-1.3-21 3.7-30.8 3.4-6.7 8.7-11.5 14.8-15.5 10.6-7 22.2-11.8 34.2-15.6 9.9-3.2 20-5.4 30.4-6.5 4.7-.5 9.5-.5 14.3-.9h2.9c4.8.3 9.6.3 14.3.9 10.3 1.2 20.5 3.4 30.4 6.5 12 3.8 23.6 8.7 34.2 15.6 6.1 4 11.4 8.9 14.8 15.5 5 9.8 5.7 20.2 3.7 30.8-2.6 13.7-9 25.6-18.4 35.8-3.9 4.2-8.1 8-13.3 10.5-6.1 2.9-12.1 2.8-17.8-.9-2.9-1.9-4.3-4.7-5.6-7.7-2.9-7.2-7.5-13.1-14.7-16.6-5.6-2.6-11.6-4.4-17.6-5.4-3.9-.6-9.9-1-9.9-1z" fill="#1b1d1f"/><path d="m177.3 30.5c-3.8-.6-7.4-.2-11.2.2-16.7 2.3-30.6 10.3-42.6 21.9-4.8 4.7-7 10.2-6 17.1 1.4 9.1 9.9 15.5 18.9 13.7 2.5-.5 4.9-1.6 7.2-2.8 3.6-1.7 6.9-3.9 10.5-5.5 8.5-3.7 17.1-7.3 25.8-10.8 7.7-3.1 11.4-8.4 11.6-16.7.2-8.8-5.6-15.7-14.2-17.1zm4.1 32.5c-.4.2-.8.4-1.2.5-5 1.9-10 3.7-14.9 5.9-7 3.1-13.8 6.6-20.7 10-3.5 1.8-6.9 3.6-11 3.6-8.3-.1-14.8-6.2-15.7-14.4-.8-7.2 2.2-12.6 7.3-17.1 7.9-7.1 16.4-13.1 26.5-16.7 5-1.8 14.6-4.2 21.1-4 4.6-.2 8.6 1.2 12.6 4.4 3.3 2.6 4.7 7.7 5.1 11.5 0 .3.1.5.1.9.1 4.3-.4 10.5-9.2 15.4z" fill="#151515"/><path d="m190.8 47.7c0 4.3-.6 10.5-9.4 15.4-.4.2-.8.4-1.2.5-5 1.9-10 3.7-14.9 5.9-7 3.1-13.8 6.6-20.7 10-3.5 1.8-6.9 3.6-11 3.6-8.3-.1-14.8-6.2-15.7-14.4-.8-7.2 2.2-12.6 7.3-17.1 7.9-7.1 16.4-13.1 26.5-16.7 5-1.8 14.6-4.2 21.1-4 4.6-.2 8.6 1.2 12.6 4.4 3.3 2.6 4.7 7.7 5.1 11.5.2.3.3.6.3.9z" fill="#181a1c"/><path d="m150.8 29.1c-4.4 2.1-8.9 4-13.4 6-.6.2-1.3.3-1.6.3-2.9 0-5-1.7-5.5-4.3-.5-2.5.4-4.5 2.9-5.6 4.2-1.9 8.4-3.8 12.6-5.6 3.8-1.6 7.2.1 7.8 3.7.2 2.4-.8 4.5-2.8 5.5z" fill="#191919"/><path d="m150.2 23.3c.6 1.2.4 2.6-1.5 3.4l-11.9 5.6c-.4.2-.8.3-1.2.4-1.2.2-2.4-.5-2.7-1.6-.4-1.2.1-2 1-2.7.3-.2 8.7-4 12.5-5.6 2.2-1.1 3.4-.3 3.8.5z" fill="#0069b5"/><path d="m135.8 22.9c-.2.1-.2.1-.4.1-.1 0-.2 0-.3-.1-.1 0-.2-.1-.2-.2-.1-.1-.2-.2-.2-.2l.3-.2c0 .1.1.1.2.2.1 0 .1.1.2.1h.2c.1 0 .2 0 .2-.1.1 0 .1-.1.2-.1s.1-.1.1-.1 0-.1.1-.1v-.1l-.1-.1h-.3c-.1 0-.2 0-.2.1h-.5c-.1 0-.2-.1-.2-.1l-.2-.2c0-.1-.1-.2-.1-.2s0-.2.1-.2.1-.2.2-.2c.1-.1.2-.1.2-.2.1-.1.2-.1.3-.1h.3c.1 0 .2.1.2.2.1.1.2.2.2.2l-.3.2c-.1-.2-.3-.2-.5-.2-.1.1-.2.1-.2.2-.1.1-.1.2 0 .2 0 0 0 .1.1.1h.9c.1 0 .2 0 .2.1.1 0 .1.1.2.1.1.1.1.1.1.2s.1.2.1.2 0 .2-.1.2-.1.2-.2.2c-.4.1-.5.1-.6.1zm1.8-2.6-.5.2.6 1.6-.4.2-.6-1.6-.5.2-.2-.3 1.5-.6zm2.5.8-.4.2-.5-.5-.6.3v.6l-.4.2-.1-2.2.3-.2zm-1-.6-.5-.5v.7zm2.9-.2-.4.2-.4-.5-.1-.1s-.1 0-.1-.1h-.2l-.4.2.3.8-.3.2-.8-1.9.9-.4c.1 0 .1-.1.2-.1s.1 0 .2-.1h.3c.1 0 .1 0 .2.1l.1.1.1.1.1.1c.1.1.1.2.1.3s-.1.2-.2.3c.1 0 .2.1.3.2zm-1.7-.5.5-.2c.1 0 .1-.1.2-.1s.1-.1.1-.1v-.2c0-.1-.1-.2-.2-.2s-.2 0-.2.1l-.5.2zm2.7-1.7-.5.2.6 1.6-.4.2-.6-1.6-.5.2-.2-.3 1.5-.6z" fill="#a7a6a6"/><path d="m75.5 54.3c0 17.1-13.8 30.9-30.8 30.9s-30.7-13.9-30.7-30.9 13.8-30.9 30.8-30.9 30.7 13.9 30.7 30.9zm-30.8-25c-13.8 0-25 11.2-25 25s11.2 25 25 25 25-11.2 25-25-11.2-25-25-25z" fill="#191919"/><g fill="#a4a4a4" transform="matrix(.77532618 0 0 .77532618 .03598 .00015)"><path d="m57.6 30.9-2.8 6.2h5.7"/><circle cx="31.5" cy="45.6" r="1.3"/><circle cx="83.7" cy="45.6" r="1.3"/><circle cx="83.7" cy="94.5" r="1.3"/><circle cx="31.5" cy="94.5" r="1.3"/><path d="m18.4 70.1 6.2 2.8v-5.7m33 42.1 2.9-6.2h-5.7m42-33.2-6.2-2.9v5.7"/></g><path d="m179.5 59.9c-6.2 2.5-12.5 4.7-18.5 7.4-6.4 2.9-12.7 6.2-19 9.5-4.9 2.5-6.5 2.3-10.2 1.7-2.7-.5-7-3.1-8.7-6.7-.9-1.9-1.3-4.2-1.2-6.4.5-5 3-7.8 6.3-9.9 11.9-7.8 24.7-13.4 38-18.2 2.2-.9 4.7-1.8 7-2.1 7.8-1.1 14.2 4.4 14.5 12.3.1 6.1-2.6 10-8.2 12.4z" fill="#151617"/><circle cx="155.3" cy="56.1" fill="#121212" r="8.9"/><circle cx="155.3" cy="56.1" fill="#262626" r="7.7"/><path d="m157.1 55.3c.2-.2.2-.5.1-.8l-.2-.3c-.3-.6-.8-.7-1.4-.4l-3.1 1.5.2.5 1.1 2.3.3.5 3.1-1.5c.7-.3.9-.8.6-1.4l-.2-.3c-.1 0-.2-.2-.5-.1zm-.1 1.4-.4.2-2.2 1-.4-.9 2.2-1 .4-.2c.2-.2.5 0 .6.2.1.4.1.5-.2.7zm-.7-1.5-2.6 1.2-.4-.9 2.6-1.2c.2-.2.5 0 .6.2.2.4.1.5-.2.7z" fill="#ee3724"/><circle cx="157.3" cy="60.2" fill="#191919" r=".9"/><circle cx="134.9" cy="66.3" fill="#121212" r="8.9"/><circle cx="134.9" cy="66.3" fill="#262626" r="7.7"/><path d="m138.2 65.9-.7.3-1.1-.7-2.5 1.2-.1 1.2-.7.3.4-4.4 1-.5zm-2.3-.8-1.5-1-.5.2-.1 1.7z" fill="#ee3724"/><circle cx="175.5" cy="47.8" fill="#121212" r="8.9"/><circle cx="175.5" cy="47.8" fill="#262626" r="7.7"/><path d="m176.5 46.4-1.5.6c-1 .4-.8.8-.4 1.6s.4 1.2 1.4.9l2.6-1.1.2.6-2.6 1.1c-1.4.5-1.7 0-2.2-1.2s-.6-1.9.8-2.4l2.6-1.1.2.6s-1.1.4-1.1.4z" fill="#ee3724"/><path d="m142.6 42.6-.7.3.9 1.9-.5.2-.9-1.9-.7.3-.2-.4 1.9-.9c0 .1.2.5.2.5zm3.2.8-.5.2-.5-.5s-.1-.1-.2-.1-.1-.1-.2-.1h-.3l-.5.2.5.9-.5.2-1.1-2.3 1-.5c.1 0 .2-.1.2-.1.1 0 .1-.1.2-.1h.3c.1 0 .1 0 .2.1.1 0 .1.1.2.1 0 0 .1.1.1.2s.1.1.1.2c.1.2.1.3.1.4 0 .2-.1.2-.2.4.2 0 .2.1.4.2zm-2.2-.6.5-.2c.1 0 .2-.1.2-.1.1 0 .1-.1.1-.1v-.2c0-.1 0-.1-.1-.2s-.1-.2-.2-.2-.2 0-.3.1l-.6.3c-.1.1.4.6.4.6zm3.1.2-.5.2-1.1-2.3.5-.2zm1.5-.7c-.2.1-.3.2-.5.2s-.3 0-.5-.1-.3-.2-.4-.3c-.1-.2-.2-.3-.3-.5s-.2-.4-.2-.5 0-.3.1-.5.2-.3.2-.4c.1-.2.2-.2.4-.3s.3-.1.4-.2h.4c.2 0 .2.1.3.2s.2.2.2.3l-.5.2c-.1-.1-.1-.2-.2-.2s-.2-.1-.2-.1h-.2c-.1 0-.2 0-.2.1-.1.1-.2.1-.2.2-.1.1-.1.2-.2.2v.4c0 .1.1.2.1.4.1.2.2.2.2.3.1.1.2.2.2.2.1 0 .2.1.3.1.2 0 .2 0 .3-.1.2-.1.2-.2.3-.2.1-.1.2-.2.2-.3l-.1-.2-.5.2-.2-.4 1-.5.5 1.2-.3.2-.2-.2c-.1.1-.2.2-.2.3.3.2.2.3 0 .3zm2.7-1.1c-.2.1-.3.2-.5.2s-.3 0-.5-.1-.3-.2-.4-.3c-.2-.2-.2-.3-.3-.5s-.2-.4-.2-.5c0-.2 0-.3.1-.5s.2-.3.2-.4c.1-.2.2-.2.4-.3s.3-.1.4-.2h.4c.2 0 .2.1.3.2s.2.2.2.3l-.5.2c-.1-.1-.1-.2-.2-.2-.1-.1-.1-.1-.2-.1h-.2c-.1 0-.2 0-.2.1-.1.1-.2.1-.2.2-.1.1-.1.2-.2.2-.1.1 0 .2 0 .3s.1.2.1.4c.1.2.2.2.2.3.1.1.2.2.2.2.1.1.2.1.3.1.2 0 .2 0 .3-.1.2-.1.2-.2.3-.2.1-.1.2-.2.2-.3l-.1-.2-.5.2-.2-.4 1-.5.5 1.2-.3.2-.2-.2c-.1.1-.2.2-.2.3.2.2.1.3 0 .4zm3.3-1.7-1.8.9-1.1-2.3 1.7-.8.2.4-1.3.6.2.5 1.2-.5.2.4-1.2.5.3.6 1.3-.6zm2.4-1-.5.2-.5-.5s-.1-.1-.2-.1-.1-.1-.2-.1h-.2s-.1 0-.2.1l-.5.2.5.9-.5.2-1.1-2.3 1-.5c.1 0 .2-.1.2-.1s.1-.1.2-.1h.3c.1 0 .1 0 .2.1.1 0 .1.1.2.1s.1.1.1.2.1.1.1.2c.1.2.1.3.1.4 0 .2-.1.2-.2.4.2 0 .2.1.4.2zm-2.2-.7.5-.2c.1 0 .2-.1.2-.1.1 0 .1-.1.1-.1v-.2c0-.1 0-.1-.1-.2s-.1-.2-.2-.2-.2 0-.3.1l-.6.3c0 .2.4.6.4.6z" fill="#a7a6a6"/><ellipse cx="44.7" cy="54.2" fill="#1b1d1f" rx="25" ry="25"/><path d="m25.3 54.3c0-10.9 8.7-19.4 19.5-19.4 10.6 0 19.4 8.8 19.4 19.5 0 10.8-8.8 19.5-19.5 19.5-10.7-.1-19.4-8.9-19.4-19.6zm19.4-18.4c-10.3 0-18.4 8-18.4 18.3-.1 10.4 8.1 18.5 18.3 18.5 10.3 0 18.5-8.1 18.5-18.5 0-10.2-8.1-18.3-18.4-18.3z" fill="#0a0a0a"/><path d="m44.7 35.7c-10.3 0-18.4 8-18.5 18.3 0 10.4 8.1 18.5 18.4 18.5s18.4-8.1 18.4-18.4c.1-10.1-8.1-18.3-18.3-18.4z" fill="#313336"/><path d="m33.4 42.5 1.3 2.8 1.6-1.5m-2.9 21.8 2.9-1.3-1.6-1.5m21.8 2.9-1.4-2.9-1.5 1.5m3.1-21.7-2.8 1.4 1.5 1.5" fill="#242629"/><path d="m61.8 54.4v2.5c-.1 1.2-.7 1.9-1.9 1.9-1.6.2-3.3.3-5 .6-2.8.6-4.6 2.5-5.2 5.3-.3 1.6-.5 3.1-.6 4.7-.2 1.7-.5 2.2-2.2 2.2-.8 0-1.5.1-2.2.1-.8 0-1.5 0-2.2-.1-1.6-.1-2-.5-2.2-2.2-.2-1.6-.3-3.1-.6-4.7-.6-2.8-2.4-4.6-5.2-5.3-1.6-.4-3.3-.5-5-.6-1.2-.1-1.9-.7-1.9-1.9v-5c.1-1.2.7-1.9 1.9-1.9 1.6-.2 3.3-.3 5-.6 2.8-.6 4.6-2.5 5.2-5.3.3-1.6.5-3.1.6-4.7.2-1.7.5-2.2 2.2-2.2.8 0 1.5-.1 2.2-.1.8 0 1.5 0 2.2.1 1.6.1 2 .5 2.2 2.2.2 1.6.3 3.1.6 4.7.6 2.8 2.4 4.6 5.2 5.3 1.6.4 3.3.5 5 .6 1.2.1 1.9.7 1.9 1.9z" fill="#181818"/><path d="m28.4 58v-7.3h32.5v7.3z" fill="#212121"/><path d="m41 70.6v-32.5h7.3v32.5z" fill="#212121"/><circle cx="44.7" cy="54.4" fill="#151617" r="3.6"/><g fill="#a7a6a6"><path d="m111.6 52.9h-3.7v-.9h2.6c-.2-.5-.3-1-.5-1.5-.4-1.2-.7-2.2-1.1-3.4-.1-.3-.4-.6-.6-.7-.4-.1-.5.3-.6.7-.5 1.7-1.2 3.5-1.7 5.2-.2.4-.3.5-.7.5h-3.4c-1.2 0-1.9-.8-1.9-1.9v-3.3c0-1.2.8-1.9 1.9-1.9h3.1v.9h-2.6c-1.2 0-1.6.3-1.6 1.6v2.4c0 .9.4 1.3 1.2 1.3h2v-2.9h-1.7v-.9h2.6v3.9h.2c.5-1.7 1.1-3.4 1.7-5.1.3-1 .9-1.4 1.9-1.2.5.1.9.4 1.1.9.7 2.1 1.3 4.1 2 6.2-.2 0-.2 0-.2.1zm-23.2 0v-.9h2.9c.8 0 1.4-.6 1.5-1.4 0-.8-.5-1.4-1.4-1.5h-1c-.5-.1-.9-.5-.9-1.1 0-.5.4-1 .9-1.1h3.2v.9h-3.1v.3h.9c1.1 0 1.9.7 2.2 1.8.3 1.3-.6 2.8-1.9 2.9-1.1.1-2.2.1-3.3.1z"/><path d="m88.4 51.6v-.9h3.1v-.2h-.9c-.9 0-1.6-.5-1.9-1.2-.4-.9-.3-1.7.2-2.5.4-.5.9-.9 1.5-.9h3.3v.9h-2.9c-1 0-1.6.9-1.3 1.9.2.5.7.9 1.3.9h.9c.5.1.9.5.9 1.1s-.4 1.1-.9 1.1c-1.1-.2-2.2-.2-3.3-.2zm10.9-5.9v.9h-2.9c-1 0-1.4.4-1.4 1.4v2.6c0 1 .4 1.4 1.3 1.4h2.9v.9h-3.5c-.9-.1-1.6-.9-1.6-1.7v-3.7c0-.8.7-1.6 1.5-1.6 1.3-.2 2.5-.2 3.7-.2zm6.7 7.2c.6-1.9 1.2-3.9 1.9-5.7.1-.2.2-.3.3-.3s.2.2.3.2c.5 1.6 1 3 1.6 4.7h-2.1c0-.2-.1-.4-.1-.6h-.1c-.2.4-.2.7-.4 1.1-.3.7-.3.7-1.4.6zm1.8-2.3h.8c-.1-.4-.2-.7-.3-1h-.2c0 .3-.2.6-.3 1zm-4.9-.1c-.3-.1-.5-.2-.6-.2v-.8h1.4v2.1c-.7 0-1.4.1-2.1 0-.2 0-.5-.4-.5-.5-.1-1.2 0-2.2 0-3.4 0-.4.2-.6.6-.6h3.2v.9h-2.3c-.5 0-.6.2-.6.6v1.6c-.1.6.2.7.9.3z"/><path d="m96.3 50.6c1 .2 2 0 3 .1v.9h-3.4c-.2 0-.5-.4-.5-.6-.1-.5 0-.9 0-1.5h3.2v.9h-2.2c0 .1 0 .2-.1.2zm3-3.6v.9c-1 .2-2-.1-3 .2v.2h2.2v.9h-3.2c0-.5-.1-1.1 0-1.6 0-.2.3-.5.5-.5 0-.1 3.5-.1 3.5-.1z"/><path d="m68.5 10.3c0-.1-.1-.2-.1-.2-.1-.1-.1-.1-.2-.1s-.1-.1-.2-.1h-.2c-.1 0-.2.1-.2.1-.1 0-.2.2-.2.2-.1.1-.1.2-.1.3v.3c0 .2.1.2.2.3s.1.2.2.2c.1.1.2.1.2.1h.3c.1 0 .2-.1.2-.1l.2-.2s.1-.1.1-.2v-.2c.2-.1.2-.1.5-.1v.4c0 .1-.1.2-.2.3l-.2.2c-.1.1-.2.1-.3.2-.2 0-.3.1-.5 0-.2 0-.3-.1-.4-.2s-.2-.2-.3-.3c-.1-.2-.2-.3-.2-.5-.1-.2-.1-.3 0-.5 0-.2.1-.3.2-.4.1-.2.2-.2.3-.3.2-.1.2-.2.5-.2h.4s.2.1.3.1l.2.6c.1.1.2.2.2.3-.4-.1-.4-.1-.7 0zm1.8-1.2h.5c.2 0 .3.1.4.2.2.1.2.2.3.3.1.2.2.3.2.5s.1.3 0 .5c0 .2-.1.3-.2.4-.1.2-.2.2-.3.3-.2.1-.2.2-.4.2h-.5s-.3-.1-.4-.2c-.2-.1-.2-.2-.3-.3-.1-.2-.2-.3-.2-.5s-.1-.3 0-.5c0-.2.1-.3.2-.4.1-.2.2-.2.3-.3.1-.2.3-.2.4-.2zm.4 1.9c.1 0 .2-.1.2-.1.1-.1.2-.2.2-.2.1-.1.1-.2.1-.3v-.3c0-.2-.1-.2-.2-.3s-.2-.2-.2-.2c0-.1-.2-.1-.2-.1h-.3c-.1 0-.2.1-.2.1-.1.1-.2.2-.2.2-.1.1-.1.2-.1.3v.3c0 .2.1.2.2.3s.2.2.2.2c0 .1.2.1.2.1zm3.8-.4c-.2 0-.2.1-.4.1-.1-.5-.1-.9-.3-1.5-.1.6-.2.9-.2 1.6-.2 0-.2.1-.4.1-.3-.5-.5-.8-.8-1.3.1.5.2.9.3 1.5-.2 0-.2.1-.4.1-.2-.9-.3-1.3-.5-2.2.2-.1.3-.1.5-.1.3.6.5.9.9 1.5.1-.7.2-1 .2-1.7.2-.1.3-.1.5-.1.4.6.5 1.1.6 2zm.2-2.4c.4-.1.5-.1.9-.2h.5s.2 0 .2.1c.1 0 .2.1.2.1l.2.2s.1.2.1.2c.1.2 0 .5-.2.5-.2.1-.3.2-.6.3-.2 0-.3.1-.5.1.1.3.1.5.2.9-.2 0-.2.1-.5.1-.3-.9-.4-1.4-.5-2.3zm.6 1c.2 0 .3-.1.5-.1.1 0 .2 0 .2-.1.1 0 .1-.1.2-.1l.1-.1c0-.1 0-.1-.1-.2l-.1-.1h-.3c-.2 0-.3.1-.5.1-.1.2-.1.3 0 .6zm2.9.8h-.4c-.1 0-.2 0-.3-.1s-.2-.1-.2-.2c-.1-.1-.1-.2-.2-.2 0-.1-.1-.2-.1-.2 0-.1 0-.2-.1-.2-.1-.5-.2-.8-.2-1.3.2 0 .2-.1.5-.1.1.5.2.8.2 1.3 0 .2.1.2.1.3s.1.2.2.2.1.1.2.1h.2c.1 0 .2 0 .2-.1l.2-.2c0-.1.1-.2.1-.2v-.3c-.1-.5-.2-.8-.2-1.3.2 0 .2-.1.5-.1.1.5.2.8.2 1.3v.5c0 .2-.1.2-.1.3l-.2.2c-.3.2-.4.3-.6.3zm2.9-2.4c-.3.1-.5.1-.7.1.1.8.2 1.2.2 1.9-.2 0-.2 0-.5.1-.1-.8-.2-1.2-.2-1.9-.3.1-.5.1-.7.1 0-.2 0-.2-.1-.4.8-.1 1.2-.2 1.9-.2 0 .1 0 .1.1.3zm2.3 1.6c-.7.1-1.1.2-1.8.2-.2-.9-.2-1.4-.3-2.2.7-.1 1-.1 1.7-.2 0 .2 0 .2.1.4-.5.1-.8.1-1.3.2 0 .2.1.3.1.5.4-.1.7-.1 1.2-.2 0 .2 0 .2.1.4-.5.1-.7.1-1.2.2v.6c.6-.1.8-.1 1.3-.2.1.1.1.2.1.3zm2.5-.2c-.2 0-.3 0-.5.1-.1-.2-.2-.4-.3-.6 0-.1-.1-.1-.1-.1v-.1s-.1 0-.2-.1h-.2c-.2 0-.3 0-.5.1.1.4.1.5.1.9-.2 0-.2 0-.5.1-.1-.9-.2-1.4-.2-2.2.5-.1.7-.1 1.2-.2h.5c.1 0 .1.1.2.1s.1.1.1.1.1.1.1.2.1.1.1.2v.2c0 .2 0 .2-.1.4l-.2.2c.1.1.2.2.3.3 0 0 .1.2.2.4zm-1.7-1.2c.2 0 .3-.1.5-.1h.3c.1 0 .1 0 .2-.1l.1-.1v-.1c0-.1-.1-.2-.2-.2-.1-.1-.2-.1-.3-.1-.2 0-.4.1-.6.1-.1.2-.1.4 0 .6zm4.7-1.4c-.3.9-.5 1.4-.7 2.3h-.4c-.5-.9-.7-1.3-1.1-2.2.2 0 .3 0 .5-.1.3.7.5 1 .8 1.6.2-.7.3-1.1.5-1.8.2.2.3.2.4.2zm1 2.2h-.5c-.1-.9-.1-1.4-.2-2.3h.5c.1 1 .1 1.5.2 2.3zm2.4-1.3c.1.8-.3 1.2-1.1 1.2-.3 0-.5 0-.8.1-.1-.9-.1-1.4-.2-2.3.3 0 .5 0 .8-.1.8 0 1.2.4 1.3 1.1zm-.5.1c0-.1 0-.2-.1-.3 0-.1-.1-.2-.2-.2-.1-.1-.2-.1-.2-.2h-.7c.1.6.1.9.1 1.5h.3c.2 0 .2 0 .4-.1.1-.1.2-.1.2-.2.1-.1.1-.2.1-.2.1-.1.1-.3.1-.3zm2.7 1c-.7 0-1.1.1-1.8.1-.1-.9-.1-1.4-.2-2.3.7 0 1.1-.1 1.8-.1v.4c-.5 0-.8 0-1.3.1v.5c.5 0 .7 0 1.2-.1v.4c-.5 0-.7 0-1.2.1v.6c.5 0 .8 0 1.3-.1.2.1.2.2.2.4zm1.5-2.4c.2 0 .3 0 .5.1s.2.2.4.2c.1.1.2.2.2.4.1.2.1.3.1.5s0 .3-.1.5c-.1.1-.2.2-.3.3s-.2.2-.3.2c-.1.1-.3.1-.5.1s-.3 0-.5-.1-.2-.2-.4-.2c-.1-.1-.2-.2-.2-.4-.1-.2-.1-.3-.1-.5s0-.3.1-.5.2-.3.2-.4c.1-.1.2-.2.4-.2zm0 2c.1 0 .2 0 .3-.1s.2-.1.2-.2c.1-.1.1-.2.2-.2 0-.1.1-.2.1-.3 0-.2 0-.2-.1-.3s-.1-.2-.2-.2c-.1-.1-.2-.2-.2-.2-.1 0-.2-.1-.2-.1-.1 0-.2 0-.3.1-.2.1-.2.1-.2.2-.1.1-.1.2-.2.2 0 .1-.1.2-.1.3 0 .2 0 .2.1.3 0 .1.1.2.2.2.1.1.2.2.2.2 0 .1.1.1.2.1zm3.6.3c-.2 0-.3 0-.5-.1s-.2-.2-.4-.2c-.1-.1-.2-.2-.2-.4-.1-.2-.1-.3-.1-.5s0-.3.1-.5.2-.2.2-.4c.1-.1.2-.2.4-.2h.5c.2 0 .3 0 .4.1.2.1.2.1.3.2l.2.2s.1.2.1.3h-.5c0-.1 0-.2-.1-.2s-.1-.1-.2-.2c-.1 0-.1-.1-.2-.1h-.2c-.1 0-.2 0-.3.1s-.2.1-.2.2c-.1.1-.1.2-.2.2 0 .1-.1.2-.1.3 0 .2 0 .2.1.3 0 .1.1.2.2.2.1.1.2.2.2.2.1 0 .2.1.3.1.2 0 .2 0 .4-.1s.2-.1.2-.2v-.2h-.5v-.4h1v1.2h-.3c0-.1 0-.1-.1-.2-.1.1-.2.2-.3.2 0 .1-.1.1-.2.1zm3.4 0h-.5c-.1-.2-.2-.4-.2-.7h-.8c-.1.2-.2.4-.2.6h-.5c.4-.9.5-1.4.9-2.3h.4c.4 1 .6 1.5.9 2.4zm-.8-1c-.1-.3-.2-.5-.3-.7-.1.3-.2.5-.3.7zm3.3 1.1h-.4c0-.6 0-.9.1-1.5-.2.5-.3.9-.5 1.5h-.4c-.2-.6-.2-.9-.5-1.5 0 .6 0 .9-.1 1.5h-.4c0-.9 0-1.4.1-2.3h.5c.2.7.3 1 .5 1.6.2-.6.4-1 .6-1.6h.5c.1.9 0 1.3 0 2.3zm2.3.1c-.7-.1-1.1-.1-1.8-.1.1-.9.1-1.4.1-2.3.7 0 1.1.1 1.8.1v.4c-.5 0-.8-.1-1.3-.1v.5c.5 0 .7 0 1.2.1v.4c-.5 0-.7-.1-1.2-.1v.6c.5 0 .8.1 1.3.1-.1.2-.1.3-.1.4zm3.1-1.3v-.1c0-.1-.1-.1-.1-.2-.1-.1-.1-.1-.2-.1s-.2-.1-.2-.1h-.3s-.2.1-.2.2c-.1.1-.1.2-.2.2 0 .1-.1.2-.1.3v.3c0 .1.1.2.1.2.1.1.1.2.2.2.1.1.2.1.2.1h.2c.1 0 .2-.1.2-.1.1 0 .1-.1.2-.2 0-.1.1-.2.1-.2h.5c0 .2-.1.2-.2.4l-.2.2c-.1.1-.2.1-.3.2-.1 0-.2.1-.4 0-.2 0-.3-.1-.5-.1-.2-.1-.2-.2-.3-.2-.1-.1-.2-.2-.2-.4-.1-.2-.1-.3-.1-.5s.1-.3.1-.5c.1-.2.2-.2.2-.4.1-.1.2-.2.4-.2.2-.1.3-.1.5-.1s.2 0 .4.1c.1.1.2.1.3.2s.2.2.2.3c.1.1.1.2.1.3-.2.2-.3.2-.4.2zm1.9-.7c.2 0 .3.1.5.2s.2.2.3.3.2.2.2.4c.1.2.1.3 0 .5 0 .2-.1.3-.2.5s-.2.2-.2.4c-.1.1-.2.2-.4.2-.1 0-.3 0-.4 0-.2 0-.3-.1-.5-.2s-.2-.2-.3-.3-.2-.2-.2-.4c-.1-.2-.1-.3-.1-.5s.1-.3.2-.5.2-.2.2-.4c.1-.1.2-.2.4-.2zm-.1 2h.3c.1 0 .2-.1.2-.2.1-.1.2-.2.2-.2.1-.1.1-.2.1-.3v-.3c0-.1-.1-.2-.2-.2-.1-.1-.2-.2-.2-.2-.1-.1-.2-.1-.2-.1h-.3c-.1 0-.2.1-.2.2-.1.1-.2.2-.2.2 0 .1-.1.2-.1.3v.3c0 .1.1.2.2.2.1.1.2.2.2.2 0 .1.1.1.2.1zm3.4.7c-.2 0-.2 0-.4-.1-.3-.6-.5-1-.9-1.6-.1.6-.1.9-.2 1.6-.2 0-.2 0-.4-.1.1-.9.2-1.4.2-2.2.2 0 .2 0 .4.1.4.6.5 1 .9 1.6.1-.6.1-.9.2-1.6.2 0 .2 0 .4.1-.1.8-.2 1.3-.2 2.2zm2.4-1.6c-.3 0-.5-.1-.7-.1-.1.8-.2 1.2-.2 1.9-.2 0-.2 0-.5-.1.1-.8.2-1.2.2-1.9-.3 0-.5-.1-.7-.1 0-.2 0-.2.1-.4.8.1 1.2.2 1.9.2-.1.3-.1.3-.1.5zm2.1 2.2c-.2 0-.3-.1-.5-.1-.1-.2-.1-.4-.2-.6 0-.1 0-.1-.1-.2 0-.1-.1-.1-.1-.1l-.1-.1s-.1 0-.2-.1c-.2 0-.3-.1-.5-.1.1.5.1.6 0 1-.2 0-.2 0-.5-.1.2-.9.2-1.4.3-2.2.4.1.6.1 1.1.2h.2c.1 0 .1 0 .2.1.1 0 .1.1.2.1s.1.1.2.1c0 0 .1.1.1.2s.1.1.1.2v.3c0 .2-.1.2-.2.3s-.2.2-.3.2c.1.1.2.2.2.4 0 .1.1.2.1.5zm-1.4-1.5c.2 0 .3.1.5.1h.4l.1-.1s0-.1.1-.2c0-.1 0-.2-.1-.2-.1-.1-.2-.1-.3-.1-.2 0-.4-.1-.6-.1-.1.2-.1.4-.1.6zm3.1-.5c.2 0 .3.1.5.2s.2.2.3.3c.1.2.2.2.2.4v.5c0 .2-.1.3-.2.5s-.2.2-.3.3-.2.2-.4.2-.3.1-.5 0-.3-.1-.5-.2-.2-.2-.3-.3c-.1-.2-.2-.2-.2-.4v-.6c0-.2.1-.3.2-.5s.2-.2.3-.3c.2-.1.2-.2.4-.2s.4 0 .5.1zm-.3 1.9h.3c.1 0 .2-.1.2-.2.1-.1.2-.2.2-.2 0-.1.1-.2.1-.3v-.3c0-.1-.1-.2-.1-.2-.1-.1-.1-.2-.2-.2-.1-.1-.2-.1-.2-.1h-.3c-.1 0-.2.1-.2.2-.1.1-.2.2-.2.2-.1.1-.1.2-.1.3v.3s.1.2.1.3.1.2.2.2c.1-.1.2 0 .2 0zm3.1.8c-.6-.1-.9-.2-1.5-.2.2-.9.2-1.4.4-2.2.2 0 .2.1.5.1-.2.8-.2 1.2-.3 1.9.4.1.6.1 1.1.2-.2 0-.2.1-.2.2zm1.7-2c.4.1.5.1.9.2.1 0 .2 0 .2.1.1 0 .2.1.2.1.1 0 .2.1.2.2l.2.2s.1.2.1.2v.2c-.1.2-.2.4-.3.5-.2.1-.4.1-.7.1-.2 0-.3-.1-.5-.1-.1.3-.1.5-.2.9-.2 0-.2-.1-.4-.1 0-1.2 0-1.5.3-2.5zm.2 1.1c.2 0 .3.1.5.1h.4c.1 0 .1-.1.1-.1s.1-.1.1-.2v-.1l-.1-.1s-.1-.1-.2-.1-.1 0-.2-.1c-.2 0-.3-.1-.5-.1 0 .3-.1.5-.1.7zm3.4 2c-.2-.1-.3-.1-.5-.1-.1-.3-.1-.4-.1-.7-.3-.1-.5-.1-.8-.2-.2.2-.2.4-.4.6-.2 0-.2-.1-.5-.1.5-.9.8-1.2 1.3-2.1.2 0 .2.1.4.1.4 1.1.5 1.5.6 2.5zm-.6-1.1c-.1-.3-.1-.5-.2-.8-.2.2-.2.4-.4.6.3.1.4.1.6.2zm3.1.5c-.2.8-.6 1-1.4.9-.3-.1-.5-.1-.8-.2.2-.9.3-1.3.5-2.2.3.1.5.1.8.2.7.1 1 .5.9 1.3zm-.5-.1c0-.1.1-.2 0-.3 0-.1 0-.2-.1-.2-.1-.1-.1-.2-.2-.2-.1-.1-.2-.1-.3-.2-.2 0-.2-.1-.3-.1-.2.6-.2.9-.3 1.5.2 0 .2.1.3.1.2 0 .2.1.4 0s.2-.1.2-.1c.1-.1.2-.2.2-.2 0-.1.1-.2.1-.3z"/></g></svg>