<svg enable-background="new 0 0 200 87" viewBox="0 0 200 87" xmlns="http://www.w3.org/2000/svg"><path d="m136.1.5c-.5 0-1.1.1-1.6.3s-.9.7-.9 1.4h.3c0 .1 0 .3.2.3l23.1-.1c8.2.3 15.5 2.7 21.7 6.5.3.1.4-.1.4-.3 0-.5-.1-.8-.1-1.1h.1c0-.5.1-.8 0-1.1s-.2-.6-.6-.8c-6.2-3.5-13.4-5.1-21-5.1zm-72.1 0c.5 0 1.1.1 1.6.3s.9.7.9 1.4h-.3c0 .1 0 .3-.2.3l-23.1-.1c-8.2.3-15.5 2.7-21.7 6.5-.3.1-.4-.1-.4-.3 0-.5.1-.8.1-1.1h-.1c0-.5-.1-.8 0-1.1s.2-.6.6-.8c6.2-3.5 13.4-5.1 21-5.1z" fill="#bdbdbd"/><path d="m42.1 2.1h54.8v.8h6.2v-.8h54.8c23.3 0 42.1 18.9 42.1 42.1.1 23.3-18.8 42.1-42 42.1-9.2 0-17.7-2.9-24.6-7.9l-.8-.6c-1.6-1.2-3.4-1.9-5.6-1.9h-53.9c-2.1 0-4 .7-5.6 1.9l-.8.6c-7 5-15.5 7.9-24.6 7.9-23.3 0-42.1-18.8-42.1-42.1s18.8-42.1 42.1-42.1z" fill="#ccc"/><path d="m0 87v-87h200v87z" fill="none"/><path d="m75.6 63.9c0-.2-.1-.3-.2-.4l-.3-.2c-.4-.3-.6-.6-.6-1 0-.2.1-.4.1-.5.1-.1.2-.3.4-.3.1-.1.3-.1.5-.1.3 0 .5.1.6.3s.3.5.3.8h-.6c0-.1 0-.3-.1-.3-.1-.1-.1-.1-.2-.1s-.2.1-.3.1c-.1.1-.1.1-.1.3s.1.3.3.4.3.2.5.3c.3.2.4.5.4.9 0 .2-.1.4-.1.5-.1.1-.2.3-.3.3-.1.1-.3.1-.5.1-.1 0-.3-.1-.4-.1-.1-.1-.2-.1-.3-.3-.2-.2-.3-.5-.3-.8h.6c0 .2 0 .3.1.4s.1.1.3.1c.1 0 .2 0 .3-.1-.2-.1-.2-.2-.1-.3zm12.7-1.9h-.8l-.4 2.8h-.6l.4-2.8h-.7l.1-.6h2.1zm-2.8 1.7c0 .3-.1.5-.2.6-.1.2-.3.3-.4.5-.2.1-.3.1-.5.1-.3 0-.5-.1-.6-.3s-.3-.5-.3-.9c0-.3 0-.5.1-.8s.1-.6.3-.8c.1-.2.3-.4.4-.5.2-.1.3-.1.5-.1.3 0 .5.1.6.3.2.2.3.5.3.9h-.5c0-.2 0-.4-.1-.5s-.2-.2-.3-.2c-.3 0-.5.3-.6 1 0 .3-.1.5-.1.6 0 .4.1.6.3.6.1 0 .3-.1.3-.1l.2-.4zm-2.7-.3h-1l-.1.8h1.1l-.1.6h-1.7l.5-3.4h1.8l-.1.6h-1.2v.8h1zm-3.2.8h1l-.1.6h-1.7l.5-3.4h.6zm-1.2-.8h-1l-.1.8h1.1l-.1.6h-1.7l.5-3.4h1.8l-.1.6h-1.1l-.1.7h1zm19.9.5c0-.2-.1-.3-.2-.4l-.3-.2c-.4-.3-.6-.6-.6-1 0-.2.1-.4.1-.5.1-.1.2-.3.4-.3.1-.1.3-.1.5-.1.3 0 .5.1.6.3s.3.5.3.8h-.6c0-.1 0-.3-.1-.3-.1-.1-.1-.1-.2-.1s-.2.1-.3.1c-.1.1-.1.1-.1.3s.1.3.3.4.3.2.5.3c.3.2.4.5.4.9 0 .2-.1.4-.1.5-.1.1-.2.3-.4.3s-.4.1-.5.1-.3-.1-.4-.1c-.1-.1-.2-.1-.3-.3-.3-.2-.3-.5-.3-.8h.6c0 .2 0 .3.1.4s.1.1.3.1.2 0 .3-.1c-.1-.1-.1-.2 0-.3zm10.9-1.9h-.7l-.4 2.8h-.6l.4-2.8h-.7l.1-.6h2.1zm-4 1h.3c.1 0 .2 0 .3-.1s.1-.1.1-.3.1-.2 0-.3c0-.2-.1-.3-.3-.3h-.4zm-.2.6-.1 1.2h-.6l.5-3.4h.9c.3 0 .5.1.6.3s.2.5.2.7c0 .3-.1.5-.2.6-.1.2-.2.3-.4.4l.3 1.4v.1h-.6l-.3-1.2zm-2.5.6-.3.6h-.6l1.4-3.4h.6l.5 3.4h-.6l-.1-.6zm.3-.7h.5l-.1-1.2zm-1.1-1.5h-.7l-.4 2.8h-.6l.4-2.8h-.7l.1-.6h2.1z" fill="#4c4c4c"/><path d="m66.3 43.8c0 13.2-10.7 23.9-23.8 23.9s-23.9-10.7-23.9-23.9 10.7-23.9 23.8-23.9 23.9 10.7 23.9 23.9" fill="#999"/><path d="m66.3 43.8c0 13.2-10.7 23.9-23.8 23.9s-23.9-10.7-23.9-23.9 10.7-23.9 23.8-23.9 23.9 10.7 23.9 23.9" fill="none" stroke="#999" stroke-width=".5196"/><path d="m65.5 43.8c0 12.8-10.3 23.1-23.1 23.1s-23.2-10.3-23.2-23.1 10.3-23.1 23.1-23.1 23.2 10.3 23.2 23.1" fill="#ccc"/><path d="m196 43.8c0 20.9-17 37.9-37.9 37.9-21 0-37.9-17-37.9-37.9 0-21 17-37.9 37.9-37.9 20.9-.1 37.9 17 37.9 37.9" fill="#666"/><path d="m59 37.8h-10.6v-10.6c0-.5-.4-.8-.8-.8h-10.4c-.5 0-.8.4-.8.8v10.7h-10.6c-.5 0-.8.4-.8.8v10.3c0 .5.4.8.8.8h10.6v10.7c0 .5.4.8.8.8h10.3c.5 0 .8-.4.8-.8v-10.7h10.7c.5 0 .8-.4.8-.8v-10.4c0-.5-.4-.8-.8-.8" fill="#4c4c4c"/><path d="m27.4 42.7c-1 .6-1 1.6 0 2.1l4.1 2.3c1 .6 1.9.3 1.9-.6v-5.5c0-.9-.8-1.2-1.9-.6l-4.1 2.3c-1 .6-1 1.6 0 2.1l4.1 2.3c1 .6 1.9.3 1.9-.6v-5.5c0-.9-.8-1.2-1.9-.6 0 .1-4.1 2.3-4.1 2.3zm29.9 0c1 .6 1 1.6 0 2.1l-4.1 2.3c-1 .6-1.9.3-1.9-.6v-5.5c0-.9.8-1.2 1.9-.6l4.1 2.3c1 .6 1 1.6 0 2.1l-4.1 2.3c-1 .6-1.9.3-1.9-.6v-5.5c0-.9.8-1.2 1.9-.6 0 .1 4.1 2.3 4.1 2.3zm-13.8-13.8c-.6-1-1.6-1-2.1 0l-2.3 4c-.6 1-.3 1.9.6 1.9h5.5c.9 0 1.2-.8.6-1.9l-2.3-4c-.6-1-1.6-1-2.1 0l-2.3 4c-.6 1-.3 1.9.6 1.9h5.5c.9 0 1.2-.8.6-1.9 0 0-2.3-4-2.3-4zm0 29.8c-.6 1-1.6 1-2.1 0l-2.4-4.1c-.6-1-.3-1.9.6-1.9h5.5c.9 0 1.2.8.6 1.9l-2.2 4.1c-.6 1-1.6 1-2.1 0l-2.4-4.1c-.6-1-.3-1.9.6-1.9h5.5c.9 0 1.2.8.6 1.9.1 0-2.2 4.1-2.2 4.1z" fill="#666"/><path d="m86.6 18.1-.2.5h.1zm-5-.6-.1.6s0 .1.1.1h.1l.1-.1.1-.5-.1-.1zm20.3-.2h.6l-.1.3h-.1l-.3 1.7h-.3l.3-1.7h-.1zm-2.5 0h.3l.1 1 .2-1h.3l-.3 1.9h-.3l-.1-1.1-.2 1.1h-.3zm-2.5 0h.5l-.1.3h-.3v.5h.3l-.1.2h-.3l-.1.7h.2v.2h-.5zm-3.1 0h.3l.1 1.1.5-1.1h.3l-.3 1.9h-.3l.1-1-.5 1h-.2l-.1-1-.2 1h-.3c.1 0 .6-1.9.6-1.9zm-2.8 0h.3l.1 1 .2-1h.3l-.3 1.9h-.3l-.1-1.1-.2 1.1h-.3zm-2.1 0h.3l-.4 1.9h-.3zm-2.3 0h.3l-.1 1.9h-.3l.1-.5h-.2l-.1.5h-.3zm-2.8 0h.6l-.1.3h-.1l-.3 1.7h-.3l.3-1.7h-.1zm-2.5 0h.5c.1 0 .2.1.1.2l-.1.7c0 .1-.1.1-.2.2h.1v.1l-.1.8h-.3s.1-.6.1-.7v-.1h-.2l-.1.8h-.3zm-2.3 0h.5l-.1.3h-.3l-.1.6h.3l-.1.2h-.2l-.1.6h.3l-.1.3h-.5zm-2.5 0h.6l-.1.2h-.1l-.3 1.7h-.3l.3-1.7h-.1zm-2.5 0h.3l.1 1 .2-1h.3l-.4 1.9h-.3l-.1-1.1-.2 1.1h-.3zm-2.4 0h.5l-.1.2h-.3l-.1.6h.4l-.1.2h-.3l-.1.6h.3l-.1.3h-.5zm45.5-.1h.3l.1 1.1.5-1.1h.3l-.3 1.9h-.3l.1-1-.4 1h-.2l-.1-1-.2 1h-.3zm-2.1 0h.5l-.1.3h-.3l-.1.6h.3l-.1.2h-.2l-.1.6h.3l-.1.3h-.5zm-2.2 0h.6l-.1.3h-.1l-.3 1.7h-.3l.3-1.7h-.1zm-2 0h.4c.1 0 .2.1.1.2l-.1.5h-.2l.1-.3c0-.1 0-.1-.1-.1s-.1.1-.1.1l-.1.3v.1s.3.5.3.6v.1c0 .1-.1.5-.1.5 0 .1-.1.2-.2.2h-.4c-.1 0-.2-.1-.1-.2l.1-.5h.3l-.1.3c0 .1.1.1.1.1.1 0 .1-.1.1-.1l.1-.3c-.1-.1-.3-.5-.4-.6v-.1c0-.1.1-.4.1-.4zm-2.8 0h.3l.1.7.4-.7h.3l-.6 1.1-.1.8h-.3l.1-.8zm-1.9 0h.4c.1 0 .2.1.1.2l-.1.5h-.2l.1-.3c0-.1-.1-.1-.1-.1-.1 0-.1.1-.1.1l-.1.3v.1c.1 0 .3.5.3.6v.1c0 .1-.1.5-.1.5 0 .1-.1.2-.2.2h-.3c-.1 0-.2-.1-.1-.2l.1-.5h.3l-.1.3c0 .1 0 .1.1.1s.1-.1.1-.1l.1-.3c-.1-.1-.3-.5-.4-.6v-.1c0-.1.1-.4.1-.4s.1-.4.1-.4zm-35.6 2.5h48.3v-2.9h-48.3zm17.3-11.3h.5c.1 0 .4.3.3.4l-.5 2.2c0 .1-.3.4-.4.4h-.5c-.1 0-.2-.1-.2-.1v-.1l.5-2.6c.1 0 .3-.2.3-.2zm-6.8 0h.5c.1 0 .4.3.3.4l-.4 2.2c0 .1-.2.4-.3.4h-.7v-.1l.5-2.6c0-.2.1-.3.1-.3m37 0c.3 0 .6.3.5.6l-1 5.7c-.1.3-.3.6-.6.6s-.5-.3-.4-.6l1-5.7v-.1l.1-.1.1-.1h.1zm-4.3 0h.5c.3 0 .5.3.5.6l-1 5.7c-.1.3-.4.6-.7.6h-.5c-.1 0 1.2-6.9 1.2-6.9zm3.7-1c-.5 0-.9.4-1 .8l-1.2 7c-.1.5.2.8.6.8h1.8c.5 0 .9-.3 1-.8l1.3-7c.1-.5-.2-.8-.6-.8zm-4.6 0-1.6 8.7h2.5c.5 0 .9-.3 1-.8l1.3-7c.1-.5-.2-.8-.6-.8zm-4.3 0-1.6 8.7h1.2l1-5.1.4 5.1h1.1l1.6-8.7h-1.2l-.8 4.5-.6-4.5zm-2.8 0-1.7 8.7h2.5l.2-1.1h-1.2l.5-2.9h1.2l.2-.9h-1.2l.5-2.7h1.2l.2-1.1zm-3 0-.2 1.1h.6l-1.4 7.6h1.2l1.4-7.6h.6l.2-1.1zm-4.2 0-1.6 8.7h1.2l1-5.1.4 5.1h1.1l1.6-8.7h-1.2l-.8 4.5-.6-4.5zm-1.7 0-1.6 8.7h1.1l1.7-8.7zm-4.2 0-1.6 8.7h1.2l1-5.1.4 5.1h1.1l1.6-8.7h-1.2l-.8 4.6-.6-4.5h-1.1zm-5.8 0-1.6 8.7h1.1l.7-4h.8c.1.1.1.3.1.4s.1.3 0 .4c0 .1-.6 3.2-.6 3.2h1.1s.6-3.3.6-3.4 0-.2-.1-.3-.1-.2-.2-.3-.3-.1-.3-.1h-.1c.3-.1.9-.3 1-.6l.6-3.1c.1-.5-.2-.8-.6-.8zm-2.9 0-1.7 8.7h2.5l.2-1.1h-1.2l.5-2.9h1.2l.2-.9h-1.2l.5-2.7h1.2l.2-1.1zm-3.9 0-1.6 8.7h1.1l.7-4h1.4c.5 0 .8-.4 1-.8l.6-3.1c.1-.5-.2-.8-.6-.8-.2 0-2.6 0-2.6 0zm-3.9 0-1.4 7.9c-.1.5.2.8.6.8h1.7c.5 0 .9-.3 1-.8l1.4-7.9h-1l-1.4 7.7c0 .1-.1.2-.3.2h-.7c-.1 0-.2-.1-.2-.2l1.4-7.7zm-3.2 0c-.5 0-.9.4-1 .8v1.4c0 .2 0 .5.1.5.1.5 1.6 2.6 1.6 2.9-.1.3-.2 1.3-.2 1.3-.1.3-.3.6-.6.6s-.5-.3-.5-.6l.3-1.6h-1.1l-.4 2.3c-.1.5.2.8.6.8h1.6c.5 0 .8-.3 1-.8 0 0 .4-2.1.4-2.2s-.1-.2-.1-.2c0-.2-1.4-2.4-1.5-2.5s-.1-.3-.1-.4.2-1 .2-1c.1-.3.4-.6.6-.6s.5.3.4.6l-.2 1.4h1.2l.4-2.1c.1-.5-.2-.8-.6-.8h-2z" fill="#4c4c4c"/><path d="m87.6 48.8-8.6 6.7c-2.9 2.3-6.6-1.9-3.4-4.4l8.6-6.7c3-2.3 6.5 2.1 3.4 4.4m21.5 0-8.6 6.7c-2.9 2.3-6.6-1.9-3.4-4.4l8.6-6.7c3-2.3 6.5 2.1 3.4 4.4" fill="#666"/><path d="m171 16.4h-1.4l1.8 2.1-1.9 2.3h1.3l1.2-1.5 1.2 1.5h1.3l-1.9-2.3 1.8-2.1h-1.4l-1 1.2zm17.2 15.5h1.3l1.9 4.3h-1l-.5-1.1h-2.1l-.5 1.1h-1zm1.3 2.3-.6-1.5-.6 1.4zm-62.9 18.7h-1.2l1.9 2.4v2h1v-2l1.9-2.4h-1.2l-1.3 1.6z" fill="#d8d8d8"/><path d="m143 68.1h2.9c1.8.1 1.9 2 .1 2.1 2.2.1 2 2.2-.1 2.3h-2.9zm2.8 3.6c.7-.1.7-.9 0-1h-1.8v1zm0-1.9c.7-.3.5-.9 0-1h-1.8v1z" fill="#ccc"/><path d="m138.9 36.4c-4.4 0-7.9 3.5-7.9 7.9s3.5 7.9 7.9 7.9 7.9-3.5 7.9-7.9-3.5-7.9-7.9-7.9zm0 .6c4 0 7.2 3.2 7.2 7.2s-3.2 7.2-7.2 7.2-7.2-3.2-7.2-7.2 3.3-7.2 7.2-7.2zm19.1-15.5c-4.4 0-7.9 3.5-7.9 7.9s3.5 7.9 7.9 7.9 7.9-3.5 7.9-7.9-3.6-7.9-7.9-7.9zm0 .7c4 0 7.2 3.2 7.2 7.2s-3.2 7.2-7.2 7.2-7.1-3.2-7.1-7.2 3.1-7.2 7.1-7.2zm.6 28.7c-4.4 0-7.9 3.5-7.9 7.9s3.5 7.9 7.9 7.9 7.9-3.5 7.9-7.9-3.5-7.9-7.9-7.9zm0 .6c4 0 7.1 3.2 7.1 7.2s-3.2 7.1-7.1 7.1c-4 0-7.2-3.2-7.2-7.1.1-4 3.3-7.2 7.2-7.2zm19.1-15.5c-4.4 0-7.9 3.5-7.9 7.9s3.5 7.9 7.9 7.9 7.9-3.5 7.9-7.9-3.6-7.9-7.9-7.9zm0 .6c4 0 7.2 3.2 7.2 7.2s-3.2 7.2-7.2 7.2-7.2-3.2-7.2-7.2c0-3.9 3.2-7.2 7.2-7.2z" fill="#f4f4f4"/><path d="m184.9 38.1c3.1 4 2.4 9.8-1.6 13l-19 14.9c-4 3.1-9.8 2.4-13-1.6-3.1-4-2.4-9.8 1.6-13l19.1-14.8c1.5-1.2 3.2-1.8 5.1-1.9 2.8-.3 5.9.9 7.8 3.4z" fill="#d8d8d8"/><path d="m177.7 36c4.4 0 7.9 3.5 7.9 7.9s-3.5 7.9-7.9 7.9-7.9-3.5-7.9-7.9c.1-4.4 3.6-7.9 7.9-7.9z" fill="#47449e"/><path d="m165.3 23.7c3.1 4 2.4 9.8-1.6 13l-19 14.9c-4 3.1-9.8 2.4-13-1.6-3.1-4-2.4-9.8 1.6-13l19.1-14.8c1.5-1.2 3.2-1.8 5.1-1.9 2.8-.4 5.9.9 7.8 3.4z" fill="#d8d8d8"/><path d="m158 21.5c4.4 0 7.9 3.5 7.9 7.9s-3.5 7.9-7.9 7.9-7.9-3.5-7.9-7.9c.1-4.4 3.6-7.9 7.9-7.9z" fill="#a59ef7"/><path d="m158.6 50.9c4.4 0 7.9 3.5 7.9 7.9s-3.5 7.9-7.9 7.9-7.9-3.5-7.9-7.9 3.6-7.9 7.9-7.9z" fill="#47449e"/><path d="m138.9 36.4c4.4 0 7.9 3.5 7.9 7.9s-3.5 7.9-7.9 7.9-7.9-3.5-7.9-7.9 3.6-7.9 7.9-7.9z" fill="#a59ef7"/><circle cx="42.4" cy="43.8" fill="#595959" r="4.4"/></svg>