<svg enable-background="new 0 0 200 192.8" viewBox="0 0 200 192.8" xmlns="http://www.w3.org/2000/svg"><path d="m0 0h200v192.8h-200z" fill="none"/><g transform="matrix(.54634509 0 0 -.54634509 -.000001 200)"><path d="m329.7 307.1v12.5s-39 26-147.8 26-147.8-26-147.8-26v-12.5" fill="#515151"/><path d="m8.4 251.2c-5-23.3-11-63.7-6-111.3 4-38.5 21-51.4 30.6-51.6 17.3-.3 29.6 43.1 34.8 68.3 8 39 7.3 49 7.3 49z" fill="#a3a3a3"/><path d="m8.4 251.2c-5-23.3-11-63.7-6-111.3 4-38.5 21-51.4 30.6-51.6 17.3-.3 29.6 43.1 34.8 68.3 8 39 7.3 49 7.3 49z" fill="none" stroke="#a3a3a3" stroke-linecap="round" stroke-linejoin="round" stroke-miterlimit="10"/><path d="m357.7 251.2c5-23.3 11-63.7 6-111.3-4-38.5-21-51.4-30.6-51.6-17.3-.3-29.6 43.1-34.8 68.3-8 39-7.3 49-7.3 49s66.7 45.6 66.7 45.6z" fill="#a3a3a3"/><path d="m357.7 251.2c5-23.3 11-63.7 6-111.3-4-38.5-21-51.4-30.6-51.6-17.3-.3-29.6 43.1-34.8 68.3-8 39-7.3 49-7.3 49s66.7 45.6 66.7 45.6z" fill="none" stroke="#a3a3a3" stroke-linecap="round" stroke-linejoin="round" stroke-miterlimit="10"/><path d="m182.9 13.2c27-1 40.2 67 49.9 126.7 9.2 57 14 53 48.7 60 18.9 3.8 76.7-2 77 62.3s-95.3 71.3-95.3 71.3l-9 17.5s-38.2 15-71.2 15-71.2-15-71.2-15l-9-17.5s-95.7-7-95.3-71.3 58.1-58.5 77-62.3c34.7-7 39.4-3 48.7-60 9.5-59.7 22.7-127.7 49.7-126.7" fill="#b2b2b2"/><path d="m102 259.6c0-20-16.2-36.2-36.2-36.2s-36.2 16.2-36.2 36.2 16.2 36.2 36.2 36.2c20-.1 36.2-16.3 36.2-36.2" fill="#a3a3a3"/><path d="m102 259.6c0-20-16.2-36.2-36.2-36.2s-36.2 16.2-36.2 36.2 16.2 36.2 36.2 36.2c20-.1 36.2-16.3 36.2-36.2z" fill="none" stroke="#a3a3a3" stroke-linecap="round" stroke-linejoin="round" stroke-miterlimit="10"/><path d="m72.5 231.6h-12.5c-1.4 0-2.5 1.1-2.5 2.5v17h-16.6c-1.4 0-2.5 1.1-2.5 2.5v12.4c0 1.4 1.1 2.5 2.5 2.5h16.6v16.6c0 1.4 1.1 2.5 2.5 2.5h12.5c1.4 0 2.5-1.1 2.5-2.5v-16.6h15.7c1.4 0 2.5-1.1 2.5-2.5v-12.5c0-1.4-1.1-2.5-2.5-2.5h-15.7v-17c0-1.3-1.2-2.4-2.5-2.4" fill="#515151"/><path d="m199.7 253.1c0-9.9-8-17.9-17.9-17.9s-17.9 8-17.9 17.9 8 17.9 17.9 17.9c9.9-.1 17.9-8.1 17.9-17.9" fill="#a3a3a3"/><path d="m199.7 253.1c0-9.9-8-17.9-17.9-17.9s-17.9 8-17.9 17.9 8 17.9 17.9 17.9c9.9-.1 17.9-8.1 17.9-17.9z" fill="none" stroke="#a3a3a3" stroke-linecap="round" stroke-linejoin="round" stroke-miterlimit="10"/><path d="m221.2 177.6c0-21.7-17.6-39.4-39.4-39.4-21.7 0-39.4 17.6-39.4 39.4s17.6 39.4 39.4 39.4 39.4-17.7 39.4-39.4" fill="#515151"/><path d="m265.9 239.3-2.3-2.2-8.1 8.4 2.3 2.2s8.1-8.4 8.1-8.4zm63.4 38.4c0-14.6-11.9-26.5-26.5-26.5s-26.5 11.9-26.5 26.5 11.9 26.5 26.5 26.5 26.5-11.8 26.5-26.5" fill="#a3a3a3"/><path d="m328.3 277.7c0-14.1-11.4-25.5-25.5-25.5s-25.5 11.4-25.5 25.5 11.4 25.5 25.5 25.5 25.5-11.4 25.5-25.5" fill="#afafaf"/><path d="m71.6 259.6c0-3.2-2.6-5.8-5.8-5.8s-5.8 2.6-5.8 5.8 2.6 5.8 5.8 5.8 5.8-2.6 5.8-5.8m-10.2-13.3h8.9l-4.4-9.5z" fill="#3d3d3d"/><path d="m61.4 246.3h8.9l-4.4-9.5z" fill="none" stroke="#3d3d3d" stroke-linejoin="round" stroke-miterlimit="10"/><path d="m70.2 272.8h-8.9l4.4 9.5z" fill="#3d3d3d"/><path d="m70.2 272.8h-8.9l4.4 9.5z" fill="none" stroke="#3d3d3d" stroke-linejoin="round" stroke-miterlimit="10"/><path d="m52.6 264v-8.9l-9.5 4.4z" fill="#3d3d3d"/><path d="m52.6 264v-8.9l-9.5 4.4z" fill="none" stroke="#3d3d3d" stroke-linejoin="round" stroke-miterlimit="10"/><path d="m79 255.1v8.9l9.5-4.4z" fill="#3d3d3d"/><path d="m79 255.1v8.9l9.5-4.4z" fill="none" stroke="#3d3d3d" stroke-linejoin="round" stroke-miterlimit="10"/><path d="m195.9 253.1c0-7.7-6.3-14-14-14s-14 6.3-14 14 6.3 14 14 14 14-6.3 14-14" fill="#ca2e39"/><path d="m262.7 256.3c0-8.2-6.6-14.8-14.8-14.8s-14.8 6.6-14.8 14.8 6.6 14.8 14.8 14.8c8.2.1 14.8-6.6 14.8-14.8" fill="#00935c"/><path d="m292.5 277.7c0-5.4-4.3-9.7-9.7-9.7s-9.7 4.3-9.7 9.7 4.3 9.7 9.7 9.7 9.7-4.3 9.7-9.7m39.9 0c0-5.4-4.3-9.7-9.7-9.7s-9.7 4.3-9.7 9.7 4.3 9.7 9.7 9.7 9.7-4.3 9.7-9.7m-29.6-10.2c5.4 0 9.7-4.3 9.7-9.7s-4.3-9.7-9.7-9.7-9.7 4.3-9.7 9.7c0 5.3 4.3 9.7 9.7 9.7m0 39.9c5.4 0 9.7-4.3 9.7-9.7s-4.3-9.7-9.7-9.7-9.7 4.3-9.7 9.7c0 5.3 4.3 9.7 9.7 9.7" fill="#e1c245"/><path d="m165 161.1-6.7 16.8 7.1 16.6 16.8 6.7 16.6-7.1 6.7-16.8-7.1-16.6-16.8-6.7s-16.6 7.1-16.6 7.1z" fill="#212121"/><path d="m289.6 229.6c0-8.2-6.6-14.8-14.8-14.8s-14.8 6.6-14.8 14.8 6.6 14.8 14.8 14.8 14.8-6.6 14.8-14.8" fill="#143f9e"/><path d="m200.7 177.6c0-10.4-8.4-18.9-18.9-18.9-10.4 0-18.9 8.4-18.9 18.9 0 10.4 8.4 18.9 18.9 18.9s18.9-8.5 18.9-18.9" fill="#b2b2b2"/><path d="m196.6 177.6c0-8.2-6.6-14.8-14.8-14.8-8.1 0-14.8 6.6-14.8 14.8 0 8.1 6.6 14.8 14.8 14.8 8.2-.1 14.8-6.7 14.8-14.8" fill="#a3a3a3"/><path d="m195.7 177.6c0-7.7-6.2-13.9-13.9-13.9s-13.9 6.2-13.9 13.9 6.2 13.9 13.9 13.9 13.9-6.3 13.9-13.9" fill="#b2b2b2"/><path d="m192.8 177.6c0-6-4.9-10.9-10.9-10.9s-10.9 4.9-10.9 10.9 4.9 10.9 10.9 10.9 10.9-4.9 10.9-10.9" fill="#a3a3a3"/><path d="m191.8 177.6c0-5.5-4.4-9.9-9.9-9.9s-9.9 4.4-9.9 9.9 4.4 9.9 9.9 9.9 9.9-4.4 9.9-9.9" fill="#b2b2b2"/><path d="m188.2 177.6c0-3.5-2.8-6.3-6.3-6.3s-6.3 2.8-6.3 6.3 2.8 6.3 6.3 6.3c3.4 0 6.3-2.8 6.3-6.3" fill="#a3a3a3"/><path d="m187.1 177.6c0-2.9-2.3-5.2-5.2-5.2s-5.2 2.3-5.2 5.2 2.3 5.2 5.2 5.2 5.2-2.3 5.2-5.2" fill="#b2b2b2"/><g fill="#a3a3a3"><path d="m182.9 313h31.5c.6 0 1.1 0 1.7.1 4.4.8 7.3 5.1 6.4 9.5-.8 3.7-4 6.3-7.8 6.3-21.1 0-42.3 0-63.4 0-1.9 0-3.5-.6-5-1.7-3.4-2.7-4-7.7-1.3-11.1 1.7-2.1 3.8-3.1 6.5-3.1-.1 0 31.4 0 31.4 0zm0 18.3h31.5c1.9 0 3.8-.4 5.5-1.4 2.9-1.7 4.6-4.2 5-7.5.7-5.1-2.3-9.8-7.1-11.3-1.1-.4-2.2-.5-3.4-.5-18.7 0-37.4 0-56 0-2.5 0-5 0-7.5 0-4.7 0-8.9 3.4-9.9 8-1.2 5.3 1.7 10.6 6.9 12.3 1.1.4 2.3.5 3.4.5 10.6-.1 21.1-.1 31.6-.1"/><path d="m156.4 319.1v.3 6.1c0 .2.1.3.3.3h2.4c.2 0 .2 0 .2-.2 0-3.1 0-6.1 0-9.2 0-.2 0-.2-.2-.2-.8 0-1.6 0-2.4 0-.2 0-.3.1-.3.2-1.4 2.1-2.8 4.3-4.1 6.4-.1.1-.1.2-.2.2v-.3c0-2.1 0-4.2 0-6.3 0-.3-.1-.3-.3-.3-.8 0-1.5 0-2.3 0-.2 0-.3 0-.3.2v9.1c0 .2.1.2.2.2h2.6c.2 0 .3-.1.4-.2 1.3-2 2.6-4.2 4-6.3zm48.1.2v1.4c0 .7-.4 1.1-1.1 1.1-.6 0-1.1-.4-1.2-1 0-1 0-1.9 0-2.9 0-.4.3-.7.7-.7.3 0 .6-.1.9 0 .4.1.7.3.7.8s0 .8 0 1.3m0 2.9v2.7c0 .2-.1.6 0 .7.1.2.5 0 .7 0h1.9c.2 0 .2 0 .2-.2 0-3.1 0-6.1 0-9.2 0-.2 0-.2-.2-.2-.8 0-1.6 0-2.5 0-.1 0-.2 0-.2.1 0 .2-.1 0-.2 0-.5-.2-1-.3-1.6-.3-1.3-.1-2.3.6-2.9 1.6-1.5 2.4 0 4.7 1.9 5.2.9.2 1.7.1 2.6-.4.1.1.2.1.3 0m-11.9-.4c.3.1.6.3.9.5 1.7 1 3.6.2 4.6-1.3.1-.2.2-.4.2-.7 0-1.4 0-2.8 0-4.2 0-.2 0-.2-.2-.2-.8 0-1.7 0-2.5 0-.2 0-.2.1-.2.2v4.1c0 .7-.8 1.3-1.5 1.1-.2-.1-.4-.1-.6-.2-.4-.2-.7-.5-.7-1.1 0-1.3 0-2.6 0-3.9 0-.2-.1-.2-.2-.2-.8 0-1.6 0-2.4 0-.2 0-.2.1-.2.2v6.1c0 .2.1.2.2.2h2.4c.2 0 .3-.1.2-.3 0-.1 0-.2 0-.3m-24.1.2c.3.1.5.2.7.4 1.4.9 3 .6 4.2-.5.5-.5.8-1 .8-1.7 0-1.2 0-2.5 0-3.7 0-.2-.1-.3-.3-.3-.8 0-1.6 0-2.4 0-.2 0-.3 0-.3.3v4c0 .7-.8 1.3-1.5 1.1-.2-.1-.4-.1-.5-.2-.4-.2-.6-.5-.6-1 0-1.3 0-2.5 0-3.8 0-.3-.1-.3-.3-.3-.8 0-1.6 0-2.3 0-.2 0-.2 0-.2.2v6.1c0 .2 0 .2.2.2h2.5c.2 0 .2 0 .2-.2-.2-.3-.2-.5-.2-.6m43.2-2.7c0-.6 0-1.2 0-1.9 0-.4.2-.7.7-.8.2-.1.5 0 .7 0 .6 0 .9.3.9.9v3.6c0 .7-.4 1.1-1.1 1.1s-1.1-.4-1.1-1.1c-.2-.6-.1-1.2-.1-1.8m1.1 3.5c1 0 2-.3 2.9-.9 1.8-1.4 1.9-3.7.1-5.2-1.6-1.4-4.3-1.4-5.9 0-1.8 1.4-1.7 3.9.1 5.3.8.6 1.8.8 2.8.8m-28.4-2.4h.4c.8 0 .8 0 .7.8 0 .6-.5 1-1.1 1.1-.6 0-1.1-.3-1.1-1 0-.2 0-.5 0-.7 0-.1.1-.1.2-.1.3-.1.6-.1.9-.1m1.6-1.1c-.8 0-1.6 0-2.4 0-.2 0-.2 0-.2-.2 0-.5 0-1.1 0-1.6 0-.6.3-.9.9-.9h.7c.5.1.7.4.7.9v.7c0 .1 0 .2.2.2h2.6c.2 0 .1-.1.1-.2-.3-.8-.9-1.4-1.6-1.8-1.7-1-4-.8-5.5.4-1.6 1.4-1.6 3.6 0 5 1.7 1.5 4.5 1.4 6.2 0 .6-.6 1-1.3 1.1-2.2 0-.2 0-.3-.2-.3-1 0-1.8 0-2.6 0m-10.2.1v3c0 .2-.1.2-.2.2-.4 0-.7 0-1.1 0-.1 0-.2 0-.2.2 0 .7 0 .7.7.7h.7c.1 0 .2 0 .2.2v1c0 .1 0 .2.2.2h2.6c.2 0 .2 0 .2-.2 0-.3 0-.7 0-1 0-.1 0-.2.2-.2h1.1c.1 0 .2 0 .2-.2 0-.7 0-.7-.7-.7-.3 0-.6.1-.8-.1-.1-.1 0-.5 0-.8 0-1.8 0-3.6 0-5.4 0-.2-.1-.3-.3-.3-.8 0-1.6 0-2.5 0-.2 0-.2 0-.2.2 0 1.1-.1 2.2-.1 3.2m-11.8 0c0-1 0-2 0-3 0-.2 0-.2-.2-.2-.8 0-1.6 0-2.4 0-.2 0-.2 0-.2.2v6.1c0 .2.1.2.2.2h2.4c.2 0 .2 0 .2-.2 0-1.1 0-2.1 0-3.1m-1.5 4.6c-.4 0-.8 0-1.2 0-.1 0-.2 0-.2.2v1.4c0 .1 0 .2.2.2h2.6c.1 0 .2 0 .2-.2 0-.5 0-.9 0-1.4 0-.1-.1-.2-.2-.2-.5 0-.9 0-1.4 0m54.9-1c.7 0 1.3.6 1.3 1.2 0 .7-.6 1.3-1.3 1.3s-1.2-.6-1.2-1.3.5-1.2 1.2-1.2m0 2.8c.8 0 1.5-.7 1.5-1.6 0-.8-.7-1.5-1.5-1.5s-1.5.7-1.5 1.5c0 .9.7 1.6 1.5 1.6"/><path d="m217.4 324.3c.2 0 .3 0 .3.2 0 .3-.2.2-.4.3-.2 0-.2-.1-.2-.2 0-.3.1-.4.3-.3m-.5 0v.1c0 .2-.1.4.1.5s.5.1.7 0c.3-.1.4-.5.2-.8-.1-.1-.1-.2 0-.3 0-.1.1-.2 0-.2-.2-.1-.1.1-.2.1 0 0-.1.1-.1.2-.1.1-.2.1-.3.1s-.1-.1-.1-.2 0-.2-.1-.2-.1.1-.1.2c-.1.2-.1.3-.1.5"/><path d="m254.1 351.1-6.2-75.8 15.2 58.3zm-142.4 0 6.2-75.8-15.2 58.3z"/></g></g></svg>