<?xml version="1.0" encoding="utf-8"?>
<!-- Generator: Adobe Illustrator 23.0.3, SVG Export Plug-In . SVG Version: 6.00 Build 0)  -->
<svg version="1.1" id="Layer_1" xmlns="http://www.w3.org/2000/svg" xmlns:xlink="http://www.w3.org/1999/xlink" x="0px" y="0px"
	 viewBox="0 0 118.5 53.5" style="enable-background:new 0 0 118.5 53.5;" xml:space="preserve">
<style type="text/css">
	.st0{fill:#CFCEC8;}
	.st1{fill:#DBD9D4;}
	.st2{fill:#939598;}
	.st3{fill:#878684;}
	.st4{fill:#8C3864;}
	.st5{fill:#E7E8E9;}
	.st6{fill:#BDBEC0;}
	.st7{fill:#77787B;}
	.st8{fill:#843D5A;}
	.st9{fill:#9E4968;}
	.st10{fill:#8A8C8F;}
	.st11{fill:#D1D2D4;}
	.st12{fill:#A7A9AC;}
	.st13{fill:#9A9C9F;}
</style>
<path class="st0" d="M51.1,0c1.2,0,2.3,0.5,2.5,1.2l5.7,0l5.7,0C65.1,0.5,66.1,0,67.4,0l46.5,0c2.5,0,4.6,2.1,4.6,4.6v0v36.5
	c0,6.9-5.6,12.4-12.4,12.4H12.4C5.6,53.5,0,47.9,0,41.1L0,4.6C0,2.1,2.1,0,4.6,0L51.1,0z"/>
<path class="st1" d="M81.9,20.6l-20.8,6.4c-1.2,0.4-2.5,0.4-3.8,0l-20.8-6.4c-0.7-0.2-1.2-0.9-1.2-1.6V2.3c0-0.4,0.4-0.8,0.8-0.8
	h46.1c0.4,0,0.8,0.4,0.8,0.8v0v16.6C83.1,19.7,82.6,20.3,81.9,20.6z"/>
<path class="st1" d="M31.8,4.1H5.2c-0.8,0-1.4,0.6-1.4,1.4v34.3c0,5.2,4.2,9.4,9.4,9.4h92.1c5.2,0,9.4-4.2,9.4-9.4l0,0V5.5
	c0-0.8-0.6-1.4-1.4-1.4H86.6c-0.8,0-1.4,0.6-1.4,1.4v13.8c0,0.8-0.5,1.5-1.3,1.8l-22.6,6.9c-1.3,0.4-2.8,0.4-4.1,0l-22.6-6.9
	c-0.8-0.2-1.3-1-1.3-1.8V5.5C33.2,4.8,32.6,4.1,31.8,4.1z"/>
<path class="st2" d="M48.9,44.4V34.1h20.7v10.3H48.9z"/>
<path class="st3" d="M69.6,44.4L69.6,44.4L49,44.4V34.2h20.5L69.6,44.4L69.6,44.4L69.6,44.4L69.6,44.4L69.6,44.4l0.1-10.4H48.8v10.4
	L69.6,44.4L69.6,44.4L69.6,44.4z"/>
<path class="st4" d="M63.1,34.1h4.1L62,44.4h-4.1L63.1,34.1z"/>
<path class="st5" d="M50.5,38.2l-0.6,4.9h0.9l0.1-1l0.4,0l0.1,1h1l-0.7-4.9L50.5,38.2z M51.1,39l0.1,2.2H51L51.1,39z M52.6,38.2
	l0,4.9h0.9l0-2.9l0.4,2.9h0.6l0.4-2.9l0,2.9h1v-4.9h-1.3l-0.3,2.2L54,38.2H52.6z M58.5,38.2l0,0.8H59v4.1h1V39h0.5v-0.8L58.5,38.2z
	 M57.2,38.2c-0.6,0-0.8-0.1-1,0.2C55.9,38.7,56,39.3,56,40c0,0.6,1.3,0.9,1.3,1.2v1c0,0.1-0.3,0.1-0.3,0v-1.1h-1l0,0.8
	c0,1,0,1.2,1.2,1.2c0.6,0,0.7,0,0.8-0.1c0.1-0.1,0.2-0.2,0.2-0.3c0.1-0.2,0.1-0.3,0.1-1.1l0-0.8c0-0.2-0.5-0.6-0.7-0.7
	C57.4,40,57,40,57,39.5c0-0.4,0-0.5,0.2-0.5c0.2,0,0.1,0.1,0.2,0.9h1.1C58.4,38.2,58.4,38.2,57.2,38.2z M60.8,38.2l0,4.9h1l0-2
	c0.4,0,0.3-0.1,0.3,2l1.1,0c0-1.9,0-2-0.4-2.4c0.4-0.3,0.4-0.4,0.4-1.2c0-0.8,0-0.9-0.2-1.1C62.8,38.2,62.6,38.2,60.8,38.2z
	 M61.9,39c0.4,0,0.3,0.1,0.3,0.6c0,0.5,0.1,0.6-0.3,0.6L61.9,39z M66.2,38.3c0,0-0.1,4.7,0,4.8v0l1.8,0c0.7,0,0.6-0.4,0.6-2.3
	c0-2.2,0-2.5-0.5-2.5C68,38.3,66.2,38.3,66.2,38.3z M67.5,40.7c0,1.6,0,1.6-0.3,1.6l0-3.3C67.5,39,67.5,39.3,67.5,40.7z M64,38.2
	l-0.6,4.9h0.9l0.1-1l0.4,0l0.1,1h1l-0.7-4.9C65.3,38.2,64,38.2,64,38.2z M64.7,39.1l0.1,2.2h-0.3L64.7,39.1z"/>
<g>
	<path class="st6" d="M81.7,44.6c-3.5,0-6.3-2.8-6.3-6.3c0-3.5,2.8-6.3,6.3-6.3s6.3,2.8,6.3,6.3S85.2,44.6,81.7,44.6z"/>
	<path class="st7" d="M81.7,43.9c-3.1,0-5.6-2.5-5.6-5.6s2.5-5.6,5.6-5.6s5.6,2.5,5.6,5.6S84.8,43.9,81.7,43.9z"/>
	<path class="st8" d="M81.7,43.5c-2.8,0-5.1-2.3-5.1-5.1c0-2.8,2.3-5.1,5.1-5.1s5.1,2.3,5.1,5.1C86.9,41.2,84.6,43.5,81.7,43.5z"/>
	<circle class="st9" cx="81.7" cy="38.4" r="4.3"/>
</g>
<g>
	<path class="st6" d="M98,44.6c-3.5,0-6.3-2.8-6.3-6.3c0-3.5,2.8-6.3,6.3-6.3s6.3,2.8,6.3,6.3S101.5,44.6,98,44.6z"/>
	<path class="st7" d="M98,43.9c-3.1,0-5.6-2.5-5.6-5.6s2.5-5.6,5.6-5.6s5.6,2.5,5.6,5.6S101.1,43.9,98,43.9z"/>
	<path class="st8" d="M98,43.5c-2.8,0-5.1-2.3-5.1-5.1c0-2.8,2.3-5.1,5.1-5.1s5.1,2.3,5.1,5.1C103.2,41.2,100.9,43.5,98,43.5z"/>
	<circle class="st9" cx="98" cy="38.4" r="4.3"/>
</g>
<path class="st10" d="M82.3,47.9h-0.7v-1.3h-0.5v-0.5c0.4,0,0.6-0.1,0.7-0.5h0.5L82.3,47.9L82.3,47.9z M97.1,47.9
	c0-0.3,0.1-0.5,0.3-0.6c0.4-0.4,1-0.5,1-0.9c0-0.1-0.1-0.2-0.3-0.2c-0.3,0-0.3,0.2-0.3,0.4h-0.6c0-0.7,0.4-0.9,1-0.9
	c0.5,0,0.9,0.2,0.9,0.7c0,0.4-0.3,0.6-0.6,0.7c-0.2,0.1-0.3,0.2-0.5,0.3h1v0.5H97.1L97.1,47.9z"/>
<g>
	<circle class="st6" cx="21.2" cy="31.6" r="14"/>
	<circle class="st7" cx="21.2" cy="31.6" r="12.6"/>
	<circle class="st11" cx="21.2" cy="31.6" r="12.3"/>
	<path class="st12" d="M17.8,27.3v-6.2c0-0.5,0.4-0.8,0.9-0.8h5.2c0.5,0,0.9,0.4,0.9,0.8v6.2c0,0.5,0.4,0.9,0.9,0.9l0,0h6.2
		c0.5,0,0.9,0.4,0.9,0.9l0,0v5.2c0,0.5-0.4,0.9-0.9,0.9l0,0h-6.2c-0.5,0-0.9,0.4-0.9,0.8l0,0v6.2c0,0.5-0.4,0.8-0.9,0.8l0,0h-5.2
		c-0.5,0-0.9-0.4-0.9-0.8v-6.2c0-0.5-0.4-0.8-0.9-0.8l0,0h-6.2c-0.5,0-0.9-0.4-0.9-0.9V29c0-0.5,0.4-0.9,0.9-0.9H17
		C17.4,28.2,17.8,27.8,17.8,27.3z"/>
	<circle class="st13" cx="21.2" cy="31.6" r="2.7"/>
	<g>
		<path class="st13" d="M21.2,21.8l-2.3,3.1h0.8v1.5c0,0.1,0.1,0.1,0.1,0.1h2.7c0.1,0,0.1-0.1,0.1-0.1v-1.5h0.9
			C23.6,24.9,21.2,21.8,21.2,21.8z M11.4,31.6l3.1,2.3v-0.8H16c0.1,0,0.1-0.1,0.1-0.1v-2.7c0-0.1-0.1-0.1-0.1-0.1h-1.5v-0.9
			C14.5,29.2,11.4,31.6,11.4,31.6z M21.3,41.4l2.3-3.1h-0.8v-1.5c0-0.1-0.1-0.1-0.1-0.1h-2.7c-0.1,0-0.1,0.1-0.1,0.1v1.5h-0.9
			C18.9,38.4,21.3,41.4,21.3,41.4z M31,31.6L28,29.3v0.8h-1.5c-0.1,0-0.1,0.1-0.1,0.1v2.7c0,0.1,0.1,0.1,0.1,0.1H28V34
			C28,34,31,31.6,31,31.6z"/>
	</g>
</g>
</svg>
