<svg viewBox="0 0 278.3 126" xmlns="http://www.w3.org/2000/svg"><path d="m277.8 73.7c-1.9-19.7-10.4-40-15-49.4s-13.7-12.1-13.7-12.1-13.4-4.3-45.6-8.6-65.3-4.3-65.3-4.3-33.1 0-65.3 4.3-45.6 8.6-45.6 8.6-9 2.7-13.7 12.1-13.1 29.7-15 49.4 1.9 27.8 9.8 37 19.1 10.5 24.9 11.3c5.7.8 51.9 4 51.9 4s4.4-.3 6.6-3 8.5-8.1 14.5-10.3 32-3 32-3 26 .8 32 3 12.3 7.6 14.5 10.3 6.6 3 6.6 3 46.2-3.2 51.9-4 16.9-2.2 24.9-11.3 11.5-17.3 9.6-37z" fill="#bdbec2"/><path d="m277.8 71.8c-1.9-19.2-10.4-38.9-15-48.1s-13.7-11.8-13.7-11.8-13.4-4.2-45.6-8.4-65.3-4.2-65.3-4.2-33.1 0-65.3 4.2-45.6 8.4-45.6 8.4-9 2.6-13.7 11.8-13.1 28.9-15 48.1 1.9 27.1 9.8 36 19.1 10.3 24.9 11 51.9 3.9 51.9 3.9 4.4-.3 6.6-2.9 8.5-7.9 14.5-10 32-2.9 32-2.9 26 .8 32 2.9 12.3 7.4 14.5 10 6.6 2.9 6.6 2.9 46.2-3.2 51.9-3.9c5.7-.8 16.9-2.1 24.9-11s11.5-16.8 9.6-36z" fill="#bdbec2"/><path d="m275.9 71.6c-1.9-18.9-10.2-38.4-14.8-47.5s-13.5-11.7-13.5-11.7-13.2-4.2-45-8.3-64.4-4.1-64.4-4.1-32.6 0-64.4 4.2-45 8.3-45 8.3-8.9 2.6-13.5 11.7-12.9 28.5-14.8 47.4 1.9 26.7 9.7 35.6 18.9 10.1 24.5 10.9 51.2 3.9 51.2 3.9 4.3-.3 6.5-2.9 8.4-7.8 14.3-9.9 31.5-2.9 31.5-2.9 25.6.8 31.5 2.9 12.1 7.3 14.3 9.9 6.5 2.9 6.5 2.9 45.5-3.1 51.2-3.9 16.7-2.1 24.5-10.9 11.6-16.6 9.7-35.6z" fill="#d1d1d1"/><path d="m247.4 22.4c5.1.2 9.6 2.9 11.2 7.6 3.5 10 10.5 31.3 10.2 44.4-.3 17.7-6.2 25.1-11.7 29.6-5.6 4.5-14 5.4-14 5.4s-23.4 2.1-32.4 2.9c-2.2.2-4.3-.4-6.2-1.6-3.1-2-6.8-5.7-13.6-13.9-11.4-13.7-14.1-32.1-12.3-41.6s5.2-13.8 11.9-19c6.7-5.1 21.3-9.4 42.1-12.7 6.6-1 11.3-1.2 14.8-1.1z" fill="#bdbec2"/><path d="m247.5 25c4.7.2 8.7 3.4 10.2 7.8 3.2 9.7 9.5 30.2 9.3 42.9-.3 17.1-6.1 22.5-11.2 26.8s-12.2 5.9-12.2 5.9-20.1 2.1-28.5 2.8c-2 .2-4 .7-5.7-.4-2.9-2-7.7-6-14-13.9-10.4-13.2-13.4-27.4-11.8-36.5s6.7-15.9 13-20.9c6.2-5 19.7-10.1 38.9-13.3 5.9-1.1 8.9-1.3 12-1.2z" fill="#d1d1d1"/><circle cx="195.1" cy="59" fill="#aeadad" r="9.8" stroke="#4c4b4e" stroke-miterlimit="10" stroke-width=".54"/><ellipse cx="196.6" cy="59" fill="#b9bac0" rx="8.3" ry="9.2"/><circle cx="218.8" cy="49.3" fill="#aeadad" r="9.8" stroke="#4c4b4e" stroke-miterlimit="10" stroke-width=".54"/><ellipse cx="220.3" cy="49.3" fill="#b9bac0" rx="8.3" ry="9.2"/><circle cx="243.7" cy="40.9" fill="#aeadad" r="9.8" stroke="#4c4b4e" stroke-miterlimit="10" stroke-width=".54"/><ellipse cx="245.2" cy="40.9" fill="#b9bac0" rx="8.3" ry="9.2"/><circle cx="253.4" cy="66" fill="#aeadad" r="9.8" stroke="#4c4b4e" stroke-miterlimit="10" stroke-width=".54"/><ellipse cx="254.7" cy="66" fill="#b9bac0" rx="8.3" ry="9.2"/><circle cx="228.6" cy="73.6" fill="#aeadad" r="9.8" stroke="#4c4b4e" stroke-miterlimit="10" stroke-width=".54"/><ellipse cx="229.7" cy="73.6" fill="#b9bac0" rx="8.3" ry="9.2"/><circle cx="204.8" cy="84.6" fill="#aeadad" r="9.8" stroke="#4c4b4e" stroke-miterlimit="10" stroke-width=".54"/><ellipse cx="206" cy="84.6" fill="#b9bac0" rx="8.3" ry="9.2"/><path d="m27.6 22.4c-5.1.2-9.6 2.9-11.2 7.6-3.6 10-10.5 31.3-10.3 44.5.3 17.7 6.2 25.1 11.7 29.6s14 5.4 14 5.4 23.4 2.1 32.4 2.9c2.2.2 4.3-.4 6.2-1.6 3.1-2 6.8-5.7 13.6-13.9 11.4-13.7 14.1-32.1 12.3-41.6s-5.2-13.8-11.9-19-21.3-9.4-42.1-12.7c-6.4-1.1-11.2-1.3-14.7-1.2z" fill="#bdbec2"/><path d="m27.5 25c-4.7.2-8.7 3.4-10.2 7.8-3.2 9.8-9.5 30.3-9.3 43 .3 17.1 6.1 22.5 11.2 26.8s12.2 5.9 12.2 5.9 20.1 2.1 28.5 2.8c2 .2 4 .7 5.7-.4 2.9-2 7.7-6 14-13.9 10.5-13.2 13.5-27.4 11.9-36.5s-6.7-15.9-13-20.9-19.7-10.2-38.9-13.4c-6-1.1-8.9-1.3-12.1-1.2z" fill="#d1d1d1"/><path d="m131.9 95.3h-11c-1.8 0-3.3-1.5-3.3-3.3s1.5-3.3 3.3-3.3h11c1.8 0 3.3 1.5 3.3 3.3s-1.5 3.2-3.3 3.3z" fill="#0e0e10"/><path d="m132.1 94.4h-11.3c-1.3 0-2.4-1.1-2.4-2.4s1.1-2.4 2.4-2.4h11.3c1.3 0 2.4 1.1 2.4 2.4-.1 1.3-1.1 2.4-2.4 2.4z" fill="#c4c5c7"/><path d="m155.3 95.3h-11c-1.8 0-3.3-1.5-3.3-3.3s1.5-3.3 3.3-3.3h11c1.8 0 3.3 1.5 3.3 3.3s-1.5 3.2-3.3 3.3z" fill="#0e0e10"/><path d="m155.4 94.4h-11.3c-1.3 0-2.4-1.1-2.4-2.4s1.1-2.4 2.4-2.4h11.3c1.3 0 2.4 1.1 2.4 2.4s-1 2.4-2.4 2.4z" fill="#c4c5c7"/><g fill="#aaaab4"><path d="m132.8 41.5s0-.1 0-.2v-.2c0 .2-.1.3-.1.5l-.9 1.7-.9-1.8c0-.1-.1-.1-.1-.2s0-.1-.1-.2c0 .2 0 .3-.1.4l-.4 1.6h-.5l.8-3.4 1 2.1s0 .1.1.2l.1.3c0-.1.1-.2.1-.4v-.1l.9-2.1.8 3.4h-.5zm4.5 0c0 .5-.2.9-.5 1.2s-.8.5-1.2.5c-.2 0-.5 0-.7-.1s-.4-.2-.6-.4c-.3-.3-.5-.8-.5-1.2 0-.5.2-.9.5-1.2.2-.2.4-.3.6-.4s.4-.1.7-.1c.2 0 .5 0 .7.1.4.2.8.5.9.9 0 .3.1.5.1.7zm-.6 0c0-.5-.3-.9-.7-1.1-.1-.1-.3-.1-.5-.1-.3 0-.6.1-.8.4-.1.1-.2.2-.3.4s-.1.3-.1.5c0 .5.3.9.7 1.1.1.1.3.1.5.1s.3 0 .5-.1c.3-.1.5-.4.6-.7.1-.2.1-.3.1-.5zm1.1 1.6v-3.3h.7c.5 0 .8 0 1 .1.4.1.8.4.9.8.1.2.2.5.1.8 0 .3 0 .5-.1.8-.1.2-.2.4-.4.6-.1.1-.3.2-.5.2s-.5.1-.9.1zm.5-.4h.4.6c.1 0 .2-.1.3-.2s.2-.2.3-.4.1-.3.1-.5 0-.4-.1-.5c-.1-.2-.2-.3-.3-.4s-.2-.1-.3-.2c-.1 0-.3 0-.6 0h-.4zm2.8.4v-3.3h1.8v.4h-1.3v.8h1.3v.5h-1.3v1.1h1.3v.5zm4.5 0v-2.8h-.7l.2-.4h1v3.2z"/><path d="m132.8 61s0-.1 0-.2v-.2c0 .2-.1.3-.1.5l-.9 1.7-.9-1.8c0-.1-.1-.1-.1-.2s0-.1-.1-.2c0 .2 0 .3-.1.4l-.4 1.6h-.5l.8-3.4 1 2.1s0 .1.1.2l.1.3c0-.1.1-.2.1-.4v-.1l.9-2.1.8 3.4h-.5zm4.5 0c0 .5-.2.9-.5 1.2s-.8.5-1.2.5c-.2 0-.5 0-.7-.1s-.4-.2-.6-.4c-.3-.3-.5-.8-.5-1.2 0-.5.2-.9.5-1.2.2-.2.4-.3.6-.4s.4-.1.7-.1c.2 0 .5 0 .7.1.4.2.8.5.9.9 0 .2.1.5.1.7zm-.6 0c0-.5-.3-.9-.7-1.1-.1-.1-.3-.1-.5-.1-.3 0-.6.1-.8.4-.1.1-.2.2-.3.4s-.1.3-.1.5c0 .5.3.9.7 1.1.1.1.3.1.5.1s.3 0 .5-.1c.3-.1.5-.4.6-.7.1-.2.1-.4.1-.5zm1.1 1.6v-3.3h.7c.5 0 .8 0 1 .1.4.1.8.4.9.8.1.2.2.5.1.8 0 .3 0 .5-.1.8-.1.2-.2.4-.4.6-.1.1-.3.2-.5.2s-.5.1-.9.1zm.5-.5h.4.6c.1 0 .2-.1.3-.2s.2-.2.3-.4.1-.3.1-.5 0-.4-.1-.5c-.1-.2-.2-.3-.3-.4s-.2-.1-.3-.2c-.1 0-.3 0-.6 0h-.4zm2.8.5v-3.3h1.8v.4h-1.3v.8h1.3v.5h-1.3v1.1h1.3v.5zm5.5-.4v.4h-2.2l1.2-1.5c.2-.2.3-.3.3-.5.1-.1.1-.3.1-.4 0-.2 0-.3-.1-.4s-.2-.1-.4-.1c-.1 0-.3 0-.4.1s-.2.2-.2.4h-.5c0-.3.1-.5.3-.7s.5-.3.8-.3.6.1.7.2c.2.2.3.4.3.7 0 .2-.1.4-.2.6s-.3.5-.7.9l-.4.5z"/><path d="m119.3 85.1.4-.2c0 .1.1.3.2.3.1.1.2.1.4.1s.3 0 .4-.1.1-.2.1-.4-.2-.4-.5-.5h-.1c-.4-.2-.6-.3-.7-.5-.1-.1-.2-.3-.2-.5 0-.3.1-.5.3-.6.2-.2.4-.2.7-.2.2 0 .4 0 .6.1s.3.2.3.4l-.4.2c-.1-.1-.1-.2-.2-.2s-.2-.1-.3-.1-.2 0-.3.1-.1.2-.1.3c0 .2.2.4.6.5h.1c.3.1.5.3.7.4.1.1.2.3.2.5 0 .3-.1.6-.3.7-.2.2-.5.3-.8.3s-.5-.1-.7-.2c-.3.1-.4-.1-.4-.4zm2.6.7v-3.3h1.8v.5h-1.3v.8h1.3v.5h-1.3v1.1h1.3v.5h-1.8zm2.3 0v-3.3h.5v2.8h1.2v.5zm2.1 0v-3.3h1.8v.5h-1.3v.8h1.3v.5h-1.3v1.1h1.3v.5h-1.8zm4.9-2.5c-.1-.1-.3-.2-.5-.3s-.3-.1-.5-.1c-.4 0-.6.1-.9.3-.2.2-.3.5-.3.9s.1.6.3.9c.2.2.5.3.8.3.2 0 .4 0 .6-.1s.3-.2.5-.3v.6c-.1.1-.3.2-.5.2-.2.1-.4.1-.5.1-.2 0-.5 0-.7-.1-.4-.2-.8-.5-.9-.9-.1-.2-.1-.4-.1-.7s0-.5.1-.7.2-.4.4-.6.3-.3.6-.4c.2-.1.4-.1.7-.1.4 0 .7.1 1.1.3zm1.6-.3v2.8h-.5v-2.8h-.9v-.5h2.3v.5z"/><path d="m146 84.3v1.5h-.5v-3.3h.7.5c.1 0 .2.1.3.1.1.1.2.2.2.3.1.1.1.3.1.4 0 .3-.1.5-.2.6s-.3.2-.6.3l1.1 1.5h-.6zm0-.4c.4 0 .6 0 .7-.1s.1-.2.1-.3c0-.2-.1-.3-.1-.4-.1-.1-.3-.1-.6-.1h-.1zm1.9-1.4h.5v2c0 .3.1.5.2.7.1.1.3.2.6.2s.5-.1.6-.2.2-.4.2-.7v-2h.5v2c0 .4-.1.8-.3 1s-.6.3-1 .3-.8-.1-1-.3-.3-.5-.3-1zm3.3 3.3v-3.4l2.1 2c.1.1.2.3.4.4v-2.3h.5v3.4l-2.1-2c-.1-.1-.2-.2-.3-.4v2.3c-.1 0-.6 0-.6 0z"/></g><path d="m141.4 52.5h-7.7c-1.8 0-3.3-1.5-3.3-3.3s1.5-3.3 3.3-3.3h7.7c1.8 0 3.3 1.5 3.3 3.3-.1 1.8-1.5 3.3-3.3 3.3z" fill="#0b0c0e"/><path d="m138.1 51.8h-3.6c-1.4 0-2.6-1.2-2.6-2.6s1.2-2.6 2.6-2.6h3.6c1.4 0 2.6 1.2 2.6 2.6s-1.2 2.6-2.6 2.6z" fill="#aaaaaf"/><circle cx="134.8" cy="49.2" fill="#d8d9dd" r="2.4"/><path d="m118.1 50.9-.4-.8h-1.3l-.4.8h-.6l1.6-3.4 1.6 3.4zm-1.5-1.3h.9l-.3-.7c0-.1-.1-.2-.1-.4 0 .1-.1.2-.1.4 0 0-.4.7-.4.7zm41.2 1.3v-3.3h.8.5c.2 0 .4.2.5.4.1.1.1.3.1.4 0 .2 0 .3-.1.4s-.2.2-.4.2c.2 0 .3.1.4.3s.2.3.2.5c0 .1 0 .3-.1.4 0 .1-.1.2-.2.3s-.2.2-.3.2-.4.1-.7.1zm.5-1.9h.2c.3 0 .4 0 .5-.1s.2-.2.2-.3c0-.2 0-.3-.1-.4s-.3-.1-.5-.1h-.2zm0 1.5h.2.4c.1 0 .2 0 .2-.1.1 0 .1-.1.2-.2 0-.1.1-.2.1-.2 0-.1 0-.2-.1-.3s-.1-.1-.2-.2c-.1 0-.1 0-.2-.1-.1 0-.1 0-.3 0h-.3z" fill="#aaaab4"/><path d="m124.7 44.9s8.3.3 12.8.3 13-.3 13-.3l-13 1zm0 8.6s8.3-.3 12.8-.3 13 .3 13 .3l-13-1z" fill="#a9a9b3"/><path d="m141.4 72.4h-7.7c-1.8 0-3.3-1.5-3.3-3.3s1.5-3.3 3.3-3.3h7.7c1.8 0 3.3 1.5 3.3 3.3-.1 1.9-1.5 3.3-3.3 3.3z" fill="#0b0c0e"/><path d="m138.1 71.8h-3.6c-1.4 0-2.6-1.2-2.6-2.6s1.2-2.6 2.6-2.6h3.6c1.4 0 2.6 1.2 2.6 2.6s-1.2 2.6-2.6 2.6z" fill="#aaaaaf"/><circle cx="134.8" cy="69.2" fill="#d8d9dd" r="2.4"/><path d="m118.1 70.9-.4-.8h-1.3l-.4.8h-.6l1.6-3.4 1.6 3.4zm-1.5-1.3h.9l-.3-.7c0-.1-.1-.2-.1-.4 0 .1-.1.2-.1.4 0-.1-.4.7-.4.7zm41.2 1.3v-3.3h.8.5c.2 0 .4.2.5.4.1.1.1.3.1.4 0 .2 0 .3-.1.4s-.2.2-.4.2c.2 0 .3.1.4.3s.2.3.2.5c0 .1 0 .3-.1.4 0 .1-.1.2-.2.3s-.2.2-.3.2-.4.1-.7.1zm.5-1.9h.2c.3 0 .4 0 .5-.1s.2-.2.2-.3c0-.2 0-.3-.1-.4s-.3-.1-.5-.1h-.2zm0 1.4h.2.4c.1 0 .2 0 .2-.1.1 0 .1-.1.2-.2 0-.1.1-.2.1-.2 0-.1 0-.2-.1-.3 0-.1-.1-.1-.2-.2-.1 0-.1 0-.2-.1-.1 0-.1 0-.3 0h-.3z" fill="#aaaab4"/><path d="m124.7 64.9s8.3.3 12.8.3 13-.3 13-.3l-13 1zm0 8.6s8.3-.3 12.8-.3 13 .3 13 .3l-13-1z" fill="#a9a9b3"/><path d="m254.7 62.1c-.1 0-.1 0 0 0v.1.4h-1-.1v.1 7.3l1.1.1v.6l-.7-.1c-.3 0-.6 0-.9 0s-1.6 0-1.6 0c.1-.1.1-.4.1-.6h.9.1l.1-.1v-7.3l-1.1-.1c.1-.1.1-.3.1-.5l1.6.1z" fill="#a2a3a5"/><path d="m251.6 62.5c0-.1 0-.2 0-.3h3v.3h-.9s-.2 0-.2.2v7.3.1h.1 1v.4h-.6c-.3 0-.6 0-.9 0s-.6 0-.8 0-.4 0-.6 0c0-.1 0-.2 0-.4h.8c.1 0 .2-.1.2-.2v-7.4h-.1zm-.2.1h1.1v7.4s0 .1-.1.1h-1v.6h1.6 1.6c0-.2 0-.4 0-.6h-1.1v-7.3-.1h1.1c0-.1 0-.3 0-.4s0-.1 0-.2h-1.6-1.7c.1.1.1.3.1.5z" fill="#7d7c80"/><path d="m231.6 69.1c0 .1 0 .1 0 0v.1.4h-1-.1v.1 7.3l1.1.1v.6l-.7-.1c-.3 0-.6 0-.9 0h-.8v.1l-.3-.1h-.5-.7-1.6c.1-.1.1-.4.1-.6h.9.1l.1-.1v-7.3l-1.1-.1c.1-.1.1-.3.1-.5l1.6.1zm-2.8 8.1h.6l.1-.1v-7.3l-.7-.1h-.7v.1 7.4z" fill="#a2a3a5"/><path d="m226.2 69.6c0-.1 0-.2 0-.3h5.3v.3h-.9s-.2 0-.2.2v7.3.1h.1 1v.4h-.6c-.3 0-.6 0-.9 0-.2 0-.5 0-.7 0h-.1-.3-.3-.1c-.5 0-1 0-1.6 0-.2 0-.4 0-.6 0 0-.1 0-.2 0-.4h.8c.1 0 .2-.1.2-.2v-7.4h-.1zm3.4 7.4v-7.4h-.1-.6-.6s-.2 0-.2.2v7.3.1h.1.7.6s.1 0 .1-.2m-3.5-7.3h1.1v7.3s0 .1-.1.1h-1v.6h1.6.7.4.4.7 1.6c0-.2 0-.4 0-.6h-1.1v-7.3-.1h1.1c0-.1 0-.3 0-.4s0-.1 0-.2h-1.6-.8-.9-.7-1.7c.3.2.3.4.3.6zm3.4 7.3c0 .1-.1.1 0 0l-.6.1h-.7v-7.3-.1h.6.6z" fill="#7d7c80"/><path d="m208.8 80.5v.1.4h-1-.1v.1 7.3l1.1.1v.6l-.7-.1c-.3 0-.6 0-.9 0h-.8v.1l-.4-.1h-.4-.1-.6-.8v.1l-.4-.1h-.4-.7-1.6c.1-.1.1-.4.1-.6h.9.1l.1-.1v-7.3l-1.1-.1c.1-.1.1-.3.1-.5l1.6.1zm-2.8 8h.6l.1-.1v-7.4h-.7-.7v.1 7.4zm-2.3 0h.6l.1-.1v-7.4l-.7-.1h-.7v.1 7.4c0 .1.7.1.7.1z" fill="#a2a3a5"/><path d="m201.1 80.9c0-.1 0-.2 0-.3h7.6v.3h-.9s-.2 0-.2.2v7.3.1h.1 1v.4h-.6c-.3 0-.6 0-.9 0-.2 0-.5 0-.7 0h-.1-.3-.3-.1c-.5 0-1 0-1.4 0h-.1-.3-.3-.1c-.5 0-1 0-1.6 0-.2 0-.4 0-.6 0 0-.1 0-.2 0-.4h.8c.1 0 .2-.1.2-.2v-7.4h-.1zm3.4 7.5v-7.4h-.1-.6-.6s-.2 0-.2.2v7.3.1h.1.7.6s.1-.1.1-.2zm2.3 0v-7.4h-.1-.6-.6s-.2 0-.2.2v7.3.1h.1.7.6s.1-.1.1-.2zm-5.9-7.4h1.1v7.3s0 .1-.1.1h-1v.6h1.6.7.4.4.7.7.4.4.7 1.6c0-.2 0-.4 0-.6h-1.1v-7.3-.1h1.1c0-.1 0-.3 0-.4s0-.1 0-.2h-1.6-.8-.9-.7-.8-.9-.7-1.1c-.1.2-.1.4-.1.6zm3.4 7.4-.6.1h-.7v-7.3-.1h.6.6zm2.3 0-.6.1h-.7v-7.3-.1h.6.6z" fill="#7d7c80"/><path d="m200.5 54.6v.5h-.7c-.5 1.2-1 2.5-1.5 3.7l-.3.9c-.5 1.2-1 2.5-1.5 3.6-.1 0-.4 0-.7 0-.5-1.4-1.1-3.2-1.6-4.6-.3-.7-.5-1.5-.8-2.3l-.4-1.2h-.1-.2-.3v.1 7.3l1.2.1c-.1.1-.1.4-.1.6l-.7-.1h-.9-1.6c.1-.1.1-.4.1-.6h.9.1l.1-.1v-7.3l-1.1-.1c.1-.1.1-.3.1-.5l1.6.1h3.5v.1.4h-1.2-.1v.1c.1.6.7 2.4.9 3l.2.6c.3 1 .7 2.1 1.1 3.1h.1c.5-1.2 1-2.4 1.3-3.5.3-.8.9-2.6 1.1-3.3v-.1l-.1-.1h-1.2c.1 0 .1-.1.1-.1v-.4l1.7.1z" fill="#a2a3a5"/><path d="m190.4 55.1c0-.1 0-.2 0-.3h4.9v.3h-1.2-.2v.2c.2.6.7 2.4.9 3l.2.6c.3 1 .7 2.1 1.1 3.2v.1h.3v-.1c.4-1 .8-2.1 1.3-3.4.3-.8.9-2.6 1.1-3.3 0-.1-.1-.2-.2-.2h-1v-.1c0-.1 0-.1 0-.2v-.1h2.7v.3h-.6-.1v.1c-.3.9-.8 2.1-1.4 3.7l-.3.9c-.4 1.1-.9 2.4-1.4 3.5-.2 0-.4 0-.6 0-.6-1.4-1.2-3.2-1.7-4.5-.3-.7-.5-1.5-.8-2.3l-.4-1.2c0-.1-.1-.1-.2-.1h-.2-.2s-.2 0-.2.2v7.3.1h.1 1v.4h-.6c-.3 0-.6 0-.9 0s-.6 0-.8 0-.4 0-.6 0c0-.1 0-.2 0-.4h.8c.1 0 .2-.1.2-.2v-7.4h-.1zm-.1.1h1.1v7.3s0 .1-.1.1h-1v.6h1.6 1.6c0-.2 0-.4 0-.6h-1.1v-7.3-.1h.2.2.1c.4 1.1.8 2.4 1.2 3.5.5 1.6 1.1 3.1 1.7 4.6h.8c.6-1.4 1.3-3.1 1.8-4.5.5-1.2 1-2.5 1.4-3.7h.7c0-.2 0-.4 0-.6h-1.2-1.7v.4.2h1.2v.1c-.2.7-.8 2.4-1.1 3.3-.4 1.2-.8 2.3-1.3 3.4h-.1c-.4-1.2-.9-2.5-1.2-3.7-.3-1-.6-2-.9-3h1.3c0-.1 0-.3 0-.5 0-.1 0-.1 0-.2h-1.9-.1-1.4-.1-1.7z" fill="#7d7c80"/><path d="m223 44.3v.5h-.7c-.5 1.2-1 2.5-1.5 3.7l-.4.9c-.5 1.2-1 2.5-1.4 3.6-.1 0-.4 0-.7 0-.5-1.4-1.1-3.2-1.6-4.6-.3-.7-.5-1.5-.8-2.3l-.4-1.2h-.1-.8c.1 0 .1 0 .1-.1 0-.1 0-.3 0-.4l1.3.1h2v.1.4h-1.2-.1v.1c.2.6.7 2.4.9 3l.2.5c.3 1.1.7 2.1 1.1 3.2h.1c.5-1.2 1-2.4 1.3-3.5.3-.8.9-2.6 1.1-3.3v-.1l-.1-.1h-1.2c.1 0 .1-.1.1-.1v-.4l1.7.1z" fill="#a2a3a5"/><path d="m214.8 44.7c0-.1 0-.2 0-.3h3.1v.3h-1.2-.2v.2c.2.6.7 2.4.9 3l.2.6c.3 1 .7 2.1 1.1 3.2v.1h.3v-.1c.4-1 .8-2.1 1.3-3.4.3-.8.9-2.6 1.1-3.3 0-.1-.1-.2-.2-.2h-1v-.1c0-.1 0-.1 0-.2v-.1h2.7v.3h-.6-.1v.1c-.3.9-.8 2.1-1.4 3.7l-.4.9c-.4 1.1-.9 2.4-1.4 3.5-.2 0-.4 0-.6 0-.6-1.5-1.1-3-1.7-4.5-.3-.7-.5-1.5-.8-2.3l-.4-1.2c0-.1-.1-.1-.2-.1zm-.2 0v.2h.8.1c.4 1.1.8 2.4 1.2 3.5.5 1.6 1.1 3.1 1.7 4.6h.8c.6-1.4 1.3-3.1 1.8-4.5.5-1.2 1-2.5 1.4-3.7h.7c0-.2 0-.4 0-.6h-1.2-1.7v.4.2h1.2v.1c-.2.7-.8 2.4-1.1 3.3-.4 1.2-.8 2.3-1.3 3.4h-.1c-.4-1.2-.9-2.5-1.2-3.7-.3-1-.6-2-.9-3h1.3c0-.1 0-.3 0-.5 0-.1 0-.1 0-.2h-2-1.4c-.1.2-.1.4-.1.5z" fill="#7d7c80"/><path d="m248.5 36.3c-.1 0-.1 0 0 0v.1.4h-1-.1v.1 7.3l1.1.1v.6l-.7-.1h-.9-1.6c.1-.1.1-.4.1-.6h.9.1l.1-.1v-7.3l-.2-.1h-.1c-.5 1.2-1 2.5-1.5 3.7l-.3.9c-.5 1.2-1 2.5-1.5 3.6-.1 0-.4 0-.7 0-.5-1.4-1.1-3.2-1.6-4.6-.3-.7-.5-1.5-.8-2.3l-.4-1.2h-.1-.8c.1 0 .1-.1.1-.1 0-.1 0-.3 0-.4l1.3.1h2v.1.4h-1.2-.1v.1c.2.6.7 2.4.9 3l.2.6c.3 1 .7 2.1 1.1 3.1h.1c.5-1.2 1-2.4 1.3-3.5.3-.8.9-2.6 1.1-3.3v-.1l-.1-.1h-1.2c.1 0 .1-.1.1-.1v-.4l1.4.1z" fill="#a2a3a5"/><path d="m238.4 36.7c0-.1 0-.2 0-.3h3.1v.3h-1.2-.2v.2c.2.6.7 2.4.9 3l.2.5c.3 1 .7 2.1 1.1 3.2v.1h.3v-.1c.4-1 .8-2.1 1.3-3.4.3-.8.9-2.6 1.1-3.3 0-.1-.1-.2-.2-.2h-1v-.1c0-.1 0-.1 0-.2v-.1h4.4v.3h-.9s-.2 0-.2.2v7.3.1h.1 1v.4h-.6c-.3 0-.6 0-.9 0s-.6 0-.8 0-.4 0-.6 0c0-.1 0-.2 0-.4h.8c.1 0 .2-.1.2-.2v-7.4h-.1-.2-.1-.1v.1c-.3.9-.8 2.1-1.4 3.7l-.3.9c-.4 1.1-.9 2.4-1.4 3.5-.2 0-.4 0-.6 0-.6-1.4-1.2-3.2-1.7-4.5-.3-.7-.5-1.5-.8-2.3l-.4-1.2c0-.1-.1-.1-.2-.1zm-.1 0v.2h.8.1c.4 1.1.8 2.4 1.2 3.5.5 1.6 1.1 3.1 1.7 4.6h.8c.6-1.4 1.3-3.1 1.8-4.5.5-1.2 1-2.5 1.4-3.7h.1.2v7.3s0 .1-.1.1h-1v.6h1.6 1.6c0-.2 0-.4 0-.6h-1.1v-7.3-.1h1.1c0-.1 0-.3 0-.4s0-.1 0-.2h-1.6-.2-1.2-.3-1.5v.4.2h1.2v.1c-.2.7-.8 2.4-1.1 3.3-.4 1.2-.8 2.3-1.3 3.4h-.1c-.4-1.2-.9-2.5-1.2-3.7-.3-1-.6-2-.9-3h1.3c0-.1 0-.3 0-.5 0-.1 0-.1 0-.2h-2-1.4c.1.2.1.3.1.5z" fill="#7d7c80"/><path d="m141 6.1c1.3.5 2.6 1.2 3.3 2.4.6 1.2 0 2.7-.9 3.6-.3-.6-.7-1.1-1.3-1.5-1.4-1.1-3.2-1.4-4.9-1.5-1.6 0-3.4.2-4.8 1.1-.7.5-1.5 1.2-1.3 2.2 0 1 .7 1.7 1.5 2.2-.1.9.4 1.6 1.1 2.1 0 .2 0 .4.2.8.9 1.4 2.8 1.5 4.3 1.3.9-.3-.2.3-.1.6.2.5.7.2.9.1.6-.4 1.3-.8 1.7-1.5.2-.7.1-.3.6-.9.5-.5.5-1.2 1.1-1.7s.9-1.3 1.2-2c1.1-1 2-2.3 2-3.8.1-1.1-.7-2.2-1.5-2.9-1.4-1.1-3.2-1.7-4.9-2-.4-.2-.8.3-.5.7.5.4 1.4.4 2.3.7zm-7 9.6c-.3-.2-.5-.5-.6-.7.4.1.8.2 1.2.2h.3c-.1 0-.3.1-.4.2s-.3.2-.5.3zm4.2-1.1s-.6 0-.8 0-2.4-.1-3.3-.4c-.4-.1-.1-.2 0-.2.9-.5 2-.6 3.1-.6 1 .1 1.9.2 2.8.7.1.1.2.1-.1.2-.2.1-1.1.2-1.7.3zm.8 1.7c-.9.2-1.9.2-2.9.1-.3-.1-.7-.1-1-.2.9-.4 2.1-.5 3-.3.3.1.7.1.9.4zm-1.9 1.5c-.9 0-1.8-.1-2.5-.8 1.7.4 3.5.4 5.2-.1-.7.7-1.7.9-2.7.9zm3.1-2c-.2-.3-.5-.4-.9-.5.5-.1 1-.3 1.5-.4.3.5-.2.8-.6.9zm1.4-2.3c-.2.1-.5.3-.7.1-1.1-.8-2.4-1.1-3.7-1.2-1.5 0-3 .3-4.2 1.2-.9-.3-1.5-1.7-.7-2.3 1.3-1.1 3.2-1.3 4.8-1.3s3.4.4 4.6 1.5c.4.3.6.8.7 1.3-.2.3-.5.5-.8.7z" fill="#dddee3" stroke="#b4b4b4" stroke-miterlimit="10" stroke-width=".135"/><circle cx="137.2" cy="5" fill="#dddee3" r=".7" stroke="#b4b4b4" stroke-miterlimit="10" stroke-width=".135"/><path d="m137.2 20.7-8-4.6v-5.6l7.7-4.1-.3-.4-8 4.3v9.9l8.6 4.9 8.5-4.8v-4.4zm8-.8-7.4 4.2v-3.1l7.4-4.2z" fill="#dddee3" stroke="#b4b4b4" stroke-miterlimit="10" stroke-width=".135"/><path d="m129.7 32.1h1.3c.3 0 .7.3.8.4l2.3 2.6v-3h.8v4.1h-1.4c-.2 0-.5-.1-.8-.3l-2.3-2.6v2.9h-.8zm16.4 4.1c-.9.1-1.9.1-2.9.1-.6-.1-1.1-.2-1.6-.4-.6-.3-.8-1.1-.8-1.7s.2-1.3.7-1.6c.4-.2.7-.3 1.2-.4 1.1-.2 2.2-.2 3.3 0v.6c-1.3-.3-2.6-.2-3.1.4-.3.4-.3.7-.3 1 0 .6.2 1.4 1.3 1.6.7.1 1.5 0 2.2-.1zm-8-.6h2.5v.6c-1.2.1-2.4.1-3.6 0-1.1 0-1.2-.6-1.3-1.1v-3h4.8v.6h-3.1v1h2.9v.6h-2.9v.7c0 .4.2.6.7.6" fill="#a8a8b0"/><circle cx="50.7" cy="66.8" fill="#5e5f64" r="28"/><circle cx="50.7" cy="67.9" fill="#818187" r="25.9"/><circle cx="50.7" cy="65.7" fill="#bdbec2" r="25.9"/><circle cx="50.7" cy="66.8" fill="#abaab2" r="25.9"/><path d="m61 44.1c.3-1.4-4.6-3.2-9.6-3.3-5.4-.1-10.9 1.6-10.5 3.1l1.5 11c.2 1.4-.7 2.8-2.1 3.1h-.1c-.3.1-.6.1-.9 0l-11.3-1.6c-1.4-.3-3.2 4.6-3.3 9.6-.1 5.4 1.6 10.9 3.1 10.5l11-1.5c1.4-.2 2.8.7 3.1 2.1v.1c.1.3.1.6 0 .9l-1.6 11.2c-.3 1.4 4.6 3.2 9.6 3.3 5.4.1 10.9-1.6 10.5-3.1l-1.5-11c-.2-1.4.7-2.8 2.1-3.1h.1c.3-.1.6-.1.9 0l11.2 1.6c1.4.3 3.2-4.6 3.3-9.6.1-5.4-1.6-10.9-3.1-10.5l-11 1.5c-1.4.2-2.8-.7-3.1-2.1v-.1c-.1-.3-.1-.6 0-.9z" fill="#9898a0"/><path d="m75.1 65.4c.2 1.4.2 2.8 0 4.2l-.2 1.2c-.4 2.3-3.8 3.9-6.1 3.5l-6-1c-.6-.1-1.2-.1-1.8.1l-1.1.3c-1.5.4-2.7 1.6-3.1 3.1-.2.7-.2 1.4 0 2.1l1.4 6.2c.6 2.4-1.1 5.9-3.5 6.4l-2.4.3c-1 .1-1.9.1-2.9 0l-2.4-.3c-2.5-.4-4-3.9-3.5-6.3l1.4-6.2c.1-.3.1-.6.1-1 0-2-1.3-3.7-3.3-4.2l-1.1-.3c-.6-.2-1.2-.2-1.8-.1l-6 1c-2.3.4-5.6-1.1-6.1-3.5l-.2-1.1c-.2-1.5-.2-2.9 0-4.4l.2-1.1c.4-2.3 3.8-3.9 6.1-3.5l6 1c.6.1 1.2.1 1.8-.1l1.1-.3c.8-.2 1.5-.6 2-1.1.6-.6.9-1.2 1.1-2 .2-.7.2-1.4 0-2.1l-1.4-6.2c-.6-2.4 1-5.9 3.5-6.3l1.4-.2c1.7-.2 3.3-.2 5 0l1.3.2c2.5.4 4.1 3.9 3.5 6.4l-1.4 6.2c-.2.7-.2 1.4 0 2.1.4 1.5 1.6 2.7 3.1 3.1l1.1.3c.6.2 1.2.2 1.8.1l6-1c2.3-.4 5.6 1.1 6.1 3.5z" fill="#7e7e80"/><path d="m75.1 64.3c.2 1.4.2 2.8 0 4.2l-.2 1.2c-.4 2.3-3.8 3.9-6.1 3.5l-6-1c-.6-.1-1.2-.1-1.8.1l-1.1.3c-1.5.4-2.7 1.6-3.1 3.1-.2.7-.2 1.4 0 2.1l1.4 6.2c.6 2.4-1.1 5.9-3.5 6.4l-2.4.3c-1 .1-1.9.1-2.9 0l-2.4-.3c-2.5-.4-4-3.9-3.5-6.3l1.4-6.2c.1-.3.1-.6.1-1 0-2-1.3-3.7-3.3-4.2l-1.1-.3c-.6-.2-1.2-.2-1.8-.1l-6 1c-2.3.4-5.6-1.1-6.1-3.5l-.2-1.1c-.2-1.5-.2-2.9 0-4.4l.2-1.1c.4-2.3 3.8-3.9 6.1-3.5l6 1c.6.1 1.2.1 1.8-.1l1.1-.3c.8-.2 1.5-.6 2-1.1.6-.6.9-1.2 1.1-2 .2-.7.2-1.4 0-2.1l-1.4-6.2c-.6-2.4 1-5.9 3.5-6.3l1.4-.2c1.7-.2 3.3-.2 5 0l1.3.2c2.5.4 4.1 3.9 3.5 6.4l-1.4 6.2c-.2.7-.2 1.4 0 2.1.4 1.5 1.6 2.7 3.1 3.1l1.1.3c.6.2 1.2.2 1.8.1l6-1c2.3-.4 5.6 1.1 6.1 3.5z" fill="#c2c2c5"/><path d="m75.1 64.8c.2 1.4.2 2.8 0 4.2l-.2 1.2c-.4 2.3-3.8 3.9-6.1 3.5l-6-1c-.6-.1-1.2-.1-1.8.1l-1.1.2c-1.5.4-2.7 1.6-3.1 3.1-.2.7-.2 1.4 0 2.1l1.4 6.2c.6 2.4-1.1 5.9-3.5 6.4l-2.4.3c-1 .1-1.9.1-2.9 0l-2.4-.3c-2.5-.4-4-3.9-3.5-6.3l1.4-6.2c.1-.3.1-.6.1-1 0-2-1.3-3.7-3.3-4.2l-1.1-.3c-.6-.2-1.2-.2-1.8-.1l-6 1c-2.3.4-5.6-1.1-6.1-3.5l-.2-1.1c-.2-1.5-.2-2.9 0-4.4l.2-1.1c.4-2.3 3.8-3.9 6.1-3.5l6 1c.6.1 1.2.1 1.8-.1l1.1-.3c.8-.2 1.5-.6 2-1.1.6-.6.9-1.2 1.1-2 .2-.7.2-1.4 0-2.1l-1.4-6.2c-.6-2.4 1-5.9 3.5-6.3l1.4-.2c1.7-.2 3.3-.2 5 0l1.3.2c2.5.4 4.1 3.9 3.5 6.4l-1.4 6.2c-.2.7-.2 1.4 0 2.1.4 1.5 1.6 2.7 3.1 3.1l1.1.3c.6.2 1.2.2 1.8.1l6-1c2.3-.4 5.6 1.1 6.1 3.5z" fill="#a6a6ae"/><circle cx="50.5" cy="47.5" fill="#9a9aa2" r="1.2"/><path d="m50.5 48.9c-.7 0-1.4-.6-1.4-1.4s.6-1.4 1.4-1.4 1.4.6 1.4 1.4-.6 1.4-1.4 1.4zm0-2.3c-.5 0-1 .5-.9 1 0 .5.4.9.9.9s1-.5.9-1c0-.5-.4-.9-.9-.9z" fill="#7d7d86"/><circle cx="31.3" cy="66.8" fill="#9a9aa2" r="1.2"/><path d="m31.3 68.1c-.7 0-1.3-.7-1.3-1.4s.6-1.3 1.3-1.3 1.3.6 1.3 1.4c0 .7-.5 1.3-1.3 1.3zm0-2.3c-.5 0-1 .5-.9 1 0 .5.4.9.9.9s1-.5.9-1c.1-.5-.3-.9-.9-.9z" fill="#7d7d86"/><circle cx="69.7" cy="66.8" fill="#9a9aa2" r="1.2"/><path d="m69.7 68.1c-.7 0-1.3-.7-1.3-1.4s.6-1.3 1.3-1.3 1.4.6 1.4 1.4c0 .7-.6 1.3-1.4 1.3zm0-2.3c-.5 0-1 .5-.9 1 0 .5.4.9.9.9s1-.5.9-1c.1-.5-.3-.9-.9-.9z" fill="#7d7d86"/><circle cx="50.5" cy="85.9" fill="#9a9aa2" r="1.2"/><path d="m50.5 87.3c-.7 0-1.4-.6-1.4-1.4 0-.7.7-1.3 1.4-1.3s1.3.6 1.3 1.3c.1.8-.5 1.4-1.3 1.4zm0-2.3c-.5 0-1 .5-.9 1 0 .5.4.9.9.9s1-.5.9-1c0-.5-.4-.9-.9-.9z" fill="#7d7d86"/></svg>