<svg enable-background="new 0 0 200 117.7" viewBox="0 0 200 117.7" xmlns="http://www.w3.org/2000/svg"><path d="m0 0h200v117.7h-200z" fill="none"/><g transform="matrix(0 .77557317 .77557317 0 0 -.000155)"><path d="m15 120.2c-.1 0-.1 0 0 0zm34.7 131.5c-8.6-4.4-14.9-11.2-20-19.1-9-13.7-15.2-28.6-20.1-44.1-4.1-12.8-7-25.8-8.4-39.2-.7-6.1-.8-12.3-1.2-18.4-.1-1.1 0-8.3 0-9.4 1.2-31.8 9.1-61.8 24.2-89.8 4.5-8.4 10-16.1 18-21.7 8.3-5.8 17.6-8.8 27.7-9.5 1.1-.1 1.2-.1 1.2-.1 1.1-.2 2-.4 2.2-.4.1 0 1.1.2 2.2.4h1c12.7.2 24.5 3.8 35.8 9.4 11.8 5.9 22.2 13.7 30.4 24.1 3.6 4.5 6.3 9.5 7.2 15.3 1.2 8.6-3.4 17.6-11.4 21.2-6.3 2.8-12.2 6.3-16.9 11.5-3 3.3-5.3 7.1-6.8 11.3-6.1 16.4-7.9 33.2-4.9 50.4 1.3 7.8 3.6 15.5 7 22.7 4.4 9.3 12.1 15.1 21.4 18.9 3.9 1.6 7.5 3.5 9.9 7.2 4.7 7.5 5 15.1 1.2 23-3.2 6.7-8.1 12.2-13.5 17.2-13.2 12.2-28.5 20.4-46.2 23.7-14 2.8-27.3 1.9-40-4.6" fill="#353132"/><path d="m31.2 57.7c0-22 17.7-39.8 39.7-39.9 21.9 0 40 17.9 39.9 39.7-.1 22.1-17.3 39.9-39.9 39.8-23.3 0-39.7-18.8-39.7-39.6m39.8 41c22.1 0 41.1-17.4 41.1-41 0-23.2-18.2-40.9-41-41.2-22.5-.2-41.2 18.5-41.3 41 0 22.7 18.3 41.1 41.2 41.2" fill="#424244"/><path d="m82.3 234c.3-.5.5-1 .7-1.6 2.5-6.4 4.8-12.9 7.6-19.2 4-9 8.5-17.8 12.9-26.7 2.3-4.5 4.7-8.9 4.7-14.2-.1-10.7-8-19.1-18.6-20.2-9.3-1-16.2 2.9-22 9.4-9.1 10.2-16.9 21.2-21.5 34.2-2.3 6.5-5.4 18.8-5.2 27.2-.3 5.9 1.6 11.1 5.7 16.3 3.4 4.3 9.9 6.1 14.8 6.6.4 0 .7.1 1.1.1 5.5.1 13.5-.6 19.8-11.9m-42-5.3c-.8-4.9-.3-9.6.3-14.4 3-21.6 13.3-39.5 28.2-55 6-6.2 13.2-9 22.1-7.7 11.7 1.8 20 12.8 17.7 24.4-.6 3.2-2.1 6.3-3.6 9.3-2.2 4.6-5 8.9-7.1 13.6-4.8 11-9.4 22.1-13.9 33.3-4 9.9-10.8 14.7-21.5 14.9-11.4.1-20.4-7.3-22.2-18.4" fill="#191716"/><path d="m62.5 246.1c5.5 0 13.5-.8 19.8-12.1.3-.5.5-1 .7-1.6 2.5-6.4 4.8-12.9 7.6-19.2 4-9 8.5-17.8 12.9-26.7 2.3-4.5 4.7-8.9 4.7-14.2-.1-10.7-8-19.1-18.6-20.2-9.3-1-16.2 2.9-22 9.4-9.1 10.2-16.9 21.2-21.5 34.2-2.3 6.5-5.4 18.8-5.2 27.2-.3 5.9 1.6 11.1 5.7 16.3 3.4 4.3 9.9 6.1 14.8 6.6.4.2.7.3 1.1.3m-24.1-51.6c2.7-5.7 5.2-11.5 7.7-17.3.3-.8.4-1.7.4-2 0-3.8-2.2-6.4-5.5-7.1-3.2-.7-5.8.5-7.2 3.6-2.4 5.4-4.9 10.8-7.2 16.2-2.1 4.9.1 9.3 4.8 10 3 .5 5.8-.8 7-3.4" fill="#1b1918"/><path d="m45.9 84.6c-.5-.8-1-1.3-.9-1.7s.8-1 1.2-1 1 .7 1 1.1-.7.8-1.3 1.6m1.1-53.7c.2.2.4.4.5.5-.2.6-.4 1.2-.8 1.6-.1.2-.9 0-1.2-.2s-.4-1.1-.2-1.2c.5-.4 1.1-.5 1.7-.7m51.4 51.1c.2.2.5.4.7.7-.3.6-.4 1.2-.8 1.6-.2.2-.9 0-1.2-.2s-.4-1-.3-1.2c.5-.4 1.1-.6 1.6-.9m.3-51.1c.2.2.3.4.5.6-.3.5-.5 1.2-.9 1.6-.2.2-1-.1-1.2-.3-.2-.3-.3-1.1-.1-1.2.4-.5 1.1-.6 1.7-.7m6.2 23.9c1.8.7 3.3 1.3 4.8 1.8 0 .2 0 .4-.1.6-1.5.6-3 1.1-4.8 1.8v-4.2zm-35.3 36.6h4.4c-.7 1.9-1.3 3.3-1.9 4.8-.2 0-.4 0-.7 0-.6-1.5-1.2-3-1.8-4.8m1.7-72.2.8.1c.5 1.5 1.1 3 1.8 5-1.7-.1-2.8-.2-4.3-.3.6-1.9 1.2-3.3 1.7-4.8m-34.4 35.8c.2.1.4.3.6.4-.1 1.1-.2 2.3-.3 3.8-1.9-.8-3.3-1.4-4.7-1.9 0-.2 0-.4 0-.6 1.5-.6 2.9-1.2 4.4-1.7m1.9 2.7c0-17.7 14.4-32.2 32.1-32.3 17.7 0 32.5 14.5 32.4 32.1-.1 17.1-13.1 32.4-32.5 32.4-18.8-.1-32.1-15.5-32-32.2m-7.6 0c-.1 20.8 16.4 39.6 39.7 39.6 22.6.1 39.8-17.7 39.9-39.8.1-21.8-18-39.7-39.9-39.7-21.9.1-39.7 18-39.7 39.9" fill="#302c2d"/><path d="m36.9 55c-1.4.6-2.9 1.1-4.3 1.7v.6c1.4.6 2.8 1.2 4.7 1.9.1-1.5.2-2.7.3-3.8-.3-.2-.5-.3-.7-.4m34.4-35.8c-.6 1.4-1.1 2.9-1.8 4.7 1.5.1 2.7.2 4.3.3-.7-2-1.2-3.5-1.8-5zm-1.7 72.2c.7 1.8 1.2 3.3 1.8 4.8h.7c.6-1.5 1.2-2.9 1.9-4.8-.1 0-4.4 0-4.4 0zm35.3-36.6v4.3c1.8-.7 3.3-1.2 4.8-1.8 0-.2 0-.4.1-.6-1.5-.6-3.1-1.2-4.9-1.9" fill="#96334d"/><path d="m78.2 231.5c3.2-8 6.1-16.1 9.6-23.9 3.7-8.3 8-16.4 12.2-24.5 3.2-6.3 3-8.4 2.2-13.2-.6-3.5-4-9-8.6-11.2-2.5-1.2-5.4-1.7-8.2-1.5-6.4.6-10.1 3.9-12.8 8.1-10 15.3-17.3 31.9-23.5 49-1.1 2.9-2.3 5.9-2.7 9-1.4 10.1 5.7 18.3 15.9 18.7 7.8.2 12.9-3.2 15.9-10.5" fill="#322e2f"/><path d="m31 193.7c1.5.8 3.4.5 4.4-1.9 2.4-5.1 4.8-10.2 7.2-15.3.2-.5.4-1 .5-1.5.2-1.5-.7-3.1-2-3.5-1.5-.5-2.6.1-3.5 1.3-.3.4-5.1 11.2-7.2 16.1-1.5 2.7-.5 4.3.6 4.8" fill="#c1c0c0"/><path d="m47.3 57.7c0-13.3 10.3-23.7 23.6-23.7 13.4-.1 23.9 10.4 23.9 23.6 0 13.3-10.5 23.8-23.8 23.8-13.2 0-23.7-10.5-23.7-23.7m23.6-25.1c-14 0-25 11.2-25 25.2 0 13.7 11.4 25 25.1 25 13.9 0 25.2-11.4 25.2-25.2-.1-13.8-11.3-25-25.3-25" fill="#2c2829"/><path d="m75.8 78.7v-16.1h16.2v-9.6c-5.3-.1-10.5-.2-16.1-.2v-16h-9.5c-.1 5.2-.2 10.4-.3 15.7-1.4.2-2.5.4-3.6.4-3.2.1-6.5 0-9.7 0-.8 0-1.7.2-2.8.3v9.2c5.3.1 10.4.1 16.1.2.1 5.5.2 10.7.2 16.1zm-8 1c-2 0-2.4-.5-2.5-2.6-.2-1.9-.3-3.8-.7-5.6-.9-4.3-3.7-6.7-7.9-7.5-1.6-.3-3.3-.3-5-.5-2.1-.2-2.8-.7-2.8-2.8-.1-2-.1-4 0-6 .1-2.1.7-2.6 2.9-2.8 2-.2 4-.4 6-.8 3.6-.8 5.9-3.1 6.8-6.7.5-2.1.7-4.2.8-6.4.1-1.6.9-2.5 2.5-2.5h3.8c5.1 0 5.1 0 5.4 5 .4 7 3.3 10.2 10.3 11.2 1.3.2 2.6.1 3.8.4.8.2 2 .9 2 1.5.2 3 .1 6.1.1 9.5-1.6.2-3 .5-4.3.5-7.4.3-10.8 3.3-11.7 10.6-.1.9 0 1.9-.1 2.8-.1.8-.4 1.6-.7 2.7-3.4 0-6.1 0-8.7 0" fill="#191716"/><path d="m57 47c1-1.1 1.6-1.7 2.5-2.6-1.3-.6-2.3-1-3.3-1.5-.2.1-.4.2-.6.4.5 1 .8 2 1.4 3.7m3 24.5c-.6-.6-1.1-1.2-1.7-1.8-.2.1-.5.1-.7.2-.5 1.1-.9 2.1-1.4 3.2l.4.4c1-.4 2.1-.8 3.1-1.3zm25.7-29c-1 .4-2.1.8-3.4 1.4.9.9 1.4 1.6 2.3 2.6.6-1.4 1.1-2.5 1.6-3.5-.2-.2-.3-.3-.5-.5m-3.1 28.8c1.5.6 2.5 1.1 3.5 1.5.2-.1.3-.3.5-.4-.4-1-.8-2.1-1.4-3.5-.9.9-1.6 1.5-2.6 2.4" fill="#191716"/><path d="m75 57.9c0 2.3-1.9 4.1-4.1 4.1-2.3 0-4.1-1.9-4.1-4.1s1.9-4.1 4.1-4.1 4.1 1.8 4.1 4.1" fill="#fff"/><path d="m96.7 173.9c0 5.6-4.6 10.2-10.2 10.2s-10.2-4.6-10.2-10.2 4.6-10.2 10.2-10.2 10.2 4.6 10.2 10.2m-10.3-11.5c-6.3 0-11.5 5.1-11.5 11.5s5.1 11.5 11.5 11.5c6.3 0 11.5-5.1 11.5-11.5s-5.1-11.5-11.5-11.5m-2.8 37.9c0 5.6-4.6 10.2-10.2 10.2s-10.2-4.6-10.2-10.2 4.6-10.2 10.2-10.2 10.2 4.5 10.2 10.2m-10.2-11.5c-6.3 0-11.5 5.1-11.5 11.5s5.1 11.5 11.5 11.5c6.3 0 11.5-5.1 11.5-11.5s-5.2-11.5-11.5-11.5m-.6 38.5c0 5.6-4.6 10.2-10.2 10.2s-10.2-4.6-10.2-10.2 4.6-10.2 10.2-10.2 10.2 4.6 10.2 10.2m-10.2-11.4c-6.3 0-11.5 5.1-11.5 11.5s5.1 11.5 11.5 11.5c6.3 0 11.5-5.1 11.5-11.5s-5.2-11.5-11.5-11.5" fill="#171514"/><path d="m84.9 175.3-1.3-1.9.3-.6 2.2-.1zm1.1 2.9.4-.9-.9-1.4 1.5-3.2 1.6-.1.4-.9-5.7.5-.6 1.3c.1 0 3.3 4.7 3.3 4.7zm-13.8 23.4 1.5-3.3-1.1-.5-1.5 3.3c-.2.3 0 .6.3.8.4.2.6.1.8-.3m1.9.9.2-.5 1.3-2.8-1.1-.5-1.3 2.8-.2.5c-.2.3 0 .6.3.8.3.1.6.1.8-.3m-1.9.1c-.2.2-.6.3-1 .1l-.4-.2c-.8-.4-.9-1-.5-1.8l1.9-4 .7.3 3 1.4.8.4-1.9 4c-.4.9-1 1.1-1.8.8l-.4-.2c-.2-.2-.4-.4-.4-.8m-11.4 25 .8-1.9c.5-1.3 1-1 2-.5 1 .4 1.6.5 1.1 1.8l-1.4 3.4.8.3 1.4-3.4c.7-1.8 0-2.2-1.5-2.9-1.5-.6-2.4-.8-3.1 1l-1.4 3.4.8.3c-.1 0 .5-1.5.5-1.5z" fill="#a82b2a"/><g fill="#d8d7d5"><path d="m69.4 148.4v-6.4h-1.5v4.4c-1-.3-1.8-.6-2.6-.8-2-.6-4-1.2-5.9-1.9-.5-.2-1.1-.6-1.2-1-.2-.7.6-.9 1.2-1.1 3-1 6-2 9.1-2.9.7-.2 1-.5.9-1.3-.1-2 0-4 0-5.9 0-2-1.3-3.3-3.4-3.4-1.9 0-3.7 0-5.6 0-2.1 0-3.4 1.3-3.4 3.3v5.4h1.6v-4.6c0-2.1.5-2.6 2.8-2.6h4.2c1.5 0 2.2.7 2.3 2.1v3.5h-4.9v-2.9h-1.5v4.6h6.5v.2c-3 1-6 1.9-8.9 2.9-1.7.6-2.4 1.6-2.1 3.2.1.9.7 1.6 1.6 1.9 3.6 1.2 7.2 2.3 10.7 3.5 0-.2 0-.2.1-.2m.1-40.4h-1.6v5.1c0 1.4-1 2.5-2.4 2.5-1.3.1-2.4-1-2.5-2.4 0-.6 0-1.1 0-1.7-.1-.9-.9-1.5-1.8-1.5-1 0-1.8.6-1.8 1.5-.1 1.8 0 3.7 0 5.6h1.6v-5.4h.5c0 .5.1 1 .1 1.5 0 1.9 1.2 3.4 3.1 3.8 2.4.6 4.9-1.1 5-3.4-.2-1.7-.2-3.6-.2-5.6"/><path d="m67.3 108h-1.6v5.4c-.2 0-.3 0-.5 0 0-.6-.1-1.1-.1-1.7 0-1.6-.8-2.7-2.2-3.4-1.5-.7-2.9-.6-4.3.3-.9.6-1.5 1.5-1.6 2.6-.1 1.9 0 3.8 0 5.8h1.6c0-1.7 0-3.4 0-5.1s1.6-2.8 3.2-2.3c1 .3 1.6 1.2 1.7 2.3v1.6c.1.9.9 1.5 1.8 1.5s1.8-.6 1.8-1.5c.2-1.7.2-3.5.2-5.5m-10.2 19.1h1.5c0-1.7 0-3.4 0-5.1 0-1.8.6-2.4 2.5-2.4h4.4c1.7 0 2.4.7 2.4 2.3v5.1h1.6c0-1.3 0-2.5 0-3.7 0-.8 0-1.6 0-2.3-.1-1.4-1.4-2.7-2.9-2.8-2.2-.1-4.3-.1-6.5 0-1.4 0-2.8 1.2-2.9 2.5-.2 2.1-.1 4.3-.1 6.4m8.4 14.8v1.3c-.6-.2-1.2-.4-1.7-.5v-.2c.6-.3 1.1-.4 1.7-.6m3.9-3.2c-3.4 1.1-6.7 2.2-10 3.2-.2.1-.5.3-.6.5 0 .1.2.5.4.5 2.6.9 5.3 1.7 8 2.6v-3.7c-.4 0-.7-.1-1.1-.1 0-.1 0-.1-.1-.2l1.8-.6c1.8-.4 1.8-.4 1.6-2.2m-4.1-5.5c-.1-.5-.2-.8-.3-1.1h-1.4v2.4h3.6c0-1.2.1-2.4 0-3.6 0-.3-.6-.8-1-.8-2-.1-3.9-.1-5.9 0-.7 0-1.1.4-1.1 1.1v5.5h1.6c0-1.4 0-2.7 0-4 0-.8.3-1.1 1.1-1.1.9.1 1.8 0 2.8 0 1.1-.1 1.3.4.6 1.6"/><path d="m65.6 121.9c.3 1.7 0 3.4.2 5.2h1.5c0-2 0-4 0-5.9 0-.3-.7-.8-1.1-.8-.8-.1-1.6 0-2.5 0v5.6h1.5v-3.9c.1-.2.2-.2.4-.2m-6.3 5.2h1.5c.2-1.7-.2-3.5.2-5.2h.4v3.9h1.5v-5.6c-.9 0-1.9-.1-2.8 0-.3 0-.8.6-.8.9-.1 2 0 4 0 6"/></g><path d="m46.1 33.2c.7 0 1.3-.6 1.3-1.3s-.6-1.3-1.3-1.3-1.3.6-1.3 1.3c.1.8.6 1.3 1.3 1.3m-.2 50.9c.7 0 1.3-.6 1.3-1.3s-.6-1.3-1.3-1.3-1.3.6-1.3 1.3c.1.7.6 1.3 1.3 1.3m52.1.4c.7 0 1.3-.6 1.3-1.3s-.6-1.3-1.3-1.3-1.3.6-1.3 1.3.6 1.3 1.3 1.3m0-51.3c.7 0 1.3-.6 1.3-1.3s-.6-1.3-1.3-1.3-1.3.6-1.3 1.3c0 .8.6 1.3 1.3 1.3" fill="#fff"/><path d="m66.3 78.7h9.5v-16.1h16.2v-9.6c-5.3-.1-10.5-.2-16.1-.2v-16h-9.5c-.1 5.2-.2 10.4-.3 15.7-1.4.2-2.5.4-3.6.4-3.2.1-6.5 0-9.7 0-.8 0-1.7.2-2.8.3v9.2c5.3.1 10.4.1 16.1.2.1 5.5.1 10.7.2 16.1" fill="#201e1d"/><path d="m70.9 62.6c2.6 0 4.6-2.1 4.6-4.6s-2.1-4.6-4.6-4.6c-2.6 0-4.6 2.1-4.6 4.6s2 4.6 4.6 4.6" fill="#191716"/><path d="m30.6 175.2c.1-.2.1-.3.1-.5s0-.3-.1-.4c0-.1-.1-.2-.2-.3s-.2-.2-.3-.2l-.2.4c.1 0 .1.1.2.2 0 .1.1.1.1.2v.2c0 .1 0 .2-.1.2 0 .1-.1.1-.1.2s-.1.1-.1.1-.1 0-.1.1h-.1c-.1 0-.1-.1-.1-.1s0-.1 0-.1c0-.1 0-.1 0-.2s0-.2.1-.3c0-.1 0-.3 0-.4s0-.2 0-.3-.1-.2-.1-.2c-.1-.1-.1-.1-.2-.2-.1 0-.2-.1-.3-.1s-.2 0-.3.1-.2.1-.3.2-.1.2-.2.3-.1.3-.1.4v.4c0 .1.1.2.2.3s.2.2.3.2l.2-.4c-.3-.1-.3-.4-.2-.7.1-.1.1-.2.2-.3s.2-.1.3 0c0 0 .1 0 .1.1v.1.2.2.2.2.2c0 .1 0 .2.1.2 0 .1.1.1.1.2.1.1.1.1.2.1s.2.1.3.1.2 0 .3-.1.2-.1.3-.2c-.2-.1-.1-.2 0-.3m-3.4 2.3.3-.7 2 .8.2-.5-2-.8.3-.7-.4-.2-.8 1.9zm.3 1.9-.6-.6h.9zm.7 1.3.2-.5-.6-.6.4-.8h.8l.2-.5-2.8-.1-.2.4zm-1.7.2-.3.6c0 .1-.1.1-.1.2s-.1.1-.1.1-.1 0-.1 0c-.1 0-.1 0-.2 0s-.2-.1-.2-.2 0-.2.1-.3l.3-.6zm.7 2.2.2-.5-.6-.5s-.1-.1-.1-.1 0-.1-.1-.1v-.1c0-.1 0-.1 0-.2l.2-.5 1 .4.2-.5-2.4-1-.5 1.1c0 .1-.1.1-.1.2s0 .1-.1.2v.2.2c0 .1 0 .1.1.2 0 0 .1.1.1.1s.1.1.1.1.1.1.1.1c.1.1.3.1.4.1s.3-.1.4-.2c0 .1.1.3.3.4zm-3 1.3.3-.7 2 .8.2-.5-2-.8.3-.7-.4-.2-.8 1.9zm30.5 1.5.3-.7 2 .8.2-.5-2-.8.3-.7-.4-.2-.8 1.9zm.2 1.1-.3.6c0 .1-.1.1-.1.2s-.1.1-.1.1h-.1c-.1 0-.1 0-.2 0s-.2-.1-.2-.2 0-.2.1-.3l.3-.6zm.7 2.2.2-.5-.6-.5s-.1-.1-.1-.1 0-.1-.1-.1v-.1c0-.1 0-.1 0-.2l.2-.5 1 .4.2-.4-2.4-1-.5 1.1c0 .1-.1.1-.1.2s0 .1-.1.2v.2.2c0 .1 0 .1.1.2 0 0 .1.1.1.1s.1.1.1.1.1.1.1.1c.1.1.3.1.4.1s.3-.1.4-.2c0 .1.1.3.3.4zm-.4.9.2-.4-2.4-1-.2.4zm-.6 1.6c.1-.2.1-.3.1-.5s0-.3-.1-.5c-.1-.1-.2-.3-.3-.4s-.3-.2-.5-.3-.4-.1-.6-.1-.3 0-.5.1-.3.1-.4.3c-.1.1-.2.3-.3.4s-.1.3-.1.4v.4c0 .1.1.2.2.3s.2.2.3.3l.2-.5c-.1 0-.1-.1-.2-.1 0-.1-.1-.1-.1-.2s0-.1 0-.2 0-.2.1-.3c0-.1.1-.2.2-.3s.2-.1.3-.2h.3c.1 0 .2 0 .4.1.1.1.2.1.3.2s.2.2.2.3.1.2.1.3 0 .2-.1.3c-.1.2-.1.3-.2.4s-.2.1-.3.2l-.3-.1.3-.6-.4-.2-.4 1 1.3.6.1-.3-.1-.1c.1-.1.2-.1.3-.2.1-.2.1-.4.2-.5m-1.1 2.7c.1-.2.1-.3.1-.5s0-.3-.1-.5-.2-.3-.3-.4-.3-.2-.5-.3-.4-.1-.6-.1-.3 0-.5.1-.3.1-.4.3c-.1.1-.2.3-.3.4s-.1.3-.1.4v.4s.1.2.2.3.2.2.3.3l.2-.5c-.1 0-.1-.1-.2-.1 0-.1-.1-.1-.1-.2s0-.1 0-.2 0-.2.1-.3c0-.1.1-.2.2-.3s.2-.1.3-.2h.3c.1 0 .2 0 .4.1.1.1.2.1.3.2s.2.2.2.3.1.2.1.3 0 .2-.1.3-.1.3-.2.4-.2.1-.3.2l-.3-.1.3-.6-.4-.2-.4 1 1.3.6.1-.3-.1-.2c.1-.1.2-.1.3-.2 0-.1.1-.3.2-.4m-1.5 3.4.8-1.8-2.4-1-.8 1.8.4.2.6-1.3.5.2-.5 1.3.4.2.5-1.3.6.3-.6 1.4zm-1.8.4-.3.6c0 .1-.1.1-.1.2s-.1.1-.1.1h-.1c-.1 0-.1 0-.2 0s-.2-.1-.2-.2 0-.2.1-.3l.3-.6c-.1-.1.6.2.6.2zm.7 2.2.2-.5-.6-.5s-.1-.1-.1-.1 0-.1-.1-.1v-.1c0-.1 0-.1 0-.2l.2-.5 1 .4.2-.4-2.4-1-.5 1.1c0 .1-.1.1-.1.2s0 .1-.1.2 0 .1 0 .2v.2c0 .1 0 .1.1.2 0 0 .1.1.1.1s.1.1.1.1.1.1.1.1c.1.1.3.1.4.1s.3-.1.4-.2c0 .1.1.3.3.4zm-38.1-103.1c0-.2.1-.4.1-.6-.9-.1-1.3-.2-2.1-.3.9-.2 1.3-.2 2.2-.4 0-.2.1-.3.1-.5-.8-.4-1.2-.6-2-1.1.8.1 1.3.2 2.1.4 0-.2.1-.4.1-.6-1.3-.2-2-.3-3.3-.6-.1.3-.1.5-.1.8.9.5 1.3.7 2.2 1.2-1 .2-1.5.2-2.5.4-.1.3-.1.5-.1.8 1.3.2 2 .3 3.3.5m-.5 3.4c.1-1 .2-1.5.4-2.6-1.3-.2-2-.3-3.3-.5-.2 1-.2 1.5-.4 2.5.2 0 .3 0 .6.1.1-.8.2-1.1.3-1.9.3 0 .5.1.8.1-.1.7-.2 1.1-.3 1.8.2 0 .3 0 .6.1.1-.7.1-1.1.3-1.8.3.1.5.1.9.1-.1.8-.2 1.2-.3 1.9.1.1.2.2.4.2m-.2 2.2c0-.2 0-.5 0-.7s-.1-.4-.3-.6c-.1-.2-.3-.3-.5-.4s-.4-.2-.7-.2-.5 0-.7 0c-.2.1-.4.1-.6.3-.2.1-.3.3-.4.5s-.2.4-.2.7v.6s.1.3.2.5c.1.1.2.3.3.4s.3.2.5.2c0-.3 0-.4.1-.7-.1 0-.2-.1-.3-.1-.1-.1-.1-.1-.2-.2 0-.1-.1-.2-.1-.3s0-.2 0-.3.1-.3.1-.4c.1-.1.2-.2.3-.3s.2-.1.4-.2h.5c.2 0 .3.1.5.1s.3.2.3.2c.1.1.2.2.2.3v.4c0 .2-.1.4-.2.5s-.2.3-.3.3-.2 0-.3 0c0-.3.1-.5.1-.8-.2 0-.3 0-.6-.1-.1.6-.1.9-.2 1.5.7.1 1.1.1 1.8.2 0-.2 0-.3.1-.5-.1 0-.1-.1-.2-.1.1-.1.2-.2.3-.4 0-.1.1-.2.1-.4m-2 3.6c-.4-.2-.6-.3-1-.5.4-.1.7-.2 1.1-.3-.1.4-.1.5-.1.8m1.3 1.5c0-.3 0-.4.1-.7-.4-.2-.6-.3-.9-.5.1-.5.1-.7.1-1.2.4-.1.6-.1 1-.2 0-.3 0-.4.1-.7-1.4.4-2.1.5-3.5.9 0 .2 0 .4-.1.6 1.3.7 2 1.1 3.2 1.8m-2 3.7c-.2 0-.3 0-.5-.1-.1 0-.2-.1-.3-.2s-.1-.2-.2-.4c0-.1 0-.3 0-.5s0-.3 0-.5c.9.1 1.3.1 2.2.2v.5c0 .2-.1.4-.1.5s-.1.2-.2.3-.2.1-.4.1c-.2.1-.3.1-.5.1m-.1.7c1.1.1 1.7-.4 1.8-1.6 0-.4.1-.7.1-1.1-1.3-.1-2-.2-3.4-.3 0 .5-.1.7-.1 1.1 0 1.2.5 1.8 1.6 1.9m-.3 1.3c0 .3 0 .5-.1.8v.3c0 .1-.1.1-.1.2s-.1.1-.1.1c-.1 0-.1 0-.2 0s-.3-.1-.3-.2c-.1-.1-.1-.2-.1-.4 0-.4 0-.5.1-.9.3 0 .5 0 .8.1m1.8 2.4c0-.3 0-.4 0-.7-.4-.2-.5-.2-.9-.4-.1 0-.1-.1-.2-.1s-.1-.1-.1-.1c0-.1-.1-.1-.1-.2s0-.1 0-.2c0-.3 0-.4 0-.7.5 0 .8.1 1.3.1 0-.3 0-.4 0-.6-1.3-.1-2-.1-3.4-.2 0 .6-.1.9-.1 1.5v.3s0 .2 0 .2c0 .1 0 .2.1.2 0 .1.1.1.1.2s.1.1.1.2c.1 0 .1.1.2.1s.1.1.2.1h.2c.2 0 .4 0 .5-.1.2-.1.3-.2.4-.4.1.2.3.3.5.4.6.1.8.2 1.2.4m-.1 1.2c0-.3 0-.4 0-.6-1.3-.1-2-.1-3.4-.2v.6c1.4.1 2.1.2 3.4.2m-3.5 3.5c1.4-.5 2-.7 3.4-1.2 0-.2 0-.3 0-.6-1.3-.6-2-.9-3.3-1.5v.7c1 .4 1.5.6 2.5 1-1 .3-1.5.5-2.5.8-.1.4-.1.5-.1.8m3.3 3.1c0-1 0-1.5.1-2.6-1.3 0-2-.1-3.4-.1 0 1 0 1.5-.1 2.6h.6c0-.8 0-1.1 0-1.9h.8v1.8h.6c0-.7 0-1.1 0-1.8h.9v2zm-2.2 4.2c-.1 0-.2 0-.3-.1-.1 0-.1-.1-.2-.2s-.1-.1-.1-.2 0-.2 0-.3 0-.3.1-.4.1-.2.2-.3.2-.1.4-.2c.1 0 .3-.1.5-.1s.4 0 .5.1c.1 0 .3.1.4.2s.2.2.2.3c.1.1.1.2.1.4v.3c0 .1-.1.2-.1.2-.1.1-.1.1-.2.2-.1 0-.2.1-.3.1v.6c.2 0 .4-.1.5-.1.2-.1.3-.2.4-.3s.2-.3.2-.4c.1-.2.1-.3.1-.5s0-.5-.1-.7-.2-.4-.3-.5-.3-.2-.5-.3-.5-.1-.7-.1-.5 0-.7.1-.4.2-.6.3-.3.3-.4.5-.1.4-.1.7c0 .2 0 .4.1.5.1.2.1.3.2.4s.2.2.4.3c.1.1.3.1.5.1-.2-.2-.2-.3-.2-.6m1.7 2.8c0 .1 0 .3-.1.4s-.1.2-.2.3-.2.2-.4.2c-.1.1-.3.1-.5.1s-.4 0-.5-.1c-.1 0-.3-.1-.4-.2s-.2-.2-.2-.3c-.1-.1-.1-.3-.1-.4s0-.3.1-.4.1-.2.2-.3.2-.2.4-.2.3-.1.5-.1.4 0 .5.1.3.1.4.2.2.2.2.3.1.3.1.4m-2.9.1c0 .2.1.5.1.7.1.2.2.4.4.5s.3.3.6.3c.2.1.5.1.7.1.3 0 .5-.1.7-.1.2-.1.4-.2.5-.4.1-.1.3-.3.3-.5.1-.2.1-.4.1-.7 0-.2-.1-.5-.1-.7-.1-.2-.2-.4-.4-.5s-.3-.3-.6-.3c-.2-.1-.5-.1-.7-.1-.3 0-.5 0-.7.1s-.4.2-.5.3-.3.3-.3.5c-.1.3-.1.5-.1.8m3.6 4.9c0-.2 0-.4 0-.6-.9-.6-1.4-.8-2.3-1.4.9 0 1.3 0 2.2-.1 0-.2 0-.4 0-.6-1.3 0-2 .1-3.4.1v.6c.9.6 1.4.9 2.3 1.4-.9 0-1.4.1-2.3.1v.6c1.5 0 2.1 0 3.5-.1m-2.6 3.4c0-.4 0-.6-.1-1.1 1.1-.1 1.7-.1 2.8-.2 0-.3 0-.4 0-.6-1.1.1-1.7.1-2.8.1 0-.4 0-.6-.1-1.1-.2 0-.3 0-.6 0 .1 1.1.1 1.7.2 2.8.2.2.3.1.6.1m.9 1.1c0 .3 0 .5.1.8v.3c0 .1 0 .2-.1.2 0 .1-.1.1-.1.1-.1 0-.1 0-.2.1-.1 0-.3 0-.3-.1-.1-.1-.1-.2-.1-.4 0-.4 0-.5-.1-.9.3 0 .4 0 .8-.1m2.1 2.2c0-.3 0-.4-.1-.7-.4-.1-.6-.2-.9-.3-.1 0-.1 0-.2-.1-.1 0-.1-.1-.1-.1s-.1-.1-.1-.2 0-.1 0-.2c0-.3 0-.4 0-.7.5 0 .8-.1 1.3-.1 0-.3 0-.4 0-.6-1.3.1-2 .1-3.4.2 0 .6.1.9.1 1.5v.3.2c0 .1 0 .1.1.2 0 .1.1.1.1.2.1.1.1.1.2.1s.1.1.2.1h.2.2c.2 0 .4-.1.5-.2s.2-.3.3-.4c.1.1.3.2.5.3.5.3.7.4 1.1.5m-.3 2.1v.4c0 .1-.1.2-.2.3s-.2.2-.3.2-.3.1-.5.1-.4 0-.5 0-.3-.1-.4-.2-.2-.2-.3-.3-.1-.2-.1-.4c0-.1 0-.3 0-.4s.1-.2.2-.3.2-.2.3-.2.3-.1.5-.1h.5c.1 0 .3.1.4.2l.3.3c0 .1.1.3.1.4m-2.9.3c0 .2.1.5.2.6.1.2.2.4.4.5l.6.3c.2.1.5.1.7.1.3 0 .5-.1.7-.2s.4-.2.5-.4.2-.3.3-.5.1-.4.1-.7c0-.2-.1-.5-.2-.6-.1-.2-.2-.4-.4-.5s-.4-.2-.6-.3-.5-.1-.7-.1c-.3 0-.5.1-.7.2s-.4.2-.5.4-.2.3-.3.6c-.1.1-.2.3-.1.6m3.8 4.1c-.1-.9-.1-1.3-.2-2.2-1.3.1-2 .2-3.3.3 0 .3 0 .4.1.6l2.8-.3c.1.6.1.9.2 1.5.1.1.2.1.4.1m-1.5 2.7c0 .3.1.4.1.7v.3c0 .1 0 .2-.1.2 0 .1-.1.1-.1.1-.1 0-.1.1-.2.1s-.2 0-.2 0c-.1 0-.1-.1-.2-.1 0-.1-.1-.1-.1-.2s0-.2-.1-.2c0-.3-.1-.4-.1-.7.4-.1.6-.1 1-.2m-1.6-.4c.1.5.1.8.2 1.3 0 .1 0 .2.1.3 0 .1.1.2.1.3s.1.2.2.3l.2.2c.1.1.2.1.3.1h.4c.4 0 .6-.2.8-.4.1-.2.2-.6.1-1 0-.3-.1-.4-.1-.7.5-.1.8-.1 1.3-.2 0-.2 0-.4-.1-.6-1.5.1-2.1.2-3.5.4m2.5 4.6c-.4-.1-.7-.2-1.1-.3l1-.5c.1.3.1.5.1.8m1.7 1c0-.3-.1-.4-.1-.7-.4-.1-.6-.1-1-.2-.1-.5-.1-.7-.2-1.2.4-.2.5-.3.9-.5 0-.3-.1-.4-.1-.7-1.3.7-1.9 1.1-3.1 1.8 0 .2.1.4.1.6 1.4.4 2.1.6 3.5.9m-1.2 2.9c-.2 0-.3 0-.5 0-.1 0-.3-.1-.4-.1-.1-.1-.2-.2-.3-.3s-.1-.3-.2-.5c0-.2 0-.3-.1-.5.9-.1 1.3-.2 2.2-.4 0 .2 0 .3.1.5v.5c0 .1-.1.3-.2.4s-.2.2-.3.2c0 .1-.2.2-.3.2m.1.6c1.1-.2 1.6-.9 1.4-2-.1-.4-.1-.7-.2-1.1-1.3.2-2 .3-3.3.5.1.4.1.7.2 1.1.1 1.2.8 1.7 1.9 1.5" fill="#d8d7d5"/></g></svg>