<?xml version="1.0" encoding="utf-8"?>
<!-- Generator: Adobe Illustrator 21.1.0, SVG Export Plug-In . SVG Version: 6.00 Build 0)  -->
<svg version="1.1" id="Layer_1" xmlns="http://www.w3.org/2000/svg" xmlns:xlink="http://www.w3.org/1999/xlink" x="0px" y="0px"
	 viewBox="0 0 339.8 166.2" style="enable-background:new 0 0 339.8 166.2;" xml:space="preserve">
<style type="text/css">
	.st0{fill:#24241E;}
	.st1{fill:url(#SVGID_1_);}
	.st2{fill:#545448;}
	.st3{fill:#1E1E1E;}
	.st4{fill:#4C4C4A;}
	.st5{fill:#252625;}
	.st6{fill:#2B2B2B;}
	.st7{fill:#0E0D0B;}
	.st8{fill:url(#SVGID_2_);}
	.st9{fill:url(#SVGID_3_);}
	.st10{fill:#141612;}
	.st11{fill:#3B3838;}
	.st12{fill:#4A4747;}
	.st13{fill:url(#SVGID_4_);}
	.st14{fill:#262422;}
	.st15{fill:#403E3E;}
	.st16{fill:#DCE3DC;}
	.st17{fill:#B2B7AD;}
	.st18{fill:#D9DEDC;}
	.st19{fill:#BEC2BA;}
	.st20{fill:#BCC6C5;}
	.st21{fill:url(#SVGID_5_);}
	.st22{fill:#181A14;}
	.st23{fill:url(#SVGID_6_);}
	.st24{fill:#656660;}
	.st25{fill:#74756E;}
	.st26{fill:#2B2B26;}
	.st27{fill:#019B46;}
	.st28{fill:#0270A1;}
	.st29{fill:#F0C20C;}
	.st30{fill:#FB5341;}
	.st31{fill:#02AD53;}
	.st32{fill:#2BE088;}
	.st33{fill:#006796;}
	.st34{fill:#0174A8;}
	.st35{fill:#2D95C6;}
	.st36{fill:#DFAF05;}
	.st37{fill:#F1C10D;}
	.st38{fill:#F9D022;}
	.st39{fill:#E64735;}
	.st40{fill:#FE5743;}
	.st41{fill:#F19581;}
	.st42{fill:#DEE0D6;}
	.st43{fill:#2B2B24;}
	.st44{fill:#292922;}
	.st45{fill:#373835;}
	.st46{fill:#44423F;}
</style>
<path class="st0" d="M339.1,92.5c-1.2-6.1-2.3-13.5-4.4-21.1c-4.9-17.5-12.6-36.5-20.4-46.4C303,10.7,287,3,277.8,0.7
	s-21.6-3.9-44.4,3S169.9,11,169.9,11s-40.7-0.6-63.5-7.4S71.2-1.7,62,0.7S36.9,10.7,25.6,25c-7.8,9.9-15.5,29-20.4,46.4
	C3,79,1.9,86.3,0.7,92.5c-3.8,20.1,7.7,48,23.7,59.2c16,11.3,24.9,14.2,39.7,14.5c14.8,0.3,40.3-7,73.1-8.9
	c10.1-0.6,25.9-1.5,32.7-1.5s22.6,0.9,32.7,1.5c32.8,1.9,58.3,9.2,73.1,8.9c14.8-0.3,23.7-3.3,39.7-14.5
	C331.4,140.4,342.9,112.6,339.1,92.5z"/>
<linearGradient id="SVGID_1_" gradientUnits="userSpaceOnUse" x1="168.2399" y1="592.394" x2="183.6949" y2="500.898" gradientTransform="matrix(1 0 0 -1 -19.0328 598.0206)">
	<stop  offset="0" style="stop-color:#33332B"/>
	<stop  offset="1" style="stop-color:#24241E"/>
</linearGradient>
<path class="st1" d="M128,10.2c0,0-7.9-1.8-20.4-4.7C96.6,2.9,81.9-1.1,69.2,0.7C46,4,26.9,23.9,23,31.6C14.5,48.1,0.1,75.7,2,95.3
	c0,0.3-7,47.5,44.2,57.9c51.2,10.4,85.7-24.2,127.8-36.9c27.9-8.4,78.9,3.5,110.8-3.8c13.5-3.1,38-24.3,38.3-47.3
	c0.3-26.3-25.7-54.7-41.7-61.3C266-2.4,255,0.1,240.7,3.1c-14,2.9-28.6,7.6-34.9,8.2C172.3,14.4,138.4,12.4,128,10.2L128,10.2z"/>
<circle class="st2" cx="83.1" cy="76.2" r="58.9"/>
<circle class="st3" cx="82.5" cy="76.2" r="58.9"/>
<circle class="st4" cx="82.2" cy="76.1" r="57.4"/>
<circle class="st5" cx="82.5" cy="76.2" r="57.4"/>
<circle class="st6" cx="82.5" cy="76.2" r="40"/>
<circle class="st7" cx="82.5" cy="76.2" r="39.2"/>
<radialGradient id="SVGID_2_" cx="101.5067" cy="521.8378" r="38.717" gradientTransform="matrix(1 0 0 -1 -19.0328 598.0206)" gradientUnits="userSpaceOnUse">
	<stop  offset="0.709" style="stop-color:#424242"/>
	<stop  offset="0.966" style="stop-color:#141414"/>
</radialGradient>
<path class="st8" d="M82.5,37.5c-21.4,0-38.7,17.3-38.7,38.7s17.3,38.7,38.7,38.7s38.7-17.3,38.7-38.7S103.9,37.5,82.5,37.5z
	 M82.5,110.2c-18.8,0-34-15.2-34-34s15.2-34,34-34s34,15.2,34,34S101.2,110.2,82.5,110.2z"/>
<linearGradient id="SVGID_3_" gradientUnits="userSpaceOnUse" x1="86.5081" y1="544.4111" x2="116.4161" y2="499.4011" gradientTransform="matrix(1 0 0 -1 -19.0328 598.0206)">
	<stop  offset="5.400000e-02" style="stop-color:#424242"/>
	<stop  offset="0.966" style="stop-color:#141414"/>
</linearGradient>
<circle class="st9" cx="82.5" cy="76.2" r="28.7"/>
<circle class="st10" cx="82.5" cy="76.2" r="25.1"/>
<circle class="st11" cx="82.5" cy="76.2" r="23.3"/>
<ellipse transform="matrix(0.7797 -0.6261 0.6261 0.7797 -29.6862 68.8441)" class="st12" cx="83" cy="76.6" rx="19" ry="18.9"/>
<linearGradient id="SVGID_4_" gradientUnits="userSpaceOnUse" x1="111.0799" y1="510.42" x2="94.6949" y2="529.964" gradientTransform="matrix(1 0 0 -1 -19.0328 598.0206)">
	<stop  offset="0" style="stop-color:#424242"/>
	<stop  offset="1" style="stop-color:#2E2E2E"/>
</linearGradient>
<circle class="st13" cx="82.5" cy="76.2" r="18.8"/>
<circle class="st14" cx="68.3" cy="76.2" r="2.5"/>
<path class="st15" d="M67.2,76.1c-0.1-0.6,0.3-1.1,0.9-1.2s1.1,0.3,1.2,0.9c0,0,0,0.1,0,0.1c0-0.1,0-0.1,0-0.2
	c0-0.8-0.6-1.4-1.4-1.4c-0.8,0-1.4,0.6-1.4,1.4c0,0.8,0.6,1.4,1.4,1.4c0,0,0,0,0,0c0.1,0,0.1,0,0.2,0C67.5,77.1,67.2,76.6,67.2,76.1
	z"/>
<path class="st16" d="M82.6,21.1l3.9,11c0.3,0.6-0.1,1.4-0.7,1.4H78c-0.7,0-1.1-0.8-0.7-1.4l3.9-11C81.5,20.5,82.3,20.5,82.6,21.1z"
	/>
<path class="st17" d="M137.5,76.3l-11,3.9c-0.6,0.3-1.4-0.1-1.4-0.7v-7.8c0-0.7,0.8-1.1,1.4-0.7l11,3.9
	C138.2,75.2,138.2,76,137.5,76.3z M82.3,131.3l-3.9-11c-0.3-0.6,0.1-1.4,0.7-1.4H87c0.7,0,1.1,0.8,0.7,1.4l-3.9,11
	C83.5,131.9,82.7,131.9,82.3,131.3z"/>
<path class="st18" d="M27.4,76l11-3.9c0.6-0.3,1.4,0.1,1.4,0.7v7.8c0,0.7-0.8,1.1-1.4,0.7l-11-3.9C26.8,77.2,26.8,76.4,27.4,76z"/>
<path class="st16" d="M45.6,38.8l8.2,3.9c0.5,0.2,0.7,0.8,0.4,1.2l-4.3,4.3c-0.4,0.4-1,0.2-1.2-0.4l-3.9-8.2
	C44.7,39.1,45.1,38.6,45.6,38.8z"/>
<path class="st19" d="M119.9,39.4l-3.9,8.2c-0.2,0.5-0.8,0.7-1.2,0.4l-4.3-4.3c-0.4-0.4-0.2-1,0.4-1.2l8.2-3.9
	C119.6,38.4,120,38.8,119.9,39.4z"/>
<path class="st17" d="M119.3,113.6l-8.2-3.9c-0.5-0.2-0.7-0.8-0.4-1.2l4.3-4.3c0.4-0.4,1-0.2,1.2,0.4l3.9,8.2
	C120.3,113.3,119.8,113.7,119.3,113.6z"/>
<path class="st20" d="M45.1,113l3.9-8.2c0.2-0.5,0.8-0.7,1.2-0.4l4.3,4.3c0.4,0.4,0.2,1-0.4,1.2l-8.2,3.9
	C45.4,114,44.9,113.5,45.1,113z"/>
<linearGradient id="SVGID_5_" gradientUnits="userSpaceOnUse" x1="185.0912" y1="521.9003" x2="214.9563" y2="521.9003" gradientTransform="matrix(1 0 0 -1 -19.0328 598.0206)">
	<stop  offset="0" style="stop-color:#33332B"/>
	<stop  offset="1" style="stop-color:#24241E"/>
</linearGradient>
<path class="st21" d="M183.9,81.2c6.8-3.9,10.7-8.6,10.7-8.6c1.7-2.3,1.4-3.9,0.8-4.8c-0.6-1-1.7-2.1-4.6-1.7c0,0-6,1-12.8,5
	c-6.8,3.9-10.7,8.6-10.7,8.6c-1.7,2.3-1.4,3.9-0.8,4.8c0.6,1,1.7,2.1,4.6,1.7C171.1,86.2,177.1,85.1,183.9,81.2z"/>
<path class="st22" d="M183.3,80.6c6.8-3.9,10.7-8.6,10.7-8.6c1.7-2.3,1.4-3.9,0.8-4.8c-0.6-1-1.7-2.1-4.6-1.7c0,0-6,1-12.8,5
	c-6.8,3.9-10.7,8.6-10.7,8.6c-1.7,2.3-1.4,3.9-0.8,4.8s1.7,2.1,4.6,1.7C170.5,85.6,176.5,84.5,183.3,80.6z"/>
<linearGradient id="SVGID_6_" gradientUnits="userSpaceOnUse" x1="185.0912" y1="482.3383" x2="214.9563" y2="482.3383" gradientTransform="matrix(1 0 0 -1 -19.0328 598.0206)">
	<stop  offset="0" style="stop-color:#33332B"/>
	<stop  offset="1" style="stop-color:#24241E"/>
</linearGradient>
<path class="st23" d="M183.9,120.8c6.8-3.9,10.7-8.6,10.7-8.6c1.7-2.3,1.4-3.9,0.8-4.8c-0.6-1-1.7-2.1-4.6-1.7c0,0-6,1-12.8,5
	c-6.8,3.9-10.7,8.6-10.7,8.6c-1.7,2.3-1.4,3.9-0.8,4.8c0.6,1,1.7,2.1,4.6,1.7C171.1,125.7,177.1,124.7,183.9,120.8z"/>
<path class="st22" d="M183.3,120.2c6.8-3.9,10.7-8.6,10.7-8.6c1.7-2.3,1.4-3.9,0.8-4.8c-0.6-1-1.7-2.1-4.6-1.7c0,0-6,1-12.8,5
	c-6.8,3.9-10.7,8.6-10.7,8.6c-1.7,2.3-1.4,3.9-0.8,4.8c0.6,1,1.7,2.1,4.6,1.7C170.5,125.1,176.5,124.1,183.3,120.2z"/>
<path class="st24" d="M182.7,79.6c5.9-3.4,9.2-7.8,9.2-7.8c1.6-1.8,1.4-2.9,1.1-3.6c-0.4-0.7-1.2-1.4-3.6-0.9c0,0-5.4,0.7-11.4,4.1
	s-9.2,7.8-9.2,7.8c-1.6,1.8-1.4,2.9-1.1,3.6s1.2,1.4,3.6,0.9C171.4,83.7,176.8,83,182.7,79.6z"/>
<path class="st25" d="M182,78.1c5-2.9,7.9-6.4,7.9-6.4c1.4-1.5,1.3-2.3,1-2.8c-0.3-0.5-1-1-2.9-0.5c0,0-4.5,0.8-9.5,3.6
	s-7.9,6.4-7.9,6.4c-1.4,1.5-1.3,2.3-1,2.8c0.3,0.5,1,1,2.9,0.5C172.5,81.7,177,81,182,78.1L182,78.1z"/>
<path class="st24" d="M182.7,119.1c5.9-3.4,9.2-7.8,9.2-7.8c1.6-1.8,1.4-2.9,1.1-3.6c-0.4-0.7-1.2-1.4-3.6-0.9c0,0-5.4,0.7-11.4,4.1
	s-9.2,7.8-9.2,7.8c-1.6,1.8-1.4,2.9-1.1,3.6s1.2,1.4,3.6,0.9C171.4,123.2,176.8,122.5,182.7,119.1z"/>
<path class="st25" d="M182,117.6c5-2.9,7.9-6.4,7.9-6.4c1.4-1.5,1.3-2.3,1-2.8c-0.3-0.5-1-1-2.9-0.5c0,0-4.5,0.8-9.5,3.6
	s-7.9,6.4-7.9,6.4c-1.4,1.5-1.3,2.3-1,2.8c0.3,0.5,1,1,2.9,0.5C172.5,121.2,177,120.4,182,117.6L182,117.6z"/>
<circle class="st26" cx="230.9" cy="61" r="16.7"/>
<circle class="st22" cx="230.9" cy="61" r="15.9"/>
<circle class="st27" cx="230.9" cy="61" r="13.9"/>
<circle class="st28" cx="268.9" cy="39.3" r="13.9"/>
<circle class="st29" cx="291.1" cy="77.7" r="13.9"/>
<circle class="st30" cx="252.2" cy="99.5" r="13.9"/>
<circle class="st31" cx="230.3" cy="60.4" r="13.1"/>
<path class="st32" d="M217,61c0-7.7,6.2-13.9,13.9-13.9c7.6,0,13.7,6.1,13.9,13.6c0-0.1,0-0.2,0-0.2c0-7.9-6.4-14.3-14.3-14.3
	c-7.9,0-14.3,6.4-14.3,14.3s6.4,14.3,14.3,14.3c0.1,0,0.2,0,0.2,0C223.1,74.7,217,68.6,217,61z"/>
<circle class="st26" cx="268.9" cy="39.3" r="16.7"/>
<circle class="st22" cx="268.9" cy="39.3" r="15.9"/>
<circle class="st33" cx="268.9" cy="39.3" r="13.9"/>
<circle class="st34" cx="268.3" cy="38.7" r="13.1"/>
<path class="st35" d="M255,39.3c0-7.7,6.2-13.9,13.9-13.9c7.6,0,13.7,6.1,13.9,13.6c0-0.1,0-0.2,0-0.2c0-7.9-6.4-14.3-14.3-14.3
	s-14.3,6.4-14.3,14.3s6.4,14.3,14.3,14.3c0.1,0,0.2,0,0.2,0C261.1,53.1,255,46.9,255,39.3L255,39.3z"/>
<circle class="st26" cx="291.1" cy="77.7" r="16.7"/>
<circle class="st22" cx="291.1" cy="77.7" r="15.9"/>
<circle class="st36" cx="291.1" cy="77.7" r="13.9"/>
<circle class="st37" cx="290.5" cy="77.1" r="13.1"/>
<path class="st38" d="M277.2,77.7c0-7.7,6.2-13.9,13.9-13.9c7.6,0,13.7,6.1,13.9,13.6c0-0.1,0-0.2,0-0.2c0-7.9-6.4-14.3-14.3-14.3
	s-14.3,6.4-14.3,14.3s6.4,14.3,14.3,14.3c0.1,0,0.2,0,0.2,0C283.3,91.4,277.2,85.3,277.2,77.7L277.2,77.7z"/>
<circle class="st26" cx="252.2" cy="99.5" r="16.7"/>
<circle class="st22" cx="252.2" cy="99.5" r="15.9"/>
<circle class="st39" cx="252.2" cy="99.5" r="13.9"/>
<circle class="st40" cx="251.6" cy="98.9" r="13.1"/>
<path class="st41" d="M238.3,99.5c0-7.7,6.2-13.9,13.9-13.9c7.6,0,13.7,6.1,13.9,13.6c0-0.1,0-0.2,0-0.2c0-7.9-6.4-14.3-14.3-14.3
	c-7.9,0-14.3,6.4-14.3,14.3s6.4,14.3,14.3,14.3c0.1,0,0.2,0,0.2,0C244.4,113.2,238.3,107,238.3,99.5z"/>
<g>
	<path class="st42" d="M165.9,26.1v2.6h-7.9c-0.4,0-0.8-0.1-1,0.1c-0.2,0.1-0.2,0.4,0,0.6c0.1,0.1,0.5,0.1,0.8,0.1h4.3
		c0.6,0,1.2,0,1.7,0.1c0.9,0.2,1.6,0.7,2,1.5c0.2,0.4,0.3,0.9,0.3,1.4c0,1.6-0.9,2.6-2.2,2.9c-0.5,0.1-1.1,0.1-1.7,0.1
		c-2.9,0-5.7,0-8.6,0v-2.6h4.6c1,0,2.3,0,3.4,0c0.3,0,0.9,0.1,1.1-0.1c0.2-0.1,0.2-0.3,0.1-0.5c-0.1-0.3-0.9-0.2-1.3-0.2h-4.5
		c-0.4,0-0.7,0-1.1,0c-1.2-0.2-2.1-0.9-2.4-2.1c-0.1-0.6-0.1-1.4,0.1-2c0.2-0.6,0.5-1,0.9-1.3c0.4-0.3,1-0.6,1.6-0.6
		c0.8,0,1.6,0,2.4,0C161,26.1,163.4,26.1,165.9,26.1L165.9,26.1z M166.3,26.1h2.8c0.1,0,0.3,0,0.4,0c0.1,0,0.3,0.3,0.4,0.3
		c0.1,0.1,0.3,0.3,0.4,0.4c1.8,1.6,3.5,3.4,5.3,5v-5.7h3.3v9.4H176c-0.1,0-0.3,0-0.4,0c-0.1,0-0.3-0.2-0.4-0.3
		c-0.4-0.4-0.8-0.7-1.1-1.1c-1.5-1.4-3-2.9-4.5-4.3v5.7h-3.3L166.3,26.1C166.3,26.1,166.3,26.1,166.3,26.1L166.3,26.1z M179.3,26.1
		h3.2c0,1.4,0,2.9,0,4.3c0,0,0.1-0.1,0.1-0.1c1.5-1.3,2.9-2.6,4.4-3.9c0.1-0.1,0.2-0.2,0.3-0.3c0.1,0,0.4,0,0.6,0h3.9
		c0,0,0,0.1-0.1,0.1c-1.8,1.5-3.6,2.9-5.4,4.4c1.9,1.5,3.8,3.1,5.6,4.6c0.1,0.1,0.3,0.2,0.4,0.3h-4c-0.2,0-0.4,0-0.6,0
		c-0.1,0-0.2-0.2-0.3-0.3c-0.3-0.3-0.7-0.6-1-0.9c-1.3-1.3-2.6-2.5-3.9-3.7c0,1.6,0,3.3,0,4.9c-1.1,0-2.2,0-3.2,0L179.3,26.1
		C179.3,26.1,179.3,26.1,179.3,26.1L179.3,26.1z"/>
</g>
<g>
	<path class="st42" d="M171.9,42c-0.3,0-0.6,0.1-0.8,0.3c-0.2,0.2-0.3,0.5-0.3,0.8c0,0.3,0.1,0.6,0.3,0.8c0.2,0.2,0.5,0.3,0.8,0.3
		c0.3,0,0.6-0.1,0.8-0.3c0.2-0.2,0.3-0.5,0.3-0.8c0-0.3-0.1-0.6-0.3-0.8C172.5,42.1,172.2,42,171.9,42z M192.9,39.3
		c-1.1,0-2.1,0.3-2.9,1.1c-0.8,0.8-1.2,1.7-1.2,2.9c0,1,0.3,1.9,0.9,2.6c0.8,0.9,1.8,1.4,3.2,1.4c1.4,0,2.5-0.5,3.2-1.5
		c0.6-0.7,0.9-1.6,0.9-2.6c0-1.1-0.4-2.1-1.2-2.9C195.2,39.6,194.2,39.3,192.9,39.3L192.9,39.3z M194.7,45.4
		c-0.2,0.5-0.4,0.9-0.8,1.2c-0.3,0.2-0.6,0.3-1,0.3c-0.6,0-1-0.2-1.4-0.7c-0.5-0.6-0.7-1.6-0.7-2.9c0-1.1,0.1-2,0.4-2.5
		c0.4-0.7,0.9-1.1,1.6-1.1c0.4,0,0.7,0.1,1,0.3c0.3,0.2,0.5,0.6,0.7,1.1c0.2,0.5,0.3,1.3,0.3,2.3C195,44.2,194.9,44.9,194.7,45.4
		L194.7,45.4z M181.9,43.9h-3.7v0.2h0.2c0.2,0,0.3,0,0.5,0.1c0.1,0.1,0.2,0.1,0.3,0.2c0,0.1,0.1,0.3,0.1,0.6v1.6
		c-0.2,0.1-0.4,0.1-0.6,0.2c-0.2,0-0.4,0.1-0.6,0.1c-0.5,0-1-0.1-1.4-0.4c-0.4-0.3-0.7-0.7-0.8-1.2s-0.3-1.2-0.3-1.9
		c0-0.6,0.1-1.2,0.2-1.8c0.2-0.6,0.4-1,0.8-1.4c0.4-0.3,0.9-0.5,1.4-0.5c0.6,0,1.2,0.2,1.7,0.6c0.5,0.4,0.9,1,1.1,1.7h0.2v-2.7h-0.2
		c-0.1,0.2-0.2,0.4-0.2,0.4c-0.1,0.1-0.2,0.1-0.3,0.1c-0.1,0-0.3-0.1-0.7-0.2s-0.6-0.2-0.8-0.3c-0.3-0.1-0.7-0.1-1-0.1
		c-1.2,0-2.3,0.4-3.1,1.2c-0.8,0.8-1.2,1.8-1.2,2.9c0,0.6,0.1,1.2,0.4,1.8c0.2,0.4,0.5,0.8,0.9,1.1c0.4,0.3,0.8,0.6,1.3,0.8
		c0.5,0.2,1.1,0.3,1.8,0.3c0.6,0,1.1-0.1,1.7-0.2s1-0.3,1.5-0.5V45c0-0.3,0-0.5,0.1-0.5c0.1-0.1,0.1-0.2,0.3-0.3
		c0.1-0.1,0.3-0.1,0.6-0.1L181.9,43.9L181.9,43.9z M166.2,39.3c-1.1,0-2.1,0.3-2.9,1.1c-0.8,0.8-1.2,1.7-1.2,2.9
		c0,1,0.3,1.9,0.9,2.6c0.8,0.9,1.8,1.4,3.2,1.4c1.4,0,2.5-0.5,3.2-1.5c0.6-0.7,0.9-1.6,0.9-2.6c0-1.1-0.4-2.1-1.2-2.9
		C168.5,39.6,167.5,39.3,166.2,39.3z M168.1,45.4c-0.2,0.5-0.4,0.9-0.8,1.2c-0.3,0.2-0.6,0.3-1,0.3c-0.6,0-1-0.2-1.4-0.7
		c-0.5-0.6-0.7-1.6-0.7-2.9c0-1.1,0.1-2,0.4-2.5c0.4-0.7,0.9-1.1,1.6-1.1c0.4,0,0.7,0.1,1,0.3c0.3,0.2,0.5,0.6,0.7,1.1
		c0.2,0.5,0.3,1.3,0.3,2.3C168.3,44.2,168.2,44.9,168.1,45.4L168.1,45.4z M187.4,46.2c-0.4,0.3-1,0.5-1.7,0.5h-0.5
		c-0.2,0-0.4,0-0.5-0.1c-0.1-0.1-0.2-0.1-0.2-0.2c0-0.1-0.1-0.4-0.1-0.8v-2.2c0.4,0,0.6,0,0.8,0.1c0.2,0.1,0.4,0.3,0.5,0.6
		c0.1,0.3,0.2,0.6,0.3,1.1h0.2v-4h-0.2c-0.1,0.6-0.2,1.1-0.4,1.4c-0.2,0.3-0.6,0.5-1.1,0.5h-0.2v-3.1h0.8c0.6,0,1,0,1.2,0.1
		c0.4,0.1,0.6,0.3,0.8,0.5c0.2,0.2,0.4,0.6,0.5,1.2h0.2v-2.3h-6.4v0.2h0.3c0.2,0,0.4,0.1,0.6,0.2c0.1,0.1,0.2,0.2,0.2,0.3
		c0,0.1,0,0.3,0,0.6v5.1c0,0.4,0,0.6-0.1,0.7c0,0.1-0.1,0.2-0.2,0.3c-0.1,0.1-0.3,0.1-0.5,0.1h-0.3v0.2h6.7l0.3-2.4h-0.2
		C188.2,45.4,187.9,45.9,187.4,46.2L187.4,46.2z M160.7,46.2c-0.4,0.3-1,0.5-1.7,0.5h-0.5c-0.2,0-0.4,0-0.5-0.1
		c-0.1-0.1-0.2-0.1-0.2-0.2c0-0.1-0.1-0.4-0.1-0.8v-2.2c0.4,0,0.6,0,0.8,0.1c0.2,0.1,0.4,0.3,0.5,0.6c0.1,0.3,0.2,0.6,0.3,1.1h0.2
		v-4h-0.2c-0.1,0.6-0.2,1.1-0.4,1.4S158.5,43,158,43h-0.2v-3.1h0.8c0.6,0,1,0,1.2,0.1c0.4,0.1,0.6,0.3,0.8,0.5
		c0.2,0.2,0.4,0.6,0.5,1.2h0.2v-2.3h-8.9v0.2c0.4,0,0.7,0.1,0.9,0.3c0.1,0.2,0.2,0.5,0.2,0.9v3.3l-3.8-4.8h-2.7v0.2
		c0.2,0,0.4,0,0.5,0.1c0.1,0.1,0.3,0.2,0.4,0.4l0.2,0.2v5.4c0,0.4-0.1,0.7-0.2,0.9s-0.5,0.3-0.9,0.3v0.2h2.7v-0.2h-0.2
		c-0.3,0-0.5-0.1-0.7-0.2s-0.3-0.5-0.3-0.9v-4.9l5.2,6.4h0.2v-6.4c0-0.4,0-0.6,0.1-0.8c0-0.1,0.1-0.2,0.3-0.3
		c0.1-0.1,0.3-0.1,0.7-0.2h0.1c0.2,0,0.4,0.1,0.6,0.2c0.1,0.1,0.2,0.2,0.2,0.3c0,0.1,0,0.3,0,0.6v5.1c0,0.4,0,0.6-0.1,0.7
		c0,0.1-0.1,0.2-0.2,0.3c-0.1,0.1-0.3,0.1-0.5,0.1h-0.3v0.2h6.7l0.3-2.4h-0.2C161.5,45.4,161.2,45.9,160.7,46.2L160.7,46.2z"/>
</g>
<g>
	<path class="st42" d="M158.2,62c0.1,0.1,0.1,0.3,0.3,0.3c0.1,0.1,0.3,0.1,0.4,0.2c0.2,0,0.3,0.1,0.5,0.1c0.1,0,0.3,0,0.4-0.1
		s0.3-0.1,0.4-0.1s0.2-0.2,0.3-0.3c0.1-0.1,0.1-0.2,0.1-0.4c0-0.1,0-0.3-0.1-0.4c-0.1-0.1-0.2-0.2-0.3-0.2c-0.1-0.1-0.3-0.1-0.5-0.2
		s-0.4-0.1-0.5-0.2c-0.2-0.1-0.4-0.1-0.5-0.2c-0.2-0.1-0.3-0.2-0.5-0.3c-0.1-0.1-0.3-0.3-0.3-0.4s-0.1-0.4-0.1-0.6
		c0-0.3,0.1-0.6,0.2-0.8c0.1-0.2,0.3-0.4,0.5-0.6c0.2-0.1,0.5-0.3,0.8-0.3s0.6-0.1,0.9-0.1c0.3,0,0.6,0,0.9,0.1
		c0.3,0.1,0.5,0.2,0.7,0.3c0.2,0.2,0.4,0.4,0.5,0.6c0.1,0.2,0.2,0.5,0.2,0.9h-1.2c0-0.1,0-0.3-0.1-0.4c-0.1-0.1-0.1-0.2-0.2-0.3
		c-0.1-0.1-0.2-0.1-0.3-0.2c-0.3-0.1-0.5-0.1-0.8,0c-0.1,0-0.2,0.1-0.3,0.1s-0.2,0.1-0.2,0.2c-0.1,0.1-0.1,0.2-0.1,0.3
		c0,0.1,0.1,0.3,0.2,0.4c0.1,0.1,0.2,0.2,0.4,0.2c0.2,0.1,0.3,0.1,0.5,0.1l0.4,0.1c0.2,0.1,0.4,0.1,0.6,0.2s0.4,0.2,0.5,0.3
		c0.1,0.1,0.2,0.3,0.3,0.5s0.1,0.4,0.1,0.7c0,0.4-0.1,0.7-0.2,0.9s-0.3,0.4-0.6,0.6c-0.2,0.2-0.5,0.3-0.8,0.3
		c-0.3,0.1-0.6,0.1-0.9,0.1c-0.8,0-1.4-0.2-1.9-0.5c-0.4-0.3-0.6-0.9-0.6-1.6h1.2C158.1,61.6,158.1,61.8,158.2,62L158.2,62z
		 M167.6,57.5l-0.2,1.1h-3.2l-0.3,1.3h3l-0.2,1h-3l-0.3,1.5h3.3l-0.2,1.1h-4.6l1.2-5.9L167.6,57.5L167.6,57.5z M169.6,57.5l-1,4.8
		h2.9l-0.2,1.1H167l1.2-5.9H169.6z M177.2,57.5l-0.2,1.1h-3.2l-0.3,1.3h3l-0.2,1h-3l-0.3,1.5h3.3l-0.2,1.1h-4.6l1.2-5.9L177.2,57.5
		L177.2,57.5z M181,58.7c-0.2-0.2-0.5-0.3-0.8-0.3c-0.3,0-0.6,0.1-0.9,0.2c-0.2,0.1-0.4,0.4-0.6,0.6c-0.2,0.2-0.3,0.5-0.4,0.8
		s-0.1,0.6-0.1,0.9c0,0.2,0,0.4,0.1,0.6s0.1,0.3,0.2,0.5c0.1,0.1,0.3,0.3,0.4,0.3c0.2,0.1,0.4,0.1,0.6,0.1c0.2,0,0.3,0,0.5-0.1
		c0.2-0.1,0.3-0.1,0.4-0.3c0.2-0.2,0.4-0.5,0.5-0.8h1.3c-0.1,0.4-0.3,0.7-0.5,1.1c-0.2,0.3-0.4,0.5-0.6,0.7
		c-0.2,0.2-0.5,0.3-0.7,0.4s-0.6,0.1-0.9,0.1c-0.8,0-1.5-0.2-1.9-0.7c-0.5-0.4-0.7-1.1-0.7-1.9c0-0.5,0.1-0.9,0.2-1.4
		c0.1-0.4,0.4-0.8,0.6-1.1s0.6-0.6,1-0.8c0.4-0.2,0.9-0.3,1.3-0.3c0.3,0,0.7,0,1,0.1s0.5,0.2,0.8,0.4c0.2,0.2,0.4,0.4,0.5,0.7
		c0.1,0.3,0.2,0.6,0.2,0.9h-1.3C181.3,59.2,181.2,58.9,181,58.7L181,58.7z M182.9,58.6l0.2-1.1h4.9l-0.2,1.1h-1.8l-1,4.8h-1.3l1-4.8
		H182.9L182.9,58.6z"/>
	<g>
		<path class="st42" d="M156.5,104.3c0.1,0.1,0.1,0.3,0.3,0.3c0.1,0.1,0.3,0.1,0.4,0.2c0.2,0,0.3,0.1,0.5,0.1c0.1,0,0.3,0,0.4,0
			c0.1,0,0.3-0.1,0.4-0.1c0.1-0.1,0.2-0.2,0.3-0.3c0.1-0.1,0.1-0.2,0.1-0.4c0-0.1,0-0.3-0.1-0.4c-0.1-0.1-0.2-0.2-0.3-0.2
			c-0.1-0.1-0.3-0.1-0.5-0.2c-0.2,0-0.4-0.1-0.5-0.2c-0.2-0.1-0.4-0.1-0.5-0.2c-0.2-0.1-0.3-0.2-0.5-0.3c-0.1-0.1-0.3-0.3-0.3-0.4
			s-0.1-0.4-0.1-0.6c0-0.3,0.1-0.6,0.2-0.8c0.1-0.2,0.3-0.4,0.5-0.6c0.2-0.1,0.5-0.3,0.8-0.3s0.6-0.1,0.9-0.1c0.3,0,0.6,0,0.9,0.1
			c0.3,0.1,0.5,0.2,0.7,0.3c0.2,0.2,0.4,0.4,0.5,0.6c0.1,0.2,0.2,0.5,0.2,0.9h-1.2c0-0.1,0-0.3-0.1-0.4c-0.1-0.1-0.1-0.2-0.2-0.3
			c-0.1-0.1-0.2-0.1-0.3-0.2c-0.3-0.1-0.5-0.1-0.8,0c-0.1,0-0.2,0.1-0.3,0.1s-0.2,0.1-0.2,0.2c-0.1,0.1-0.1,0.2-0.1,0.3
			c0,0.1,0.1,0.3,0.2,0.4c0.1,0.1,0.2,0.2,0.4,0.2c0.2,0.1,0.3,0.1,0.5,0.1l0.4,0.1c0.2,0.1,0.4,0.1,0.6,0.2
			c0.2,0.1,0.4,0.2,0.5,0.3c0.1,0.1,0.2,0.3,0.3,0.5s0.1,0.4,0.1,0.7c0,0.4-0.1,0.7-0.2,0.9s-0.3,0.5-0.6,0.6
			c-0.2,0.2-0.5,0.3-0.8,0.3c-0.3,0.1-0.6,0.1-0.9,0.1c-0.8,0-1.4-0.2-1.9-0.5c-0.4-0.3-0.6-0.9-0.6-1.6h1.2
			C156.4,104,156.5,104.1,156.5,104.3L156.5,104.3z M160.7,100.9l0.2-1.1h4.9l-0.2,1.1h-1.8l-1,4.8h-1.3l1-4.8H160.7L160.7,100.9z
			 M168.4,99.8l1,5.9h-1.3l-0.2-1.3h-2.2l-0.7,1.3h-1.4l3.5-5.9H168.4z M167.8,103.4l-0.3-2.4h0l-1.3,2.4H167.8L167.8,103.4z
			 M173.6,99.8c0.2,0,0.5,0,0.7,0.1c0.2,0,0.4,0.1,0.6,0.3c0.2,0.1,0.3,0.3,0.4,0.5c0.1,0.2,0.1,0.5,0.1,0.7c0,0.4-0.1,0.8-0.4,1.1
			c-0.1,0.1-0.3,0.3-0.4,0.4s-0.3,0.2-0.5,0.2v0c0.2,0.1,0.4,0.2,0.5,0.4c0.1,0.2,0.1,0.4,0.1,0.6c0,0.1,0,0.3,0,0.5
			c0,0.2,0,0.4,0,0.6c0,0.1,0,0.3,0,0.4c0,0.1,0,0.2,0.1,0.3h-1.3c0-0.1,0-0.1,0-0.2c0-0.1,0-0.1,0-0.2c0-0.2,0-0.4,0-0.6
			s0-0.4,0-0.6c0-0.1,0-0.2-0.1-0.4c0-0.1-0.1-0.2-0.2-0.2c-0.1-0.1-0.2-0.1-0.3-0.1c-0.1,0-0.2,0-0.3,0h-1.2l-0.5,2.3h-1.3l1.2-5.9
			H173.6L173.6,99.8z M172.7,102.5c0.2,0,0.3,0,0.5-0.1c0.2,0,0.3-0.1,0.4-0.2c0.1-0.1,0.2-0.2,0.3-0.3c0.1-0.1,0.1-0.3,0.1-0.4
			c0-0.2,0-0.3-0.1-0.4c-0.1-0.1-0.1-0.2-0.2-0.2s-0.2-0.1-0.3-0.1s-0.2,0-0.4,0h-1.2l-0.3,1.7L172.7,102.5L172.7,102.5z
			 M175.5,100.9l0.2-1.1h4.9l-0.2,1.1h-1.8l-1,4.8h-1.3l1-4.8H175.5L175.5,100.9z"/>
	</g>
</g>
<g>
	<path class="st42" d="M242.1,119.5l1.4,8.5h-1.8l-0.3-1.9h-3.2l-1.1,1.9h-2l5-8.5H242.1L242.1,119.5z M241.2,124.7l-0.4-3.4h0
		l-1.8,3.4H241.2z M226.2,84.3c-0.3-0.3-0.6-0.4-1.1-0.4c-0.5,0-0.9,0.1-1.2,0.3c-0.3,0.2-0.6,0.5-0.9,0.8c-0.2,0.3-0.4,0.7-0.5,1.1
		s-0.2,0.8-0.2,1.2c0,0.3,0,0.6,0.1,0.8c0.1,0.3,0.2,0.5,0.3,0.7s0.4,0.4,0.6,0.5c0.2,0.1,0.5,0.2,0.9,0.2c0.3,0,0.5,0,0.7-0.1
		c0.4-0.2,0.8-0.5,1-0.9c0.1-0.2,0.2-0.4,0.2-0.6h1.9c-0.2,0.5-0.4,1-0.7,1.5c-0.2,0.4-0.5,0.7-0.9,1c-0.3,0.3-0.7,0.4-1.1,0.6
		c-0.4,0.1-0.8,0.2-1.3,0.2c-1.2,0-2.1-0.3-2.8-1c-0.7-0.6-1-1.6-1-2.8c0-0.7,0.1-1.3,0.3-2c0.2-0.6,0.5-1.2,0.9-1.6
		c0.4-0.5,0.9-0.8,1.5-1.1s1.2-0.4,1.9-0.4c0.5,0,0.9,0.1,1.4,0.2c0.4,0.1,0.8,0.3,1.1,0.6c0.3,0.3,0.5,0.6,0.7,1
		c0.2,0.4,0.2,0.8,0.2,1.4h-1.9C226.7,84.9,226.5,84.5,226.2,84.3L226.2,84.3z M293.4,43.5c1.2,0,2.1,0.3,2.7,0.9
		c0.6,0.6,0.9,1.4,0.9,2.4c0,0.7-0.1,1.4-0.3,2s-0.5,1.2-0.9,1.6c-0.4,0.5-0.9,0.8-1.5,1.1c-0.6,0.3-1.3,0.4-2.1,0.4h-3.5l1.8-8.5
		L293.4,43.5L293.4,43.5z M292.2,50.4c0.5,0,0.9-0.1,1.3-0.3s0.7-0.4,0.9-0.7c0.2-0.3,0.4-0.6,0.6-1s0.2-0.8,0.2-1.3
		c0-0.3,0-0.6-0.1-0.8s-0.2-0.5-0.3-0.6c-0.1-0.2-0.3-0.3-0.6-0.4c-0.2-0.1-0.5-0.1-0.8-0.1h-1.4l-1.1,5.3L292.2,50.4L292.2,50.4z
		 M313.4,87.5c0.4,0,0.8,0,1.1,0.1c0.3,0.1,0.6,0.2,0.9,0.3c0.2,0.1,0.4,0.4,0.5,0.6c0.1,0.3,0.2,0.6,0.2,1c0,0.2,0,0.5-0.1,0.7
		c-0.1,0.4-0.4,0.8-0.8,1c-0.2,0.1-0.4,0.2-0.7,0.2v0c0.4,0.1,0.7,0.3,0.9,0.6c0.2,0.3,0.3,0.7,0.3,1.1c0,0.5-0.1,0.9-0.3,1.2
		s-0.4,0.6-0.7,0.9c-0.3,0.2-0.6,0.4-1,0.5S313,96,312.6,96h-4.5l1.8-8.5L313.4,87.5L313.4,87.5z M312.5,94.5c0.4,0,0.8-0.1,1-0.3
		c0.3-0.2,0.4-0.6,0.4-1c0-0.2,0-0.4-0.1-0.5s-0.2-0.2-0.4-0.3c-0.1-0.1-0.3-0.1-0.5-0.1c-0.2,0-0.3,0-0.5,0h-1.8l-0.5,2.3
		L312.5,94.5L312.5,94.5z M313,90.9c0.3,0,0.6-0.1,0.9-0.3s0.4-0.5,0.4-0.8c0-0.3-0.1-0.6-0.3-0.7c-0.2-0.1-0.4-0.2-0.7-0.2h-2
		l-0.4,2H313L313,90.9z"/>
</g>
<path class="st43" d="M169.9,17.6h6.6c0.2,0,0.5-0.1,0.6-0.4l3.4-5.9c0.1-0.2,0.1-0.3,0.1-0.5c0-0.5-0.3-0.9-0.7-0.9h-20
	c-0.4,0-0.7,0.4-0.7,0.9c0,0.2,0,0.4,0.1,0.5l3.4,5.9c0.1,0.2,0.4,0.4,0.6,0.4H169.9z"/>
<path class="st44" d="M169.9,18.1h6.4c0.2,0,0.4-0.1,0.6-0.4l3.2-5.9c0.1-0.2,0.1-0.3,0.1-0.5c0-0.5-0.3-0.9-0.7-0.9h-19.2
	c-0.4,0-0.7,0.4-0.7,0.9c0,0.2,0,0.4,0.1,0.5l3.2,5.9c0.1,0.2,0.4,0.4,0.6,0.4H169.9z"/>
<path class="st45" d="M179.9,9.9h-20c-0.4,0-0.7,0.4-0.7,0.9c0,0.2,0,0.4,0.1,0.5l2.8,4.9l-2.4-4.3c-0.1-0.2-0.1-0.3-0.1-0.5
	c0-0.5,0.3-0.9,0.7-0.9h19.2c0.4,0,0.7,0.4,0.7,0.9c0,0.2,0,0.4-0.1,0.5l-2.4,4.3l2.8-4.9c0.1-0.2,0.1-0.3,0.1-0.5
	C180.7,10.3,180.4,9.9,179.9,9.9z"/>
<g>
	<path class="st46" d="M336.9,93.8c-0.9-5.6-2.3-12.3-3.9-19.2c-3.7-15.9-10.6-33.3-16.4-42.3c-8.4-12.9-5.9-5.7-3.4-2
		c6.5,9.5,13.4,27.3,17.6,43.8c1.8,7.2,2.8,14.1,3.8,19.9c3.3,19-7.8,45.3-21.6,55.9c-5.8,4.5-3.4,4.6,4.4-2.2
		C329.4,137.5,339.8,112.2,336.9,93.8z"/>
</g>
</svg>
