<svg enable-background="new 0 0 200 103.146" viewBox="0 0 200 103.146" xmlns="http://www.w3.org/2000/svg"><path d="m0 0h200v103.146h-200z" fill="none"/><g transform="matrix(.62351389 0 0 -.62351389 0 200)"><path d="m309.88 155.336h-298.997c-5.986 0-10.883 4.897-10.883 10.883v143.661c0 5.986 4.897 10.883 10.883 10.883h298.997c5.986 0 10.883-4.897 10.883-10.883v-143.661c0-5.986-4.897-10.883-10.883-10.883" fill="#333"/><path d="m264.948 252.319c-.638-.724-1.388-1.304-2.255-1.726-.872-.425-1.788-.71-2.757-.805-.431-.042-.866-.083-1.299-.08-.856.006-1.7.126-2.532.337-.854.216-1.676.518-2.464.913-.693.348-1.368.727-1.971 1.218-.515.418-1.037.833-1.516 1.29-1.987 1.898-3.959 3.811-5.937 5.719-.06.057-.12.115-.188.181.372.386.733.761 1.117 1.159.055-.052.113-.108.171-.164 1.459-1.407 2.907-2.827 4.384-4.215.468-.441 1.011-.804 1.526-1.194.626-.474 1.325-.822 2.038-1.139 1.094-.486 2.228-.841 3.426-.933.656-.051 1.32-.099 1.973-.048 1.477.115 2.864.539 4.085 1.416.039.028.083.048.125.072.691-.667 1.383-1.334 2.074-2.001m-21.489 6.537c4.782-4.612 9.563-9.225 14.356-13.848-.558-.578-1.108-1.149-1.677-1.738-4.785 4.616-9.571 9.232-14.356 13.847.559.58 1.118 1.159 1.677 1.739m21.852 4.858c-1.487 2.26-2.965 4.512-4.443 6.764.016.017.041.026.058.043 2.253-1.431 4.507-2.862 6.795-4.309zm11.759 2.532c-3.055 1.56-6.118 3.127-9.173 4.686-1.511.78-3.005 1.577-4.532 2.323-.908.446-1.824.884-2.787 1.169-1.572.46-3.067-.593-3.521-1.543-.518-1.086-.323-2.133.216-3.115 1.41-2.632 2.853-5.246 4.287-7.852.8-1.465 1.616-2.913 2.408-4.37.652-1.225 1.288-2.449 1.932-3.682l.154-.148c.941.975 1.882 1.951 2.824 2.909.206.214.262.375.097.666-.581.973-1.112 1.981-1.669 2.997 1.272 1.318 2.526 2.635 3.797 3.919.091.094.377.116.504.043 1.027-.511 2.037-1.057 3.039-1.593l3.12 3.234c-.255.13-.475.244-.696.357m28.736 28.514c-4.701 4.535-9.403 9.07-14.161 13.66 1.042 1.08 2.064 2.14 3.086 3.2 4.721-4.553 9.441-9.107 14.162-13.66-1.029-1.067-2.058-2.133-3.087-3.2m-56.688-58.852c-.676.652-1.328 1.277-1.973 1.911-.042.041-.063.164-.033.209.433.643.75 1.343.934 2.091.146.596.254 1.207.31 1.817.097 1.057-.005 2.106-.258 3.138-.206.842-.471 1.667-.881 2.43-.377.704-.795 1.387-1.225 2.06-.205.319-.455.619-.725.886-1.648 1.624-3.307 3.236-4.962 4.853-.03.029-.06.057-.1.096.372.387.737.764 1.118 1.159.061-.058.12-.115.179-.173 2.16-2.083 4.328-4.159 6.474-6.257.424-.415.774-.909 1.142-1.379.478-.611.866-1.28 1.203-1.977.533-1.104.93-2.252 1.072-3.474.066-.562.123-1.13.117-1.695-.012-1.097-.239-2.158-.663-3.174-.374-.897-.89-1.694-1.586-2.373-.044-.043-.086-.088-.143-.148m37.914 62.287c3.808-3.673 7.552-7.285 11.329-10.928-.968-1.003-1.924-1.994-2.932-3.04-.144.139-.299.288-.453.437-3.865 3.728-7.704 7.483-11.614 11.164-.888.836-1.042 2.923-.07 3.932.938.974 1.849 1.975 2.821 2.912 1.871 1.804 4.726 2.429 7.094 1.193 1.864-.973 2.989-3.147 2.607-5.216-.114-.619-.258-1.232-.396-1.891 3.222-.764 6.495-1.541 9.837-2.334-.106-.141-.167-.244-.247-.327-1.001-1.042-1.999-2.086-3.014-3.113-.114-.115-.353-.217-.494-.178-2.818.775-5.628 1.58-8.444 2.362-2.148.597-2.207 1.852-1.574 3.566.211.572.397 1.181.439 1.783.081 1.161-.657 1.603-1.563 1.726-.808.111-1.56-.03-2.111-.769-.337-.453-.78-.828-1.215-1.279m-4.429-16.572c-1.487 2.26-2.957 4.504-4.435 6.756.017.017.05.034.066.051 2.246-1.422 4.5-2.853 6.779-4.309 0 0-2.41-2.498-2.41-2.498zm11.759 2.549c-3.055 1.56-6.119 3.11-9.174 4.686-1.85.942-3.7 1.901-5.541 2.852-.807.414-1.663.81-2.586.743-2.075-.13-3.632-1.898-2.778-4.06.37-.919.865-1.793 1.335-2.658 1.965-3.614 3.938-7.202 5.912-10.807.591-1.082 1.191-2.173 1.8-3.306.998 1.036 1.956 2.011 2.896 3.021.091.094.111.371.034.496-.532 1.025-1.096 2.032-1.662 3.073 1.263 1.309 2.517 2.626 3.789 3.91.099.103.376.116.503.06 1.027-.528 2.038-1.073 3.048-1.601l3.111 3.225c-.237.131-.458.244-.687.366m-15.374-16.995c-3.781 3.647-7.534 7.267-11.316 10.915-.894-.927-1.763-1.828-2.664-2.762-.912.88-1.796 1.733-2.708 2.612 2.745 2.846 5.5 5.702 8.279 8.583.883-.851 1.767-1.704 2.68-2.585-.855-.885-1.698-1.76-2.581-2.675 3.792-3.656 7.554-7.285 11.345-10.942-1.02-1.057-2.001-2.074-3.035-3.146" fill="#a6a8ab"/><path d="m55.717 230.131c-23.076.268-41.948 18.541-41.764 42.201.174 22.922 18.959 41.405 42.394 41.376 23.153-.028 42.151-18.885 42.045-41.74.116-22.903-18.756-42.125-42.675-41.837m107.467 86.53c-6.22-.038-12.44-.278-18.64-.297-45.048-.134-90.086-.067-135.135-.067h-2.228c-.717-.47-1.172-.872-1.463-1.496v-154.049c.388-.403.766-.806 1.124-1.189 1.763-.365 2.974.067 4.108 1.169 4.989 4.823 9.794 9.808 14.919 14.505 7.072 6.481 13.572 13.556 20.654 20.056 7.16 6.576 13.747 13.747 20.916 20.324 7.024 6.451 13.486 13.479 20.519 19.94 7.208 6.625 13.834 13.834 21.052 20.458 6.984 6.404 13.398 13.393 20.383 19.807 7.256 6.662 13.921 13.92 21.177 20.592 5.29 4.86 10.259 10.076 15.365 15.137.436.432.843.892 1.192 1.256v2.09c-.969 1.515-2.384 1.774-3.943 1.764" fill="#2b2a2b"/><path d="m247.254 155.39c-14.363-.018-28.726-.046-43.079-.046-5.687 0-11.374.037-17.051.064-.137 1.212-5.131 5.559-6.325 6.753-5.395 5.423-10.8 10.836-16.231 16.222-1.276 1.267-2.661 2.434-3.983 3.664-.419.383-.92.747-.911 1.422.383-.128.793-.21 1.139-.401 4.456-2.47 9.113-3.609 14.272-2.817 8.512 1.313 14.226 6.079 17.461 13.871 1.394 3.345 1.905 6.881 1.358 10.599-.438 2.944-1.495 5.605-2.561 8.302 1.959-.829 3.181-2.551 4.493-4.055 3.545-4.065 7.637-7.592 11.255-11.574 4.411-4.848 9.287-9.25 13.698-14.08 3.827-4.202 8.074-7.984 11.865-12.194 3.636-4.056 14.591-15.666 14.6-15.73m70.565 3.436s-3.044-3.491-7.472-3.491c-17.079 0-32.116.01-49.195.01-.173 0-7.391 7.345-9.442 9.423-5.695 5.76-11.709 11.216-17.361 17.033-.489.503 0 0-2.765 2.999 1.229-.643 2.592-1.641 3.039-1.915 3.053-1.877 6.452-2.788 9.952-2.879 6.744-.183 12.558 2.132 17.142 7.199 4.976 5.514 6.744 11.93 5.377 19.22-1.371 5.44-2.714 6.31-3.765 8.27 6.007-5.727 4.704-4.223 6.007-5.727 3.108-3.582 6.653-6.735 9.897-10.171 6.425-6.798 13.187-13.26 19.603-20.049 4.867-5.14 18.564-19.238 18.983-19.922" fill="#4a4a4c"/><path d="m244.411 181.719c-10.982.118-19.794 9.505-19.658 20.943.119 10.817 9.405 19.694 20.451 19.566 11.364-.118 20.204-9.141 20.059-20.459-.146-11.456-9.214-20.168-20.852-20.05m22.683 24.707c-.437 2.305-1.831 6.151-4.538 9.459-5.815 6.927-13.233 9.442-22.046 7.811-4.802-.894-8.639-3.391-11.956-7.082-4.922-5.459-6.17-11.71-4.903-18.628.893-4.903 3.335-9.058 6.99-12.467.792-.738 3.536-2.36 3.982-2.633 3.053-1.878 6.452-2.789 9.952-2.88 6.744-.183 12.558 2.132 17.142 7.199 4.976 5.514 6.744 11.93 5.377 19.221m-95.627-24.707c-11.055.018-20.214 9.177-20.232 20.25-.018 11.21 9.077 20.186 20.323 20.287 11.173.109 20.587-9.442 20.195-20.305.319-10.572-8.621-20.25-20.286-20.232m22.437 23.002c-.437 2.944-1.494 5.605-2.561 8.303-.464 1.175-1.522 1.886-2.26 2.834-4.32 5.504-10.125 8.129-16.969 8.375-7.446.265-13.533-2.943-18.017-8.667-5.286-6.735-5.578-14.362-2.525-22.173 1.623-4.146 4.821-7.09 8.102-9.924.383-.128.793-.21 1.139-.401 4.457-2.47 9.114-3.609 14.272-2.816 8.512 1.312 14.226 6.078 17.461 13.87 1.395 3.345 1.905 6.881 1.358 10.599" fill="#1f1718"/><path d="m265.26 201.772c-.148-11.461-9.21-20.176-20.851-20.054-10.978.115-19.794 9.509-19.661 20.947.127 10.811 9.408 19.687 20.459 19.566 11.361-.125 20.199-9.142 20.053-20.459m-73.507.18c.32-10.575-8.62-20.254-20.289-20.235-11.05.018-20.207 9.18-20.225 20.249-.018 11.214 9.077 20.187 20.32 20.293 11.175.106 20.583-9.444 20.194-20.307" fill="#b82c31"/><path d="m87.823 261.557c-4.108 0-8.409-.192-12.691.058-3.536.21-6.781-2.464-6.675-6.692.097-3.758.029-7.516.02-11.284-.01-2.118-.34-2.444-2.51-2.454-6.413-.01-12.826 0-19.046 0-.794.345-1.153.834-1.598 1.457 0 4.209.009 8.523-.01 12.827-.01 3.864-2.219 6.059-6.113 6.078-3.924.02-7.847 0-11.771.01-2.276.01-3.032.748-3.042 2.981-.019 5.427.01 10.843-.009 16.269-.01 1.735.629 2.857 2.567 2.886 5.154-.307 10.337-1.151 15.384.767.116.009.223.009.349.019.165.288.436.355.746.374.262.259.504.508.756.767.232.239.465.47.697.709 1.463 2.685 1.647 5.589 1.56 8.561-.078 2.646 0 5.283-.02 7.928-.009 1.045.31 1.956 1.463 1.966 6.326.057 12.653.029 18.775.029.998-.835 1.085-1.726 1.076-2.675-.02-2.886.029-5.781-.02-8.667-.029-1.783.107-3.537.407-5.292v-.009c.281-.163.349-.432.368-.738.291-.163.368-.432.378-.738.126-.125.252-.24.378-.374.349-.135.6-.374.736-.729.116-.115.233-.24.349-.355 2.228-1.236 4.553-2.051 7.188-1.888 3.188.211 9.882.134 10.027.029 1.221.009 1.86-.585 1.87-1.793v-18.493c-.397-.729-.833-1.16-1.589-1.534m-31.476 52.152c-23.434.029-42.219-18.454-42.393-41.376-.184-23.661 18.687-41.933 41.764-42.201 23.919-.288 42.791 18.933 42.674 41.836.107 22.855-18.891 41.712-42.045 41.741" fill="#59585a"/><path d="m56.89 257.741c-8.186.134-15.539 7.133-15.413 15.837.116 7.89 7.44 15.406 16.188 15.061 7.808-.297 15.375-7.037 14.929-15.454.504-8.436-7.392-15.588-15.704-15.444m30.652 25.635c-.145.105-6.839.182-10.027-.029-2.635-.163-4.96.652-7.188 1.889-.116.115-1.928 2.77-2.209 2.933l-.009.01h.009c-.3 1.754-.436 3.509-.407 5.292.049 2.885 0 5.781.02 8.666.009.949-.078 1.841-1.076 2.675-6.122 0-12.449.029-18.775-.029-1.152-.009-1.472-.92-1.462-1.965.019-2.646-.058-5.282.019-7.928.087-2.972-.097-5.877-1.56-8.561-.232-.24-2.431-1.86-2.548-1.87-5.047-1.917-10.23-1.073-15.384-.767-1.937-.028-2.577-1.15-2.567-2.885.019-5.426-.01-10.843.01-16.269.009-2.234.765-2.972 3.042-2.981 3.923-.01 7.847.009 11.77-.01 3.895-.019 6.103-2.215 6.113-6.078.02-4.305.01-8.619.01-12.827.445-.623.804-1.112 1.598-1.457 6.22 0 12.633-.01 19.047 0 2.17.009 2.499.335 2.509 2.454.009 3.767.077 7.525-.02 11.283-.106 4.228 3.139 6.903 6.675 6.692 4.282-.249 8.584-.057 12.691-.057.756.373 1.192.805 1.589 1.533v18.493c-.01 1.208-.649 1.803-1.87 1.793" fill="#6e6d6e"/><path d="m57.129 262.062c-6.413 0-11.056 3.851-11.275 10.977-.181 6.167 4.025 10.917 11.154 11.493 6.801-.564 11.323-4.415 11.408-11.277.073-6.598-4.328-11.205-11.287-11.193m.691 30.46c-10.947.432-20.112-8.974-20.258-18.847-.157-10.893 9.044-19.651 19.288-19.819 10.402-.18 20.282 8.77 19.652 19.327.558 10.533-8.911 18.967-18.682 19.339" fill="#363638"/><path d="m56.918 290.739c10.581-.873 17.608-6.859 17.733-17.518.121-10.274-6.718-17.426-17.53-17.414-9.981.012-17.208 5.996-17.54 17.079-.287 9.585 6.259 16.966 17.337 17.853" fill="#4f4e4f"/></g></svg>