<svg viewBox="0 0 200 105.3" xmlns="http://www.w3.org/2000/svg"><path d="m100 83.7c19.4-.2 32.2 1.9 42.1 9 8.1 5.8 16.8 12.8 28.8 12.5 2.2 0 7.4-.3 13.1-3.4 2.9-1.6 5.9-4.1 8.6-8 18.8-26.7-3.7-52.6-5.5-55.1-27.4-38.1-67.5-38.7-87.1-38.7s-59.7.6-87 38.8c-1.8 2.5-24.3 28.4-5.5 55.1 2.7 3.9 5.7 6.3 8.6 8 5.6 3.1 10.8 3.4 13 3.4 12.1.3 20.7-6.8 28.8-12.5 9.8-7.2 22.6-9.3 42.1-9.1z" fill="#1b1d1f"/><path d="m135.1 3.5c-13.8-3.4-26.5-3.5-35.1-3.5-8.7 0-21.3.1-35.1 3.6 1.7 4.1 2.6 6 4.4 7.8.4.4 1.5.4 2.8.1 8.8-2.9 21.7-3 28-3s19.2 0 28 3c1.3.3 2.4.3 2.8-.1 1.6-1.9 2.5-3.8 4.2-7.9" fill="#111"/><ellipse cx="147.5" cy="52.7" fill="#111" rx="31.2" ry="40.3" transform="matrix(.5623 -.8269 .8269 .5623 21.0308 145.0474)"/><ellipse cx="145.2" cy="51.9" fill="#090909" rx="25.5" ry="31.8" transform="matrix(.5623 -.8269 .8269 .5623 20.6788 142.8123)"/><g fill="#6a6a6d"><circle cx="125" cy="46" r="6.2"/><circle cx="141.3" cy="39.1" r="6.2"/><circle cx="158.1" cy="33.7" r="6.2"/></g><circle cx="131.5" cy="65.4" fill="#262626" r="8.1"/><circle cx="151" cy="57.2" fill="#262626" r="8.1"/><circle cx="170.5" cy="50.2" fill="#262626" r="8.1"/><ellipse cx="49.6" cy="50" fill="#191818" rx="36.1" ry="29.5" transform="matrix(.8269 -.5623 .5623 .8269 -19.5386 36.5259)"/><ellipse cx="50.4" cy="48.2" fill="#0f0f0f" rx="27.1" ry="23.3" transform="matrix(.8269 -.5623 .5623 .8269 -18.3662 36.6638)"/><circle cx="50.7" cy="47.2" r="20.2"/><circle cx="50.7" cy="47.2" fill="#373737" r="17.8"/><path d="m40.7 36.7 1.4 2.9 1.5-1.5m-2.9 19.1 2.9-1.4-1.5-1.5m19.1 3-1.4-2.9-1.5 1.5m3.1-19.1-2.9 1.4 1.5 1.5" fill="#1f1f1f"/><path d="m68.5 47.2v2.6c0 1.3-.7 1.9-2 2-1.7.1-3.4.3-5.1.7-2.9.6-4.7 2.6-5.4 5.4-.3 1.6-.5 3.2-.6 4.8-.2 1.7-.5 2.3-2.2 2.3-.8 0-1.6 0-2.3 0s-1.6 0-2.3 0c-1.7 0-2.1-.6-2.2-2.3-.1-1.6-.3-3.2-.6-4.8-.6-2.9-2.5-4.8-5.4-5.4-1.7-.4-3.4-.6-5.1-.7-1.3-.1-2-.7-2-2 0-.9 0-1.7 0-2.6s0-1.7 0-2.6c0-1.3.7-1.9 2-2 1.7-.1 3.4-.3 5.1-.7 2.9-.6 4.7-2.6 5.4-5.4.3-1.6.5-3.2.6-4.8.2-1.7.5-2.3 2.2-2.3h2.3s1.6 0 2.3 0c1.7 0 2.1.6 2.2 2.3.1 1.6.3 3.2.6 4.8.6 2.9 2.5 4.8 5.4 5.4 1.7.4 3.4.6 5.1.7 1.3.1 2 .7 2 2z" fill="#181818"/><path d="m44.2 50.9h-10.4v-7.6h10.4l2.7-2.5v-10.4h7.6v10.3l2.8 2.7h10.3v7.6h-10.4l-2.7 2.5v10.3h-7.6v-10.2" fill="#2c2c2c"/><path d="m54.4 47.2c0 2-1.7 3.7-3.7 3.7s-3.7-1.7-3.7-3.7 1.7-3.7 3.7-3.7c2.1 0 3.7 1.7 3.7 3.7z" fill="#242424"/><path d="m50.7 50.9c-1.4 0-2.6-.8-3.3-2 .6-1.1 1.9-1.9 3.3-1.9s2.6.8 3.3 1.9c-.7 1.3-1.9 2-3.3 2" fill="#404040"/><path d="m154 56c.4-.2.5-.4.5-.6v-.2c-.1-.4-.8-.4-2 0l-5.3 2 .1.4.6 1.6.2.4 5.3-2c1.2-.4 1.7-.9 1.5-1.2l-.1-.2c-.2-.2-.5-.3-.8-.2zm-.8 1.1-.7.3-3.7 1.4-.2-.6 3.7-1.4.6-.2c.4-.2.7-.1.8 0 .1.2 0 .4-.5.5zm-.3-.9-4.4 1.6-.2-.6 4.4-1.6c.4-.2.7-.1.8 0 0 .2-.2.4-.6.6z" fill="#141415"/><circle cx="152.6" cy="61.2" fill="#191818" r=".5"/><path d="m135 64.8-.9.3-1.1-.3-3.5 1.3-.6 1-1 .3 1.9-3.4 1.4-.5s3.8 1.3 3.8 1.3zm-2.6-.3-1.4-.5-.6.2-.7 1.3zm39.3-15.4-2.6.9c-1.7.6-1.5.8-1.3 1.3s.1.9 1.8.2l4.5-1.6.1.4-4.5 1.6c-2.4.9-2.7.5-3-.3s-.2-1.2 2.1-2.1l4.5-1.6.1.4z" fill="#141415"/><path d="m127.7 46.7-1.4-.2c-.6-.1-.9-.1-1.2-.2-.2.3-.4.5-.8.9l-.9 1-1.4.5 2.2-2.5-3.2-.5 1.4-.5 1.4.3c.4.1.7.1 1 .2.2-.3.4-.5.6-.8l1-1.1 1.4-.5-2.3 2.4 3.4.5c.1 0-1.2.5-1.2.5zm13.4-6-.4-1.2-3.4-.6 1.3-.5 1.6.3c.4.1.8.2 1.1.3.2-.3.4-.6.7-.9l1-1.3 1.3-.5-2.4 2.8.4 1.2zm14.2-4.6 4.2-4.2-4.6 1.7-.1-.3 6.1-2.2.1.2-4.1 4.1 5.1-1.8.1.3-6.6 2.4z" fill="#484849"/><path d="m91.7 53.1c-.2 0-.3 0-.5-.1-.1 0-.3-.1-.3-.3-.1-.1-.2-.3-.2-.4 0-.2-.1-.3-.1-.5h.4c0 .1 0 .2.1.3 0 .1.1.2.1.2s.1.1.2.1h.2.2s.1 0 .2-.1c0 0 .1-.1.1-.1s0-.1 0-.2 0-.1 0-.2 0-.1-.1-.1c0 0-.1-.1-.2-.1s-.2 0-.3-.1l-.5.1c-.1 0-.2-.1-.3-.2s-.1-.2-.2-.3c0-.1 0-.2 0-.3s0-.3.1-.4.1-.2.2-.3.2-.2.3-.2.3-.1.4-.1.3 0 .4.1c.1 0 .2.1.3.2s.2.2.2.3.1.3.1.5h-.5c0-.4-.2-.6-.5-.6-.2 0-.3 0-.3.1-.1.1-.1.2-.1.3v.1s0 .1.1.1.1 0 .2.1c0 0 .1 0 .2.1h.2c.1 0 .2 0 .3.1.1 0 .1.1.2.1s.1.1.2.2l.1.3v.3c0 .2 0 .3-.1.4 0 .1-.1.2-.2.3-.1.2-.2.2-.3.3-.1 0-.2 0-.3 0zm3.3-2.7h-.8v2.7h-.5v-2.7h-.8v-.6h2c.1 0 .1.6.1.6zm2.5 2.7h-.5l-.3-.9h-.9l-.3.9h-.5l1-3.3h.5s1 3.3 1 3.3zm-.9-1.4-.3-1-.3 1zm3.4 1.4h-.5l-.3-.9s0-.1-.1-.2c0 0 0-.1-.1-.1 0 0-.1-.1-.1-.1s-.1 0-.2 0h-.5v1.3h-.5v-3.3h1.4.2s.1 0 .2.1l.1.1s.1.1.1.2c0 0 0 .1.1.2v.2.2c0 .2 0 .4-.1.5s-.2.3-.3.3c.1.1.2.3.3.5zm-1.7-1.9h.6.2s.1 0 .2-.1c0 0 .1-.1.1-.1s0-.1 0-.2 0-.3-.1-.3c-.1-.1-.2-.1-.3-.1h-.7zm4-.8h-.8v2.7h-.5v-2.7h-.8v-.6h2v.6z" fill="#d5d5d5"/><circle cx="140.2" cy="43" fill="#484849" r=".5"/><circle cx="144.4" cy="41.7" fill="#484849" r=".5"/><path d="m107.5 28h-3.3v-.9h2.3c-.2-.6-.3-1-.4-1.4-.3-1.1-.6-2.3-1-3.3-.1-.3-.3-.6-.6-.6-.3-.1-.5.3-.6.7-.5 1.7-1 3.4-1.5 5.1-.1.4-.3.6-.6.5-1 0-2 0-3 0s-1.7-.8-1.7-1.9 0-2.1 0-3.1c0-1.2.7-1.9 1.7-1.9h2.8v.8h-2.3c-1.1 0-1.4.3-1.4 1.6v2.4c0 .9.3 1.3 1.1 1.3h1.8v-2.8h-1.5v-.9h2.3v3.7h.1c.5-1.7 1-3.4 1.5-5 .3-1 .8-1.4 1.6-1.2.5.1.8.4 1 .9.6 1.9 1.2 4 1.7 6 .1-.1 0 0 0 0zm-20.5 0v-.9h2.6c.7 0 1.2-.6 1.3-1.4 0-.7-.5-1.4-1.2-1.4-.3 0-.6 0-.9 0-.4 0-.8-.5-.8-1 0-.6.3-1 .8-1h2.8v.9h-2.8v.3h.8c1 0 1.7.7 2 1.7.3 1.3-.6 2.7-1.7 2.8-1 .1-1.9 0-2.9 0z" fill="#d5d5d5"/><path d="m87 26.8v-.9h2.8v-.3c-.3 0-.6 0-.9 0-.8 0-1.4-.4-1.7-1.2s-.3-1.7.2-2.4c.3-.5.8-.9 1.3-.9h3v.9h-2.7c-.9 0-1.4.9-1.1 1.8.2.6.6.9 1.2.9h.8c.4 0 .8.5.8 1s-.3 1-.8 1c-1 .1-1.9.1-2.9.1zm9.7-5.7v.9h-2.6c-.9 0-1.2.3-1.2 1.4v2.5c0 1 .3 1.4 1.1 1.4h2.6v.9h-3.1c-.7 0-1.4-.8-1.4-1.7 0-1.2 0-2.4 0-3.7 0-.8.6-1.6 1.3-1.6 1.1-.2 2.2-.1 3.3-.1zm5.9 6.9c.6-1.9 1.1-3.7 1.7-5.6 0-.1.2-.3.3-.3 0 0 .2.1.3.2.5 1.5.9 3 1.4 4.5h-1.9c0-.2 0-.4 0-.6 0 0 0 0-.1 0-.1.3-.2.7-.3 1-.5.9-.5.9-1.4.8zm1.6-2.2h.6c-.1-.3-.2-.6-.3-.9h-.1c0 .2-.1.5-.2.9zm-4.4-.1c-.3-.1-.4-.1-.6-.2v-.8h1.2v2c-.6 0-1.2 0-1.9 0-.2 0-.4-.3-.4-.6 0-1.1 0-2.2 0-3.3 0-.4.2-.6.6-.6h2.8v.9c-.7 0-1.4 0-2 0-.4 0-.6.2-.6.6v1.5c0 .7.3.9.9.5z" fill="#d5d5d5"/><path d="m94 25.9c.9.2 1.7 0 2.6.1v.9c-1 0-2 0-3 0-.2 0-.4-.4-.4-.6-.1-.4 0-.9 0-1.4h2.8v.8h-2zm2.7-3.6v.9c-.9.1-1.8-.1-2.7.1v.2h2v.9h-2.8c0-.5 0-1 0-1.6 0-.2.3-.5.4-.5z" fill="#d5d5d5"/><path d="m103.6 48.9h-15c-1.6 0-2.9-1.3-2.9-2.9v-2c0-1.6 1.3-2.9 2.9-2.9h15c1.6 0 2.9 1.3 2.9 2.9v2c0 1.6-1.3 2.9-2.9 2.9z" fill="#191818"/><path d="m102.6 46.8h-13.4c-.7 0-1.3-.6-1.3-1.3v-.9c0-.7.6-1.3 1.3-1.3h13.4c.7 0 1.3.6 1.3 1.3v.9c0 .7-.6 1.3-1.3 1.3z" fill="#b7b7b7"/></svg>