<svg xmlns="http://www.w3.org/2000/svg" xmlns:xlink="http://www.w3.org/1999/xlink" viewBox="0 0 755.287 505"><path d="M248.705 497h37.307c4.709 0 9.413.287 14.089.859l56.552 6.923c1.182.145 2.372.217 3.563.217h75.479c2.208 0 4.4-.276 6.542-.825 8.593-2.203 31.722-8.675 45.421-17.675 8.122-5.336 9.564-22.638 9.734-25.186.013-.199.019-.399.019-.599v-204.24c0-2.149-.704-4.258-2.084-5.876-2.619-3.072-4.255-7.408-4.255-12.223 0-4.816 1.636-9.152 4.255-12.223 1.38-1.618 2.084-3.727 2.084-5.876 0-2.149-.704-4.258-2.084-5.876-2.619-3.072-4.255-7.408-4.255-12.223s1.636-9.152 4.255-12.223c1.38-1.618 2.084-3.727 2.084-5.876 0-2.149-.704-4.258-2.084-5.876-2.619-3.072-4.255-7.408-4.255-12.223 0-4.816 1.636-9.152 4.255-12.223 1.38-1.618 2.084-3.727 2.084-5.876 0-2.149-.704-4.258-2.084-5.876-2.619-3.072-4.255-7.408-4.255-12.223 0-4.816 1.636-9.152 4.255-12.223 1.38-1.618 2.084-3.727 2.084-5.876 0-2.149-.704-4.258-2.084-5.876-2.619-3.072-4.255-7.408-4.255-12.223 0-4.816 1.636-9.152 4.255-12.223 1.38-1.618 2.084-3.727 2.084-5.876 0-2.149-.704-4.258-2.084-5.876-2.619-3.072-4.255-7.408-4.255-12.223 0-4.816 1.636-9.152 4.255-12.223 1.38-1.618 2.084-3.727 2.084-5.876v-15.28C497.41 10.744 486.931 0 474.004 0H23.406C10.479 0 0 10.744 0 23.998v15.28c0 2.149.704 4.258 2.084 5.876 2.619 3.072 4.255 7.408 4.255 12.223 0 4.816-1.636 9.152-4.255 12.223C.704 71.22 0 73.329 0 75.478s.704 4.258 2.084 5.876c2.619 3.072 4.255 7.408 4.255 12.223 0 4.816-1.636 9.152-4.255 12.223C.704 107.419 0 109.528 0 111.677c0 2.149.704 4.258 2.084 5.876 2.619 3.072 4.255 7.408 4.255 12.223 0 4.816-1.636 9.152-4.255 12.223C.704 143.619 0 145.728 0 147.877s.704 4.258 2.084 5.876c2.619 3.072 4.255 7.408 4.255 12.223 0 4.816-1.636 9.152-4.255 12.223C.704 179.819 0 181.927 0 184.077c0 2.149.704 4.258 2.084 5.876 2.619 3.072 4.255 7.408 4.255 12.223s-1.636 9.152-4.255 12.223C.704 216.018 0 218.127 0 220.276c0 2.149.704 4.258 2.084 5.876 2.619 3.072 4.255 7.408 4.255 12.223 0 4.816-1.636 9.152-4.255 12.223C.704 252.218 0 254.326 0 256.476v204.24c0 .2.006.399.019.599.17 2.548 1.612 19.849 9.734 25.186 13.699 9 36.828 15.472 45.421 17.675 2.142.549 4.334.825 6.542.825h75.479c1.191 0 2.381-.073 3.563-.217l56.552-6.923c4.676-.572 9.38-.859 14.089-.859h37.306z" fill="#24241e"/><linearGradient id="a" gradientUnits="userSpaceOnUse" x1="41.26" y1="281.417" x2="456.327" y2="281.417"><stop offset="0" stop-color="#24241e"/><stop offset=".136" stop-color="#292922"/><stop offset=".89" stop-color="#292922"/><stop offset="1" stop-color="#24241e"/></linearGradient><path fill="url(#a)" d="M40.682 129.5l-5.422 272 217.171 31.833L459.574 401.5l-2.846-272z"/><path fill="none" stroke="#1a1a16" stroke-width="3" stroke-miterlimit="10" d="M380.703 0v26H114.131V0"/><ellipse transform="rotate(-17.794 54.536 459.94)" cx="54.545" cy="459.982" rx="26.309" ry="26.676" fill="#2b2b2b"/><ellipse cx="53.828" cy="459.333" rx="25.633" ry="26" fill="#080605"/><ellipse cx="53.828" cy="459.333" rx="21.702" ry="22.013" fill="#414242"/><ellipse transform="matrix(1 -.0091 .0091 1 -4.176 .508)" cx="53.664" cy="458.52" rx="20.704" ry="20.91" fill="#939494"/><ellipse cx="53.828" cy="459.333" rx="20.704" ry="21" fill="#626363"/><ellipse cx="248.705" cy="465.479" rx="4.955" ry="5.172" fill="#262624"/><path fill="none" stroke="#171717" stroke-width="3" stroke-miterlimit="10" d="M383.168 0v99H111.667V0"/><path fill="#24241e" d="M111.667 0h2.465v99h-2.465zM380.703 0h2.465v99h-2.465z"/><path d="M382.79 410.195c4.02-.646 7.443-2.579 9.718-5.425-45.501 2.02-104.526 4.23-145.09 4.23-39.773 0-97.297-2.124-142.416-4.111 2.274 2.78 5.655 4.67 9.619 5.307 23.804 3.824 77.588 11.305 134.085 11.305 56.495-.001 110.28-7.482 134.084-11.306z" fill="none" stroke="#363633" stroke-width="2" stroke-miterlimit="10"/><path d="M104.732 135.345l-2.783 260.627c-.082 7.562 5.307 13.039 12.671 14.223 23.804 3.824 77.588 11.305 134.085 11.305s110.281-7.481 134.085-11.305c7.364-1.183 12.753-6.66 12.671-14.223l-2.783-260.627C352.321 137.725 248.705 140 248.705 140s-103.616-2.275-143.973-4.655z" fill="none" stroke="#30302d" stroke-width="4" stroke-miterlimit="10"/><path d="M104.732 135.345l-2.783 260.627c-.082 7.562 5.307 13.039 12.671 14.223 23.804 3.824 77.588 11.305 134.085 11.305s110.281-7.481 134.085-11.305c7.364-1.183 12.753-6.66 12.671-14.223l-2.783-260.627C352.321 137.725 248.705 140 248.705 140s-103.616-2.275-143.973-4.655z" fill="none" stroke="#1c1c1a" stroke-width="2" stroke-miterlimit="10"/><path d="M248.705 140s113.87-2.5 149.362-5 36.478-5.5 58.661-5.5H40.682c22.183 0 23.168 3 58.661 5.5s149.362 5 149.362 5z" fill="#2e2e29"/><linearGradient id="b" gradientUnits="userSpaceOnUse" x1="247.417" y1="43.5" x2="247.417" y2="27.968"><stop offset=".527" stop-color="#181a14"/><stop offset=".805" stop-color="#1c1e18"/><stop offset="1" stop-color="#24241e"/></linearGradient><path fill="url(#b)" d="M380.703 40.6l1.232-13.523H112.899l1.232 13.523z"/><path fill="#303030" d="M112.899 26h269.036v1.077H112.899z"/><linearGradient id="c" gradientUnits="userSpaceOnUse" x1="247.417" y1="56" x2="247.417" y2="41.363"><stop offset=".527" stop-color="#181a14"/><stop offset=".805" stop-color="#1c1e18"/><stop offset="1" stop-color="#24241e"/></linearGradient><path fill="url(#c)" d="M380.703 55.2l1.232-13.523H112.899l1.232 13.523z"/><path fill="#303030" d="M112.899 40.6h269.036v1.077H112.899z"/><linearGradient id="d" gradientUnits="userSpaceOnUse" x1="247.417" y1="72.5" x2="247.417" y2="56.306"><stop offset=".527" stop-color="#181a14"/><stop offset=".805" stop-color="#1c1e18"/><stop offset="1" stop-color="#24241e"/></linearGradient><path fill="url(#d)" d="M380.703 69.8l1.232-13.523H112.899l1.232 13.523z"/><path fill="#303030" d="M112.899 55.2h269.036v1.077H112.899z"/><linearGradient id="e" gradientUnits="userSpaceOnUse" x1="247.417" y1="87.5" x2="247.417" y2="72.425"><stop offset=".527" stop-color="#181a14"/><stop offset=".805" stop-color="#1c1e18"/><stop offset="1" stop-color="#24241e"/></linearGradient><path fill="url(#e)" d="M380.703 84.4l1.232-13.523H112.899l1.232 13.523z"/><path fill="#303030" d="M112.899 69.8h269.036v1.077H112.899z"/><linearGradient id="f" gradientUnits="userSpaceOnUse" x1="247.417" y1="104" x2="247.417" y2="86"><stop offset=".527" stop-color="#181a14"/><stop offset=".805" stop-color="#1c1e18"/><stop offset="1" stop-color="#24241e"/></linearGradient><path fill="url(#f)" d="M380.703 99l1.232-13.523H112.899L114.131 99z"/><path fill="#303030" d="M112.899 84.4h269.036v1.077H112.899z"/><linearGradient id="g" gradientUnits="userSpaceOnUse" x1="105.001" y1="454.885" x2="392.507" y2="454.885"><stop offset="0" stop-color="#24241e"/><stop offset=".13" stop-color="#1c1e1a"/><stop offset=".5" stop-color="#292922"/><stop offset=".87" stop-color="#1c1e1a"/><stop offset="1" stop-color="#24241e"/></linearGradient><path d="M105.002 404.77c2.274 2.78 5.655 4.788 9.619 5.425 23.804 3.824 77.588 11.305 134.085 11.305 56.496 0 110.281-7.481 134.085-11.305 4.02-.646 7.443-2.579 9.718-5.425V505h-32.291c-1.191 0-2.381-.073-3.563-.217l-56.552-6.923c-4.676-.572-9.38-.859-14.089-.859H211.4c-4.709 0-9.413.287-14.089.859l-56.552 6.923a29.263 29.263 0 0 1-3.563.217h-32.192V404.77z" fill="url(#g)"/><path d="M248.705 453.5s47.742 1 78.774-8.226 39.387-14.613 59.677-20.484 71.161-22.29 71.161-22.29-140.387 3-209.613 3-210.613-3-210.613-3 51.871 16.419 72.161 22.29 28.645 11.258 59.677 20.484 78.776 8.226 78.776 8.226z" fill="#191c16"/><g fill="#898a8a"><path d="M42.096 457.13c.357 0 .661.052.912.156.25.104.455.241.612.412.157.17.272.365.344.584a2.16 2.16 0 0 1 0 1.356c-.072.222-.187.417-.344.588s-.361.309-.612.412a2.381 2.381 0 0 1-.912.156h-1.32v2.048H39.52v-5.56a.15.15 0 0 1 .151-.151h2.425zm-.344 2.688c.144 0 .282-.01.416-.031a.975.975 0 0 0 .352-.124.669.669 0 0 0 .244-.261c.062-.111.092-.258.092-.439s-.031-.328-.092-.44a.687.687 0 0 0-.244-.26.95.95 0 0 0-.352-.124 2.677 2.677 0 0 0-.416-.032h-.976v1.712h.976zM44.8 458.823c.128-.365.312-.685.552-.956.24-.272.535-.485.884-.641a2.896 2.896 0 0 1 1.18-.231c.443 0 .837.077 1.184.231.347.155.64.368.88.641.24.271.424.591.552.956s.192.761.192 1.188c0 .416-.064.804-.192 1.164s-.312.674-.552.94a2.53 2.53 0 0 1-.88.628 2.938 2.938 0 0 1-1.184.228c-.437 0-.831-.076-1.18-.228a2.518 2.518 0 0 1-.884-.628c-.24-.267-.424-.58-.552-.94s-.192-.748-.192-1.164c0-.428.064-.823.192-1.188zm1.148 1.887c.056.227.145.431.268.612.123.181.283.326.48.436s.437.164.72.164.523-.055.72-.164.357-.255.48-.436c.123-.182.212-.386.268-.612s.084-.46.084-.7c0-.251-.028-.493-.084-.728a1.954 1.954 0 0 0-.268-.629c-.123-.184-.283-.33-.48-.439s-.438-.164-.72-.164-.522.055-.72.164-.357.256-.48.439a1.932 1.932 0 0 0-.268.629 3.12 3.12 0 0 0 0 1.428zM55.272 462.842l-.968-3.888h-.016l-.923 3.772a.15.15 0 0 1-.147.115h-1.037a.15.15 0 0 1-.146-.113l-1.482-5.599h1.256l.904 3.888h.016l.992-3.888h1.176l.976 3.936h.016l.936-3.936h1.232l-1.536 5.712h-1.249zM62.904 457.13v1.056h-3.016v1.225h2.768v.976h-2.768v1.4h3.08v1.056h-4.185a.15.15 0 0 1-.151-.151v-5.409a.15.15 0 0 1 .151-.151h4.121zM66.896 457.13c.256 0 .487.041.692.124.205.083.381.196.528.34.146.145.259.311.336.5s.116.394.116.612c0 .336-.071.627-.212.872-.141.245-.372.432-.692.56v.016a.969.969 0 0 1 .632.509c.064.12.11.252.14.396.029.145.049.288.06.433.005.09.011.197.016.319.005.123.015.248.028.376s.035.25.064.364.073.212.132.292H67.48a2.228 2.228 0 0 1-.128-.648c-.016-.25-.04-.49-.072-.72-.043-.299-.133-.517-.272-.656s-.366-.208-.68-.208h-1.256v2.232h-1.256v-5.56a.15.15 0 0 1 .151-.151h2.929zm-.448 2.584c.288 0 .504-.064.648-.192s.216-.336.216-.624c0-.277-.072-.479-.216-.604s-.36-.188-.648-.188h-1.376v1.608h1.376z"/></g><g><path d="M41.92 456.955c.357 0 .661.052.912.156.25.104.455.241.612.412.157.17.272.365.344.584a2.16 2.16 0 0 1 0 1.356c-.072.222-.187.417-.344.588s-.361.309-.612.412a2.381 2.381 0 0 1-.912.156H40.6v2.048h-1.256v-5.56a.15.15 0 0 1 .151-.151h2.425zm-.344 2.688c.144 0 .282-.01.416-.031a.975.975 0 0 0 .352-.124.669.669 0 0 0 .244-.261c.062-.111.092-.258.092-.439s-.031-.328-.092-.44a.687.687 0 0 0-.244-.26.95.95 0 0 0-.352-.124 2.677 2.677 0 0 0-.416-.032H40.6v1.712h.976zM44.624 458.647c.128-.365.312-.685.552-.956.24-.272.535-.485.884-.641a2.896 2.896 0 0 1 1.18-.231c.443 0 .837.077 1.184.231.347.155.64.368.88.641.24.271.424.591.552.956s.192.761.192 1.188c0 .416-.064.804-.192 1.164s-.312.674-.552.94a2.53 2.53 0 0 1-.88.628 2.938 2.938 0 0 1-1.184.228c-.437 0-.831-.076-1.18-.228a2.518 2.518 0 0 1-.884-.628c-.24-.267-.424-.58-.552-.94s-.192-.748-.192-1.164c0-.427.064-.822.192-1.188zm1.148 1.888c.056.227.145.431.268.612.123.181.283.326.48.436s.437.164.72.164.523-.055.72-.164.357-.255.48-.436c.123-.182.212-.386.268-.612s.084-.46.084-.7c0-.251-.028-.493-.084-.728a1.954 1.954 0 0 0-.268-.629c-.123-.184-.283-.33-.48-.439s-.438-.164-.72-.164-.522.055-.72.164-.357.256-.48.439a1.932 1.932 0 0 0-.268.629 3.12 3.12 0 0 0 0 1.428zM55.096 462.667l-.968-3.888h-.016l-.923 3.772a.15.15 0 0 1-.147.115h-1.037a.15.15 0 0 1-.146-.113l-1.482-5.599h1.256l.904 3.888h.016l.992-3.888h1.176l.976 3.936h.016l.936-3.936h1.232l-1.536 5.712h-1.249zM62.728 456.955v1.056h-3.016v1.225h2.768v.976h-2.768v1.4h3.08v1.056h-4.185a.15.15 0 0 1-.151-.151v-5.409a.15.15 0 0 1 .151-.151h4.121zM66.72 456.955c.256 0 .487.041.692.124.205.083.381.196.528.34.146.145.259.311.336.5s.116.394.116.612c0 .336-.071.627-.212.872-.141.245-.372.432-.692.56v.016a.969.969 0 0 1 .632.509c.064.12.11.252.14.396.029.145.049.288.06.433.005.09.011.197.016.319.005.123.015.248.028.376s.035.25.064.364.073.212.132.292h-1.256a2.228 2.228 0 0 1-.128-.648c-.016-.25-.04-.49-.072-.72-.043-.299-.133-.517-.272-.656s-.366-.208-.68-.208h-1.256v2.232H63.64v-5.56a.15.15 0 0 1 .151-.151h2.929zm-.448 2.584c.288 0 .504-.064.648-.192s.216-.336.216-.624c0-.277-.072-.479-.216-.604s-.36-.188-.648-.188h-1.376v1.608h1.376z" fill="#535454"/></g><ellipse cx="248.705" cy="465.333" rx="4.955" ry="5.026" fill="#111110"/><path d="M248.705 469.327c-2.175 0-3.944-1.792-3.944-3.994s1.77-3.993 3.944-3.993 3.944 1.791 3.944 3.993-1.769 3.994-3.944 3.994z" fill="#a72323"/><ellipse cx="248.705" cy="465.333" rx="3.444" ry="3.494" fill="#ff674e"/><g><path d="M248.705 420.53c-55.414 0-107.757-7.08-134.025-11.3-7.467-1.2-12.433-6.766-12.356-13.849l2.778-260.234c40.179 2.345 142.562 4.609 143.595 4.632 1.049-.023 103.432-2.288 143.611-4.632l2.778 260.234c.077 7.083-4.888 12.648-12.355 13.849-26.269 4.22-78.612 11.3-134.026 11.3z" fill="#292922"/><path d="M105.473 135.545c40.456 2.337 142.186 4.587 143.248 4.61 1.03-.023 102.759-2.273 143.215-4.61l2.774 259.841c.075 6.89-4.764 12.305-12.04 13.474-26.258 4.218-78.579 11.295-133.966 11.295s-107.708-7.077-133.966-11.295c-7.276-1.169-12.115-6.584-12.04-13.474l2.775-259.841m287.205-.795c-40.357 2.38-143.973 4.655-143.973 4.655s-103.616-2.275-143.973-4.655l-2.783 260.627c-.082 7.562 5.307 13.039 12.671 14.223 23.804 3.824 77.588 11.305 134.085 11.305s110.281-7.481 134.085-11.305c7.364-1.183 12.753-6.66 12.671-14.223l-2.783-260.627z" fill="#21211d"/></g><g><ellipse cx="234.841" cy="385.25" rx="1.655" ry="1.675" fill="#404038"/><path d="M234.841 383.875c.749 0 1.356.616 1.356 1.375s-.607 1.375-1.356 1.375a1.366 1.366 0 0 1-1.356-1.375c0-.759.607-1.375 1.356-1.375m0-.6c-1.078 0-1.956.886-1.956 1.975s.877 1.975 1.956 1.975c1.078 0 1.956-.886 1.956-1.975s-.878-1.975-1.956-1.975z" fill="#1a1a17"/><path d="M244.084 386.925c-.913 0-1.655-.751-1.655-1.675s.743-1.675 1.655-1.675c.913 0 1.656.751 1.656 1.675s-.743 1.675-1.656 1.675z" fill="#404038"/><path d="M244.084 383.875c.749 0 1.356.616 1.356 1.375s-.607 1.375-1.356 1.375-1.356-.616-1.356-1.375.607-1.375 1.356-1.375m0-.6c-1.078 0-1.956.886-1.956 1.975s.877 1.975 1.956 1.975 1.956-.886 1.956-1.975-.878-1.975-1.956-1.975z" fill="#1a1a17"/><path d="M253.326 386.925c-.913 0-1.655-.751-1.655-1.675s.743-1.675 1.655-1.675c.913 0 1.656.751 1.656 1.675s-.743 1.675-1.656 1.675z" fill="#404038"/><path d="M253.326 383.875c.749 0 1.356.616 1.356 1.375s-.607 1.375-1.356 1.375a1.366 1.366 0 0 1-1.356-1.375 1.367 1.367 0 0 1 1.356-1.375m0-.6c-1.078 0-1.956.886-1.956 1.975s.877 1.975 1.956 1.975 1.956-.886 1.956-1.975-.877-1.975-1.956-1.975z" fill="#1a1a17"/><path d="M262.569 386.925c-.913 0-1.655-.751-1.655-1.675s.743-1.675 1.655-1.675c.913 0 1.656.751 1.656 1.675s-.743 1.675-1.656 1.675z" fill="#404038"/><path d="M262.569 383.875c.749 0 1.356.616 1.356 1.375s-.607 1.375-1.356 1.375a1.366 1.366 0 0 1-1.356-1.375 1.366 1.366 0 0 1 1.356-1.375m0-.6c-1.078 0-1.956.886-1.956 1.975s.877 1.975 1.956 1.975c1.078 0 1.956-.886 1.956-1.975s-.878-1.975-1.956-1.975z" fill="#1a1a17"/><g><ellipse cx="234.841" cy="394.625" rx="1.655" ry="1.675" fill="#404038"/><path d="M234.841 393.25c.749 0 1.356.616 1.356 1.375S235.59 396 234.841 396a1.366 1.366 0 0 1-1.356-1.375c0-.759.607-1.375 1.356-1.375m0-.6c-1.078 0-1.956.886-1.956 1.975s.877 1.975 1.956 1.975c1.078 0 1.956-.886 1.956-1.975s-.878-1.975-1.956-1.975z" fill="#1a1a17"/></g><g><path d="M244.084 396.3c-.913 0-1.655-.751-1.655-1.675s.743-1.675 1.655-1.675c.913 0 1.656.751 1.656 1.675s-.743 1.675-1.656 1.675z" fill="#404038"/><path d="M244.084 393.25c.749 0 1.356.616 1.356 1.375s-.607 1.375-1.356 1.375-1.356-.616-1.356-1.375.607-1.375 1.356-1.375m0-.6c-1.078 0-1.956.886-1.956 1.975s.877 1.975 1.956 1.975 1.956-.886 1.956-1.975-.878-1.975-1.956-1.975z" fill="#1a1a17"/></g><g><path d="M253.326 396.3c-.913 0-1.655-.751-1.655-1.675s.743-1.675 1.655-1.675c.913 0 1.656.751 1.656 1.675s-.743 1.675-1.656 1.675z" fill="#404038"/><path d="M253.326 393.25c.749 0 1.356.616 1.356 1.375s-.607 1.375-1.356 1.375a1.366 1.366 0 0 1-1.356-1.375 1.367 1.367 0 0 1 1.356-1.375m0-.6c-1.078 0-1.956.886-1.956 1.975s.877 1.975 1.956 1.975 1.956-.886 1.956-1.975-.877-1.975-1.956-1.975z" fill="#1a1a17"/></g><g><path d="M262.569 396.3c-.913 0-1.655-.751-1.655-1.675s.743-1.675 1.655-1.675c.913 0 1.656.751 1.656 1.675s-.743 1.675-1.656 1.675z" fill="#404038"/><path d="M262.569 393.25c.749 0 1.356.616 1.356 1.375s-.607 1.375-1.356 1.375a1.366 1.366 0 0 1-1.356-1.375 1.366 1.366 0 0 1 1.356-1.375m0-.6c-1.078 0-1.956.886-1.956 1.975s.877 1.975 1.956 1.975c1.078 0 1.956-.886 1.956-1.975s-.878-1.975-1.956-1.975z" fill="#1a1a17"/></g></g><g><g fill-rule="evenodd" clip-rule="evenodd" fill="#fffdbe"><path d="M239.814 264.574v3.362h-10.099c-.474 0-1.057-.093-1.33.082-.212.133-.283.568-.011.747.179.121.665.085 1.022.085h5.511c.725 0 1.523-.046 2.115.083 1.181.255 2.038.938 2.495 1.911a4.19 4.19 0 0 1 .392 1.82c0 2.077-1.105 3.37-2.851 3.751-.598.131-1.367.085-2.126.085-3.656 0-7.319-.022-11-.013v-3.362h5.868c1.335 0 2.936.011 4.396.011.411 0 1.103.069 1.379-.083a.478.478 0 0 0 .188-.593c-.155-.385-1.111-.25-1.674-.25h-5.69c-.469 0-.941.019-1.364-.048-1.583-.24-2.665-1.184-3.006-2.67-.186-.812-.128-1.779.129-2.496a3.66 3.66 0 0 1 1.188-1.649 3.67 3.67 0 0 1 2.102-.787c1.029-.048 2.071 0 3.1 0 3.069 0 6.153.026 9.266.014zM240.313 264.56h3.588c.169 0 .39-.035.534 0 .115.031.403.352.499.44.175.159.327.33.477.464 2.25 2.077 4.499 4.364 6.71 6.379v-7.283h4.169v11.95h-3.599c-.166 0-.362.027-.511 0-.149-.026-.369-.296-.512-.426-.487-.447-.982-.946-1.437-1.378-1.922-1.826-3.858-3.713-5.758-5.477v7.281h-4.172v-11.913c-.002-.016-.002-.034.012-.037zM256.885 264.56h4.11c.004 1.813-.011 3.647.012 5.442.059.005.126-.076.19-.132 1.883-1.632 3.723-3.319 5.62-4.978.111-.098.287-.306.39-.333.184-.043.471 0 .713 0h4.906c.026.052-.047.066-.07.085-2.253 1.868-4.617 3.703-6.877 5.572 2.374 1.963 4.78 3.927 7.161 5.904.155.126.333.228.451.39h-5.142c-.248 0-.529.043-.724 0-.136-.026-.302-.264-.429-.379a30.599 30.599 0 0 1-1.245-1.178c-1.618-1.613-3.338-3.156-4.944-4.716-.022 2.069-.008 4.177-.012 6.263-1.374 0-2.762-.008-4.122.011v-11.913c0-.017 0-.035.012-.038z"/></g><path d="M231.771 302.913a2.32 2.32 0 0 0-1.703.701 2.315 2.315 0 0 0-.701 1.703c0 .658.233 1.221.701 1.689a2.32 2.32 0 0 0 1.703.701c.657 0 1.221-.234 1.688-.701a2.3 2.3 0 0 0 .702-1.689c0-.668-.234-1.235-.702-1.703a2.303 2.303 0 0 0-1.688-.701zm45.759-5.864c-2.476-.099-4.563.682-6.258 2.344-1.697 1.662-2.545 3.738-2.545 6.228 0 2.219.652 4.136 1.956 5.753 1.651 2.045 3.987 3.068 7.008 3.068 3.012 0 5.344-1.072 6.995-3.216 1.246-1.616 1.869-3.489 1.869-5.616 0-2.49-.836-4.564-2.507-6.222-1.671-1.659-3.843-2.438-6.518-2.339zm3.943 13.314c-.403 1.159-.968 2.002-1.694 2.529-.569.413-1.276.618-2.125.618-1.261 0-2.241-.478-2.942-1.435-1.005-1.368-1.508-3.483-1.508-6.344 0-2.408.325-4.254.977-5.54.799-1.567 1.965-2.35 3.498-2.35.832 0 1.567.227 2.206.68.638.454 1.163 1.23 1.575 2.331.412 1.101.618 2.76.618 4.978.001 1.864-.201 3.375-.605 4.533zm-28.028-3.33h-8.161v.435h.432c.403 0 .746.08 1.03.238.285.158.471.335.562.53.09.196.136.627.136 1.292v3.494a8.707 8.707 0 0 1-1.301.377c-.424.087-.837.13-1.239.13-1.159 0-2.16-.285-3.003-.854s-1.452-1.46-1.831-2.672c-.378-1.212-.567-2.623-.567-4.231 0-1.328.174-2.622.521-3.884.346-1.262.938-2.245 1.771-2.95.834-.705 1.879-1.058 3.134-1.058 1.313 0 2.523.421 3.629 1.263 1.107.842 1.937 2.072 2.491 3.689h.435v-5.923h-.435c-.165.476-.347.8-.546.971a.968.968 0 0 1-.644.257c-.148 0-.63-.155-1.444-.465-.814-.31-1.402-.498-1.766-.565a11.713 11.713 0 0 0-2.256-.198c-2.693 0-4.928.87-6.704 2.608-1.777 1.739-2.664 3.868-2.664 6.39 0 1.409.289 2.682.866 3.82a8.049 8.049 0 0 0 1.887 2.379 9.933 9.933 0 0 0 2.784 1.706c1.052.432 2.375.648 3.967.648a17.68 17.68 0 0 0 3.607-.362c1.159-.242 2.275-.6 3.348-1.076v-3.494c0-.616.037-1.003.111-1.162.131-.299.318-.514.56-.643.243-.129.673-.214 1.289-.256v-.434zm-34.053-9.984c-2.477-.099-4.563.682-6.259 2.344-1.697 1.662-2.544 3.738-2.544 6.228 0 2.219.651 4.136 1.956 5.753 1.651 2.045 3.987 3.068 7.007 3.068 3.013 0 5.345-1.072 6.996-3.216 1.246-1.616 1.87-3.489 1.87-5.616 0-2.49-.836-4.564-2.507-6.222-1.673-1.659-3.845-2.438-6.519-2.339zm3.942 13.314c-.404 1.159-.968 2.002-1.693 2.529-.569.413-1.277.618-2.125.618-1.262 0-2.242-.478-2.942-1.435-1.006-1.368-1.508-3.483-1.508-6.344 0-2.408.325-4.254.976-5.54.8-1.567 1.966-2.35 3.498-2.35.832 0 1.567.227 2.206.68.639.454 1.163 1.23 1.576 2.331.412 1.101.618 2.76.618 4.978 0 1.864-.202 3.375-.606 4.533zm42.213 1.703c-.944.725-2.2 1.088-3.766 1.088h-1.002c-.478 0-.825-.065-1.039-.198a1.018 1.018 0 0 1-.439-.507c-.079-.206-.117-.772-.117-1.697v-4.73c.8 0 1.411.106 1.832.316.421.211.791.622 1.108 1.233.318.611.526 1.396.625 2.354h.476v-8.795h-.476c-.132 1.304-.437 2.291-.916 2.959-.479.669-1.25 1.003-2.315 1.003h-.334v-6.834h1.723c1.271 0 2.138.074 2.6.223.792.248 1.405.636 1.838 1.165.434.528.77 1.4 1.009 2.614h.476v-4.972h-14.045v.436h.556c.543 0 .971.117 1.283.35.222.159.375.383.457.675.041.175.062.646.062 1.412v11.054c0 .85-.046 1.374-.137 1.574-.114.283-.279.484-.494.6-.296.175-.687.262-1.172.262h-.556v.435h14.499l.755-5.336h-.456c-.412 1.485-1.091 2.59-2.035 3.316zm-58.138 0c-.945.725-2.2 1.088-3.767 1.088h-1.002c-.478 0-.824-.065-1.039-.198a1.013 1.013 0 0 1-.439-.507c-.078-.206-.118-.772-.118-1.697v-4.73c.801 0 1.412.106 1.833.316.421.211.791.622 1.108 1.233.317.611.526 1.396.626 2.354h.475v-8.795h-.475c-.133 1.304-.438 2.291-.917 2.959-.479.669-1.251 1.003-2.315 1.003h-.335v-6.834h1.724c1.271 0 2.137.074 2.6.223.793.248 1.405.636 1.839 1.165.433.528.769 1.4 1.009 2.614h.475v-4.972h-19.303v.436c.936-.016 1.604.216 2.002.698.289.357.435 1.043.435 2.056v7.203l-8.251-10.392h-5.952v.436c.512.017.904.097 1.176.24.272.143.586.442.941.897l.358.444v11.849c0 .903-.181 1.543-.545 1.919-.363.377-1.007.569-1.931.577v.435h5.963v-.435h-.396a2.4 2.4 0 0 1-1.516-.514c-.442-.343-.662-1.004-.662-1.982v-10.688l11.309 13.996h.418v-13.985c0-.797.068-1.36.204-1.688.137-.328.326-.565.568-.71.243-.146.719-.264 1.427-.355h.266c.543 0 .971.117 1.284.35.223.159.375.383.457.675.041.175.062.646.062 1.412v11.054c0 .85-.046 1.374-.135 1.574-.116.283-.28.484-.494.6-.296.175-.688.262-1.173.262h-.555v.435h14.498l.755-5.336h-.456c-.414 1.484-1.093 2.589-2.036 3.315zm104.788-13.44c-.543-.235-1.444-.348-2.704-.341v12.382c0 .637.03 1.027.091 1.171.06.144.162.254.305.329.204.113.498.17.882.17 1.259 0 2.22-.431 2.885-1.294.905-1.167 1.357-3.132 1.357-5.586 0-1.977-.31-3.556-.928-4.738-.489-.925-1.119-1.76-1.888-2.093zm.93 12.005c-.537.698-1.306 1.036-2.355 1.036-.374 0-.52-.065-.556-.086a.045.045 0 0 0-.01-.005c-.012-.072-.042-.3-.042-.909v-11.702c.995.035 1.508.164 1.767.276.631.274 1.143.998 1.564 1.792.563 1.077.848 2.566.848 4.424 0 2.29-.409 4.134-1.216 5.174zm5.513-9.793c-.776-1.362-1.926-2.598-3.421-3.268-1.202-.537-2.785-.791-4.708-.791l-6.936-.002h-1.69l-.079.579c-.045.327-.131.434-.156.459-.056.056-.098.068-.15.069-.038-.004-.271-.042-1.09-.361-1.276-.496-2.51-.747-3.669-.747a9.122 9.122 0 0 0-4.484 1.174 8.811 8.811 0 0 0-3.361 3.312c-.825 1.413-1.243 2.932-1.243 4.513 0 1.502.378 2.937 1.124 4.266a7.667 7.667 0 0 0 3.226 3.104c1.365.705 2.94 1.062 4.681 1.062 1.334 0 2.525-.223 3.54-.663 1.011-.439 1.991-1.149 2.912-2.112l.186-.195v-3.405l-1.178 1.371c-.832.968-1.621 1.652-2.346 2.034a4.973 4.973 0 0 1-2.342.558c-1.019 0-1.848-.244-2.463-.726-.627-.489-1.098-1.241-1.403-2.233-.326-1.06-.491-2.26-.491-3.564 0-1.304.222-2.499.662-3.555a4.136 4.136 0 0 1 1.516-1.873 3.86 3.86 0 0 1 2.257-.71c.996 0 1.864.315 2.654.963.785.644 1.333 1.601 1.63 2.844l.123.515h1.636v-4.955h.562c.382 0 .583.071.684.131.169.1.213.175.223.199.012.041.074.653.074 1.594v10.133c0 .844-.039 1.116-.055 1.19a.62.62 0 0 1-.245.255c-.074.044-.261.118-.681.118h-1.179v1.74h7.553c1.043 0 1.797-.049 2.307-.148 1.095-.207 2.044-.507 2.818-.893a7.306 7.306 0 0 0 2.102-1.574c.608-.655 1.108-1.488 1.485-2.478.376-.984.566-2.225.566-3.385-.003-1.678-.389-3.207-1.151-4.545zm-15.735 1.948h-.435c-.333-1.395-.951-2.464-1.857-3.207-.906-.743-1.933-1.115-3.079-1.115-.959 0-1.838.276-2.638.828a4.831 4.831 0 0 0-1.755 2.167c-.475 1.143-.713 2.413-.713 3.812 0 1.377.173 2.63.521 3.761.347 1.131.891 1.985 1.63 2.564.74.579 1.699.868 2.876.868.965 0 1.85-.211 2.654-.635.804-.424 1.651-1.154 2.542-2.19v1.328c-.862.901-1.76 1.555-2.695 1.961-.933.405-2.025.608-3.273.608-1.641 0-3.099-.329-4.373-.987a6.978 6.978 0 0 1-2.949-2.837 7.92 7.92 0 0 1-1.038-3.937c0-1.467.383-2.859 1.151-4.175a8.121 8.121 0 0 1 3.108-3.064 8.42 8.42 0 0 1 4.158-1.089c1.081 0 2.223.234 3.426.701.696.271 1.138.407 1.327.407a.86.86 0 0 0 .629-.265c.178-.177.293-.458.347-.842h.435v5.338zm15.691 5.743c-.348.912-.797 1.666-1.35 2.26a6.615 6.615 0 0 1-1.91 1.431c-.722.36-1.605.638-2.647.835-.462.09-1.188.136-2.178.136h-6.883v-.399h.509c.445 0 .786-.071 1.024-.212.237-.141.413-.334.526-.579.068-.16.102-.641.102-1.443v-10.133c0-.794-.042-1.651-.124-1.85-.083-.199-.251-.372-.504-.521-.252-.149-.594-.223-1.024-.223h-.509v-.399h6.883c1.837 0 3.315.25 4.433.75 1.368.613 2.406 1.747 3.113 2.988.707 1.242 1.06 2.646 1.06 4.213.001 1.082-.173 2.234-.521 3.146z" fill="#fffdbe"/><g fill="#fffdbe"><path d="M227.822 317.007c.277 0 .512.04.707.121.194.08.352.187.474.319s.211.282.267.452a1.703 1.703 0 0 1 0 1.05 1.225 1.225 0 0 1-.267.455c-.122.133-.28.239-.474.319-.194.081-.43.121-.707.121h-1.023v1.587h-.973v-4.426h1.996zm-.266 2.083a2.1 2.1 0 0 0 .322-.025.756.756 0 0 0 .273-.096.539.539 0 0 0 .189-.201.718.718 0 0 0 .071-.342.717.717 0 0 0-.071-.341.531.531 0 0 0-.189-.201.756.756 0 0 0-.273-.096 1.99 1.99 0 0 0-.322-.025h-.756v1.327h.756zM231.944 317.007c.198 0 .377.032.536.096.159.064.295.152.409.264.113.111.2.241.26.388.06.146.09.305.09.474 0 .261-.055.486-.165.676-.109.19-.288.335-.536.435v.012a.757.757 0 0 1 .49.393c.05.094.086.195.108.308.023.111.038.223.047.334l.012.248c.004.096.011.192.021.292.01.099.027.192.05.281a.649.649 0 0 0 .102.227h-.973a1.731 1.731 0 0 1-.099-.502 7.214 7.214 0 0 0-.056-.558c-.033-.231-.104-.401-.211-.509s-.283-.161-.527-.161h-.973v1.729h-.973v-4.426h2.388zm-.347 2.002c.223 0 .39-.05.502-.148.111-.1.167-.261.167-.483 0-.215-.056-.371-.167-.469-.112-.097-.279-.146-.502-.146h-1.066v1.246h1.066zM233.587 318.317c.099-.282.242-.529.428-.74s.414-.376.685-.496c.271-.12.575-.18.914-.18.343 0 .649.06.917.18s.496.285.682.496.329.458.428.74c.099.283.148.59.148.921 0 .322-.049.623-.148.902a2.162 2.162 0 0 1-.428.728 1.972 1.972 0 0 1-.682.487 2.276 2.276 0 0 1-.917.177c-.339 0-.644-.06-.914-.177a1.956 1.956 0 0 1-.685-.487 2.143 2.143 0 0 1-.428-.728 2.68 2.68 0 0 1-.149-.902c0-.331.05-.637.149-.921zm.89 1.463c.043.176.112.334.208.475s.219.253.372.338.339.127.558.127c.219 0 .405-.042.558-.127s.277-.197.372-.338c.095-.141.164-.299.208-.475a2.391 2.391 0 0 0 0-1.106 1.477 1.477 0 0 0-.208-.486c-.095-.143-.219-.256-.372-.341s-.339-.127-.558-.127c-.219 0-.405.042-.558.127s-.277.198-.372.341-.164.305-.208.486c-.043.183-.065.37-.065.564 0 .186.021.367.065.542zM239.816 319.362v.756h-1.866v-.756h1.866zM242.792 321.398a1.632 1.632 0 0 1-.639.134c-.339 0-.644-.06-.914-.177a1.956 1.956 0 0 1-.685-.487 2.143 2.143 0 0 1-.428-.728 2.68 2.68 0 0 1-.149-.902c0-.331.05-.638.149-.921.099-.282.242-.529.428-.74s.414-.376.685-.496c.271-.12.575-.18.914-.18.228 0 .447.034.66.103s.405.168.577.301c.171.132.313.295.425.489.111.194.18.417.205.67h-.93c-.058-.248-.169-.435-.334-.559a.976.976 0 0 0-.602-.186c-.219 0-.405.042-.558.127s-.277.198-.372.341-.164.305-.208.486c-.043.183-.065.37-.065.564 0 .186.021.367.065.542.043.176.112.334.208.475s.219.253.372.338.339.127.558.127c.323 0 .571-.081.747-.245.176-.163.278-.399.307-.709h-.979v-.726h1.859v2.393h-.62l-.099-.502c-.174.223-.366.38-.577.468zM247.782 317.007v.818h-2.337v.948h2.145v.756h-2.145v1.085h2.387v.818h-3.36v-4.426h3.31z"/><path d="M250.292 317.007l1.655 4.426h-1.01l-.335-.985h-1.655l-.347.985h-.979l1.673-4.426h.998zm.056 2.715l-.558-1.624h-.012l-.577 1.624h1.147z"/><path d="M254.315 317.007c.198 0 .377.032.536.096.159.064.295.152.409.264.113.111.2.241.26.388.06.146.09.305.09.474 0 .261-.055.486-.165.676-.109.19-.288.335-.536.435v.012a.757.757 0 0 1 .49.393c.05.094.086.195.108.308.023.111.038.223.047.334l.012.248c.004.096.011.192.021.292.01.099.027.192.05.281a.649.649 0 0 0 .102.227h-.973a1.731 1.731 0 0 1-.099-.502 7.214 7.214 0 0 0-.056-.558c-.033-.231-.104-.401-.211-.509s-.283-.161-.527-.161h-.973v1.729h-.973v-4.426h2.388zm-.347 2.002c.223 0 .39-.05.502-.148.111-.1.167-.261.167-.483 0-.215-.056-.371-.167-.469-.112-.097-.279-.146-.502-.146h-1.066v1.246h1.066zM258.065 320.342c.054.104.125.187.214.251s.193.111.313.143c.12.031.244.047.372.047.087 0 .18-.008.279-.022a.96.96 0 0 0 .279-.083.63.63 0 0 0 .217-.171.425.425 0 0 0 .087-.275.39.39 0 0 0-.115-.292c-.077-.074-.177-.136-.301-.186s-.265-.093-.421-.13a14.725 14.725 0 0 1-.478-.124c-.165-.042-.326-.093-.483-.152s-.297-.138-.421-.232-.224-.214-.301-.356a1.089 1.089 0 0 1-.115-.518c0-.228.049-.425.146-.592.097-.168.224-.307.381-.419.157-.111.335-.193.533-.248.198-.053.397-.08.595-.08.231 0 .454.025.667.077.212.052.402.136.567.251.166.116.296.264.394.443s.146.398.146.654h-.942a.79.79 0 0 0-.083-.329.563.563 0 0 0-.189-.204.77.77 0 0 0-.27-.105 1.636 1.636 0 0 0-.332-.031c-.079 0-.157.009-.235.025a.623.623 0 0 0-.214.087.54.54 0 0 0-.158.154.415.415 0 0 0-.062.236c0 .086.017.156.05.21a.437.437 0 0 0 .195.149c.097.045.231.091.403.136.171.046.396.104.672.174.083.017.197.047.344.09.146.044.292.112.437.208.145.095.27.222.375.381.105.159.158.362.158.61 0 .203-.039.391-.118.564s-.195.323-.35.449-.347.225-.577.295c-.229.07-.495.105-.796.105-.244 0-.48-.03-.71-.09-.229-.061-.432-.154-.607-.282s-.315-.292-.418-.49a1.454 1.454 0 0 1-.148-.706h.942a.8.8 0 0 0 .078.378zM262.937 317.007c.277 0 .512.04.707.121.194.08.352.187.474.319s.211.282.267.452a1.703 1.703 0 0 1 0 1.05 1.225 1.225 0 0 1-.267.455c-.122.133-.28.239-.474.319-.194.081-.43.121-.707.121h-1.023v1.587h-.973v-4.426h1.996zm-.266 2.083a2.1 2.1 0 0 0 .322-.025.756.756 0 0 0 .273-.096.539.539 0 0 0 .189-.201.718.718 0 0 0 .071-.342.717.717 0 0 0-.071-.341.531.531 0 0 0-.189-.201.756.756 0 0 0-.273-.096 1.99 1.99 0 0 0-.322-.025h-.756v1.327h.756zM267.983 317.007v.818h-2.337v.948h2.145v.756h-2.145v1.085h2.387v.818h-3.36v-4.426h3.31zM271.126 318.188a.973.973 0 0 0-.511-.409 1.015 1.015 0 0 0-.344-.059c-.219 0-.405.042-.558.127-.153.085-.277.198-.372.341s-.164.305-.208.486c-.043.183-.065.37-.065.564 0 .186.021.367.065.542.043.176.112.334.208.475s.219.253.372.338c.153.085.339.127.558.127.298 0 .53-.091.698-.272.167-.182.27-.422.307-.72h.942a2.26 2.26 0 0 1-.192.75 1.744 1.744 0 0 1-1.004.93 2.193 2.193 0 0 1-.75.124c-.339 0-.644-.06-.914-.177a1.956 1.956 0 0 1-.685-.487 2.143 2.143 0 0 1-.428-.728 2.68 2.68 0 0 1-.149-.902c0-.331.05-.638.149-.921.099-.282.242-.529.428-.74s.414-.376.685-.496c.271-.12.575-.18.914-.18.244 0 .475.035.691.105s.411.173.583.307a1.686 1.686 0 0 1 .635 1.181h-.942a.812.812 0 0 0-.113-.306zM199.082 324.007l1.655 4.426h-1.01l-.335-.985h-1.655l-.347.985h-.979l1.673-4.426h.998zm.056 2.715l-.558-1.624h-.012l-.577 1.624h1.147z"/><path d="M202.627 324.007c.285 0 .551.045.796.137.246.091.459.227.639.408.18.183.32.409.421.683.101.272.152.593.152.961 0 .322-.041.619-.124.893a1.975 1.975 0 0 1-.375.706 1.762 1.762 0 0 1-.626.468 2.11 2.11 0 0 1-.883.171h-1.909v-4.426h1.909zm-.068 3.607c.141 0 .277-.022.409-.068a.897.897 0 0 0 .354-.226c.103-.105.186-.243.248-.412a1.82 1.82 0 0 0 .093-.62c0-.224-.021-.425-.065-.604s-.115-.334-.214-.462-.23-.227-.394-.295a1.598 1.598 0 0 0-.604-.102h-.694v2.789h.867zM205.87 328.433l-1.432-4.426h.998l.986 3.111h.012l.998-3.111h1.004l-1.469 4.426h-1.097zM210.332 324.007l1.655 4.426h-1.01l-.335-.985h-1.655l-.347.985h-.979l1.673-4.426h.998zm.056 2.715l-.558-1.624h-.012l-.577 1.624h1.147z"/><path d="M212.936 324.007l1.848 2.969h.012v-2.969h.911v4.426h-.973l-1.841-2.963h-.013v2.963h-.911v-4.426h.967zM218.998 325.188a.973.973 0 0 0-.511-.409 1.015 1.015 0 0 0-.344-.059c-.219 0-.405.042-.558.127s-.277.198-.372.341-.164.305-.208.486c-.043.183-.065.37-.065.564 0 .186.021.367.065.542.043.176.112.334.208.475s.219.253.372.338.339.127.558.127c.298 0 .53-.091.698-.272.167-.182.27-.422.307-.72h.942a2.26 2.26 0 0 1-.192.75 1.744 1.744 0 0 1-1.004.93 2.193 2.193 0 0 1-.75.124c-.339 0-.644-.06-.914-.177a1.956 1.956 0 0 1-.685-.487 2.143 2.143 0 0 1-.428-.728 2.68 2.68 0 0 1-.149-.902c0-.331.05-.638.149-.921.099-.282.242-.529.428-.74s.414-.376.685-.496c.271-.12.575-.18.914-.18.244 0 .475.035.691.105s.411.173.583.307a1.686 1.686 0 0 1 .635 1.181h-.942a.812.812 0 0 0-.113-.306zM223.66 324.007v.818h-2.337v.948h2.145v.756h-2.145v1.085h2.387v.818h-3.36v-4.426h3.31zM225.873 324.007c.285 0 .551.045.796.137.246.091.459.227.639.408.18.183.32.409.421.683.101.272.152.593.152.961 0 .322-.041.619-.124.893a1.975 1.975 0 0 1-.375.706 1.762 1.762 0 0 1-.626.468 2.11 2.11 0 0 1-.883.171h-1.909v-4.426h1.909zm-.069 3.607c.141 0 .277-.022.409-.068a.897.897 0 0 0 .354-.226c.103-.105.186-.243.248-.412a1.82 1.82 0 0 0 .093-.62c0-.224-.021-.425-.065-.604s-.115-.334-.214-.462-.23-.227-.394-.295a1.598 1.598 0 0 0-.604-.102h-.694v2.789h.867zM232.784 324.007v.818h-2.337v.948h2.145v.756h-2.145v1.085h2.387v.818h-3.36v-4.426h3.31zM234.055 324.007l1.848 2.969h.012v-2.969h.911v4.426h-.973l-1.841-2.963h-.013v2.963h-.911v-4.426h.967zM236.931 324.825v-.818h3.626v.818h-1.327v3.607h-.973v-3.607h-1.326zM243.973 324.007v.818h-2.337v.948h2.145v.756h-2.145v1.085h2.387v.818h-3.36v-4.426h3.31zM246.663 324.007c.198 0 .377.032.536.096.159.064.295.152.409.264.113.111.2.241.26.388.06.146.09.305.09.474 0 .261-.055.486-.165.676-.109.19-.288.335-.536.435v.012a.757.757 0 0 1 .49.393c.05.094.086.195.108.308.023.111.038.223.047.334l.012.248c.004.096.011.192.021.292.01.099.027.192.05.281a.649.649 0 0 0 .102.227h-.973a1.731 1.731 0 0 1-.099-.502 7.214 7.214 0 0 0-.056-.558c-.033-.231-.104-.401-.211-.509s-.283-.161-.527-.161h-.973v1.729h-.973v-4.426h2.388zm-.347 2.002c.223 0 .39-.05.502-.148.111-.1.167-.261.167-.483 0-.215-.056-.371-.167-.469-.112-.097-.279-.146-.502-.146h-1.066v1.246h1.066z"/><path d="M247.89 324.825v-.818h3.626v.818h-1.327v3.607h-.973v-3.607h-1.326zM253.258 324.007l1.655 4.426h-1.01l-.335-.985h-1.655l-.347.985h-.979l1.673-4.426h.998zm.056 2.715l-.558-1.624h-.012l-.577 1.624h1.147z"/><path d="M255.868 324.007v4.426h-.973v-4.426h.973zM257.287 324.007l1.848 2.969h.012v-2.969h.911v4.426h-.973l-1.841-2.963h-.013v2.963h-.911v-4.426h.967zM261.881 324.007l1.035 3.044h.012l.979-3.044h1.37v4.426h-.911v-3.137h-.012l-1.085 3.137h-.75l-1.084-3.105h-.013v3.105h-.911v-4.426h1.37zM269.04 324.007v.818h-2.337v.948h2.145v.756h-2.145v1.085h2.387v.818h-3.36v-4.426h3.31zM270.311 324.007l1.848 2.969h.012v-2.969h.911v4.426h-.973l-1.841-2.963h-.013v2.963h-.911v-4.426h.967zM273.187 324.825v-.818h3.626v.818h-1.327v3.607h-.973v-3.607h-1.326zM278.983 327.342c.054.104.125.187.214.251s.193.111.313.143c.12.031.244.047.372.047.087 0 .18-.008.279-.022a.96.96 0 0 0 .279-.083.63.63 0 0 0 .217-.171.425.425 0 0 0 .087-.275.39.39 0 0 0-.115-.292c-.077-.074-.177-.136-.301-.186s-.265-.093-.421-.13a14.725 14.725 0 0 1-.478-.124c-.165-.042-.326-.093-.483-.152s-.297-.138-.421-.232-.224-.214-.301-.356a1.089 1.089 0 0 1-.115-.518c0-.228.049-.425.146-.592.097-.168.224-.307.381-.419.157-.111.335-.193.533-.248.198-.053.397-.08.595-.08.231 0 .454.025.667.077.212.052.402.136.567.251.166.116.296.264.394.443s.146.398.146.654h-.942a.79.79 0 0 0-.083-.329.563.563 0 0 0-.189-.204.77.77 0 0 0-.27-.105 1.636 1.636 0 0 0-.332-.031c-.079 0-.157.009-.235.025a.623.623 0 0 0-.214.087.54.54 0 0 0-.158.154.415.415 0 0 0-.062.236c0 .086.017.156.05.21a.437.437 0 0 0 .195.149c.097.045.231.091.403.136.171.046.396.104.672.174.083.017.197.047.344.09.146.044.292.112.437.208.145.095.27.222.375.381.105.159.158.362.158.61 0 .203-.039.391-.118.564s-.195.323-.35.449-.347.225-.577.295c-.229.07-.495.105-.796.105-.244 0-.48-.03-.71-.09-.229-.061-.432-.154-.607-.282s-.315-.292-.418-.49a1.454 1.454 0 0 1-.148-.706h.942a.777.777 0 0 0 .078.378zM281.381 324.007h1.091l1.035 1.748 1.029-1.748h1.085l-1.643 2.728v1.698h-.973v-1.724l-1.624-2.702zM286.334 327.342c.054.104.125.187.214.251s.193.111.313.143c.12.031.244.047.372.047.087 0 .18-.008.279-.022a.96.96 0 0 0 .279-.083.63.63 0 0 0 .217-.171.425.425 0 0 0 .087-.275.39.39 0 0 0-.115-.292c-.077-.074-.177-.136-.301-.186s-.265-.093-.421-.13a14.725 14.725 0 0 1-.478-.124c-.165-.042-.326-.093-.483-.152s-.297-.138-.421-.232-.224-.214-.301-.356a1.089 1.089 0 0 1-.115-.518c0-.228.049-.425.146-.592.097-.168.224-.307.381-.419.157-.111.335-.193.533-.248.198-.053.397-.08.595-.08.231 0 .454.025.667.077.212.052.402.136.567.251.166.116.296.264.394.443s.146.398.146.654h-.942a.79.79 0 0 0-.083-.329.563.563 0 0 0-.189-.204.77.77 0 0 0-.27-.105 1.636 1.636 0 0 0-.332-.031c-.079 0-.157.009-.235.025a.623.623 0 0 0-.214.087.54.54 0 0 0-.158.154.415.415 0 0 0-.062.236c0 .086.017.156.05.21a.437.437 0 0 0 .195.149c.097.045.231.091.403.136.171.046.396.104.672.174.083.017.197.047.344.09.146.044.292.112.437.208.145.095.27.222.375.381.105.159.158.362.158.61 0 .203-.039.391-.118.564s-.195.323-.35.449-.347.225-.577.295c-.229.07-.495.105-.796.105-.244 0-.48-.03-.71-.09-.229-.061-.432-.154-.607-.282s-.315-.292-.418-.49a1.454 1.454 0 0 1-.148-.706h.942a.8.8 0 0 0 .078.378zM288.863 324.825v-.818h3.626v.818h-1.327v3.607h-.973v-3.607h-1.326zM295.905 324.007v.818h-2.337v.948h2.145v.756h-2.145v1.085h2.387v.818h-3.36v-4.426h3.31zM297.579 324.007l1.035 3.044h.012l.979-3.044h1.37v4.426h-.911v-3.137h-.012l-1.085 3.137h-.75l-1.084-3.105h-.013v3.105h-.911v-4.426h1.37z"/></g></g><g fill="#fff"><path d="M358.541 317.801a3.11 3.11 0 0 1-.006.142c-.017.152 0 .223-.437.223s-.42-.072-.437-.223a7.441 7.441 0 0 1-.01-.445c.001-.126.005-.396.01-.445.017-.152 0-.223.437-.223s.42.072.437.223a3.6 3.6 0 0 1 .006.151h.598a4.267 4.267 0 0 0-.017-.308c-.034-.303.085-.593-1.023-.593-1.108 0-.989.29-1.023.593-.011.099-.022.349-.021.602s.009.503.021.602c.034.303-.085.593 1.023.593 1.108 0 .989-.29 1.023-.593.007-.058.012-.167.016-.298l-.597-.001zM351.454 316.364l-.583 1.703-.583-1.703-.872-.005v2.287h.583v-1.704l.583 1.704h.583l.579-1.704v1.704h.583v-2.287zM359.27 316.359h1.676v.583h-.547v1.704h-.583v-1.704h-.546zM354.774 318.646l.669-2.289h.87l.67 2.289h-.583l-.138-.473h-.765l.108-.372h.547l-.271-.932-.524 1.777zM348.011 316.829c.437 0 .42.072.437.223.006.049.01.319.01.445.001.126-.005.396-.01.445-.017.152 0 .223-.437.223s-.42-.072-.437-.223a7.441 7.441 0 0 1-.01-.445c.001-.126.005-.396.01-.445.017-.151 0-.223.437-.223l.001-.526c-1.108 0-.989.29-1.023.593a6.716 6.716 0 0 0-.021.602c.001.252.009.503.021.602.034.303-.085.593 1.023.593 1.108 0 .989-.29 1.023-.593.011-.099.019-.349.021-.602a6.366 6.366 0 0 0-.021-.602c-.034-.303.085-.593-1.023-.593l-.001.526zM346.042 317.801a3.11 3.11 0 0 1-.006.142c-.017.152 0 .223-.437.223s-.42-.072-.437-.223a7.441 7.441 0 0 1-.01-.445c.001-.126.005-.396.01-.445.017-.152 0-.223.437-.223s.42.072.437.223a3.6 3.6 0 0 1 .006.151h.598a4.267 4.267 0 0 0-.017-.308c-.034-.303.085-.593-1.023-.593-1.108 0-.989.29-1.023.593a6.716 6.716 0 0 0-.021.602c.001.252.009.503.021.602.034.303-.085.593 1.023.593 1.108 0 .989-.29 1.023-.593.007-.058.012-.167.016-.298l-.597-.001zM353.747 318.123h-.354v-.522l.354-.002c.437 0 .423-.072.441-.223.006-.049.004-.009.004-.135-.001-.126.002-.083-.004-.132-.017-.152-.004-.223-.441-.223l-.354.001.001 1.757h-.584v-2.284h.938c1.108 0 .987.291 1.027.593.005.036.005.201.005.29 0 .072 0 .237-.005.289-.029.304.08.591-1.028.591zM342.406 327.256l-3.65-.004a.956.956 0 0 1-.956-.956v-5.556c0-.528.428-.956.956-.956l2.285-.003a.497.497 0 0 0 .497-.497l.007-2.221c0-.115.093-.208.208-.208h1.339c.115 0 .208.093.208.208l.014 9.986a.208.208 0 0 1-.208.208l-.7-.001-.017.496h.914a.497.497 0 0 0 .497-.497V316.85a.497.497 0 0 0-.497-.497h-1.757a.497.497 0 0 0-.497.497l.003 2.227a.208.208 0 0 1-.208.208l-2.087-.004c-.805 0-1.458.653-1.458 1.458v5.556c0 .805.653 1.458 1.458 1.458l3.633-.001.016-.496z"/><path d="M341.048 325.211v-3.595a.545.545 0 0 0-1.091 0v3.88a.546.546 0 1 0 1.091 0v-.285l.496.017v.269a1.04 1.04 0 1 1-2.082 0v-3.88a1.04 1.04 0 1 1 2.082 0v3.612l-.496-.018zM345.875 327.256h-.683a.208.208 0 0 1-.208-.208l.008-7.052c0-.115.093-.208.208-.208h1.339c.115 0 .208.093.208.208l.014 7.052a.208.208 0 0 1-.208.208h-.678v.494l.876.001a.497.497 0 0 0 .497-.497v-7.471a.497.497 0 0 0-.497-.497h-1.757a.497.497 0 0 0-.497.497l-.001 7.469c0 .274.221.497.495.497l.884.001v-.494zM352.185 321.175l-1.471-.002a.82.82 0 1 0 0 1.64l2.016.006c.528 0 .956.428.956.956l-.007 2.51a.956.956 0 0 1-.956.956l-4.002.007a.208.208 0 0 1-.208-.208v-.972c0-.115.093-.208.208-.208l2.727-.009a.82.82 0 1 0 0-1.64l-1.974-.008a.956.956 0 0 1-.956-.956v-2.507c0-.528.428-.956.956-.956l3.709-.017c.115 0 .208.093.208.208v.994a.208.208 0 0 1-.208.208l-.998-.002-.017.489h1.22a.496.496 0 0 0 .497-.495l.002-1.393a.497.497 0 0 0-.497-.497l-3.916.002c-.805 0-1.458.653-1.458 1.458v2.507c0 .805.653 1.458 1.458 1.458l1.975-.003a.33.33 0 0 1 0 .659l-2.939-.001a.497.497 0 0 0-.497.497v1.39c0 .274.222.497.497.497l4.214-.001c.805 0 1.458-.653 1.458-1.458l.007-2.51c0-.805-.653-1.458-1.458-1.458l-2.016.006a.33.33 0 0 1 0-.66h1.454l.016-.487zM359.6 322.554h.632a.208.208 0 0 0 .208-.208l-.003-1.606a.956.956 0 0 0-.956-.956h-3.161a.956.956 0 0 0-.956.956v5.556c0 .528.428.956.956.956h3.161a.956.956 0 0 0 .956-.956l.003-1.527a.208.208 0 0 0-.208-.208h-1.193a.208.208 0 0 0-.208.208l.007.728c0 .575-.362 1.041-.937 1.041-.575 0-.937-.466-.937-1.041v-3.88c0-.575.362-1.041.937-1.041.575 0 .937.466.937 1.041l-.007.729c0 .115.093.208.208.208h.561l-.017.501h-.75a.497.497 0 0 1-.497-.497l.006-.941c0-.301-.14-.545-.441-.545s-.441.244-.441.545v3.88c0 .301.14.546.441.546s.441-.244.441-.546l-.006-.94c0-.274.222-.497.497-.497h1.61c.274 0 .497.222.497.497l-.001 1.739c0 .805-.653 1.458-1.458 1.458h-3.161a1.458 1.458 0 0 1-1.458-1.458v-5.556c0-.805.653-1.458 1.458-1.458h3.161c.805 0 1.458.653 1.458 1.458l.001 1.818a.497.497 0 0 1-.497.497h-.86l.017-.501z"/></g><path d="M382.79 411.195c4.02-.646 8.749-3.637 11.023-6.483C348.311 406.733 287.982 410 247.417 410c-39.773 0-98.488-3.177-143.607-5.164 2.274 2.78 6.846 5.722 10.81 6.359 23.804 3.824 77.588 11.305 134.085 11.305 56.496 0 110.281-7.481 134.085-11.305z" fill="#242424"/><path d="M382.79 410.195c4.02-.646 7.443-2.579 9.718-5.425-45.501 2.02-104.526 4.23-145.09 4.23-39.773 0-97.297-2.124-142.416-4.111 2.274 2.78 5.655 4.67 9.619 5.307 23.804 3.824 77.588 11.305 134.085 11.305 56.495-.001 110.28-7.482 134.084-11.306z" fill="#21211d"/><g><path d="M646.47 354.332c-23.113 0-41.85 18.737-41.85 41.85s18.737 41.85 41.85 41.85c23.113 0 41.85-18.737 41.85-41.85s-18.737-41.85-41.85-41.85zm0 55.209c-7.377 0-13.358-5.98-13.358-13.358 0-7.377 5.98-13.358 13.358-13.358s13.358 5.98 13.358 13.358c-.001 7.377-5.981 13.358-13.358 13.358z" fill="#e8e8e8"/><path d="M646.47 287.366c-60.098 0-108.817 48.719-108.817 108.817S586.372 505 646.47 505s108.817-48.719 108.817-108.817-48.719-108.817-108.817-108.817zm0 150.667c-23.113 0-41.85-18.737-41.85-41.85s18.737-41.85 41.85-41.85c23.113 0 41.85 18.737 41.85 41.85s-18.737 41.85-41.85 41.85z" fill="#171717"/><path d="M646.47 358.431c20.816 0 37.752 16.935 37.752 37.752s-16.935 37.752-37.752 37.752c-20.816 0-37.752-16.935-37.752-37.752s16.935-37.752 37.752-37.752m0-4.099c-23.113 0-41.851 18.737-41.851 41.85 0 23.113 18.737 41.85 41.851 41.85 23.113 0 41.85-18.737 41.85-41.85 0-23.112-18.737-41.85-41.85-41.85z" fill="#ababab"/><path d="M646.47 362.589c18.524 0 33.594 15.07 33.594 33.594s-15.07 33.594-33.594 33.594-33.594-15.07-33.594-33.594c-.001-18.524 15.07-33.594 33.594-33.594m0-.117c-18.618 0-33.711 15.093-33.711 33.711s15.093 33.711 33.711 33.711 33.711-15.093 33.711-33.711-15.093-33.711-33.711-33.711z" fill="#4a4a4a"/><path d="M646.47 382.872c7.34 0 13.311 5.971 13.311 13.311s-5.971 13.311-13.311 13.311-13.311-5.971-13.311-13.311c-.001-7.34 5.971-13.311 13.311-13.311m0-.047c-7.377 0-13.358 5.98-13.358 13.358s5.98 13.358 13.358 13.358 13.358-5.98 13.358-13.358-5.981-13.358-13.358-13.358z"/><path d="M646.47 289.431c58.863 0 106.752 47.889 106.752 106.752S705.333 502.935 646.47 502.935c-58.863 0-106.752-47.889-106.752-106.752s47.888-106.752 106.752-106.752m0-2.065c-60.098 0-108.817 48.719-108.817 108.817S586.372 505 646.47 505c60.098 0 108.817-48.719 108.817-108.817S706.568 287.366 646.47 287.366z" fill="#ababab"/><defs><path id="h" d="M646.47 289.533c-58.901 0-106.65 47.749-106.65 106.65s47.749 106.65 106.65 106.65 106.65-47.749 106.65-106.65-47.749-106.65-106.65-106.65zm0 148.5c-23.113 0-41.85-18.737-41.85-41.85 0-23.113 18.737-41.85 41.85-41.85 23.113 0 41.85 18.737 41.85 41.85 0 23.113-18.737 41.85-41.85 41.85z"/></defs><clipPath id="i"><use xlink:href="#h" overflow="visible"/></clipPath><g clip-path="url(#i)"><path d="M675.578 288.929c.056 0 .047.078.06.115-2.533 1.533-5.34 2.79-7.198 4.994a40.508 40.508 0 0 0 2.148 2.14c-2.345 2.187-4.87 4.181-7.137 6.422 3.132.48 6.08 1.13 9.216 1.601-5.306 3.577-10.851 6.816-16.29 10.231-5.439 3.41-10.877 6.816-16.29 10.231h36.32c.043.248-.283.304-.415.41-12.554 9.44-25.643 18.759-38.219 28.233-.291 2.896.744 6.522-.775 8.378 3.86 2.037 9.594.942 13.611-.056 4.253-1.057 8.597-2.444 13.851-2.079.167.226-.247.371-.355.48-1.177 1.056-2.564 2.349-3.744 3.44.35 1.63 2.662.988 4.219 1.189-1.023.804-2.217 1.429-3.329 2.135 1.099 1.528 4.257.54 6.242.839.116.189-.317.317-.535.48-11.172 8.01-22.532 16.14-33.83 24.129-3.833 2.712-7.594 5.541-11.467 8.082.633-31.664 1.437-63.148 2.079-94.808 18.288-4.523 33.816-11.802 51.838-16.586zM604.189 313.537c1.635-.505 3.367-1.43 5.109-2.02v2.02c1.625-.753 3.487-2.097 5.113-2.854v81.556c-.295.115-.479-.228-.654-.356-14.745-10.401-26.795-23.859-42.318-33.526-5.666 13.26-11.331 26.517-16.945 39.825.831-20.14 1.789-41.48 2.799-62.057.034-.72-.035-1.588.11-1.964.133-.316.719-.539 1.134-.826 2.624-1.819 4.741-4.514 6.954-6.482 9.85 7.432 19.529 15.027 29.37 22.473 3.843-13.372 6.559-27.878 8.258-43.396.167 2.642 1.772 4.676 1.07 7.607z" fill-rule="evenodd" clip-rule="evenodd" fill="#3b3b3b"/><path d="M688.894 314.487c10.526 2.756 20.872 5.674 31.382 8.447.004.059.077.051.12.059 5.845 8.643 12.605 16.251 18.074 25.443 2.648 4.45 5.109 9.268 6.594 15.155 1.039 4.109 1.57 9.636.894 14.677-.095.711-.253 1.506-.416 2.324-.149.718-.176 1.733-.479 2.254-.231.39-1.001.839-1.425 1.186-5.224 4.274-7.848 11.207-11.652 17.119-1.348 2.106-2.939 4.232-4.754 5.649-2.165 1.685-4.835 2.516-8.027 1.729-1.344-.334-2.555-.848-3.74-1.489-.59-.317-1.113-.667-1.724-.89-5.85-2.081-9.884-5.649-13.556-9.932-6.406-7.458-10.753-17.035-16.106-25.678-1.352-2.173-3.017-4.168-3.924-6.539-2.833-7.36-5.797-15.164-8.738-22.584.531-1.236 1.421-2.271 2.14-3.393 3.568-5.549 7.295-11.129 10.877-16.761 1.435-2.249 3.039-4.723 4.46-6.776zm21.515 23.482c-1.463 1.309-3.115 2.876-3.324 5.289-.047.496-.12 1.236.056 1.839.325 1.121 1.882 2.201 3.213 2.32.612.059 1.233-.172 1.9-.111.484.034 1.121.393 1.784.171.958-.307 1.37-1.707 1.37-3.089-.004-.421-.18-.907-.12-1.37.089-.689.71-1.523.42-2.491-.261-.855-1.365-1.42-2.148-1.728-1.053-.42-1.908-.496-2.97-.951a.42.42 0 0 0-.181.121zm-20.505 15.875c.06.549.437 1.361 1.189 1.54.557.139 1.635.052 2.32 0 1.001-.068 1.999-.402 2.554-.829.317-.248.916-.941 1.006-1.429.385-2.025-1.54-1.824-2.965-2.38-.479-.181-.74-.496-1.133-.471-1.302.095-3.159 1.961-2.971 3.569zm37.03 24.073c-.531 1.071-1.096 2.444-1.72 3.27-3.098 4.043-9.996 5.117-16.825 4.81 2.717 1.305 5.126 2.858 8.618 3.158 3.659.307 6.765-1.361 8.802-2.918 4.446-3.403 6.157-9.817 6.004-17.655-.009-.035-.013-.069-.06-.061-1.52 3.166-3.296 6.316-4.819 9.396zM668.441 443.359c-11.793-.547-23.82-1.381-35.66-2.079 5.623 13.829 11.648 27.779 17.356 41.728h-4.279v2.439c0 .839-.18 1.925 0 2.43.145.402.646.282.77.655-1.489-.586-2.879-1.275-3.684-2.55-1.579 1.047-.578 4.171-.886 6.183-.15.095-.338-.318-.479-.539-9.722-15.405-19.572-31.079-29.302-46.487 14.531-20.076 29.207-40.015 43.807-60.033 9.303 6.718 18.43 13.623 27.702 20.394-1.852-.652-3.136.966-3.868 2.194.933 3.03 4.048 3.872 5.114 6.779-.714.466-1.511.595-2.38.41-1.493-.304-3.573-2.204-4.458-.527-.128.24-.389.865-.36 1.182.064.598 1.006 1.177 1.485 1.669.582.573 1.147 1.138 1.373 1.481a4040.538 4040.538 0 0 1-29.605-10.994c5.629 11.801 11.577 23.813 17.354 35.665z" fill-rule="evenodd" clip-rule="evenodd" fill="#3b3b3b"/><path d="M615.245 422.973c-3.243-1.083-5.781-3.038-8.322-4.877-2.507-1.814-5.044-3.671-7.792-5.348-3.748-2.302-8.763-5.024-15.092-4.575-1.87.125-3.881.432-5.353 1.186-1.198.616-2.289 1.788-3.209 2.79-2.836 3.119-4.947 7.052-5.588 12.306-.919 7.599 1.592 14.198 4.104 19.439 2.558 5.34 6.089 9.896 10.047 13.851 3.988 3.987 8.764 7.307 14.09 9.807-1.656-7.485-.197-18.087-7.552-19.975-2.366-.606-5.541-.274-8.793-.358-.111-.267.501-.574.826-.762 1.078-.655 2.585-1.126 3.213-2.209-1.668-1.01-3.376-1.976-5.053-2.969 2.657-1.049 3.932-3.476 5.943-5.169-.984-.664-2.194-1.412-2.913-2.14 7.128-1.66 14.15-3.415 21.283-5.061 3.059 23.452 6.209 46.823 9.328 70.204a134.308 134.308 0 0 1-26.388-14.378c-7.92-5.561-15.186-11.963-20.744-20.037-4.159-6.029-7.608-12.781-8.918-21.699-.445-2.994-.239-6.316-.239-9.918 0-11.656 1.797-21.956 6.183-29.55.621-1.069 1.202-2.234 1.96-3.085.569-.642 1.416-1.228 2.144-1.844 3.534-2.994 7.141-6.068 11.886-8.018 1.84-.77 4.005-1.498 6.239-1.669a18.977 18.977 0 0 1 12.366 3.325c9.233 6.472 10.808 20.678 16.344 30.733z" fill-rule="evenodd" clip-rule="evenodd" fill="#3b3b3b"/><g fill="#a8a8a8"><path d="M564.714 412.839l.879 2.343.883-2.343h.508v2.789h-.351v-2.321h-.008l-.871 2.321h-.317l-.871-2.321h-.008v2.321h-.351v-2.789h.507zM568.691 412.839l1.09 2.789h-.41l-.304-.84h-1.18l-.313.84h-.379l1.087-2.789h.409zm.258 1.637l-.465-1.301h-.008l-.473 1.301h.946zM570.934 412.839c.429 0 .76.109.992.327.232.219.348.553.348 1 0 .234-.026.443-.078.623a1.174 1.174 0 0 1-.242.458 1.065 1.065 0 0 1-.418.283c-.169.065-.37.098-.601.098h-.958v-2.789h.957zm.03 2.477c.042 0 .094-.004.157-.01a.878.878 0 0 0 .408-.154.694.694 0 0 0 .185-.192c.055-.079.1-.181.135-.302s.052-.267.052-.439c0-.167-.016-.316-.049-.447a.858.858 0 0 0-.16-.337.703.703 0 0 0-.287-.21 1.127 1.127 0 0 0-.433-.072h-.626v2.165h.618zM574.574 412.839v.312h-1.555v.887h1.45v.312h-1.45v.965h1.567v.312h-1.938v-2.789h1.926zM576.352 412.839v2.789h-.371v-2.789h.371zM577.289 412.839l1.469 2.261h.008v-2.261h.352v2.789h-.406l-1.457-2.239h-.008v2.239h-.352v-2.789h.394zM582.026 415.21a.616.616 0 0 1-.137.244.661.661 0 0 1-.254.173 1.07 1.07 0 0 1-.393.064c-.26 0-.461-.068-.602-.205-.141-.138-.211-.339-.211-.605v-.171h.371v.117c0 .081.006.155.019.223s.036.127.068.176c.033.05.079.088.137.116s.133.04.224.04c.169 0 .286-.045.35-.137a.625.625 0 0 0 .096-.366v-2.04h.371v2.094a.871.871 0 0 1-.039.277zM583.767 412.839l1.09 2.789h-.41l-.304-.84h-1.18l-.313.84h-.379l1.087-2.789h.409zm.258 1.637l-.465-1.301h-.008l-.473 1.301h.946zM586.275 412.839c.281 0 .494.072.639.216.144.145.217.348.217.607 0 .26-.072.464-.217.61-.145.146-.357.217-.639.215h-.852v1.141h-.371v-2.789h1.223zm-.125 1.336c.211.003.366-.04.463-.13.098-.088.146-.216.146-.383 0-.166-.049-.293-.146-.38s-.252-.131-.463-.131h-.727v1.024h.727zM588.384 412.839l1.09 2.789h-.41l-.304-.84h-1.18l-.313.84h-.379l1.087-2.789h.409zm.259 1.637l-.465-1.301h-.008l-.473 1.301h.946zM590.06 412.839l1.469 2.261h.008v-2.261h.352v2.789h-.406l-1.457-2.239h-.008v2.239h-.352v-2.789h.394zM568.68 417.906l1.252 3.348h-.764l-.253-.745h-1.252l-.263.745h-.74l1.266-3.348h.754zm.042 2.053l-.422-1.227h-.009l-.436 1.227h.867zM571.573 417.906c.216 0 .417.035.603.103.186.07.347.173.483.309.137.138.242.311.319.517.077.206.115.449.115.726 0 .244-.031.469-.094.676a1.48 1.48 0 0 1-.284.534c-.127.15-.284.269-.474.354-.189.086-.412.13-.668.13h-1.444v-3.348h1.444zm-.052 2.729a.92.92 0 0 0 .309-.052.705.705 0 0 0 .268-.171.845.845 0 0 0 .187-.312c.047-.128.07-.284.07-.468 0-.169-.016-.322-.049-.457a.905.905 0 0 0-.162-.35c-.075-.098-.174-.171-.297-.223s-.276-.077-.457-.077h-.525v2.109h.656zM575.656 418.799a.757.757 0 0 0-.647-.354.86.86 0 0 0-.422.096.792.792 0 0 0-.281.258 1.122 1.122 0 0 0-.157.369 1.813 1.813 0 0 0 0 .836c.033.134.085.252.157.359a.802.802 0 0 0 .281.255.86.86 0 0 0 .422.096c.225 0 .401-.068.527-.206a.952.952 0 0 0 .232-.543h.713a1.713 1.713 0 0 1-.145.567 1.317 1.317 0 0 1-.76.703 1.682 1.682 0 0 1-.567.093c-.256 0-.487-.045-.692-.134-.205-.089-.377-.212-.518-.368s-.249-.34-.324-.552a2.01 2.01 0 0 1-.112-.681c0-.251.038-.482.112-.697.075-.215.183-.401.324-.56.141-.16.313-.284.518-.375.205-.091.435-.137.692-.137.185 0 .359.026.522.079.164.053.311.131.441.233.13.102.237.227.321.378.084.149.138.322.16.515h-.713a.597.597 0 0 0-.084-.23zM578.333 417.906c.216 0 .417.035.603.103.186.07.347.173.483.309.137.138.242.311.319.517.077.206.115.449.115.726 0 .244-.031.469-.094.676a1.48 1.48 0 0 1-.284.534c-.127.15-.284.269-.474.354-.189.086-.412.13-.668.13h-1.444v-3.348h1.444zm-.052 2.729a.92.92 0 0 0 .309-.052c.1-.035.189-.092.267-.171s.141-.184.187-.312c.047-.128.07-.284.07-.468 0-.169-.016-.322-.049-.457a.905.905 0 0 0-.162-.35.713.713 0 0 0-.297-.223 1.18 1.18 0 0 0-.457-.077h-.525v2.109h.657zM581.605 419.688v.573h-1.411v-.573h1.411zM581.954 418.795c.064-.217.151-.391.26-.522a.923.923 0 0 1 .382-.281c.146-.057.3-.085.462-.085.166 0 .321.028.467.085.146.056.273.15.385.281.111.131.199.305.263.522.064.217.096.485.096.804 0 .329-.032.603-.096.823s-.152.396-.263.527a.938.938 0 0 1-.385.281 1.27 1.27 0 0 1-.467.085c-.162 0-.316-.028-.462-.085-.145-.056-.272-.15-.382-.281s-.196-.306-.26-.527-.096-.495-.096-.823c0-.319.032-.587.096-.804zm.579 1.143c.006.132.026.261.059.385a.823.823 0 0 0 .157.316c.072.088.175.131.309.131.138 0 .243-.043.317-.131a.813.813 0 0 0 .159-.316c.033-.124.052-.252.059-.385.006-.132.009-.247.009-.34l-.002-.203a2.404 2.404 0 0 0-.066-.498.791.791 0 0 0-.091-.223.5.5 0 0 0-.155-.159.42.42 0 0 0-.23-.061.402.402 0 0 0-.227.061.477.477 0 0 0-.15.159.876.876 0 0 0-.091.223 1.633 1.633 0 0 0-.047.251c-.01.085-.015.167-.017.247l-.002.203c0 .094.003.208.009.34zM584.467 418.795c.064-.217.151-.391.261-.522a.923.923 0 0 1 .382-.281c.146-.057.299-.085.462-.085.166 0 .321.028.467.085.146.056.273.15.385.281.111.131.198.305.263.522.064.217.096.485.096.804 0 .329-.032.603-.096.823s-.152.396-.263.527a.938.938 0 0 1-.385.281 1.27 1.27 0 0 1-.467.085c-.162 0-.316-.028-.462-.085-.145-.056-.272-.15-.382-.281s-.196-.306-.261-.527-.096-.495-.096-.823c0-.319.032-.587.096-.804zm.579 1.143c.006.132.026.261.059.385a.823.823 0 0 0 .157.316c.072.088.175.131.309.131.138 0 .243-.043.317-.131a.813.813 0 0 0 .159-.316c.033-.124.052-.252.059-.385.006-.132.009-.247.009-.34l-.002-.203a2.404 2.404 0 0 0-.066-.498.791.791 0 0 0-.091-.223.5.5 0 0 0-.155-.159.42.42 0 0 0-.23-.061.402.402 0 0 0-.227.061.477.477 0 0 0-.15.159.876.876 0 0 0-.091.223 1.633 1.633 0 0 0-.047.251c-.01.085-.015.167-.017.247l-.002.203c0 .094.002.208.009.34zM588.083 419.299c.082-.007.157-.025.228-.054s.128-.072.173-.128a.354.354 0 0 0 .068-.226.388.388 0 0 0-.141-.323.5.5 0 0 0-.323-.113c-.169 0-.296.056-.382.166a.648.648 0 0 0-.124.421h-.633c.006-.169.036-.323.091-.463a1.035 1.035 0 0 1 .584-.591c.137-.054.29-.082.459-.082.132 0 .263.02.394.059.131.039.249.099.354.177a.96.96 0 0 1 .256.286.765.765 0 0 1 .098.389.77.77 0 0 1-.115.422.579.579 0 0 1-.345.248v.01a.71.71 0 0 1 .427.263.769.769 0 0 1 .155.482.992.992 0 0 1-.371.797 1.16 1.16 0 0 1-.389.206 1.5 1.5 0 0 1-.46.071c-.185 0-.352-.026-.504-.079a1.06 1.06 0 0 1-.387-.233 1.038 1.038 0 0 1-.246-.373 1.309 1.309 0 0 1-.082-.506h.633c.003.088.017.171.042.251s.061.149.108.206a.499.499 0 0 0 .176.138c.07.035.154.052.251.052.15 0 .277-.046.38-.138s.155-.217.155-.378a.476.476 0 0 0-.073-.286.42.42 0 0 0-.185-.143.834.834 0 0 0-.247-.052 5.74 5.74 0 0 0-.256-.007v-.468c.074.005.151.005.231-.001z"/></g><path d="M696.143 416.551h41.672c-.996 13.09-1.925 26.191-2.914 39.473-.038.458.03 1.069-.06 1.3-.102.27-.872.681-1.36 1.018-10.637 7.284-17.561 18.502-26.932 27.044-4.86 4.431-10.363 8.638-18.305 9.807-2.773.402-5.948.333-8.742-.181-7.771-1.437-13.603-5.184-14.561-13.554-.933-8.113 2.113-16.005.95-24.134-.094-.625-.462-1.398-.42-1.9.052-.547 1.477-2.028 1.84-2.498a12385.612 12385.612 0 0 1 24.852-31.382c1.331-1.676 2.585-3.4 3.98-4.993zm14.026 19.615c.557-.795 1.233-1.956 1.254-3.03.021-1.083-.513-2.28-.894-2.913-1.571-2.619-5.545-2.645-9.328-2.209-1.095 3.415-3.586 9.705.056 12.016 3.649-.594 7.144-1.283 8.912-3.864zm14.565 10.813c.642-2.466-1.438-4.176-3.92-3.92-1.96.201-3.97 1.87-3.508 4.048.394 1.831 2.482 3.996 5.114 3.139.564-1.166 1.973-1.941 2.314-3.267zm-47.016 16.768c-.471.702-1.224 2.162-1.25 3.085-.039 1.412.77 3.205 1.604 4.288 2.204 2.859 6.32 3.638 9.212 5.521.565.377 1.036.983 1.665 1.317 1.168.611 2.91.843 4.403.89 5.254.145 8.943-2.062 12.126-3.928-1.643-3.192-1.24-8.429-4.223-10.278-.612.394-1.006.745-1.605 1.061-5.34 2.842-12.195-1.214-12.9-6.169h-.116c-3.756.667-7.076 1.462-8.916 4.213z" fill-rule="evenodd" clip-rule="evenodd" fill="#3b3b3b"/></g><g><path d="M563.336 402.191c.036.045.076.087.141.161v-1.548c0-.152.006-.306-.007-.457-.032-.364-.141-.474-.501-.537-.044-.008-.084-.039-.126-.059l.022-.052h4.943v1.295c-.053-.033-.097-.049-.124-.08-.021-.025-.022-.068-.031-.104-.146-.566-.398-.798-.97-.848-.27-.024-.544-.004-.821-.004v1.732c.417.034.661-.114.793-.493.046-.131.061-.273.098-.407.013-.045.052-.082.079-.123l.046.027v2.243l-.05.025c-.028-.047-.066-.092-.082-.143-.042-.133-.063-.272-.112-.402-.13-.35-.393-.494-.769-.461 0 .525-.009 1.053.01 1.581.003.077.139.205.225.215.936.108 1.568-.115 1.874-.987.018-.05.067-.09.101-.134l.049.031-.19 1.343h-3.721l-.017-.047c.04-.019.079-.051.121-.054.408-.032.483-.103.484-.516.003-1.048.002-2.097-.001-3.145-.001-.285-.103-.394-.384-.431-.479-.062-.7.14-.704.661-.006.719-.002 1.439-.002 2.158v1.523c-.087-.063-.151-.092-.191-.142-.882-1.088-1.762-2.179-2.642-3.269-.049-.06-.099-.119-.169-.201-.005.079-.01.13-.01.181v2.487c0 .504.086.602.589.695.031.006.056.044.124.101h-1.588v-.11c.455.007.619-.148.632-.6.002-.055.001-.11.001-.164 0-.895-.006-1.789.005-2.684a.611.611 0 0 0-.18-.452c-.127-.138-.288-.171-.457-.196v-.11c.451.001.902.007 1.353-.001a.321.321 0 0 1 .289.138M570.871 397.943a.367.367 0 0 1-.284-.121c-1.691-1.697-3.385-3.39-5.074-5.088a.425.425 0 0 1-.109-.267c-.003-2.407-.001-4.815.007-7.222 0-.08.037-.181.093-.237 1.453-1.46 2.911-2.915 4.369-4.371.03-.03.063-.056.091-.081l5.167 5.15c.042-.06.077-.128.128-.179 1.266-1.268 2.534-2.534 3.799-3.803a.388.388 0 0 1 .302-.127c2.109.007 4.217.007 6.326.015.085 0 .191.043.251.102a1192.98 1192.98 0 0 1 4.496 4.503c.059.059.1.166.101.25.005 2.115.004 4.23-.001 6.345a.345.345 0 0 1-.08.224c-1.471 1.477-2.946 2.949-4.421 4.422-.012.012-.028.021-.015.011l-3.693-3.605a3.25 3.25 0 0 0-.114.108c-1.281 1.279-2.562 2.558-3.839 3.84a.408.408 0 0 1-.316.136M572.888 401.847c-.003 1.461-1.143 2.429-2.635 2.24-.935-.119-1.62-.694-1.862-1.566-.264-.948.031-1.885.768-2.461.509-.397 1.096-.471 1.711-.42 1.221.102 2.021.98 2.018 2.207zm-3.433.001c.016.549.037 1.099.346 1.583a.938.938 0 0 0 1.58.026c.097-.144.171-.31.22-.477.182-.619.179-1.254.081-1.883a2.646 2.646 0 0 0-.278-.819c-.189-.356-.594-.5-.989-.419-.394.081-.611.352-.756.698-.173.413-.191.852-.204 1.291zM585.618 399.621c1.114.014 1.993.699 2.182 1.71.215 1.146-.322 2.237-1.309 2.615-.923.354-2.401.247-3.02-1.094-.591-1.28.053-2.781 1.351-3.143.082-.023.165-.045.249-.053.182-.016.364-.024.547-.035zm1.082 2.188c-.011-.177-.017-.391-.039-.603-.034-.329-.109-.648-.292-.931a.939.939 0 0 0-.996-.417c-.426.087-.648.389-.783.765-.18.501-.193 1.025-.166 1.551.021.404.082.799.275 1.162.121.227.288.406.543.485.514.159.962-.044 1.207-.55.219-.451.237-.938.251-1.462zM577.782 403.729c0-.319.002-.641 0-.964-.002-.314-.108-.422-.424-.447-.047-.004-.092-.031-.138-.047l.016-.056h2.074l.028.035c-.034.025-.066.064-.103.072-.348.071-.398.126-.405.487-.005.268.004.536-.008.804-.003.06-.053.15-.104.171-.754.311-1.537.428-2.341.267-1.054-.212-1.763-1.05-1.783-2.065-.022-1.097.66-2.029 1.692-2.294.561-.144 1.12-.135 1.668.072.102.039.205.076.308.111.211.071.289.036.401-.16.026-.045.077-.076.116-.113.016.053.044.106.045.159.004.449.002.898.002 1.347l-.056.03c-.037-.05-.086-.095-.109-.151-.16-.387-.395-.711-.762-.927-.821-.484-1.725-.146-2 .759a3.67 3.67 0 0 0-.027 2.072c.237.862 1.085 1.233 1.91.838z" fill="#828282"/><path d="M580.816 401.957c0 .513-.001 1.012.001 1.511 0 .161.078.274.242.292.428.046.853.041 1.244-.173.329-.18.503-.483.629-.821.019-.05.066-.089.1-.133l.05.031-.19 1.344c-.055.003-.108.009-.161.01h-3.399c-.03 0-.063.007-.091-.002-.028-.009-.051-.034-.077-.052.024-.02.045-.053.072-.058.524-.102.525-.101.525-.642 0-.993 0-1.986-.002-2.979-.001-.345-.107-.451-.453-.478-.051-.004-.101-.028-.151-.043l.015-.061h3.59v1.294c-.052-.038-.089-.063-.123-.091-.008-.006-.009-.022-.011-.034-.13-.659-.489-.92-1.215-.922h-.591v1.735c.362.054.625-.081.759-.411.059-.145.08-.304.124-.455.016-.054.049-.102.075-.153l.056.022v2.239l-.036.03c-.032-.04-.077-.076-.092-.122-.044-.138-.062-.286-.117-.419-.148-.361-.339-.471-.773-.459zM592.075 403.932v-.421h.248c.264-.004.297-.034.299-.294.002-.579.001-1.158.001-1.737 0-.372.003-.744-.002-1.115-.005-.345-.021-.356-.386-.348v1.26h-.422c-.041-.125-.077-.259-.129-.386-.185-.458-.59-.734-1.042-.72-.446.014-.82.306-.979.775-.203.599-.177 1.203.022 1.794.224.664.966.902 1.605.517.18-.108.333-.263.486-.411.127-.122.234-.265.379-.432 0 .308.003.583-.004.857-.001.038-.052.078-.085.112-.724.731-1.591.811-2.517.516-.762-.242-1.214-.798-1.373-1.569-.302-1.457.876-2.831 2.363-2.754.31.016.615.127.922.198.086.02.169.052.271.084l.073-.313c.941.022 1.888-.002 2.827.078.921.078 1.59.8 1.728 1.717.077.511.039 1.008-.182 1.481-.324.691-.912 1.045-1.631 1.098-.817.059-1.641.013-2.472.013zm.154-4.15l.018.046c.036.003.071.007.107.008.329.01.428.091.431.423.01 1.005.011 2.01.005 3.015-.002.31-.097.389-.409.411-.051.004-.1.029-.149.044l.013.058c.364 0 .729.005 1.093-.001.408-.007.82.012 1.221-.042.763-.103 1.34-.488 1.557-1.263.082-.293.103-.614.091-.919-.03-.708-.524-1.669-1.551-1.764-.774-.072-1.556-.047-2.335-.062-.031-.002-.061.029-.092.046zm-.255 3.149c-.189.155-.361.328-.562.456-.659.419-1.521.237-1.809-.405-.333-.741-.359-1.516-.033-2.268.32-.738 1.243-.942 1.875-.444.233.184.372.428.461.706.017.054.057.101.086.151l.046-.025v-1.361a.179.179 0 0 0-.12.103c-.066.156-.176.21-.337.156-.104-.035-.206-.072-.309-.109a2.398 2.398 0 0 0-1.112-.132c-1.158.137-2.046 1.323-1.829 2.459.143.747.552 1.289 1.285 1.52.787.247 1.548.215 2.213-.367a.41.41 0 0 0 .145-.44zM573.758 401.146a.614.614 0 0 1 .613.616.62.62 0 1 1-1.237-.013.607.607 0 0 1 .624-.603z" fill="#828282"/><path d="M569.957 381.368l4.736 4.723c-.288.163-.208.441-.209.694-.003 1.03-.002 2.06-.003 3.09 0 .042.005.084.008.148h.2c1.237.001 2.475.003 3.712 0a.39.39 0 0 1 .302.125c1.091 1.073 2.187 2.14 3.29 3.218-.089.099-.126.144-.168.185-1.242 1.241-2.483 2.482-3.73 3.718a.415.415 0 0 1-.267.107c-2.237.005-4.474.002-6.711.005a.37.37 0 0 1-.286-.12c-1.583-1.589-3.17-3.175-4.751-4.766a.417.417 0 0 1-.109-.266c-.006-2.313-.005-4.417 0-6.729 0-.081.03-.185.085-.24 1.272-1.28 2.549-2.554 3.825-3.829l.076-.063zm5.973 9.4c-.114.236-.229.429-.305.637-.135.371-.248.75-.367 1.126-.312.981-.99 1.559-1.987 1.745-.734.137-1.473.17-2.219-.197.282.439.604.752 1.069.891.542.162 1.094.141 1.648.089.337-.032.668-.083.941-.304 1.327-1.076 1.619-2.351 1.22-3.987zm-3.952-2.6c.15.007.249.002.344.018.125.021.204-.015.266-.128.09-.165.19-.325.293-.483.093-.143.1-.277.004-.423-.126-.193-.258-.385-.359-.592-.106-.217-.26-.257-.489-.27-.311-.017-.512.068-.649.352-.089.184-.304.344-.312.522-.009.185.177.373.252.57.126.333.315.539.65.434zm-2.941 1.683c.127-.001.602-.364.628-.451.003-.011.007-.026.002-.035-.102-.189-.157-.454-.315-.553-.507-.318-1.008.001-1.108.54-.005.025.006.064.024.08.231.213.483.388.769.419zM584.143 391.223c.452-.219.894-.436 1.339-.646.101-.048.144-.113.181-.222.185-.549.102-1.093.003-1.639a2.718 2.718 0 0 1-.026-.181c-.004-.036-.004-.072-.007-.128l2.009-.451.304 1.298c.03.13.042.268.091.391.212.53.104 1.051-.035 1.57-.014.054-.083.115-.139.132a5.264 5.264 0 0 1-.653.17c-.143.025-.186.101-.209.226-.071.37-.15.739-.225 1.109-.016.08-.03.141-.139.155-.495.061-.989.137-1.484.2-.055.007-.129-.029-.173-.068a8.377 8.377 0 0 1-.464-.44.412.412 0 0 1-.098-.187c-.095-.42-.181-.843-.275-1.289zM581.788 386.568c-.048.465-.088.888-.139 1.31a.21.21 0 0 1-.109.14c-.256.111-.516.214-.779.308a.219.219 0 0 1-.176-.029 23.274 23.274 0 0 1-.851-.689.25.25 0 0 1-.068-.184c.036-.408.073-.766.132-1.214.008-.058.083-.106.128-.159.003-.004.012-.002.018-.003l.814-.19c.328.209.656.417.982.629.031.021.044.074.048.081zM583.081 384.051c.034.006.081.013.128.023.597.119.599.119.811.693.018.048-.007.121-.03.174-.018.042-.063.072-.096.109-.416.461-.416.461-1.012.302-.034-.009-.091-.025-.093-.043-.023-.184-.087-.383-.042-.551.065-.241.212-.459.334-.707z" fill="#171717"/><path d="M593.765 399.967c.544-.074.863.078 1.126.539.218.382.271.801.274 1.231.003.428-.023.852-.199 1.251-.181.411-.497.602-.94.579-.199-.011-.27-.067-.271-.263-.005-1.102-.003-2.203-.003-3.305.001-.011.009-.021.013-.032zm.166 3.403c.449.065.729-.089.89-.489.169-.421.189-.864.167-1.311-.021-.413-.107-.805-.357-1.149-.178-.244-.422-.298-.699-.284l-.001 3.233z" fill="#828282"/></g><g><path d="M655.118 486.863a2.857 2.857 0 0 1-.006.135c-.016.144 0 .212-.415.212s-.399-.068-.415-.212a8.729 8.729 0 0 1 0-.846c.016-.144 0-.212.415-.212s.399.068.415.212c.002.02.004.076.006.144h.568a4.594 4.594 0 0 0-.016-.292c-.033-.288.081-.564-.972-.564-1.052 0-.939.276-.972.564-.011.094-.021.332-.02.571s.009.478.02.571c.033.288-.081.564.972.564s.939-.276.972-.564c.006-.055.011-.159.015-.283h-.567zM648.385 485.497l-.553 1.619-.554-1.619-.829-.004v2.172h.554v-1.618l.554 1.618h.554l.549-1.618v1.618h.554v-2.172zM655.81 485.493h1.592v.554h-.519v1.618h-.554v-1.618h-.519zM651.539 487.665l.636-2.174H653l.637 2.174h-.554l-.13-.449h-.727l.103-.353h.519l-.258-.886-.497 1.688zM645.115 485.94c.415 0 .399.068.415.212.005.047.009.303.01.423a7.6 7.6 0 0 1-.01.423c-.016.144 0 .212-.415.212s-.399-.068-.415-.212a8.729 8.729 0 0 1 0-.846c.016-.144 0-.212.415-.212l.001-.5c-1.052 0-.939.276-.972.564-.011.094-.021.332-.02.571s.009.478.02.571c.033.288-.081.564.972.564s.939-.276.972-.564c.011-.094.018-.332.02-.571s-.009-.478-.02-.571c-.033-.288.081-.564-.972-.564l-.001.5zM643.244 486.863a2.857 2.857 0 0 1-.006.135c-.016.144 0 .212-.415.212s-.399-.068-.415-.212a8.729 8.729 0 0 1 0-.846c.016-.144 0-.212.415-.212s.399.068.415.212c.002.02.004.076.006.144h.568a4.594 4.594 0 0 0-.016-.292c-.033-.288.081-.564-.972-.564s-.939.276-.972.564a5.891 5.891 0 0 0-.019.571c.001.24.009.478.019.571.033.288-.081.564.972.564 1.052 0 .939-.276.972-.564.006-.055.011-.159.015-.283h-.567zM650.563 487.168h-.336v-.496l.336-.002c.415 0 .402-.068.419-.212.005-.047.004-.008.004-.128-.001-.12.002-.079-.004-.126-.016-.144-.003-.212-.419-.212l-.336.001.001 1.669h-.555v-2.17h.891c1.053 0 .937.276.976.564.005.034.005.191.005.276 0 .068 0 .225-.005.275-.028.289.076.561-.977.561zM639.79 495.845l-3.467-.004a.908.908 0 0 1-.908-.908v-5.278c0-.502.407-.908.908-.908l2.17-.002a.472.472 0 0 0 .472-.472l.006-2.11c0-.109.089-.198.198-.198h1.272c.109 0 .198.089.198.198l.013 9.486a.198.198 0 0 1-.198.198l-.664-.002-.016.471h.868a.472.472 0 0 0 .472-.472v-9.884a.472.472 0 0 0-.472-.472h-1.669a.472.472 0 0 0-.472.472l.002 2.116a.198.198 0 0 1-.198.198l-1.983-.004c-.765 0-1.385.62-1.385 1.385v5.278c0 .765.62 1.385 1.385 1.385l3.451-.001.017-.472z" fill="#828282"/><path d="M638.501 493.902v-3.415a.518.518 0 0 0-1.036 0v3.686a.518.518 0 0 0 1.036 0v-.271l.471.016v.255a.99.99 0 0 1-1.978 0v-3.686a.99.99 0 0 1 1.978 0v3.431l-.471-.016zM643.086 495.845h-.649a.198.198 0 0 1-.198-.198l.008-6.699c0-.109.089-.198.198-.198h1.272c.109 0 .198.089.198.198l.013 6.699a.198.198 0 0 1-.198.198h-.644v.469l.832.001a.472.472 0 0 0 .472-.472v-7.097a.472.472 0 0 0-.472-.472h-1.669a.472.472 0 0 0-.472.472l-.001 7.095c0 .261.21.472.47.472l.84.001v-.469zM649.079 490.068l-1.398-.002a.78.78 0 0 0 0 1.558l1.915.005c.502 0 .908.407.908.908l-.006 2.384a.908.908 0 0 1-.908.908l-3.801.007a.198.198 0 0 1-.198-.198v-.923c0-.109.089-.198.198-.198l2.591-.008a.78.78 0 0 0 0-1.558l-1.876-.007a.908.908 0 0 1-.908-.908v-2.382c0-.502.407-.908.908-.908l3.524-.016c.109 0 .198.089.198.198v.944a.198.198 0 0 1-.198.198l-.949-.002-.016.464h1.159a.47.47 0 0 0 .472-.47l.002-1.323a.472.472 0 0 0-.472-.472l-3.72.002c-.765 0-1.385.62-1.385 1.385v2.382c0 .765.62 1.385 1.385 1.385l1.876-.003a.313.313 0 1 1 0 .626l-2.792-.001a.472.472 0 0 0-.472.472v1.32c0 .261.211.472.472.472l4.003-.001c.765 0 1.385-.62 1.385-1.385l.006-2.384c0-.765-.62-1.385-1.385-1.385l-1.915.005a.313.313 0 1 1 0-.626h1.382l.015-.463zM656.123 491.378h.6a.198.198 0 0 0 .198-.198l-.003-1.526a.908.908 0 0 0-.908-.908h-3.003a.908.908 0 0 0-.908.908v5.278c0 .502.407.908.908.908h3.003a.908.908 0 0 0 .908-.908l.003-1.451a.198.198 0 0 0-.198-.198h-1.133a.198.198 0 0 0-.198.198l.006.692c0 .546-.344.989-.89.989s-.89-.443-.89-.989v-3.686c0-.546.344-.989.89-.989s.89.443.89.989l-.006.693c0 .109.089.198.198.198h.533l-.016.476h-.713a.472.472 0 0 1-.472-.472l.006-.894c0-.286-.133-.518-.419-.518s-.419.232-.419.518v3.686c0 .286.133.518.419.518s.419-.232.419-.518l-.006-.893c0-.261.211-.472.472-.472h1.53c.261 0 .472.211.472.472l-.001 1.652c0 .765-.62 1.385-1.385 1.385h-3.003c-.765 0-1.385-.62-1.385-1.385v-5.278c0-.765.62-1.385 1.385-1.385h3.003c.765 0 1.385.62 1.385 1.385l.001 1.727a.472.472 0 0 1-.472.472h-.817l.016-.476z" fill="#828282"/></g></g></svg>